<svg xmlns="http://www.w3.org/2000/svg" viewBox="0 0 640 480"><g style="display:none"><text x="0" y="0" fill="#000" style="white-space: pre;">Projection: MILLER Fi0: 90 Lambda0: 0 FiMin: -90 FiMax: 90 LambdaMin: -180 LambdaMax: 180 Scale: 100</text></g><g><g transform="matrix(3.012608, 0, 0, 3.012608, -932.150452, -590.82373)"><path d="m 414.73282,291.26031 0.52103,1.57952 0.60609,1.27245 0.48533,0.68667 0.80876,1.11078 1.39634,-0.17182 0.69696,-0.29899 1.16705,0.29996 0.31629,-0.53107 0.52986,-1.23747 1.30982,-0.0828 0.11387,-0.36771 1.07739,-0.009 -0.18393,0.76459 2.56254,-0.0184 0.0388,1.33621 0.42785,0.82001 -0.31108,1.28237 0.155,1.30957 0.70458,0.79099 -0.11301,2.54027 0.52272,-0.1959 0.91754,0.0522 1.30825,-0.3198 0.96183,0.12582 0.22312,0.6637 -0.24006,1.03744 0.37111,1.00443 -0.31473,0.80296 0.17993,0.74064 -4.39726,-0.0271 -0.0974,6.86022 1.42488,1.77483 1.37795,1.3581 -3.88107,0.88753 -5.11285,-0.3083 -1.46326,-1.0429 -8.56062,0.0936 -0.31933,0.15294 -1.25888,-0.98313 -1.36911,-0.065 -1.26409,0.37027 -1.01653,0.41356 -0.19867,-1.36619 0.29233,-1.90564 0.72878,-1.97871 0.10978,-0.92565 0.68535,-1.94059 0.50348,-0.88065 1.21302,-1.4042 0.67748,-0.95372 0.2218,-1.58534 -0.11048,-1.21122 -0.63174,-0.76326 -0.56228,-1.2941 -0.51873,-1.27824 0.11338,-0.44238 0.64904,-0.84361 -0.64081,-2.05337 -0.43222,-1.4209 -1.05802,-1.3419 0.20073,-0.41189 0.87181,-0.28482 0.61177,0.0396 0.74065,-0.25471 6.23186,0.0282" style="fill:#e6e6e6;stroke:#000000;stroke-width:0.242"/><path d="m 406.51813,290.85097 -0.53723,0.22372 -0.56447,-1.59248 0.85232,-0.91391 0.63828,-0.35598 0.79121,0.72612 -0.76847,0.44493 -0.34545,0.54437 -0.0662,0.92323" style="fill:#e6e6e6;stroke:#000000;stroke-width:0.242"/><path d="m 442.21543,288.34361 -0.13431,-2.55092 -0.53119,-0.96101 1.28248,0.16615 0.64674,-1.20335 1.12204,0.13819 0.12245,0.832 0.45472,0.47916 0.0196,0.68703 -0.52102,0.44262 -0.82208,1.10291 -0.76617,0.76643 -0.87326,0.10076" style="fill:#e6e6e6;stroke:#000000;stroke-width:0.242"/><path d="m 385.93822,265.59947 -1.74543,0.24721 -0.51994,-1.46277 0.096,-4.88054 -0.42556,-0.43874 -0.08,-1.04581 -0.73351,-0.7468 -0.64517,-0.62993 0.26886,-1.12458 0.72624,-0.24188 0.43015,-0.93496 1.03238,-0.20013 0.46137,-0.64009 0.70894,-0.62752 0.75686,-0.004 1.61051,1.23228 -0.0823,0.71086 0.47492,1.26785 -0.41599,0.85921 0.22227,0.57391 -1.02414,1.31951 -0.65074,0.65291 -0.3981,1.34239 0.0535,1.35216 -0.12124,3.42078" style="fill:#e6e6e6;stroke:#000000;stroke-width:0.242"/><path d="m 374.28253,258.40868 -1.44535,-0.54958 -0.98942,0.0811 -0.7387,0.53603 -0.94973,-0.45012 -0.36917,-0.70531 -0.94949,-0.46513 -0.14,-1.23975 0.57608,-0.90606 -0.0487,-0.72489 1.67622,-1.77545 0.31,-1.47208 0.57863,-0.52466 1.02135,0.2898 0.885,-0.43766 0.28725,-0.55261 1.63858,-0.96498 0.40293,-0.67372 1.97375,-0.89492 1.16258,-0.30746 0.52707,0.41431 1.35411,-0.01 -0.16747,1.04556 0.28363,0.98118 1.18919,1.40446 0.0657,1.03927 2.435,0.48666 -0.0479,1.46773 -0.46137,0.64009 -1.03238,0.20013 -0.43015,0.93496 -0.72624,0.24189 -1.84961,-0.0458 -0.97671,-0.17013 -0.68184,0.34497 -0.93302,-0.15585 -3.66836,0.10065 -0.0496,1.21169 0.2881,1.60555" style="fill:#e6e6e6;stroke:#000000;stroke-width:0.242"/><path d="m 434.42098,318.42372 0.42495,0.38986 0.66392,1.26639 2.39,2.41165 0.90423,0.23679 0.004,0.77707 0.62133,1.39996 1.63302,0.33954 1.34637,1.0003 -2.98834,1.6352 -1.89595,1.66301 -0.70325,1.48951 -0.63489,0.84169 -1.14901,0.17979 -0.37148,1.07473 -0.21343,0.70241 -1.35061,0.52502 -1.71881,-0.11169 -1.00889,-0.63114 -0.89008,-0.27333 -1.03019,0.52199 -0.51692,1.08041 -0.99994,0.68027 -1.05621,1.01071 -1.51274,0.23135 -0.47118,-0.7957 0.19457,-1.37795 -1.2521,-2.13963 -0.57003,-0.33723 -6.1e-4,-6.50569 2.08145,-0.0772 0.0623,-7.82785 1.57202,-0.0723 3.25623,-0.76338 0.80695,0.89915 1.34818,-0.85499 0.64058,-0.004 1.1904,-0.4909 0.3797,0.16275 0.81312,1.7441" style="fill:#e6e6e6;stroke:#000000;stroke-width:0.242"/><path d="m 412.52179,263.13191 1.74579,-0.1597 0.3895,-0.5462 0.34969,0.0414 0.52756,0.4811 2.65861,-0.81276 0.89685,-0.8297 1.1011,-0.74355 -0.20909,-0.74898 0.59556,-0.19566 2.03946,0.13225 1.98767,-0.98663 1.52665,-2.32708 1.07133,-0.86454 1.33705,-0.36445 0.23922,0.91428 1.21811,1.33438 0.005,0.87012 -0.34303,0.88656 0.13564,0.66163 0.73242,0.61286 1.60832,0.92952 1.15628,0.85886 0.0194,0.69031 1.4203,1.10545 0.88015,0.91791 0.53325,1.27171 1.57857,0.83841 0.33964,0.67155 -0.69708,0.22446 -1.35436,-0.0487 -1.58872,-0.22277 -0.78505,0.18151 -0.31678,0.51486 -0.68377,0.0635 -0.83308,-0.44794 -2.35116,1.05645 -0.96242,-0.21248 -0.29017,0.16299 -0.63137,1.27763 -1.57543,-0.41273 -1.5448,-0.20835 -1.34503,-0.78058 -1.73793,-0.71935 -1.13086,0.6816 -0.8222,1.07436 -0.18985,1.47487 -1.35835,-0.11798 -1.42949,-0.35525 -1.2584,1.12046 -1.10703,1.96685 -0.22276,-0.61239 -0.0945,-0.96388 -0.9657,-0.68025 -0.77973,-1.0913 -0.17993,-0.7594 -0.998,-1.10496 0.17,-0.63079 -0.21017,-0.89189 0.16311,-1.64258 0.50662,-0.38477 1.06226,-2.15019" style="fill:#e6e6e6;stroke:#000000;stroke-width:0.242"/><path d="m 374.22215,268.2778 -0.96099,0.0216 -1.47341,-0.41382 -1.35387,0.0243 -2.50168,0.36964 -1.46628,0.61082 -2.09099,0.77622 -0.40814,-0.0557 0.16214,-1.74313 0.20207,-0.26498 -0.0643,-0.83479 -0.89431,-0.88741 -0.67083,-0.14157 -0.61576,-0.58226 0.45907,-0.9421 -0.2109,-1.02608 0.0972,-0.61748 0.33506,-0.002 0.12439,-0.9266 -0.16311,-0.41055 0.20171,-0.29573 0.78432,-0.25567 -0.52164,-1.70393 -0.48678,-0.88075 0.16965,-0.72395 0.42107,-0.16528 0.27516,-0.19396 0.58455,0.3204 1.63095,0.0175 0.38866,-0.62266 0.36421,0.0416 0.60996,-0.24079 0.3267,0.91269 0.49332,-0.26921 0.87132,-0.31607 0.94949,0.46513 0.36917,0.70532 0.94973,0.45011 0.7387,-0.53603 0.98942,-0.0811 1.44534,0.54959 0.56023,3.0285 -0.88996,1.78427 -0.55067,2.39556 0.91586,1.82529 -0.0958,0.83549" style="fill:#e6e6e6;stroke:#000000;stroke-width:0.242"/><path d="m 407.86789,274.04539 -0.26294,-0.1152 -1.25005,0.27213 -1.28332,-0.28302 -1.00381,0.13878 -3.43641,-0.0482 0.30831,-1.66846 -0.82521,-1.39779 -0.96365,-0.35865 -0.42919,-0.94791 -0.54075,-0.30347 0.0242,-0.58492 0.54317,-1.49834 1.00466,-2.04465 0.61129,-0.0191 1.25792,-1.24145 0.80054,-0.0353 1.18555,0.87204 1.45091,-0.71499 0.19748,-0.8821 0.47432,-0.85545 0.32731,-1.07545 1.12941,-0.87616 0.42615,-1.49024 0.44795,-0.47481 0.29802,-1.10824 0.55794,-1.36233 1.77918,-1.65432 0.11156,-0.71147 0.23014,-0.38684 -0.8361,-0.85367 0.068,-0.68291 0.59616,-0.12317 0.83974,1.37345 0.14108,1.42055 -0.0773,1.42029 1.14951,1.94025 -1.17952,-0.0209 -0.59592,0.15185 -0.96243,-0.21429 -0.45884,1.00598 1.24654,1.24281 0.91973,0.36142 0.29754,0.8804 0.66574,1.46506 -0.33069,0.57535 -1.06226,2.15018 -0.50662,0.38478 -0.16311,1.64257 0.21017,0.89189 -0.17,0.63078 0.998,1.10497 0.17993,0.7594 0.77973,1.0913 0.96569,0.68026 0.0945,0.96387 0.22277,0.61238 -0.1521,1.14067 -1.67802,-0.49923 -1.70744,-0.55745 -2.66515,-0.0829" style="fill:#e6e6e6;stroke:#000000;stroke-width:0.242"/><path d="m 445.37027,271.42006 -0.12802,2.47155 0.84651,0.28604 -0.67881,0.7502 -0.8113,0.56107 -0.80743,1.10159 -0.44431,0.98179 -0.11895,1.69521 -0.48921,0.80696 -0.0175,1.59224 -0.60742,0.58889 -0.0783,1.25708 -0.29003,0.16288 -0.19554,1.15612 0.53119,0.96101 0.13431,2.55092 0.38007,1.94749 -0.21115,1.10171 0.42241,1.22947 1.22477,1.18798 1.14042,2.67652 -0.83188,-0.21624 -2.8366,0.35866 -0.56592,0.25434 -0.60197,1.35835 0.47262,0.93944 -0.37497,2.526 -0.26149,2.1463 0.5704,0.38116 1.47644,0.83367 0.57971,-0.38962 0.17654,2.31365 -1.6162,-0.0177 -0.86732,-1.18169 -0.77828,-0.91367 -1.61825,-0.2996 -0.47396,-1.12203 -1.29095,0.67578 -1.69122,-0.29838 -0.70567,-0.97163 -1.34092,-0.19723 -0.98978,0.0516 -0.121,-0.66429 -0.72854,-0.0539 -0.96182,-0.12583 -1.30825,0.3198 -0.91755,-0.0522 -0.52272,0.1959 0.11302,-2.54027 -0.70459,-0.79098 -0.155,-1.30958 0.31109,-1.28236 -0.42786,-0.82001 -0.0388,-1.33621 -2.56253,0.0184 0.18392,-0.7646 -1.07739,0.009 -0.11386,0.36772 -1.30983,0.0829 -0.52985,1.23746 -0.31629,0.53107 -1.16706,-0.29995 -0.69696,0.29898 -1.39634,0.17183 -0.80875,-1.11079 -0.48534,-0.68666 -0.60609,-1.27244 -0.52102,-1.57954 -6.23187,-0.0282 -0.74064,0.25471 -0.61177,-0.0396 -0.87181,0.28483 -0.29584,-0.65739 0.53724,-0.22373 0.0662,-0.92322 0.34545,-0.54438 0.76847,-0.44492 0.55479,0.21573 0.72224,-0.81045 1.1506,0.0209 0.13516,0.59918 0.78891,0.37488 1.24268,-1.3263 1.23008,-1.03297 0.53397,-0.67687 -0.0708,-1.73902 0.91719,-2.05275 0.96763,-1.08804 1.39041,-1.01798 0.24273,-0.67373 0.0528,-0.77439 0.344,-0.73278 -0.11048,-1.19706 0.26318,-1.87162 0.41285,-1.31817 0.63247,-1.1299 0.12523,-1.27692 0.18985,-1.47485 0.8222,-1.07438 1.13086,-0.68158 1.73793,0.71934 1.34504,0.78057 1.5448,0.20837 1.57542,0.41272 0.63138,-1.27764 0.29016,-0.16299 0.96243,0.21248 2.35116,-1.05645 0.83307,0.44794 0.68377,-0.0635 0.31679,-0.51485 0.78505,-0.18151 1.58872,0.22277 1.35435,0.0487 0.69708,-0.22446 1.27934,1.74724 0.94828,0.25652 0.56531,-0.35525 0.97647,0.13915 1.17612,-0.44746 0.50154,0.90363 1.8593,1.40529" style="fill:#e6e6e6;stroke:#000000;stroke-width:0.242"/><path d="m 407.69824,288.93844 -0.79121,-0.72612 -0.63828,0.35598 -0.85232,0.91391 -1.7343,-2.24128 1.60785,-1.16705 -0.79642,-1.39791 0.72431,-0.53131 1.42489,-0.25882 0.16808,-0.93642 1.12844,1.01459 1.86424,0.0889 0.64796,-0.99837 0.26669,-1.40445 -0.23039,-1.64911 -0.99909,-1.24896 0.91439,-2.44589 -0.52708,-0.41987 -1.57143,0.17217 -0.59023,-1.09154 0.15355,-0.92153 2.66514,0.0828 1.70744,0.55745 1.67802,0.49924 0.1521,-1.14067 1.10703,-1.96685 1.2584,-1.12046 1.42949,0.35525 1.35835,0.11798 -0.12524,1.27692 -0.63247,1.1299 -0.41284,1.31817 -0.26318,1.87162 0.11047,1.19706 -0.344,0.73278 -0.0528,0.77439 -0.24273,0.67373 -1.39041,1.01796 -0.96763,1.08805 -0.91718,2.05276 0.0708,1.73902 -0.53397,0.67687 -1.23009,1.03297 -1.24268,1.32629 -0.78891,-0.37487 -0.13516,-0.59918 -1.15059,-0.0209 -0.72224,0.81045 -0.5548,-0.21573" style="fill:#e6e6e6;stroke:#000000;stroke-width:0.242"/><path d="m 471.23474,251.87263 0.49985,0.66381 -0.0666,0.8897 -1.20481,0.51232 0.9069,0.58552 -0.77803,1.14394 -0.46887,-0.38079 -0.50856,0.15149 -1.1794,-0.0358 -0.0339,-0.65026 -0.16419,-0.59071 0.71414,-1.00383 0.74258,-0.94779 0.90387,0.1861 0.63694,-0.5238" style="fill:#e6e6e6;stroke:#000000;stroke-width:0.242"/><path d="m 405.5949,228.35337 -7.23652,4.23283 -6.11438,4.32636 -2.97816,0.97719 -2.34269,0.21441 -0.0241,-1.39428 -0.97792,-0.35695 -1.3149,-0.62837 -0.50216,-1.03103 -7.12387,-4.82802 -7.12376,-4.87666 -7.9428,-5.47525 0.0407,-0.44141 -9.7e-4,-0.15246 -0.018,-2.71051 3.41051,-1.69752 2.10891,-0.35186 1.72848,-0.62061 0.8078,-1.15955 2.46913,-0.91899 0.0906,-1.72522 1.22175,-0.20377 0.95541,-0.86551 2.76376,-0.39518 0.38708,-0.91282 -0.55624,-0.50022 -0.72963,-2.49587 -0.12571,-1.44656 -0.79594,-1.53016 2.03013,-1.31127 2.28315,-0.41842 1.33342,-0.99511 2.03364,-0.73592 3.57919,-0.43197 3.49327,-0.19675 1.06492,0.3601 1.98875,-0.95675 2.25678,-0.0187 0.85886,0.56519 1.44425,-0.14738 -0.42907,1.24352 0.33493,2.29659 -0.49718,1.97386 -1.30197,1.32774 0.1861,1.78511 1.72728,1.40517 0.0181,0.56919 1.30196,0.94706 0.90072,4.18176 0.68316,2.03958 0.11483,1.06879 -0.37183,1.86946 0.15246,1.04084 -0.26825,1.24593 0.18416,1.42695 -0.83817,0.9455 1.24872,1.64414 0.0795,0.96378 0.75069,1.25113 0.98747,-0.41055 1.6669,1.0406 0.92674,1.39888" style="fill:#e6e6e6;stroke:#000000;stroke-width:0.242"/><path d="m 454.00495,214.69127 -0.59314,0.92504 -0.45424,1.73284 -0.57475,1.18991 -0.49223,0.39821 -0.70385,-0.73628 -0.95312,-1.02039 -1.50693,-3.29641 -0.21696,0.20946 0.87496,2.42786 1.29663,2.29901 1.59623,3.53646 0.77984,1.22742 0.67833,1.27136 1.89498,2.48158 -0.41962,0.38948 0.0682,1.4496 2.45968,1.99455 0.37063,0.454 -8.37611,0 -8.19388,0 -8.48972,0 0,-8.22981 0,-8.09926 -0.63331,-1.85794 0.54377,-1.43047 -0.3267,-0.99414 0.76436,-1.11888 2.80974,-0.0385 2.03231,0.61686 2.09681,0.68826 0.97781,0.36239 1.62587,-0.73738 0.86927,-0.66792 1.86243,-0.19263 1.50173,0.29475 0.57523,1.15531 0.49017,-0.76062 1.69243,0.55007 1.6462,0.13166 1.03904,-0.58637 1.38787,3.98091" style="fill:#e6e6e6;stroke:#000000;stroke-width:0.242"/><path d="m 469.69393,252.21034 -0.72188,-0.69429 -0.8683,-1.25938 -0.93643,-0.69079 -0.54619,-0.74329 -1.83811,-0.86407 -1.44788,-0.0258 -0.50941,-0.45074 -1.23831,0.50699 -1.28177,-0.97913 -0.65944,1.6093 -2.45884,-0.45036 -0.22458,-0.86345 0.90968,-3.17795 0.20812,-1.44243 0.66526,-0.66624 1.55545,-0.35755 1.0688,-1.24327 1.22585,2.51909 0.58188,1.99021 1.15773,1.05392 2.88259,2.03896 1.17357,1.22803 1.14418,1.24098 0.66066,0.7381 1.03818,0.64553 -0.63694,0.52381 -0.90387,-0.1861" style="fill:#e6e6e6;stroke:#000000;stroke-width:0.242"/><path d="m 460.30565,247.00976 1.28177,0.97913 1.23831,-0.50699 0.50941,0.45073 1.44813,0.0258 1.83786,0.86407 0.54619,0.7433 0.93643,0.69079 0.8683,1.25937 0.72188,0.6943 -0.74258,0.94779 -0.71414,1.00382 0.16419,0.59071 0.0339,0.65026 1.1794,0.0357 0.50856,-0.15149 0.46887,0.38079 -0.46064,0.75673 0.77996,1.17516 0.779,1.0262 0.80634,0.76023 6.90462,2.52431 1.77628,-0.013 -5.9676,6.36521 -2.75118,0.0931 -1.88203,1.49193 -1.35387,0.0392 -0.57765,0.66672 -1.44305,-3.6e-4 -0.8516,-0.71476 -1.92946,0.88452 -0.624,0.88112 -1.40844,-0.16614 -0.46754,-0.24405 -0.4944,0.0584 -0.66756,-0.0214 -2.67313,-1.79637 -1.46991,0 -0.72152,-0.69648 0,-1.18821 -1.09699,-0.35539 -1.24812,-2.30625 -0.96436,-0.49198 -0.37003,-0.84858 -1.07036,-1.03466 -1.29688,-0.15235 0.71935,-1.21061 1.1207,-0.0522 0.31581,-0.64965 -0.0283,-1.91408 0.62484,-2.23223 1.00043,-0.59832 0.21199,-0.87376 0.90581,-1.63507 1.27365,-1.0619 0.85862,-2.11531 0.33649,-1.84889 2.45884,0.45036 0.65945,-1.6093" style="fill:#e6e6e6;stroke:#000000;stroke-width:0.242"/><path d="m 403.68213,287.24093 -2.17025,-2.13408 -1.39573,-1.74373 -1.28237,-2.18212 0.0678,-0.70167 0.46102,-0.67518 0.51328,-1.53767 0.42543,-1.56574 0.71257,-0.12209 3.07232,0.0216 -0.0184,-2.54209 1.00381,-0.13879 1.28332,0.28303 1.25005,-0.27214 0.26294,0.11521 -0.15355,0.92153 0.59024,1.09154 1.57143,-0.17217 0.52707,0.41986 -0.91439,2.4459 0.99909,1.24896 0.23039,1.64911 -0.26669,1.40446 -0.64795,0.99836 -1.86425,-0.0889 -1.12844,-1.01458 -0.16807,0.93642 -1.4249,0.25882 -0.72431,0.53131 0.79643,1.39791 -1.60785,1.16705" style="fill:#e6e6e6;stroke:#000000;stroke-width:0.242"/><path d="m 382.4925,266.29897 -3.31068,1.2399 -1.17419,0.72624 -1.90297,0.61383 -1.88251,-0.60114 0.0958,-0.83549 -0.91586,-1.82529 0.55067,-2.39556 0.88996,-1.78427 -0.56023,-3.02851 -0.2881,-1.60555 0.0496,-1.21168 3.66836,-0.10066 0.93303,0.15586 0.68183,-0.34498 0.97672,0.17013 -0.15537,0.66611 0.88149,1.10085 -0.003,1.5482 0.20122,1.67705 0.52974,0.77574 -0.4667,1.91384 0.16758,1.05549 0.56289,1.34553 0.47131,0.74439" style="fill:#e6e6e6;stroke:#000000;stroke-width:0.242"/><path d="m 362.43117,262.57107 -0.59713,-0.0546 -0.43088,0.85512 -0.59701,-0.011 -0.4108,-0.4523 0.13939,-0.85307 -0.88268,-1.30231 -0.55189,0.23946 -0.45085,0.0474 -0.58164,0.12185 0.0238,-0.77972 -0.33893,-0.55696 0.0683,-0.61893 -0.45786,-0.89539 -0.58769,-0.76267 -1.68905,-0.002 -0.4921,0.40172 -0.58201,0.0486 -0.36071,0.45957 -0.24344,0.59121 -1.12906,0.93617 -0.92625,-1.25996 -0.82111,-0.83443 -0.54074,-0.27624 -0.5272,-0.42398 -0.2397,-0.94307 -0.30916,-0.47046 -0.61396,-0.35005 0.93897,-1.04217 0.64094,0.0396 0.55079,-0.35912 0.46584,-0.003 0.33288,-0.28388 -0.17969,-0.70953 0.23148,-0.22409 0.0384,-0.72686 1.01942,0.022 1.51782,0.52284 0.46561,-0.0479 0.15839,-0.2385 1.15155,0.16941 0.30505,-0.12088 0.12185,0.7848 0.33492,-0.002 0.55116,-0.28544 0.35017,0.0714 0.58625,0.5439 0.90387,0.17109 0.57898,-0.46343 0.68244,-0.28653 0.50748,-0.3002 0.42253,0.0561 0.46924,0.47081 0.25179,0.5906 0.8654,0.89662 -0.43294,0.55042 -0.0824,0.69515 0.44988,-0.21028 0.26378,0.24936 -0.11192,0.63586 0.64517,0.61528 -0.42108,0.16528 -0.16964,0.72395 0.48678,0.88076 0.52163,1.70392 -0.78432,0.25567 -0.20171,0.29573 0.16311,0.41055 -0.12439,0.9266 -0.33505,0.002" style="fill:#e6e6e6;stroke:#000000;stroke-width:0.242"/><path d="m 344.68702,250.90282 0.26994,-0.95336 2.29997,-0.0616 0.47686,-0.50941 0.66974,-0.0346 0.83345,0.52937 0.65533,0.01 0.69636,-0.36228 0.42652,0.62182 -0.91379,0.48231 -0.91754,-0.0378 -0.90605,-0.4541 -0.78262,0.49622 -0.3785,0.0177 -0.50747,0.30093 -1.9222,-0.0452" style="fill:#e6e6e6;stroke:#000000;stroke-width:0.242"/><path d="m 348.3008,255.42543 -1.12748,-0.89394 -0.88911,-0.14146 -0.48484,-0.6033 0.0124,-0.32585 -0.64397,-0.4546 -0.13443,-0.45871 1.11877,-0.34921 0.69925,0.069 0.56617,-0.24152 3.90273,0.0902 -0.0384,0.72686 -0.23147,0.22409 0.17968,0.70954 -0.33287,0.28387 -0.46585,0.003 -0.55079,0.35912 -0.64094,-0.0396 -0.93896,1.04218" style="fill:#e6e6e6;stroke:#000000;stroke-width:0.242"/><path d="m 400.30127,276.70074 -0.39554,-0.31847 0.72563,-2.37233 3.43641,0.0482 0.0184,2.54209 -3.07232,-0.0216 -0.71257,0.12209" style="fill:#e6e6e6;stroke:#000000;stroke-width:0.242"/><path d="m 466.82478,280.64668 1.25041,1.74227 -1.47898,0.84374 -0.52163,0.8816 -0.79147,0.15487 -0.29947,1.48928 -0.67809,0.85305 -0.41224,1.40722 -0.85051,0.69903 -3.03105,-2.11484 -0.14411,-1.22646 -7.65773,-4.30421 -0.35671,-0.23197 -0.0213,-2.23813 0.60488,-0.85583 1.03916,-1.39791 0.76858,-1.5396 -0.92903,-2.4257 -0.24709,-1.06105 -1.00127,-1.46845 1.29918,-1.26384 1.43143,-1.39514 1.09698,0.35539 0,1.18821 0.72153,0.69647 1.46991,0 2.67313,1.79638 0.66755,0.0214 0.49441,-0.0584 0.46754,0.24405 1.40844,0.16614 0.62399,-0.88112 1.92947,-0.88452 0.8516,0.71476 1.44305,3.4e-4 -1.84598,2.39835 0.0254,7.69464" style="fill:#e6e6e6;stroke:#000000;stroke-width:0.242"/><path d="m 363.96679,269.61087 -0.55309,0.0186 -2.17667,-1.00853 -1.91882,-1.61185 -1.79939,-1.1593 -1.42211,-1.36814 0.50481,-0.67882 0.11205,-0.61746 0.95275,-1.15289 0.983,-0.99208 0.45085,-0.0474 0.55189,-0.23945 0.88268,1.30231 -0.13939,0.85306 0.4108,0.4523 0.59701,0.011 0.43088,-0.85512 0.59713,0.0546 -0.0972,0.61747 0.2109,1.02609 -0.45907,0.94209 0.61577,0.58226 0.67082,0.14157 0.89432,0.88741 0.0643,0.83479 -0.20208,0.26498 -0.16214,1.74313" style="fill:#e6e6e6;stroke:#000000;stroke-width:0.242"/><path d="m 411.61744,229.70919 -1.49387,0.82606 -1.18797,-1.22102 -3.3407,-0.96086 -0.92673,-1.39887 -1.6669,-1.0406 -0.98748,0.41055 -0.75068,-1.25114 -0.0795,-0.96377 -1.24871,-1.64414 0.83816,-0.9455 -0.18416,-1.42695 0.26825,-1.24593 -0.15245,-1.04085 0.37183,-1.86945 -0.11483,-1.0688 -0.68317,-2.03957 1.03032,-0.53699 0.18296,-0.98132 -0.2247,-0.96497 1.45018,-0.89962 0.65026,-0.74986 1.02946,-0.67336 0.11931,-1.80798 2.48037,0.81142 0.88706,-0.20255 1.76417,0.39265 2.80224,1.05003 0.98894,2.0789 1.89583,0.4523 2.97672,0.97369 2.24975,1.15313 1.02971,-0.60114 1.01241,-1.06854 -0.49235,-1.78633 0.66259,-1.13897 1.52158,-1.10073 1.45394,-0.32113 2.85692,0.48146 0.7202,1.04991 0.78626,0.01 0.67239,0.39979 2.09826,0.27454 0.51474,0.77186 -0.76436,1.11889 0.3267,0.99414 -0.54377,1.43047 0.63331,1.85794 0,8.09926 0,8.22981 0,4.40549 -2.42859,0.007 -0.0261,0.92081 -8.42281,-4.21564 -8.42293,-4.25061 -2.13214,1.21751" style="fill:#e6e6e6;stroke:#000000;stroke-width:0.242"/><path d="m 441.45156,341.72118 0.73253,0.69382 -0.64783,1.12106 -0.359,0.75383 -1.17698,0.36118 -0.3884,0.74039 -0.75565,0.23064 -1.58401,-1.78088 1.12603,-1.45998 1.14417,-0.89916 0.98712,-0.46803 0.92202,0.70713" style="fill:#e6e6e6;stroke:#000000;stroke-width:0.242"/><path d="m 369.28498,199.97694 1.27328,1.01955 2.00812,-0.16602 2.18744,0.52926 0.91742,0.0256 0.79594,1.53016 0.12571,1.44655 0.72963,2.49588 0.55625,0.50021 -0.38708,0.91283 -2.76377,0.39518 -0.95541,0.86551 -1.22174,0.20377 -0.0906,1.72522 -2.46914,0.91899 -0.80779,1.15955 -1.72848,0.62061 -2.10891,0.35186 -3.41051,1.69751 0.018,2.71052 -0.32149,0 0,0 0.0484,1.21944 -1.30536,0.073 -0.68062,0.51691 -0.95904,0 -0.76424,-0.29488 -1.77664,0.24382 -0.68764,1.76515 -0.66018,0.16551 -0.99305,2.83927 -2.93559,2.41589 -0.6972,3.07328 -0.86502,0.99583 -0.25386,0.79715 -4.75579,0.17654 -0.0367,-0.003 0.0997,-1.02512 0.81119,-0.60378 0.69091,-1.15676 -0.13613,-0.75275 0.726,-1.57324 1.17552,-1.42187 0.71099,-0.36117 0.55902,-1.30947 0.05,-1.19971 0.7623,-1.39587 1.40675,-0.82545 1.33862,-2.32115 0.0387,-0.0319 1.06177,-0.87652 1.96384,-0.2524 1.66399,-1.56562 1.05888,-0.61226 1.76296,-1.92452 -0.5278,-2.88608 0.80236,-2.00957 0.28313,-1.23578 1.35835,-1.59151 2.11883,-1.08079 1.56635,-0.98093 1.4111,-2.46972 0.66381,-1.47379 1.55448,0.0121" style="fill:#e6e6e6;stroke:#000000;stroke-width:0.242"/><path d="m 484.88209,305.30236 0.56071,0.91282 0.52272,1.4191 0.33977,2.59097 0.54716,1.00974 -0.20993,1.03697 -0.37341,0.63682 -0.71729,-1.26783 -0.39711,0.63985 0.4028,1.60481 -0.18731,0.92021 -0.58285,0.50191 -0.13311,1.84391 -0.83162,2.54657 -1.04182,3.02536 -1.30474,4.18757 -0.80877,3.09603 -0.95432,2.59787 -1.7176,0.53252 -1.84367,0.95228 -1.21617,-0.57512 -1.67658,-0.80478 -0.58274,-1.18409 -0.13939,-1.98284 -0.74355,-1.77567 -0.19323,-1.59708 0.37825,-1.59514 0.97236,-0.38248 0.005,-0.73411 1.00925,-1.66859 0.19022,-1.39791 -0.48993,-1.03697 -0.40003,-1.3782 -0.16868,-2.00824 0.73786,-1.21604 0.28302,-1.37601 1.05246,-0.0797 1.17806,-0.44408 0.78202,-0.39167 0.92746,-0.0291 1.20383,-1.23214 1.73781,-1.32931 0.6338,-1.08416 -0.28762,-0.9196 0.89709,0.25858 1.16426,-1.49375 0.0388,-1.29034 0.69938,-0.95868 0.73665,0.91984" style="fill:#e6e6e6;stroke:#000000;stroke-width:0.242"/><path d="m 354.55081,247.74895 0.71088,-0.39325 0.35501,-1.27219 0.6695,-0.05 1.47462,0.60198 1.19113,-0.42737 0.81626,0.14351 0.31702,-0.48074 8.47375,-0.0328 0.46973,-1.51578 -0.36579,-0.26704 -1.01918,-9.42784 -1.01943,-9.5982 3.23215,-0.0404 7.12376,4.87666 7.12387,4.82802 0.50216,1.03103 1.3149,0.62837 0.97792,0.35694 0.0241,1.39428 2.34269,-0.2144 0.005,5.02186 -1.15471,1.44885 -0.1798,1.33403 -1.87587,0.34291 -2.88161,0.18574 -0.78081,0.76762 -1.35351,0.0848 -1.35411,0.01 -0.52708,-0.4143 -1.16257,0.30745 -1.97375,0.89493 -0.40293,0.67372 -1.63858,0.96497 -0.28725,0.55261 -0.885,0.43767 -1.02136,-0.28981 -0.57863,0.52466 -0.30999,1.47209 -1.67622,1.77544 0.0487,0.7249 -0.57608,0.90605 0.14,1.23975 -0.87132,0.31607 -0.49332,0.26921 -0.3267,-0.91269 -0.60996,0.2408 -0.36421,-0.0416 -0.38866,0.62266 -1.63095,-0.0176 -0.58455,-0.3204 -0.27516,0.19396 -0.64517,-0.61528 0.11193,-0.63586 -0.26379,-0.24936 -0.44987,0.21028 0.0824,-0.69515 0.43293,-0.55042 -0.86539,-0.89662 -0.25179,-0.5906 -0.46924,-0.47081 -0.42254,-0.0561 -0.50747,0.3002 -0.68244,0.28653 -0.57898,0.46343 -0.90388,-0.17109 -0.58624,-0.5439 -0.35017,-0.0714 -0.55116,0.28544 -0.33493,0.002 -0.12184,-0.7848 0.097,-0.66817 -0.18054,-0.83018 -0.79049,-0.60355 -0.41636,-1.23178 -0.097,-1.34043" style="fill:#e6e6e6;stroke:#000000;stroke-width:0.242"/><path d="m 453.23926,303.26811 1.58898,-0.17315 2.53773,0.60305 0.55139,-0.27054 1.47015,-0.055 0.75238,-0.64167 1.26711,0.0351 2.30916,-0.82993 1.68009,-1.23808 0.3417,0.95711 -0.0868,2.13033 0.26076,1.88045 0.0821,3.35921 0.37146,1.05585 -0.6298,1.54287 -0.8194,1.50282 -1.34456,1.34479 -1.93068,0.82558 -2.38067,1.05585 -2.386,2.34122 -0.81263,0.39931 -1.47427,1.55605 -0.87011,0.50723 -0.17848,1.56732 1.00152,1.66992 0.4166,1.29664 0.0263,0.66295 0.37317,-0.11082 -0.0604,2.17871 -0.34244,1.0354 0.49781,0.38225 -0.31425,0.92988 -0.88269,0.79678 -1.74216,0.75807 -2.53966,1.21702 -0.92626,0.8332 0.18126,0.95142 0.53978,0.15223 -0.18151,1.19197 -1.60155,-0.019 -0.18138,-1.00126 -0.31267,-1.01363 -0.18028,-0.80962 0.37631,-2.5047 -0.54946,-1.58873 -1.01157,-3.13196 2.22495,-2.51123 0.55697,-1.58933 0.31883,-0.20015 0.23873,-1.29348 -0.3394,-0.64953 0.0906,-1.6358 0.41176,-1.51274 -0.004,-2.75336 -1.09686,-0.69708 -1.00576,-0.15754 -0.45507,-0.53615 -0.97866,-0.45714 -1.76151,0.0431 -0.13661,-0.80708 -0.20013,-1.5373 6.4084,-1.77627 1.2158,1.03382 0.58092,-0.19783 0.8337,0.54534 0.12281,0.86466 -0.44443,1.00455 0.15633,1.52593 1.37795,1.33983 0.6448,-1.50487 0.91392,-0.45593 -0.17969,-2.77841 -0.88438,-1.55811 -0.76194,-0.69357 -0.73326,0.0315 -0.59132,-2.79086 0.59132,-1.62733" style="fill:#e6e6e6;stroke:#000000;stroke-width:0.242"/><path d="m 354.55081,247.74895 -1.39356,-1.48285 -1.27763,-1.59164 -1.40191,-0.57402 -1.00902,-0.63767 -1.17927,0.024 -1.03055,0.47274 -1.04956,-0.1873 -0.72309,0.69514 -0.18295,-1.16862 0.58939,-1.07108 0.26257,-2.05012 -0.23353,-2.15936 -0.25519,-1.08936 0.21102,-1.09493 -0.54595,-1.0458 -1.1132,-0.95191 0.46089,-0.73629 8.27022,0.0137 -0.40062,-3.20033 0.51654,-1.14321 1.97884,-0.20012 -0.068,-5.74097 6.93124,0.1181 0.007,-3.4335 7.9428,5.47525 -3.23215,0.0404 1.01943,9.5982 1.01918,9.42784 0.36579,0.26704 -0.46973,1.51578 -8.47375,0.0328 -0.31702,0.48074 -0.81626,-0.14351 -1.19113,0.42737 -1.47462,-0.60197 -0.6695,0.0499 -0.35501,1.2722 -0.71088,0.39324" style="fill:#e6e6e6;stroke:#000000;stroke-width:0.242"/><path d="m 453.23926,303.26811 -0.59133,1.62733 0.59133,2.79084 0.73326,-0.0315 0.76194,0.69358 0.88438,1.55812 0.17969,2.7784 -0.91392,0.45593 -0.64481,1.50487 -1.37794,-1.33982 -0.15633,-1.52593 0.44443,-1.00456 -0.12282,-0.86466 -0.83369,-0.54535 -0.58092,0.19784 -1.2158,-1.03382 -1.11042,-0.55733 0.64118,-1.99602 0.66429,-0.74657 -0.4056,-1.77482 0.42448,-1.73333 0.35985,-0.5785 -0.53712,-1.81076 -0.99679,-0.95034 2.0703,0.39749 0.42471,0.58914 0.71632,0.99427 0.59133,2.90545" style="fill:#e6e6e6;stroke:#000000;stroke-width:0.242"/><path d="m 414.77191,340.8518 -1.5695,-1.72776 -0.82643,-1.66267 -0.46621,-2.20668 -0.52066,-1.63459 -0.70761,-3.4543 -0.0473,-2.66563 -0.27032,-1.21072 -0.8217,-0.91284 -1.08997,-1.82491 -1.11017,-2.63841 -0.46077,-1.37588 -1.71845,-2.13288 -0.12826,-1.67088 1.01653,-0.41358 1.26408,-0.37027 1.36912,0.065 1.25888,0.98312 0.31932,-0.15294 8.56063,-0.0936 1.46326,1.04291 5.11285,0.30829 3.88107,-0.88753 1.72946,-0.49465 1.36923,0.12536 0.83357,0.49054 0.0156,0.18064 -1.1904,0.4909 -0.64057,0.004 -1.34819,0.85499 -0.80695,-0.89915 -3.25623,0.76339 -1.57202,0.0723 -0.0623,7.82785 -2.08145,0.0772 6.1e-4,6.5057 -0.002,8.37222 -1.88506,1.17285 -1.1345,0.16796 -1.32773,-0.4344 -0.94755,-0.16722 -0.35599,-0.97998 -0.83405,-0.62605 -1.01156,1.13171" style="fill:#e6e6e6;stroke:#000000;stroke-width:0.242"/><path d="m 384.80371,253.50045 0.0478,-1.46773 -2.435,-0.48666 -0.0657,-1.03927 -1.18918,-1.40446 -0.28363,-0.98119 0.16747,-1.04556 1.3535,-0.0848 0.78082,-0.76762 2.8816,-0.18574 1.87587,-0.34291 0.1798,-1.33403 1.15471,-1.44885 -0.005,-5.02186 2.97817,-0.97719 6.11437,-4.32636 7.23653,-4.23283 3.34069,0.96086 1.18798,1.22102 1.49387,-0.82606 0.51872,3.44547 0.79026,0.57402 0.0338,0.70144 0.87869,0.7548 -0.45931,0.94621 -0.81373,4.4401 -0.1112,2.82862 -2.6937,2.04307 -0.91185,2.84435 0.87906,0.79776 -0.004,1.38376 1.35435,0.0495 -0.21126,1.01144 -0.59616,0.12317 -0.068,0.68293 -0.39253,0.0473 -1.42913,-2.35067 -0.49561,-0.0855 -1.65128,1.20102 -1.6352,-0.62688 -1.13655,-0.12524 -0.60948,0.30165 -1.23796,-0.0652 -1.24581,0.91526 -1.07702,0.0523 -2.55576,-1.10981 -1.00103,0.52744 -1.07775,-0.0367 -0.79194,-0.81155 -2.11666,-0.80259 -2.26984,0.25482 -0.54994,0.46512 -0.29693,1.23566 -0.60537,0.86515 -0.14665,1.91253 -1.61051,-1.23228 -0.75686,0.004 -0.70894,0.62751" style="fill:#e6e6e6;stroke:#000000;stroke-width:0.242"/><path d="m 398.20507,268.74874 -2.19252,0.7617 -0.80138,-0.11134 -0.81203,0.47408 -1.68928,-0.0463 -1.13063,-1.32361 -0.69527,-1.53271 -1.4952,-1.39622 -1.58678,0.0263 -1.86376,-10e-4 0.12123,-3.42079 -0.0535,-1.35217 0.3981,-1.34238 0.65073,-0.65291 1.02414,-1.31951 -0.22227,-0.5739 0.416,-0.85922 -0.47493,-1.26784 0.0823,-0.71087 0.14665,-1.91254 0.60537,-0.86514 0.29693,-1.23566 0.54994,-0.46512 2.26985,-0.25482 2.11665,0.80259 0.79195,0.81155 1.07774,0.0367 1.00104,-0.52744 2.55576,1.1098 1.07701,-0.0522 1.24582,-0.91526 1.23796,0.0652 0.60947,-0.30165 1.13655,0.12524 1.6352,0.62688 1.65128,-1.20103 0.49562,0.0855 1.42913,2.35068 0.39253,-0.0473 0.8361,0.85365 -0.23013,0.38684 -0.11157,0.71148 -1.77918,1.65431 -0.55794,1.36233 -0.29802,1.10825 -0.44794,0.4748 -0.42616,1.49024 -1.12941,0.87616 -0.32731,1.07545 -0.47432,0.85547 -0.19747,0.88208 -1.45092,0.715 -1.18555,-0.87205 -0.80054,0.0353 -1.25792,1.24146 -0.61129,0.0191 -1.00465,2.04465 -0.54318,1.49835" style="fill:#e6e6e6;stroke:#000000;stroke-width:0.242"/><path d="m 444.49423,281.23037 0.83841,1.19173 -0.12197,1.24317 -0.60948,0.2674 -1.12204,-0.13819 -0.64674,1.20335 -1.28248,-0.16615 0.19554,-1.15612 0.29003,-0.16288 0.0783,-1.25708 0.60742,-0.58889 0.51099,0.21549 1.26203,-0.65183" style="fill:#e6e6e6;stroke:#000000;stroke-width:0.242"/><path d="m 361.68026,220.13917 -0.0484,-1.21944 0.32149,0 9.7e-4,0.15246 -0.0407,0.44141 -0.007,3.4335 -6.93125,-0.1181 0.068,5.74097 -1.97883,0.20013 -0.51655,1.14321 0.40063,3.20033 -8.27022,-0.0137 -0.4609,0.73629 0.0909,-0.93292 0.0367,0.003 4.75579,-0.17653 0.25386,-0.79716 0.86502,-0.99583 0.6972,-3.07328 2.93559,-2.41589 0.99305,-2.83927 0.66018,-0.16551 0.68764,-1.76515 1.77664,-0.24382 0.76424,0.29488 0.95904,0 0.68062,-0.51691 1.30536,-0.073" style="fill:#e6e6e6;stroke:#000000;stroke-width:0.242"/><path d="m 451.97929,258.78839 -0.29222,-0.0422 0.0361,-1.06105 -0.25362,-0.73254 -1.08779,-0.84288 -0.25362,-1.54107 0.25362,-1.58037 -0.97888,-0.14725 -0.14508,0.4783 -1.26881,0.11025 0.50747,0.62472 0.18139,1.28526 -1.16016,1.17334 -1.05136,1.53839 -1.08779,0.2195 -1.77653,-1.24473 -0.79739,0.43947 -0.21755,0.62218 -1.0878,0.40258 -0.0724,0.43898 -2.10286,0 -0.28991,-0.43898 -1.52291,-0.0733 -0.76133,0.36579 -0.58007,-0.18284 -1.08755,-1.24435 -0.36264,-0.58613 -1.52266,0.29294 -0.58008,0.98881 -0.54389,1.90151 -0.72491,0.40173 -0.64856,0.23183 -0.17145,-0.0991 -0.73242,-0.61286 -0.13564,-0.66163 0.34303,-0.88656 -0.005,-0.87012 -1.2181,-1.33439 -0.23922,-0.91427 0.0253,-0.51788 -0.77609,-0.63077 -0.0234,-1.24388 -0.44262,-0.82716 -0.74174,0.12389 0.21297,-0.78806 0.54692,-0.8954 -0.23921,-0.89069 0.69417,-0.66017 -0.44044,-0.50311 0.55865,-1.33186 0.96425,-1.59139 1.82105,0.15125 -0.10395,-8.64423 0.0261,-0.92082 2.4286,-0.007 0,-4.40549 8.48972,0 8.19388,0 8.3761,0 0.68099,2.16917 -0.46307,0.40015 0.30686,2.26452 0.77525,2.61482 0.80465,0.53771 1.15579,0.80646 -1.0688,1.24328 -1.55545,0.35755 -0.66526,0.66623 -0.20812,1.44244 -0.90968,3.17795 0.22458,0.86345 -0.3365,1.84888 -0.85862,2.11532 -1.27364,1.06189 -0.90581,1.63508 -0.212,0.87376 -1.00042,0.59832 -0.62484,2.23222 0.003,0.25422" style="fill:#e6e6e6;stroke:#000000;stroke-width:0.242"/><path d="m 451.97929,258.78839 0.0245,1.65987 -0.31582,0.64965 -1.12069,0.0522 -0.71935,1.21061 1.29688,0.15233 1.07036,1.03467 0.37002,0.84858 0.96437,0.49199 1.24812,2.30625 -1.43143,1.39514 -1.29918,1.26384 -1.29881,0.97272 -1.48588,-0.004 -1.69982,0.49476 -1.34285,-0.47274 -0.86974,0.57656 -1.85906,-1.40529 -0.50154,-0.90362 -1.17612,0.44745 -0.97647,-0.13916 -0.56531,0.35526 -0.94828,-0.25651 -1.27933,-1.74724 -0.33965,-0.67155 -1.57857,-0.83841 -0.53324,-1.27171 -0.88016,-0.91791 -1.4203,-1.10545 -0.0194,-0.69031 -1.15627,-0.85886 -1.43688,-0.83042 0.64856,-0.23183 0.72492,-0.40173 0.54389,-1.90151 0.58008,-0.98881 1.52266,-0.29294 0.36264,0.58612 1.08754,1.24437 0.58008,0.18283 0.76133,-0.36579 1.52291,0.0733 0.28991,0.43899 2.10286,0 0.0724,-0.43899 1.0878,-0.40256 0.21755,-0.62219 0.79739,-0.43947 1.77653,1.24473 1.08778,-0.21949 1.05137,-1.5384 1.16015,-1.17334 -0.18138,-1.28525 -0.50747,-0.62474 1.26881,-0.11023 0.14508,-0.47832 0.97888,0.14726 -0.25362,1.58038 0.25362,1.54106 1.08779,0.84288 0.25362,0.73254 -0.0361,1.06105 0.29222,0.0422" style="fill:#e6e6e6;stroke:#000000;stroke-width:0.242"/><path d="m 344.95696,249.94946 -0.87095,-1.67596 -1.05355,-0.76764 0.9288,-0.40995 1.02317,-1.51697 0.50179,-1.11163 0.72309,-0.69514 1.04956,0.1873 1.03055,-0.47275 1.17927,-0.024 1.00902,0.63768 1.40191,0.57402 1.27763,1.59164 1.39356,1.48285 0.097,1.34043 0.41636,1.23179 0.79049,0.60355 0.18054,0.83017 -0.097,0.66817 -0.30505,0.12088 -1.15155,-0.1694 -0.15839,0.23849 -0.46561,0.0479 -1.51782,-0.52284 -1.01942,-0.022 -3.90274,-0.0902 -0.56616,0.24152 -0.69925,-0.069 -1.11878,0.34921 -0.34641,-1.64475 1.9222,0.0452 0.50747,-0.30093 0.3785,-0.0177 0.78262,-0.49622 0.90605,0.4541 0.91754,0.0378 0.91379,-0.48231 -0.42652,-0.62182 -0.69636,0.36228 -0.65533,-0.01 -0.83345,-0.52937 -0.66974,0.0346 -0.47686,0.50941 -2.29997,0.0616" style="fill:#e6e6e6;stroke:#000000;stroke-width:0.242"/><path d="m 356.09671,264.48168 -0.56894,-0.15742 -1.52025,-0.85474 -1.10013,-1.13765 -0.36953,-0.77634 -0.25895,-1.57191 1.12906,-0.93618 0.24344,-0.5912 0.36071,-0.45957 0.58201,-0.0486 0.4921,-0.40172 1.68905,0.002 0.58769,0.76267 0.45786,0.89539 -0.0683,0.61892 0.33893,0.55697 -0.0238,0.77972 0.58164,-0.12185 -0.983,0.99206 -0.95275,1.15289 -0.11205,0.61748 -0.50481,0.67881" style="fill:#e6e6e6;stroke:#000000;stroke-width:0.242"/><path d="m 483.60361,258.81525 -0.95325,1.30752 -1.47269,1.77484 -1.77628,0.013 -6.90462,-2.52432 -0.80634,-0.76023 -0.779,-1.0262 -0.77996,-1.17516 0.46064,-0.75673 0.77803,-1.14393 0.68716,0.39409 0.41394,0.8839 0.95263,0.89408 1.04846,0.008 1.9907,-0.54619 2.29876,-0.25302 1.85904,-0.66393 1.04726,-0.14096 0.75432,-0.38999 1.20249,-0.075 -0.0131,0.0349 -0.008,0.88076 -6e-4,2.15343 -2.5e-4,1.11224" style="fill:#e6e6e6;stroke:#000000;stroke-width:0.242"/><path d="m 485.27304,254.27387 1.11974,-0.21549 0.99921,-0.7329 0.8009,-0.005 0.048,0.59181 -0.19517,1.24436 0.009,1.12299 -0.44589,0.77103 -0.59507,2.3042 -1.01689,2.3762 -1.30559,2.71149 -1.81209,3.10643 -1.80314,2.3699 -2.48353,2.88429 -2.11351,1.71056 -3.15895,2.09766 -1.96867,1.60628 -2.31122,2.55842 -0.4869,1.11369 -0.4771,0.49997 -1.25041,-1.74227 -0.0254,-7.69465 1.84597,-2.39832 0.57765,-0.66673 1.35387,-0.0392 1.88203,-1.49192 2.75118,-0.0931 5.9676,-6.36519 1.47269,-1.77484 0.95324,-1.30752 2.4e-4,-1.11223 6.1e-4,-2.15344 0.008,-0.88075 0.0131,-0.0349 0.67494,-0.0422 0.97319,-0.31786" style="fill:#e6e6e6;stroke:#000000;stroke-width:0.242"/><path d="m 447.98435,336.65044 -0.43004,1.00841 -1.23601,0.24562 -1.26033,-1.23141 -0.0198,-0.78335 0.57669,-0.8493 0.19941,-0.65715 0.61057,-0.16082 1.06552,0.41311 0.31267,1.01362 0.18138,1.00127" style="fill:#e6e6e6;stroke:#000000;stroke-width:0.242"/><path d="m 410.86664,251.52972 0.21125,-1.01144 -1.35435,-0.0495 0.004,-1.38376 -0.87906,-0.79776 0.91185,-2.84435 2.69371,-2.04308 0.1112,-2.82861 0.81372,-4.4401 0.45932,-0.94622 -0.8787,-0.75479 -0.0338,-0.70144 -0.79025,-0.57402 -0.51873,-3.44548 2.13214,-1.2175 8.42293,4.25061 8.42281,4.21564 0.10395,8.64424 -1.82105,-0.15127 -0.96425,1.59141 -0.55866,1.33185 0.44045,0.50311 -0.69418,0.66018 0.23921,0.89068 -0.54692,0.8954 -0.21296,0.78807 0.74173,-0.1239 0.44263,0.82715 0.0234,1.24389 0.77608,0.63077 -0.0253,0.51788 -1.33705,0.36445 -1.07133,0.86454 -1.52666,2.32708 -1.98766,0.98663 -2.03946,-0.13225 -0.59556,0.19566 0.20909,0.74898 -1.10111,0.74355 -0.89684,0.8297 -2.65861,0.81276 -0.52756,-0.4811 -0.3497,-0.0414 -0.38949,0.5462 -1.74579,0.1597 0.33069,-0.57533 -0.66574,-1.46508 -0.29754,-0.88039 -0.91973,-0.36143 -1.24654,-1.24279 0.45884,-1.006 0.96243,0.21429 0.59592,-0.15185 1.17952,0.0209 -1.14951,-1.94024 0.0773,-1.4203 -0.14108,-1.42053 -0.83974,-1.37347" style="fill:#e6e6e6;stroke:#000000;stroke-width:0.242"/><path d="m 384.19279,265.84668 -1.70029,0.45229 -0.4713,-0.74438 -0.56289,-1.34553 -0.16759,-1.05549 0.4667,-1.91384 -0.52973,-0.77574 -0.20123,-1.67705 0.003,-1.5482 -0.88149,-1.10086 0.15537,-0.6661 1.8496,0.0458 -0.26885,1.12457 0.64517,0.62993 0.7335,0.74681 0.08,1.0458 0.42557,0.43874 -0.096,4.88054 0.51994,1.46277" style="fill:#e6e6e6;stroke:#000000;stroke-width:0.242"/><path d="m 400.27852,212.82835 -0.90071,-4.18176 -1.30196,-0.94707 -0.0182,-0.56918 -1.72728,-1.40517 -0.1861,-1.78512 1.30196,-1.32774 0.49719,-1.97386 -0.33493,-2.29658 0.42907,-1.24352 2.29984,-0.98131 1.47826,0.2921 -0.0618,1.22874 1.79128,-0.89346 0.15016,0.46658 -1.05596,1.18689 -0.0142,1.11647 0.73108,0.59774 -0.27806,2.0743 -1.39005,1.19862 0.40149,1.29483 1.09202,0.0403 0.53155,1.12506 0.80308,0.36905 -0.11931,1.80797 -1.02946,0.67337 -0.65026,0.74985 -1.45018,0.89962 0.2247,0.96498 -0.18296,0.98132 -1.03032,0.53699" style="fill:#e6e6e6;stroke:#000000;stroke-width:0.242"/><path d="m 451.8532,280.84026 0.35671,0.23197 7.65773,4.30421 0.14411,1.22646 3.03105,2.11484 -0.97502,2.60912 0.12524,1.20153 1.35205,0.77258 0.0633,0.55176 -0.5813,1.28211 0.12101,0.64578 -0.13843,1.01555 0.73749,1.33391 0.87411,2.10118 0.77501,0.46657 -1.68009,1.23807 -2.30916,0.82994 -1.26711,-0.0351 -0.75238,0.64166 -1.47015,0.055 -0.5514,0.27054 -2.53773,-0.60304 -1.58897,0.17314 -0.59133,-2.90545 -0.71632,-0.99426 -0.42472,-0.58938 -2.0703,-0.39726 -1.19839,-0.63911 -1.34237,-0.35828 -0.84155,-0.35623 -0.88233,-0.54135 -1.14043,-2.67652 -1.22477,-1.18799 -0.4224,-1.22947 0.21114,-1.10171 -0.38006,-1.94749 0.87326,-0.10076 0.76617,-0.76642 0.82184,-1.10292 0.52102,-0.44261 -0.0194,-0.68703 -0.45473,-0.47916 -0.12244,-0.83213 0.60948,-0.26728 0.12197,-1.24316 -0.83842,-1.19173 0.74089,-0.25385 2.31521,0.0272 4.30288,-0.16349" style="fill:#e6e6e6;stroke:#000000;stroke-width:0.242"/><path d="m 447.55032,281.00375 -2.31521,-0.0272 -0.74088,0.25386 -1.26203,0.65183 -0.51099,-0.2155 0.0175,-1.59224 0.48921,-0.80695 0.11894,-1.69522 0.44431,-0.98179 0.80744,-1.10158 0.81129,-0.56107 0.67881,-0.75021 -0.8465,-0.28603 0.12777,-2.47156 0.86974,-0.57657 1.34262,0.47275 1.70006,-0.49477 1.48588,0.004 1.29881,-0.97272 1.00127,1.46846 0.24709,1.06105 0.92903,2.42569 -0.76859,1.53961 -1.03915,1.39791 -0.60488,0.85583 0.0213,2.23812 -4.30288,0.16349" style="fill:#e6e6e6;stroke:#000000;stroke-width:0.242"/><path d="m 446.82129,342.415 -0.4126,0.33299 -0.89504,1.17176 -0.58915,1.18906 -1.19766,1.66448 -2.3866,2.41056 -1.4906,1.40954 -1.59478,1.07265 -2.20716,0.91755 -1.07654,0.12318 -0.27273,0.65822 -1.28333,-0.3504 -1.04531,0.45157 -2.28909,-0.45725 -1.27933,0.28919 -0.87435,-0.12415 -2.17811,0.93763 -1.80291,0.37704 -1.30474,0.90121 -0.96061,0.0576 -0.89359,-0.85063 -0.71378,-0.0437 -0.90956,-1.06165 -0.0997,0.32937 -0.28061,-0.63804 0.0121,-1.38824 -0.68607,-1.57928 0.68148,-0.42823 -0.0552,-1.79781 -1.38303,-2.17994 -1.06117,-1.96201 -0.003,-0.007 -1.51613,-2.98942 1.01155,-1.13172 0.83406,0.62606 0.35598,0.97998 0.94755,0.16721 1.32773,0.4344 1.13451,-0.16795 1.88505,-1.17286 0.002,-8.37222 0.57003,0.33722 1.25211,2.13964 -0.19457,1.37795 0.47118,0.79569 1.51273,-0.23134 1.05622,-1.01072 0.99994,-0.68026 0.51692,-1.08041 1.03019,-0.522 0.89007,0.27334 1.0089,0.63114 1.71881,0.11168 1.3506,-0.52502 0.21344,-0.70241 0.37147,-1.07472 1.14902,-0.1798 0.63488,-0.84168 0.70325,-1.48951 1.89595,-1.66301 2.98834,-1.6352 0.85911,0.0242 1.02184,0.3757 0.71172,-0.2662 1.12251,0.22155 1.01157,3.13197 0.54946,1.58873 -0.37631,2.5047 0.18028,0.80961 -1.06552,-0.4131 -0.61056,0.16081 -0.19941,0.65716 -0.57669,0.84929 0.0198,0.78336 1.26034,1.23141 1.23601,-0.24562 0.43004,-1.00842 1.60155,0.019 -0.52756,1.65455 -0.2495,1.89645 -0.54644,1.0343 -1.44111,1.16027" style="fill:#e6e6e6;stroke:#000000;stroke-width:0.242"/><path d="m 441.45156,341.72118 -0.92202,-0.70713 -0.98712,0.46803 -1.14417,0.89916 -1.12603,1.45998 1.58401,1.78088 0.75565,-0.23064 0.3884,-0.74039 1.17698,-0.36118 0.359,-0.75383 0.64783,-1.12106 -0.73253,-0.69382" style="fill:#e6e6e6;stroke:#000000;stroke-width:0.242"/><path d="m 449.4366,298.38176 0.99679,0.95034 0.53712,1.81076 -0.35985,0.5785 -0.42448,1.73333 0.4056,1.77482 -0.66429,0.74657 -0.64118,1.99602 1.11042,0.55733 -6.4084,1.77627 0.20013,1.53731 -1.59974,0.29609 -1.20226,0.86237 -0.25676,0.75117 -0.75601,0.17072 -1.83677,1.78609 -1.16948,1.40928 -0.71293,0.0506 -0.68619,-0.25107 -2.36046,-0.23861 -0.3797,-0.16275 -0.0156,-0.18065 -0.83357,-0.49053 -1.36924,-0.12536 -1.72945,0.49465 -1.37795,-1.3581 -1.42489,-1.77484 0.0974,-6.86021 4.39727,0.0271 -0.17993,-0.74064 0.31472,-0.80296 -0.37111,-1.00443 0.24007,-1.03744 -0.22313,-0.66369 0.72854,0.0539 0.12101,0.66429 0.98977,-0.0516 1.34092,0.19724 0.70567,0.97162 1.69123,0.29839 1.29094,-0.67578 0.47396,1.12202 1.61826,0.2996 0.77827,0.91367 0.86732,1.18169 1.6162,0.0177 -0.17654,-2.31364 -0.57971,0.38961 -1.47644,-0.83367 -0.5704,-0.38116 0.26149,-2.1463 0.37497,-2.52599 -0.47262,-0.93945 0.60197,-1.35835 0.56592,-0.25433 2.83661,-0.35867 0.83187,0.21625 0.88234,0.54135 0.84155,0.35623 1.34237,0.35828 1.19839,0.63911" style="fill:#e6e6e6;stroke:#000000;stroke-width:0.242"/><path d="m 446.1253,326.60054 -1.12251,-0.22156 -0.71172,0.26621 -1.02184,-0.37571 -0.85911,-0.0242 -1.34636,-1.0003 -1.63302,-0.33954 -0.62134,-1.39996 -0.004,-0.77707 -0.90423,-0.23679 -2.38999,-2.41165 -0.66393,-1.26639 -0.42495,-0.38986 -0.81312,-1.7441 2.36046,0.23862 0.68619,0.25107 0.71294,-0.0506 1.16947,-1.40928 1.83678,-1.78609 0.75601,-0.17072 0.25675,-0.75118 1.20227,-0.86236 1.59973,-0.29609 0.13661,0.80707 1.76152,-0.0431 0.97865,0.45714 0.45508,0.53615 1.00575,0.15755 1.09686,0.69707 0.004,2.75336 -0.41176,1.51274 -0.0906,1.6358 0.3394,0.64953 -0.23872,1.29348 -0.31884,0.20015 -0.55696,1.58933 -2.22496,2.51123" style="fill:#e6e6e6;stroke:#000000;stroke-width:0.242"/></g></g></svg>