<svg xmlns="http://www.w3.org/2000/svg" viewBox="0 0 640 480"><g style="transform-origin: 166.07px 247.434px;" transform="matrix(1.47411704, 0, 0, 1.47411704, 153.93033982, -7.43430771)"><path d="m 241.92764,409.0284 -2.00618,0.14726 -1.0769,-1.03794 -1.27232,-0.0785 -2.26184,-10e-4 -10e-4,-6.4493 0.81094,1.32362 1.05584,2.15803 2.74549,1.74167 2.95652,0.72976 -0.95034,1.46688" style="fill:#e6e6e6;stroke:#000000;stroke-width:0.242"/><path d="m 243.05778,326.21116 1.24146,1.60325 0.82413,-1.7856 2.40815,0.0917 0.34085,0.47444 3.88253,3.63279 1.72667,0.34 2.58057,1.65529 2.17497,0.87809 0.30298,0.9939 -2.07914,3.44063 2.1296,0.61916 2.37185,0.34752 1.67028,-0.36603 1.91542,-1.73987 0.34534,-1.99553 1.04592,-0.43234 1.05961,1.30306 -0.0431,1.80919 -1.77822,1.25356 -1.41835,0.9282 -2.38346,2.22252 -2.81761,3.14309 -0.52756,1.85725 -0.56483,2.39954 0.0207,2.34123 -0.45834,0.52538 -0.16359,1.53005 -0.14424,1.24096 2.68112,2.04648 -0.28847,1.65685 1.31976,1.05162 -0.10736,1.18326 -2.0293,3.12809 -3.13124,1.31805 -4.23523,0.51328 -2.32006,-0.24841 0.44382,1.47402 -0.43221,1.86074 0.38962,1.26058 -1.26675,0.88293 -2.16396,0.34703 -2.03074,-0.91464 -0.81494,0.65679 0.29427,2.50942 1.42599,0.7646 1.15627,-0.8009 0.62885,1.3206 -1.94436,0.79266 -1.69581,1.5943 -0.31049,2.59993 -0.49937,1.39428 -1.99516,0.008 -1.65516,1.34129 -0.60549,1.97629 2.07672,1.94459 2.01913,0.53966 -0.72661,2.40948 -2.49429,1.52678 -1.3725,3.20552 -1.92729,1.08839 -0.86539,1.29858 0.68183,2.90642 1.40566,1.63604 -0.89007,-0.14339 -1.95755,-0.44347 -5.10304,-0.37823 -0.87556,-1.64077 0.0409,-2.09088 -1.40578,0.17933 -0.74427,-1.00648 -0.18428,-2.91828 1.62018,-1.19983 0.66938,-1.72026 -0.24539,-1.3627 1.11949,-2.28315 0.7715,-3.50053 -0.22664,-1.53645 0.92191,-0.49405 -0.22603,-0.97937 -0.97949,-0.51921 0.69587,-1.08441 -0.953,-0.97563 -0.4932,-2.94816 0.84917,-0.51679 -0.3567,-3.07522 0.4961,-2.55745 0.56446,-2.20958 1.26458,-0.89419 -0.64179,-2.39156 -0.008,-2.23342 1.59889,-1.57784 -0.049,-2.00691 1.20516,-2.32927 0.004,-2.17956 -0.54825,-0.43136 -0.97295,-4.04854 1.30111,-2.39095 -0.19977,-2.23657 0.75504,-2.08713 1.38303,-2.14219 1.49036,-1.41424 -0.63211,-0.88983 0.44092,-0.72855 -0.0669,-3.75184 2.30046,-1.10462 0.72479,-2.318 -0.25664,-0.55696 1.76006,-2.00448 2.76315,0.53954" style="fill:#e6e6e6;stroke:#000000;stroke-width:0.242"/><path d="m 216.5122,227.71027 -0.51801,0.11132 -0.53639,-1.28851 -0.79086,-0.64858 0.45945,-1.42562 0.63549,0.0907 0.73919,1.86303 0.011,1.29773" style="fill:#e6e6e6;stroke:#000000;stroke-width:0.242"/><path d="m 215.90973,221.36623 -2.30189,0.3624 -0.14787,-0.83854 0.99257,-0.18149 1.3938,0.068 0.0634,0.58963" style="fill:#e6e6e6;stroke:#000000;stroke-width:0.242"/><path d="m 217.64137,221.34361 -0.36446,1.60773 -0.38816,-0.28956 0.0346,-1.1823 -0.9461,-0.89624 -0.004,-0.26076 1.66835,1.02113" style="fill:#e6e6e6;stroke:#000000;stroke-width:0.242"/><path d="m 191.99699,240.83186 -0.0165,-0.32076 0.25556,-0.10033 0.38356,0.25786 0.75638,-1.31685 0.40147,-0.0289 0.009,0.3204 0.40015,0.01 -0.0352,0.59351 -0.34195,0.94272 0.18477,0.33662 -0.22107,0.77827 0.13322,0.20776 -0.24478,1.0971 -0.41479,0.57524 -0.38138,0.0692 -0.41855,0.75007 -0.63041,8.5e-4 0.16541,-2.44794 0.0162,-1.72487" style="fill:#e6e6e6;stroke:#000000;stroke-width:0.242"/><path d="m 247.53152,326.12053 -2.40815,-0.0917 -0.82413,1.7856 -1.24146,-1.60325 -2.76316,-0.53954 -1.76006,2.00447 -1.52363,0.30469 -0.82728,-3.05695 -1.13474,-2.4736 0.66526,-2.12488 -1.10787,-0.92722 -0.28169,-1.57687 -1.03528,-1.48249 1.33221,-2.34535 -0.90847,-1.82092 0.4846,-0.72673 -0.37848,-0.8009 0.82498,-1.07775 0.0416,-1.83206 0.10372,-1.51032 0.454,-0.72612 -1.82589,-3.4456 1.57009,0.1809 1.08744,-0.0468 0.47117,-0.64615 1.84658,-0.86514 1.11272,-0.80103 2.76339,-0.36094 -0.22469,1.5989 0.25954,0.82087 -0.16976,1.43336 2.29319,1.91857 2.36507,0.3538 0.83078,0.80212 1.42768,0.42543 0.87398,0.624 1.32858,-0.021 1.22658,0.63792 0.0932,1.2446 0.41165,0.62943 0.0278,0.93062 -0.6165,0.0361 0.81228,2.51922 4.04878,0.0895 -0.31024,1.25308 0.22663,0.85751 1.1535,0.61107 0.49888,1.35483 -0.37511,1.72074 -0.57862,0.95965 0.20316,1.25066 -0.66017,0.45436 -0.0362,-0.67749 -1.9671,-1.12202 -1.96105,-0.0311 -3.68034,0.63802 -1.01312,1.93395 -0.0532,1.18557 -0.83176,2.64881 -0.34085,-0.47444" style="fill:#e6e6e6;stroke:#000000;stroke-width:0.242"/><path d="m 258.55824,344.6282 2.81761,-3.14309 2.38346,-2.22252 1.41836,-0.9282 1.77822,-1.25356 0.0431,-1.8092 -1.0596,-1.30305 -1.04592,0.43234 0.41466,-1.30003 0.28605,-1.32821 9.7e-4,-1.23131 -0.75976,-0.40546 -0.79219,0.36144 -0.78735,-0.0992 -0.24683,-0.85983 -0.19663,-2.04066 -0.39555,-0.6632 -1.4261,-0.60016 -0.86201,0.43439 -2.22955,-0.4258 0.14048,-2.99996 -0.62448,-1.22366 0.66018,-0.45436 -0.20316,-1.25066 0.57862,-0.95965 0.3751,-1.72074 -0.49888,-1.35483 -1.1535,-0.61107 -0.22662,-0.85751 0.31023,-1.25308 -4.04878,-0.0895 -0.81227,-2.51922 0.61649,-0.0361 -0.0278,-0.93062 -0.41165,-0.62943 -0.0932,-1.2446 -1.22657,-0.63792 -1.32858,0.021 -0.87399,-0.624 -1.42768,-0.42543 -0.83078,-0.80212 -2.36507,-0.3538 -2.29318,-1.91857 0.16975,-1.43336 -0.25954,-0.82087 0.22469,-1.5989 -2.76339,0.36094 -1.11272,0.80103 -1.84658,0.86514 -0.47117,0.64615 -1.08743,0.0468 -1.57009,-0.1809 -1.19137,0.36821 -0.96062,-0.24564 0.14109,-3.2411 -1.73285,1.25622 -1.86364,-0.0549 -0.79848,-1.13716 -1.40166,-0.12354 0.44624,-0.91439 -1.17357,-1.29446 -0.87871,-1.91386 0.55709,-0.38805 -0.002,-0.89648 1.27655,-0.61251 -0.21054,-1.14637 0.53893,-0.73723 0.15331,-0.98858 2.41492,-1.44075 1.73091,-0.40704 0.28301,-0.31798 1.90322,0.0992 0.94924,-5.79566 0.0498,-0.9161 -0.33081,-1.20939 -0.93679,-0.77041 0.011,-1.5344 1.18943,-0.34811 0.42242,0.21864 0.0714,-0.80888 -1.2376,-0.21841 -0.0263,-1.32168 4.11473,0.0472 0.69865,-0.72829 0.58673,0.67009 0.41177,1.24606 0.39845,-0.26039 1.16257,1.11707 1.64197,-0.13686 0.40885,-0.64626 1.57059,-0.49307 0.8695,-0.34677 0.24539,-0.89457 1.50851,-0.60113 -0.11423,-0.44418 -1.78898,-0.18151 -0.29318,-1.33099 0.0851,-1.41753 -0.94524,-0.54812 0.39566,-0.19493 1.56369,0.27079 1.67911,0.52853 0.60972,-0.49997 1.51855,-0.32803 2.36217,-0.79219 0.77234,-0.80767 -0.27963,-0.59738 1.09795,-0.0936 0.49139,0.48787 -0.27456,0.92941 0.72564,0.32052 0.48448,0.98313 -0.58588,0.745 -0.33589,1.79963 0.54063,1.06843 0.15306,0.97743 1.29894,0.99111 1.03672,0.10484 0.23341,-0.41358 0.66756,-0.0915 0.95541,-0.3705 0.6868,-0.56168 1.16802,0.1792 0.51376,-0.0756 1.14829,0.17278 0.19021,-0.43162 -0.35417,-0.41997 0.21127,-0.61202 0.85208,0.18791 0.99716,-0.21599 1.20977,0.4477 0.92225,0.43573 0.65376,-0.57281 0.47239,0.0883 0.28786,0.59472 1.0112,-0.151 0.80948,-0.80248 0.64856,-1.55643 1.24909,-1.93516 0.71959,-0.1001 0.52223,1.16983 1.18447,3.69607 1.12941,0.34871 0.0571,1.45818 -1.5886,1.73853 0.65703,0.63646 3.73284,0.33178 0.0764,2.11688 1.60385,-1.38592 2.65753,0.75903 3.50766,1.28987 1.0308,1.23818 -0.34643,1.16959 2.45571,-0.65122 4.10988,1.11768 3.15507,-0.0822 3.12192,1.74955 2.69709,2.36991 1.62697,0.61081 1.8058,0.0848 0.76533,0.66792 0.7168,2.69891 0.35055,1.28381 -0.84096,3.5142 -1.07448,1.39066 -2.9766,2.96933 -1.34552,2.41915 -1.56344,1.85954 -0.52792,0.0421 -0.59,1.58136 0.14992,4.04236 -0.58878,3.34274 -0.22434,1.43507 -0.66768,0.86067 -0.3745,2.92469 -2.1412,2.87085 -0.35926,2.28242 -1.70924,0.96098 -0.49441,1.33197 -2.29428,-0.004 -3.32217,0.85595 -1.48734,0.99268 -2.36531,0.65316 -2.48546,1.78488 -1.78765,2.23329 -0.30734,1.68904 0.35127,1.25357 -0.39447,2.30335 -0.4794,1.11743 -1.47584,1.26434 -2.34328,4.0714 -1.85687,1.84984 -1.43591,1.0953 -0.96303,2.23838 -1.39719,1.35278 -0.58455,-1.33995 0.93109,-1.11804 -1.2215,-1.59769 -1.65672,-1.29239 -2.17304,-1.49194 -0.78505,0.0679 -2.11775,-1.79346 -1.37081,0.24672" style="fill:#e6e6e6;stroke:#000000;stroke-width:0.242"/><path d="m 245.804,172.77118 1.5315,0.3555 1.95814,-0.0719 -1.03866,1.08319 -0.78227,0.17194 -2.67882,-1.12143 -0.52756,-0.8885 0.79763,-0.82123 0.74004,1.29252" style="fill:#e6e6e6;stroke:#000000;stroke-width:0.242"/><path d="m 249.72827,165.89814 -1.02826,0.0488 -2.73726,-0.85667 -1.96359,-1.29663 0.73048,-0.23184 2.77695,0.69006 2.15972,1.14503 0.0619,0.50118" style="fill:#e6e6e6;stroke:#000000;stroke-width:0.242"/><path d="m 119.41937,167.51639 -1.06201,0.37692 -3.46786,-1.23215 -0.63356,-0.96739 -1.89014,-0.95771 -0.38018,-0.78276 -2.17364,-0.49561 -0.81373,-1.50476 0.18199,-0.64312 2.21708,0.60573 1.29578,0.42047 1.98513,0.29318 0.71801,0.95252 1.04376,1.30427 2.10818,1.12843 0.87119,1.50198" style="fill:#e6e6e6;stroke:#000000;stroke-width:0.242"/><path d="m 261.70727,161.54226 -1.39779,2.41854 1.37855,-0.93109 1.41837,0.59109 -0.74113,0.95868 1.87393,0.75081 0.97416,-0.66744 2.10613,0.84214 -0.65364,1.993 1.47814,-0.46391 0.26922,1.43652 0.6557,1.67258 -0.88923,2.34801 -0.95518,0.0989 -1.38834,-0.50179 0.45822,-2.18574 -0.5883,-0.34135 -2.45038,2.31981 -1.26021,-0.0924 1.49169,-1.25452 -2.02663,-0.6511 -2.26887,0.16022 -4.09876,-0.0819 -0.32415,-0.79606 1.31551,-0.94936 -0.91864,-0.73533 1.77351,-1.63833 2.18174,-4.38698 1.30935,-1.58776 1.83242,-0.96703 0.97985,0.12318 -0.408,0.76071 -1.12724,1.7579" style="fill:#e6e6e6;stroke:#000000;stroke-width:0.242"/><path d="m 98.997844,151.65075 0.992442,0.37703 2.027474,-0.23196 -0.63259,3.27027 1.83847,2.28775 -0.84227,-0.005 -1.27256,-1.29808 -0.78057,-1.31419 -1.065648,-0.8937 -0.39083,-1.26748 0.126082,-0.92395" style="fill:#e6e6e6;stroke:#000000;stroke-width:0.242"/><path d="m 212.85642,127.0863 -0.82728,1.70973 -0.93362,-0.27551 -0.55456,-0.97019 0.0989,-0.22542 0.81517,-0.98131 0.86455,0.0718 0.53688,0.67082" style="fill:#e6e6e6;stroke:#000000;stroke-width:0.242"/><path d="m 207.2972,125.27433 -2.47179,1.81039 -1.49096,-0.0755 -0.4627,-0.88608 1.5696,-1.52024 2.90062,0.0315 -0.0448,0.63997" style="fill:#e6e6e6;stroke:#000000;stroke-width:0.242"/><path d="m 200.406,115.30901 0.39181,1.52048 1.08077,-0.53216 1.22778,0.90339 2.31256,1.17491 2.41927,1.06153 0.18719,1.60858 1.55424,-0.26258 1.50767,1.11514 -1.8743,1.05306 -3.28636,-0.80392 -1.18604,-1.51407 -2.09415,1.7885 -3.00515,1.72292 -0.72515,-1.94919 -2.86202,0.32162 1.83557,-1.66085 0.2702,-2.67277 0.72031,-3.15773 1.5258,0.28314" style="fill:#e6e6e6;stroke:#000000;stroke-width:0.242"/><path d="m 189.03201,101.48222 -0.01,3.78354 2.82208,-2.89226 2.52466,2.3785 -0.62883,2.70374 2.04272,2.42581 2.20498,-2.59993 1.5407,-3.15301 0.11519,-4.08884 3.0014,0.28871 3.1218,0.55249 2.83443,1.85178 0.12717,1.83339 -1.57167,1.94955 1.48915,1.93697 -0.26862,1.74265 -4.1353,2.47747 -2.93715,0.54196 -2.18357,-1.05924 -0.62981,1.76383 -2.03546,2.92565 -0.61613,1.50028 -2.4494,2.29779 -3.02283,0.22373 -1.66749,1.41958 -0.13939,2.16395 -2.45703,0.41383 -2.58396,2.65945 -2.29028,3.63738 -0.81905,2.5081 -0.11677,3.63907 3.10353,0.51716 0.95118,2.88088 0.98761,2.30518 2.95505,-0.59799 3.92428,1.30825 2.1112,1.14176 1.51117,1.41085 2.64615,0.81785 2.23729,1.2452 3.48711,0.17001 2.2973,0.28435 -0.34509,2.53278 0.65715,2.90399 1.52944,3.18908 3.14225,2.67108 1.62588,-0.91223 1.14272,-2.90545 -1.10303,-4.53713 -1.48964,-1.53295 3.38086,-1.3742 2.3929,-2.07164 1.17043,-2.07927 -0.17278,-2.01369 -1.43422,-2.58745 -2.56495,-2.31896 2.49211,-3.27378 -0.92057,-2.87096 -0.7058,-5.05091 1.47028,-0.75782 3.6208,0.89272 2.17099,0.31824 1.74929,-0.86043 1.96698,1.10872 2.60053,1.88313 0.64069,1.25126 3.76601,0.24345 -0.063,2.67858 0.70192,3.96372 1.92874,0.48485 1.53065,1.81729 3.05803,-1.7125 2.0201,-3.44633 1.39743,-1.46968 1.64451,2.81363 2.75045,3.95307 2.3353,3.65093 -0.84918,1.88626 2.80926,1.67961 1.89824,1.6888 3.36743,0.75999 1.35556,0.93377 0.83696,2.45811 1.64464,0.38332 0.84857,1.08477 0.15391,3.20203 -1.53271,1.06104 -1.51564,0.9864 -3.4802,0.99437 -2.65728,2.28231 -3.57035,0.4483 -4.51681,-0.58154 -3.16948,-0.02 -2.18719,0.1913 -1.7683,1.97485 -2.69213,1.21181 -3.04641,3.5828 -2.43065,2.46829 1.79371,-0.43777 3.38993,-3.5268 4.42993,-2.26306 3.15944,-0.27226 1.86969,1.33598 -1.99444,1.81826 0.66925,2.88948 0.68909,2.00291 2.74307,1.31733 3.49,-0.38115 2.11714,-2.97878 0.14701,1.92595 1.36367,0.95639 -2.61239,1.72074 -4.67737,1.55292 -2.09475,1.05052 -2.35999,1.85977 -1.60349,-0.18912 -0.0808,-2.18841 3.66655,-2.15586 -3.38026,0.0856 -2.34692,0.31859 -1.38085,-1.482 10e-4,-3.61101 -0.93751,-0.77078 -1.41618,0.45425 -0.70156,-0.70289 -1.61088,2.01319 -0.6442,2.0587 -0.74972,1.19621 -0.89709,0.40559 -0.67615,0.13141 -0.21138,0.64516 -3.89161,0.002 -3.20831,0.018 -0.95287,0.48014 -2.23173,1.86944 -0.26403,0.20123 -0.67578,1.00538 -1.93842,-7.3e-4 -2.07467,0.01 -0.95335,0.40862 0.34146,0.50421 0.19009,0.7814 -0.0409,0.25932 -2.76231,1.26843 -2.17594,0.39968 -2.45303,1.35301 -0.52974,0 -0.71729,-0.39893 -0.23704,-0.36204 0.0464,-0.26451 0.46464,-0.88946 0.99257,-1.40386 0.61746,-1.51684 -0.42277,-2.24576 -0.45001,-2.3664 -2.2005,-1.23262 0.26039,-0.46852 -0.30939,-0.32246 -0.58021,0 -0.4247,-0.41891 -0.10604,-0.62714 -0.41092,0.27407 -0.5664,-0.0816 0.12923,-0.2627 -0.49731,-0.26111 -0.20461,-0.69926 -1.63943,-0.85377 -1.70985,-0.89167 -2.06486,-1.03914 -1.98163,-0.97925 -1.88965,0.76424 -0.69079,0.0265 -2.59763,-0.7018 -1.71057,0.35114 -2.04841,-0.83817 -2.15598,-0.43173 -1.47451,-0.16661 -0.65667,-0.46018 -0.37497,-1.49808 -0.71487,0.0132 -0.007,1.04931 -4.37064,-0.002 -7.22527,0.002 -7.17663,2.4e-4 -6.3392,-2.4e-4 -6.33556,0 -6.22992,0 -6.43733,0 -2.07599,0 -6.26962,0 -5.99762,0 -0.28348,-0.008 -4.08847,-2.69165 -1.50876,-1.19379 -3.82456,-1.14973 -1.17673,-2.47774 0.30093,-1.73392 -2.70205,-1.21072 -0.3705,-2.31025 -2.5548,-2.10128 -0.0447,-1.5033 1.17443,-1.41657 -0.0587,-1.86701 -3.5902,-1.89994 -2.159484,-3.4496 -1.320352,-2.19857 -1.933459,-1.39357 -1.423202,-1.27411 -1.120944,-1.62056 -2.120041,1.01641 -2.054459,1.74203 -1.876105,-2.04962 -1.474264,-1.37746 -2.057,-0.87543 -2.079748,-0.0939 0.01125,-18.93203 0.01367,-13.4362 3.939639,0.90254 3.324233,1.78814 2.202321,0.34013 1.85372,-1.54675 2.55794,-1.1668 3.136925,0.45714 3.16306,-1.649351 3.45648,-0.942469 1.45091,1.56453 1.57555,-0.880276 0.4719,-1.787654 1.4595,0.406197 3.57058,3.381343 2.81204,-2.550315 0.2852,2.852335 2.59473,-0.61287 0.79739,-1.09541 2.55782,0.21719 3.22985,1.5724 4.94224,1.36185 2.90655,0.62739 2.06849,-0.23764 2.84894,1.86303 -2.97139,1.80581 3.81731,0.77476 5.70055,-0.42556 1.79891,-0.63331 2.2512,2.16191 2.2973,-1.82275 -2.15537,-1.5419 1.36379,-1.25368 2.57053,-0.1694 1.68952,-0.36821 1.70465,0.87798 2.12221,1.98186 2.3583,-0.2898 3.73139,1.63169 3.27826,-0.57306 3.08078,0.0871 -0.2437,-2.26173 1.87769,-0.63997 3.27244,1.24049 -0.0125,3.41656 1.34419,-2.87532 1.69871,0.0978 0.95494,-3.68772 -2.26234,-2.29948 -2.46501,-1.522666 0.16916,-4.229797 2.49708,-2.832733 2.78505,0.629564 2.13687,1.722677 2.86914,4.32587 -1.87392,1.853355 3.92765,0.7577" style="fill:#e6e6e6;stroke:#000000;stroke-width:0.242"/><path d="m 197.44756,87.259029 1.66362,2.50349 1.95197,-3.244857 5.35257,-1.675971 3.62285,4.191803 -0.31423,2.602347 4.17788,-1.149379 1.99771,-1.585583 4.68586,2.016101 2.90847,1.878646 0.27346,1.702712 3.92149,-0.880395 2.20099,2.469004 5.09773,1.514557 1.83968,1.532586 1.99772,3.50924 -3.87758,1.72232 4.97383,2.38745 3.35279,0.7963 3.03565,3.29495 3.3217,0.23583 -0.65728,2.47469 -3.70671,4.02664 -2.5986,-1.47137 -3.32048,-3.3546 -2.7323,0.44032 -0.26669,2.00025 2.22108,2.00836 2.86673,1.57481 0.86987,0.90364 1.37444,3.32955 -0.72734,2.3825 -2.66345,-0.89469 -5.29689,-2.66805 2.98507,2.87025 2.1993,1.98681 0.34351,1.13982 -5.72681,-1.30353 -4.53205,-1.91143 -2.55963,-1.61802 0.73725,-0.94355 -3.15084,-1.73055 -3.0751,-1.6474 0.0337,0.98663 -6.10639,0.54075 -1.78644,-1.16548 1.39089,-2.52309 3.96808,-0.0615 4.34728,-0.4414 -0.70555,-1.23868 0.73701,-1.74422 2.73206,-3.45322 -0.58056,-1.58933 -0.81409,-1.24001 -3.23469,-1.77108 -4.2782,-1.25162 1.35266,-0.9369 -2.23607,-2.32199 -1.86086,-0.21442 -1.66545,-1.285498 -1.1305,1.115018 -3.82881,0.48363 -7.68543,-0.841069 -4.4672,-1.110658 -3.42479,-0.573176 -1.75643,-1.343102 2.20837,-1.759097 -2.99983,-0.01706 -0.6695,-3.967107 1.62322,-3.579059 2.17184,-1.658668 5.45274,-1.088274 -1.55425,2.634049" style="fill:#e6e6e6;stroke:#000000;stroke-width:0.242"/><path d="m 235.30919,401.60844 0.001,6.4493 2.2616,10e-4 1.27232,0.0785 -0.69925,1.18881 -1.81102,0.91756 -1.03781,-0.0942 -1.25041,-0.23922 -1.5332,-0.88705 -2.21236,-0.42519 -2.65716,-1.63532 -2.15683,-1.56211 -2.90859,-3.21944 1.74094,0.59992 2.96487,1.91967 2.80138,1.0383 1.08949,-1.32556 0.68486,-1.96467 1.94689,-1.17673 1.50282,0.3359" style="fill:#e6e6e6;stroke:#000000;stroke-width:0.242"/><path d="m 236.18365,324.92384 0.82728,3.05694 1.52363,-0.30468 0.25665,0.55696 -0.7248,2.318 -2.30045,1.10462 0.0669,3.75184 -0.44092,0.72855 0.6321,0.88983 -1.49036,1.41424 -1.38303,2.14219 -0.75504,2.08713 0.19978,2.23656 -1.30112,2.39096 0.97296,4.04854 0.54825,0.43136 -0.004,2.17956 -1.20516,2.32927 0.0489,2.0069 -1.59889,1.57785 0.008,2.23342 0.6418,2.39156 -1.26458,0.89418 -0.56447,2.20959 -0.49609,2.55745 0.3567,3.07522 -0.84917,0.51679 0.49319,2.94816 0.953,0.97563 -0.69587,1.08441 0.97949,0.51921 0.22603,0.97937 -0.9219,0.49405 0.22664,1.53645 -0.7715,3.50053 -1.11949,2.28315 0.24538,1.3627 -0.66937,1.72026 -1.62018,1.19983 0.18427,2.91828 0.74427,1.00648 1.40578,-0.17933 -0.0409,2.09088 0.87556,1.64076 5.10305,0.37824 1.95755,0.44347 -1.87914,-0.021 -1.01688,0.69806 -1.90551,1.02958 -0.3405,2.68403 -0.89431,0.067 -2.38236,-0.9381 -2.41782,-1.99592 0,0 -2.62716,-1.62744 -0.66151,-1.78754 0.59848,-1.64148 -1.06263,-1.84876 -0.27079,-4.67374 0.89805,-2.59763 2.23052,-2.06669 -3.20541,-0.77585 2.0109,-2.33541 0.7191,-4.33315 2.34691,0.91223 1.10364,-5.32399 -1.41726,-0.67567 -0.6597,3.18714 -1.33172,-0.36145 0.66284,-3.64366 0.71994,-4.64918 0.97042,-1.69617 -0.60826,-2.40464 -0.17425,-2.75214 0.88996,-0.0791 1.29591,-3.90165 1.46011,-3.81815 0.8937,-3.5176 -0.48618,-3.50089 0.63065,-1.91313 -0.253,-2.84423 1.23504,-2.79303 0.3803,-4.38626 0.67785,-4.65995 0.66066,-4.96499 -0.15464,-3.60447 -0.43972,-3.08308 1.08599,-0.55708 0.56591,-1.1172 1.03527,1.4825 0.28169,1.57687 1.10788,0.92722 -0.66526,2.12488 1.13473,2.4736" style="fill:#e6e6e6;stroke:#000000;stroke-width:0.242"/><path d="m 221.07704,279.15498 -0.90459,-0.50009 -1.03649,-0.69949 -0.59991,0.33601 -1.79214,-0.29307 -0.51449,-0.90859 -0.39385,0.0338 -2.1123,-1.206 -0.28629,-0.65582 0.78795,-0.1585 -0.0936,-1.0584 0.49525,-0.76532 1.04775,-0.14169 0.88922,-1.32822 0.80828,-1.10933 -0.77851,-0.50335 0.39858,-1.22804 -0.4765,-1.93684 0.45278,-0.55636 -0.33348,-1.79286 -0.85498,-1.13027 0.27067,-1.032 0.68063,0.15234 0.39809,-0.63138 -0.49018,-1.25223 0.25616,-0.31097 1.0913,0.0676 1.5845,-1.48588 0.86963,-0.22675 0.0209,-0.70483 0.38913,-1.80278 1.21121,-0.99135 1.33064,-0.0405 0.16819,-0.44577 1.65226,0.17848 1.66205,-1.08029 0.8228,-0.47855 1.02232,-1.03237 0.74815,0.13141 0.55394,0.56362 -0.40983,0.72103 -1.35653,0.35876 -0.53566,1.06928 -0.8176,0.61274 -0.61359,0.79365 -0.25834,1.52194 -0.58588,1.24581 1.09045,0.14266 0.27068,0.97828 0.46585,0.46791 0.16685,0.85608 -0.25082,0.78625 0.0743,0.44323 0.51969,0.17702 0.50312,0.74027 2.71572,-0.20412 1.22682,0.27031 1.48636,1.82493 0.85354,-0.22664 1.52097,0.11338 1.20383,-0.24163 0.74693,0.36421 -0.3803,1.14115 -0.47142,0.71123 -0.16541,1.51806 0.42496,1.40555 0.60016,0.62846 0.0727,0.47324 -1.07013,1.05221 0.76617,0.46574 0.56132,0.73894 0.64408,2.10661 -0.39844,0.2604 -0.41177,-1.24606 -0.58673,-0.6701 -0.69866,0.7283 -4.11472,-0.0472 0.0263,1.32167 1.23759,0.21841 -0.0714,0.80888 -0.42241,-0.21864 -1.18943,0.34812 -0.011,1.5344 0.93678,0.77041 0.33081,1.20939 -0.0498,0.9161 -0.94924,5.79566 -1.05682,-1.12446 -0.63077,-0.05 1.3621,-2.1515 -1.61728,-0.98954 -1.26724,0.18149 -0.7629,-0.36553 -1.16354,0.55865 -1.57251,-0.26451 -1.24413,-2.21502 -0.97756,-0.54425 -0.67409,-0.99692 -1.40432,-1.00019 -0.56302,0.20025" style="fill:#e6e6e6;stroke:#000000;stroke-width:0.242"/><path d="m 205.04261,261.4257 -1.146,-0.47178 -0.42882,-0.44649 0.24322,-0.36941 -0.0766,-0.47033 -0.58564,-0.50978 -0.83103,-0.41877 -0.72685,-0.27298 -0.13903,-0.62364 -0.55394,-0.3809 0.13589,0.61988 -0.42133,0.50941 -0.48279,-0.59146 -0.67857,-0.21064 -0.28847,-0.43004 0.0121,-0.64952 0.27964,-0.67252 -0.59641,-0.3013 0.48412,-0.41261 0.31799,-0.27515 1.3915,0.56604 0.48557,-0.27867 0.66986,0.17848 0.34993,0.43947 0.62315,0.14242 0.50578,-0.4529 0.53494,1.1605 0.81651,0.8585 0.99147,0.90991 -0.81663,0.19035 0.0121,0.85716 0.43936,0.31629 -0.31582,0.25205 0.0822,0.38502 -0.17605,0.43136 -0.11107,0.42205" style="fill:#e6e6e6;stroke:#000000;stroke-width:0.242"/><path d="m 206.51578,228.98439 1.82396,0.15888 1.65939,0.0252 1.98355,0.75806 0.84059,0.81324 1.97266,-0.25096 0.74778,0.52164 1.7885,1.37189 1.31491,0.99693 0.69514,-0.0305 1.25962,0.45036 -0.15403,0.62061 1.5569,0.0908 1.59635,0.9011 -0.25047,0.51485 -1.40444,0.2789 -1.42139,0.10901 -1.45514,-0.17376 -3.0238,0.21394 1.41582,-1.22633 -0.86079,-0.57185 -1.36125,-0.14714 -0.72963,-0.63658 -0.5007,-1.25804 -1.19342,0.086 -1.96928,-0.59314 -0.63367,-0.46476 -2.75251,-0.34352 -0.73725,-0.43257 0.79194,-0.55503 -2.07152,-0.11374 -1.51758,1.15361 -0.87495,0.0308 -0.30286,0.54063 -1.04484,0.24224 -0.90375,-0.20994 1.11465,-0.68449 0.45763,-0.80103 0.95505,-0.49392 1.07848,-0.43354 1.59888,-0.21307 0.51147,-0.24479" style="fill:#e6e6e6;stroke:#000000;stroke-width:0.242"/><path d="m 228.80797,236.66402 0.26427,-0.37414 1.64851,0.01 1.25089,0.56495 0.5566,-0.0552 0.38333,0.77766 1.15555,-0.0436 -0.068,0.65254 0.93956,0.079 1.03807,0.80224 -0.78433,0.88898 -1.00442,-0.4748 -0.96957,0.0916 -0.69454,-0.10406 -0.38079,0.39821 -0.81082,0.13443 -0.32138,-0.52949 -0.69841,0.31349 -0.84519,1.49255 -0.54377,-0.3463 -0.10681,-0.62643 0.0436,-0.59278 -0.54365,-0.65556 0.51485,-0.36846 0.16142,-0.84106 -0.18489,-1.19403" style="fill:#e6e6e6;stroke:#000000;stroke-width:0.242"/><path d="m 210.66681,286.0273 1.12421,-1.57978 -0.4569,-0.92286 -0.80707,0.98143 -1.26506,-0.92626 0.42871,-0.59556 -0.35671,-1.91688 0.7398,-0.3186 0.3889,-1.31563 0.79907,-1.36004 -0.14725,-0.86188 1.15688,-0.45302 1.45188,-0.84071 2.1123,1.206 0.39385,-0.0338 0.51449,0.90859 1.79214,0.29307 0.59991,-0.33601 1.03649,0.69949 0.90459,0.50009 0.29451,1.60373 -0.65739,1.37336 -2.30274,2.21224 -2.53955,0.83345 -1.2941,1.83956 -0.39954,1.42731 -1.19403,0.8706 -0.88633,-1.06854 -0.85305,-0.22882 -0.87276,0.16843 -0.0572,-0.77513 0.60246,-0.5036 -0.25047,-0.88027" style="fill:#e6e6e6;stroke:#000000;stroke-width:0.242"/><path d="m 251.00857,399.38083 2.53423,-1.68505 1.79515,0.70059 1.26711,-1.11997 1.68941,1.26033 -0.63356,0.98507 -2.851,0.84784 -0.95034,-0.98881 -1.79503,1.27207 -1.05597,-1.27207" style="fill:#e6e6e6;stroke:#000000;stroke-width:0.242"/><path d="m 269.26263,273.54337 -0.80949,0.80247 -1.0112,0.151 -0.28785,-0.59471 -0.47239,-0.0883 -0.65376,0.57282 -0.92226,-0.43573 0.53554,-0.90205 0.18356,-0.9628 0.36481,-0.90568 -0.81929,-1.24788 -0.1671,-1.44788 1.09941,-1.82057 0.71705,0.23305 1.55508,0.50118 2.23608,1.78693 0.34946,0.8666 -1.24909,1.93515 -0.64856,1.55642" style="fill:#e6e6e6;stroke:#000000;stroke-width:0.242"/><path d="m 189.98549,249.64768 -1.08332,-0.37558 -1.31745,-0.0387 -0.96569,-0.42713 -1.13643,-0.8891 0.052,-0.62836 0.24491,-0.50614 -0.29984,-0.40354 1.01616,-1.76357 2.71064,-0.007 0.054,-0.73798 -0.34183,-0.13165 -0.23449,-0.47007 -0.78118,-0.50168 -0.78602,-0.72527 0.95373,-0.004 10e-4,-1.22525 1.97169,-0.003 1.95294,0.024 -0.0162,1.72487 -0.16541,2.44794 0.63041,-8.5e-4 0.68849,0.39156 0.18199,-0.32246 0.61964,0.27635 -0.96232,0.82499 -1.00127,0.6044 -0.14859,0.41478 0.16832,0.4235 -0.43887,0.54753 -0.49417,0.13248 0.11205,0.25387 -0.39639,0.23825 -0.72395,0.54293 -0.0652,0.31568" style="fill:#e6e6e6;stroke:#000000;stroke-width:0.242"/><path d="m 254.05329,261.1238 1.38666,0.78179 1.30656,1.38387 0.0594,1.09276 0.7957,0.0502 1.13171,1.03455 0.83381,0.73809 -0.33747,1.90527 -1.28211,0.55249 0.11422,0.49901 -0.38961,1.09154 0.93568,1.53561 0.67627,0.002 0.27734,1.19353 1.28961,1.83703 -0.51376,0.0756 -1.16802,-0.1792 -0.6868,0.56168 -0.95541,0.3705 -0.66755,0.0915 -0.23342,0.41358 -1.03672,-0.10483 -1.29893,-0.9911 -0.15307,-0.97745 -0.54063,-1.06843 0.33589,-1.79963 0.58589,-0.745 -0.48449,-0.98312 -0.72563,-0.32053 0.27455,-0.9294 -0.49139,-0.48788 -1.09795,0.0936 -1.42913,-1.60736 0.57209,-0.58335 -0.042,-0.97925 1.29942,-0.34037 0.52442,-0.39748 -0.72297,-0.78771 0.18464,-0.77428 1.67319,-1.24848" style="fill:#e6e6e6;stroke:#000000;stroke-width:0.242"/><path d="m 195.85411,251.26073 -0.36469,-0.6718 -0.64142,-0.18693 0.147,-0.86153 -0.28724,-0.2328 -0.43451,-0.15343 -0.9265,0.2563 -0.0785,-0.28994 -0.63767,-0.34521 -0.45484,-0.42966 -0.62254,-0.18127 0.43886,-0.54752 -0.16831,-0.4235 0.14859,-0.41479 1.00127,-0.60439 0.96231,-0.82499 0.21926,0.0844 0.46331,-0.38042 0.60427,-0.031 0.1959,0.17642 0.32754,-0.10736 0.9812,0.19518 0.97634,-0.0565 0.67929,-0.23934 0.24757,-0.2426 0.67301,0.11204 0.50541,0.14714 0.55248,-0.0508 0.41964,-0.18777 0.96448,0.3003 0.33506,0.0476 0.64456,0.40462 0.61057,0.4846 0.76787,0.33119 0.55587,0.5941 -0.72395,-0.0441 -0.29269,0.2939 -0.73302,0.28205 -0.53348,0.001 -0.46671,0.27431 -0.42301,-0.0973 -0.35986,-0.32974 -0.2207,0.0628 -0.27092,0.51558 -0.2028,-0.0187 -0.0351,0.44358 -0.737,0.59327 -0.38914,0.25603 -0.21672,0.26681 -0.62303,-0.43501 -0.45568,0.57427 -0.44056,-0.0153 -0.49501,0.0509 0.045,1.05718 -0.31012,0.0191 -0.26439,0.49053 -0.65655,0.0882" style="fill:#e6e6e6;stroke:#000000;stroke-width:0.242"/><path d="m 225.68799,236.22225 1.28841,0.097 1.83157,0.34472 0.18489,1.19404 -0.16141,0.84106 -0.51486,0.36846 0.54365,0.65557 -0.0436,0.59278 -1.40263,-0.37074 -0.99667,0.15137 -1.28865,-0.15779 -0.98785,0.40777 -1.1311,-0.67965 0.18598,-0.70422 1.94374,0.30322 1.59368,0.17545 0.76025,-0.48642 -0.96449,-0.94755 0.0158,-0.83696 -1.33233,-0.34205 0.47553,-0.60609" style="fill:#e6e6e6;stroke:#000000;stroke-width:0.242"/><path d="m 216.43851,239.34368 1.42127,0.19567 1.12179,0.52429 0.34992,0.59701 -1.48442,0.0408 -0.6413,0.36397 -1.18205,-0.3497 -1.20734,-0.7946 0.2535,-0.49876 0.88753,-0.15234 0.4811,0.0737" style="fill:#e6e6e6;stroke:#000000;stroke-width:0.242"/><path d="m 175.10878,222.97215 -0.81953,1.97738 -0.36917,1.61463 -0.1544,2.99014 -0.20364,1.08549 0.36627,1.20952 0.65461,1.07895 0.4218,1.71106 1.40166,1.63739 0.49308,1.2515 0.82619,1.07785 2.24225,0.57984 0.87313,0.91331 1.85203,-0.60984 1.61051,-0.22059 1.58135,-0.393 1.32918,-0.37498 1.34323,-0.89311 0.50323,-1.27932 0.1734,-1.8478 0.36505,-0.64468 1.43034,-0.5779 2.23306,-0.51255 1.87005,0.0771 1.28091,-0.18719 0.50663,0.46851 -0.0716,1.06286 -1.13486,1.30899 -0.50227,1.33728 0.38926,0.382 -0.31642,0.94706 -0.52913,1.70538 -0.53542,-0.56071 -0.44202,0.0362 -0.40148,0.0289 -0.75637,1.31685 -0.38357,-0.25786 -0.25555,0.10032 0.0165,0.32077 -1.95294,-0.024 -1.97169,0.003 -0.001,1.22525 -0.95373,0.004 0.78602,0.72526 0.78118,0.50168 0.23449,0.47007 0.34183,0.13166 -0.054,0.73798 -2.71065,0.006 -1.01615,1.76358 0.29983,0.40353 -0.2449,0.50614 -0.052,0.62836 -2.38999,-2.32502 -1.089,-0.70289 -1.72438,-0.56495 -1.1795,0.15754 -1.69617,0.81458 -1.06445,0.21332 -1.49132,-0.5704 -1.58268,-0.412 -1.97387,-0.99438 -1.58329,-0.30431 -2.39084,-1.00986 -1.76672,-1.03988 -0.533,-0.58189 -1.18181,-0.1302 -2.16021,-0.69043 -0.87968,-0.99679 -2.26911,-1.24206 -1.05802,-1.38352 -0.50348,-1.07146 0.70446,-0.21477 -0.21732,-0.62835 0.48557,-0.57209 0.011,-0.76364 -0.71257,-0.99329 -0.19044,-0.88208 -0.7081,-1.12083 -1.86122,-2.21502 -2.12318,-1.74809 -1.02742,-1.40009 -1.81258,-0.91936 -0.38841,-0.55104 0.3221,-1.39706 -1.07689,-0.52865 -1.24643,-1.10316 -0.52647,-1.58945 -1.13594,-0.18561 -1.22634,-1.2048 -0.98966,-1.11562 -0.0921,-0.71825 -1.13571,-1.73999 -0.74802,-1.7747 0.0319,-0.89347 -1.52738,-0.92492 -0.70495,0.10186 -1.2054,-0.64373 -0.33831,0.94815 0.34956,1.11756 0.20546,1.74179 0.72419,0.95288 1.56719,1.58643 0.348,0.54075 0.32125,0.16383 0.27866,0.78723 0.37534,-0.0318 0.42387,1.47426 0.6413,0.57996 0.44963,0.80585 1.32737,1.15531 0.70071,2.10359 0.6269,0.98699 0.58673,1.05343 0.11616,1.18266 1.0181,0.0741 0.84712,1.01615 0.76593,0.99643 -0.0513,0.39918 -0.88874,0.81747 -0.37414,-0.011 -0.55696,-1.35375 -1.38194,-1.27292 -1.52291,-1.08221 -1.07992,-0.56979 0.0697,-1.64524 -0.32041,-1.22259 -1.00648,-0.70083 -1.45176,-1.01095 -0.27866,0.29185 -0.53264,-0.59121 -1.30257,-0.5497 -1.24472,-1.32192 0.15367,-0.17232 0.86986,0.12936 0.78372,-0.85282 0.0788,-1.03237 -1.62563,-1.63845 -1.23953,-0.63779 -0.77863,-1.44232 -0.78347,-1.52061 -0.97793,-1.86207 -0.85813,-2.10782 2.39992,-0.18125 2.68208,-0.25508 -0.19772,0.4598 3.18896,1.14067 4.81798,1.64609 4.19954,-0.0167 1.67489,-7.3e-4 0.003,-0.96353 3.65855,8.5e-4 0.77017,0.82788 1.0798,0.73678 1.2549,1.02221 0.70023,1.21035 0.52538,1.26954 1.0919,0.69563 1.75281,0.68981 1.33051,-1.81923 1.72655,-0.0445 1.48842,0.91912 1.05971,1.57336 0.73036,1.34189 1.24594,1.30062 0.46464,1.59164 0.59133,1.06529 1.64729,0.70107 1.49931,0.49682 0.82365,-0.0676" style="fill:#e6e6e6;stroke:#000000;stroke-width:0.242"/><path d="m 199.24199,255.32282 -0.73072,-0.67348 -0.98687,-0.86346 -0.46501,-0.722 -0.89019,-0.67361 -1.05803,-0.96885 0.23438,-0.33215 0.34871,0.32332 0.15985,-0.15186 0.65654,-0.0882 0.26439,-0.49053 0.31012,-0.0191 -0.045,-1.05718 0.49502,-0.0509 0.44055,0.0153 0.45569,-0.57427 0.62303,0.43499 0.21671,-0.2668 0.38914,-0.25603 0.737,-0.59326 0.0351,-0.44358 0.2028,0.0187 0.27093,-0.51559 0.22069,-0.0628 0.35986,0.32972 0.42301,0.0975 0.46671,-0.27432 0.53349,-0.001 0.73301,-0.28204 0.2927,-0.29391 0.72394,0.0442 -0.18162,0.20705 -0.10779,0.48181 0.21573,0.78881 -0.48666,0.73361 -0.22651,0.86576 -0.0685,0.94683 0.11338,0.55357 0.0532,0.9657 -0.32271,0.21054 -0.19747,0.91658 0.14508,0.56531 -0.4321,0.54703 0.0985,0.5779 0.32368,0.35092 -0.50578,0.45289 -0.62315,-0.14242 -0.34993,-0.43947 -0.66986,-0.17848 -0.48557,0.27867 -1.3915,-0.56604 -0.31799,0.27515" style="fill:#e6e6e6;stroke:#000000;stroke-width:0.242"/><path d="m 215.77967,263.55251 -0.70386,-0.61249 -0.45267,-1.1466 0.52188,-0.56797 -0.53519,-0.14569 -0.39409,-0.70276 -1.05209,-0.59157 -0.92408,0.13551 -0.4281,0.74028 -0.85293,0.53422 -0.46089,0.0741 -0.20691,0.44237 1.00732,1.15326 -0.57656,0.27114 -0.30516,0.31462 -0.9824,0.10846 -0.36554,-1.26856 -0.27504,0.36119 -0.69647,-0.12476 -0.42616,-0.85498 -0.866,-0.14121 -0.54801,-0.24865 -0.90641,0.003 -0.0653,0.46149 -0.24236,-0.32138 0.11107,-0.42204 0.17606,-0.43137 -0.0822,-0.38502 0.31581,-0.25205 -0.43936,-0.31628 -0.0121,-0.85717 0.81664,-0.19034 0.7583,0.76413 -0.0432,0.45096 0.84265,0.0957 0.19929,-0.17329 0.58056,0.52321 1.03902,-0.15391 0.89843,-0.5376 1.28247,-0.42954 0.7208,-0.6366 1.16596,0.12512 -0.0788,0.20946 1.17758,0.0726 0.9398,0.36809 0.68922,0.64056 0.79425,0.58794 -0.25616,0.31098 0.49017,1.25222 -0.39809,0.63138 -0.68063,-0.15234 -0.27067,1.03201" style="fill:#e6e6e6;stroke:#000000;stroke-width:0.242"/><path d="m 233.28933,316.33877 -0.56591,1.1172 -1.08598,0.55708 -2.1175,-1.25223 -0.18307,-0.89322 -4.18672,-2.18067 -3.78743,-2.36725 -1.6289,-1.33063 -0.87495,-1.77967 0.34703,-0.61988 -1.78875,-2.81688 -2.08229,-3.94545 -1.99529,-4.24141 -0.86357,-0.96884 -0.66453,-1.56405 -1.64076,-1.38461 -1.50464,-0.85837 0.68365,-0.94561 -1.02341,-2.01962 0.65715,-1.48188 1.68335,-1.33548 0.25047,0.88027 -0.60246,0.5036 0.0572,0.77513 0.87277,-0.16843 0.85305,0.22882 0.88633,1.06855 1.19402,-0.87061 0.39954,-1.42731 1.29411,-1.83956 2.53954,-0.83345 2.30275,-2.21224 0.65739,-1.37336 -0.29451,-1.60373 0.56301,-0.20025 1.40433,1.00019 0.67409,0.99692 0.97755,0.54425 1.24413,2.21502 1.57251,0.26451 1.16355,-0.55865 0.76289,0.36553 1.26725,-0.18149 1.61728,0.98954 -1.3621,2.1515 0.63077,0.05 1.05682,1.12446 -1.90322,-0.0992 -0.28301,0.31799 -1.73091,0.40704 -2.41491,1.44074 -0.15331,0.98858 -0.53894,0.73724 0.21055,1.14637 -1.27655,0.6125 0.002,0.89649 -0.55709,0.38804 0.8787,1.91386 1.17358,1.29447 -0.44625,0.91438 1.40167,0.12355 0.79848,1.13716 1.86364,0.0549 1.73284,-1.25623 -0.14108,3.24111 0.96061,0.24563 1.19137,-0.36821 1.82589,3.44561 -0.454,0.72611 -0.10372,1.51032 -0.0416,1.83207 -0.82498,1.07775 0.37848,0.80089 -0.4846,0.72673 0.90847,1.82092 -1.33221,2.34535" style="fill:#e6e6e6;stroke:#000000;stroke-width:0.242"/><path d="m 240.27538,239.29056 1.07933,0.1924 0.38078,0.43378 -0.54099,0.54983 -1.5897,-0.0129 -1.23383,0.0767 -0.12294,-0.93352 0.29924,-0.31908 1.72811,0.0127" style="fill:#e6e6e6;stroke:#000000;stroke-width:0.242"/><path d="m 247.87237,326.59497 0.83176,-2.64881 0.0532,-1.18556 1.01313,-1.93395 3.68034,-0.63803 1.96104,0.0311 1.9671,1.12203 0.0362,0.67748 0.62448,1.22366 -0.14048,2.99997 2.22955,0.42579 0.862,-0.43439 1.42611,0.60017 0.39554,0.66319 0.19663,2.04066 0.24684,0.85984 0.78734,0.0992 0.79219,-0.36144 0.75976,0.40546 -9.6e-4,1.23131 -0.28605,1.32821 -0.41467,1.30003 -0.34534,1.99553 -1.91542,1.73987 -1.67028,0.36603 -2.37185,-0.34752 -2.1296,-0.61916 2.07914,-3.44063 -0.30298,-0.9939 -2.17497,-0.87809 -2.58057,-1.65529 -1.72667,-0.34 -3.88253,-3.63279" style="fill:#e6e6e6;stroke:#000000;stroke-width:0.242"/><path d="m 194.848,250.402 -0.23438,0.5059 -1.22319,-0.0322 -0.76,-0.20558 -0.87326,-0.42725 -1.17358,-0.13347 -0.5981,-0.46173 0.0652,-0.31569 0.72394,-0.54293 0.3964,-0.23825 -0.11205,-0.25386 0.49417,-0.13249 0.62254,0.18126 0.45484,0.42967 0.63767,0.34521 0.0785,0.28993 0.9265,-0.25629 0.43451,0.15343 0.28725,0.2328 -0.14701,0.86152" style="fill:#e6e6e6;stroke:#000000;stroke-width:0.242"/><path d="m 259.56715,266.20508 2.53022,0.42423 0.227,-0.38188 1.70743,-0.15306 2.27081,0.56966 -1.09941,1.82057 0.1671,1.44788 0.8291,1.25333 -0.36917,0.90955 -0.18586,0.96679 -0.53869,0.88874 -1.20977,-0.4477 -0.99715,0.21599 -0.85209,-0.18792 -0.21127,0.61202 0.35418,0.41998 -0.19022,0.43162 -1.14828,-0.17278 -1.28962,-1.83703 -0.27734,-1.19354 -0.67627,-0.002 -0.93568,-1.53561 0.38961,-1.09154 -0.11422,-0.499 1.28211,-0.55249 0.33748,-1.90527" style="fill:#e6e6e6;stroke:#000000;stroke-width:0.242"/><path d="m 249.99495,256.0245 1.21436,-0.2777 0.44347,0.0748 -0.0845,1.59032 -1.76346,0.23461 -0.38006,-0.19191 0.61238,-0.58674 -0.0422,-0.84335" style="fill:#e6e6e6;stroke:#000000;stroke-width:0.242"/><path d="m 258.55824,344.6282 1.37081,-0.24671 2.11774,1.79345 0.78505,-0.0679 2.17305,1.49194 1.65672,1.2924 1.2215,1.59769 -0.93109,1.11804 0.58455,1.33994 -0.9138,1.4929 -2.38527,1.32629 -1.55896,-0.47771 -1.14297,0.25579 -1.95221,-1.02403 -1.43228,0.0762 -1.28647,-1.3149 0.16359,-1.53005 0.45835,-0.52538 -0.0207,-2.34124 0.56483,-2.39953 0.52755,-1.85725" style="fill:#e6e6e6;stroke:#000000;stroke-width:0.242"/><path d="m 51.772391,238.04693 -0.30855,0.36615 -0.524535,-0.3134 0.06014,-0.61201 -0.349206,-0.79824 0.105149,-0.2443 0.36663,-0.35816 -0.145805,-0.43233 0.122573,-0.20485 0.160688,0.0407 0.808643,0.37136 0.374979,0.19069 0.342551,0.29403 0.538329,0.76895 -0.05082,0.12137 -0.825099,0.46814 -0.675664,0.34196" style="fill:#e6e6e6;stroke:#000000;stroke-width:0.242"/><path d="m 50.637895,234.62045 -0.707608,0.15766 -0.363847,-0.46391 -0.242968,-0.17932 -0.01876,-0.13781 0.207031,-0.18901 0.750684,0.20955 0.552002,0.33846 -0.176539,0.26438" style="fill:#e6e6e6;stroke:#000000;stroke-width:0.242"/><path d="m 49.204166,233.44552 -0.0657,0.23851 -1.131713,-0.0641 0.158147,-0.26886 1.039269,0.0945" style="fill:#e6e6e6;stroke:#000000;stroke-width:0.242"/><path d="m 47.314993,233.12441 -0.114466,0.12765 -0.15125,-0.0284 -0.735075,-0.0776 -0.268499,-0.5013 -0.08192,-0.0882 0.564707,-0.30504 0.176539,0.14229 0.609961,0.7306" style="fill:#e6e6e6;stroke:#000000;stroke-width:0.242"/><path d="m 43.741016,231.66478 -0.25047,0.21925 -0.711238,-0.40377 0.109263,-0.16165 0.322223,-0.21732 0.486783,0.0473 0.04344,0.51617" style="fill:#e6e6e6;stroke:#000000;stroke-width:0.242"/><path d="m 180.0134,165.12228 0.37497,1.49809 0.65667,0.46018 1.47451,0.16662 2.15598,0.43172 2.04841,0.83817 1.71057,-0.35114 2.59762,0.7018 0.69079,-0.0265 1.88966,-0.76424 1.98163,0.97925 2.06486,1.03915 1.70985,0.89166 1.63943,0.85377 0.2046,0.69926 0.49731,0.26111 -0.12922,0.2627 0.5664,0.0816 0.41091,-0.27407 0.10605,0.62714 0.4247,0.41891 0.58021,0 0.30939,0.32246 -0.26039,0.46852 2.2005,1.23262 0.45001,2.3664 0.42277,2.24575 -0.61747,1.51686 -0.99256,1.40385 -0.46464,0.88947 -0.0464,0.2645 0.23704,0.36204 0.71729,0.39893 0.52973,0 2.45303,-1.35302 2.17595,-0.39967 2.76231,-1.26843 0.0409,-0.25931 -0.19009,-0.78141 -0.34146,-0.50421 0.95335,-0.40862 2.07467,-0.01 1.93842,7.3e-4 0.67578,-1.00539 0.26403,-0.20124 2.23173,-1.86967 0.95286,-0.4799 3.20832,-0.018 3.89161,-0.002 0.21138,-0.64516 0.67615,-0.13141 0.89709,-0.40559 0.74972,-1.19621 0.6442,-2.0587 1.61088,-2.01319 0.70156,0.70289 1.41617,-0.45425 0.93752,0.77078 -0.001,3.61101 1.38085,1.482 0.36482,0.85547 -2.25508,1.25926 -2.1699,0.89345 -2.23064,0.76352 -1.11779,1.52568 -0.35767,0.5756 -0.0213,1.35205 0.69684,1.34468 0.87639,0.0633 -0.22166,-0.92505 0.63355,0.5635 -0.16904,0.7226 -1.4255,0.4096 -1.01446,-0.0492 -1.56199,0.43996 -0.91863,0.12596 -1.22779,0.12415 -1.76043,0.72817 3.10159,-0.47347 0.62582,0.47613 -2.95664,0.75227 -1.34528,0.004 0.0628,-0.3077 -0.64287,0.69429 0.62157,0.11471 -0.45616,1.78984 -1.53659,1.90586 -0.15717,-0.63464 -0.4638,-0.12887 -0.6926,-0.61915 0.43924,1.33208 0.52417,0.43899 0.0318,0.92988 -0.67748,0.95312 -1.18834,1.9492 -0.19239,-0.0966 0.65327,-1.66072 -1.07896,-0.93654 -0.24732,-2.04672 -0.40693,1.06698 0.45062,1.55824 -1.39526,-0.38417 1.45382,0.78916 0.0906,2.31921 0.60585,0.1677 0.21924,0.83889 0.2967,2.41202 -1.3425,1.77761 -2.18453,0.70748 -1.38836,1.39477 -1.05439,0.15234 -1.06952,0.87012 -0.30177,0.79303 -2.31812,1.52847 -1.1904,1.11695 -0.99535,1.38569 -0.32548,1.65383 0.37316,1.60929 0.7047,1.97291 0.9386,1.62491 0.0121,0.98845 0.99994,2.64155 -0.0664,1.52751 -0.0921,0.87882 -0.52672,1.37589 -0.6315,0.28386 -1.03914,-0.27285 -0.33349,-0.98808 -0.80258,-0.51885 -1.11926,-1.94593 -0.98215,-1.73876 -0.31727,-0.89202 0.43355,-1.51808 -0.59133,-1.26237 -1.64632,-1.92827 -0.8245,-0.35464 -2.13045,1.0481 -0.378,-0.11508 -1.02487,-1.07786 -1.32398,-0.57293 -2.38721,0.29124 -1.87404,-0.25628 -1.61064,0.1596 -0.87289,0.36118 0.38042,0.61456 -0.0345,0.93582 0.44831,0.45495 -0.40233,0.30251 -0.78359,-0.33939 -0.79268,0.43643 -1.53234,-0.0715 -1.57663,-1.21738 -1.84223,0.28763 -1.53596,-0.53411 -1.31358,0.16202 -1.77725,0.53869 -1.92245,1.70465 -2.0985,0.98774 -1.15313,1.09116 -0.48569,1.02548 -0.0211,1.56755 0.1056,1.08707 0.40123,0.76823 -0.82365,0.0677 -1.49931,-0.49682 -1.64729,-0.70107 -0.59133,-1.06528 -0.46464,-1.59165 -1.24594,-1.30062 -0.73036,-1.34189 -1.05971,-1.57336 -1.48842,-0.91911 -1.72655,0.0445 -1.33051,1.81923 -1.75281,-0.68982 -1.0919,-0.69563 -0.52538,-1.26954 -0.70023,-1.21035 -1.2549,-1.02221 -1.0798,-0.73677 -0.77017,-0.82789 -3.65855,-8.5e-4 -0.003,0.96353 -1.67489,7.3e-4 -4.19954,0.0167 -4.81798,-1.64609 -3.18896,-1.14067 0.19772,-0.45979 -2.68208,0.25507 -2.39992,0.18125 -0.35501,-1.20287 -1.36863,-1.35882 -0.98543,-0.28362 -0.23074,-0.68063 -1.18508,-0.11931 -0.75552,-0.64324 -1.96189,-0.23473 -0.53882,-0.38502 -0.2564,-1.31031 -2.04913,-2.41468 -1.75886,-3.37312 0.0749,-0.56555 -0.9317,-0.8084 -1.63459,-2.06087 -0.29148,-2.01913 -1.12531,-1.36065 0.46282,-2.07721 -0.0735,-2.16589 -0.67385,-1.95017 0.82509,-2.41757 0.25677,-2.34909 0.25676,-2.37063 -0.38164,-3.54518 -0.66755,-2.28727 -0.61553,-1.25029 0.25568,-0.52792 3.05403,0.91754 1.1247,2.5318 0.52248,-0.70542 -0.33784,-2.20402 -0.71802,-2.22434 5.99761,0 6.26962,0 2.076,0 6.43733,0 6.22992,0 6.33556,0 6.33919,2.4e-4 7.17663,-2.4e-4 7.22527,-0.002 4.37065,0.002 0.006,-1.04931 0.71487,-0.0132" style="fill:#e6e6e6;stroke:#000000;stroke-width:0.242"/><path d="m 57.127609,142.9246 -2.109272,1.14914 -1.079804,-0.77731 -0.326458,-1.41873 1.917971,-1.08258 1.127962,-0.46597 1.402027,0.20678 0.894795,0.94671 -1.827221,1.44196" style="fill:#e6e6e6;stroke:#000000;stroke-width:0.242"/><path d="m 52.774029,95.20776 1.52823,1.738046 0.937992,-0.743304 3.569016,0.230626 -0.126687,0.881727 3.231184,0.648923 2.154042,-0.381392 4.448807,1.20274 4.06197,0.356224 1.626119,0.491502 2.809983,-0.614679 3.203475,1.135337 2.294523,0.52599 0,0 -0.01367,13.4362 -0.01125,18.93203 2.079748,0.0939 2.057,0.87543 1.474264,1.37746 1.876105,2.04962 2.054459,-1.74203 2.120041,-1.01641 1.120944,1.62056 1.423202,1.27412 1.93358,1.39356 1.320231,2.19857 2.159493,3.4496 3.59019,1.89994 0.0587,1.86701 -1.17444,1.41657 -1.16087,-1.10401 -1.86134,-0.94054 -0.59725,-2.59351 -2.72263,-2.4338 -1.138005,-2.87689 -2.027597,-0.19832 -3.357629,-0.0751 -2.474934,-0.88609 -4.36689,-3.2267 -2.022031,-0.59532 -3.693888,-1.12469 -2.923844,0.26898 -4.153325,-1.45502 -2.510629,-1.35908 -2.343891,0.67638 0.435479,2.20366 -1.167287,0.20219 -2.443595,0.65607 -1.859044,1.05766 -2.340382,0.66284 -0.302016,-1.84392 0.949729,-3.10704 2.24455,-0.98495 -0.579106,-0.80609 -2.692008,1.78656 -1.441352,2.11339 -3.042908,2.23511 1.54517,1.51189 -1.995653,2.21612 -2.270202,1.28079 -2.113628,0.9282 -0.523325,1.34043 -3.296766,1.55255 -0.667557,1.40154 -2.47082,1.26845 -1.44958,-0.22761 -1.970969,0.82438 -2.143152,1.00224 -1.756194,0.98021 -3.624313,0.83309 -0.330693,-0.4898 2.310132,-1.36803 2.065954,-0.90846 2.250842,-1.61947 2.620013,-0.33638 1.041084,-1.22392 2.927474,-1.79964 0.471537,-0.60523 1.559206,-1.07183 0.364331,-2.32054 1.073996,-1.82528 -2.434883,0.93873 -0.681109,-0.53216 -1.143329,1.12348 -1.379279,-1.56888 -0.569305,1.11138 -0.789888,-1.54567 -2.111208,1.24183 -1.296515,-0.002 -0.181742,-1.8491 0.381755,-1.14769 -1.359798,-1.12058 -2.745853,0.60366 -1.782209,-1.48224 -1.444861,-0.76195 -0.0094,-1.81003 -1.627329,-1.37239 0.816992,-1.86714 1.72183,-1.82918 0.753346,-1.6975 1.708883,-0.2426 1.448854,0.53107 1.703438,-1.60639 1.533675,0.28762 1.608937,-1.03879 -0.392282,-1.53912 -1.182291,-0.60996 1.563441,-1.31382 -1.296878,0.0388 -2.241041,0.7427 -0.643478,0.75007 -1.665444,-0.74934 -2.987006,0.38187 -3.09276,-0.81626 -0.886446,-1.37687 -2.672648,-2.00702 2.967767,-1.45781 4.710651,-1.71651 1.73635,0 -0.287375,1.75523 4.45764,-0.13601 -1.71457,-2.18114 -2.597628,-1.35326 -1.502094,-1.79153 -2.025903,-1.54215 -2.901943,-1.15131 1.182049,-1.92475 3.74616,-0.11991 2.66563,-1.69086 0.502634,-1.82468 2.157672,-1.798177 2.057121,-0.435602 4.003164,-1.700048 1.941929,0.257246 3.249939,-2.060146 3.195126,0.814329" style="fill:#e6e6e6;stroke:#000000;stroke-width:0.242"/><path d="m 229.61226,253.85134 -0.0601,0.50578 -1.23964,0.24963 0.68861,0.97018 -0.0256,1.11695 -0.93159,1.23903 0.79957,1.69025 0.91017,-0.13818 0.47432,-1.53997 -0.65486,-0.75043 -0.10659,-1.61656 2.62982,-0.86903 -0.29246,-1.00854 0.7404,-0.67578 0.75795,1.5044 1.48104,0.0348 1.37201,1.1922 0.0827,0.70689 1.89632,0.0189 2.25604,-0.21937 1.20951,0.95578 1.61487,0.26365 1.18471,-0.66646 0.0243,-0.53761 2.61602,-0.12874 2.53085,-0.0296 -1.79347,0.63041 0.7214,1.00721 1.68892,0.1602 1.60119,1.04798 0.33638,1.70525 1.10074,-0.0482 0.8274,0.50154 -1.67319,1.24849 -0.18464,0.77427 0.72297,0.78772 -0.52442,0.39748 -1.29942,0.34037 0.042,0.97925 -0.57208,0.58334 1.42913,1.60737 0.27963,0.59738 -0.77234,0.80767 -2.36217,0.79219 -1.51855,0.32803 -0.60972,0.49997 -1.67911,-0.52853 -1.56369,-0.27079 -0.39566,0.19493 0.94524,0.54812 -0.0851,1.41754 0.29318,1.33098 1.78898,0.1815 0.11423,0.44419 -1.50851,0.60113 -0.24538,0.89456 -0.86951,0.34677 -1.57059,0.49308 -0.40885,0.64626 -1.64197,0.13686 -1.16257,-1.11708 -0.64408,-2.10661 -0.56132,-0.73893 -0.76617,-0.46575 1.07013,-1.0522 -0.0727,-0.47324 -0.60016,-0.62847 -0.42496,-1.40554 0.16541,-1.51807 0.47141,-0.71122 0.38031,-1.14115 -0.74693,-0.36422 -1.20383,0.24163 -1.52097,-0.11338 -0.85354,0.22665 -1.48637,-1.82494 -1.22681,-0.27031 -2.71573,0.20412 -0.50311,-0.74027 -0.5197,-0.17701 -0.0743,-0.44324 0.25083,-0.78625 -0.16685,-0.85608 -0.46586,-0.46791 -0.27067,-0.97828 -1.09046,-0.14266 0.58588,-1.24581 0.25834,-1.52194 0.61359,-0.79364 0.8176,-0.61275 0.53567,-1.06928 1.35653,-0.35876" style="fill:#e6e6e6;stroke:#000000;stroke-width:0.242"/></g></svg>