<svg xmlns="http://www.w3.org/2000/svg" viewBox="0 0 640 480"><g style="display:none"><text x="0" y="0" fill="#000" style="white-space: pre;">Projection: MILLER Fi0: 90 Lambda0: 0 FiMin: -90 FiMax: 90 LambdaMin: -180 LambdaMax: 180 Scale: 100</text></g><g transform="matrix(1, 0, 0, 1, 39.995529, 13.816638)"><g transform="matrix(0.841868, 0, 0, 0.841868, -40.138676, -191.297302)"><path d="m 254.44654,500.7464 -0.62024,2.47542 -0.62073,2.22023 -4.42582,-0.67869 -4.71512,0.29027 -2.64736,-1.64028 0,-0.19153 -1.15798,-1.4324 4.75651,0.18985 4.54997,0.47686 1.57166,-1.99311 1.11696,-1.68977 2.19215,1.97315" style="fill:#e6e6e6;stroke:#000000;stroke-width:0.242"/><path d="m 44.030206,498.1472 -4.0535,0.6523 -2.771142,-1.67317 -1.240976,-1.65686 -0.08277,-0.27468 -1.36488,-1.27533 0,0 1.282116,-1.71639 3.929475,0.72105 2.109514,1.44945 1.613051,1.64609 0.579106,2.12754" style="fill:#e6e6e6;stroke:#000000;stroke-width:0.242"/><path d="m 284.89365,491.39697 2.60598,1.97859 0.91004,2.82849 0.24818,2.03571 0.0825,2.43865 -3.2675,1.51818 -3.43313,1.24423 -3.97073,1.15616 -4.42582,0.96957 -5.0048,-0.29113 -2.77139,-1.64293 0.37232,-2.00703 4.50858,-1.32459 1.81997,-1.59478 1.3235,-2.04175 0.95141,-1.74373 1.28212,-1.63508 1.365,-1.88892 0,0 1.07545,3.6e-4 3.14346,-0.9812 3.18484,0.9812" style="fill:#e6e6e6;stroke:#000000;stroke-width:0.242"/><path d="m 124.27341,471.80416 2.72976,0.63997 2.52333,-0.71983 -1.19959,1.44306 -1.98537,1.04955 -2.93666,-0.32332 -2.10952,-1.44909 0,0 0.45508,-1.35798 2.52297,0.71764" style="fill:#e6e6e6;stroke:#000000;stroke-width:0.242"/><path d="m 115.09097,471.7243 3.22622,1.60422 -1.24098,-0.16116 -2.72988,-0.4021 -2.89517,-1.12081 0,0 1.53017,-0.87605 2.10964,0.9559" style="fill:#e6e6e6;stroke:#000000;stroke-width:0.242"/><path d="m 171.21984,465.52523 2.3163,0.54075 2.31619,-0.46319 1.24097,2.25121 -1.65468,-0.31193 -2.56435,0.15572 -2.60585,-0.15572 -2.85415,0.23388 -2.15066,-0.7791 -1.11683,-1.6254 0,0 1.3235,-0.69237 2.68862,0.53833 3.06094,0.30782" style="fill:#e6e6e6;stroke:#000000;stroke-width:0.242"/><path d="m 235.69493,461.71882 0.24818,1.74505 -0.37233,1.53126 -0.5791,1.46689 -2.48183,0.54352 -2.35757,0.77913 -2.77126,-0.0777 1.03395,-1.55485 -2.48159,0.54256 -2.35769,0.54438 -1.61317,-1.16402 -0.12402,-1.61705 2.3163,-1.52714 0,0 1.44764,-0.4552 2.44045,0.15174 0.62025,-1.96238 0.12414,-1.42067 -0.0414,-3.02838 1.1996,-1.74991 1.94399,-0.57971 1.11694,1.37953 0.49622,1.3898 0.91005,1.69691 0.70325,1.63834 0.57898,1.72788" style="fill:#e6e6e6;stroke:#000000;stroke-width:0.242"/><path d="m 256.46966,437.20555 -0.91016,0.72963 -1.57167,-0.53119 -1.73719,0.33178 -1.44765,0.79835 -1.53053,0.86891 -1.03418,1.0072 -0.28956,1.35133 0.12427,1.29253 0.99256,1.16401 -1.44765,0.82631 -1.98536,0.27587 -1.15821,1.17843 -1.24086,1.1155 -1.32349,1.54493 -0.33094,1.34467 0.74463,1.49713 1.11672,1.14938 1.73719,0.86649 1.61305,1.16207 0.86866,1.4623 0.45508,1.40033 0.62049,1.48624 0.99256,1.27255 0.62037,1.43253 0.28955,3.59491 0.62049,1.47377 0.16541,1.56453 0.66175,1.57844 -0.28944,2.15321 -1.15821,1.69315 -1.24085,1.38279 -2.81265,0.57269 -0.9513,1.48092 -1.28212,1.41013 -3.18508,1.58981 -2.81265,0.67398 -2.64711,0.93085 -2.85403,0.93557 -1.69581,1.80073 -3.39175,0.17242 -3.72257,-0.17242 -3.35049,0.34521 -3.55715,0 0.66187,1.73599 3.22622,0.78674 2.35768,1.23118 1.32374,1.59635 -2.35768,1.43155 -3.64005,-0.44831 -3.01955,1.16887 -0.12415,1.9055 -0.0825,1.83496 2.48183,1.5753 0.45485,1.77846 2.68862,1.79734 4.46695,0.76278 3.80558,1.34273 3.0193,1.54844 3.84695,1.56247 5.25286,0.78699 5.17045,1.38569 3.59854,1.49762 3.92936,1.71445 2.06813,2.45 1.03394,1.9659 2.56459,-1.86303 3.4744,-1.53659 3.68119,-1.62394 4.38467,-1.30728 3.76383,-1.39659 5.25309,-0.0993 5.17021,0.69623 4.26017,1.20105 1.36512,-2.19495 2.93679,-1.47982 5.33574,-0.0982 4.17752,-1.07678 3.97086,-1.06928 4.38443,-0.67723 4.67399,-0.86624 3.2676,-1.24412 -1.48901,-1.70707 -0.91005,-1.68989 0,-1.76563 -4.09488,0.18501 -4.34306,0.74173 -4.13625,0 -0.579,-1.75644 0.28956,-3.4606 0.95131,-0.98844 3.0193,-1.07231 3.55729,-1.06468 2.56435,-1.32276 2.56459,-1.31224 1.9026,-1.73431 2.89529,-0.77488 2.85427,-0.6004 1.44765,-0.3417 3.26748,-0.17074 3.10232,-0.59653 2.60573,-0.84821 2.56448,-1.01289 2.31642,-1.00659 2.93655,-1.33319 1.86134,-1.40601 1.98537,-1.23082 0.62049,-1.62793 -2.23353,-0.96934 0.7445,-1.68407 1.40626,-1.27268 2.19228,-0.79037 2.31631,-0.94393 2.15089,-1.25149 1.65444,-1.55122 1.03418,-1.84441 1.53017,-1.06758 2.52333,0.22821 1.03395,1.29832 2.52321,0.15343 0.0825,-1.45175 1.07557,-1.51565 2.27492,0.37788 0.53772,1.44256 2.52298,0.22894 2.73,-0.68546 2.64724,-0.45618 2.39906,0.22773 0.90993,1.60192 2.31629,-1.29785 2.1509,-0.68305 2.39883,-0.52985 2.35792,-0.5283 2.15066,-0.90169 2.35768,-0.59846 1.81997,-0.82027 1.28235,-1.33401 1.57167,0.96231 2.19203,-0.51897 1.53054,1.78523 1.19947,1.35049 2.39907,-0.7513 0.95142,-1.49375 2.15089,-1.03829 2.77115,0.22168 0.8274,1.41242 1.73707,-1.41242 2.27505,-0.44348 2.4817,-0.14773 2.23367,0.0738 2.35743,0.44334 2.27505,0.22227 0.99268,1.26421 1.365,1.12312 2.31631,-0.67469 2.48182,-0.14968 2.39883,0 2.35768,-0.0743 2.10952,-0.52248 2.23354,-0.44661 1.86134,-1.03769 1.98537,-0.66368 2.1509,-0.36797 1.61329,-1.02572 1.15797,-2.03497 1.19947,-1.22404 2.19228,0.57499 0.82728,1.30088 1.81996,0.87216 2.19204,-0.29136 1.48914,1.31429 1.57179,0.9553 2.1509,-0.88161 0.74451,-1.60615 1.90273,-0.65268 2.19216,-1.22681 2.06813,-0.503 2.48183,-0.71584 1.65443,-0.78419 1.7372,-0.85221 1.65443,-0.77742 1.98537,0.42386 1.90272,-1.26821 1.36488,-0.98082 1.98561,0.0699 1.7372,-0.83647 0.41346,-1.24812 1.77858,-0.96533 1.73719,-0.6862 2.10951,-0.54752 1.94423,-0.2731 1.86111,0.20486 1.98537,0.34182 1.69605,0.96014 0.20679,1.51879 1.86134,1.18205 1.28212,0.97925 2.52321,0.42096 1.40626,0.98675 1.7372,0.9916 2.02675,0.2132 1.69581,-0.70991 1.82009,-1.48164 1.98525,0.77451 2.06813,0.424 1.98561,0.42495 2.06789,0.28387 2.10951,0 1.7372,3.80133 -0.0825,0.94476 -0.24842,1.68275 -2.02651,0.95808 -1.65479,1.40978 0.28967,1.49567 2.35769,-0.0755 -0.28956,1.50791 -1.07532,1.44375 -0.99281,1.60932 1.6133,1.23588 2.4402,0.38818 2.44046,-0.69805 1.1582,-1.54094 0.70326,-1.45175 1.15784,-1.21341 1.32374,-1.13025 0.53773,-1.34757 1.11695,-1.85432 1.3235,-0.36882 2.39906,-0.14725 2.10952,-0.44116 2.15065,-0.58625 1.03395,-1.45806 0.62073,-1.37479 1.44764,-1.36391 2.06789,-0.92771 1.77871,-0.71063 1.15833,-1.20166 1.19947,-0.63283 1.53029,-0.56108 2.10951,0.35041 1.9026,-0.35041 2.06814,-0.41975 2.31642,0.20969 1.53028,-0.97634 1.07558,-2.35103 0.78577,0.96473 0.99256,1.66484 1.77858,0.6978 2.02699,0.28 2.02675,-0.41987 2.15066,0.27988 1.98536,0.0701 1.32374,-0.34992 1.77859,0.20993 1.61328,0.77125 1.9025,-0.49114 2.27491,0 1.94411,-0.49004 2.19216,0.49004 1.4065,-1.18772 1.07532,-1.17976 1.44765,-0.96606 2.64724,-2.59787 1.36488,0.476 1.61329,0.95531 1.40627,1.23541 2.68862,2.14665 2.06801,0.0701 1.94398,0 2.27492,-0.4177 2.27492,-0.48616 1.73745,-0.96812 1.44763,-1.03189 2.35769,-0.13758 1.5718,-0.75249 1.65442,0.68424 1.07534,1.09977 1.48913,1.10607 2.31619,-0.13868 1.44765,0.9028 2.52333,0.90762 2.64699,0.35017 2.19228,-0.28023 1.65443,-1.11635 1.40651,-1.10982 1.90248,-0.27649 1.90285,0.48413 2.19191,0.3463 1.98549,-0.55394 1.90285,0 1.86134,0.34581 1.94399,0.34692 1.90272,-0.62388 2.27492,-0.55248 2.15066,-0.13795 2.39906,0 1.94423,-0.34448 1.90248,-0.2748 0.57912,-1.71008 0.0827,-1.42466 1.32349,0.94853 0.37233,1.56875 0.70301,1.44366 0.86866,1.17684 1.77882,0.62617 2.39882,-0.20896 2.77114,-0.0696 1.90284,-0.20873 2.77139,0 1.98525,-0.0694 2.77138,0.13902 2.35757,0.27796 1.48927,1.11754 -0.41383,1.33549 1.36513,1.06105 2.27492,0.85353 2.35744,0.92867 2.73,0.64554 2.85391,0.57608 2.1509,0.57752 2.39906,0.0727 1.36512,-1.22632 1.86123,1.00889 1.61317,1.16027 1.86122,0.87471 2.5646,0.36578 2.44032,0.4396 1.03407,1.47378 2.39907,0.89032 1.61305,1.34322 2.35768,0.6004 2.44021,-0.0751 2.27516,0.22519 2.52297,-0.0752 2.5231,0.30105 2.3578,0.52805 2.19216,0.90895 2.19228,0.76047 1.48902,1.14697 -0.24829,1.54093 -1.11683,1.39865 -0.95106,1.80252 -0.74463,1.42369 -0.99281,1.67573 -2.77114,0.64264 -1.24098,1.45429 -2.73,0.89455 -0.95118,1.63895 -1.44764,1.57094 -1.53041,1.33391 -0.86891,1.7666 -0.5376,1.6139 -0.20678,1.9741 0.0414,1.64791 1.19959,1.75159 0.45508,1.68154 0.99269,1.60797 3.92935,0.6292 0.82728,1.9936 -3.80546,0.73096 -3.22622,1.00987 -4.01211,0.18428 -1.77858,2.69527 -0.37232,2.26295 -0.90993,1.81415 -1.11682,1.83351 2.81252,1.6577 1.07569,2.07092 1.81973,1.89607 2.56447,1.71493 2.93666,1.63096 3.18509,1.64669 4.83952,1.66326 1.0752,2.6332 6.08013,1.17188 0.40789,0.41794 1.57772,1.62649 5.83207,-1.40143 4.83928,1.72667 3.63835,1.33923 0,32.58252 0,0 -1.34941,-9.5e-4 -758.8455873,-0.10428 -0.019602,-35.6505 5.7423817,1.72546 0.245025,-0.19348 2.230272,-1.75148 0.2904,0.0607 0.247687,0.041 3.0567036,2.29429 2.673372,-2.29429 0.480491,-0.31097 6.204396,-0.96049 2.008842,1.27146 0.99208,0.6551 3.184961,1.84015 5.997608,1.42104 4.756509,1.76623 8.148382,1.33778 6.080129,-1.55908 8.97578,1.11199 5.087445,1.79552 5.58415,-1.68384 5.873582,-1.55594 0.454839,-2.6337 -8.313909,-0.21766 -6.824642,-1.29967 -1.77858,-2.14291 -5.666793,-1.16655 0.372318,-2.41323 0.785895,-2.17291 0.786015,-1.94171 -0.413699,-2.11991 -3.515897,-1.39816 -1.613172,-1.78074 -3.267483,-1.56757 5.128827,0.29283 4.880655,-0.77912 3.060937,1.6606 3.763947,-1.46603 3.474637,-1.83932 1.695815,-1.6283 -0.744634,-1.98997 -2.729761,-1.31345 -3.102319,-1.39622 -4.343052,-0.27794 -3.805329,-0.64674 -4.095124,-0.45993 -1.364759,-1.7384 -2.729882,-1.44982 -1.654553,-1.61644 -0.661628,-5.10716 1.033944,0.43438 1.902483,1.39767 3.474395,-0.43839 3.350731,-0.61092 1.737197,1.92825 3.350249,-0.44031 2.812766,-0.96449 2.646996,-1.21945 2.399066,-1.46919 3.184841,-0.42953 -0.08252,-1.62383 -0.744634,-1.60797 0.620367,-1.51057 2.730003,-0.7503 1.240975,1.42005 3.226102,-0.83671 2.440449,-1.08138 3.019435,-0.0829 2.854026,-0.41419 2.853906,-0.98942 2.275163,-0.90241 2.564353,-0.89759 1.654434,0.24455 1.447643,0.32597 3.143464,-0.57052 2.81288,0.73388 2.89529,-0.0817 2.77138,-0.57064 2.85392,0.40764 3.14345,0.40838 2.9368,-0.1637 3.06069,0.0818 3.14369,0.082 2.8954,-0.16371 2.15091,-1.22162 2.56435,-0.64833 2.64725,0.89202 2.52296,-0.7301 2.27516,-1.45103 1.36488,1.28911 0.74439,1.46169 1.36512,1.3921 2.19204,-1.22851 2.52333,1.55728 2.85391,0.49501 2.44045,1.16027 2.97817,-0.24927 2.68838,-0.74571 3.18508,0.16539 2.85391,0.58032 2.89541,0.74851 1.11672,-1.82468 -1.36488,-1.39694 -1.0342,-1.46713 -2.72975,-0.32451 -1.1996,-1.53261 -0.45508,-1.51951 -0.74439,-3.00032 1.61306,0.54898 2.77137,0.23548 2.73,-0.23548 2.48159,0.6292 2.1509,1.18618 0.91005,1.43396 2.85389,0.24018 2.72976,-0.55962 2.89565,-0.79678 2.60574,-0.47603 2.15077,0.95373 2.81277,-0.31872 1.81973,-3.07593 1.69581,1.80774 2.44068,0.71244 2.64725,-0.39614 1.73719,1.58969 2.77115,0.15984 2.56459,0.47989 2.5231,0.88391 1.65454,-1.52364 0.82703,-1.43131 2.10953,1.59115 2.89529,-0.39918 2.15102,0.87907 1.44764,1.36755 2.81275,-0.40307 2.19204,-0.88426 2.15102,-1.03903 2.56436,-0.55684 2.97818,-0.47662 2.68861,-0.55345 2.06813,-0.8666 1.24062,-1.2537 0.49657,-1.70899 -0.24817,-1.61631 -0.66187,-1.52593 -0.74464,-1.51313 -0.66162,-1.50014 -0.53784,-1.34033 -0.12403,-1.47739 0.2068,-1.46567 0.9928,-1.38147 0.82715,-1.51504 0.33095,-1.43143 -0.41371,-1.56162 -0.24816,-1.40906 1.03417,-1.60662 1.15799,-1.04097 1.365,-1.30972 1.44775,-1.09649 1.69582,-1.02184 0.82741,-1.48903 1.15783,-0.9415 1.32374,-0.87047 2.02675,-0.20002 1.32375,-1.0648 1.48879,-0.66223 1.73718,-0.3964 1.53053,-0.85632 1.19948,-1.04833 1.65467,-0.39143 1.24074,0.84952 -0.78589,1.11671 -2.15066,0.991" style="fill:#e6e6e6;stroke:#000000;stroke-width:0.242"/></g></g></svg>