<svg xmlns="http://www.w3.org/2000/svg" viewBox="0 0 640 480"><g style="display:none"><text x="0" y="0" fill="#000" style="white-space: pre;">Projection: MILLER Fi0: 90 Lambda0: 0 FiMin: -90 FiMax: 90 LambdaMin: -180 LambdaMax: 180 Scale: 100</text></g><g transform="matrix(1.921475, 0, 0, 1.921475, -477.399139, -93.299057)"><path d="M 330.667 197.805 L 332.821 198.715 L 334.413 198.396 L 334.854 197.306 L 336.521 196.943 L 337.711 196.209 L 338.133 194.271 L 339.913 193.801 L 340.244 192.933 L 341.24 193.585 L 341.876 193.661 L 343.053 193.677 L 344.646 194.191 L 345.291 194.487 L 346.819 193.706 L 347.531 194.176 L 348.212 193.06 L 349.475 193.111 L 349.8 192.752 L 350.023 191.765 L 350.932 190.911 L 352.075 191.47 L 351.846 192.219 L 352.485 192.335 L 352.288 194.384 L 353.124 195.178 L 353.86 194.669 L 354.797 194.427 L 356.113 193.338 L 357.567 193.517 L 359.745 193.52 L 360.121 194.219 L 358.892 194.492 L 357.818 194.94 L 355.395 195.222 L 353.127 195.73 L 351.894 196.782 L 352.394 197.802 L 352.635 198.996 L 351.583 200 L 351.671 200.916 L 351.09 201.772 L 349.081 201.698 L 349.912 203.265 L 348.567 203.863 L 347.671 205.284 L 347.788 206.692 L 346.962 207.349 L 346.181 207.132 L 344.567 207.437 L 344.336 208.089 L 342.764 208.086 L 341.587 209.403 L 341.513 211.374 L 338.768 212.333 L 337.297 212.131 L 336.87 212.636 L 335.607 212.342 L 333.495 212.687 L 329.956 211.51 L 331.871 209.41 L 331.698 207.912 L 330.099 207.519 L 329.934 206.034 L 329.242 204.157 L 330.145 202.863 L 329.226 202.514 L 329.806 200.786 L 330.667 197.805" style="fill:#e6e6e6;stroke:#000000;stroke-width:0.242"/><path d="M 310.327 224.199 L 310.703 224.09 L 310.781 224.704 L 312.434 224.351 L 314.18 224.41 L 315.456 224.476 L 316.902 222.961 L 318.478 221.519 L 319.812 220.128 L 320.214 220.898 L 320.5 222.676 L 319.422 222.685 L 319.249 224.145 L 319.623 224.457 L 318.667 224.897 L 318.662 225.81 L 318.047 226.732 L 317.991 227.628 L 317.566 228.098 L 311.217 226.977 L 310.409 224.717 L 310.328 224.199" style="fill:#e6e6e6;stroke:#000000;stroke-width:0.242"/><path d="M 293.439 184.434 L 296.374 184.041 L 296.811 184.702 L 297.615 185.136 L 297.191 185.765 L 298.316 186.622 L 297.72 187.415 L 298.617 188.091 L 299.565 188.497 L 299.612 190.212 L 298.847 190.284 L 297.985 188.856 L 297.995 188.473 L 297.062 188.479 L 296.436 187.814 L 295.997 187.881 L 295.165 187.154 L 293.595 186.535 L 293.798 185.318 L 293.439 184.434" style="fill:#e6e6e6;stroke:#000000;stroke-width:0.242"/><path d="M 296.436 187.813 L 297.062 188.479 L 297.995 188.473 L 297.985 188.855 L 298.847 190.284 L 297.398 189.956 L 296.332 188.815 L 295.997 187.88 L 296.436 187.813" style="fill:#e6e6e6;stroke:#000000;stroke-width:0.242"/><path d="M 301.444 184.113 L 302.378 184.284 L 302.741 183.644 L 304.002 182.625 L 305.112 183.955 L 306.186 185.736 L 307.17 185.853 L 307.821 186.527 L 306.082 186.727 L 305.714 188.658 L 305.351 189.524 L 304.576 190.101 L 304.633 191.319 L 304.107 191.442 L 302.79 190.154 L 303.518 188.932 L 302.895 188.205 L 302.103 188.388 L 299.612 190.212 L 299.565 188.497 L 298.617 188.091 L 297.72 187.415 L 298.316 186.622 L 297.191 185.765 L 297.615 185.136 L 296.811 184.702 L 296.374 184.041 L 296.891 183.629 L 298.465 184.354 L 299.603 184.503 L 299.891 184.208 L 298.851 182.843 L 299.399 182.494 L 299.993 182.579 L 301.444 184.112" style="fill:#e6e6e6;stroke:#000000;stroke-width:0.242"/><path d="M 397.11 229.108 L 397.066 230.695 L 396.329 230.36 L 396.467 232.136 L 395.864 230.986 L 395.742 229.86 L 395.34 228.794 L 394.458 227.502 L 392.513 227.413 L 392.705 228.329 L 392.042 229.562 L 391.143 229.113 L 390.836 229.516 L 390.238 229.275 L 389.421 229.076 L 389.092 227.248 L 388.36 225.573 L 388.72 224.225 L 387.42 223.625 L 387.888 222.807 L 389.209 221.97 L 387.684 220.777 L 388.43 219.243 L 390.103 220.221 L 391.111 220.332 L 391.298 221.9 L 393.307 222.208 L 395.266 222.175 L 396.483 222.559 L 395.51 224.457 L 394.565 224.586 L 393.913 225.857 L 395.069 227.012 L 395.414 225.588 L 395.997 225.58 L 397.11 229.108" style="fill:#e6e6e6;stroke:#000000;stroke-width:0.242"/><path d="M 442.58 266.844 L 443.417 266.053 L 445.213 264.893 L 445.118 265.936 L 444.995 267.287 L 443.986 267.22 L 443.543 267.941 L 442.58 266.845" style="fill:#e6e6e6;stroke:#000000;stroke-width:0.242"/><path d="M 395.048 216.232 L 395.908 216.959 L 395.76 218.355 L 394.036 218.423 L 392.254 218.27 L 390.926 218.625 L 389.006 217.763 L 388.961 217.308 L 390.358 215.613 L 391.499 215.033 L 393.008 215.562 L 394.124 215.618 L 395.048 216.232" style="fill:#e6e6e6;stroke:#000000;stroke-width:0.242"/><path d="M 434.418 236.508 L 432.594 237.558 L 430.862 236.881 L 430.801 234.999 L 431.842 234.005 L 434.149 233.389 L 435.363 233.442 L 435.835 234.28 L 434.907 235.244 L 434.418 236.508" style="fill:#e6e6e6;stroke:#000000;stroke-width:0.242"/><path d="M 470.992 161.679 L 474.667 162.556 L 477.169 164.495 L 478.024 167.035 L 481.233 167.037 L 483.064 165.974 L 486.554 165.176 L 485.444 167.602 L 484.624 168.582 L 483.9 171.491 L 482.48 174.047 L 479.917 173.584 L 478.104 174.507 L 478.66 176.733 L 478.357 179.772 L 477.278 179.841 L 477.291 181.137 L 475.927 179.63 L 475.087 181.061 L 471.826 182.155 L 472.156 183.489 L 470.33 183.397 L 469.327 182.605 L 467.876 184.394 L 465.549 185.743 L 463.829 187.343 L 460.877 188.066 L 459.322 189.224 L 457.048 189.898 L 458.17 188.753 L 457.728 187.787 L 459.4 186.112 L 458.285 184.799 L 456.444 185.684 L 454.06 187.419 L 452.759 189.021 L 450.687 189.14 L 449.61 190.292 L 450.723 191.953 L 452.451 192.355 L 452.522 193.451 L 454.193 194.162 L 456.56 192.421 L 458.435 193.371 L 459.8 193.436 L 460.142 194.711 L 457.153 195.388 L 456.166 196.693 L 454.112 197.901 L 453.028 199.578 L 455.301 200.889 L 456.131 203.222 L 457.416 205.382 L 458.85 207.181 L 458.816 208.913 L 457.491 209.547 L 457.996 210.784 L 459.239 211.501 L 458.914 213.377 L 458.378 215.194 L 457.198 215.4 L 455.656 217.867 L 453.945 220.838 L 451.984 223.522 L 449.08 225.586 L 446.142 227.461 L 443.763 227.717 L 442.472 228.703 L 441.742 227.983 L 440.547 229.085 L 437.596 230.194 L 435.361 230.533 L 434.64 232.861 L 433.47 232.99 L 432.916 231.392 L 433.416 230.537 L 430.583 229.83 L 429.585 230.19 L 427.458 229.615 L 426.453 228.715 L 426.787 227.436 L 424.856 227.03 L 423.838 226.194 L 422.038 227.381 L 419.985 227.637 L 418.3 227.626 L 417.167 228.168 L 416.072 228.493 L 416.392 231.025 L 415.266 230.964 L 415.076 230.446 L 415.012 229.531 L 413.463 230.175 L 412.549 229.768 L 410.981 228.937 L 411.595 227.092 L 410.258 226.661 L 409.755 224.606 L 407.525 224.977 L 407.778 222.318 L 409.779 220.436 L 409.864 218.57 L 409.802 216.83 L 408.88 216.287 L 408.174 214.942 L 406.939 215.112 L 404.662 214.77 L 405.375 213.807 L 404.385 212.377 L 402.879 213.346 L 401.108 212.781 L 398.674 214.244 L 396.752 215.945 L 395.048 216.231 L 394.124 215.617 L 393.008 215.561 L 391.499 215.032 L 390.358 215.612 L 388.961 217.307 L 388.784 215.511 L 387.496 215.991 L 385.034 215.768 L 382.645 215.244 L 380.931 214.239 L 379.29 213.786 L 378.581 212.682 L 377.394 212.352 L 375.262 210.847 L 373.569 210.136 L 372.694 210.69 L 369.758 209.068 L 367.684 207.593 L 367.091 205.01 L 368.607 205.326 L 368.676 204.125 L 367.836 202.916 L 368.05 200.98 L 365.78 198.179 L 362.307 197.206 L 361.682 195.35 L 360.121 194.219 L 359.745 193.52 L 359.429 192.128 L 359.502 191.175 L 358.22 190.615 L 357.526 190.863 L 356.99 188.578 L 357.591 188.011 L 357.3 187.429 L 359.316 186.252 L 360.776 185.762 L 363.011 186.098 L 363.81 184.497 L 366.518 184.198 L 367.271 183.198 L 370.599 181.826 L 370.896 181.251 L 370.727 179.797 L 372.176 179.131 L 370.275 174.639 L 374.459 173.595 L 375.54 173.011 L 377.064 168.267 L 381.253 169.146 L 382.428 167.938 L 382.528 165.237 L 384.282 164.984 L 385.89 163.172 L 386.716 162.947 L 387.271 164.848 L 389.046 166.282 L 392.058 167.293 L 393.515 169.447 L 392.702 172.538 L 393.462 173.676 L 395.972 174.123 L 398.816 174.488 L 401.368 176.109 L 402.673 176.397 L 403.635 178.774 L 404.874 180.294 L 407.202 180.235 L 411.561 180.807 L 414.37 180.452 L 416.455 180.832 L 419.579 182.375 L 422.134 182.373 L 423.069 183.159 L 425.528 181.8 L 428.94 180.917 L 432.105 180.82 L 434.573 179.922 L 436.088 178.55 L 437.566 177.684 L 437.224 176.832 L 436.55 175.836 L 437.658 174.157 L 438.847 174.393 L 441.018 174.922 L 443.122 173.535 L 446.342 172.518 L 447.89 170.774 L 449.376 170.019 L 452.443 169.667 L 454.11 169.966 L 454.341 169.02 L 452.427 167.149 L 450.732 166.289 L 449.109 167.282 L 447.026 166.863 L 445.83 167.204 L 445.286 166.103 L 446.778 163.392 L 447.807 161.325 L 450.342 162.362 L 453.318 160.623 L 453.299 159.405 L 455.205 156.442 L 456.38 155.539 L 456.353 153.975 L 455.195 153.299 L 456.939 151.876 L 459.563 151.358 L 462.363 151.28 L 465.524 152.135 L 467.378 153.188 L 468.684 156.046 L 469.475 157.255 L 470.211 158.969 L 470.992 161.678" style="fill:#e6e6e6;stroke:#000000;stroke-width:0.242"/><path d="M 270.523 199.028 L 270.673 199.015 L 270.978 198.437 L 272.499 198.469 L 274.419 197.753 L 272.992 198.775 L 273.146 199.223 L 272.92 199.139 L 272.516 199.321 L 272.2 199.271 L 272.095 199.363 L 272.053 199.121 L 271.9 198.974 L 271.493 198.949 L 270.92 199.153 L 270.523 199.028" style="fill:#e6e6e6;stroke:#000000;stroke-width:0.242"/><path d="M 273.146 199.223 L 273.212 199.416 L 271.047 200.386 L 270.013 200.076 L 269.52 199.116 L 270.524 199.028 L 270.92 199.153 L 271.493 198.949 L 271.9 198.974 L 272.053 199.121 L 272.095 199.363 L 272.2 199.271 L 272.516 199.321 L 272.92 199.139 L 273.146 199.223" style="fill:#e6e6e6;stroke:#000000;stroke-width:0.242"/><path d="M 289.155 183.316 L 289.47 182.235 L 288.942 180.501 L 287.722 179.559 L 286.552 179.264 L 285.778 178.478 L 286.035 178.174 L 287.82 178.614 L 290.929 179.029 L 293.805 180.256 L 294.175 180.73 L 295.456 180.33 L 297.425 180.863 L 298.072 181.907 L 299.399 182.494 L 298.851 182.843 L 299.891 184.208 L 299.603 184.503 L 298.465 184.354 L 296.891 183.629 L 296.374 184.041 L 293.439 184.434 L 291.405 183.196 L 289.155 183.316" style="fill:#e6e6e6;stroke:#000000;stroke-width:0.242"/><path d="M 456.332 298.107 L 455.444 298.148 L 452.641 296.654 L 454.61 296.235 L 455.72 296.884 L 456.458 297.532 L 456.332 298.107" style="fill:#e6e6e6;stroke:#000000;stroke-width:0.242"/><path d="M 464.189 297.895 L 462.381 298.364 L 462.128 298.108 L 462.318 297.383 L 463.226 296.083 L 465.314 295.238 L 465.528 295.657 L 465.567 296.303 L 464.189 297.895" style="fill:#e6e6e6;stroke:#000000;stroke-width:0.242"/><path d="M 450.386 293.542 L 451.147 294.109 L 452.452 293.936 L 452.976 294.84 L 450.534 295.267 L 449.072 295.553 L 447.936 295.536 L 448.662 294.311 L 449.82 294.294 L 450.386 293.542" style="fill:#e6e6e6;stroke:#000000;stroke-width:0.242"/><path d="M 460.952 293.539 L 460.643 294.72 L 457.47 295.325 L 454.661 295.062 L 454.653 294.285 L 456.33 293.843 L 457.653 294.48 L 459.059 294.318 L 460.952 293.539" style="fill:#e6e6e6;stroke:#000000;stroke-width:0.242"/><path d="M 430.795 290.744 L 434.841 290.955 L 435.306 290.081 L 439.224 291.101 L 439.993 292.477 L 443.161 292.864 L 445.751 294.127 L 443.342 294.937 L 441.019 294.081 L 439.108 294.139 L 436.917 293.981 L 434.94 293.599 L 432.494 292.788 L 430.943 292.577 L 430.065 292.843 L 426.214 291.969 L 425.847 291.056 L 423.915 290.9 L 425.364 288.874 L 427.926 288.999 L 429.631 289.828 L 430.507 289.989 L 430.795 290.744" style="fill:#e6e6e6;stroke:#000000;stroke-width:0.242"/><path d="M 485.917 289.549 L 484.83 290.993 L 484.625 289.397 L 485 288.635 L 485.442 287.919 L 485.922 288.539 L 485.918 289.549" style="fill:#e6e6e6;stroke:#000000;stroke-width:0.242"/><path d="M 470.13 283.717 L 469.339 284.419 L 467.88 284.03 L 467.469 283.121 L 469.605 283.02 L 470.13 283.717" style="fill:#e6e6e6;stroke:#000000;stroke-width:0.242"/><path d="M 476.934 282.945 L 477.702 284.561 L 475.919 283.69 L 474.155 283.513 L 472.963 283.652 L 471.502 283.578 L 472.002 282.416 L 474.611 282.328 L 476.934 282.944" style="fill:#e6e6e6;stroke:#000000;stroke-width:0.242"/><path d="M 484.689 278.842 L 485.279 282.258 L 487.465 283.524 L 489.23 281.282 L 491.653 280.007 L 493.53 280.006 L 495.336 280.742 L 496.903 281.498 L 499.17 281.902 L 499.206 288.797 L 499.241 295.717 L 497.361 293.971 L 495.216 293.543 L 494.696 294.149 L 492.02 294.215 L 492.917 292.485 L 494.246 291.896 L 493.695 289.589 L 492.681 287.81 L 488.588 286.017 L 486.846 285.841 L 483.675 283.886 L 483.051 284.914 L 482.241 285.1 L 481.761 284.325 L 481.756 283.406 L 480.143 282.368 L 482.417 281.606 L 483.923 281.647 L 483.747 281.087 L 480.655 281.084 L 479.819 279.826 L 477.932 279.436 L 477.038 278.391 L 479.885 277.879 L 480.967 277.191 L 484.357 278.058 L 484.691 278.843" style="fill:#e6e6e6;stroke:#000000;stroke-width:0.242"/><path d="M 465.888 273.41 L 464.191 275.505 L 462.604 275.911 L 460.571 275.498 L 457.052 275.604 L 455.207 275.908 L 454.907 277.506 L 456.797 279.384 L 457.937 278.428 L 461.876 277.709 L 461.702 278.682 L 460.782 278.375 L 459.865 279.613 L 458.006 280.431 L 460.004 283.14 L 459.619 283.866 L 461.517 286.307 L 461.499 287.698 L 460.372 288.321 L 459.544 287.576 L 460.564 285.843 L 458.491 286.662 L 457.966 286.076 L 458.24 285.259 L 456.718 284.019 L 456.874 281.959 L 455.466 282.602 L 455.644 285.067 L 455.73 288.095 L 454.391 288.403 L 453.484 287.781 L 454.089 285.833 L 453.762 283.791 L 452.874 283.776 L 452.218 282.328 L 453.091 280.944 L 453.392 279.266 L 454.453 276.083 L 454.896 275.212 L 456.691 273.644 L 458.341 274.268 L 461.003 274.56 L 463.432 274.472 L 465.519 272.938 L 465.888 273.41" style="fill:#e6e6e6;stroke:#000000;stroke-width:0.242"/><path d="M 470.447 276.257 L 470.13 274.536 L 467 274.729 L 466.076 273.531 L 468.577 272.491 L 466.877 272.255 L 464.428 273.502 L 462.626 276.019 L 463.846 277.593 L 465.86 278.31 L 466.296 277.234 L 469.879 277.061 L 470.447 276.257" style="fill: rgb(230, 230, 230); stroke: rgb(0, 0, 0); stroke-width: 0.242; transform-box: fill-box; transform-origin: 50% 50%;" transform="matrix(-1, 0, 0, -1, 0.000021, 0.000021)"/><path d="M 450.334 272.549 L 452.702 274.503 L 450.2 274.753 L 449.495 276.192 L 449.587 278.106 L 447.556 279.551 L 447.501 281.655 L 446.686 284.887 L 446.375 284.135 L 443.976 285.087 L 443.139 283.794 L 441.634 283.675 L 440.581 282.997 L 438.07 283.758 L 437.299 282.734 L 435.916 282.851 L 434.175 282.607 L 433.852 279.773 L 432.798 279.186 L 431.784 277.379 L 431.49 275.532 L 431.736 273.575 L 432.991 272.171 L 433.344 273.583 L 434.788 274.776 L 436.15 274.346 L 437.498 274.499 L 438.729 273.431 L 439.742 273.246 L 441.739 273.838 L 443.462 273.387 L 444.544 270.449 L 445.358 269.714 L 446.089 267.308 L 448.517 267.309 L 450.348 267.666 L 449.147 269.576 L 450.699 271.577 L 450.334 272.549" style="fill:#e6e6e6;stroke:#000000;stroke-width:0.242"/><path d="M 424.87 288.782 L 422.531 288.826 L 420.753 287.056 L 418.041 285.327 L 417.137 284.045 L 415.538 282.323 L 414.49 280.739 L 412.884 277.782 L 411.029 276.022 L 410.408 274.206 L 409.63 272.557 L 407.726 271.227 L 406.622 269.419 L 405.032 268.234 L 402.829 265.903 L 402.643 264.825 L 404.003 264.91 L 407.272 265.32 L 409.14 267.389 L 410.773 268.824 L 411.938 269.703 L 413.938 271.975 L 416.085 272.008 L 417.86 273.455 L 419.081 275.223 L 420.69 276.188 L 419.843 277.912 L 421.054 278.646 L 421.812 278.7 L 422.17 280.173 L 422.906 281.352 L 424.457 281.539 L 425.484 282.877 L 424.954 285.507 L 424.87 288.782" style="fill:#e6e6e6;stroke:#000000;stroke-width:0.242"/><path d="M 365.78 198.18 L 368.05 200.981 L 367.836 202.917 L 368.676 204.125 L 368.607 205.327 L 367.091 205.011 L 367.683 207.594 L 369.758 209.069 L 372.694 210.691 L 371.353 211.739 L 370.533 213.891 L 372.579 214.759 L 374.57 215.881 L 377.325 217.159 L 380.22 217.454 L 381.438 218.61 L 383.069 218.826 L 385.61 219.354 L 387.369 219.316 L 387.611 218.419 L 387.333 216.974 L 387.496 215.992 L 388.784 215.512 L 388.961 217.308 L 389.006 217.763 L 390.926 218.625 L 392.254 218.271 L 394.036 218.423 L 395.76 218.355 L 395.908 216.959 L 395.048 216.232 L 396.751 215.946 L 398.674 214.245 L 401.108 212.782 L 402.879 213.347 L 404.385 212.378 L 405.375 213.808 L 404.662 214.771 L 406.939 215.113 L 407.098 215.979 L 406.358 216.397 L 406.531 217.798 L 405.022 217.387 L 402.288 218.956 L 402.352 220.25 L 401.186 222.141 L 401.08 223.236 L 400.138 225.082 L 398.487 224.573 L 398.405 226.882 L 397.928 227.64 L 398.151 228.582 L 397.109 229.109 L 395.997 225.581 L 395.414 225.589 L 395.069 227.013 L 393.913 225.858 L 394.565 224.587 L 395.509 224.458 L 396.483 222.56 L 395.266 222.176 L 393.307 222.209 L 391.298 221.901 L 391.111 220.333 L 390.103 220.222 L 388.43 219.244 L 387.684 220.778 L 389.209 221.971 L 387.888 222.808 L 387.42 223.626 L 388.719 224.226 L 388.36 225.573 L 389.092 227.249 L 389.421 229.077 L 389.118 229.886 L 387.682 229.858 L 385.078 230.317 L 385.2 231.977 L 384.072 233.28 L 381.033 234.757 L 378.669 237.331 L 377.082 238.706 L 374.977 240.13 L 374.974 241.129 L 373.922 241.663 L 372.02 242.439 L 371.033 242.554 L 370.4 244.203 L 370.84 247.007 L 370.952 248.79 L 370.057 250.828 L 370.047 254.46 L 368.954 254.563 L 367.992 256.19 L 368.635 256.892 L 366.71 257.495 L 365.999 258.942 L 365.151 259.553 L 363.151 257.567 L 362.174 254.583 L 361.364 252.428 L 360.624 251.417 L 359.502 249.358 L 358.978 246.67 L 358.613 245.324 L 356.692 242.356 L 355.817 238.145 L 355.185 235.35 L 355.193 232.69 L 354.784 230.625 L 351.71 231.946 L 350.222 231.682 L 347.463 229.003 L 348.479 228.201 L 347.855 227.329 L 345.378 225.437 L 346.784 223.945 L 351.432 223.951 L 351.012 222.024 L 349.826 220.881 L 349.585 219.142 L 348.203 218.123 L 350.53 215.736 L 352.983 215.91 L 355.192 213.509 L 356.516 211.17 L 358.566 208.844 L 358.533 207.182 L 360.334 205.828 L 358.63 204.667 L 357.896 203.071 L 357.148 200.992 L 358.183 199.964 L 361.387 200.546 L 363.74 200.192 L 365.78 198.18" style="fill:#e6e6e6;stroke:#000000;stroke-width:0.242"/><path d="M 315.273 194.06 L 317.129 193.589 L 318.631 192.192 L 320.043 192.263 L 320.97 191.807 L 322.472 192.033 L 324.807 193.272 L 326.494 193.538 L 328.907 195.689 L 330.482 195.776 L 330.667 197.805 L 329.806 200.786 L 329.226 202.514 L 330.145 202.863 L 329.242 204.157 L 329.934 206.034 L 330.099 207.519 L 331.698 207.912 L 331.871 209.41 L 329.956 211.51 L 331.001 212.722 L 331.852 214.11 L 333.87 215.117 L 333.929 217.127 L 334.939 217.495 L 335.114 218.541 L 332.068 219.711 L 331.272 222.331 L 327.299 221.651 L 324.996 221.134 L 322.613 220.841 L 321.713 218.065 L 320.702 217.663 L 319.079 218.069 L 316.949 219.166 L 314.368 218.414 L 312.236 216.667 L 310.203 216.017 L 308.793 213.846 L 307.234 210.773 L 306.098 211.148 L 304.755 210.381 L 303.967 211.284 L 302.798 210.068 L 302.778 208.831 L 302.103 208.831 L 302.449 207.142 L 301.363 205.362 L 298.775 204.072 L 297.312 201.823 L 297.802 199.965 L 298.864 199.14 L 298.705 197.739 L 297.32 197.017 L 295.952 194.129 L 294.797 192.174 L 295.21 191.415 L 294.551 188.587 L 295.997 187.88 L 296.332 188.816 L 297.399 189.957 L 298.847 190.284 L 299.612 190.212 L 302.103 188.388 L 302.895 188.205 L 303.518 188.932 L 302.79 190.154 L 304.107 191.442 L 304.633 191.32 L 305.301 193.124 L 307.303 193.632 L 308.77 194.852 L 311.773 195.27 L 315.071 194.628 L 315.273 194.06" style="fill:#e6e6e6;stroke:#000000;stroke-width:0.242"/><path d="M 297.32 197.017 L 298.705 197.739 L 298.864 199.14 L 297.802 199.965 L 297.312 201.823 L 298.775 204.072 L 301.363 205.361 L 302.449 207.142 L 302.103 208.831 L 302.777 208.831 L 302.798 210.067 L 303.967 211.284 L 302.714 211.171 L 301.295 210.978 L 299.745 213.192 L 295.818 213.008 L 289.864 208.354 L 286.717 206.719 L 284.174 206.085 L 283.322 203.218 L 287.998 200.749 L 288.796 197.857 L 288.596 196.097 L 289.752 195.499 L 290.835 193.984 L 291.742 193.606 L 294.198 193.92 L 294.94 194.539 L 295.952 194.129 L 297.32 197.017" style="fill:#e6e6e6;stroke:#000000;stroke-width:0.242"/><path d="M 276.834 204.797 L 276.466 205.538 L 275.702 205.213 L 275.26 206.774 L 275.791 207.037 L 275.251 207.358 L 275.16 207.973 L 276.153 207.656 L 276.202 208.563 L 275.15 212.266 L 273.762 208.285 L 274.377 207.517 L 274.233 207.385 L 274.791 206.291 L 275.219 204.519 L 275.522 203.922 L 275.58 203.898 L 276.287 203.902 L 276.481 203.488 L 277.048 203.457 L 277.08 204.423 L 276.794 204.781 L 276.834 204.797" style="fill:#e6e6e6;stroke:#000000;stroke-width:0.242"/><path d="M 276.466 205.538 L 276.834 204.797 L 279.187 205.728 L 283.322 203.218 L 284.174 206.085 L 283.771 206.438 L 279.542 207.611 L 281.647 209.938 L 280.948 210.331 L 280.601 211.106 L 278.989 211.426 L 278.484 212.257 L 277.571 212.966 L 275.221 212.599 L 275.15 212.266 L 276.202 208.563 L 276.153 207.656 L 276.465 206.971 L 276.466 205.538" style="fill:#e6e6e6;stroke:#000000;stroke-width:0.242"/><path d="M 485.735 201.392 L 486.005 202.206 L 484.816 203.638 L 483.949 202.879 L 482.867 203.429 L 482.306 204.808 L 480.93 204.137 L 480.947 203.017 L 482.115 201.603 L 483.316 201.878 L 484.184 200.879 L 485.735 201.392" style="fill:#e6e6e6;stroke:#000000;stroke-width:0.242"/><path d="M 499.12 194.198 L 498.324 196.132 L 498.692 197.341 L 497.593 199.033 L 494.894 200.157 L 491.182 200.304 L 488.173 203.015 L 486.754 202.104 L 486.666 200.327 L 482.993 200.853 L 480.494 201.972 L 478.022 202.017 L 480.163 203.758 L 478.754 207.747 L 477.388 208.727 L 476.366 207.822 L 476.885 205.713 L 475.548 205.03 L 474.69 203.413 L 476.686 202.685 L 477.794 201.193 L 479.918 199.961 L 481.467 198.325 L 485.671 197.608 L 487.929 198.1 L 490.139 193.801 L 491.547 194.962 L 494.645 192.526 L 495.846 191.575 L 497.173 188.56 L 496.811 185.76 L 497.703 184.175 L 499.949 183.712 L 501.1 187.187 L 501.037 189.199 L 499.084 191.678 L 499.12 194.198" style="fill:#e6e6e6;stroke:#000000;stroke-width:0.242"/><path d="M 505.315 176.572 L 506.8 177.123 L 508.294 176.026 L 508.764 178.922 L 505.631 179.624 L 503.781 182.153 L 500.461 180.415 L 499.312 183.192 L 496.963 183.23 L 496.672 180.708 L 497.717 178.739 L 499.973 178.597 L 500.589 175.019 L 501.213 172.981 L 503.695 175.699 L 505.315 176.572" style="fill:#e6e6e6;stroke:#000000;stroke-width:0.242"/><path d="M 351.26 181.465 L 350.05 181.935 L 347.264 183.698 L 346.34 185.496 L 345.553 185.512 L 344.975 184.323 L 342.289 184.242 L 341.859 182.173 L 340.83 182.155 L 340.988 179.6 L 338.46 177.724 L 334.838 177.925 L 332.361 178.3 L 330.345 175.971 L 328.617 174.988 L 325.343 173.116 L 324.949 172.888 L 319.512 174.435 L 319.595 183.889 L 318.512 184.011 L 317.034 182.03 L 315.606 181.318 L 313.209 181.847 L 312.276 182.69 L 312.158 182.072 L 312.677 181.013 L 312.274 180.125 L 309.826 179.253 L 308.874 176.942 L 307.707 176.287 L 307.637 175.441 L 309.691 175.688 L 309.773 173.782 L 311.569 173.356 L 313.413 173.748 L 313.794 171.181 L 313.417 169.541 L 311.304 169.67 L 309.509 169.02 L 307.064 170.19 L 305.093 170.746 L 304.02 170.317 L 304.235 168.948 L 302.889 167.159 L 301.322 167.234 L 299.529 165.405 L 300.748 163.345 L 300.131 162.788 L 301.816 159.762 L 303.988 161.364 L 304.251 159.345 L 308.61 156.305 L 311.909 156.232 L 316.564 158.173 L 319.065 159.299 L 321.306 158.124 L 324.654 158.068 L 327.355 159.51 L 327.968 158.685 L 330.934 158.805 L 331.464 157.484 L 328.041 155.551 L 330.068 154.172 L 329.673 153.396 L 331.7 152.654 L 330.176 150.687 L 331.144 149.7 L 339.046 148.69 L 340.078 147.97 L 345.362 146.889 L 347.261 145.668 L 351.056 146.304 L 351.721 149.332 L 353.926 148.625 L 356.638 149.616 L 356.463 151.192 L 358.489 151.028 L 363.781 148.293 L 363.009 149.205 L 365.703 151.437 L 370.422 158.623 L 371.547 157.16 L 374.457 158.769 L 377.491 158.053 L 378.657 158.555 L 379.674 160.159 L 381.15 160.695 L 382.049 161.864 L 384.77 161.496 L 385.89 163.173 L 384.283 164.985 L 382.529 165.238 L 382.428 167.939 L 381.253 169.147 L 377.064 168.268 L 375.54 173.012 L 374.459 173.596 L 370.275 174.64 L 372.176 179.132 L 370.727 179.798 L 370.896 181.252 L 369.594 180.879 L 368.535 179.962 L 365.402 179.694 L 361.9 179.625 L 361.133 179.906 L 358.125 178.829 L 356.927 179.36 L 356.598 180.868 L 353.124 179.989 L 351.734 180.35 L 351.261 181.465" style="fill:#e6e6e6;stroke:#000000;stroke-width:0.242"/><path d="M 351.26 181.465 L 351.733 180.35 L 353.124 179.989 L 356.598 180.868 L 356.927 179.36 L 358.125 178.829 L 361.133 179.906 L 361.9 179.625 L 365.402 179.694 L 368.535 179.962 L 369.594 180.879 L 370.896 181.252 L 370.599 181.827 L 367.271 183.199 L 366.518 184.199 L 363.81 184.498 L 363.011 186.099 L 360.775 185.763 L 359.316 186.253 L 357.3 187.43 L 357.591 188.012 L 356.99 188.579 L 352.997 188.955 L 350.388 188.15 L 348.098 188.343 L 348.298 186.909 L 350.597 187.326 L 351.37 186.557 L 352.977 186.803 L 355.681 185.002 L 353.178 183.676 L 351.674 184.304 L 350.115 183.356 L 351.888 181.716 L 351.26 181.466" style="fill:#e6e6e6;stroke:#000000;stroke-width:0.242"/><path d="M 419.969 253.871 L 419.111 252.758 L 418.043 250.547 L 417.542 247.956 L 418.895 246.167 L 421.625 245.755 L 423.605 246.064 L 425.347 246.909 L 426.303 245.423 L 428.175 246.217 L 428.664 247.652 L 428.404 250.225 L 424.855 251.873 L 425.782 253.168 L 423.565 253.323 L 421.737 254.183 L 419.969 253.871" style="fill:#e6e6e6;stroke:#000000;stroke-width:0.242"/><path d="M 472.454 190.602 L 474.277 193.491 L 474.8 195.067 L 474.816 197.848 L 474.02 199.166 L 472.108 199.625 L 470.42 200.615 L 468.517 200.819 L 468.281 199.52 L 468.673 197.722 L 467.74 195.209 L 469.308 194.801 L 467.861 192.717 L 467.993 192.495 L 468.936 192.582 L 469.758 191.477 L 471.251 191.358 L 472.15 191.196 L 472.454 190.602" style="fill:#e6e6e6;stroke:#000000;stroke-width:0.242"/><path d="M 302.714 211.171 L 303.154 212.19 L 302.966 212.715 L 303.646 214.448 L 302.153 214.507 L 301.627 213.414 L 299.745 213.192 L 301.295 210.978 L 302.714 211.171" style="fill:#e6e6e6;stroke:#000000;stroke-width:0.242"/><path d="M 423.605 246.064 L 424.292 245.093 L 424.387 243.265 L 422.677 241.377 L 422.545 239.233 L 420.939 237.463 L 419.342 237.313 L 418.916 238.072 L 417.68 238.135 L 417.047 237.751 L 414.821 239.051 L 414.771 237.097 L 415.291 234.791 L 413.864 234.691 L 413.743 233.372 L 412.829 232.693 L 413.279 231.882 L 415.076 230.446 L 415.266 230.965 L 416.392 231.026 L 416.072 228.494 L 417.167 228.169 L 418.402 229.919 L 419.35 231.925 L 421.95 231.942 L 422.768 233.861 L 421.418 234.436 L 420.813 235.224 L 423.343 236.533 L 425.098 239.11 L 426.429 241.025 L 428.027 242.533 L 428.559 244.06 L 428.175 246.217 L 426.303 245.423 L 425.348 246.909 L 423.605 246.064" style="fill:#e6e6e6;stroke:#000000;stroke-width:0.242"/><path d="M 277.048 203.458 L 276.481 203.489 L 276.286 203.902 L 275.58 203.898 L 276.332 201.971 L 277.382 200.295 L 277.422 200.212 L 278.372 200.334 L 278.717 201.267 L 277.566 202.162 L 277.048 203.458" style="fill:#e6e6e6;stroke:#000000;stroke-width:0.242"/><path d="M 374.123 260.492 L 373.804 262.701 L 372.919 263.305 L 371.082 263.79 L 370.077 262.104 L 369.703 259.052 L 370.659 255.596 L 372.118 256.78 L 373.101 258.279 L 374.123 260.492" style="fill:#e6e6e6;stroke:#000000;stroke-width:0.242"/><path d="M 411.619 233.202 L 410.387 234.154 L 408.896 234.253 L 407.933 236.62 L 407.042 237.017 L 408.062 238.93 L 409.403 240.518 L 410.268 241.949 L 409.495 243.83 L 408.766 244.23 L 409.27 245.312 L 410.678 247.024 L 410.92 248.224 L 410.887 249.222 L 411.712 251.177 L 410.552 253.171 L 409.529 255.364 L 409.325 253.78 L 409.975 252.143 L 409.265 250.876 L 409.436 248.54 L 408.579 247.426 L 407.891 244.848 L 407.509 242.117 L 406.595 240.32 L 405.204 241.409 L 402.805 242.953 L 401.62 242.76 L 400.311 242.253 L 401.039 239.563 L 400.598 237.523 L 398.943 235.002 L 399.202 234.211 L 397.966 233.93 L 396.467 232.136 L 396.329 230.36 L 397.066 230.695 L 397.11 229.108 L 398.152 228.582 L 397.928 227.639 L 398.405 226.882 L 398.488 224.572 L 400.138 225.082 L 401.08 223.236 L 401.186 222.141 L 402.352 220.25 L 402.288 218.956 L 405.022 217.387 L 406.531 217.798 L 406.358 216.397 L 407.098 215.979 L 406.939 215.112 L 408.174 214.942 L 408.88 216.287 L 409.802 216.831 L 409.864 218.57 L 409.779 220.437 L 407.778 222.319 L 407.525 224.978 L 409.755 224.607 L 410.258 226.661 L 411.595 227.093 L 410.981 228.938 L 412.549 229.769 L 413.463 230.176 L 415.012 229.532 L 415.076 230.446 L 413.279 231.882 L 412.829 232.693 L 411.619 233.202" style="fill:#e6e6e6;stroke:#000000;stroke-width:0.242"/><path d="M 386.716 162.948 L 388.943 162.474 L 392.972 160.102 L 396.185 158.797 L 398.021 159.649 L 400.224 159.69 L 401.636 160.982 L 403.744 161.081 L 406.797 161.773 L 408.849 159.851 L 407.992 158.215 L 410.179 155.305 L 412.545 156.47 L 414.462 156.799 L 416.945 157.519 L 417.348 159.607 L 420.348 160.77 L 422.344 160.259 L 425.015 159.897 L 427.132 160.261 L 429.2 161.587 L 430.482 162.989 L 432.44 162.96 L 435.1 163.405 L 437.041 162.727 L 439.822 162.274 L 442.915 160.333 L 444.181 160.632 L 445.287 161.555 L 447.807 161.326 L 446.778 163.392 L 445.286 166.104 L 445.83 167.205 L 447.026 166.864 L 449.109 167.283 L 450.732 166.29 L 452.427 167.15 L 454.341 169.021 L 454.11 169.967 L 452.443 169.668 L 449.376 170.02 L 447.889 170.775 L 446.342 172.519 L 443.122 173.536 L 441.017 174.923 L 438.847 174.394 L 437.658 174.158 L 436.55 175.837 L 437.224 176.833 L 437.566 177.685 L 436.088 178.551 L 434.572 179.923 L 432.105 180.821 L 428.939 180.918 L 425.528 181.801 L 423.069 183.16 L 422.134 182.374 L 419.579 182.376 L 416.455 180.833 L 414.37 180.453 L 411.561 180.808 L 407.202 180.236 L 404.874 180.295 L 403.635 178.775 L 402.673 176.398 L 401.367 176.11 L 398.816 174.489 L 395.972 174.124 L 393.462 173.677 L 392.702 172.539 L 393.515 169.448 L 392.058 167.294 L 389.046 166.283 L 387.271 164.849 L 386.716 162.948" style="fill:#e6e6e6;stroke:#000000;stroke-width:0.242"/><path d="M 414.855 263.289 L 415.021 264.377 L 416.415 264.124 L 417.106 263.253 L 417.591 263.451 L 418.838 264.73 L 419.724 266.148 L 419.845 267.573 L 419.621 268.535 L 419.826 269.262 L 419.98 270.513 L 420.724 271.095 L 421.555 272.964 L 421.514 273.678 L 420.017 273.819 L 418.019 272.254 L 415.52 270.577 L 415.273 269.5 L 414.052 268.086 L 413.761 266.334 L 412.999 265.179 L 413.231 263.637 L 412.765 262.738 L 413.132 262.36 L 414.855 263.289" style="fill:#e6e6e6;stroke:#000000;stroke-width:0.242"/><path d="M 451.903 266.945 L 450.348 267.666 L 448.517 267.31 L 446.089 267.309 L 445.358 269.714 L 444.544 270.449 L 443.462 273.387 L 441.739 273.838 L 439.742 273.246 L 438.729 273.431 L 437.498 274.499 L 436.15 274.347 L 434.788 274.776 L 433.344 273.583 L 432.991 272.171 L 434.539 272.895 L 436.171 272.5 L 436.596 270.711 L 437.497 270.313 L 440.028 269.855 L 441.543 268.182 L 442.58 266.845 L 443.543 267.941 L 443.986 267.22 L 444.995 267.287 L 445.118 265.936 L 445.213 264.893 L 446.839 263.419 L 447.905 261.762 L 448.759 261.754 L 449.844 262.827 L 449.94 263.748 L 451.331 264.339 L 453.093 264.977 L 452.943 265.806 L 451.526 265.911 L 451.903 266.945" style="fill:#e6e6e6;stroke:#000000;stroke-width:0.242"/><path d="M 387.496 215.992 L 387.333 216.974 L 387.611 218.419 L 387.369 219.316 L 385.61 219.353 L 383.069 218.825 L 381.438 218.61 L 380.22 217.454 L 377.325 217.159 L 374.57 215.881 L 372.579 214.759 L 370.533 213.891 L 371.353 211.739 L 372.694 210.691 L 373.569 210.136 L 375.262 210.848 L 377.394 212.353 L 378.581 212.683 L 379.29 213.787 L 380.93 214.239 L 382.645 215.245 L 385.034 215.769 L 387.496 215.992" style="fill:#e6e6e6;stroke:#000000;stroke-width:0.242"/><path d="M 325.705 231.159 L 324.917 232.669 L 323.959 232.553 L 323.519 233.078 L 323.18 234.192 L 323.44 235.657 L 323.241 235.926 L 322.269 235.918 L 320.95 236.735 L 320.744 237.798 L 320.261 238.258 L 318.947 238.241 L 318.121 238.789 L 318.132 239.668 L 317.11 240.272 L 315.944 240.067 L 314.532 240.799 L 313.557 240.922 L 312.867 239.404 L 311.215 235.804 L 317.551 233.611 L 318.959 229.199 L 317.991 227.627 L 318.046 226.731 L 318.661 225.809 L 318.666 224.896 L 319.622 224.456 L 319.248 224.144 L 319.422 222.684 L 320.5 222.675 L 321.447 224.207 L 322.626 225.019 L 324.175 225.311 L 325.426 225.718 L 326.379 226.995 L 326.948 227.734 L 327.704 228.015 L 327.701 228.51 L 326.933 229.831 L 326.595 230.452 L 325.705 231.158" style="fill:#e6e6e6;stroke:#000000;stroke-width:0.242"/><path d="M 320.489 220.488 L 320.214 220.898 L 319.812 220.128 L 320.427 219.358 L 320.688 219.555 L 320.489 220.488" style="fill:#e6e6e6;stroke:#000000;stroke-width:0.242"/><path d="M 360.121 194.22 L 361.682 195.351 L 362.306 197.207 L 365.78 198.18 L 363.74 200.191 L 361.386 200.545 L 358.183 199.963 L 357.147 200.991 L 357.896 203.07 L 358.629 204.666 L 360.334 205.827 L 358.533 207.181 L 358.566 208.843 L 356.515 211.169 L 355.192 213.508 L 352.982 215.909 L 350.53 215.735 L 348.203 218.122 L 349.585 219.141 L 349.826 220.88 L 351.012 222.023 L 351.431 223.95 L 346.784 223.943 L 345.377 225.436 L 343.83 224.871 L 343.2 223.261 L 341.568 221.549 L 337.677 221.973 L 334.246 222.014 L 331.272 222.33 L 332.068 219.71 L 335.114 218.54 L 334.939 217.494 L 333.929 217.126 L 333.871 215.116 L 331.852 214.109 L 331.001 212.721 L 329.956 211.509 L 333.495 212.686 L 335.607 212.341 L 336.87 212.635 L 337.297 212.13 L 338.768 212.332 L 341.513 211.373 L 341.587 209.402 L 342.764 208.085 L 344.336 208.088 L 344.567 207.435 L 346.181 207.131 L 346.962 207.348 L 347.788 206.691 L 347.671 205.283 L 348.567 203.861 L 349.912 203.264 L 349.081 201.697 L 351.09 201.771 L 351.671 200.915 L 351.583 199.999 L 352.635 198.995 L 352.394 197.801 L 351.894 196.781 L 353.127 195.729 L 355.395 195.22 L 357.818 194.939 L 358.892 194.49 L 360.121 194.218" style="fill:#e6e6e6;stroke:#000000;stroke-width:0.242"/><path d="M 468.287 258.597 L 468.502 260.009 L 468.627 261.2 L 467.907 263.141 L 467.136 260.979 L 466.148 262.055 L 466.823 263.618 L 466.217 264.611 L 463.732 263.381 L 463.139 261.846 L 463.783 260.837 L 462.445 259.833 L 461.782 260.713 L 460.788 260.631 L 459.225 261.816 L 458.875 261.195 L 459.704 259.404 L 461.035 258.807 L 462.186 258.005 L 462.933 258.968 L 464.538 258.386 L 464.883 257.436 L 466.375 257.38 L 466.25 255.732 L 467.962 256.743 L 468.139 257.815 L 468.287 258.597" style="fill:#e6e6e6;stroke:#000000;stroke-width:0.242"/><path d="M 463.231 254.627 L 462.472 255.328 L 461.811 256.674 L 461.147 257.305 L 459.847 255.832 L 460.282 255.262 L 460.812 254.664 L 461.045 253.339 L 462.21 253.213 L 461.87 254.651 L 463.433 252.589 L 463.231 254.627" style="fill:#e6e6e6;stroke:#000000;stroke-width:0.242"/><path d="M 451.663 256.678 L 448.853 258.698 L 449.888 257.21 L 451.414 255.894 L 452.682 254.419 L 453.789 252.296 L 454.165 254.039 L 452.771 255.213 L 451.663 256.678" style="fill:#e6e6e6;stroke:#000000;stroke-width:0.242"/><path d="M 458.798 251.179 L 460.066 251.842 L 461.41 251.839 L 461.369 252.732 L 460.391 253.64 L 459.05 254.281 L 458.976 253.288 L 459.125 252.198 L 458.798 251.179" style="fill:#e6e6e6;stroke:#000000;stroke-width:0.242"/><path d="M 466.441 250.599 L 467.034 252.988 L 465.405 252.421 L 465.449 253.138 L 465.966 254.456 L 464.961 254.934 L 464.873 253.433 L 464.237 253.322 L 463.907 252.027 L 465.15 252.198 L 465.122 251.388 L 463.831 249.752 L 465.859 249.799 L 466.441 250.599" style="fill:#e6e6e6;stroke:#000000;stroke-width:0.242"/><path d="M 458.046 248.653 L 457.486 250.507 L 456.582 249.437 L 455.504 247.801 L 457.313 247.88 L 458.046 248.653" style="fill:#e6e6e6;stroke:#000000;stroke-width:0.242"/><path d="M 457.611 236.889 L 458.913 237.512 L 459.564 236.944 L 459.756 237.498 L 459.412 238.402 L 460.133 239.962 L 459.577 241.766 L 458.332 242.484 L 457.999 244.227 L 458.472 245.945 L 459.591 246.183 L 460.525 245.928 L 463.163 247.122 L 462.962 248.292 L 463.651 248.808 L 463.431 249.797 L 461.786 248.744 L 461.006 247.615 L 460.462 248.404 L 459.117 247.117 L 457.199 247.435 L 456.148 246.959 L 456.255 246.069 L 456.915 245.521 L 456.285 245.022 L 456.012 245.799 L 454.969 244.56 L 454.654 243.619 L 454.575 241.547 L 455.426 242.26 L 455.644 238.862 L 456.333 236.886 L 457.611 236.888" style="fill:#e6e6e6;stroke:#000000;stroke-width:0.242"/><path d="M 477.291 181.138 L 477.586 181.583 L 476.784 181.43 L 475.867 182.29 L 475.237 183.151 L 475.317 184.959 L 474.225 185.513 L 473.849 185.955 L 473.053 186.693 L 471.647 187.103 L 470.73 187.771 L 470.664 188.845 L 470.418 189.118 L 471.258 189.52 L 472.454 190.602 L 472.15 191.196 L 471.251 191.358 L 469.758 191.477 L 468.936 192.582 L 467.993 192.495 L 467.861 192.717 L 466.835 192.251 L 466.58 192.711 L 465.961 192.914 L 465.887 192.454 L 465.34 192.23 L 464.772 191.839 L 465.35 190.758 L 465.848 190.47 L 465.661 190.019 L 466.196 188.686 L 466.058 188.281 L 464.826 188.011 L 463.829 187.344 L 465.549 185.744 L 467.876 184.395 L 469.327 182.606 L 470.33 183.398 L 472.156 183.49 L 471.826 182.156 L 475.087 181.061 L 475.927 179.631 L 477.291 181.138" style="fill:#e6e6e6;stroke:#000000;stroke-width:0.242"/><path d="M 276.466 205.538 L 276.465 206.971 L 276.153 207.656 L 275.16 207.973 L 275.251 207.358 L 275.791 207.037 L 275.26 206.774 L 275.702 205.213 L 276.466 205.538" style="fill:#e6e6e6;stroke:#000000;stroke-width:0.242"/><path d="M 308.702 223.057 L 308.562 221.421 L 309.131 220.238 L 309.708 219.994 L 310.347 220.702 L 310.384 222.021 L 309.926 223.343 L 309.341 223.503 L 308.702 223.057" style="fill:#e6e6e6;stroke:#000000;stroke-width:0.242"/><path d="M 504.762 158.949 L 506.886 163.824 L 503.76 162.923 L 502.461 166.842 L 504.52 169.584 L 504.46 171.437 L 502.86 169.839 L 501.476 171.888 L 501.085 169.666 L 501.32 167.061 L 501.079 164.143 L 501.568 162.077 L 501.661 158.379 L 500.424 155.621 L 500.611 151.732 L 502.563 150.407 L 501.724 149.064 L 502.664 148.656 L 503.213 150.573 L 503.944 153.337 L 503.89 156.125 L 504.762 158.949" style="fill:#e6e6e6;stroke:#000000;stroke-width:0.242"/><path d="M 581.532 94 L 579.216 94.196 L 578.84 92.972 L 581.532 91.353 L 581.532 94" style="fill:#e6e6e6;stroke:#000000;stroke-width:0.242"/><path d="M 504.668 84.611 L 501.466 84.64 L 497.138 84.188 L 496.769 83.973 L 498.772 82.359 L 501.412 81.979 L 504.413 83.544 L 504.668 84.611" style="fill:#e6e6e6;stroke:#000000;stroke-width:0.242"/><path d="M 519.721 76.863 L 517.28 78.528 L 513.905 78.152 L 509.98 76.487 L 510.486 75.108 L 514.422 75.752 L 519.721 76.863" style="fill:#e6e6e6;stroke:#000000;stroke-width:0.242"/><path d="M 507.799 74.826 L 506.139 77.978 L 498.354 77.861 L 494.852 78.852 L 490.668 76.11 L 491.803 73.163 L 494.589 72.35 L 500.165 72.541 L 507.799 74.826" style="fill:#e6e6e6;stroke:#000000;stroke-width:0.242"/><path d="M 322.905 94.428 L 321.658 94.765 L 314.757 94.266 L 314.197 92.555 L 310.374 91.513 L 310.066 89.396 L 312.225 88.548 L 312.153 86.375 L 316.342 82.922 L 314.4 82.421 L 319.457 78.785 L 318.885 76.875 L 323.609 74.626 L 330.581 71.849 L 337.61 71.032 L 341.227 69.402 L 345.336 68.827 L 346.804 70.569 L 345.386 71.929 L 337.903 74.075 L 331.454 76.114 L 324.894 80.113 L 321.746 84.122 L 318.436 87.985 L 318.866 91.256 L 322.906 94.428" style="fill:#e6e6e6;stroke:#000000;stroke-width:0.242"/><path d="M 427.303 68.674 L 427.873 70.853 L 429.803 69.783 L 435.977 69.842 L 440.738 71.979 L 442.433 73.602 L 441.908 75.829 L 439.571 77.084 L 434.021 79.415 L 432.435 80.649 L 435.054 81.227 L 438.178 82.266 L 440.079 81.488 L 441.156 84.114 L 442.084 83.055 L 445.461 82.409 L 452.236 83.085 L 452.751 84.985 L 461.58 85.586 L 461.701 82.482 L 466.182 83.198 L 469.554 83.175 L 472.964 85.313 L 473.936 87.877 L 472.687 89.534 L 475.339 92.608 L 478.66 94.173 L 480.698 90.099 L 484.086 91.857 L 487.685 90.808 L 491.773 92.008 L 493.328 90.915 L 496.783 91.462 L 495.258 87.807 L 498.046 86.075 L 517.12 88.665 L 518.918 90.999 L 524.446 93.961 L 532.974 93.232 L 537.178 93.867 L 538.936 95.45 L 538.679 98.217 L 541.281 99.283 L 544.108 98.517 L 547.853 98.419 L 551.84 99.153 L 555.842 98.739 L 559.521 102.038 L 562.138 100.858 L 560.43 98.476 L 561.371 96.803 L 568.108 97.858 L 572.501 97.633 L 578.575 99.422 L 581.532 101.043 L 581.532 115.221 L 581.516 115.24 L 578.801 116.741 L 576.065 116.491 L 577.969 118.296 L 579.226 121.057 L 580.202 121.951 L 580.447 123.316 L 579.902 124.186 L 575.965 123.471 L 570.063 125.93 L 568.185 126.308 L 564.953 128.571 L 561.888 130.528 L 561.112 131.965 L 558.091 129.773 L 552.589 132.258 L 551.628 131.086 L 549.593 132.437 L 546.769 132.006 L 546.089 134.067 L 543.555 137.063 L 543.63 138.301 L 546.035 138.985 L 545.752 143.372 L 543.792 143.482 L 542.888 145.962 L 543.766 147.227 L 540.073 148.719 L 539.34 152.017 L 536.192 152.715 L 535.559 155.6 L 532.515 158.215 L 531.734 156.284 L 530.83 152.142 L 529.651 145.681 L 530.666 141.549 L 532.448 139.746 L 532.559 138.323 L 535.84 137.638 L 539.612 133.743 L 543.248 130.506 L 547.044 127.959 L 548.742 123.377 L 546.176 123.654 L 544.908 126.34 L 539.551 129.867 L 537.821 125.914 L 532.369 127.013 L 527.084 132.354 L 528.828 134.273 L 524.114 135.084 L 520.849 135.404 L 521.002 133.151 L 517.719 132.676 L 515.103 134.212 L 508.646 133.676 L 501.699 134.6 L 494.858 140.583 L 486.765 147.595 L 490.092 147.963 L 491.13 149.784 L 493.182 150.427 L 494.533 148.98 L 496.849 149.168 L 499.899 152.34 L 499.97 154.763 L 498.319 157.576 L 498.141 160.893 L 497.188 165.263 L 494.005 169.15 L 493.298 170.987 L 490.431 174.05 L 487.587 177.05 L 486.222 178.573 L 483.408 180.076 L 482.077 180.109 L 480.75 178.864 L 477.916 180.736 L 477.586 181.583 L 477.291 181.138 L 477.278 179.842 L 478.356 179.773 L 478.66 176.733 L 478.104 174.508 L 479.917 173.585 L 482.48 174.048 L 483.9 171.492 L 484.624 168.582 L 485.444 167.603 L 486.554 165.177 L 483.063 165.975 L 481.233 167.037 L 478.024 167.035 L 477.169 164.496 L 474.667 162.557 L 470.992 161.679 L 470.211 158.971 L 469.475 157.257 L 468.683 156.048 L 467.378 153.189 L 465.524 152.137 L 462.363 151.282 L 459.563 151.36 L 456.939 151.878 L 455.194 153.3 L 456.353 153.977 L 456.379 155.541 L 455.205 156.444 L 453.299 159.407 L 453.318 160.625 L 450.342 162.364 L 447.807 161.327 L 445.287 161.556 L 444.181 160.633 L 442.915 160.334 L 439.822 162.274 L 437.041 162.728 L 435.1 163.406 L 432.44 162.961 L 430.482 162.989 L 429.2 161.588 L 427.132 160.262 L 425.015 159.898 L 422.344 160.259 L 420.348 160.771 L 417.348 159.608 L 416.945 157.52 L 414.462 156.8 L 412.545 156.471 L 410.179 155.306 L 407.992 158.216 L 408.849 159.852 L 406.797 161.774 L 403.743 161.081 L 401.636 160.983 L 400.224 159.691 L 398.021 159.65 L 396.184 158.797 L 392.972 160.103 L 388.943 162.475 L 386.716 162.949 L 385.89 163.174 L 384.769 161.497 L 382.049 161.865 L 381.15 160.696 L 379.673 160.159 L 378.657 158.555 L 377.491 158.053 L 374.456 158.77 L 371.547 157.16 L 370.422 158.623 L 365.702 151.438 L 363.008 149.206 L 363.781 148.294 L 358.488 151.028 L 356.463 151.192 L 356.637 149.616 L 353.925 148.625 L 351.72 149.333 L 351.056 146.304 L 347.26 145.669 L 345.362 146.89 L 340.077 147.971 L 339.046 148.691 L 331.144 149.701 L 330.175 150.688 L 331.7 152.655 L 329.672 153.397 L 330.068 154.172 L 328.041 155.551 L 331.463 157.484 L 330.934 158.806 L 327.968 158.686 L 327.354 159.511 L 324.653 158.069 L 321.305 158.125 L 319.064 159.299 L 316.564 158.173 L 311.909 156.232 L 308.61 156.305 L 304.251 159.345 L 303.988 161.364 L 301.816 159.762 L 300.131 162.788 L 300.748 163.346 L 299.529 165.406 L 301.321 167.234 L 302.888 167.16 L 304.235 168.949 L 304.02 170.318 L 305.093 170.746 L 304.13 172.312 L 302.083 172.745 L 299.984 175.443 L 301.904 177.899 L 301.696 179.629 L 304.002 182.626 L 302.741 183.644 L 302.378 184.285 L 301.444 184.113 L 299.993 182.58 L 299.399 182.495 L 298.072 181.908 L 297.425 180.864 L 295.455 180.331 L 294.175 180.731 L 293.805 180.257 L 290.929 179.03 L 287.82 178.615 L 286.035 178.175 L 285.778 178.479 L 283.085 176.298 L 280.676 175.319 L 278.852 173.786 L 280.389 173.367 L 282.141 171.165 L 280.96 170.117 L 284.073 169.031 L 284.017 168.447 L 282.121 168.878 L 282.188 167.69 L 283.276 166.94 L 285.32 166.743 L 285.652 165.843 L 285.185 164.349 L 286.043 162.921 L 286.018 162.117 L 282.905 161.222 L 281.671 161.252 L 280.368 159.959 L 278.748 160.397 L 276.065 159.423 L 276.111 158.876 L 275.36 157.667 L 273.676 157.531 L 273.501 156.661 L 274.029 156.091 L 272.679 154.491 L 270.489 154.765 L 269.848 154.623 L 269.314 155.266 L 268.526 155.152 L 268.006 153.334 L 267.511 152.386 L 267.917 152.118 L 269.621 152.218 L 270.443 151.591 L 269.834 150.823 L 268.41 150.315 L 268.537 149.793 L 267.678 149.264 L 266.354 147.355 L 266.806 146.564 L 266.6 145.179 L 264.535 144.473 L 263.427 144.827 L 263.127 144.09 L 260.904 143.343 L 260.225 141.575 L 260.045 140.111 L 259.027 139.413 L 259.932 138.446 L 259.306 135.579 L 260.809 133.788 L 260.49 133.242 L 262.891 131.504 L 260.678 129.997 L 265.2 125.895 L 267.162 124.011 L 267.956 122.332 L 264.83 120.054 L 265.693 117.862 L 263.792 115.329 L 265.214 112.368 L 262.758 108.364 L 264.706 105.664 L 261.472 103.245 L 261.78 100.669 L 263.486 100.327 L 267.08 98.832 L 269.258 97.525 L 272.727 99.79 L 278.511 100.674 L 286.49 104.818 L 288.111 106.532 L 288.251 108.906 L 285.906 110.759 L 282.458 111.693 L 273.03 109.019 L 271.479 109.469 L 274.922 112.04 L 275.057 113.651 L 275.195 117.151 L 277.914 118.184 L 279.564 119.058 L 279.837 117.421 L 278.565 115.959 L 279.909 114.661 L 285.014 116.789 L 286.792 115.959 L 285.371 113.441 L 290.293 110.021 L 292.242 110.224 L 294.214 111.45 L 295.444 109.031 L 293.683 106.907 L 294.717 104.752 L 293.164 102.49 L 299.072 103.664 L 300.278 105.694 L 297.604 106.139 L 297.619 108.13 L 299.281 109.345 L 302.544 108.576 L 303.061 106.297 L 307.472 104.577 L 314.842 101.436 L 316.435 101.617 L 314.353 103.841 L 316.972 104.221 L 318.485 102.974 L 322.443 102.873 L 325.58 101.35 L 327.986 103.56 L 330.386 101.128 L 328.173 98.975 L 329.271 97.736 L 335.51 98.872 L 338.433 100.038 L 346.086 104.238 L 347.498 102.326 L 345.352 100.374 L 345.29 99.585 L 342.745 99.219 L 343.441 97.44 L 342.312 94.474 L 342.248 93.243 L 346.145 89.714 L 347.531 86.1 L 349.101 85.309 L 354.692 86.37 L 355.133 88.586 L 353.131 91.77 L 354.445 93.006 L 355.124 95.688 L 354.644 100.832 L 356.974 103.087 L 356.068 105.512 L 351.931 110.57 L 354.345 111.087 L 355.185 109.821 L 357.509 108.913 L 358.069 107.151 L 359.897 105.44 L 358.666 103.375 L 359.652 100.949 L 357.343 100.644 L 356.835 98.572 L 358.52 94.769 L 355.777 91.621 L 359.557 88.977 L 359.068 86.145 L 360.121 86.054 L 361.231 88.267 L 360.398 92.055 L 362.658 92.764 L 361.694 89.952 L 365.229 88.4 L 369.612 88.19 L 373.514 90.438 L 371.636 87.143 L 371.426 82.838 L 375.098 82.011 L 380.178 82.192 L 384.754 81.653 L 383.038 79.487 L 385.482 76.727 L 387.908 76.611 L 392.014 74.495 L 397.591 73.923 L 398.295 72.74 L 403.84 72.337 L 405.568 73.309 L 410.308 70.999 L 414.188 71.071 L 414.77 69.172 L 416.788 67.279 L 421.773 65.433 L 425.395 66.892 L 422.52 67.993 L 427.303 68.675" style="fill:#e6e6e6;stroke:#000000;stroke-width:0.242"/><path d="M 423.302 62.656 L 411.397 64.42 L 415.255 58.341 L 416.99 57.81 L 418.577 58.117 L 423.929 60.778 L 423.302 62.656" style="fill:#e6e6e6;stroke:#000000;stroke-width:0.242"/><path d="M 309.391 52.033 L 306.556 52.677 L 304.656 53.046 L 304.362 53.843 L 301.893 54.641 L 299.606 53.495 L 300.809 51.973 L 296.109 51.825 L 300.231 50.93 L 303.44 50.87 L 303.872 52.193 L 305.085 51.018 L 307.075 50.204 L 310.207 51.285 L 309.391 52.033" style="fill:#e6e6e6;stroke:#000000;stroke-width:0.242"/><path d="M 412.457 59.997 L 407.849 60.578 L 401.967 59.231 L 398.461 57.431 L 396.841 53.996 L 393.959 53.037 L 399.443 49.68 L 404.012 48.556 L 408.115 51.052 L 412.978 55.746 L 412.457 59.997" style="fill:#e6e6e6;stroke:#000000;stroke-width:0.242"/><path d="M 291.742 241.581 L 291.468 240.655 L 290.831 240.001 L 290.669 239.133 L 289.578 238.353 L 288.452 236.523 L 287.856 234.739 L 286.396 233.228 L 285.454 232.867 L 284.055 230.766 L 283.811 229.229 L 283.901 227.914 L 282.69 225.444 L 281.699 224.572 L 280.558 224.109 L 279.864 222.824 L 279.98 222.317 L 279.393 221.149 L 278.776 220.646 L 277.951 218.963 L 276.666 217.132 L 275.589 215.566 L 274.537 215.577 L 274.865 214.32 L 274.959 213.517 L 275.22 212.599 L 277.571 212.965 L 278.484 212.257 L 278.989 211.426 L 280.601 211.106 L 280.948 210.331 L 281.646 209.937 L 279.542 207.611 L 283.771 206.438 L 284.174 206.085 L 286.717 206.719 L 289.864 208.354 L 295.818 213.008 L 299.745 213.192 L 301.627 213.414 L 302.153 214.507 L 303.646 214.447 L 304.473 216.419 L 305.512 216.939 L 305.874 217.738 L 307.313 218.692 L 307.441 219.627 L 307.23 220.38 L 307.498 221.138 L 308.105 221.769 L 308.386 222.507 L 308.702 223.057 L 309.34 223.503 L 309.926 223.343 L 310.327 224.199 L 310.408 224.716 L 311.216 226.976 L 317.565 228.097 L 317.99 227.628 L 318.958 229.2 L 317.55 233.612 L 311.215 235.804 L 305.126 236.643 L 303.155 237.625 L 301.641 239.912 L 300.656 240.274 L 300.128 239.549 L 299.318 239.658 L 297.277 239.441 L 296.89 239.223 L 294.452 239.273 L 293.88 239.47 L 293.012 238.904 L 292.453 239.973 L 292.669 240.889 L 291.742 241.581" style="fill:#e6e6e6;stroke:#000000;stroke-width:0.242"/><path d="M 283.322 203.218 L 279.187 205.728 L 276.834 204.797 L 276.794 204.781 L 277.08 204.423 L 277.048 203.458 L 277.566 202.162 L 278.717 201.267 L 278.372 200.333 L 277.422 200.211 L 277.225 198.381 L 277.742 197.392 L 278.307 196.864 L 278.873 196.336 L 278.987 194.986 L 279.678 195.457 L 282.003 194.783 L 283.127 195.24 L 284.865 195.232 L 287.295 194.321 L 288.433 194.362 L 290.835 193.984 L 289.752 195.498 L 288.596 196.096 L 288.796 197.857 L 287.998 200.749 L 283.322 203.218" style="fill:#e6e6e6;stroke:#000000;stroke-width:0.242"/><path d="M 418.043 250.547 L 416.147 249.563 L 414.34 249.603 L 414.65 247.916 L 412.79 247.929 L 412.623 250.289 L 411.483 253.415 L 410.797 255.3 L 410.942 256.842 L 412.317 256.909 L 413.174 258.851 L 413.554 260.69 L 414.732 261.906 L 416.011 262.153 L 417.106 263.253 L 416.415 264.124 L 415.021 264.377 L 414.855 263.288 L 413.132 262.36 L 412.765 262.738 L 411.93 261.924 L 411.569 260.873 L 410.447 259.674 L 409.424 258.666 L 409.077 259.915 L 408.677 258.735 L 408.907 257.407 L 409.529 255.364 L 410.552 253.171 L 411.712 251.177 L 410.887 249.222 L 410.92 248.224 L 410.678 247.024 L 409.27 245.312 L 408.766 244.23 L 409.495 243.83 L 410.268 241.949 L 409.403 240.518 L 408.062 238.93 L 407.042 237.017 L 407.933 236.62 L 408.896 234.253 L 410.387 234.154 L 411.619 233.202 L 412.829 232.693 L 413.743 233.372 L 413.864 234.691 L 415.291 234.791 L 414.771 237.097 L 414.821 239.051 L 417.047 237.751 L 417.68 238.135 L 418.916 238.072 L 419.342 237.313 L 420.939 237.463 L 422.545 239.233 L 422.677 241.377 L 424.387 243.265 L 424.292 245.093 L 423.605 246.064 L 421.625 245.755 L 418.895 246.167 L 417.542 247.956 L 418.042 250.547" style="fill:#e6e6e6;stroke:#000000;stroke-width:0.242"/><path d="M 351.37 186.557 L 350.597 187.326 L 348.298 186.909 L 348.098 188.343 L 350.388 188.15 L 352.997 188.955 L 356.99 188.579 L 357.526 190.864 L 358.219 190.616 L 359.502 191.176 L 359.428 192.129 L 359.745 193.521 L 357.567 193.518 L 356.113 193.339 L 354.797 194.428 L 353.86 194.669 L 353.124 195.179 L 352.288 194.385 L 352.484 192.336 L 351.846 192.22 L 352.075 191.471 L 350.932 190.912 L 350.023 191.766 L 349.8 192.753 L 349.474 193.112 L 348.212 193.061 L 347.531 194.177 L 346.819 193.707 L 345.291 194.488 L 344.645 194.192 L 345.832 191.721 L 345.376 189.89 L 343.826 189.301 L 344.374 188.21 L 346.137 188.327 L 347.141 186.952 L 347.812 185.349 L 350.636 184.766 L 350.196 185.928 L 350.498 186.623 L 351.37 186.558" style="fill:#e6e6e6;stroke:#000000;stroke-width:0.242"/><path d="M 330.667 197.805 L 330.482 195.775 L 328.907 195.689 L 326.494 193.538 L 324.807 193.272 L 322.472 192.033 L 320.97 191.807 L 320.043 192.263 L 318.631 192.192 L 317.129 193.588 L 315.273 194.06 L 314.88 192.334 L 315.187 189.764 L 313.54 188.927 L 314.082 187.228 L 312.681 187.083 L 313.148 184.975 L 315.139 185.591 L 316.995 184.788 L 315.456 183.277 L 314.851 181.829 L 313.151 182.475 L 312.935 184.325 L 312.276 182.69 L 313.209 181.847 L 315.606 181.318 L 317.034 182.03 L 318.512 184.011 L 319.595 183.889 L 321.978 183.854 L 321.631 182.582 L 323.435 181.708 L 325.214 180.229 L 328.06 181.575 L 328.286 183.595 L 329.094 184.111 L 331.377 183.995 L 332.086 184.452 L 333.124 187.032 L 335.539 188.747 L 336.917 189.911 L 339.125 191.117 L 341.934 192.166 L 341.876 193.661 L 341.24 193.585 L 340.244 192.933 L 339.913 193.801 L 338.133 194.271 L 337.711 196.209 L 336.521 196.943 L 334.854 197.306 L 334.413 198.395 L 332.821 198.715 L 330.667 197.805" style="fill:#e6e6e6;stroke:#000000;stroke-width:0.242"/><path d="M 465.314 295.238 L 465.562 294.736 L 467.38 294.257 L 468.853 294.185 L 469.513 293.92 L 470.313 294.183 L 469.536 294.76 L 467.335 295.691 L 465.567 296.303 L 465.528 295.657 L 465.314 295.237" style="fill:#e6e6e6;stroke:#000000;stroke-width:0.242"/><path d="M 279.354 183.821 L 282.383 184.794 L 284.843 184.407 L 286.661 184.631 L 289.155 183.316 L 291.405 183.196 L 293.439 184.434 L 293.798 185.317 L 293.595 186.534 L 295.165 187.154 L 295.997 187.88 L 294.551 188.587 L 295.21 191.415 L 294.797 192.174 L 295.952 194.129 L 294.94 194.539 L 294.198 193.92 L 291.742 193.606 L 290.835 193.984 L 288.433 194.362 L 287.295 194.321 L 284.865 195.232 L 283.127 195.24 L 282.003 194.783 L 279.678 195.458 L 278.987 194.986 L 278.873 196.336 L 278.307 196.865 L 277.742 197.393 L 276.965 196.299 L 277.765 195.391 L 276.477 195.597 L 274.711 195.04 L 273.258 196.432 L 270.053 196.703 L 268.344 195.406 L 266.067 195.325 L 265.58 196.328 L 264.121 196.615 L 262.078 195.327 L 259.773 195.371 L 258.522 192.952 L 256.979 191.595 L 258.006 189.681 L 256.668 188.499 L 259.01 186.119 L 262.262 186.019 L 263.149 184.112 L 267.174 184.445 L 269.713 182.809 L 272.174 182.093 L 275.668 182.039 L 279.354 183.821" style="fill:#e6e6e6;stroke:#000000;stroke-width:0.242"/><path d="M 458.575 223.866 L 457.303 227.444 L 456.398 229.265 L 455.286 227.391 L 455.045 225.739 L 456.288 223.543 L 457.978 221.842 L 458.941 222.512 L 458.575 223.866" style="fill:#e6e6e6;stroke:#000000;stroke-width:0.242"/><path d="M 341.876 193.661 L 341.934 192.166 L 339.125 191.117 L 336.917 189.911 L 335.539 188.747 L 333.124 187.032 L 332.086 184.452 L 331.377 183.995 L 329.094 184.111 L 328.286 183.595 L 328.06 181.575 L 325.214 180.229 L 323.435 181.708 L 321.631 182.582 L 321.978 183.854 L 319.595 183.889 L 319.512 174.435 L 324.948 172.888 L 325.343 173.116 L 328.616 174.988 L 330.345 175.971 L 332.361 178.299 L 334.838 177.925 L 338.459 177.724 L 340.988 179.6 L 340.83 182.155 L 341.859 182.173 L 342.289 184.242 L 344.975 184.323 L 345.553 185.512 L 346.34 185.496 L 347.264 183.698 L 350.05 181.935 L 351.26 181.465 L 351.887 181.716 L 350.115 183.356 L 351.673 184.304 L 353.178 183.676 L 355.681 185.002 L 352.976 186.803 L 351.37 186.557 L 350.498 186.622 L 350.196 185.927 L 350.636 184.765 L 347.812 185.348 L 347.141 186.952 L 346.137 188.326 L 344.374 188.209 L 343.826 189.3 L 345.376 189.889 L 345.832 191.72 L 344.645 194.191 L 343.053 193.677 L 341.876 193.661" style="fill:#e6e6e6;stroke:#000000;stroke-width:0.242"/><path d="M 429.585 230.19 L 426.765 232.079 L 425.005 234.156 L 424.541 235.677 L 426.156 237.98 L 428.131 240.822 L 430.048 242.162 L 431.331 243.899 L 432.298 247.888 L 432.013 251.66 L 430.252 253.069 L 427.833 254.444 L 426.11 256.222 L 423.477 258.204 L 422.71 256.839 L 423.304 255.395 L 421.737 254.183 L 423.565 253.323 L 425.782 253.168 L 424.855 251.873 L 428.404 250.225 L 428.664 247.652 L 428.175 246.217 L 428.559 244.06 L 428.027 242.533 L 426.429 241.025 L 425.098 239.11 L 423.343 236.533 L 420.812 235.224 L 421.418 234.436 L 422.768 233.861 L 421.95 231.943 L 419.35 231.925 L 418.402 229.919 L 417.167 228.169 L 418.3 227.627 L 419.985 227.638 L 422.038 227.381 L 423.838 226.195 L 424.856 227.031 L 426.787 227.437 L 426.453 228.716 L 427.458 229.616 L 429.585 230.19" style="fill:#e6e6e6;stroke:#000000;stroke-width:0.242"/></g></svg>