<svg xmlns="http://www.w3.org/2000/svg" version="1.1" viewBox="0 0 640 480"><g transform="matrix(1.025706, 0, 0, 1.022169, 290.132294, 209.928696)"><g fill="#fff" transform="translate(0 .0233192)"><rect width="623.96" height="469.59" x="-282.86" y="-205.4" stroke-width="1.00005"/></g><g stroke="#000" stroke-width="2.3439" transform="translate(0 -1.706973)"><path fill="#e8423f" d="m-186.315-136.684c0 21.738 10.059 47.387 38.395 48.121 5.254 0.145 18.43-0.48 27.328-9.152 5.543-5.406001 8.359-12.941 8.359-22.406 0-15.883-7.961-22.777-14.648-25.754-7.336-3.27-15.992-3.031-21.328-1.598 1.801-4.52 6.137-11.418 19.992-11.883 5.582-0.184 13.609 1.25 20.113 9.168 8.167996 9.93 15.527 31.977 4.238 80.57l-0.512 2.168h57.832l0.023-1.754c0.719-50.719-9.488-87.176-30.367-108.359-16.863-17.105-35.886-18.941-43.288-18.941-65.375 8e-3 -66.137 59.223-66.137 59.82"/><rect width="77.582" height="11.938" x="-114.089" y="-63.203" fill="#e8423f"/><rect width="77.582" height="11.93" x="-114.089" y="-63.195" fill="none" stroke-miterlimit="10"/><rect width="77.582" height="11.934" x="-114.089" y="-30.289" fill="#e8423f"/><rect width="77.582" height="11.918" x="-114.089" y="-30.273" fill="none" stroke-miterlimit="10"/><rect width="108.918" height="11.93" x="-129.753" y="-46.691" fill="#e8423f"/><rect width="108.918" height="11.93" x="-129.753" y="-46.691" fill="none" stroke-miterlimit="10"/><polygon fill="#e8423f" points="-100.656 169.167 -134.699 210.354 -108.371 -11.697 -38.961 -11.697 -12.379 210.354 -46.672 169.401 -73.539 257.683" transform="translate(-1.776004 -1.767999)"/><polygon fill="none" stroke-miterlimit="10" points="-100.656 169.167 -134.699 210.354 -108.371 -11.697 -38.961 -11.697 -12.379 210.354 -46.672 169.401 -73.539 257.683" transform="translate(-1.776004 -1.767999)"/></g><g fill="#e8423f" stroke-width="2.343896" transform="matrix(1.332606, 0, 0, 1, -9.471953, 0)"><rect width="234.625" height="67.08423" x="28.478" y="-205.3757"/><rect width="234.625" height="67.08423" x="28.478" y="-71.20724"/><rect width="234.625" height="67.08423" x="28.478" y="62.96122"/><rect width="234.625" height="67.08423" x="28.478" y="197.1297"/></g><g fill="none" stroke="#000"><path stroke-width="3.51584" d="m29.11914-205.3757v469.5896"/><g stroke-width="2.3439" transform="matrix(1.332606, 0, 0, 1, -9.471953, 0)"><path d="m28.478-138.2915h234.625"/><path d="m28.478-71.17601h234.625"/><path d="m28.478-4.123016h234.625"/><path d="m28.478 62.96122h234.625"/><path d="m28.478 130.055h234.625"/><path d="m28.478 197.1297h234.625"/></g></g></g></svg>