<svg xmlns="http://www.w3.org/2000/svg" viewBox="0 0 640 480"><g transform="matrix(1.021659, 0, 0, 1.021659, 290.396423, 209.787506)"><path d="M 262.096 263.632 L 262.346 -205.08 L -204.77 -205.08 L -205.03 263.632 L 262.346 263.632 L 262.096 263.632 Z" style="fill:#DC3B41"/><path d="M 147.689 -34.946 L 147.689 -13.188 L 192.299 -13.188 L 192.299 -37.86 L 175.838 -37.86 L 175.838 -57.516 L 192.299 -57.516 L 192.299 -82.458 L 147.689 -82.458 L 147.689 -60.7 L 129.377 -60.7 L 129.377 -82.458 L 105.252 -82.458 L 105.252 -101.56 L 129.377 -101.56 L 129.377 -123.33 L 147.689 -123.33 L 147.689 -101.56 L 192.299 -101.56 L 192.299 -126.25 L 175.838 -126.25 L 175.838 -145.88 L 192.299 -145.88 L 192.299 -170.57 L 147.689 -170.57 L 147.689 -149.08 L 129.377 -149.08 L 129.377 -170.57 L 88.783 -170.57 L 88.783 -149.08 L 62.768 -149.08 L 62.768 -34.946 L 88.783 -34.946 L 88.783 -13.188 L 129.377 -13.188 L 129.377 -34.946 L 147.689 -34.946 Z" style="fill:#fff"/><path stroke-miterlimit="10" d="M 62.768 -34.946 L 88.783 -34.946 L 88.783 -13.188 L 129.377 -13.188 L 129.377 -34.946 L 147.689 -34.946 L 147.689 -13.188 L 192.299 -13.188 L 192.299 -37.86 L 175.838 -37.86 L 175.838 -57.516 L 192.299 -57.516 L 192.299 -82.458 L 147.689 -82.458 L 147.689 -60.7 L 129.377 -60.7 L 129.377 -82.458 L 105.252 -82.458 L 105.252 -101.56 L 129.377 -101.56 L 129.377 -123.33 L 147.689 -123.33 L 147.689 -101.56 L 192.299 -101.56 L 192.299 -126.25 L 175.838 -126.25 L 175.838 -145.88 L 192.299 -145.88 L 192.299 -170.57 L 147.689 -170.57 L 147.689 -149.08 L 129.377 -149.08 L 129.377 -170.57 L 88.783 -170.57 L 88.783 -149.08 L 62.768 -149.08" style="fill:none;stroke:#040304;stroke-width:2.92000008;stroke-linecap:square;stroke-miterlimit:10"/><path d="M -91.17 -34.946 L -91.17 -13.188 L -136.03 -13.188 L -136.03 -37.86 L -119.31 -37.86 L -119.31 -57.516 L -136.03 -57.516 L -136.03 -82.458 L -91.17 -82.458 L -91.17 -60.7 L -72.865 -60.7 L -72.865 -82.458 L -48.705 -82.458 L -48.705 -101.56 L -72.865 -101.56 L -72.865 -123.33 L -91.17 -123.33 L -91.17 -101.56 L -136.03 -101.56 L -136.03 -126.25 L -119.31 -126.25 L -119.31 -145.88 L -136.03 -145.88 L -136.03 -170.57 L -91.17 -170.57 L -91.17 -149.08 L -72.865 -149.08 L -72.865 -170.57 L -32.256 -170.57 L -32.256 -149.08 L -6.24 -149.08 L -6.24 -34.946 L -32.256 -34.946 L -32.256 -13.188 L -72.865 -13.188 L -72.865 -34.946 L -91.17 -34.946 Z" style="fill:#fff"/><path stroke-miterlimit="10" d="M -6.24 -34.946 L -32.256 -34.946 L -32.256 -13.188 L -72.865 -13.188 L -72.865 -34.946 L -91.17 -34.946 L -91.17 -13.188 L -136.03 -13.188 L -136.03 -37.86 L -119.31 -37.86 L -119.31 -57.516 L -136.03 -57.516 L -136.03 -82.458 L -91.17 -82.458 L -91.17 -60.7 L -72.865 -60.7 L -72.865 -82.458 L -48.705 -82.458 L -48.705 -101.56 L -72.865 -101.56 L -72.865 -123.33 L -91.17 -123.33 L -91.17 -101.56 L -136.03 -101.56 L -136.03 -126.25 L -119.31 -126.25 L -119.31 -145.88 L -136.03 -145.88 L -136.03 -170.57 L -91.17 -170.57 L -91.17 -149.08 L -72.865 -149.08 L -72.865 -170.57 L -32.256 -170.57 L -32.256 -149.08 L -6.24 -149.08" style="fill:none;stroke:#040304;stroke-width:2.92000008;stroke-linecap:square;stroke-miterlimit:10"/><path d="M 33.58 49.726 L 33.58 51.843 L 33.838 54.499 L 34.104 57.413 L 34.104 60.867 L 34.361 64.32 L 34.908 68.038 L 35.166 71.484 L 35.689 74.945 L 36.236 77.843 L 37.018 81.054 L 38.33 83.96 L 39.955 86.085 L 41.533 87.945 L 43.377 89.538 L 45.51 90.601 L 47.643 91.663 L 49.76 92.445 L 51.885 92.976 L 53.752 93.773 L 56.127 94.304 L 59.049 94.57 L 62.502 94.827 L 66.479 94.827 L 70.736 94.304 L 74.971 93.499 L 79.221 92.195 L 83.471 90.335 L 87.455 87.945 L 91.166 85.023 L 93.299 83.695 L 95.939 82.367 L 98.861 81.054 L 102.314 79.976 L 105.768 78.648 L 109.213 77.843 L 112.658 76.781 L 115.846 76.257 L 119.018 75.992 L 121.955 75.726 L 128.314 76.257 L 134.432 77.585 L 140.283 79.71 L 145.58 82.898 L 150.088 86.351 L 154.064 90.601 L 157.268 95.382 L 159.643 100.679 L 161.236 106.515 L 161.768 112.367 L 161.236 118.195 L 159.643 123.773 L 157.268 129.085 L 154.064 133.867 L 150.088 138.101 L 145.58 141.812 L 140.283 144.742 L 134.432 147.124 L 128.314 148.452 L 121.955 148.992 L 119.018 148.726 L 115.846 148.452 L 112.658 147.648 L 109.213 146.867 L 105.768 145.796 L 102.314 144.742 L 98.861 143.413 L 95.939 142.351 L 93.299 141.023 L 91.166 139.695 L 87.455 136.781 L 83.471 134.648 L 79.221 133.335 L 74.705 132.796 L 70.197 132.515 L 65.971 132.796 L 61.971 133.585 L 58.518 134.382 L 55.861 135.71 L 53.752 136.781 L 50.299 140.226 L 47.924 143.945 L 46.58 147.929 L 46.033 152.429 L 46.314 156.695 L 47.111 161.195 L 48.439 165.71 L 50.299 169.945 L 52.416 174.195 L 54.799 177.913 L 55.064 179.242 L 55.611 180.57 L 55.861 182.429 L 56.127 184.273 L 56.127 186.124 L 56.4 188.007 L 56.4 191.726 L 56.658 193.304 L 56.658 194.632 L 56.127 199.14 L 55.064 203.398 L 53.479 207.101 L 51.088 210.812 L 48.174 214.023 L 44.971 216.663 L 41.002 218.781 L 37.018 220.382 L 32.502 221.445 L 27.99 221.976 L 23.486 221.445 L 18.975 220.382 L 14.99 218.781 L 11.006 216.663 L 7.83 214.023 L 4.92 210.812 L 2.51 207.101 L 0.936 203.398 L -0.139 199.14 L -0.666 194.632 L -0.666 193.304 L -0.393 191.726 L -0.393 188.007 L -0.139 186.124 L -0.139 184.273 L 0.135 182.429 L 0.4 180.57 L 0.936 179.242 L 1.197 177.913 L 3.576 174.195 L 5.693 169.945 L 7.576 165.71 L 8.885 161.195 L 9.678 156.695 L 9.951 152.429 L 9.416 147.929 L 8.096 143.945 L 5.693 140.226 L 2.248 136.781 L 0.135 135.71 L -2.529 134.382 L -5.979 133.585 L -9.955 132.796 L -14.209 132.515 L -18.713 132.796 L -23.225 133.335 L -27.467 134.648 L -31.459 136.781 L -35.17 139.695 L -37.299 141.023 L -39.947 142.351 L -42.865 143.413 L -46.314 144.742 L -49.76 145.796 L -53.217 146.867 L -56.666 147.648 L -59.857 148.452 L -63.033 148.726 L -65.963 148.992 L -72.33 148.452 L -78.432 147.124 L -84.272 144.742 L -89.314 141.812 L -94.088 138.101 L -98.064 133.867 L -101.26 129.085 L -103.64 123.773 L -105.24 118.195 L -105.77 112.367 L -105.24 106.515 L -103.64 100.679 L -101.26 95.382 L -98.064 90.601 L -94.088 86.351 L -89.314 82.898 L -84.272 79.71 L -78.432 77.585 L -72.33 76.257 L -65.963 75.726 L -63.033 75.992 L -59.857 76.257 L -56.666 76.781 L -53.217 77.843 L -49.76 78.648 L -46.314 79.976 L -42.865 81.054 L -39.947 82.367 L -37.299 83.695 L -35.17 85.023 L -31.459 87.945 L -27.467 90.335 L -23.225 92.195 L -18.986 93.499 L -14.729 94.304 L -10.482 94.827 L -6.506 94.827 L -3.049 94.57 L -0.139 94.304 L 2.248 93.773 L 4.111 92.976 L 6.248 92.445 L 8.35 91.382 L 10.479 90.335 L 12.607 89.273 L 14.729 87.679 L 16.592 85.812 L 18.182 83.695 L 19.51 81.054 L 20.295 78.117 L 20.83 75.195 L 21.096 72.023 L 21.639 69.101 L 21.896 66.171 L 22.158 63.257 L 22.424 60.351 L 22.424 48.124 L 22.678 24.499 L 22.678 -190.75 L -7.568 -190.75 L -7.568 24.773 L -7.834 48.124 L -7.834 51.585 L -8.096 52.898 L -8.096 60.351 L -8.361 63.796 L -9.408 65.913 L -11.018 67.242 L -12.611 68.038 L -14.729 68.304 L -16.584 68.038 L -18.451 67.499 L -19.779 66.976 L -20.834 66.71 L -21.088 66.445 L -25.088 63.515 L -29.064 60.601 L -33.041 57.695 L -37.561 55.288 L -42.072 52.898 L -46.576 51.054 L -51.354 49.452 L -56.4 48.124 L -61.713 47.601 L -67.025 47.335 L -78.17 48.124 L -89.049 50.515 L -99.13 54.499 L -108.15 59.796 L -116.39 66.445 L -123.29 73.882 L -129.13 82.367 L -133.37 91.663 L -136.03 101.742 L -136.83 112.367 L -136.03 122.976 L -133.37 132.796 L -129.13 142.351 L -123.29 150.827 L -116.39 158.273 L -108.15 164.913 L -99.13 170.21 L -89.049 174.195 L -78.17 176.585 L -67.025 177.382 L -61.713 177.117 L -56.4 176.585 L -51.354 175.781 L -46.576 174.468 L -41.811 172.882 L -37.299 170.757 L -32.779 168.617 L -28.795 166.242 L -24.553 163.304 L -20.834 160.398 L -19.514 161.195 L -21.643 164.117 L -23.49 167.023 L -25.088 170.21 L -26.416 173.413 L -27.467 176.843 L -28.529 180.304 L -29.33 183.742 L -29.865 187.21 L -30.131 190.913 L -30.131 194.632 L -29.33 203.648 L -27.201 212.429 L -23.752 220.382 L -19.248 227.538 L -13.4 234.171 L -6.768 239.757 L 0.662 244.257 L 8.885 247.452 L 17.646 249.585 L 26.936 250.367 L 36.236 249.585 L 44.971 247.452 L 53.213 244.257 L 60.643 239.757 L 67.283 234.171 L 72.846 227.538 L 77.643 220.382 L 81.08 212.429 L 83.205 203.648 L 83.986 194.632 L 83.986 190.913 L 83.471 187.21 L 82.955 183.742 L 82.408 180.304 L 81.33 176.843 L 80.299 173.413 L 78.955 170.21 L 77.361 167.023 L 75.51 164.117 L 73.377 161.195 L 74.705 160.398 L 78.424 163.304 L 82.408 166.242 L 86.643 168.617 L 91.166 170.757 L 95.658 172.882 L 100.189 174.468 L 105.252 175.781 L 110.283 176.585 L 115.314 177.117 L 120.627 177.382 L 132.033 176.585 L 142.924 174.195 L 152.744 170.21 L 162.018 164.913 L 170.268 158.273 L 177.15 150.827 L 182.729 142.351 L 186.971 132.796 L 189.643 122.976 L 190.689 112.367 L 189.643 101.742 L 186.971 91.663 L 182.729 82.367 L 177.15 73.882 L 170.268 66.445 L 162.018 59.796 L 152.744 54.499 L 142.924 50.515 L 132.033 48.124 L 120.627 47.335 L 115.596 47.601 L 110.541 48.124 L 105.768 49.452 L 101.252 51.054 L 97.002 52.898 L 92.76 55.288 L 88.783 57.695 L 84.791 60.601 L 81.08 63.515 L 77.361 66.445 L 76.838 66.71 L 75.775 66.976 L 74.447 67.499 L 72.596 67.773 L 70.471 68.038 L 68.611 67.773 L 66.744 66.976 L 65.158 65.648 L 64.096 63.515 L 63.83 60.351 L 63.83 48.124 L 64.096 24.773 L 63.83 24.773 L 64.096 -190.75 L 33.838 -190.75 L 33.838 24.773 L 33.58 48.124 L 33.58 49.726 Z" style="fill:#fff"/><path stroke-miterlimit="10" d="M 63.83 24.773 L 64.096 -190.75 L 33.838 -190.75 L 33.838 24.773 L 33.58 48.124 L 33.58 51.843 L 33.838 54.499 L 34.104 57.413 L 34.104 60.867 L 34.361 64.32 L 34.908 68.038 L 35.166 71.484 L 35.689 74.945 L 36.236 77.843 L 37.018 81.054 L 38.33 83.96 L 39.955 86.085 L 41.533 87.945 L 43.377 89.538 L 45.51 90.601 L 47.643 91.663 L 49.76 92.445 L 51.885 92.976 L 53.752 93.773 L 56.127 94.304 L 59.049 94.57 L 62.502 94.827 L 66.479 94.827 L 70.736 94.304 L 74.971 93.499 L 79.221 92.195 L 83.471 90.335 L 87.455 87.945 L 91.166 85.023 L 93.299 83.695 L 95.939 82.367 L 98.861 81.054 L 102.314 79.976 L 105.768 78.648 L 109.213 77.843 L 112.658 76.781 L 115.846 76.257 L 119.018 75.992 L 121.955 75.726 L 128.314 76.257 L 134.432 77.585 L 140.283 79.71 L 145.58 82.898 L 150.088 86.351 L 154.064 90.601 L 157.268 95.382 L 159.643 100.679 L 161.236 106.515 L 161.768 112.367 L 161.236 118.195 L 159.643 123.773 L 157.268 129.085 L 154.064 133.867 L 150.088 138.101 L 145.58 141.812 L 140.283 144.742 L 134.432 147.124 L 128.314 148.452 L 121.955 148.992 L 119.018 148.726 L 115.846 148.452 L 112.658 147.648 L 109.213 146.867 L 105.768 145.796 L 102.314 144.742 L 98.861 143.413 L 95.939 142.351 L 93.299 141.023 L 91.166 139.695 L 87.455 136.781 L 83.471 134.648 L 79.221 133.335 L 74.705 132.796 L 70.197 132.515 L 65.971 132.796 L 61.971 133.585 L 58.518 134.382 L 55.861 135.71 L 53.752 136.781 L 50.299 140.226 L 47.924 143.945 L 46.58 147.929 L 46.033 152.429 L 46.314 156.695 L 47.111 161.195 L 48.439 165.71 L 50.299 169.945 L 52.416 174.195 L 54.799 177.913 L 55.064 179.242 L 55.611 180.57 L 55.861 182.429 L 56.127 184.273 L 56.127 186.124 L 56.4 188.007 L 56.4 191.726 L 56.658 193.304 L 56.658 194.632 L 56.127 199.14 L 55.064 203.398 L 53.479 207.101 L 51.088 210.812 L 48.174 214.023 L 44.971 216.663 L 41.002 218.781 L 37.018 220.382 L 32.502 221.445 L 27.99 221.976 L 23.486 221.445 L 18.975 220.382 L 14.99 218.781 L 11.006 216.663 L 7.83 214.023 L 4.92 210.812 L 2.51 207.101 L 0.936 203.398 L -0.139 199.14 L -0.666 194.632 L -0.666 193.304 L -0.393 191.726 L -0.393 188.007 L -0.139 186.124 L -0.139 184.273 L 0.135 182.429 L 0.4 180.57 L 0.936 179.242 L 1.197 177.913 L 3.576 174.195 L 5.693 169.945 L 7.576 165.71 L 8.885 161.195 L 9.678 156.695 L 9.951 152.429 L 9.416 147.929 L 8.096 143.945 L 5.693 140.226 L 2.248 136.781 L 0.135 135.71 L -2.529 134.382 L -5.979 133.585 L -9.955 132.796 L -14.209 132.515 L -18.713 132.796 L -23.225 133.335 L -27.467 134.648 L -31.459 136.781 L -35.17 139.695 L -37.299 141.023 L -39.947 142.351 L -42.865 143.413 L -46.314 144.742 L -49.76 145.796 L -53.217 146.867 L -56.666 147.648 L -59.857 148.452 L -63.033 148.726 L -65.963 148.992 L -72.33 148.452 L -78.432 147.124 L -84.272 144.742 L -89.314 141.812 L -94.088 138.101 L -98.064 133.867 L -101.26 129.085 L -103.64 123.773 L -105.24 118.195 L -105.77 112.367 L -105.24 106.515 L -103.64 100.679 L -101.26 95.382 L -98.064 90.601 L -94.088 86.351 L -89.314 82.898 L -84.272 79.71 L -78.432 77.585 L -72.33 76.257 L -65.963 75.726 L -63.033 75.992 L -59.857 76.257 L -56.666 76.781 L -53.217 77.843 L -49.76 78.648 L -46.314 79.976 L -42.865 81.054 L -39.947 82.367 L -37.299 83.695 L -35.17 85.023 L -31.459 87.945 L -27.467 90.335 L -23.225 92.195 L -18.986 93.499 L -14.729 94.304 L -10.482 94.827 L -6.506 94.827 L -3.049 94.57 L -0.139 94.304 L 2.248 93.773 L 4.111 92.976 L 6.248 92.445 L 8.35 91.382 L 10.479 90.335 L 12.607 89.273 L 14.729 87.679 L 16.592 85.812 L 18.182 83.695 L 19.51 81.054 L 20.295 78.117 L 20.83 75.195 L 21.096 72.023 L 21.639 69.101 L 21.896 66.171 L 22.158 63.257 L 22.424 60.351 L 22.424 48.124 L 22.678 24.499 L 22.678 -190.75 L -7.568 -190.75 L -7.568 24.773 L -7.834 48.124 L -7.834 51.585 L -8.096 52.898 L -8.096 60.351 L -8.361 63.796 L -9.408 65.913 L -11.018 67.242 L -12.611 68.038 L -14.729 68.304 L -16.584 68.038 L -18.451 67.499 L -19.779 66.976 L -20.834 66.71 L -21.088 66.445 L -25.088 63.515 L -29.064 60.601 L -33.041 57.695 L -37.561 55.288 L -42.072 52.898 L -46.576 51.054 L -51.354 49.452 L -56.4 48.124 L -61.713 47.601 L -67.025 47.335 L -78.17 48.124 L -89.049 50.515 L -99.13 54.499 L -108.15 59.796 L -116.39 66.445 L -123.29 73.882 L -129.13 82.367 L -133.37 91.663 L -136.03 101.742 L -136.83 112.367 L -136.03 122.976 L -133.37 132.796 L -129.13 142.351 L -123.29 150.827 L -116.39 158.273 L -108.15 164.913 L -99.13 170.21 L -89.049 174.195 L -78.17 176.585 L -67.025 177.382 L -61.713 177.117 L -56.4 176.585 L -51.354 175.781 L -46.576 174.468 L -41.811 172.882 L -37.299 170.757 L -32.779 168.617 L -28.795 166.242 L -24.553 163.304 L -20.834 160.398 L -19.514 161.195 L -21.643 164.117 L -23.49 167.023 L -25.088 170.21 L -26.416 173.413 L -27.467 176.843 L -28.529 180.304 L -29.33 183.742 L -29.865 187.21 L -30.131 190.913 L -30.131 194.632 L -29.33 203.648 L -27.201 212.429 L -23.752 220.382 L -19.248 227.538 L -13.4 234.171 L -6.768 239.757 L 0.662 244.257 L 8.885 247.452 L 17.646 249.585 L 26.936 250.367 L 36.236 249.585 L 44.971 247.452 L 53.213 244.257 L 60.643 239.757 L 67.283 234.171 L 72.846 227.538 L 77.643 220.382 L 81.08 212.429 L 83.205 203.648 L 83.986 194.632 L 83.986 190.913 L 83.471 187.21 L 82.955 183.742 L 82.408 180.304 L 81.33 176.843 L 80.299 173.413 L 78.955 170.21 L 77.361 167.023 L 75.51 164.117 L 73.377 161.195 L 74.705 160.398 L 78.424 163.304 L 82.408 166.242 L 86.643 168.617 L 91.166 170.757 L 95.658 172.882 L 100.189 174.468 L 105.252 175.781 L 110.283 176.585 L 115.314 177.117 L 120.627 177.382 L 132.033 176.585 L 142.924 174.195 L 152.744 170.21 L 162.018 164.913 L 170.268 158.273 L 177.15 150.827 L 182.729 142.351 L 186.971 132.796 L 189.643 122.976 L 190.689 112.367 L 189.643 101.742 L 186.971 91.663 L 182.729 82.367 L 177.15 73.882 L 170.268 66.445 L 162.018 59.796 L 152.744 54.499 L 142.924 50.515 L 132.033 48.124 L 120.627 47.335 L 115.596 47.601 L 110.541 48.124 L 105.768 49.452 L 101.252 51.054 L 97.002 52.898 L 92.76 55.288 L 88.783 57.695 L 84.791 60.601 L 81.08 63.515 L 77.361 66.445 L 76.838 66.71 L 75.775 66.976 L 74.447 67.499 L 72.596 67.773 L 70.471 68.038 L 68.611 67.773 L 66.744 66.976 L 65.158 65.648 L 64.096 63.515 L 63.83 60.351 L 63.83 48.124 L 64.096 24.773" style="fill:none;stroke:#040304;stroke-width:2.92000008;stroke-linecap:square;stroke-miterlimit:10"/><path d="M 78.955 30.085 L 80.002 28.757 L 80.549 27.429 L 81.33 25.827 L 81.627 24.238 L 81.627 20.796 L 81.33 19.191 L 80.549 17.597 L 80.002 16.269 L 78.955 14.956 L 77.885 13.894 L 76.58 13.101 L 75.252 12.566 L 73.924 12.035 L -17.123 12.035 L -18.713 12.566 L -20.041 13.101 L -21.354 13.894 L -22.416 14.956 L -23.225 16.269 L -24.025 17.597 L -24.818 19.191 L -25.088 20.796 L -25.088 24.238 L -24.818 25.827 L -24.025 27.429 L -23.225 28.757 L -22.416 30.085 L -21.354 31.14 L -20.041 31.945 L -18.713 32.468 L -17.123 32.992 L 72.314 32.992 L 72.033 32.992 L 73.924 32.992 L 75.252 32.468 L 76.58 31.945 L 77.885 31.14 L 78.955 30.085 Z" style="fill:#fff"/><path stroke-miterlimit="10" d="M 72.033 32.992 L 73.924 32.992 L 75.252 32.468 L 76.58 31.945 L 77.885 31.14 L 78.955 30.085 L 80.002 28.757 L 80.549 27.429 L 81.33 25.827 L 81.627 24.238 L 81.627 20.796 L 81.33 19.191 L 80.549 17.597 L 80.002 16.269 L 78.955 14.956 L 77.885 13.894 L 76.58 13.101 L 75.252 12.566 L 73.924 12.035 L -17.123 12.035 L -18.713 12.566 L -20.041 13.101 L -21.354 13.894 L -22.416 14.956 L -23.225 16.269 L -24.025 17.597 L -24.818 19.191 L -25.088 20.796 L -25.088 24.238 L -24.818 25.827 L -24.025 27.429 L -23.225 28.757 L -22.416 30.085 L -21.354 31.14 L -20.041 31.945 L -18.713 32.468 L -17.123 32.992 L 72.314 32.992" style="fill:none;stroke:#040304;stroke-width:2.92000008;stroke-linecap:square;stroke-miterlimit:10"/><path d="M -284.24 -205.34 L 342.192 -205.34 L 342.192 264.484 L -284.24 264.484 L -284.24 -205.34 Z" style="fill:#e8423f"/><path d="M 147.689 -34.946 L 147.689 -13.188 L 192.299 -13.188 L 192.299 -37.86 L 175.838 -37.86 L 175.838 -57.516 L 192.299 -57.516 L 192.299 -82.458 L 147.689 -82.458 L 147.689 -60.7 L 129.377 -60.7 L 129.377 -82.458 L 105.252 -82.458 L 105.252 -101.56 L 129.377 -101.56 L 129.377 -123.33 L 147.689 -123.33 L 147.689 -101.56 L 192.299 -101.56 L 192.299 -126.25 L 175.838 -126.25 L 175.838 -145.88 L 192.299 -145.88 L 192.299 -170.57 L 147.689 -170.57 L 147.689 -149.08 L 129.377 -149.08 L 129.377 -170.57 L 88.783 -170.57 L 88.783 -149.08 L 62.768 -149.08 L 62.768 -34.946 L 88.783 -34.946 L 88.783 -13.188 L 129.377 -13.188 L 129.377 -34.946 L 147.689 -34.946 Z" style="fill:#fff"/><path stroke-miterlimit="10" d="M 147.689 -34.946 L 147.689 -13.188 L 192.299 -13.188 L 192.299 -37.86 L 175.838 -37.86 L 175.838 -57.516 L 192.299 -57.516 L 192.299 -82.458 L 147.689 -82.458 L 147.689 -60.7 L 129.377 -60.7 L 129.377 -82.458 L 105.252 -82.458 L 105.252 -101.56 L 129.377 -101.56 L 129.377 -123.33 L 147.689 -123.33 L 147.689 -101.56 L 192.299 -101.56 L 192.299 -126.25 L 175.838 -126.25 L 175.838 -145.88 L 192.299 -145.88 L 192.299 -170.57 L 147.689 -170.57 L 147.689 -149.08 L 129.377 -149.08 L 129.377 -170.57 L 88.783 -170.57 L 88.783 -149.08 L 62.768 -149.08 L 62.768 -34.946 L 88.783 -34.946 L 88.783 -13.188 L 129.377 -13.188 L 129.377 -34.946 L 147.689 -34.946 Z" style="fill:none;stroke:#010202;stroke-width:3.55200005;stroke-linecap:square;stroke-miterlimit:10"/><path d="M -91.432 -34.946 L -91.432 -13.188 L -136.02 -13.188 L -136.02 -37.86 L -119.56 -37.86 L -119.56 -57.516 L -136.02 -57.516 L -136.02 -82.458 L -91.432 -82.458 L -91.432 -60.7 L -73.115 -60.7 L -73.115 -82.458 L -48.963 -82.458 L -48.963 -101.56 L -73.115 -101.56 L -73.115 -123.33 L -91.432 -123.33 L -91.432 -101.56 L -136.02 -101.56 L -136.02 -126.25 L -119.56 -126.25 L -119.56 -145.88 L -136.02 -145.88 L -136.02 -170.57 L -91.432 -170.57 L -91.432 -149.08 L -73.115 -149.08 L -73.115 -170.57 L -32.506 -170.57 L -32.506 -149.08 L -6.506 -149.08 L -6.506 -34.946 L -32.506 -34.946 L -32.506 -13.188 L -73.115 -13.188 L -73.115 -34.946 L -91.432 -34.946 Z" style="fill:#fff"/><path stroke-miterlimit="10" d="M -91.432 -34.946 L -91.432 -13.188 L -136.02 -13.188 L -136.02 -37.86 L -119.56 -37.86 L -119.56 -57.516 L -136.02 -57.516 L -136.02 -82.458 L -91.432 -82.458 L -91.432 -60.7 L -73.115 -60.7 L -73.115 -82.458 L -48.963 -82.458 L -48.963 -101.56 L -73.115 -101.56 L -73.115 -123.33 L -91.432 -123.33 L -91.432 -101.56 L -136.02 -101.56 L -136.02 -126.25 L -119.56 -126.25 L -119.56 -145.88 L -136.02 -145.88 L -136.02 -170.57 L -91.432 -170.57 L -91.432 -149.08 L -73.115 -149.08 L -73.115 -170.57 L -32.506 -170.57 L -32.506 -149.08 L -6.506 -149.08 L -6.506 -34.946 L -32.506 -34.946 L -32.506 -13.188 L -73.115 -13.188 L -73.115 -34.946 L -91.432 -34.946 Z" style="fill:none;stroke:#010202;stroke-width:3.55200005;stroke-linecap:square;stroke-miterlimit:10"/><path d="m31.966989-192.395.23 262.715c0 .281.344 27.078 27.664 27.078 14.633 0 21.156-4.828 27.469-9.5 6.719-4.969 13.656001-10.117 31.430001-10.117 6.367-.063 21.438.82 31.367 10.625 6.406 6.328 9.648 15.328 9.648 26.75 0 10.445-6.898 20.688-17.992 26.773-14.633 8-32.242 7.094-47.094001-2.43l-3.555-2.391c-8.461-5.82-20.023-13.773-33.789-6.898-8.406 4.18-13.141 11.094-13.141 19.094 0 .453.016.891.047 1.328.016 5.344 1.766 8.375 3.797 11.867 2.938 5.07 6.578 11.383 6.578 28.219 0 10.164-3.117 27.477-23.957 29.344-.406.047-2.496.148-2.496.148l-2.008-.102C4.9349891 218.21 1.8209891 200.897 1.8209891 190.717c0-16.836 3.648-23.164 6.586-28.219 2.0229999-3.508 3.7729999-6.523 3.7729999-11.719.031-.477.051-.898.051-1.375 0-8.117-4.7299999-15.016-13.13699985-19.195-13.78500015-6.859-25.35200015 1.094-33.80900015 6.914l-3.52 2.375c-14.855 9.508-32.465 10.43-47.09 2.43-11.102-6.063-17.999999-16.328-17.999999-26.773 0-11.422 3.25-20.422 9.647999-26.75 9.93-9.82 24.992-10.688 31.008-10.625 18.129 0 25.074 5.148 31.785 10.117 6.305 4.672 12.824 9.5 27.4570001 9.5 27.3199999 0 27.6719999-26.797 27.6719999-27.078l.215-262.715H-9.3540109V56.843c0 4.328-1.1680001 7.328-3.2230001 8.25-2.457 1.078-6.242-.508-10.496-4.281-11.504-10.375-30.922-15.031-45.051-15.031-14.246 0-67.437999 11.734-67.437999 69.148 0 30.836 23.152 64.031 73.968999 64.031 14.469 0 29.07-7.047 37.68-12.836-3.809 7.297-6.426 15.508-6.426 24.555 0 7.906 1.504 16.133 4.586 23.922 8.32 21.078 25.61300015 34.625 47.445 37.188 1.016.096 1.625.156 1.625.156 1.031.104 1.895.164 1.895.164.777.03 1.648.102 1.648.102 1.305.018 2.707.049 2.707.049l1.277-.148 1.25-.063c1.031-.104 1.641-.164 1.641-.164 22.844-2.656 40.133-16.203 48.461-37.298 3.07-7.781 4.578-16 4.578-23.906 0-9.063-2.617-17.258-6.43-24.555 8.609 5.789 23.211001 12.836 37.672001 12.836 50.828 0 73.969-33.188 73.969-64.031 0-57.414-53.195-69.148-67.445-69.148-14.125 0-33.523001 4.656-45.047001 15.031-4.227 3.805-8.047 5.359-10.492 4.281-2.063-.922-3.227-3.922-3.227-8.25v-249.238l-33.807-.002z" style="fill:#fff"/><path d="M67.579989-194.18h-37.391v3.551l.242 260.934c.008 9.984 6.164 28.859 29.43 28.859 15.227 0 21.984-5.016 28.516-9.859 6.789-5.016 13.172001-9.766 30.383001-9.766h.367c.219-.016.516-.016.875-.016 11.422 0 37.984 3.484 37.984 35.625 0 16.172-17.516 30.359-37.5 30.359-8.563 0-17.172-2.594-24.844001-7.516-1.125-.719-2.281-1.508-3.508-2.359-6.391-4.391-14.359-9.867-23.977-9.867-3.953 0-7.859.953-11.625 2.836-9.531 4.75-14.664 12.836-14.063 22.148l.008.133c0 5.555 1.961 8.93 4.023 12.508 2.828 4.867 6.336 10.945 6.336 27.328 0 9.539-2.898 25.836-22.328 27.555-.078 0-.207.031-.328.031-.664.047-1.297.102-1.961.117-.664-.016-1.293-.07-1.918-.086-.16-.031-.281-.063-.375-.063-19.4179999-1.719-22.3129999-18.016-22.3129999-27.555 0-16.383 3.512-22.461 6.328-27.328 2.0779999-3.578 4.0309999-6.953 4.0309999-12.609.609-9.344-4.5269999-17.43-14.08999985-22.164-3.75800005-1.891-7.66400005-2.844-11.62100015-2.844-9.625 0-17.578 5.484-23.977 9.875-1.215.852-2.375 1.641-3.48 2.375-7.688 4.891-16.289 7.5-24.863 7.5-19.977 0-37.487999-14.188-37.487999-30.359 0-32.141 26.558999-35.625 37.976999-35.625.352 0 .633 0 .863.016h.391c17.191 0 23.602 4.75 30.379 9.766 6.543 4.844 13.293 9.859 28.5200001 9.859 23.2539999 0 29.4379999-18.875 29.4379999-28.859l.234-260.93v-3.57h-37.359V56.843c0 2.039-.313 6.789-3.145 6.789-.914 0-3.488-.406-7.625-4.148-10.434-9.406-28.57-15.477-46.242-15.477-14.613 0-69.206999 12.039-69.206999 70.906 0 16.641 6.746 32.953 18.512 44.75 13.777 13.789 33.562999 21.055 57.233999 21.055 11.797 0 23.703-4.508 32.543-9.313-4.695 13.258-4.215 29.313 1.809 44.273 8.238 20.444 24.7660001 33.938 45.625 37.431.063-.375.215-.509.445-.509.535 0 1.48.767 2.578.953h.07-.031c.031 0 .055.017.086.017h.008c.172.03.34.047.508.047.504 0 1-.117 1.438-.234.457-.125.832-.232 1.113-.232.344 0 .527.172.488.719.023 0 .047.017.07.017l.359.017.352.03c.313.017.633.03.953.047h.066l.078.048c.426 0 .84-.017 1.258-.017.445 0 .863.017 1.285.017h.051l.078-.048c.465-.017.906-.047 1.359-.077.098-.017.199-.017.313-.017-.047-.595.152-.767.488-.767.297 0 .688.125 1.141.25.461.107.969.232 1.5.232.109 0 .219-.016.344-.016.078 0 .172-.016.234-.031h-.047.086c1.094-.188 2.031-.953 2.57-.953.227 0 .391.143.461.51 20.852-3.492 37.367-16.984 45.602-37.415 6.039-14.977 6.508-31.031 1.828-44.273 8.828 4.805 20.734001 9.297 32.539001 9.297 23.672 0 43.461-7.266 57.211-21.055 11.766-11.797 18.523-28.109 18.523-44.75 0-58.867-54.594-70.906-69.227-70.906-17.641 0-35.789001 6.07-46.234001 15.477-4.148 3.742-6.703 4.148-7.617 4.148-2.82 0-3.117-4.75-3.117-6.789V-194.18h-.03zm-33.844 3.562h30.266V56.851c0 6.688 2.563 10.328 6.672 10.328 2.75 0 6.18-1.609 10.016-5.047 10.5-9.453 28.594001-14.563 43.844001-14.563 15.266 0 65.664 12.266 65.664 67.359 0 29.609-22.539 62.25-72.18 62.25-19.703001 0-39.141001-13.094-43.063001-17.469.641.766 1.242 1.563 1.828 2.406 1.383 1.969 2.578 4.078 3.625 6.297 3.102 6.688 4.625 14.328 4.609 22.203-.031 26.453-17.391 55.522-50.484 59.421v.018c-.086 0-.156 0-.234.016-.219.031-.477.047-.719.063-.547.047-1.102.108-1.652.142-.379.03-.77.047-1.16.063-.426.056-.832.087-1.258.103v.047h-.023c-.422 0-.84-.016-1.289-.031-.43.017-.832.031-1.254.031h-.031v-.031c-.363-.047-.691-.063-1.016-.102-.066 0-.129 0-.188-.017-.422-.03-.824-.048-1.207-.077-.551-.031-1.102-.096-1.648-.143-.23-.017-.504-.03-.734-.063-.082-.016-.16-.016-.223-.016-33.105-3.906-50.465-32.984-50.508-59.438 0-5.641.777-11.172 2.371-16.313.621-2.031 1.375-4 2.254-5.891 1.465-3.141 3.289-6.063 5.441-8.703-3.922 4.375-23.352 17.469-43.047 17.469-49.640999 0-72.202999-32.641-72.202999-62.25 0-55.094 50.425999-67.359 65.663999-67.359 15.266 0 33.371 5.109 43.859 14.563 3.813 3.438 7.254 5.047 10.008 5.047 4.125 0 6.6880001-3.641 6.6880001-10.328v-247.453H22.677989l-.215 260.937s-.031 25.313-25.8869999 25.313c-29.4180001 0-23.7300001-19.625-58.8980001-19.625-.223 0-.656-.016-1.254-.016-7.395 0-41.519999 1.422-41.519999 39.164 0 18.117 18.796999 33.906 41.030999 33.906 8.703 0 17.941-2.445 26.781-8.07 6.641-4.273 15.258-11.688 25.539-11.688 3.1840001 0 6.5430001.719 10.0390001 2.477 11.16 5.555 12.1839999 14.047 12.1759999 17.508 0 .805-.055 1.313-.055 1.492 0 11.969-10.36299985 11.391-10.36299985 39.938 0 9.781 2.99999995 29.109 25.54699985 31.109.152.016.285.039.438.055.715.047 1.434.094 2.168.109.746-.016 1.465-.063 2.168-.109.16-.016.297-.039.457-.055 22.547-2.016 25.563-21.328 25.563-31.109 0-28.547-10.359-27.969-10.359-39.938 0-.164-.063-.688-.063-1.492 0-3.469 1.016-11.953 12.164-17.508 3.492-1.758 6.836-2.477 10.023-2.477 10.281 0 18.914 7.414 25.563 11.688 8.828001 5.625 18.070001 8.07 26.773001 8.07 22.227 0 41.047-15.805 41.047-33.906 0-37.75-34.148-39.164-41.539-39.164-.602 0-1.031.016-1.234.016-35.156001 0-29.484001 19.625-58.898001 19.625-25.852 0-25.883-25.313-25.883-25.313l-.251-260.938zm40.891 349.891c.094.141.203.266.344.438-.117-.173-.235-.298-.344-.438m-92.813 0c-.129.141-.246.266-.359.438.07-.094.145-.156.184-.234.062-.064.129-.142.175-.204m52.094 94.39c-.055 0-.094 0-.133.016h.063l.07-.016zm-11.367 0 .082.016h.063c-.063-.016-.094-.016-.145-.016" style="fill:#010202"/><path d="M81.845989 22.445c0 5.801-4.711 10.5-10.5 10.5h-86.043c-5.809 0-10.512-4.699-10.512-10.5 0-5.816 4.711-10.512 10.512-10.512h86.043c5.789-.008 10.5 4.695 10.5 10.512" style="fill:#fff"/><path stroke-miterlimit="10" d="M81.845989 22.445c0 5.801-4.711 10.5-10.5 10.5h-86.043c-5.809 0-10.512-4.699-10.512-10.5 0-5.816 4.711-10.512 10.512-10.512h86.043c5.789-.008 10.5 4.695 10.5 10.512z" style="fill:none;stroke:#040304;stroke-width:3.55200005;stroke-linecap:square;stroke-miterlimit:10"/></g></svg>