<svg xmlns="http://www.w3.org/2000/svg" viewBox="0 0 640 480"><g transform="matrix(1.016605, 0, 0, 1.016605, 290.280548, 210.111832)"><path d="M 29.24 -206.68 L 344.013 -206.68 L 344.013 265.48 L 29.24 265.48 L 29.24 -206.68 Z" style="fill:#e8423f"/><path d="M -285.54 -206.68 L 29.233 -206.68 L 29.233 265.48 L -285.54 265.48 L -285.54 -206.68 Z" style="fill:#fff"/><path d="M 157.814 -83.07 L 126.533 -62.758 L 137.236 -97.512 L 108.892 -116.5 L 144.447 -116.5 L 157.814 -152.87 L 171.189 -116.5 L 206.744 -116.5 L 178.673 -97.246 L 189.384 -62.758 L 157.814 -83.07 Z" style="fill:#fff"/><path d="M 157.814 -83.07 L 126.533 -62.758 L 137.236 -97.512 L 108.892 -116.5 L 144.447 -116.5 L 157.814 -152.87 L 171.189 -116.5 L 206.744 -116.5 L 178.673 -97.246 L 189.384 -62.758 L 157.814 -83.07 Z" style="fill:none;stroke:#010202;stroke-width:3.55200005"/><path d="M 157.814 5.367 L 126.533 25.68 L 137.236 -9.086 L 108.892 -28.07 L 144.447 -28.07 L 157.814 -64.43 L 171.189 -28.07 L 206.744 -28.07 L 178.673 -8.809 L 189.384 25.68 L 157.814 5.367 Z" style="fill:#fff"/><path d="M 157.814 5.367 L 126.533 25.68 L 137.236 -9.086 L 108.892 -28.07 L 144.447 -28.07 L 157.814 -64.43 L 171.189 -28.07 L 206.744 -28.07 L 178.673 -8.809 L 189.384 25.68 L 157.814 5.367 Z" style="fill:none;stroke:#010202;stroke-width:3.55200005"/><path d="M 157.814 93.793 L 126.533 114.105 L 137.236 79.348 L 108.892 60.363 L 144.447 60.363 L 157.814 23.992 L 171.189 60.363 L 206.744 60.363 L 178.673 79.613 L 189.384 114.105 L 157.814 93.793 Z" style="fill:#fff"/><path d="M 157.814 93.793 L 126.533 114.105 L 137.236 79.348 L 108.892 60.363 L 144.447 60.363 L 157.814 23.992 L 171.189 60.363 L 206.744 60.363 L 178.673 79.613 L 189.384 114.105 L 157.814 93.793 Z" style="fill:none;stroke:#010202;stroke-width:3.55200005"/><path d="M 157.814 182.207 L 126.533 202.535 L 137.236 167.777 L 108.892 148.793 L 144.447 148.793 L 157.814 112.433 L 171.189 148.793 L 206.744 148.793 L 178.673 168.051 L 189.384 202.535 L 157.814 182.207 Z" style="fill:#fff"/><path d="M 157.814 182.207 L 126.533 202.535 L 137.236 167.777 L 108.892 148.793 L 144.447 148.793 L 157.814 112.433 L 171.189 148.793 L 206.744 148.793 L 178.673 168.051 L 189.384 202.535 L 157.814 182.207 Z" style="fill:none;stroke:#010202;stroke-width:3.55200005"/><path d="M -99.26 -83.07 L -130.55 -62.758 L -119.86 -97.512 L -148.19 -116.5 L -112.63 -116.5 L -99.26 -152.87 L -85.897 -116.5 L -50.319 -116.5 L -78.409 -97.246 L -67.706 -62.758 L -99.26 -83.07 Z" style="fill:#e8423f"/><path d="M -99.26 -83.07 L -130.55 -62.758 L -119.86 -97.512 L -148.19 -116.5 L -112.63 -116.5 L -99.26 -152.87 L -85.897 -116.5 L -50.319 -116.5 L -78.409 -97.246 L -67.706 -62.758 L -99.26 -83.07 Z" style="fill:none;stroke:#010202;stroke-width:3.55200005"/><path d="M -99.26 5.367 L -130.55 25.68 L -119.86 -9.086 L -148.19 -28.07 L -112.63 -28.07 L -99.26 -64.43 L -85.897 -28.07 L -50.319 -28.07 L -78.409 -8.809 L -67.706 25.68 L -99.26 5.367 Z" style="fill:#e8423f"/><path d="M -99.26 5.367 L -130.55 25.68 L -119.86 -9.086 L -148.19 -28.07 L -112.63 -28.07 L -99.26 -64.43 L -85.897 -28.07 L -50.319 -28.07 L -78.409 -8.809 L -67.706 25.68 L -99.26 5.367 Z" style="fill:none;stroke:#010202;stroke-width:3.55200005"/><path d="M -99.26 93.793 L -130.55 114.105 L -119.86 79.348 L -148.19 60.363 L -112.63 60.363 L -99.26 23.992 L -85.897 60.363 L -50.319 60.363 L -78.409 79.613 L -67.706 114.105 L -99.26 93.793 Z" style="fill:#e8423f"/><path d="M -99.26 93.793 L -130.55 114.105 L -119.86 79.348 L -148.19 60.363 L -112.63 60.363 L -99.26 23.992 L -85.897 60.363 L -50.319 60.363 L -78.409 79.613 L -67.706 114.105 L -99.26 93.793 Z" style="fill:none;stroke:#010202;stroke-width:3.55200005"/><path d="M -99.26 182.207 L -130.55 202.535 L -119.86 167.777 L -148.19 148.793 L -112.63 148.793 L -99.26 112.433 L -85.897 148.793 L -50.319 148.793 L -78.409 168.051 L -67.706 202.535 L -99.26 182.207 Z" style="fill:#e8423f"/><path d="M -99.26 182.207 L -130.55 202.535 L -119.86 167.777 L -148.19 148.793 L -112.63 148.793 L -99.26 112.433 L -85.897 148.793 L -50.319 148.793 L -78.409 168.051 L -67.706 202.535 L -99.26 182.207 Z" style="fill:none;stroke:#010202;stroke-width:3.55200005"/><path d="M 29.224 -190.19 L 29.224 -120.41 L -2.327 -100.35 L 8.376 -134.85 L -19.706 -154.1 L 15.849 -154.1 L 29.224 -190.19 Z" style="fill:#e8423f"/><path d="M 29.224 -120.41 L 29.224 -190.19 L 42.579 -153.83 L 78.173 -153.83 L 49.814 -134.85 L 60.775 -100.09 L 29.224 -120.41 Z" style="fill:#fff"/><path d="M 29.224 -120.41 L -2.327 -100.35 L 8.376 -134.85 L -19.706 -154.1 L 15.849 -154.1 L 29.224 -190.19 L 42.579 -153.83 L 78.173 -153.83 L 49.814 -134.85 L 60.775 -100.09 L 29.224 -120.41 Z" style="fill:none;stroke:#010202;stroke-width:3.55200005"/><path d="M 29.224 -101.77 L 29.224 -31.969 L -2.327 -11.91 L 8.376 -46.406 L -19.706 -65.664 L 15.849 -65.664 L 29.224 -101.77 Z" style="fill:#e8423f"/><path d="M 29.224 -31.969 L 29.224 -101.77 L 42.579 -65.406 L 78.173 -65.406 L 49.814 -46.406 L 60.775 -11.633 L 29.224 -31.969 Z" style="fill:#fff"/><path d="M 29.224 -31.969 L -2.327 -11.91 L 8.376 -46.406 L -19.706 -65.664 L 15.849 -65.664 L 29.224 -101.77 L 42.579 -65.406 L 78.173 -65.406 L 49.814 -46.406 L 60.775 -11.633 L 29.224 -31.969 Z" style="fill:none;stroke:#010202;stroke-width:3.55200005"/><path d="M 29.224 -13.336 L 29.224 56.465 L -2.327 76.488 L 8.376 42.019 L -19.706 22.777 L 15.849 22.777 L 29.224 -13.336 Z" style="fill:#e8423f"/><path d="M 29.224 56.465 L 29.224 -13.336 L 42.579 23.039 L 78.173 23.039 L 49.814 42.019 L 60.775 76.777 L 29.224 56.465 Z" style="fill:#fff"/><path d="M 29.224 56.465 L -2.327 76.488 L 8.376 42.019 L -19.706 22.777 L 15.849 22.777 L 29.224 -13.336 L 42.579 23.039 L 78.173 23.039 L 49.814 42.019 L 60.775 76.777 L 29.224 56.465 Z" style="fill:none;stroke:#010202;stroke-width:3.55200005"/><path d="M 29.224 75.09 L 29.224 144.879 L -2.327 164.926 L 8.376 130.465 L -19.706 111.191 L 15.849 111.191 L 29.224 75.09 Z" style="fill:#e8423f"/><path d="M 29.224 144.879 L 29.224 75.09 L 42.579 111.465 L 78.173 111.465 L 49.814 130.465 L 60.775 165.223 L 29.224 144.879 Z" style="fill:#fff"/><path d="M 29.224 144.879 L -2.327 164.926 L 8.376 130.465 L -19.706 111.191 L 15.849 111.191 L 29.224 75.09 L 42.579 111.465 L 78.173 111.465 L 49.814 130.465 L 60.775 165.223 L 29.224 144.879 Z" style="fill:none;stroke:#010202;stroke-width:3.55200005"/><path d="M 29.224 163.535 L 29.224 233.332 L -2.327 253.379 L 8.376 218.879 L -19.706 199.613 L 15.849 199.613 L 29.224 163.535 Z" style="fill:#e8423f"/><path d="M 29.224 233.332 L 29.224 163.535 L 42.579 199.894 L 78.173 199.894 L 49.814 218.879 L 60.775 253.629 L 29.224 233.332 Z" style="fill:#fff"/><path d="M 8.376 218.879 L -19.706 199.613 L 15.849 199.613 L 29.224 163.535 L 42.579 199.894 L 78.173 199.894 L 49.814 218.879 L 60.775 253.629 L 29.224 233.332 L -2.327 253.379 L 8.376 218.879 Z" style="fill:none;stroke:#010202;stroke-width:3.55200005"/><path stroke-miterlimit="10" d="M 29.24 -206.66 L 29.24 265.465" style="fill:none;stroke:#010202;stroke-width:3.55200005;stroke-miterlimit:10"/></g></svg>