<svg xmlns="http://www.w3.org/2000/svg" viewBox="0 0 640 480"><path fill="#e20000" d="M0 0h640v240H0z"/><path fill="#fff" d="M0 240h640v240H0z"/><path fill="#fff" stroke="#000" stroke-miterlimit="10" stroke-width="3" d="M 161.526 51.016 C 161.526 51.016 161.526 140.31 161.526 185.228 C 161.526 229.966 158.273 277.143 167.943 313.295 C 177.072 347.548 196.955 374.662 221.267 394.455 C 233.468 404.397 247.025 412.802 263.745 419.038 C 280.194 425.184 298.902 430.064 320.322 429.883 C 362.981 429.522 395.336 413.796 419.377 394.455 C 443.779 374.843 463.301 347.006 472.158 312.662 C 481.467 276.33 478.575 229.514 478.575 184.595 C 478.575 139.587 478.575 50.112 478.575 50.112 L 161.798 50.112 L 161.526 51.016 Z"/><path fill="#e64625" d="M 470.532 209.45 C 454.625 186.132 440.164 161.368 427.511 135.881 L 426.156 133.079 L 428.867 134.706 C 431.217 136.152 433.476 137.96 435.826 139.948 C 441.43 144.558 447.846 149.8 456.432 149.8 L 456.613 149.8 C 461.042 149.8 464.747 148.444 467.639 145.732 C 451.914 134.797 439.441 123.77 430.675 113.015 L 428.867 110.756 L 431.669 111.569 C 436.188 112.835 440.887 113.558 445.225 113.558 C 445.949 113.558 446.762 113.558 447.485 113.467 C 452.727 113.196 457.336 111.84 460.771 109.671 C 464.657 107.231 467.007 103.797 468.001 99.549 C 457.272 97.963 438.485 94.424 433.449 92.98 C 430.606 92.165 426.875 91.675 424.89 90.15 L 423.354 88.884 L 425.342 88.523 C 432.392 87.348 439.532 85.721 444.683 82.377 C 449.925 78.852 452.637 73.701 452.817 66.651 C 442.876 69.362 431.759 70.176 420.01 70.718 L 419.377 70.718 L 414.226 70.989 L 413.774 70.989 L 411.785 71.08 C 409.707 71.17 407.628 71.17 405.549 71.26 C 400.85 71.351 395.969 71.441 391.721 72.164 C 387.112 72.887 383.858 74.333 381.689 76.502 C 378.887 79.214 377.08 83.913 376.628 89.246 C 376.086 96.566 379.249 100.633 382.593 104.249 C 383.045 104.701 383.949 105.424 384.852 106.327 C 387.473 108.587 388.888 109.821 389.249 110.816 C 390.334 114.34 389.281 120.246 388.648 122.505 C 388.106 124.403 387.293 125.849 386.479 127.295 C 385.847 128.47 385.214 129.555 384.852 130.73 L 384.762 130.91 L 384.581 131.091 C 381.87 134.074 377.441 135.339 373.284 136.514 C 372.019 136.875 370.844 137.237 369.669 137.598 C 369.217 139.225 369.398 140.491 370.211 141.214 C 370.844 141.846 372.019 142.208 373.465 142.208 C 374.73 142.208 376.266 141.937 377.532 141.394 C 380.334 140.31 385.485 136.423 387.473 133.441 C 390.817 128.561 392.414 122.206 391.963 113.258 L 391.631 111.479 L 392.896 111.931 L 393.71 112.202 C 394.885 112.563 396.15 112.925 396.782 114.1 L 396.873 114.281 L 396.873 114.461 C 397.415 129.103 393.167 141.304 384.672 149.89 C 376.538 158.205 364.879 162.543 350.96 162.543 L 349.605 162.543 L 349.243 162.543 L 348.972 162.272 C 348.159 161.549 347.616 160.735 347.074 160.012 C 346.351 159.018 345.628 158.024 344.363 157.03 C 343.64 156.488 342.736 156.126 341.832 155.765 C 339.482 154.77 336.771 153.686 337.765 149.077 L 337.765 148.896 L 337.855 148.805 C 338.94 147.088 340.657 146.094 343.007 146.004 C 339.753 140.491 342.917 131.814 345.538 128.199 L 345.99 127.657 L 346.622 127.928 L 347.074 128.109 C 348.43 128.651 350.147 129.374 351.593 129.374 C 352.226 129.374 352.858 129.193 353.31 128.922 C 353.129 128.289 352.768 127.747 352.316 127.024 C 351.683 126.03 350.96 124.945 350.78 123.409 C 350.237 119.613 351.593 115.636 352.858 111.75 C 353.853 108.587 354.937 105.333 354.937 102.351 L 354.937 101.718 L 355.57 101.537 C 356.474 101.266 357.558 101.176 358.552 101.176 C 358.914 101.176 359.275 101.176 359.637 101.085 C 355.841 97.922 354.576 92.047 353.22 85.992 C 351.683 78.852 350.057 71.531 344.092 69.272 L 342.826 68.82 L 343.73 67.826 C 344.001 67.555 344.272 67.284 344.634 67.013 C 343.549 67.193 342.465 67.284 341.29 67.284 C 337.946 67.284 334.331 66.651 330.896 66.018 C 327.372 65.386 324.028 64.843 321.045 64.843 C 317.882 64.843 315.532 65.476 313.634 66.832 C 313.182 67.193 312.593 67.499 312.231 68.041 C 311.779 68.764 311.555 69.724 310.29 70.447 L 310.109 70.537 L 310.109 70.718 C 310.742 74.695 313.905 75.779 317.882 77.135 C 319.237 77.587 320.684 78.039 322.13 78.762 C 323.666 79.485 325.112 80.479 326.377 81.654 L 328.908 84.094 L 325.474 83.19 C 324.66 83.01 323.937 82.829 323.124 82.738 C 323.756 82.919 324.299 83.1 324.931 83.371 C 328.546 85.088 330.535 88.342 330.173 92.228 L 330.083 93.132 C 330.264 93.222 330.535 93.222 330.716 93.313 L 331.439 93.494 L 331.439 94.217 L 331.439 94.307 L 331.439 94.488 L 331.439 95.482 L 330.444 95.392 L 326.106 95.12 C 327.281 95.301 328.366 95.572 329.36 95.934 L 329.993 96.205 L 329.902 96.928 C 329.541 99.82 327.372 100.724 325.383 101.085 C 326.016 101.085 326.739 101.176 327.372 101.176 L 328.275 101.176 L 330.173 101.085 L 329.089 102.622 C 327.372 104.972 325.112 106.147 322.401 106.147 L 322.31 106.147 C 321.768 106.147 321.135 106.147 320.593 106.056 C 321.768 106.508 322.853 106.96 323.847 107.593 L 324.028 107.683 L 324.118 107.864 C 325.022 109.491 325.293 111.027 324.751 112.383 C 323.576 115.727 314.84 118.49 311.315 119.845 C 306.263 121.909 304.485 123.118 301.704 126.843 C 302.879 126.12 304.235 125.488 305.771 125.036 C 307.307 124.584 308.753 124.313 310.2 124.313 C 312.188 124.313 313.995 124.765 315.532 125.759 L 316.345 126.301 L 315.803 127.114 C 314.628 128.832 313.272 130.187 311.917 131.543 C 310.832 132.628 309.657 133.802 308.753 135.068 C 307.759 136.333 306.946 137.598 306.223 138.773 C 304.144 141.937 302.337 144.829 298.631 146.275 C 299.896 146.546 301.071 146.907 301.885 147.811 L 302.427 148.353 L 301.975 148.986 C 301.342 149.8 301.252 151.336 301.162 152.782 C 300.981 154.499 300.891 156.216 299.987 157.482 L 299.625 158.024 L 298.993 157.843 C 298.179 157.572 297.366 157.482 296.643 157.482 C 294.022 157.482 292.033 159.018 290.226 160.555 C 288.509 161.91 287.275 162.933 285.106 163.024 C 272.638 163.236 258.478 157.004 250.188 150.432 C 239.55 137.112 235.374 120.214 237.716 115.456 C 239.829 114.026 240.884 113.595 243.229 113.829 C 242.793 121.071 243.97 129.701 247.567 134.797 C 251.273 139.767 257.45 142.599 264.59 143.503 C 265.855 142.509 266.819 140.037 265.824 137.958 C 262.034 136.427 257.567 136.855 254.377 134.855 C 247.156 129.587 244.283 120.745 244.675 112.744 C 249.893 105.583 256.055 102.186 256.695 94.397 C 257.057 88.613 255.452 82.776 252.288 79.161 C 249.125 75.456 244.404 73.972 238.258 73.429 C 234.643 73.158 230.666 72.978 225.605 72.978 C 222.261 72.978 218.917 73.068 215.663 73.068 C 212.41 73.158 209.066 73.158 205.812 73.158 C 197.768 73.158 188.55 72.887 180.506 70.718 C 180.596 73.701 181.139 76.322 182.223 78.581 C 183.308 80.931 184.844 82.919 186.923 84.636 C 190.538 87.529 195.599 89.517 202.558 90.511 C 203.01 90.601 203.372 90.601 203.914 90.601 C 205.541 90.692 207.258 90.873 208.614 92.138 L 209.608 93.132 L 208.343 93.674 C 197.136 98.193 184.392 101.447 169.209 103.616 C 169.751 108.316 171.92 111.75 175.445 114.1 C 178.608 116.179 182.946 117.173 188.007 117.173 L 188.279 117.173 C 192.978 117.173 198.039 116.179 202.92 114.461 L 205.631 113.558 L 204.004 115.907 C 198.311 123.951 191.08 130.639 184.031 137.147 C 179.421 141.394 174.631 145.823 170.384 150.613 C 172.824 152.511 175.535 153.505 178.337 153.686 L 179.331 153.686 C 181.771 153.686 184.392 153.053 187.104 151.878 C 192.888 149.348 198.491 144.648 202.92 140.852 C 204.095 139.858 205.179 138.864 206.264 138.05 L 209.156 135.7 L 207.71 139.135 C 200.751 155.222 192.526 170.496 184.663 185.318 C 179.512 194.808 174.27 204.659 169.389 214.692 C 169.932 214.782 170.474 214.782 171.016 214.782 C 173.456 214.782 175.987 214.059 178.608 212.613 C 181.771 210.896 184.573 208.365 187.013 206.196 C 194.695 198.966 201.112 189.837 207.348 180.89 C 211.235 175.377 216.301 168.199 220.097 163.59 L 220.697 165.46 C 215.183 174.318 210.783 184.595 208.162 195.26 C 206.083 203.756 204.908 212.613 203.553 222.103 C 203.101 225.175 202.739 228.339 202.197 231.502 C 199.937 246.866 194.515 260.242 189.273 273.257 C 186.381 280.307 183.76 287.085 181.5 293.954 C 185.063 293.882 188.937 293.308 191.984 291.604 C 195.69 289.525 199.214 285.91 202.558 280.849 C 203.984 277.075 209.849 267.124 211.144 264.671 C 211.235 264.309 211.325 263.948 211.506 263.677 C 217.109 251.114 221.448 237.377 225.515 224.001 L 225.515 223.91 C 226.599 220.385 227.684 216.861 228.859 213.336 C 229.13 212.342 229.491 211.348 229.762 210.353 C 231.389 205.202 233.016 199.869 235.276 195.17 L 236.902 191.645 L 236.993 195.531 C 237.625 233.761 232.835 268.648 228.045 297.93 C 243.5 296.213 249.284 284.102 253.894 271.721 C 257.418 262.321 259.859 253.374 261.395 244.245 C 263.947 230.355 262.377 220.605 264.293 207.885 L 264.739 212.974 C 266.637 218.036 267.179 224.814 267.812 232.587 C 268.7 241.434 270.302 256.152 276.036 257.441 C 284.887 256.646 285.14 232.262 285.377 226.713 C 285.648 219.934 285.98 213.006 286.611 206.648 L 287.424 202.219 L 288.328 206.557 C 289.322 211.167 289.684 215.143 290.135 219.03 C 290.497 222.464 290.858 225.899 291.582 229.694 C 291.762 230.508 291.943 231.321 292.033 232.135 C 293.028 236.834 293.931 241.715 293.66 246.776 C 291.923 257.459 290.498 262.595 282.512 273.588 C 279.801 276.841 277.392 280.397 279.561 285.277 C 283.016 287.186 286.462 289.226 289.322 290.971 C 294.929 293.559 297.204 290.316 298.721 286.181 C 299.444 284.193 299.716 281.933 299.987 279.674 C 300.49 276.272 301.577 268.983 305.56 268.766 C 309.54 270.487 309.091 277.966 309.205 281.12 L 309.205 282.024 C 309.477 288.441 308.482 297.298 306.133 301.094 C 303.331 305.432 297.727 305.884 292.214 306.336 C 288.87 306.607 285.707 306.788 283.357 307.962 C 279.173 311.663 278.992 317.462 275.856 321.939 C 279.005 322.638 281.856 320.308 284.323 319.892 L 287.709 319.528 C 295.332 321.672 299.98 319.294 306.946 317.362 L 306.404 319.079 C 304.325 325.496 302.698 330.557 298.541 334.624 C 292.033 341.131 281.369 342.397 270.975 343.662 C 261.937 344.747 252.538 345.922 246.573 350.621 C 243.138 353.333 240.246 358.032 238.8 363.184 C 237.173 369.059 237.625 375.114 239.975 380.266 C 242.144 384.061 246.392 386.982 251.001 388.7 C 255.15 390.134 259.142 390.747 263.112 389.665 C 256.343 387.01 248.413 382.586 246.605 374.723 C 245.43 369.481 246.031 363.997 249.465 359.478 C 253.875 354.265 260.969 349.548 265.645 351.193 C 264.265 354.912 260.702 358.078 258.322 360.292 C 254.165 364.088 250.188 367.612 251.363 374.029 C 254.451 379.648 260.752 367.878 266.394 365.292 C 271.094 361.948 276.395 359.418 281.637 356.978 C 287.964 353.995 294.564 351.435 299.173 347.368 C 303.692 343.481 307.398 338.239 310.109 334.172 L 312.369 330.738 L 311.736 334.805 C 310.29 343.843 308.482 350.169 306.042 354.598 C 303.15 360.021 296.64 360.802 290.404 362.338 C 286.789 363.242 283.477 364.388 280.465 366.618 C 278.853 369.133 280.798 372.028 281.911 374.21 C 278.572 378.197 273.828 380.959 269.891 382.977 C 273.596 382.525 277.211 381.802 280.555 380.717 C 284.803 379.362 288.87 377.554 292.576 375.114 C 299.083 371.047 304.867 365.443 310.2 357.942 C 311.675 355.832 313.023 353.213 314.809 351.887 L 316.345 350.802 L 316.255 352.7 C 316.074 355.773 315.984 358.846 315.893 361.738 C 315.713 368.968 315.532 375.747 313.544 382.886 C 312.64 386.321 310.651 388.942 308.844 391.472 C 303.286 397.437 305.098 406.475 312.674 405.812 C 314.455 408.042 314.942 410.697 316.255 412.802 C 317.339 414.609 318.424 416.507 319.689 418.134 C 322.111 413.695 323.912 409.22 326.435 405.601 C 332.332 407.126 335.494 401.404 334.15 396.714 C 333.788 395.449 332.976 393.972 331.801 392.617 C 324.136 382.72 322.484 364.791 323.756 354.869 L 324.028 352.61 C 331.496 360.639 336.587 369.816 344.092 375.566 C 351.593 381.26 359.998 384.242 369.759 384.604 C 364.965 382.07 361.012 379.11 357.648 375.747 C 358.737 374.715 359.824 373.248 359.637 371.951 C 359.456 370.324 357.616 367.337 355.447 365.981 C 349.879 363.12 344.248 363.232 339.244 359.869 C 330.567 354.175 328.275 344.927 326.468 334.715 L 326.468 334.624 L 325.835 330.828 C 327.691 333.4 329.767 336.284 331.167 338.691 C 333.337 342.216 335.898 345.529 339.061 348.15 C 352.209 356.551 368.207 362.321 379.339 372.131 C 382.62 374.478 385.052 378.988 387.293 377.645 C 388.468 376.47 388.92 373.849 388.648 372.131 C 388.106 368.516 385.124 365.895 382.231 363.274 C 379.61 360.924 377.08 358.665 376.266 355.773 L 376.086 353.873 C 392.309 357.003 395.179 366.533 395.336 374.752 C 394.885 382.695 387.327 390.627 377.928 391.893 C 380.006 392.525 381.026 393.008 383.105 393.008 C 386.652 392.924 390.385 392.125 392.896 390.569 C 395.788 388.671 398.229 385.959 399.855 382.706 C 401.573 379.362 402.386 375.475 402.296 371.589 C 402.024 363.365 399.647 356.765 393.682 352.608 C 387.988 348.631 380.487 346.915 373.076 345.469 C 365.267 342.747 355.402 343.075 348.49 340.226 C 344.514 338.509 340.657 335.799 337.584 331.009 C 335.415 327.665 332.704 322.513 332.162 316.82 L 331.981 314.831 L 333.608 315.916 C 334.331 316.368 334.873 316.91 335.415 317.452 C 336.229 318.266 336.952 318.898 338.127 319.35 C 339.663 319.892 341.471 320.164 344.001 320.164 L 344.182 320.164 L 344.182 319.892 L 344.272 318.989 L 344.272 319.892 L 344.272 320.164 C 346.08 320.164 347.978 319.983 349.876 319.892 C 351.774 319.712 353.762 319.621 355.57 319.621 C 357.016 319.621 358.281 319.712 359.366 319.892 C 360.36 320.073 361.173 320.525 361.896 320.887 C 362.71 321.339 363.252 321.61 364.065 321.61 L 364.427 321.61 C 366.144 321.429 366.506 320.977 366.596 320.887 C 366.867 320.344 365.873 318.989 365.15 317.995 C 364.788 317.452 364.427 316.91 364.065 316.458 C 363.523 315.464 363.071 314.199 362.71 312.933 C 362.258 311.668 361.896 310.403 361.444 309.77 C 359.546 306.878 355.75 306.878 351.412 306.788 C 347.978 306.697 344.785 306.335 341.441 304.979 C 337.826 303.533 334.873 300.642 333.156 295.581 C 331.439 290.7 331.167 285.549 331.167 283.018 C 331.167 281.572 331.8 272.986 334.421 270.726 C 334.873 270.274 335.415 270.094 336.048 270.094 L 336.319 270.094 C 338.127 270.365 339.03 272.986 339.663 275.516 L 339.753 275.697 C 340.205 277.505 340.386 279.674 340.567 281.933 C 341.109 288.441 341.742 292.779 345.628 293.321 C 345.809 293.231 345.899 293.05 346.08 292.508 C 346.261 291.965 346.986 290.879 347.437 290.427 C 352.688 289.825 356.239 280.398 359.727 275.697 C 359.275 273.257 358.914 270.726 357.92 268.467 C 357.377 267.202 356.383 266.027 355.479 264.852 C 355.027 264.309 354.576 263.767 354.214 263.315 C 350.057 257.712 347.616 249.487 347.074 239.365 C 346.622 230.689 347.616 220.657 349.876 211.167 L 350.78 207.28 L 351.593 211.257 C 352.678 216.318 353.129 222.012 353.581 227.525 C 354.124 233.31 354.576 239.365 355.75 244.607 C 357.375 249.099 358.059 254.254 362.044 256.505 L 367.319 255.995 C 370.305 249.607 370.212 241.955 370.574 234.454 C 371.025 226.41 371.841 218.246 373.555 211.98 L 375.634 206.738 L 375.272 212.432 C 374.278 230.146 376.809 246.234 383.497 264.581 C 386.027 271.54 389.281 279.493 394.252 285.639 C 399.313 291.785 405.368 295.219 412.87 296.032 C 408.351 274.884 404.555 251.656 401.934 228.971 C 401.392 224.452 401.301 219.662 401.211 215.053 L 401.211 214.963 C 401.211 212.432 401.121 209.901 401.03 207.371 C 400.94 206.015 400.85 204.659 400.759 203.485 C 400.488 200.231 400.217 196.977 400.759 193.814 L 401.301 190.56 L 402.476 193.633 C 405.73 201.767 408.622 210.353 411.695 219.482 L 411.695 219.572 C 418.654 239.998 425.794 261.056 436.549 276.601 C 436.82 277.053 437.091 277.414 437.453 277.866 C 439.532 280.849 441.791 284.193 443.779 285.82 C 447.304 288.802 453.36 289.616 459.053 290.158 C 456.613 283.379 453.811 276.782 450.919 269.732 C 445.316 256.447 439.441 242.799 436.459 227.254 C 435.826 223.91 435.193 220.657 434.651 217.403 C 433.024 208.184 431.398 199.508 429.138 191.374 C 426.427 181.523 421.546 173.479 416.847 165.706 L 416.666 165.345 C 416.214 164.622 415.762 163.808 415.31 162.995 L 415.848 160.518 C 419.463 164.495 423.896 170.587 427.602 175.467 C 430.403 179.173 433.205 182.969 436.278 186.674 C 439.08 190.108 442.243 193.543 445.316 196.797 L 446.762 198.333 L 447.123 198.785 C 450.106 202.038 453.54 205.654 457.517 208.094 C 460.409 209.811 463.211 210.624 466.103 210.624 C 467.639 210.082 469.086 209.901 470.532 209.45 Z M 328.908 75.599 C 328.185 76.322 327.01 76.683 325.654 76.683 C 325.112 76.683 324.208 76.593 323.485 76.231 C 322.401 75.689 321.858 74.604 322.13 73.339 L 322.31 72.255 L 323.304 72.616 C 323.937 72.797 324.208 73.249 324.479 73.61 L 324.931 74.062 C 325.293 73.972 325.564 73.791 325.925 73.52 C 326.558 73.158 327.281 72.616 328.456 72.616 L 328.998 72.616 L 329.269 73.158 C 329.812 73.972 329.631 74.876 328.908 75.599 Z" style="fill:#da121a"/><path d="M 344.544 68.368 C 356.745 72.797 351.864 95.843 361.987 101.357 C 360.541 102.17 357.739 101.628 356.112 102.26 C 356.202 109.039 351.051 116.45 351.955 123.228 C 352.316 125.759 354.304 127.024 354.576 129.103 C 352.406 131.182 348.972 129.464 346.622 128.47 C 343.64 132.537 340.657 142.117 345.176 146.727 C 342.013 146.365 340.025 147.359 338.94 149.077 C 337.765 154.59 342.284 154.047 345.176 156.126 C 347.616 157.934 348.159 159.832 349.876 161.458 C 378.707 162.001 397.144 143.744 396.15 114.281 C 395.517 113.106 393.89 113.015 392.625 112.473 C 392.987 120.426 392.083 128.018 388.196 133.712 C 385.937 137.056 380.605 140.852 377.893 141.937 C 373.645 143.654 366.867 143.202 369.036 136.604 C 374.369 134.797 380.605 133.802 384.039 130.097 C 384.852 127.295 386.931 125.217 387.835 121.872 C 388.558 119.252 389.643 114.1 388.739 110.937 C 388.377 109.671 383.226 105.785 381.96 104.429 C 378.616 100.905 375.182 96.566 375.724 88.794 C 376.086 83.733 377.893 78.581 381.057 75.508 C 387.293 69.362 400.217 70.447 411.695 69.905 C 427.059 69.272 441.158 68.82 453.54 65.205 C 453.631 82.738 440.074 86.534 425.252 89.065 C 427.602 91.053 431.036 91.686 434.109 92.59 C 444.412 95.572 456.523 97.018 468.905 98.464 C 466.284 113.467 447.846 116.811 431.126 112.021 C 441.249 124.403 454.986 135.7 468.905 145.371 C 465.922 148.444 461.855 150.342 456.523 150.342 C 443.96 150.432 436.278 139.948 428.234 134.977 C 441.249 161.368 455.8 186.222 471.887 209.63 C 460.228 213.607 452.275 204.659 446.22 198.152 C 442.605 194.266 438.899 190.38 435.645 186.313 C 428.505 177.636 422.269 168.237 415.852 161.278 C 421.094 170.044 426.879 178.902 430.042 190.199 C 433.115 201.406 435.013 213.788 437.453 226.17 C 442.062 250.03 453.36 269.551 460.5 290.158 C 454.354 289.525 447.395 288.802 443.418 285.458 C 440.978 283.47 438.266 279.222 436.007 276.059 C 420.462 253.645 412.418 219.753 401.753 192.91 C 401.03 197.158 401.844 201.858 402.024 206.467 C 402.386 213.607 402.115 221.108 402.928 227.977 C 405.73 251.928 409.616 275.426 414.135 296.123 C 395.969 294.767 388.468 279.222 382.864 263.948 C 377.08 248.132 373.374 231.502 374.64 211.167 C 369.759 223.278 372.651 243.161 368.132 255.724 C 366.415 256.627 364.246 257.079 361.354 256.898 C 351.774 247.409 354.033 226.079 350.78 210.263 C 346.351 228.339 346.17 250.12 354.937 261.869 C 356.202 263.496 357.92 265.304 358.733 267.202 C 360.992 272.353 360.36 278.499 363.162 283.108 C 370.934 295.942 378.526 306.697 385.575 318.808 C 390.908 320.796 394.523 318.175 395.879 314.379 C 396.421 312.843 395.969 310.764 396.782 309.409 C 397.867 307.42 401.663 307.239 404.465 305.613 C 405.64 304.89 406.995 302.901 408.261 302.359 C 411.424 301.094 415.762 302.449 418.564 303.534 C 416.124 304.167 412.78 303.805 411.785 305.884 C 412.147 308.053 414.316 307.33 414.406 309.137 C 414.768 313.114 407.447 313.566 404.645 312.12 C 403.29 312.662 404.555 314.65 404.645 315.645 C 403.019 317.452 399.946 317.814 399.946 321.248 C 403.47 322.875 407.266 321.158 410.882 319.441 C 412.328 318.808 414.045 317.271 415.581 317.362 C 417.208 317.543 419.106 320.254 420.914 320.887 C 427.511 323.236 437.814 318.989 438.899 326.219 C 437.001 325.225 433.657 325.406 433.024 327.394 C 433.115 329.563 435.103 329.563 434.832 331.551 C 434.47 333.63 431.759 334.534 429.228 333.63 C 427.15 332.907 425.161 328.298 421.817 328.298 C 419.196 330.557 414.949 329.834 413.864 326.852 C 409.526 327.755 405.64 329.021 401.753 330.376 C 403.47 335.438 411.153 337.155 415.943 340.137 C 416.847 341.674 417.208 343.752 417.389 346.012 C 415.31 346.012 415.762 343.481 413.593 343.662 C 411.424 344.656 412.328 347.368 410.339 348.091 C 406.453 349.627 404.555 340.77 400.307 340.408 C 400.036 339.234 399.223 338.782 398.861 337.787 C 395.969 336.251 392.806 334.986 390.275 333.088 C 383.587 331.642 378.526 331.642 371.386 332.817 C 369.759 335.076 361.806 337.426 360.812 333.449 C 360.179 331.009 362.077 330.648 362.89 328.75 C 362.529 325.586 359.185 328.478 358.733 327.846 C 361.806 320.073 371.838 328.659 379.068 324.863 C 371.296 311.487 362.167 299.467 352.226 288.26 C 351.412 289.887 350.328 291.242 347.526 290.881 C 346.803 291.604 346.984 293.321 345.718 293.502 C 338.759 292.688 340.476 281.662 338.94 275.245 C 338.669 274.161 337.855 270.455 336.319 270.274 C 333.156 269.823 332.162 280.307 332.162 282.385 C 332.162 289.525 334.06 300.913 341.561 303.895 C 349.062 306.878 358.462 303.082 362.167 308.595 C 363.162 310.041 363.794 313.566 364.788 315.374 C 366.144 317.723 370.121 321.248 364.517 321.881 C 362.348 322.152 361.354 320.525 359.185 320.073 C 353.129 318.898 343.82 321.7 337.946 319.441 C 335.777 318.627 335.054 317.091 333.246 315.916 C 333.698 320.977 336.138 325.948 338.579 329.744 C 341.019 333.449 344.363 337.245 348.882 339.143 C 356.022 342.126 364.788 342.578 372.742 344.114 C 388.739 347.187 402.838 352.067 403.38 370.685 C 403.832 386.592 389.552 398.793 373.555 391.021 C 384.581 390.749 394.342 384.875 394.794 373.939 C 395.246 363.365 386.57 356.406 377.351 354.779 C 378.887 360.744 388.558 363.997 389.733 371.318 C 390.185 373.939 388.92 378.91 385.575 378.368 C 383.226 378.006 380.966 374.12 378.797 372.131 C 372.109 366.076 362.89 361.647 354.576 357.671 C 348.43 354.688 342.555 351.796 338.398 348.271 C 333.698 344.204 330.896 338.059 327.462 333.54 C 329.269 343.843 330.806 353.333 339.302 358.936 C 343.64 361.828 352.406 362.913 356.745 365.715 C 359.818 367.793 362.8 371.68 359.094 375.114 C 363.071 379.362 368.223 382.435 374.097 384.875 C 347.978 385.507 335.777 369.691 324.841 354.236 C 323.033 367.161 325.022 379.904 329.812 388.128 C 331.439 390.93 334.331 393.461 335.144 395.811 C 336.771 400.601 333.698 407.65 327.462 406.114 C 324.841 410.271 322.31 414.519 320.051 419.128 C 316.797 415.152 314.718 410.091 311.465 406.114 C 306.675 406.566 303.602 403.222 304.415 397.889 C 305.229 392.467 311.103 388.58 313.001 381.983 C 315.713 372.041 314.99 362.642 315.622 351.887 C 313.544 353.333 312.549 355.863 311.194 357.761 C 301.704 371.047 288.238 382.254 266.095 383.429 C 271.517 380.537 277.392 378.006 281.098 373.397 C 279.38 371.137 277.844 367.703 280.194 365.172 C 288.418 360.292 301.071 361.647 305.59 353.333 C 308.392 348.271 310.019 341.041 311.194 333.54 C 308.392 337.787 304.596 343.12 299.987 347.096 C 291.22 354.688 277.844 358.123 267.541 365.353 C 265.552 366.799 263.022 368.697 260.491 370.956 C 257.961 373.126 252.267 380.989 250.73 373.306 C 248.652 362.19 261.214 358.846 264.016 351.525 C 254.345 351.887 244.313 362.28 246.934 373.668 C 248.923 382.073 256.424 387.767 266.727 388.4 C 255.972 393.822 243.771 387.677 239.343 379.814 C 233.92 368.155 239.162 354.598 246.121 349.175 C 259.045 339.053 286.068 345.199 297.998 333.269 C 301.975 329.292 303.602 324.411 305.681 317.904 C 302.156 319.169 296.191 321.429 290.045 321.158 C 287.966 321.067 285.797 320.073 283.809 320.254 C 280.375 320.706 277.663 324.502 274.681 322.062 C 276.308 319.802 277.031 317.814 277.934 315.554 C 279.29 312.21 279.561 307.962 282.905 306.426 C 289.232 303.444 301.162 306.516 305.319 299.919 C 307.579 296.394 308.573 287.718 308.302 281.301 C 308.121 277.053 308.03 269.732 305.319 269.461 C 304.144 269.371 302.788 270.907 302.337 271.811 C 300.529 275.607 300.981 281.21 299.354 285.639 C 298.27 288.802 296.372 291.152 294.383 293.05 C 292.214 292.508 289.593 292.327 288.509 290.7 C 278.748 302.178 268.896 313.566 259.316 325.225 C 265.372 328.027 274.229 321.971 278.748 326.4 C 277.663 327.846 275.404 328.207 274.048 329.382 C 274.319 331.551 276.398 331.009 275.856 333.178 C 275.133 336.161 268.264 335.166 266.998 332.907 C 261.576 333.63 257.418 330.648 252.538 332.274 C 249.465 333.359 247.748 337.155 244.313 337.607 C 243.048 342.758 235.999 342.578 233.739 346.735 C 232.474 348.994 233.468 351.977 231.389 354.146 C 229.853 354.508 228.587 355.321 226.961 354.779 C 225.786 354.327 226.328 352.067 225.786 350.983 C 223.346 351.164 222.803 353.061 222.261 355.14 C 220.725 352.519 221.628 348.271 222.894 346.012 C 223.707 345.56 224.611 345.199 225.515 344.837 C 228.949 338.239 238.439 337.697 240.517 329.834 C 237.625 329.292 234.191 327.123 231.118 327.755 C 229.762 328.027 229.401 329.382 228.136 329.563 C 226.509 329.744 225.695 328.207 224.34 328.117 C 222.894 328.027 220.002 329.382 219.007 330.196 C 217.471 331.461 217.561 334.082 215.754 335.528 C 213.946 336.432 210.873 336.161 209.246 335.257 C 208.072 333.901 209.608 331.642 208.343 330.557 C 206.806 329.292 205.631 332.094 204.818 331.461 C 204.637 324.321 213.223 325.677 219.55 322.604 C 221.267 321.79 223.255 319.441 225.153 319.079 C 230.395 318.085 235.637 322.694 240.517 323.236 C 242.687 318.808 237.445 317 236.089 314.108 C 231.118 313.024 227.955 314.289 223.436 313.837 C 222.08 311.939 223.436 309.589 224.34 308.234 C 223.346 306.516 220.725 305.341 218.104 306.155 C 219.64 304.438 221.899 302.811 223.978 302.901 C 225.424 302.992 226.599 304.528 228.136 305.251 C 232.564 307.33 238.981 308.505 243.5 309.68 C 245.759 311.216 246.302 322.062 250.278 322.062 C 252.267 322.062 257.057 315.012 258.232 313.476 C 265.281 304.528 272.692 293.502 278.838 285.458 C 275.675 278.86 280.826 274.703 283.538 270.998 C 288.057 264.852 291.943 256.898 292.666 246.234 C 293.028 240.54 291.672 234.846 290.587 229.423 C 289.051 221.289 289.141 214.782 287.334 206.106 C 284.17 222.193 287.424 244.788 279.923 256.537 C 269.619 262.502 268.083 246.414 267.27 237.377 C 266.366 227.616 266.095 218.578 263.745 212.613 C 265.01 235.388 261.305 253.916 254.617 271.63 C 249.917 284.825 243.681 297.117 227.141 298.382 C 232.474 266.388 236.902 231.864 236.27 194.899 C 233.558 200.592 231.751 206.919 229.762 213.155 C 224.34 230.146 219.459 247.68 212.319 263.586 C 211.867 264.581 211.687 266.569 210.241 266.84 C 207.077 275.516 201.022 287.266 192.526 291.875 C 189.634 293.502 185.567 294.586 180.416 294.225 C 186.652 273.89 197.859 254.639 201.383 230.779 C 203.281 218.036 204.547 205.834 207.258 194.537 C 209.969 183.33 214.037 173.931 219.64 165.074 C 209.337 177.455 200.209 194.537 187.465 206.377 C 182.856 210.624 175.716 216.77 168.034 214.963 C 180.687 189.114 195.328 165.164 206.987 138.321 C 198.311 145.371 182.946 161.73 169.209 150.432 C 180.054 138.141 193.792 128.561 203.372 115.004 C 188.821 120.155 169.661 119.342 168.305 102.622 C 182.856 100.543 196.232 97.38 208.072 92.59 C 206.625 91.144 204.276 91.415 202.468 91.144 C 190.357 89.246 179.873 84.004 179.964 69.272 C 196.684 74.243 219.278 70.718 238.62 72.255 C 251.815 73.339 258.593 82.015 257.78 94.036 C 257.147 103.616 251.001 106.508 245.669 112.292 C 245.217 121.782 248.923 130.73 254.526 134.074 C 257.78 135.972 262.57 135.068 266.366 137.327 C 267.812 140.039 266.366 142.931 264.558 144.106 C 249.194 142.388 240.608 131.001 242.415 114.01 C 240.337 113.829 239.343 114.642 238.258 115.456 C 236.812 142.931 258.503 163.266 284.532 162.091 C 289.322 161.82 291.853 154.138 299.264 156.488 C 300.8 154.499 299.806 149.98 301.342 147.902 C 299.806 146.275 296.372 146.636 293.931 145.823 C 302.517 145.371 303.692 139.767 308.121 133.983 C 310.29 131.182 313.092 129.103 315.17 126.03 C 309.748 122.596 301.704 126.663 299.535 129.284 C 301.523 122.867 306.856 120.969 313.995 118.077 C 318.514 116.269 326.92 113.648 323.395 107.773 C 318.424 104.881 311.103 104.339 305.681 101.899 C 308.663 94.94 328.095 104.52 328.998 96.295 C 324.751 94.759 318.063 94.94 313.092 95.12 C 307.127 95.392 301.523 96.115 296.552 97.47 C 289.051 99.459 283.447 104.52 276.217 105.695 C 290.045 97.651 306.765 86.444 329.269 91.867 C 330.173 83.371 318.786 80.208 313.905 85.359 C 307.759 80.389 297.004 80.298 294.745 88.613 C 294.293 90.059 295.92 90.963 295.377 91.596 C 290.678 88.432 291.672 79.214 295.649 75.96 C 297.366 74.514 299.987 74.424 302.156 72.978 C 304.686 71.351 305.319 67.284 309.838 69.453 C 311.736 68.459 311.736 66.922 313.092 65.928 C 322.491 59.24 340.567 71.26 350.237 63.578 C 350.78 64.211 348.701 64.934 347.616 65.657 C 346.532 66.561 345.176 67.645 344.544 68.368 Z M 311.465 70.176 C 311.013 72.616 312.007 74.785 314.718 74.876 C 316.888 68.82 325.112 68.73 331.529 66.922 C 325.564 65.024 312.73 63.94 311.465 70.176 Z M 334.24 67.555 C 333.065 67.826 331.89 69.001 330.716 69.362 C 325.383 70.899 318.153 70.357 316.888 75.87 C 318.966 77.587 320.412 77.768 323.395 78.22 C 330.625 79.304 336.409 84.727 344.001 85.269 C 342.555 85.811 340.296 85.631 338.669 86.173 C 341.651 89.336 344.995 101.176 339.844 105.604 C 339.753 103.074 341.38 100.995 340.476 98.555 C 337.132 100.001 336.229 106.508 334.873 110.937 C 334.24 109.219 334.692 106.418 333.969 104.701 C 329.721 106.508 330.354 114.913 326.287 115.907 C 326.739 113.015 328.818 108.587 328.366 106.779 C 326.287 106.689 327.281 109.671 326.92 111.208 C 324.57 120.336 310.019 117.082 305.681 124.222 C 311.013 124.584 317.882 123.499 322.22 124.855 C 313.905 127.295 310.29 134.526 306.042 141.033 C 308.663 141.394 312.73 140.219 313.995 141.937 C 309.657 142.75 305.048 143.383 301.885 145.461 C 304.867 146.184 309.748 145.1 312.188 146.365 C 310.2 147.721 305.861 146.727 303.602 147.811 C 302.427 150.794 302.246 154.861 301.252 158.114 C 296.01 157.572 292.937 159.289 290.045 161.097 C 288.328 166.7 286.882 170.948 286.52 177.004 C 284.803 204.208 296.372 225.808 294.745 249.578 C 294.293 256.175 291.762 260.604 289.141 264.942 C 285.436 270.907 279.019 275.878 280.284 284.374 C 283.99 286.091 284.622 282.295 287.334 282.566 C 291.582 283.018 287.966 288.531 290.587 291.152 C 292.214 291.152 291.13 288.35 292.937 288.531 C 293.931 288.983 293.118 291.152 294.112 291.514 C 302.337 289.164 295.92 266.388 307.398 267.654 C 307.488 268.015 307.759 268.286 308.302 268.286 C 311.013 278.951 312.459 292.688 307.669 300.732 C 305.048 305.251 298.812 307.059 292.937 307.511 C 290.678 307.691 287.695 306.968 284.984 307.782 C 280.736 309.047 281.188 313.747 279.652 317.181 C 278.928 318.898 277.211 319.441 277.302 321.61 C 281.007 322.062 283.538 318.627 287.605 318.627 C 288.78 318.627 289.864 319.35 290.858 319.531 C 301.162 320.977 307.579 315.102 309.115 305.341 C 304.596 309.137 296.643 316.368 286.972 312.391 C 285.707 313.024 285.436 314.65 283.719 314.741 C 284.713 312.843 285.707 311.035 287.243 309.77 C 300.258 312.753 308.121 305.251 312.278 296.755 C 312.369 302.901 311.103 307.149 309.928 311.758 C 306.584 324.321 301.162 337.155 289.322 341.222 C 282.092 343.752 274.138 342.939 266.908 344.204 C 260.943 345.289 253.803 346.464 248.923 349.537 C 243.771 352.79 239.523 360.382 238.891 366.98 C 237.445 381.079 246.302 389.575 259.497 389.394 C 256.605 386.682 252.628 385.236 249.736 381.983 C 245.488 377.193 243.681 368.787 246.754 362.19 C 250.098 355.14 258.322 350.531 267.36 349.537 C 266.004 357.038 255.972 361.105 253.171 366.618 C 252.357 368.245 251.182 373.577 253.803 375.204 C 267.993 356.496 300.077 355.411 309.567 332.455 C 311.194 328.569 311.555 324.05 313.363 319.441 C 313.272 324.592 313.544 328.207 313.092 332.726 C 312.098 342.487 308.211 356.677 300.981 360.744 C 296.191 363.455 280.917 362.551 280.646 368.697 C 280.465 371.86 283.267 371.499 285.345 372.493 C 282.724 376.289 278.386 378.368 275.042 381.35 C 295.92 376.47 308.121 362.913 316.616 345.65 C 317.43 362.642 316.797 379.452 311.013 390.207 C 309.748 392.557 307.398 394.365 306.584 396.714 C 304.506 402.679 308.663 406.295 314.809 404.668 C 314.899 408.012 315.893 409.729 317.159 411.717 C 317.882 412.892 318.966 414.519 320.141 414.971 C 322.31 413.254 324.479 408.916 325.112 404.668 C 327.823 405.3 330.535 404.758 332.523 403.764 C 333.969 401.866 333.879 397.347 332.794 395.178 C 330.987 391.744 328.727 389.575 327.191 386.592 C 322.13 376.921 323.033 361.919 323.033 347.368 C 332.071 364.63 343.369 379.723 366.054 383.338 C 362.619 379.542 356.835 378.006 354.576 373.035 C 356.112 372.945 358.281 373.397 359.004 372.403 C 359.366 370.053 358.01 368.697 356.654 367.703 C 349.424 362.371 339.121 362.913 333.969 356.225 C 327.281 347.548 324.299 332.636 325.112 318.175 C 327.643 336.251 336.048 346.464 349.605 353.604 C 359.456 358.755 369.85 363.455 377.893 370.143 C 380.514 372.312 382.593 375.204 385.575 376.921 C 388.468 376.289 388.558 373.035 387.654 370.414 C 385.304 363.726 373.555 359.569 373.826 351.796 C 384.672 354.236 395.517 360.111 396.24 371.86 C 396.963 384.242 388.92 387.857 381.78 392.467 C 393.167 391.653 399.584 385.869 401.211 375.927 C 402.386 368.787 400.398 361.376 397.686 357.309 C 386.931 341.312 351.593 348.814 339.573 334.895 C 333.246 324.502 326.829 312.662 327.191 296.575 C 330.354 305.703 336.138 312.21 348.701 311.939 C 351.503 307.601 356.835 312.21 357.829 314.56 C 355.479 314.65 355.118 312.753 353.129 312.481 C 345.357 316.187 335.686 311.487 330.716 307.782 C 331.89 314.741 339.302 320.344 347.255 319.26 C 349.785 318.898 352.135 317.723 354.937 317.814 C 358.281 317.814 361.083 318.898 364.336 318.989 C 364.336 316.82 362.348 315.102 361.354 312.753 C 360.992 311.758 361.083 310.403 360.45 309.499 C 358.191 306.336 353.491 307.691 348.068 307.149 C 335.506 305.884 329.993 297.84 330.354 283.289 C 330.535 275.788 331.619 264.129 338.94 268.828 C 339.211 271.449 340.025 274.342 340.386 277.414 C 341.109 282.837 340.657 289.164 344.544 291.604 C 345.718 290.971 345.357 288.802 346.622 288.35 C 348.159 287.989 348.43 290.158 349.605 289.254 C 351.322 284.102 351.864 277.957 353.762 273.076 C 355.299 272.263 356.293 273.709 358.191 273.347 C 355.208 261.779 345.99 255.995 345.176 242.709 C 344.905 238.913 345.267 234.846 345.809 230.327 C 347.526 214.42 351.051 196.164 350.237 178.992 C 350.057 174.744 349.966 168.508 348.791 164.802 C 346.441 157.934 338.85 154.228 330.806 158.295 C 334.06 152.601 336.048 144.648 335.506 136.152 C 338.579 141.214 336.59 149.528 334.873 154.77 C 335.867 154.77 336.319 154.228 337.494 154.499 C 336.138 149.709 338.217 146.275 341.019 144.196 C 339.482 134.074 346.261 128.47 345.447 119.161 C 346.622 117.263 347.345 113.377 349.243 113.287 C 347.616 117.715 343.64 128.199 351.322 128.922 C 347.616 119.071 356.654 106.96 352.226 95.572 C 354.576 97.109 354.756 100.724 358.462 100.905 C 353.581 93.945 353.129 82.648 345.809 78.22 C 339.844 78.039 336.409 70.176 330.806 73.52 C 330.896 74.966 333.608 73.881 333.788 75.327 C 330.987 75.87 327.552 78.31 324.389 77.677 C 322.13 77.225 321.316 75.237 319.689 74.152 C 323.937 68.549 337.494 73.701 341.471 67.645 C 339.302 67.916 336.681 67.013 334.24 67.555 Z M 423.263 71.622 C 413.864 72.074 404.013 71.622 395.879 72.255 C 382.051 73.158 375.182 83.01 379.068 97.922 C 379.701 97.561 380.153 98.645 380.243 97.922 C 378.164 94.217 379.701 86.444 382.864 86.082 C 382.141 87.529 381.87 88.794 381.689 90.24 C 380.243 104.881 390.546 108.316 399.675 112.925 C 398.59 112.744 398.409 113.377 398.5 114.371 C 397.505 145.642 381.508 161.82 351.322 163.899 C 351.593 164.983 351.593 166.429 351.955 167.423 C 381.057 166.972 399.313 149.167 401.482 121.421 C 401.844 116.45 401.121 112.563 400.036 108.406 C 390.637 112.383 386.57 96.838 396.511 97.199 C 390.275 85.902 413.141 86.173 406.543 97.199 C 416.575 95.12 415.039 110.214 406.543 108.677 C 408.08 151.065 387.835 171.762 353.491 178.269 C 352.226 187.126 351.864 197.791 352.316 208.094 C 352.587 213.788 353.853 219.301 354.395 224.633 C 355.57 236.834 355.389 248.132 361.806 255.633 C 363.885 256.447 366.415 255.724 367.68 254.729 C 369.307 250.843 369.578 246.143 369.759 241.444 C 370.301 228.339 371.657 217.222 374.188 207.19 C 374.73 204.84 374.911 202.219 376.266 200.412 C 374.459 237.738 382.051 265.846 396.873 286.543 C 401.121 289.706 405.188 294.586 412.508 293.592 C 404.917 260.604 400.488 224.452 399.494 184.776 C 398.229 185.228 396.873 186.132 395.065 185.951 C 391.812 185.68 389.914 181.523 388.287 181.794 C 391.269 212.884 394.704 244.968 400.126 272.624 C 396.511 267.021 396.24 259.429 394.794 252.289 C 391.089 233.761 390.637 211.709 386.841 193.001 C 383.226 195.712 376.628 193.181 374.459 190.018 C 374.82 196.706 371.838 199.96 365.331 199.779 C 363.252 214.601 366.325 230.689 365.963 244.878 C 363.252 231.412 360.992 213.245 364.156 198.875 C 360.45 194.808 355.389 190.47 356.745 182.336 C 360.45 187.759 360.541 198.333 370.301 196.797 C 372.019 194.718 372.742 192.458 372.651 189.114 C 372.561 185.047 369.85 180.167 372.651 178.178 C 375.092 184.053 375.453 193.362 384.491 191.735 C 386.66 188.843 386.841 183.059 385.937 178.45 C 385.485 176.009 383.316 173.027 385.937 172.213 C 389.462 176.19 390.637 185.228 398.59 182.788 C 400.94 177.907 398.5 173.75 396.782 170.677 C 395.788 168.869 394.071 166.881 394.704 165.345 C 398.952 166.52 400.488 172.846 407.718 172.123 C 409.978 170.767 408.893 167.062 407.718 165.074 C 405.73 161.639 400.669 159.199 401.844 156.488 C 405.097 156.849 408.984 160.735 413.683 159.741 C 417.208 153.867 408.622 151.426 406.272 147.63 C 408.893 146.727 415.22 150.974 418.112 147.359 C 418.835 140.942 410.882 141.665 409.887 137.96 C 413.322 137.237 417.66 137.327 419.648 134.977 C 420.552 129.284 414.135 131.091 411.062 129.374 C 412.78 125.849 420.733 128.38 419.648 123.499 C 418.925 120.426 412.96 122.596 411.966 120.246 C 416.756 117.625 420.371 121.601 422.269 124.403 C 426.246 130.097 430.946 133.802 436.73 138.864 C 440.978 142.569 445.677 146.727 450.558 147.992 C 454.896 149.077 462.578 148.986 466.193 145.371 C 451.733 133.893 436.368 121.692 424.89 108.225 C 438.086 113.738 464.838 116.269 466.465 99.639 C 448.027 97.38 430.675 93.945 416.033 87.8 C 434.29 87.438 451.642 84.546 452.275 67.464 C 444.502 69.001 434.29 71.17 423.263 71.622 Z M 338.307 71.622 C 339.573 74.695 343.73 74.876 346.532 76.322 C 347.797 77.587 350.96 81.112 351.864 80.75 C 350.87 74.424 344.724 67.103 338.307 71.622 Z M 335.415 102.351 C 337.855 100.453 340.748 95.843 339.844 91.415 C 339.03 87.348 333.337 83.1 328.908 81.383 C 321.135 78.31 310.832 79.214 309.477 70.808 C 306.223 68.368 305.229 72.978 303.873 74.333 C 297.727 75.056 291.762 80.117 294.745 86.986 C 296.01 79.304 308.663 79.123 313.634 83.733 C 320.412 78.852 332.975 82.738 335.415 89.336 C 336.138 91.144 336.681 95.301 335.415 97.922 C 331.529 105.785 317.068 98.103 309.477 101.718 C 316.074 104.158 328.818 107.412 335.415 102.351 Z M 218.284 91.144 C 203.733 96.747 187.465 100.724 170.835 104.339 C 172.914 121.872 198.401 115.636 210.331 111.117 C 199.214 125.759 184.211 136.333 172.281 150.071 C 184.935 156.126 193.972 147.992 201.474 140.942 C 206.445 136.333 211.235 131.091 214.127 126.753 C 215.121 125.217 215.031 124.132 216.477 123.228 C 218.104 122.144 222.261 120.788 223.888 123.228 C 221.538 124.855 216.567 123.499 216.206 126.482 C 216.025 127.928 217.742 129.464 219.459 130.007 C 221.267 130.549 224.43 129.284 225.063 131.453 C 222.351 133.712 215.754 132.537 216.206 136.785 C 216.567 140.31 222.894 139.677 226.78 140.581 C 224.52 143.202 216.838 144.829 218.194 149.438 C 219.73 154.59 228.859 147.902 230.305 150.071 C 227.864 153.957 222.08 154.68 222.08 161.007 C 226.418 165.706 231.932 157.934 235.366 158.928 C 235.185 161.278 232.564 163.356 230.937 165.706 C 229.311 167.966 227.051 170.677 229.13 173.931 C 232.474 174.834 234.914 173.66 236.812 172.123 C 238.981 170.406 240.066 167.152 242.415 166.791 C 243.138 169.502 238.62 174.202 237.987 178.902 C 237.535 182.426 238.8 184.776 241.241 185.138 C 247.748 185.861 248.29 177.094 251.544 173.66 C 254.074 174.925 251.815 179.444 251.544 183.059 C 251.001 190.018 254.165 196.797 260.13 191.645 C 263.022 189.024 263.383 182.607 265.101 179.263 C 268.354 181.161 265.01 186.584 265.372 191.103 C 265.643 193.633 266.547 195.35 267.45 197.339 C 277.392 200.231 277.663 188.572 281.007 182.878 C 282.815 190.199 277.482 195.441 274.229 199.689 C 277.844 212.613 276.308 232.587 273.958 245.691 C 272.692 231.683 276.308 211.348 272.783 199.96 C 266.004 201.767 263.926 196.797 263.383 191.374 C 261.937 191.645 261.033 193.995 258.684 194.899 C 256.334 195.802 253.622 195.802 251.273 194.266 C 247.929 216.77 247.838 244.788 243.59 265.936 C 242.958 268.919 243.048 272.534 240.608 274.522 C 244.856 255.724 245.127 234.123 247.115 213.517 C 248.109 203.213 250.821 193.272 249.194 182.517 C 247.115 185.951 242.506 189.476 237.987 186.313 C 239.343 225.989 235.276 262.321 229.401 295.761 C 234.733 295.581 239.162 293.411 242.054 290.429 C 258.955 273.257 263.835 235.84 263.022 201.948 C 265.914 209.63 267.089 219.391 267.993 229.333 C 268.896 239.094 269.348 249.307 273.867 255.904 C 280.646 258.796 282.905 249.578 283.628 244.065 C 284.351 237.829 284.713 229.694 285.436 221.651 C 286.701 206.377 286.159 190.651 283.99 177.998 C 247.115 173.117 227.864 150.523 228.226 108.406 C 219.821 110.846 218.013 95.482 227.322 97.47 C 226.87 95.843 226.509 94.126 226.147 92.499 C 228.136 85.45 241.331 89.246 237.083 97.47 C 246.482 96.657 245.127 111.479 234.733 108.406 C 231.932 125.126 237.173 141.937 245.94 152.059 C 254.707 162.181 267.45 167.514 284.893 167.423 C 285.255 166.429 285.707 165.435 285.526 163.899 C 254.617 162.453 238.348 146.365 236.541 115.817 C 236.993 114.371 235.185 115.184 235.366 114.01 C 239.975 111.027 247.296 109.581 250.369 104.61 C 253.171 100.091 253.171 92.59 251.544 87.167 C 255.43 88.794 254.617 95.482 255.068 99.007 C 258.322 91.053 254.436 81.564 250.098 77.496 C 242.144 73.701 231.48 73.52 220.634 73.972 C 206.264 74.604 193.34 73.791 182.042 71.351 C 182.856 89.155 200.751 89.969 218.284 91.144 Z M 328.637 73.429 C 327.01 73.429 326.468 74.604 325.112 74.876 C 323.937 74.876 323.937 73.701 323.033 73.429 C 322.31 77.135 329.993 76.141 328.637 73.429 Z M 330.987 92.319 C 332.071 92.771 333.427 92.861 334.511 93.222 C 334.15 88.794 332.071 85.992 328.275 84.998 C 329.36 87.167 330.716 89.155 330.987 92.319 Z M 397.596 98.464 C 394.885 98.103 393.258 98.826 391.992 99.91 C 389.462 106.327 396.602 108.768 400.578 106.96 C 406.091 125.759 398.771 145.642 388.196 155.584 C 379.159 164.079 366.596 168.056 352.226 170.044 C 352.406 171.762 352.768 173.208 353.129 174.744 C 388.829 171.129 407.628 147.63 404.736 107.502 C 414.406 110.214 415.039 95.482 404.736 98.374 C 405.64 96.386 406.905 93.855 405.64 91.324 C 399.855 87.167 393.8 93.494 397.596 98.464 Z M 235.095 98.736 C 240.427 94.036 232.655 86.986 228.045 91.957 C 227.051 94.307 228.497 97.289 228.678 98.464 C 219.188 97.651 222.442 110.666 230.124 107.322 C 229.853 111.569 229.672 115.907 230.124 119.975 C 231.66 134.435 235.818 147.992 244.313 157.391 C 252.899 167.062 267.27 175.106 284.442 174.473 C 284.442 172.665 284.532 170.858 284.17 169.502 C 248.561 168.598 229.039 143.563 233.468 106.689 C 242.867 111.931 245.669 96.476 235.095 98.736 Z M 296.462 96.386 C 306.494 93.674 321.226 93.222 332.433 94.307 C 321.768 91.144 304.686 90.873 296.462 96.386 Z M 329.812 99.639 C 331.619 99.097 333.517 98.645 333.608 96.386 C 330.625 95.843 330.173 97.741 329.812 99.639 Z M 375.815 136.243 C 374.64 136.514 371.567 136.062 370.482 137.418 C 369.398 138.773 370.301 140.671 371.386 141.846 C 383.587 141.123 390.817 131.362 391.721 119.703 C 391.902 116.902 391.54 113.648 389.914 111.75 C 391.179 124.403 385.304 134.164 375.815 136.243 Z M 249.555 135.972 C 253.894 138.683 258.141 144.196 265.191 142.208 C 267.812 136.152 261.305 137.87 257.238 136.875 C 253.622 136.062 249.465 131.543 247.477 127.476 C 245.398 123.228 244.856 119.071 244.494 113.648 C 241.873 121.963 246.031 130.82 249.555 135.972 Z M 455.709 195.17 C 448.479 188.03 442.243 178.721 436.278 167.785 C 432.482 160.826 427.33 153.144 423.263 145.642 C 421.185 141.756 419.287 135.881 415.31 140.039 C 421.094 142.569 421.998 151.697 413.503 151.246 C 414.677 153.776 417.389 155.855 416.485 159.47 C 425.342 170.858 435.374 185.138 445.677 196.073 C 452.094 202.942 457.788 210.896 470.17 209.901 C 468.724 206.377 466.103 203.304 463.934 200.141 C 448.027 177.184 434.651 151.336 420.914 126.391 C 420.281 127.747 418.925 128.289 417.389 128.741 C 419.558 130.187 422.721 133.079 420.642 136.966 C 432.03 157.211 444.322 178.178 456.884 196.254 C 456.884 195.983 456.613 195.893 456.613 195.622 C 456.252 195.622 455.89 195.441 455.709 195.17 Z M 170.203 214.059 C 180.958 213.336 187.194 204.75 192.888 198.152 C 200.299 189.566 207.891 180.709 213.223 170.767 C 216.748 168.598 218.375 163.989 220.002 159.832 C 220.996 157.301 222.622 154.951 222.351 153.324 C 213.946 153.867 215.211 144.919 220.544 142.117 C 219.369 141.756 218.465 141.033 217.019 140.942 C 204.637 160.555 196.142 185.499 180.416 200.773 C 193.34 181.523 204.637 160.735 214.94 138.864 C 214.669 137.87 214.037 137.237 214.037 135.881 C 214.94 133.893 216.386 132.537 218.194 131.453 C 216.477 131.001 215.483 129.826 214.037 129.103 C 200.841 158.747 185.386 186.313 170.203 214.059 Z M 412.689 178.992 C 418.473 198.966 424.71 219.301 431.849 238.009 C 434.742 245.601 439.08 252.651 440.074 261.056 C 433.115 248.222 428.054 233.942 422.992 219.482 C 417.841 204.84 413.503 189.566 409.978 173.479 C 407.357 174.925 403.019 174.292 400.578 173.208 C 400.578 184.234 403.832 193.904 407.357 203.033 C 415.852 224.995 422.54 249.307 433.295 268.828 C 438.809 278.77 445.225 288.531 458.33 288.893 C 450.648 269.461 440.164 248.674 435.645 225.266 C 434.109 217.222 433.205 208.907 431.217 200.773 C 430.132 196.254 428.144 191.374 426.517 186.584 C 423.173 176.823 419.287 168.598 413.864 161.82 C 412.237 163.266 408.893 161.549 407.357 162.091 C 411.062 166.068 410.882 172.937 412.689 178.992 Z M 222.713 164.531 C 222.713 164.351 222.713 164.17 222.442 164.26 C 216.477 173.388 212.319 182.426 209.427 194.085 C 205.631 209.901 204.366 230.869 199.666 246.595 C 195.057 262.05 187.736 277.957 183.127 292.869 C 185.477 292.598 187.194 291.785 189.634 291.694 C 198.491 287.627 203.101 279.403 207.077 270.726 C 219.098 244.426 228.497 213.697 236.902 184.595 C 235.456 182.246 235.999 177.727 236.631 174.834 C 234.01 176.371 230.937 176.913 227.503 175.738 C 221.99 203.485 214.037 230.146 204.818 254.187 C 203.462 257.621 202.92 261.598 200.118 264.219 C 207.168 241.896 214.94 218.668 221.086 195.802 C 222.171 191.735 222.984 187.668 224.069 183.692 C 225.243 179.444 225.605 175.467 226.418 171.039 C 226.961 168.327 228.949 165.525 228.768 164.26 C 226.69 164.531 224.792 165.074 222.713 164.531 Z M 353.401 285.458 C 360.45 296.123 370.482 307.511 377.622 319.079 C 379.159 321.61 381.689 324.592 379.701 326.129 C 376.086 326.671 372.471 327.123 368.494 327.304 C 367.59 330.376 363.794 330.467 362.258 332.907 C 365.421 336.793 368.584 331.371 371.657 330.828 C 373.645 330.467 376.176 331.371 378.436 331.099 C 380.695 330.828 382.412 330.015 384.672 329.653 C 385.395 331.732 388.558 331.461 391.179 331.732 C 393.8 335.528 400.759 334.986 401.753 340.318 C 406.543 340.047 405.73 346.916 409.978 346.193 C 411.153 344.747 408.712 341.855 409.978 339.414 C 409.164 337.516 406.905 337.697 405.278 336.793 C 404.194 336.161 403.651 334.895 402.657 334.172 C 401.03 332.907 398.59 331.732 396.782 330.648 C 394.885 329.563 392.173 328.75 392.083 326.49 C 398.138 331.19 407.447 325.767 415.129 325.315 C 414.949 329.292 420.01 329.201 420.1 325.586 C 422.269 326.219 423.354 328.117 426.607 327.665 C 427.33 330.286 430.494 335.076 433.386 331.822 C 432.572 328.93 429.319 328.569 428.415 325.948 C 428.957 325.406 429.228 324.592 429.319 323.598 C 422.992 325.315 420.462 320.073 415.491 320.073 C 409.435 320.073 403.109 327.304 396.331 322.423 C 397.777 320.796 399.313 319.26 399.584 316.548 C 400.759 316.458 401.753 316.097 402.567 315.645 C 403.199 314.018 401.934 313.566 401.663 312.12 C 403.019 311.758 404.013 310.945 405.459 310.674 C 406.634 312.662 412.599 312.301 412.508 309.499 C 408.441 307.601 401.03 306.878 398.68 310.403 C 397.325 312.481 397.505 315.916 396.059 318.085 C 393.8 321.429 390.275 321.881 385.124 321.339 C 376.628 306.607 367.229 292.869 358.552 278.318 C 354.304 278.137 353.581 281.572 353.401 285.458 Z M 285.797 286.904 C 284.17 286.814 282.544 285.549 281.369 286 C 281.188 286 281.007 286 281.098 286.272 C 275.313 293.321 266.908 304.257 260.762 312.21 C 258.322 315.283 256.515 318.718 254.255 321.339 C 248.742 328.027 245.217 316.368 243.319 311.578 C 239.885 309.137 234.191 308.957 230.034 307.149 C 228.497 308.957 225.153 308.957 224.701 311.849 C 226.057 313.927 228.407 311.578 230.034 311.216 C 231.66 313.204 235.547 311.758 237.716 312.12 C 238.529 312.753 238.077 314.47 238.62 315.374 C 243.229 315.645 241.692 322.062 244.856 323.96 C 241.331 324.683 238.529 323.236 235.727 322.513 C 232.835 321.7 229.039 320.073 226.599 320.164 C 223.255 320.344 220.815 324.05 217.2 324.863 C 216.025 325.134 215.031 324.411 213.675 325.496 C 212.952 326.4 214.398 327.123 213.946 328.75 C 210.964 330.105 208.162 335.98 215.121 334.986 C 216.929 333.72 217.109 330.648 218.646 329.111 C 221.538 328.659 223.165 326.942 226.057 326.49 C 226.961 329.834 230.214 328.207 231.389 326.219 C 234.914 327.936 240.789 327.394 244.946 328.569 C 241.06 335.618 233.287 338.872 227.864 344.475 C 231.48 346.645 228.587 350.892 228.497 353.604 C 233.106 354.327 232.474 347.458 234.101 344.204 C 239.433 343.301 242.235 339.957 244.404 335.98 C 247.838 335.618 250.098 334.082 251.182 331.28 C 254.888 331.099 260.672 329.021 263.022 331.913 C 264.829 332.003 266.275 331.822 267.722 331.642 C 268.987 332.907 273.325 335.709 275.133 332.817 C 275.133 331.371 273.415 331.822 272.512 331.371 C 271.608 330.105 270.975 328.569 270.162 327.213 C 267.27 326.309 259.587 329.473 258.684 326.038 C 258.322 324.773 260.943 321.881 261.666 321.067 C 270.162 310.583 280.736 299.738 287.334 289.525 C 286.43 288.621 286.068 287.898 285.797 286.904 Z M 407.628 305.793 C 408.17 306.245 408.712 306.697 409.707 306.697 C 410.159 305.703 412.508 304.076 411.153 303.172 C 410.159 304.167 407.718 303.805 407.628 305.793 Z M 227.141 307.601 C 227.684 307.149 228.226 306.697 228.045 305.522 C 226.599 304.89 225.063 304.347 223.074 304.347 C 223.526 306.245 224.972 307.239 227.141 307.601 Z M 430.313 326.129 C 430.675 326.219 430.765 326.49 430.946 326.761 C 433.024 326.129 435.013 325.586 435.916 323.779 C 434.019 321.61 430.223 322.965 430.313 326.129 Z M 366.054 327.936 C 366.506 327.484 367.138 327.213 366.957 326.129 C 366.686 326.038 366.596 325.857 366.686 325.496 C 362.71 323.869 362.529 327.755 366.054 327.936 Z M 272.873 327.936 C 274.5 327.936 275.494 327.213 275.856 325.857 C 274.319 324.863 271.427 326.038 272.873 327.936 Z M 207.71 329.111 C 209.789 329.925 213.223 329.111 211.867 326.49 C 209.608 325.857 207.981 326.942 207.71 329.111 Z M 411.785 342.397 C 413.051 342.758 414.497 343.029 416.214 343.029 C 416.575 340.228 411.424 338.42 411.785 342.397 Z M 223.346 350.621 C 224.972 349.898 226.418 348.994 228.045 348.271 C 228.226 347.187 227.413 347.096 227.413 346.193 C 224.701 346.283 223.074 347.458 223.346 350.621 Z M 408.261 79.937 C 409.435 78.4 411.333 77.677 412.418 76.141 C 410.249 75.689 407.809 75.689 405.64 75.237 C 404.826 75.237 404.103 75.237 403.29 75.237 C 402.296 74.876 404.103 74.876 404.465 74.966 C 408.622 75.147 413.503 74.604 417.118 75.237 C 416.304 76.773 413.864 76.773 413.322 78.491 C 424.077 79.666 436.368 77.316 444.593 74.062 C 446.4 73.52 443.96 74.876 443.147 75.237 C 434.561 79.123 421.546 80.208 408.261 79.937 Z M 420.642 97.018 C 420.1 96.928 419.919 97.38 420.642 97.289 C 431.488 101.266 445.406 106.598 460.138 103.797 C 445.225 104.339 432.663 100.272 420.642 97.018 Z M 453.088 141.846 C 442.514 134.887 433.295 125.126 424.529 117.354 C 432.392 126.843 442.062 136.333 453.088 141.846 Z M 229.853 76.954 C 227.413 77.858 223.707 77.496 221.628 78.762 C 222.532 80.117 224.159 80.75 225.786 81.383 C 212.952 83.642 197.678 81.564 188.369 77.587 C 197.045 79.666 209.246 81.925 220.815 81.112 C 220.092 79.485 218.013 79.123 216.657 78.129 C 220.453 77.406 225.967 76.773 229.853 76.954 Z M 215.031 99.91 C 215.031 99.549 214.94 99.187 214.398 99.278 C 202.468 103.435 190.177 107.322 174.902 108.135 C 191.442 109.762 203.101 103.887 215.031 99.91 Z M 210.602 119.975 C 202.92 130.097 193.792 138.773 183.217 145.913 C 184.483 144.015 186.652 142.84 188.55 141.214 C 193.972 136.604 199.757 131.182 204.456 125.578 C 207.439 124.674 207.981 121.24 210.602 119.975 Z"/><path fill="#f5d306" d="M 358.371 278.047 C 367.048 292.598 376.447 306.336 384.943 321.067 C 390.094 321.61 393.529 321.158 395.879 317.814 C 397.415 315.645 397.144 312.21 398.5 310.132 C 400.85 306.607 408.351 307.33 412.328 309.228 C 412.328 312.03 406.453 312.391 405.278 310.403 C 403.742 310.674 402.838 311.487 401.482 311.849 C 401.753 313.295 403.019 313.837 402.386 315.374 C 401.573 315.825 400.578 316.187 399.403 316.277 C 399.132 318.989 397.596 320.615 396.15 322.152 C 402.928 326.942 409.255 319.802 415.31 319.802 C 420.371 319.802 422.812 325.044 429.138 323.327 C 429.048 324.321 428.867 325.225 428.234 325.677 C 429.228 328.388 432.482 328.75 433.205 331.551 C 430.313 334.895 427.15 330.015 426.427 327.394 C 423.173 327.846 422.089 326.038 419.919 325.315 C 419.829 328.93 414.768 329.021 414.949 325.044 C 407.266 325.496 398.048 330.919 391.902 326.219 C 391.992 328.478 394.704 329.201 396.602 330.376 C 398.409 331.461 400.94 332.636 402.476 333.901 C 403.47 334.715 404.013 335.98 405.097 336.522 C 406.724 337.426 409.074 337.245 409.797 339.143 C 408.532 341.674 410.972 344.475 409.797 345.922 C 405.549 346.645 406.363 339.685 401.573 340.047 C 400.488 334.715 393.619 335.257 390.998 331.461 C 388.377 331.19 385.304 331.461 384.491 329.382 C 382.231 329.744 380.605 330.557 378.255 330.828 C 375.995 331.099 373.465 330.196 371.476 330.557 C 368.404 331.099 365.24 336.522 362.077 332.636 C 363.613 330.196 367.409 330.105 368.313 327.032 C 372.29 326.852 375.905 326.4 379.52 325.857 C 381.508 324.231 379.068 321.339 377.441 318.808 C 370.301 307.239 360.269 295.852 353.22 285.187 C 353.581 281.572 354.304 278.137 358.371 278.047 Z M 407.628 305.793 C 408.17 306.245 408.712 306.697 409.707 306.697 C 410.159 305.703 412.508 304.076 411.153 303.172 C 410.159 304.167 407.718 303.805 407.628 305.793 Z M 430.313 326.129 C 430.675 326.219 430.765 326.49 430.946 326.761 C 433.024 326.129 435.013 325.586 435.916 323.779 C 434.019 321.61 430.223 322.965 430.313 326.129 Z M 366.054 327.936 C 366.506 327.484 367.138 327.213 366.957 326.129 C 366.686 326.038 366.596 325.857 366.686 325.496 C 362.71 323.869 362.529 327.755 366.054 327.936 Z M 411.785 342.397 C 413.051 342.758 414.497 343.029 416.214 343.029 C 416.575 340.228 411.424 338.42 411.785 342.397 Z" style="fill:#fcdd09"/><path fill="#f5d306" d="M 287.728 289.496 C 282.696 298.592 258.207 322.833 258.835 325.949 C 259.739 329.383 267.089 326.038 269.891 326.942 C 270.704 328.298 271.337 329.834 272.24 331.099 C 273.144 331.551 274.952 331.19 274.861 332.545 C 273.144 335.438 268.806 332.636 267.45 331.371 C 266.004 331.551 264.468 331.732 262.751 331.642 C 260.401 328.84 254.707 330.919 250.911 331.009 C 249.827 333.811 247.567 335.347 244.133 335.709 C 241.873 339.685 239.162 343.12 233.829 343.933 C 232.203 347.187 232.835 354.146 228.226 353.333 C 228.407 350.531 231.208 346.373 227.593 344.204 C 233.016 338.601 240.789 335.347 244.675 328.298 C 240.517 327.123 234.643 327.665 231.118 325.948 C 229.943 327.936 226.78 329.563 225.786 326.219 C 222.894 326.671 221.357 328.478 218.375 328.84 C 216.838 330.467 216.657 333.449 214.85 334.715 C 207.891 335.709 210.692 329.834 213.675 328.478 C 214.127 326.852 212.681 326.219 213.404 325.225 C 214.76 324.14 215.754 324.863 216.929 324.592 C 220.544 323.779 222.984 320.073 226.328 319.892 C 228.768 319.802 232.655 321.429 235.456 322.242 C 238.348 323.056 241.15 324.502 244.585 323.688 C 241.512 321.881 243.048 315.464 238.348 315.102 C 237.806 314.289 238.258 312.481 237.445 311.849 C 235.366 311.578 231.389 312.933 229.762 310.945 C 228.136 311.306 225.876 313.656 224.43 311.578 C 224.882 308.685 228.226 308.685 229.762 306.878 C 233.92 308.685 239.614 308.866 243.048 311.306 C 244.856 316.097 248.38 327.665 253.984 321.067 C 256.243 318.446 258.051 315.012 260.491 311.939 C 266.637 303.986 275.133 293.05 280.826 286 C 280.736 285.729 280.917 285.729 281.098 285.729 C 282.273 285.277 283.899 286.543 285.526 286.633 C 286.068 287.898 287.095 288.864 287.728 289.496 Z M 227.141 307.601 C 227.684 307.149 228.226 306.697 228.045 305.522 C 226.599 304.89 225.063 304.347 223.074 304.347 C 223.526 306.245 224.972 307.239 227.141 307.601 Z M 275.856 325.857 C 275.584 327.213 274.5 327.846 272.873 327.936 C 271.427 326.038 274.319 324.863 275.856 325.857 Z M 211.777 326.4 C 213.133 329.021 209.789 329.834 207.62 329.021 C 207.981 326.942 209.608 325.857 211.777 326.4 Z M 227.413 346.193 C 227.322 347.096 228.226 347.187 228.045 348.271 C 226.418 348.994 224.972 349.898 223.346 350.621 C 223.074 347.458 224.701 346.283 227.413 346.193 Z" style="fill:#fcdd09"/><path fill="#f5d306" d="M 405.549 91.415 C 406.815 93.945 405.549 96.476 404.645 98.464 C 414.949 95.572 414.316 110.394 404.645 107.593 C 407.538 147.721 388.739 171.219 353.039 174.834 C 352.768 173.298 352.316 171.852 352.135 170.135 C 366.506 168.146 379.068 164.26 388.106 155.674 C 398.68 145.642 406.001 125.849 400.488 107.05 C 396.511 108.858 389.462 106.418 391.902 100.001 C 393.167 98.916 394.794 98.193 397.505 98.555 C 393.8 93.494 399.855 87.167 405.549 91.415 Z" style="fill:#fcdd09"/><path fill="#f5d306" d="M 233.378 106.779 C 228.949 143.654 248.471 168.689 284.08 169.593 C 284.442 170.948 284.351 172.846 284.351 174.563 C 267.179 175.196 252.809 167.062 244.223 157.482 C 235.818 147.992 231.57 134.435 230.034 120.065 C 229.582 115.907 229.762 111.66 230.034 107.412 C 222.351 110.756 219.007 97.741 228.587 98.555 C 228.407 97.47 227.051 94.488 227.955 92.047 C 232.564 87.077 240.337 94.126 235.004 98.826 C 245.669 96.476 242.867 111.931 233.378 106.779 Z" style="fill:#fcdd09"/><path fill="#f5d306" d="M 309.386 101.718 C 316.978 98.103 331.439 105.785 335.325 97.922 C 336.59 95.301 336.048 91.234 335.325 89.336 C 332.794 82.738 320.322 78.852 313.544 83.733 C 308.573 79.123 296.01 79.304 294.654 86.986 C 291.672 80.117 297.637 74.966 303.783 74.333 C 305.138 72.978 306.133 68.368 309.386 70.808 C 310.742 79.214 321.135 78.4 328.818 81.383 C 333.246 83.1 338.94 87.348 339.753 91.415 C 340.657 95.843 337.765 100.453 335.325 102.351 C 328.818 107.412 316.074 104.158 309.386 101.718 Z" style="fill:#fcdd09"/><path fill="#e64625" d="M 332.433 94.307 C 321.226 93.222 306.404 93.674 296.462 96.386 C 304.686 90.873 321.768 91.144 332.433 94.307 Z" style="fill:#da121a"/><path d="M 416.485 124.132 C 416.124 125.397 412.96 125.217 411.785 124.765 C 411.966 122.776 415.31 123.59 416.485 124.132 Z M 410.249 134.164 C 412.147 133.983 414.768 134.526 416.124 133.893 C 414.497 133.622 411.062 131.724 410.249 134.164 Z M 408.532 144.467 C 410.701 144.829 412.599 146.727 415.039 145.913 C 413.503 144.286 410.61 144.106 408.532 142.931 L 408.532 144.467 Z M 404.374 154.228 C 407.176 154.861 408.893 156.578 411.785 157.211 C 409.978 155.132 406.995 154.138 404.374 152.782 L 404.374 154.228 Z M 398.5 163.628 C 401.121 164.622 402.747 168.237 405.549 168.056 C 403.47 165.525 401.392 162.904 398.5 161.278 C 397.777 162.001 398.5 162.724 398.5 163.628 Z M 395.517 179.263 C 394.071 175.648 392.987 171.581 389.914 169.502 C 391.269 173.298 392.625 177.094 395.517 179.263 Z M 381.689 187.849 C 381.418 184.324 380.243 179.353 378.164 176.642 C 378.164 180.438 380.062 184.776 381.689 187.849 Z M 366.957 192.278 C 366.686 188.211 365.421 185.138 364.879 181.342 L 363.433 181.342 C 364.156 185.409 364.517 189.837 366.957 192.278 Z M 223.617 127.114 C 222.532 126.211 219.007 127.747 218.917 125.94 C 220.363 125.668 223.526 125.036 223.617 127.114 Z M 219.459 136.785 C 221.628 136.604 224.249 136.875 225.334 135.61 C 223.617 134.074 220.544 135.791 219.459 136.785 Z M 220.996 148.353 C 223.797 147.721 227.503 147.992 228.045 145.1 C 225.786 146.275 222.261 146.184 220.996 148.353 Z M 224.792 158.928 C 227.684 159.109 231.299 157.572 232.203 154.77 C 229.311 155.765 227.051 157.391 224.792 158.928 Z M 231.57 170.135 C 234.372 169.593 238.348 166.158 238.348 162.724 C 235.547 164.622 233.649 167.514 231.57 170.135 Z M 241.873 180.799 C 243.862 180.438 244.133 177.817 244.856 176.371 C 245.669 174.563 246.573 172.756 247.206 171.039 C 246.844 171.039 246.754 170.677 246.302 170.767 C 244.675 173.84 242.958 177.004 241.873 180.799 Z M 256.334 189.024 C 257.238 185.409 259.316 181.432 259.316 177.817 L 258.413 177.817 C 257.599 181.071 255.792 186.403 256.334 189.024 Z M 271.427 192.82 C 272.963 189.837 273.867 186.222 273.777 181.613 L 272.873 181.613 C 272.15 184.957 270.975 189.385 271.427 192.82 Z M 319.418 260.333 C 320.141 264.852 320.684 270.636 320.051 275.697 C 318.605 271.721 318.605 265.033 319.418 260.333 Z M 319.147 310.222 C 317.339 295.4 315.893 280.216 313.815 265.665 C 313.272 276.782 314.809 286.543 316.436 297.479 C 317.701 305.974 318.514 314.922 319.057 323.688 C 320.051 340.228 319.057 357.4 319.96 374.12 C 320.051 376.018 320.141 378.006 321.135 379.994 C 317.791 340.137 324.299 301.636 326.468 265.304 C 325.112 281.391 324.751 298.382 319.147 310.222 Z M 337.765 124.765 C 338.579 124.765 337.494 129.193 338.669 129.735 C 339.211 129.826 339.573 128.38 339.844 129.103 C 339.573 130.639 338.85 131.633 338.669 133.26 C 336.138 131.814 337.675 127.657 337.765 124.765 Z M 330.987 148.896 C 331.167 146.456 332.975 144.196 332.794 142.388 C 331.981 142.84 331.981 144.106 330.987 144.467 C 330.173 143.473 331.258 140.671 330.354 139.767 C 329.36 142.027 328.004 147.721 330.987 148.896 Z M 316.255 171.942 C 316.526 170.135 317.52 169.141 317.159 166.61 C 315.622 166.248 317.52 169.321 315.984 168.96 C 312.64 166.158 315.261 157.03 314.176 153.324 C 313.815 159.38 311.555 168.869 316.255 171.942 Z M 311.465 163.989 C 311.284 162.001 309.296 162.543 308.211 161.639 C 306.313 159.922 306.765 157.482 306.133 154.228 C 305.229 159.109 306.223 164.26 311.465 163.989 Z M 324.208 169.231 C 324.299 168.96 324.479 168.869 324.841 168.96 C 325.112 167.875 325.383 166.429 324.841 165.435 C 323.576 164.983 324.751 166.972 323.937 166.881 C 321.316 165.435 321.407 161.368 320.412 158.295 C 320.684 162.904 320.141 168.418 324.208 169.231 Z M 317.972 198.423 C 322.762 197.881 323.304 187.939 323.304 182.517 C 321.949 186.041 322.13 197.248 317.43 196.977 C 313.001 196.706 313.001 186.403 311.826 182.517 C 312.188 188.753 312.369 199.146 317.972 198.423 Z M 328.004 206.377 C 328.727 212.161 326.377 220.747 328.908 225.808 C 333.427 226.622 335.415 221.018 336.861 217.855 C 338.579 214.149 339.844 210.534 340.386 207.552 C 340.657 215.595 336.771 222.012 332.975 226.983 C 329.631 228.881 327.372 226.35 326.197 224.362 C 323.666 227.254 322.943 232.496 318.514 232.587 C 313.544 232.767 312.459 226.26 310.561 222.012 C 308.482 224.181 309.477 228.068 305.59 228.248 C 299.444 228.429 297.185 214.33 295.558 209.359 C 297.185 212.251 297.998 215.415 299.716 219.12 C 300.8 221.56 302.879 226.802 305.59 226.802 C 310.651 226.712 308.934 212.342 308.844 207.371 C 310.471 216.499 312.098 225.718 317.701 230.96 C 326.197 227.796 325.925 215.866 328.004 206.377 Z M 326.197 233.852 C 327.914 237.829 323.485 246.143 328.275 248.312 C 333.879 246.686 333.969 239.455 336.229 234.484 C 336.319 241.715 332.975 252.56 324.751 249.487 C 323.666 251.295 322.672 253.193 321.226 254.458 C 319.328 254.82 318.514 254.549 316.526 254.458 C 315.08 252.831 313.905 250.933 313.001 248.855 C 307.398 255.543 302.517 242.98 301.794 236.744 C 303.873 240.63 304.506 249.397 309.477 248.855 C 314.447 248.222 310.561 239.455 311.284 234.394 C 312.73 239.817 313.182 253.103 319.87 252.379 C 325.202 251.837 324.389 238.371 326.197 233.852 Z M 325.654 150.071 C 325.383 155.313 325.835 162.181 329.45 164.531 C 331.077 165.164 330.896 162.904 331.8 163.628 C 332.523 164.622 331.529 165.706 330.896 166.248 C 325.293 164.983 324.931 156.849 325.654 150.071 Z M 296.191 178.721 C 297.727 183.33 298.812 190.651 300.891 194.627 C 301.342 195.531 302.788 197.7 304.144 197.61 C 307.217 197.248 308.121 186.945 308.302 183.149 C 308.392 181.974 308.302 180.528 308.302 179.353 C 310.38 185.861 310.109 196.435 314.176 200.864 C 315.803 202.581 317.611 202.942 319.78 201.496 C 324.751 197.971 326.016 187.759 326.829 179.715 C 327.733 183.692 326.197 194.266 329.812 197.429 C 335.867 195.531 336.138 187.849 337.223 180.89 C 338.579 184.505 337.313 190.651 339.844 193.001 C 344.634 190.651 345.357 184.143 346.622 178.269 C 347.255 181.432 344.905 195.893 340.115 195.079 C 338.127 194.718 338.669 191.555 336.861 190.38 C 336.048 196.435 329.269 204.659 326.287 195.079 C 323.033 198.423 323.033 205.021 315.984 204.479 C 312.098 201.767 310.923 196.345 308.573 192.097 C 307.307 194.356 306.584 196.977 305.59 199.508 C 300.439 200.683 299.625 195.35 298.179 191.826 C 296.462 192.278 296.281 194.176 294.926 195.079 C 289.412 192.82 289.864 184.686 289.322 177.365 C 290.678 183.511 290.497 191.103 295.197 193.904 C 298.179 190.832 296.191 183.24 296.191 178.721 Z M 312.369 214.963 C 314.718 218.216 314.899 223.639 317.972 226.17 C 321.949 224.633 322.13 219.301 323.576 215.234 C 323.576 220.205 322.672 228.158 316.797 227.345 C 314.628 223.91 313.363 219.572 312.369 214.963 Z M 324.208 236.473 C 323.756 241.263 322.853 248.132 319.237 248.584 C 315.08 249.126 314.718 241.444 313.634 237.377 C 315.442 240.449 315.713 245.149 318.966 246.776 C 321.66 244.007 324.216 236.473 324.208 236.473 Z"/><path fill="#fff" d="M 323.033 73.429 C 323.937 73.701 323.937 74.876 325.112 74.876 C 326.468 74.514 327.01 73.429 328.637 73.429 C 329.993 76.141 322.31 77.135 323.033 73.429 Z"/></svg>