<svg xmlns="http://www.w3.org/2000/svg" version="1.1" viewBox="0 0 640 480"><rect width="640" height="480" fill="#e2382a"/><rect width="640" height="288" y="96" fill="#fff"/><path fill="#e2382a" d="M 270.673 138.6 C 266.987 136.822 260.336 137.875 254.213 136.888 C 241.901 134.913 240.386 131.423 240.386 128.855 C 240.32 126.155 237.883 126.024 237.883 128.92 C 237.95 146.04 263.695 137.283 271.003 141.694 M 186.921 132.74 C 186.987 128.13 183.826 125.168 181.061 124.904 C 182.707 126.814 183.036 129.579 183.3 132.279 C 182.772 128.46 179.941 125.958 177.504 125.827 C 178.822 127.209 179.546 130.04 179.678 132.805 C 179.283 130.699 177.307 127.538 174.016 127.209 C 175.53 128.789 175.991 131.752 176.32 134.452 C 175.86 132.148 173.488 129.514 170.855 129.317 C 171.975 130.238 172.896 133.595 173.093 136.164 C 172.765 135.11 170.921 132.543 168.023 132.213 C 169.538 133.595 170.197 136.954 170.46 139.588 M 181.982 202.403 C 181.192 198.782 178.032 194.962 174.476 195.423 C 176.122 196.543 177.373 200.757 177.835 203.455 C 176.715 200.427 173.95 197.2 170.657 197.595 C 172.436 199.177 173.488 203.06 174.147 205.958 C 172.37 202.6 170.197 200.098 166.97 200.493 C 169.143 202.6 169.933 206.287 170.46 209.118 C 169.406 206.748 166.97 203.85 163.678 204.18 C 165.72 206.024 166.574 210.04 167.299 213.003 C 165.982 211.225 164.007 208.723 160.912 208.987 C 162.953 210.962 163.876 214.846 164.732 217.81 M 192.517 331.258 C 189.028 329.152 184.221 329.875 181.982 332.773 C 184.485 332.312 188.172 333.694 189.621 334.88 C 187.25 333.365 182.312 334.287 180.402 336.92 C 182.641 336.328 186.262 337.843 188.172 338.962 C 185.67 338.106 181.785 338.304 179.348 341.267 C 181.39 340.805 184.748 341.925 186.921 343.176 C 183.826 342.452 180.797 343.637 179.02 345.744 C 181.72 345.152 184.748 346.732 186.592 347.588 C 183.102 347.522 180.995 348.904 179.743 350.353 C 181.982 349.892 185.406 351.078 187.908 352.394 M 284.106 352.92 C 279.563 352.328 275.81 355.094 274.691 358.32 C 275.941 357.333 279.892 356.74 282.46 357.53 C 278.905 357.333 275.348 360.229 274.624 362.863 C 276.073 361.678 280.682 361.349 282.395 362.073 C 279.168 362.205 276.073 364.642 275.151 367.34 C 276.666 366.353 280.88 365.958 283.25 366.55 C 279.761 367.078 277.258 369.579 276.468 371.884 C 278.575 370.502 281.341 370.633 284.765 370.83 C 281.208 372.148 280.023 373.662 278.838 376.032 C 280.813 374.782 284.303 374.715 287.727 374.979"/><path d="M 260.535 111.209 L 244.468 111.802 C 243.678 111.868 243.086 112.263 243.086 113.184 C 243.151 118.979 244.271 122.732 248.418 125.76 C 247.892 128.987 248.221 130.633 251.58 133.333 C 251.908 130.699 252.962 129.514 254.608 128.394 C 254.74 128.46 254.871 128.46 254.937 128.525 C 254.74 129.712 254.74 130.962 255.003 131.687 C 255.662 133.53 258.888 133.595 259.743 132.279 C 260.535 134.188 262.18 134.254 263.497 134.254 C 264.88 134.254 265.538 133.267 266 132.345 C 266.79 133.003 267.58 133.728 268.303 134.649 C 270.608 137.81 271.003 141.891 271.003 145.777 L 268.831 145.974 L 268.831 144.394 C 268.765 142.155 263.563 141.76 262.377 143.67 C 261.061 142.222 256.978 142.484 256.978 144.789 L 256.978 145.514 C 256.057 144.328 255.332 143.078 254.74 141.827 C 253.093 142.88 252.106 143.67 252.37 147.423 C 251.644 147.489 250.921 147.554 250.262 147.62 C 250.328 151.967 252.237 153.152 267.777 152.822 C 268.172 157.168 263.826 159.604 260.6 161.645 C 252.172 166.452 243.283 171.719 238.476 180.543 C 234.459 187.522 233.472 195.818 233.933 203.85 L 238.542 201.81 L 239.068 204.312 C 230.772 208.263 215.628 216.295 205.686 220.904 C 203.249 222.024 196.93 223.604 195.612 221.365 C 191.068 213.53 187.447 207.604 182.18 201.613 C 179.481 198.518 161.571 213.333 164.863 218.336 C 172.37 229.728 184.616 246.057 205.028 246.188 C 226.163 246.32 244.535 238.55 248.551 237.365 L 249.406 240.065 C 246.707 241.25 244.336 242.107 241.505 243.028 C 245.192 257.514 249.472 263.177 259.415 271.999 L 257.373 273.514 C 255.596 272.46 252.567 269.102 250.921 267.522 C 229.785 277.53 221.883 287.538 216.813 297.875 C 211.217 310.32 212.271 324.476 214.641 337.579 C 215.102 339.752 212.732 340.805 210.953 340.148 C 206.081 339.028 203.382 334.155 198.707 332.378 C 196.6 331.455 193.835 330.403 191.53 330.798 C 187.777 331.455 183.761 350.419 187.58 352.263 C 194.691 355.751 202.46 356.477 210.361 360.559 C 215.563 362.665 220.567 366.089 226.493 365.168 C 229.851 364.839 233.208 362.534 233.538 358.979 C 236.501 346.205 240.65 332.642 250.394 323.423 C 255.069 318.814 261.127 315.127 267.118 312.295 C 264.748 303.209 262.969 294.123 263.168 284.642 L 266.064 284.509 C 268.172 320.592 277.785 328.164 294.707 344.954 C 296.418 346.665 296.287 349.892 293.785 350.88 C 290.493 352.525 286.608 352.592 282.855 352.789 C 278.838 352.986 281.867 375.242 287.793 375.044 C 298.197 374.715 308.995 366.616 315.249 358.649 C 317.883 355.357 321.045 352.065 323.546 348.839 C 326.641 344.822 323.283 340.148 322.361 336.46 C 319.793 325.925 318.608 295.637 318.476 291.423 L 322.163 291.489 L 322.691 283.85 C 311.694 270.221 313.472 248.888 308.93 235.127 C 307.151 229.53 305.176 223.735 305.176 217.81 C 305.176 209.777 314.262 194.699 314.065 181.267 C 313.999 175.604 310.838 168.229 310.905 164.872 C 310.97 155.127 316.567 157.234 316.436 136.954 C 316.37 131.357 315.711 127.209 314.262 121.48 C 324.073 111.143 310.574 100.805 302.806 107.258 C 296.551 105.613 295.761 103.967 283.513 103.967 C 273.045 103.967 267.052 106.798 260.535 111.143 M 241.571 171.588 C 234.657 180.082 230.772 184.362 231.036 204.97 C 165.785 167.703 184.88 162.369 170.592 140.114 C 168.353 136.624 182.905 128.525 187.513 131.95 C 196.797 138.798 193.373 151.703 201.077 157.563 C 208.715 163.357 222.345 165.925 241.571 171.588 M 281.406 123.719 C 280.418 123.719 278.641 123.193 278.115 122.468 C 272.386 113.712 270.937 116.872 270.081 119.9 C 269.357 122.6 266.197 122.665 267.118 119.044 C 269.423 110.155 275.678 111.407 283.447 123.719 M 300.237 114.83 C 301.818 112.723 304.255 110.683 306.888 109.826 C 310.772 108.509 312.353 111.67 309.258 112.723 C 306.691 113.843 304.517 115.423 302.673 117.266 M 249.143 126.222 C 250.131 126.814 251.513 127.538 253.555 128.13 C 252.436 129.053 251.382 130.369 251.052 131.818 C 249.275 130.567 248.551 128.263 249.143 126.222 M 259.678 129.712 C 259.678 130.567 259.481 131.423 259.217 131.818 C 258.558 132.872 256.122 132.805 255.596 131.357 C 255.398 130.764 255.398 129.712 255.662 128.723 C 256.978 129.053 258.361 129.317 259.678 129.712 M 260.468 129.909 C 262.246 130.435 263.958 131.028 265.472 132.015 C 265.143 132.805 264.551 133.595 263.366 133.595 C 262.312 133.595 261.127 133.53 260.468 132.279 C 260.138 131.62 260.271 130.699 260.468 129.909 M 253.028 147.357 C 252.831 145.514 253.028 143.933 254.476 142.88 C 255.201 144.197 255.991 145.448 256.912 146.567 L 256.912 147.028 M 257.571 146.995 L 257.571 144.92 C 257.571 142.748 262.18 142.88 262.246 144.92 L 262.246 146.567 M 262.838 146.502 L 262.838 144.658 C 262.838 142.484 268.172 142.617 268.172 144.592 L 268.172 146.04"/></svg>