<svg xmlns="http://www.w3.org/2000/svg" viewBox="0 0 640 480"><path fill="#000001" d="M0 0h640v160H0z"/><path fill="red" d="M0 160h640v160H0z"/><path fill="#fc0" d="M0 320h640v160H0z"/><g transform="matrix(0.456428, 0, 0, 0.456428, -115.731056, 13.982517)"><path d="M 287.612 97.937 L 287.612 321.164 C 287.612 436.34 382.244 509.461 483.634 509.461 C 585.024 509.461 679.656 436.341 679.656 321.164 L 679.656 97.937 C 612.062 83.452 551.228 78.624 483.634 78.624 C 416.04 78.624 355.206 83.452 287.612 97.936 L 287.612 97.937 Z" style="fill:#fff;stroke:#000;stroke-width:2.8125;stroke-linecap:butt;stroke-linejoin:round;stroke-miterlimit:4;stroke-dasharray:none;stroke-opacity:1"/><path d="M 483.05 78.352 C 477.954 211.816 382.519 330.989 304.992 385.172 C 297.509 364.209 293.206 343.204 293.206 318.649 L 293.206 97.102 C 355.99 83.338 419.952 78.76 483.05 78.352 Z" style="fill:#fff;stroke:#000;stroke-width:.9375px;stroke-linecap:round;stroke-linejoin:round;stroke-opacity:1"/><path d="M 483.8 78.352 C 488.896 211.816 584.519 330.989 662.045 385.172 C 669.529 364.209 673.831 343.204 673.831 318.649 L 673.831 97.102 C 611.048 83.337 546.898 78.76 483.801 78.352 L 483.8 78.352 Z" style="fill:#da121a;stroke:#000;stroke-width:.9375px;stroke-linecap:butt;stroke-linejoin:miter;stroke-opacity:1"/><path d="M 293.206 97.102 L 293.206 318.649 C 293.206 430.47 385.081 502.102 483.519 502.102 C 581.956 502.102 673.831 431.111 673.831 319.289 L 673.831 97.102 C 608.206 83.039 549.144 78.352 483.519 78.352 C 417.894 78.352 358.831 83.039 293.206 97.102 L 293.206 97.102 Z" style="fill:none;stroke:#000;stroke-width:2.8125;stroke-linecap:round;stroke-linejoin:round;stroke-miterlimit:4;stroke-dasharray:none;stroke-opacity:1"/><g style="stroke-width:1.00536156" transform="matrix(0.93374, 0, 0, 0.93126, -4.5512, 86.841995)"><circle cx="640" cy="109" r="74" style="opacity:.98999999;fill:#fff;fill-opacity:1;stroke:#000;stroke-width:3.01608443;stroke-linecap:round;stroke-linejoin:round;stroke-miterlimit:4;stroke-dasharray:none;stroke-dashoffset:0;stroke-opacity:1"/><circle cx="640" cy="109" r="59" style="opacity:.98999999;fill:#da121a;fill-opacity:1;stroke:#000;stroke-width:3.01608443;stroke-linecap:round;stroke-linejoin:round;stroke-miterlimit:4;stroke-dasharray:none;stroke-dashoffset:0;stroke-opacity:1"/><circle cx="640" cy="109" r="24" style="opacity:.98999999;fill:#fff;fill-opacity:1;stroke:#000;stroke-width:3.01608443;stroke-linecap:round;stroke-linejoin:round;stroke-miterlimit:4;stroke-dasharray:none;stroke-dashoffset:0;stroke-opacity:1"/><circle cx="640" cy="109" r="8" style="opacity:.98999999;fill:#da121a;fill-opacity:1;stroke:#000;stroke-width:3.01608443;stroke-linecap:round;stroke-linejoin:round;stroke-miterlimit:4;stroke-dasharray:none;stroke-dashoffset:0;stroke-opacity:1"/><path d="M633 86c-3-12-3-23.5 0-35.5 5.406-.809 8.848-.64 14 0 3 12 3 23.5 0 35.5-4.37-1.37-10.307-1.307-14 0zM633 131.958c-3 12-3 23.5 0 35.5 5.406.81 8.848.64 14 0 3-12 3-23.5 0-35.5-4.37 1.37-10.307 1.307-14 0zM656.4 91.427c8.893-8.598 18.852-14.348 30.744-17.75 3.404 4.278 4.978 7.344 7 12.125-8.892 8.598-18.851 14.348-30.744 17.75-.998-4.47-4.021-9.58-7-12.125zM616.6 114.406c-11.893 3.402-21.852 9.152-30.744 17.75 2.002 5.087 3.87 7.983 7 12.125 11.892-3.402 21.851-9.152 30.744-17.75-3.373-3.1-6.285-8.273-7-12.125zM663.4 114.406c11.893 3.402 21.852 9.152 30.744 17.75-2.002 5.087-3.87 7.983-7 12.125-11.892-3.402-21.851-9.152-30.744-17.75 3.373-3.1 6.285-8.273 7-12.125zM623.6 91.427c-8.893-8.598-18.852-14.348-30.744-17.75-3.404 4.278-4.978 7.344-7 12.125 8.892 8.598 18.851 14.348 30.744 17.75.998-4.47 4.021-9.58 7-12.125z" style="fill:#fff;stroke:#000;stroke-width:3.01608443;stroke-linecap:round;stroke-linejoin:round;stroke-miterlimit:4;stroke-dasharray:none;stroke-opacity:1"/><circle cx="640" cy="42.5" r="3" style="opacity:.98999999;fill:none;fill-opacity:1;stroke:#000;stroke-width:2.01072288;stroke-linecap:round;stroke-linejoin:round;stroke-miterlimit:4;stroke-dasharray:none;stroke-dashoffset:0;stroke-opacity:1"/><circle cx="640" cy="175.5" r="3" style="opacity:.98999999;fill:none;fill-opacity:1;stroke:#000;stroke-width:2.01072288;stroke-linecap:round;stroke-linejoin:round;stroke-miterlimit:4;stroke-dasharray:none;stroke-dashoffset:0;stroke-opacity:1"/><circle cx="414.397" cy="-566.256" r="3" style="opacity:.98999999;fill:none;fill-opacity:1;stroke:#000;stroke-width:2.01072288;stroke-linecap:round;stroke-linejoin:round;stroke-miterlimit:4;stroke-dasharray:none;stroke-dashoffset:0;stroke-opacity:1" transform="rotate(60)"/><circle cx="414.397" cy="-433.256" r="3" style="opacity:.98999999;fill:none;fill-opacity:1;stroke:#000;stroke-width:2.01072288;stroke-linecap:round;stroke-linejoin:round;stroke-miterlimit:4;stroke-dasharray:none;stroke-dashoffset:0;stroke-opacity:1" transform="rotate(60)"/><circle cx="-225.603" cy="-675.256" r="3" style="opacity:.98999999;fill:none;fill-opacity:1;stroke:#000;stroke-width:2.01072288;stroke-linecap:round;stroke-linejoin:round;stroke-miterlimit:4;stroke-dasharray:none;stroke-dashoffset:0;stroke-opacity:1" transform="rotate(120)"/><circle cx="-225.603" cy="-542.256" r="3" style="opacity:.98999999;fill:none;fill-opacity:1;stroke:#000;stroke-width:2.01072288;stroke-linecap:round;stroke-linejoin:round;stroke-miterlimit:4;stroke-dasharray:none;stroke-dashoffset:0;stroke-opacity:1" transform="rotate(120)"/></g><path d="M 353.475 77.567 L 353.475 178.068 L 293.791 178.068 L 293.791 224.631 L 353.475 224.631 L 353.475 347.807 L 400.162 294.587 L 400.162 224.631 L 445.908 224.631 C 455.396 212.356 462.601 197.45 465.502 178.068 L 400.162 178.068 L 400.162 77.568 L 353.475 77.567 Z" style="fill:#da121a;stroke:#000;stroke-width:2.8125;stroke-linecap:round;stroke-linejoin:round;stroke-miterlimit:4;stroke-dasharray:none;stroke-opacity:1"/><path d="M 304.992 385.172 C 382.519 330.989 478.422 211.816 483.519 78.352 C 488.615 211.816 584.519 330.989 662.045 385.172 C 632.988 460.005 558.519 502.102 483.519 502.102 C 408.519 502.102 337.312 463.898 304.992 385.172 L 304.992 385.172 Z" style="fill:#000;stroke:none;stroke-width:.9375px;stroke-linecap:butt;stroke-linejoin:miter;stroke-opacity:1"/><path d="M 482.251 243.824 C 480.031 240.864 479.497 237.224 483.856 240.375 C 484.531 238.215 487.773 236.387 487.497 239.92 C 487.252 243.056 488.551 244.864 491.217 244.597 C 493.34 244.417 496.997 242.667 496.107 240.68 C 494.235 236.503 497.041 235.837 499.581 237.49 C 500.406 234.44 503.108 233.405 503.369 238.127 C 506.002 237.812 509.875 237.625 506.601 242.106 C 505.548 243.546 506.715 247.546 508.864 247.426 C 510.164 247.354 512.007 246.307 512.751 244.003 C 514.759 237.785 517.245 243.169 516.741 245.094 C 522.014 243.037 521.983 248.007 518.441 249.177 C 515.008 250.311 512.626 252.605 510.846 254.835 C 500.805 253.176 491.632 251.998 483.144 252.204 C 483.675 250.074 484.137 246.34 482.251 243.824 L 482.251 243.824 Z" style="fill:#da121a;stroke:#000;stroke-width:.46875;stroke-linecap:round;stroke-linejoin:round;stroke-miterlimit:4;stroke-dasharray:none;stroke-opacity:1"/><path d="M 478.132 262.944 C 475.886 261.474 471.159 264.274 472.752 260.329 C 473.546 258.364 475.372 258.74 477.295 258.655 C 481.765 258.457 482.341 253.435 485.368 253.251 C 492.942 252.793 500.79 254.044 508.315 255.826 C 511.57 256.597 512.827 262.146 510.093 266.865 C 512.187 266.333 513.323 264.365 516.528 265.499 C 516.524 269.565 514.76 270.992 513.622 273.357 C 515.379 271.8 517.183 270.366 519.236 270.293 C 517.587 277.886 518.606 285.303 519.762 292.273 C 517.742 290.704 514.785 287.526 512.765 287.358 C 513.145 292.655 513.093 295.535 513.17 297.412 C 517.4 300.289 518.98 303.941 519.35 309.74 C 515.56 308.613 512.332 304.383 509.155 299.876 C 509.852 307.149 519.191 311.298 516.035 318.398 C 513.462 318.304 511.883 313.349 509.915 310.225 C 510.189 318.9 510.871 324.84 506.303 325.633 C 505.317 321.743 504.015 317.393 502.406 315.371 C 502.686 323.104 503.923 329.505 500.049 334.167 C 497.758 336.924 494.287 336.777 491.347 335.727 C 497.419 330.507 493.849 328.42 492.482 324.444 C 491.443 321.423 495.782 315.178 498.468 310.985 C 494.821 313.781 491.304 320.233 488.351 325.027 C 484.871 330.675 481.695 336.413 478.953 339.474 C 473.966 345.04 468.088 340.198 468.035 333.471 C 466.183 337.237 464.264 338.312 461.855 339.434 C 457.011 341.688 452.998 340.694 451.854 333.953 C 455.385 333.356 457.03 335.205 459.241 335.052 C 462.323 334.838 464.681 332.992 465.343 329.349 C 462.14 333.249 460.053 333.917 454.328 332.242 C 451.152 331.312 448.486 334.575 445.784 336.179 C 445.781 334.871 446.549 333.177 447.133 331.576 C 444.129 334.335 440.456 337.191 436.834 337.174 C 438.044 329.954 441.817 323.404 447.618 316.697 C 445.268 317.788 441.664 321.13 440.286 323.798 C 436.601 330.936 435.531 332.618 431.34 336.41 C 427.846 339.572 422.35 340.244 417.73 340.153 C 411.034 340.021 405.149 338.474 403.126 332.898 C 410.146 336.914 417.322 339.066 425.92 334.518 C 432.584 330.994 434.712 324.59 439.332 314.514 C 431.599 323.769 423.549 326.171 417.182 322.489 C 424.162 320.922 432.504 319.887 432.489 311.628 C 428.147 316.635 423.725 319.3 419.073 315.294 C 422.65 314.259 426.143 313.082 427.577 308.374 C 424.967 309.31 422.371 310.172 420.067 309.271 C 422.368 307.194 425.226 305.341 426.074 302.682 C 424.598 300.389 421.641 306.291 417.884 305.099 C 414.699 298.293 420.956 293.607 427.246 296.773 C 428.798 284.418 425.667 284.457 426.583 281.526 C 427.701 277.946 430.699 279.3 431.806 277.16 C 433.194 274.475 430.586 271.675 433.976 270.082 C 436.602 268.848 436.806 274.555 439.389 273.939 C 441.459 273.446 443.093 271.871 443.641 268.736 C 446.027 269.268 447.593 269.019 449.744 268.636 C 451.06 273.583 451.774 278.17 449.922 281.057 C 447.732 284.471 445.41 288.575 446.139 292.986 C 446.772 296.819 449.402 299.199 451.074 300.342 C 450.202 303.382 448.32 304.952 444.659 307.845 C 448.727 307.02 451.307 303.205 452.61 299.069 C 456.466 299.552 460.732 301.805 463.783 299.712 C 467.887 296.897 474.659 297.717 479.05 295.581 C 480.268 295.165 480.986 293.949 480.647 291.041 C 476.804 290.785 471.64 292.613 473.435 283.454 C 477.62 284.825 482.033 285.364 486.425 285.041 C 487.531 287.26 481.778 286.416 480.608 287.227 C 483.147 289.048 487.098 288.353 489.335 287.023 C 495.082 283.607 489.079 278.625 487.75 274.813 C 491.133 275.663 493.25 280.663 494.662 283.905 C 494.364 282.905 494.773 282.188 496.038 281.814 C 495.979 278.515 496.749 275.398 493.759 274.445 C 494.072 276.207 493.902 278.262 493.275 277.542 C 492.129 276.225 491.078 273.975 488.917 273.551 C 487.682 273.308 486.362 272.546 485.367 271.897 C 483.206 270.487 479.647 271.09 475.384 270.708 C 474.184 270.601 473.794 268.002 473.201 265.361 C 472.448 262.015 477.404 265.922 478.132 262.944 L 478.132 262.944 Z" style="fill:#fcdd09;stroke:#000;stroke-width:.9375;stroke-linecap:round;stroke-linejoin:round;stroke-miterlimit:4;stroke-dasharray:none;stroke-opacity:1"/><path d="M 391.78 346.491 C 395.314 352.171 398.842 352.266 402.383 352.143 C 411.176 351.836 419.759 350.172 427.791 348.303 C 437.221 346.108 445.294 344.096 449.865 339.119 C 452.242 342.086 454.56 342.884 456.996 342.999 C 459.98 343.139 463.459 340.986 465.674 338.456 C 468.19 341.969 470.904 344.95 474.617 344.228 C 480.065 343.168 482.126 338.19 484.765 333.891 C 486.65 330.821 488.317 326.586 490.093 324.84 C 492.467 328.415 494.93 331.176 489.677 336.276 C 493.121 338.166 496.057 337.869 499.871 336.056 C 506.965 342.639 514.493 346.804 520.461 356.241 C 525.991 364.981 532.282 372.739 534.949 383.805 C 542.763 385.721 548.277 383.666 550.216 378.311 C 551.298 375.321 549.888 363.331 546.121 356.669 C 544.403 353.629 533.366 333.202 531.671 327.166 C 527.488 312.267 529.251 299.576 529.237 294.666 C 529.219 288.049 529.325 282.77 527.228 274.779 C 529.448 276.161 531.765 277.769 533.081 277.039 C 536.144 263.901 531.525 263.889 531.946 256.194 C 535.789 259.772 537.585 266.127 538.283 271.582 C 539.224 278.928 535.825 280.744 538.113 285.487 C 540.827 283.117 543.423 281.162 545.519 280.96 C 541.186 287.38 538.221 292.468 538.186 302.367 C 538.163 308.959 538.238 317.462 539.941 320.307 C 543.33 325.967 544.233 321.403 544.913 319.312 C 546.936 313.085 548.678 310.078 551.408 308.37 C 552.225 313.438 547.868 320.172 547.564 326.272 C 547.242 332.746 547.574 341.415 552.961 339.902 C 555.375 333.007 557.824 325.677 564.217 319.7 C 563.981 324.675 561.241 330.952 558.834 336.548 C 555.134 345.145 557.21 353.882 559.514 357.764 C 561.286 348.984 565.992 344.739 571.158 341.204 C 572.079 343.294 567.92 348.164 565.611 354.012 C 563.475 359.424 563.091 365.824 565.758 367.999 C 569.184 361.361 574.538 361.604 578.741 357.992 C 580.356 364.284 575.227 364.842 571.671 367.932 C 566.878 372.096 565.815 379.537 560.745 381.897 C 563.602 387.028 570.968 381.208 574.703 377.587 C 578.137 374.26 582.458 370.821 587.165 369.77 C 593.643 368.325 597.637 381.918 588.973 382.446 C 587.99 379.221 595.764 373.129 586.271 374.618 C 581.979 375.291 577.771 381.301 573.521 384.642 C 569.026 388.304 564.726 388.156 560.859 388.8 C 558.729 390.679 558.957 395.303 556.862 395.353 C 556.021 395.373 555.737 393.41 554.687 392.566 C 553.6 391.694 552.617 390.462 551.696 388.703 C 553.107 393.625 551.282 398.43 549.513 400.89 C 548.183 397.916 546.218 394.3 544.116 393.756 C 540.642 392.856 536.176 393.438 537.014 396.622 C 538.778 403.321 539.344 406.689 538.752 411.242 C 538.132 416.019 534.459 422.471 538.652 424.347 C 547.292 428.212 551.705 416.142 556.125 417.52 C 558.682 418.317 560.827 419.064 563.531 419.137 C 565.973 419.203 568.231 418.042 570.362 416.175 C 570.266 417.475 569.238 419.303 570.843 419.435 C 572.207 419.548 573.043 419.925 573.789 420.345 C 571.505 427.322 566.167 424.285 561.409 423.878 C 555.543 423.376 553.187 425.729 551.324 428.344 C 553.404 428.403 555.484 428.359 557.564 428.709 C 557.264 433.502 553.607 435.314 550.644 437.742 C 552.905 436.275 555.19 434.887 557.621 433.974 C 560.145 433.025 563.294 434.814 565.798 433.098 C 565.466 435.505 564.121 437.188 561.603 438.033 C 564.837 442.931 559.443 441.743 556.376 441.113 C 552.765 440.373 552.394 441.98 550.936 443.022 C 556.202 443.867 560.23 445.284 561.449 447.997 C 557.512 447.962 553.369 446.695 549.71 448.325 C 551.514 452.128 556.03 454.505 553.785 461.068 C 551.295 461.984 549.308 462.242 546.982 458.349 C 545.847 456.452 544.842 453.784 542.71 453.984 C 541.08 462.18 547.11 462.311 546.258 467.225 C 542.698 466.924 541.955 460.948 539.258 460.998 C 539.001 465.858 537.008 466.635 536.372 468.993 C 534.292 469.27 535.885 464.831 532.512 462.501 C 530.511 461.119 528.722 461.672 526.827 462.274 C 528.295 459.84 526.901 456.179 526.153 455.464 C 524.134 457.977 523.413 463.104 522.883 466.893 C 521.978 473.365 518.573 473.751 513.481 473.596 C 508.415 473.7 514.961 470.535 510.85 466.244 C 507.069 462.298 504.706 467.504 501.33 465.424 C 500.899 460.404 504.869 461.094 503.812 458.403 C 502.432 454.886 503.184 453.081 503.343 450.273 C 507.253 450.281 512.346 451.23 513.839 448.414 C 515.476 445.324 517.072 445.069 516.288 439.096 C 515.204 430.847 510.754 429.272 510.206 424.756 C 509.212 431.369 502.632 429.334 497.729 430.018 C 499.645 424.493 507.626 425.635 508.804 416.837 C 509.387 412.483 508.107 409.317 506.46 405.293 C 513.28 404.21 515.409 398.493 513.598 389.249 C 511.304 392.5 508.429 395.3 505.72 395.721 C 506.45 386.855 504.067 385.159 499.503 374.665 C 497.689 370.495 493.477 368.709 490.685 368.435 C 483.593 367.741 480.141 357.438 477.761 357.918 C 474.44 358.588 470.935 363.839 467.757 367.239 C 466.184 366.842 465.315 363.816 462.805 363.941 C 459.799 370.506 458.355 376.87 453.795 377.882 C 454.701 373.476 458.573 369.152 456.139 364.467 C 452.532 365.67 449.911 371.803 446.859 375.777 C 445.755 374.048 444.916 371.685 445.359 366.245 C 440.497 368.387 440.542 374.032 437.206 377.495 C 437.402 374.194 437.436 370.036 436.466 368.775 C 429.706 370.277 427.25 376.615 424.453 381.981 C 423.525 379.336 424.348 375.191 425.588 370.688 C 422.868 375.35 419.551 378.017 415.896 379.56 C 417.479 371.516 414.382 371.427 411.393 369.733 C 408.42 377.007 406.099 381.152 400.803 379.228 C 402.489 377.004 403.797 374.387 403.481 372.328 C 398.596 373.734 400.421 368.378 396.966 366.79 C 393.786 365.329 387.866 364.542 386.008 367.24 L 381.896 365.836 C 380.862 363.614 380.456 360.451 378.287 359.93 L 378.789 353.9 C 383.129 353.985 387.309 353.734 387.354 346.762 L 391.78 346.491 Z" style="fill:#fcdd09;stroke:#000;stroke-width:.9375;stroke-linecap:round;stroke-linejoin:round;stroke-miterlimit:4;stroke-dasharray:none;stroke-opacity:1"/><path d="M 425.705 425.204 C 422.896 422.982 420.905 425.192 421.182 427.564 C 421.557 430.774 419.55 431.389 418.47 432.844 C 417.096 434.695 415.697 433.871 413.93 434.247 C 413.584 437.511 413.488 440.041 415.276 440.156 C 417.429 440.294 419.712 439.479 421.336 441.288 C 423.4 443.586 422.241 447.738 420.499 450.035 C 422.581 451.635 425.617 452.333 427.511 450.516 C 431.599 446.595 438.88 451.984 442.961 446.28 C 443.063 447.055 442.761 448.424 442.417 449.386 C 442.037 450.45 441.541 451.636 442.001 453.192 C 445.837 454.502 447.721 449.742 450.779 446.922 C 452.086 448.314 448.033 454.266 451.228 458.467 C 454.906 456.384 456.92 447.309 460.177 443.802 C 456.502 452.394 457.265 451.173 457.699 455.898 C 462.157 455.753 463.729 449.428 465.209 443.628 C 464.789 449.483 465.699 452.168 466.552 453.398 C 470.649 451.845 468.614 443.21 470.092 439.513 C 471.137 436.901 472.802 435.118 475.193 433.433 C 470.464 431.672 472.07 419.242 473.067 410.579 C 473.133 413.066 473.845 420.48 475.501 421.986 C 478.367 421.139 478.583 411.239 479.401 404.828 C 480.576 407.169 480.181 410.318 480.309 411.723 C 485.231 407.218 494.53 401.526 502.089 398.699 C 506.005 397.234 505.469 390.734 504.061 387.343 C 502.594 383.811 500.673 380.853 496.791 379.031 C 496.013 382.193 498.791 383.787 498.048 387.228 C 494.628 388.24 496.913 382.013 492.971 381.096 C 493.036 384.222 492.383 387.597 494.551 390.474 C 492.014 390.599 490.936 385.137 489.379 382.414 C 488.837 385.657 488.596 389.68 490.029 392.641 C 486.989 391.539 487.574 387.435 486.202 384.686 C 481.562 384.658 473.568 383.631 469.18 385.112 C 466.08 386.158 464.962 388.395 463.411 390.983 C 461.191 388.546 457.953 388.467 454.951 388.449 C 451.301 388.426 442.165 397.418 443.862 390.729 C 436.352 390.161 442.634 398.242 446.092 397.889 C 449.582 397.534 453.37 396.424 455.225 394.807 C 455.552 398.131 457.592 400.405 454.945 402.376 C 451.491 404.946 449.225 406.113 449.536 409.634 C 449.842 413.094 453.411 415.004 452.267 417.668 C 450.599 421.554 447.494 421.48 443.139 421.374 C 437.582 421.24 436.006 424.544 432.329 428.029 C 430.565 429.702 428.517 427.427 425.705 425.204 L 425.705 425.204 Z" style="fill:#fcdd09;stroke:#000;stroke-width:.9375;stroke-linecap:round;stroke-linejoin:round;stroke-miterlimit:4;stroke-dasharray:none;stroke-opacity:1"/><path d="M 437.072 264.21 C 437.218 268.051 435.718 269.828 433.992 270.624 C 431.925 271.577 427.845 272.762 426.793 270.664 C 425.077 267.242 429.407 267.14 429.763 262.458 C 432.194 263.456 434.363 264.459 437.073 264.21 L 437.072 264.21 Z" style="fill:#da121a;stroke:#000;stroke-width:.46875;stroke-linecap:round;stroke-linejoin:round;stroke-miterlimit:4;stroke-dasharray:none;stroke-opacity:1"/><path d="M 483.4 402.807 C 487.798 400.634 492.26 398.444 499.103 395.659 M 480.587 399.644 C 480.62 398.264 481.23 398.038 481.877 397.886 M 473.322 404.917 C 475.042 404.234 474.691 403.205 474.611 402.222 M 471.447 390.152 C 474.025 389.247 476.603 389.104 479.181 389.448 M 459.845 395.542 C 460.872 395.235 462.035 395.472 462.775 394.019 M 460.314 404.917 C 460.091 403.38 460.204 402.01 461.837 401.401 M 456.33 410.308 C 458.5 410.493 460.29 409.535 461.837 407.847 M 456.798 420.503 C 457.935 419.648 459.08 416.223 458.088 413.12 M 448.478 429.175 C 450.747 428.218 453.172 428.201 455.158 425.542 M 424.688 431.05 C 424.928 430.386 425.028 429.722 425.861 429.058 M 434.65 432.338 C 437.36 430.411 438.978 427.858 443.673 427.065 M 428.322 446.285 C 429.784 445.645 431.532 445.435 432.423 443.94 M 421.056 436.792 C 424.091 437.67 427.669 437.839 426.798 443.823 M 496.759 273.198 C 499.489 276.879 500.709 281.013 497.228 286.558 M 488.205 259.488 C 488.87 260.501 489.828 261.223 490.197 262.534 C 490.695 261.757 492.881 261.654 494.884 261.479 C 492.658 260.262 490.431 259.459 488.204 259.487 L 488.205 259.488 Z M 447.967 312.642 C 445.834 312.528 444.602 312.715 443.791 313.042 M 455.621 303.556 C 454.861 304.222 454.09 305.001 453.717 305.968 M 466.802 304.922 C 465.083 307.224 461.79 309.719 460.072 310.492 M 474.728 303.667 C 472.853 306.477 470.978 307.758 469.103 308.823 M 483.454 303.916 C 481.232 307.115 479.376 308.758 477.374 309.526 M 496.994 301.558 C 496.368 306.448 494.479 309.063 492.306 311.167 M 493.126 288.784 C 492.788 289.464 492.34 289.926 491.781 290.164 M 501.371 291.942 C 502.19 296.192 502.562 300.187 501.212 303.198 M 460.548 327.573 C 460.624 326.957 461.515 326.158 462.656 326.435 M 472.616 329.599 C 471.471 337.161 478.05 335.639 479.65 330.386 M 472.853 315.972 C 476.837 315.929 480.822 316.338 484.806 314.214 C 482.811 319.218 480.136 320.486 477.541 322.183 M 470.041 319.136 C 475.504 310.651 486.267 312.993 491.603 303.901 M 447.623 325.571 C 452.982 318.064 461.529 322.477 466.593 315.495 M 443.409 302.901 C 444.15 302.529 444.929 302.195 445.027 301.181 M 442.872 295.463 C 442.609 296.09 441.988 296.36 441.062 296.323 M 440.482 292.429 C 441.262 292.068 442.044 291.754 442.825 290.75 M 444.922 272.161 C 445.61 272.082 446.335 272.04 446.812 271.749 M 439.806 288.901 C 440.56 288.094 440.896 287.203 442.673 286.601 M 434.65 287.495 C 435.415 293.845 432.99 295.555 431.506 298.634" style="fill:none;stroke:#000;stroke-width:1.875;stroke-linecap:round;stroke-linejoin:round;stroke-miterlimit:4;stroke-dasharray:none;stroke-opacity:1"/><path d="M 474.969 270.667 C 474.705 273.282 475.929 273.974 477.279 274.122 C 477.044 272.882 476.775 271.853 477.402 270.829 L 474.969 270.667 Z" style="fill:#fcdd09;fill-opacity:1;stroke:#000002;stroke-width:.46875;stroke-linecap:butt;stroke-linejoin:miter;stroke-miterlimit:4;stroke-dasharray:none;stroke-opacity:1"/><path d="M 462.897 261.847 C 464.773 265.23 462.394 272.407 470.649 274.891 C 473.262 275.677 476.031 277.598 478.972 278.611 C 482.542 279.843 486.602 279.386 489.439 281.713 C 485.305 284.208 480.787 280.881 476.879 280.434 C 473.056 279.997 469.199 279.662 465.587 278.589 C 459.161 276.679 462.235 267.021 462.897 261.847 L 462.897 261.847 Z M 423.415 276.237 C 427.751 278.253 427.765 280.46 426.885 282.144 C 425.83 284.16 422.489 287.379 420.388 286.337 C 417.184 284.747 418.411 282.054 416.098 278.81 C 418.912 278.335 421.634 278.705 423.415 276.238 L 423.415 276.237 Z M 450.062 267.503 C 449.847 270.085 444.21 269.861 443.182 268.802 C 441.465 265.379 445.795 265.628 445.917 260.712 C 449.051 261.945 449.58 265.877 450.062 267.502 L 450.062 267.503 Z M 393.343 340.627 C 393.49 344.469 392.966 346.197 391.083 346.457 C 388.431 346.824 381.656 347.657 380.603 345.559 C 378.887 342.137 385.327 342.738 385.449 337.236 C 387.879 338.234 390.635 340.877 393.343 340.628 L 393.343 340.627 Z M 377.414 349.764 C 379.583 352.939 379.614 354.948 379.424 356.839 C 379.132 359.734 376.874 362.349 374.528 362.361 C 371.832 362.376 371.301 358.041 370.154 356.386 C 368.835 354.484 367.823 354.244 367.754 352.033 C 370.928 352.053 375.254 351.417 377.414 349.764 L 377.414 349.764 Z M 374.641 367.129 C 377.937 365.594 380.189 364.317 381.523 364.687 C 383.118 365.13 385.28 365.9 385.862 367.584 C 386.222 368.623 385.166 371.068 384.925 371.931 C 383.893 375.618 380 370.842 376.913 376.707 C 373.393 375.662 376.001 369.882 374.641 367.129 Z M 425.288 417.904 C 426.489 421.159 428.778 424.41 424.2 424.904 C 421.538 425.192 416.648 426.574 415.596 424.476 C 413.879 421.054 416.569 421.537 416.691 416.036 C 420.346 418.013 422.761 418.299 425.288 417.904 Z M 410.968 429.854 C 413.016 429.754 414.32 430.896 414.007 433.548 C 413.609 436.915 415.651 440.749 413.377 441.331 C 409.743 442.261 410.75 439.196 408.874 438.463 C 406.719 437.621 403.87 439.041 402.578 437.245 C 404.005 434.969 406.192 436.066 407.647 434.745 C 409.129 433.398 409.761 431.036 410.968 429.854 Z M 416.038 460.703 C 414.074 457.141 415.045 451.203 417.528 449.71 C 418.471 449.144 421.038 450.026 421.927 450.132 C 426.51 450.68 427.645 450.465 426.857 455.594 C 426.561 456.889 423.842 455.431 422.31 455.658 C 419.608 456.06 417.735 459.724 416.038 460.703 L 416.038 460.703 Z M 504.192 443.389 C 505.979 447.23 503.589 455.954 502.518 455.897 C 500.45 455.787 498.017 458.618 496.726 455.82 C 496.392 455.096 497.214 452.413 496.661 450.568 C 496.194 449.012 494.478 450.056 493.719 447.497 C 495.404 446.397 499.222 447.42 499.877 445.733 C 500.908 443.073 502.804 443.598 504.192 443.389 L 504.192 443.389 Z M 499.248 463.307 C 501.623 461.853 501.988 465.786 502.52 466.298 C 503.808 467.538 504.75 471.742 503.297 471.855 C 499.93 472.372 494.491 474.124 492.967 471.519 C 494.393 469.243 496.145 467.969 495.574 466.089 C 494.595 462.867 497.806 464.189 499.247 463.307 L 499.248 463.307 Z M 507.682 473.789 C 508.426 472.979 511.538 473.329 512.432 473.273 C 516.782 473.001 516.978 477.239 516.658 479.438 C 516.363 480.733 514.864 479.674 513.518 480.44 C 511.168 481.779 508.402 482.863 508.402 482.863 C 507.922 481.823 506.41 475.173 507.682 473.789 L 507.682 473.789 Z" style="fill:#da121a;stroke:#000;stroke-width:.46875;stroke-linecap:round;stroke-linejoin:round;stroke-miterlimit:4;stroke-dasharray:none;stroke-opacity:1"/><path d="M 547.736 435.972 C 546.53 436.689 545.153 436.895 543.634 436.675 M 547.853 431.987 C 546.529 433.309 545.205 433.27 543.882 433.389 M 547.15 427.769 C 545.56 430.39 544.408 431.087 543.103 432.005 M 522.189 458.823 C 520.236 462.899 518.283 466.897 516.329 469.136 M 553.829 378.433 C 553.37 378.752 552.911 378.529 552.452 378.433 M 556.056 386.87 L 554.181 386.87 M 552.306 381.245 C 551.541 381.105 550.979 381.168 550.431 381.245 M 550.08 383.706 C 549.162 384.199 548.498 383.928 547.79 383.789 M 547.384 385.581 C 546.826 385.714 546.282 385.877 545.509 385.581 M 543.517 386.636 C 542.751 386.918 542.192 386.786 541.642 386.636 M 539.65 387.573 L 537.775 387.573 M 535.431 388.745 C 534.889 388.724 534.347 388.341 533.805 387.668 M 532.735 393.55 C 532.408 393.958 531.879 394.164 531.109 394.13 M 533.087 396.245 C 532.151 396.401 531.728 396.3 531.212 396.245 M 533.322 398.94 C 532.697 399.174 532.072 399.149 531.447 398.94 M 532.97 401.519 L 531.095 401.519 M 533.087 404.565 C 532.5 405.228 531.503 405.481 530.627 405.855 M 532.619 409.253 C 531.564 410.015 530.509 410.678 529.455 411.128 M 531.915 414.058 C 530.938 414.76 529.807 415.308 528.517 415.698 M 531.33 418.159 C 530.06 419.507 529.007 420.206 528.048 420.62 M 531.33 422.144 C 530.368 423.716 529.321 424.781 528.048 424.487 M 520.068 450.012 C 518.906 449.867 517.918 450.241 517.198 451.42 M 520.217 444.773 C 519.942 445.759 519.389 446.049 518.673 445.933 M 520.54 439.505 C 520.274 440.435 520.008 440.909 519.742 441.411 M 521.382 436.032 C 520.714 435.979 520.122 436.308 519.674 437.358 M 521.666 430.595 C 520.878 430.352 520.373 430.676 519.791 430.844 M 516.33 402.222 C 514.542 405.711 513.135 406.536 511.642 407.964 M 514.103 412.886 C 512.873 413.584 511.857 413.433 510.939 412.886 M 519.128 397.712 C 518.678 398.384 518 398.828 517.336 399.286 M 519.376 395.19 C 518.626 395.44 518.032 395.38 517.501 395.19 M 518.896 391.109 C 517.884 391.509 516.873 391.471 515.861 391.44 M 517.939 387.543 L 516.064 387.543 M 510.218 382.213 C 509.538 383.509 508.858 383.722 508.178 384.186 M 509.058 378.402 C 508.629 379.067 507.923 379.53 507.515 380.126 M 507.235 376.165 C 507.005 376.746 506.613 377.168 505.94 377.308 M 506.241 373.098 C 505.161 374.164 504.519 374.569 503.869 374.988 M 504.252 370.53 C 503.489 372.034 502.726 371.906 501.963 372.42 M 502.513 367.05 C 501.556 369.02 500.599 369.185 499.643 369.685 M 383.925 361.092 C 383.103 361.632 382.169 361.837 380.907 361.059 M 501.241 364.37 C 500.389 365.474 499.359 365.865 498.289 366.094 M 498.179 361.764 C 496.891 363.53 495.866 363.981 494.787 364.702 M 495.905 359.42 C 494.546 361.632 492.959 362.567 491.809 363.53 M 489.659 360.426 C 491.037 359.739 492.415 359.111 493.793 356.704 M 484.697 359.214 C 487.379 358.303 489.993 357.056 492.237 353.961 M 539.533 431.167 C 542.493 431.421 544.846 431.412 543.634 436.675 C 542.922 439.767 540.131 439.945 537.658 440.776 C 531.141 442.966 535.678 445.683 537.775 447.104 M 557.448 368.508 C 557.983 371.663 557.991 373.766 557.642 375.154 M 549.685 347.164 C 550.68 349.15 551.629 351.307 551.972 355.682 C 552.885 352.056 553.801 348.457 554.498 343.108 M 536.84 327.133 C 539.298 333.87 540.911 335.543 542.751 338.573 C 542.896 335.586 542.813 332.145 543.357 329.96 M 532.853 288.667 C 535.253 294.924 533.986 299.96 533.047 303.433 M 403.381 361.38 C 406.773 361.704 410.356 361.648 414.191 361.089 M 463.478 348.667 L 462.885 353.262 M 459.025 349.136 L 458.285 353.473 M 454.103 349.37 L 453.203 355.416 M 447.969 362.483 C 450.576 357.428 453.016 352.371 464.249 353.354 M 423.525 355.035 C 428.075 354.502 432.478 353.605 436.153 350.885 M 389.073 358.539 C 390.768 360.31 392.613 361.009 394.737 360.632" style="fill:none;stroke:#000;stroke-width:1.875;stroke-linecap:round;stroke-linejoin:round;stroke-miterlimit:4;stroke-dasharray:none;stroke-opacity:1"/><path d="M 479.113 270.869 C 478.765 272.739 478.985 274.755 480.718 274.37 C 481.949 274.096 482.103 272.22 481.736 270.948 L 479.113 270.869 Z M 483.728 271.222 C 483.38 273.092 483.998 275.128 485.441 274.867 C 486.682 274.643 486.596 273.637 486.477 272.572 C 485.725 271.992 484.642 271.368 483.727 271.222 L 483.728 271.222 Z" style="fill:#fcdd09;fill-opacity:1;stroke:#000002;stroke-width:.46875;stroke-linecap:butt;stroke-linejoin:miter;stroke-miterlimit:4;stroke-dasharray:none;stroke-opacity:1"/><path d="M 678.817 97.937 C 684.76 100.471 687.869 89.394 675.92 88.511 L 676.389 67.417 C 678.128 60.437 690.599 56.735 695.704 47.05 C 697.416 43.802 695.607 27.131 695.607 15.854 C 697.148 13.14 698.917 10.729 702.307 10.481 C 700.507 8.939 699.923 6.383 694.617 7.762 C 697.1 2.438 692.753 -1.239 690.257 -2.896 C 686.3 -0.364 682.979 2.38 682.733 6.148 C 678.606 4.558 674.479 2.703 670.352 6.262 C 677.766 9.096 683.289 20.067 671.142 21.092 C 663.48 21.737 663.179 16.181 662.795 10.229 C 658.753 11.812 655.98 14.665 655.06 19.37 C 641.294 21.113 638.29 31.612 653.889 35.542 C 649.966 36.307 647.669 38.698 648.732 44.448 C 668.525 42.903 661.517 59.097 648.498 58.979 C 638.746 58.892 629.521 50.032 641.701 43.745 C 639.406 40.451 636.801 38.238 633.264 39.292 C 632.905 33.858 631.434 29.258 628.576 25.698 C 625.779 29.174 621.367 31.306 622.014 37.651 C 618.267 36.291 615.887 37.179 613.342 39.995 C 620.085 47.145 615.244 53.705 606.076 52.885 C 587.292 51.209 585.987 39.005 603.966 39.995 C 604.178 38.843 605.297 35.401 601.389 33.667 C 611.033 32.546 621.37 21.691 605.842 16.792 C 606.6 13.991 606.636 11.552 604.904 9.995 C 592.426 19.429 590.082 5.019 603.264 1.323 C 600.594 -1.109 598.303 -3.983 592.014 -2.192 C 590.802 -6.079 587.773 -14.682 582.873 -18.13 C 579.721 -15.45 577.043 -11.823 575.139 -6.646 C 571.885 -10.202 568.081 -10.616 565.529 -8.286 C 570.429 -5.984 574.564 -0.086 570.217 2.261 C 566.994 4.001 563.81 3.246 560.607 1.409 C 558.93 3.747 557.857 6.219 558.429 9.829 C 542.254 9.836 544.85 22.813 555.439 25.201 C 554.349 26.973 551.917 29.181 552.639 31.558 C 567.6 31.331 561.841 47.324 551.467 47.026 C 539.83 46.693 534.579 37.786 544.201 31.323 C 543.009 30.698 542.503 30.073 538.341 29.448 C 537.011 26.361 538.745 25.571 532.951 19.136 C 531.065 22.191 528.166 24.64 529.201 29.448 C 527.624 28.545 522.523 28.81 520.541 30.854 C 523.831 38.609 522.978 49.417 509.514 48.198 C 494.898 46.875 493.607 26.31 511.154 30.386 C 510.991 28.085 510.081 26.156 509.044 24.292 C 514.521 21.762 516.857 19.682 518.889 15.386 C 517.862 11.773 515.225 9.234 510.451 8.12 C 511.093 4.414 509.644 1.125 507.17 -1.958 C 503.983 5.248 498.848 5.895 495.92 3.432 C 491.434 -0.34 493.127 -7.418 503.42 -8.989 C 500.474 -11.926 497.253 -14.311 491.232 -11.099 C 491.049 -18.385 488.238 -24.197 483.215 -29.461 C 478.191 -24.197 475.38 -18.385 475.197 -11.099 C 469.177 -14.311 465.955 -11.926 463.009 -8.989 C 473.302 -7.417 474.995 -0.339 470.509 3.433 C 467.581 5.895 462.446 5.248 459.259 -1.958 C 456.785 1.125 455.336 4.414 455.978 8.12 C 451.204 9.234 448.567 11.773 447.54 15.386 C 449.572 19.683 451.908 21.762 457.384 24.292 C 456.348 26.157 455.438 28.085 455.274 30.386 C 472.822 26.31 471.531 46.876 456.915 48.198 C 443.451 49.417 442.599 38.609 445.888 30.854 C 443.906 28.81 438.805 28.545 437.228 29.448 C 438.263 24.64 435.364 22.191 433.478 19.136 C 427.684 25.571 429.418 26.361 428.088 29.448 C 423.926 30.073 423.42 30.698 422.228 31.323 C 431.85 37.785 426.599 46.693 414.962 47.026 C 404.588 47.324 398.829 31.331 413.79 31.558 C 414.512 29.182 412.08 26.973 410.99 25.201 C 421.579 22.813 424.175 9.836 408 9.829 C 408.572 6.219 407.499 3.747 405.822 1.409 C 402.619 3.246 399.435 4 396.212 2.261 C 391.865 -0.086 396.001 -5.984 400.9 -8.286 C 398.348 -10.616 394.544 -10.202 391.29 -6.646 C 389.387 -11.823 386.708 -15.449 383.556 -18.13 C 378.656 -14.681 375.627 -6.079 374.416 -2.192 C 368.126 -3.983 365.836 -1.109 363.166 1.323 C 376.346 5.019 374.003 19.429 361.525 9.995 C 359.793 11.551 359.829 13.991 360.587 16.792 C 345.059 21.691 355.396 32.546 365.04 33.667 C 361.132 35.401 362.251 38.843 362.462 39.995 C 380.442 39.005 379.137 51.209 360.353 52.885 C 351.185 53.705 346.343 47.145 353.087 39.995 C 350.542 37.179 348.163 36.292 344.415 37.651 C 345.062 31.306 340.65 29.174 337.853 25.698 C 334.995 29.258 333.523 33.858 333.165 39.292 C 329.628 38.238 327.023 40.451 324.728 43.745 C 336.908 50.032 327.683 58.892 317.931 58.979 C 304.912 59.097 297.904 42.903 317.697 44.449 C 318.76 38.698 316.463 36.307 312.54 35.542 C 328.14 31.612 325.135 21.113 311.369 19.37 C 310.449 14.665 307.677 11.812 303.634 10.23 C 303.25 16.181 302.949 21.737 295.287 21.091 C 283.14 20.067 288.663 9.096 296.077 6.261 C 291.95 2.703 287.823 4.558 283.696 6.148 C 283.45 2.38 280.129 -0.364 276.172 -2.896 C 273.676 -1.239 269.329 2.438 271.812 7.762 C 266.506 6.383 265.922 8.939 264.122 10.481 C 267.512 10.729 269.281 13.141 270.822 15.854 C 270.822 27.131 269.012 43.802 270.725 47.05 C 275.828 56.735 288.302 60.436 290.041 67.417 L 290.509 88.511 C 278.56 89.394 281.669 100.471 287.612 97.936 C 355.206 83.452 416.041 78.624 483.215 78.624 C 550.389 78.624 611.223 83.452 678.817 97.936 L 678.817 97.937 Z" style="fill:#fcdd09;stroke:#000100;stroke-width:2.8968749;stroke-linecap:round;stroke-linejoin:round;stroke-miterlimit:4;stroke-dasharray:none;stroke-opacity:1"/><g style="stroke:#000;stroke-width:2.8125;stroke-miterlimit:4;stroke-dasharray:none;stroke-opacity:1" transform="matrix(1, 0, 0, 1, 261.964783, -31.896)"><path d="m215.04 67.318-6.629-6.63 6.63-6.628 6.629 6.629zM119.416 72.193l-6.63-6.629 6.63-6.63 6.629 6.63zM21.916 87.193l-6.63-6.629 6.63-6.63 6.629 6.63zM310.057 72.193l6.63-6.629-6.63-6.63-6.629 6.63zM407.557 87.193l6.63-6.629-6.63-6.63-6.629 6.63z" style="fill:#da121a;stroke:#000;stroke-width:2.8125;stroke-linecap:round;stroke-linejoin:round;stroke-miterlimit:4;stroke-dasharray:none;stroke-opacity:1" transform="translate(6.513 28.063)"/></g><path d="M 353.818 53.819 C 353.818 52.266 352.559 51.006 351.006 51.006 C 349.452 51.005 348.192 52.265 348.193 53.819 C 348.193 55.372 349.452 56.632 351.006 56.631 C 352.559 56.631 353.818 55.372 353.818 53.819 Z M 337.577 50.339 C 337.577 48.785 336.318 47.525 334.764 47.526 C 333.211 47.526 331.952 48.785 331.952 50.338 C 331.951 51.891 333.21 53.151 334.764 53.151 C 336.318 53.152 337.577 51.892 337.577 50.338 L 337.577 50.339 Z M 344.206 61.276 C 344.206 59.723 342.946 58.463 341.393 58.464 C 339.84 58.464 338.581 59.723 338.581 61.276 C 338.58 62.829 339.839 64.089 341.393 64.089 C 342.947 64.09 344.206 62.83 344.206 61.276 Z M 443.974 61.939 C 443.974 60.386 442.715 59.127 441.162 59.127 C 439.608 59.126 438.349 60.386 438.349 61.939 C 438.348 63.493 439.608 64.753 441.162 64.752 C 442.715 64.752 443.974 63.492 443.974 61.939 Z M 427.567 61.111 C 427.567 59.558 426.308 58.298 424.755 58.298 C 423.201 58.297 421.941 59.557 421.942 61.111 C 421.942 62.664 423.201 63.924 424.755 63.923 C 426.308 63.923 427.567 62.664 427.567 61.111 Z M 435.522 70.557 C 435.522 69.004 434.263 67.745 432.71 67.745 C 431.156 67.744 429.897 69.004 429.897 70.557 C 429.896 72.111 431.156 73.371 432.71 73.37 C 434.263 73.37 435.522 72.11 435.522 70.557 Z M 612.611 53.82 C 612.61 52.267 613.869 51.007 615.423 51.007 C 616.977 51.006 618.236 52.266 618.236 53.82 C 618.236 55.373 616.976 56.633 615.423 56.632 C 613.87 56.632 612.611 55.373 612.611 53.82 Z M 628.852 50.34 C 628.851 48.786 630.111 47.526 631.665 47.527 C 633.218 47.527 634.477 48.786 634.477 50.339 C 634.477 51.892 633.218 53.152 631.665 53.152 C 630.111 53.153 628.851 51.893 628.852 50.339 L 628.852 50.34 Z M 622.223 61.277 C 622.223 59.724 623.482 58.464 625.036 58.465 C 626.589 58.465 627.848 59.724 627.848 61.277 C 627.848 62.83 626.589 64.09 625.036 64.09 C 623.482 64.091 622.222 62.831 622.223 61.277 Z M 522.455 61.94 C 522.455 60.387 523.714 59.128 525.267 59.128 C 526.82 59.127 528.08 60.387 528.08 61.94 C 528.08 63.494 526.821 64.754 525.267 64.753 C 523.713 64.753 522.454 63.493 522.455 61.94 Z M 538.862 61.112 C 538.861 59.559 540.12 58.299 541.674 58.299 C 543.228 58.298 544.487 59.558 544.487 61.112 C 544.487 62.665 543.227 63.925 541.674 63.924 C 540.121 63.924 538.862 62.665 538.862 61.112 Z M 530.907 70.558 C 530.907 69.005 532.166 67.746 533.719 67.746 C 535.272 67.745 536.532 69.005 536.532 70.558 C 536.532 72.112 535.273 73.372 533.719 73.371 C 532.165 73.371 530.906 72.111 530.907 70.558 Z" style="opacity: 0.99; fill: none; fill-opacity: 1; stroke: rgb(0, 0, 0); stroke-width: 2.8125; stroke-linecap: round; stroke-linejoin: round; stroke-miterlimit: 4; stroke-dasharray: none; stroke-dashoffset: 0; stroke-opacity: 1; transform-box: fill-box; transform-origin: 50% 50%;" transform="matrix(-1, 0, 0, -1, 0.000001, -0.000007)"/><path d="M 498.3 38.041 L 495.85 39.069 M 499.36 41.739 L 497.093 43.8 M 502.217 45.307 L 499.642 47.607 M 505.858 47.392 L 504.631 51.313 M 511.671 48.293 C 511.825 48.291 510.567 52.683 510.567 52.683 M 517.285 47.14 L 518.155 51.546 M 520.417 44.507 L 523.516 48.047 M 522.069 39.889 L 525.929 42.219 M 540.214 42.084 L 538.574 44.281 M 544.881 45.711 L 542.951 50.061 M 549.818 46.918 L 549.495 52.948 M 555.068 46.453 L 556.741 52.777 M 559.202 43.687 L 563.114 49.399 M 561.417 39.853 L 565.78 41.476 M 592.255 47.62 C 592.581 47.995 590.425 49.895 590.425 49.895 M 596.583 50.661 L 594.147 55.375 M 602.535 52.414 L 601.455 58.835 M 608.283 52.94 L 608.275 58.989 M 614.072 51.135 L 615.858 55.808 M 616.216 48.281 L 619.101 49.885 M 636.036 51.848 L 632.321 52.323 M 637.492 54.493 L 634.572 58.342 M 640.493 56.876 C 641.019 57.159 638.568 62.102 638.568 62.102 M 644.966 58.571 C 644.95 58.567 643.803 64.639 643.803 64.639 M 650.183 58.903 L 650.383 65.617 M 654.565 57.771 C 654.545 57.779 657.63 64.368 657.63 64.368 M 658.68 54.986 C 658.443 55.221 662.497 60.51 662.497 60.51 M 505.787 14.696 C 494.764 14.911 485.255 23.989 483.731 37.779 M 502.284 60.537 C 506.091 60.225 510.66 60.839 513.313 61.355 M 502.249 56.575 C 506.335 56.617 510.509 56.715 514.144 57.392 M 552.168 62.526 C 555.975 62.214 560.545 62.827 563.197 63.343 M 552.133 58.563 C 556.219 58.606 560.393 58.704 564.028 59.381 M 593.109 67.059 C 597.901 67.4 601.264 68.027 603.85 68.809 M 593.675 62.8 C 597.735 63.257 601.515 64.074 605.063 65.115 M 521.857 35.209 C 529.763 39.751 526.249 52.956 510.567 52.684 C 496.21 52.434 488.865 31.573 504.923 29.995 M 559.896 33.603 C 569.956 38.643 567.338 53.83 551.668 53.181 C 537.642 52.6 532.451 35.055 544.201 31.323 M 613.341 39.995 C 623.402 45.035 620.537 59.962 604.038 59.147 C 590.017 58.455 584.088 42.457 597.992 40.216 M 581.879 4.512 C 580.471 11.233 577.599 31.737 576.779 43.511 M 601.154 22.417 C 590.132 22.631 578.302 29.721 576.779 43.511 C 577.559 27.741 570.369 20.937 560.607 17.026 M 644.651 75.511 C 649.442 75.852 652.806 76.479 655.391 77.261 M 645.217 71.252 C 649.277 71.709 653.057 72.527 656.604 73.568 M 659.415 46.491 C 667.818 52.028 665.615 67.42 647.625 65.445 C 633.67 63.913 624.482 47.808 641.701 43.745 M 661.211 29.808 C 671.243 29.873 676.836 36.041 679.807 45.814 M 687.747 16.129 C 683.921 28.887 686.757 36.383 683.567 41.469 C 679.993 47.169 675.305 49.679 673.342 56.401 M 468.128 38.041 L 470.578 39.069 M 467.068 41.739 L 469.335 43.8 M 464.211 45.307 L 466.786 47.607 M 460.571 47.392 L 461.797 51.313 M 454.757 48.293 C 454.603 48.291 455.861 52.683 455.861 52.683 M 449.143 47.14 L 448.273 51.546 M 446.011 44.507 L 442.913 48.047 M 444.359 39.889 L 440.499 42.219 M 426.214 42.084 L 427.854 44.281 M 421.547 45.711 L 423.477 50.061 M 416.61 46.918 L 416.933 52.948 M 411.36 46.453 L 409.687 52.777 M 407.226 43.687 L 403.314 49.399 M 405.012 39.853 L 400.649 41.476 M 374.173 47.62 C 373.847 47.995 376.003 49.895 376.003 49.895 M 369.845 50.661 L 372.281 55.375 M 363.893 52.414 L 364.973 58.835 M 358.145 52.94 L 358.153 58.989 M 352.357 51.135 L 350.57 55.808 M 350.212 48.281 L 347.327 49.885 M 330.392 51.848 L 334.108 52.323 M 328.936 54.493 L 331.856 58.342 M 325.935 56.876 C 325.409 57.159 327.86 62.102 327.86 62.102 M 321.462 58.571 C 321.478 58.567 322.625 64.639 322.625 64.639 M 316.245 58.903 L 316.045 65.617 M 311.863 57.771 C 311.883 57.779 308.798 64.368 308.798 64.368 M 307.748 54.986 C 307.985 55.221 303.932 60.51 303.932 60.51 M 461.676 14.462 C 472.698 14.676 482.207 23.989 483.73 37.779 M 464.145 60.537 C 460.338 60.225 455.769 60.839 453.117 61.355 M 464.18 56.575 C 460.094 56.617 455.92 56.715 452.285 57.392 M 414.261 62.526 C 410.454 62.214 405.885 62.827 403.232 63.343 M 414.296 58.563 C 410.21 58.606 406.036 58.704 402.401 59.381 M 373.32 67.059 C 368.528 67.4 365.165 68.027 362.579 68.809 M 372.754 62.8 C 368.898 63.239 365.088 64.014 361.367 65.115 M 444.572 35.209 C 436.666 39.751 440.18 52.956 455.862 52.684 C 470.219 52.434 477.564 31.573 461.506 29.995 M 406.533 33.603 C 396.473 38.643 399.091 53.83 414.761 53.181 C 428.787 52.6 433.978 35.055 422.228 31.323 M 353.088 39.995 C 343.028 45.035 345.892 59.962 362.391 59.147 C 376.412 58.455 382.341 42.457 368.437 40.216 M 384.55 4.512 C 385.958 11.233 388.83 31.737 389.65 43.511 M 365.275 22.417 C 376.297 22.631 388.127 29.721 389.65 43.511 C 388.87 27.741 396.06 20.937 405.822 17.026 M 321.778 75.511 C 316.987 75.852 313.623 76.479 311.038 77.261 M 321.212 71.252 C 317.356 71.692 313.546 72.467 309.825 73.568 M 307.014 46.491 C 298.611 52.028 300.814 67.42 318.804 65.445 C 332.759 63.913 341.947 47.808 324.728 43.745 M 305.218 29.808 C 295.187 29.873 289.593 36.041 286.622 45.814 M 278.682 16.129 C 282.508 28.887 279.672 36.383 282.862 41.469 C 286.436 47.169 291.124 49.679 293.087 56.401 M 484.032 -4.671 C 485.44 2.049 482.912 25.771 483.732 37.545 M 675.92 88.511 C 613.034 76.103 547.6 68.977 483.215 68.977 C 418.828 68.977 353.395 76.103 290.509 88.511" style="fill:none;stroke:#000;stroke-width:2.8125;stroke-linecap:round;stroke-linejoin:round;stroke-miterlimit:4;stroke-dasharray:none;stroke-opacity:1"/><path d="M 483.518 79.289 L 483.518 108.352" style="fill:none;stroke:#000;stroke-width:2.8125;stroke-linecap:butt;stroke-linejoin:miter;stroke-miterlimit:4;stroke-dasharray:none;stroke-opacity:1"/></g></svg>