<svg xmlns="http://www.w3.org/2000/svg" viewBox="0 0 640 480"><defs><clipPath id="dest-a" clipPathUnits="userSpaceOnUse"><path d="M 142.441,36 H 277.795 V 139.276 H 142.441 Z"/></clipPath><clipPath id="dest-b" clipPathUnits="userSpaceOnUse"><path d="m 190.777,106.781 c 0,-7.633 6.19,-13.822 13.824,-13.822 v 0 c 7.632,0 13.821,6.189 13.821,13.822 v 0 19.638 l -27.645,0.004 z"/></clipPath><clipPath id="dest-c" clipPathUnits="userSpaceOnUse"><path d="M 142.441,43.276 H 266.81 v 83.173 H 142.441 Z"/></clipPath><clipPath id="dest-d" clipPathUnits="userSpaceOnUse"><path d="M 142.441,36 H 277.795 V 139.276 H 142.441 Z"/></clipPath><clipPath id="dest-e" clipPathUnits="userSpaceOnUse"><path d="m 190.777,106.781 c 0,-7.633 6.19,-13.822 13.824,-13.822 v 0 c 7.632,0 13.821,6.189 13.821,13.822 v 0 z"/></clipPath><clipPath id="dest-f" clipPathUnits="userSpaceOnUse"><path d="m 190.777,107.945 h 27.644 v 18.478 h -27.644 z"/></clipPath><clipPath id="dest-g" clipPathUnits="userSpaceOnUse"><path d="M 142.441,36 H 277.795 V 139.276 H 142.441 Z"/></clipPath><clipPath id="dest-h" clipPathUnits="userSpaceOnUse"><path d="m 190.777,107.945 h 27.644 v 18.478 h -27.644 z"/></clipPath><clipPath id="dest-i" clipPathUnits="userSpaceOnUse"><path d="M 142.441,36 H 277.795 V 139.276 H 142.441 Z"/></clipPath><clipPath id="dest-j" clipPathUnits="userSpaceOnUse"><path d="m 190.777,107.945 h 27.644 v 18.478 h -27.644 z"/></clipPath><clipPath id="dest-k" clipPathUnits="userSpaceOnUse"><path d="M 142.441,36 H 277.795 V 139.276 H 142.441 Z"/></clipPath></defs><path fill="#fcd20e" d="M0 0h640v240H0z"/><path fill="#000" d="M0 240h640v240H0z"/><g style="opacity:1" transform="matrix(7.696743, 0, 0, 7.696743, 20.823959, -1728.838623)"><g transform="matrix(4.252277,0,0,4.252277,-777.5346,-491.17373)"><g transform="matrix(0.35277777,0,0,-0.35277777,119.80508,214.5121)"><g clip-path="url(#dest-a)"><path d="m 190.778,126.423 h 27.644 v -18.478 h -27.644 z" style="fill:#fcd116;fill-opacity:1;fill-rule:nonzero;stroke:none"/><path d="m 190.778,124.313 h 27.644 v -1.819 h -27.644 z" style="fill:#000000;fill-opacity:1;fill-rule:nonzero;stroke:none"/><path d="m 190.778,120.676 h 27.644 v -1.819 h -27.644 z" style="fill:#000000;fill-opacity:1;fill-rule:nonzero;stroke:none"/><path d="m 190.778,117.038 h 27.644 v -1.819 h -27.644 z" style="fill:#000000;fill-opacity:1;fill-rule:nonzero;stroke:none"/><path d="m 190.778,113.401 h 27.644 v -1.819 h -27.644 z" style="fill:#000000;fill-opacity:1;fill-rule:nonzero;stroke:none"/><path d="m 190.778,109.764 h 27.644 v -1.819 h -27.644 z" style="fill:#000000;fill-opacity:1;fill-rule:nonzero;stroke:none"/></g></g><g transform="matrix(0.35277777,0,0,-0.35277777,119.80508,214.5121)"><g clip-path="url(#dest-b)"><path d="m 190.778,92.232 h 27.644 v 15.713 h -27.644 z" style="fill:#ffffff;fill-opacity:1;fill-rule:nonzero;stroke:none"/></g></g><g transform="matrix(0.35277777,0,0,-0.35277777,119.80508,214.5121)"><g clip-path="url(#dest-c)"><g transform="translate(204.6003,92.9594)"/></g></g><g transform="matrix(0.35277777,0,0,-0.35277777,119.80508,214.5121)"><g clip-path="url(#dest-d)"><path d="m 209.838,117.038 h 8.584 v 9.384 h -8.584 z" style="fill:#000000;fill-opacity:1;fill-rule:nonzero;stroke:none"/><path d="m 209.91,117.038 h 8.511 v 9.384 h -8.511 z" style="fill:#ffffff;fill-opacity:1;fill-rule:nonzero;stroke:none"/><g transform="translate(215.032,123.1288)"><path d="m 0,0 c -0.489,-0.006 -0.413,0.395 -0.352,0.691 0.062,0.3 0.151,0.469 0.187,0.718 0.023,0.157 -0.041,0.217 -0.14,0.254 C -0.442,1.713 -0.5,1.713 -0.623,1.747 -0.791,1.794 -0.89,1.892 -1.05,1.873 -1.108,1.866 -1.129,1.821 -1.162,1.772 -1.212,1.777 -1.303,1.785 -1.411,1.781 -1.549,1.776 -1.68,1.738 -1.742,1.655 -1.805,1.569 -1.822,1.481 -1.835,1.389 -1.847,1.297 -1.871,1.243 -1.884,1.148 c 0.079,0.054 0.213,0.138 0.305,0.138 0.074,0 0.118,-0.009 0.184,-0.042 -0.067,-0.05 -0.257,-0.13 -0.435,-0.155 -0.123,-0.017 -0.191,-0.015 -0.319,0 -0.049,0.006 -0.1,-0.003 -0.117,-0.05 -0.035,-0.098 0.289,-0.22 0.5,-0.207 0.085,0.005 0.134,0.017 0.212,0.052 C -1.569,0.848 -1.604,0.811 -1.637,0.765 -1.654,0.741 -1.665,0.727 -1.683,0.703 c 0.096,0.022 0.204,-0.015 0.405,0.155 0.077,0.065 0.125,0.104 0.183,0.187 C -1.108,0.874 -1.128,0.777 -1.183,0.615 -1.242,0.442 -1.296,0.305 -1.392,0.195 -1.498,0.072 -1.725,-0.004 -1.888,0 c -0.317,0.007 -0.616,0.336 -0.609,0.662 0.008,0.34 0.226,0.729 0.311,0.943 0.042,0.104 0.084,0.319 -0.005,0.372 -0.179,0.109 -0.552,0.113 -0.8,0.113 -0.477,0 -0.613,-0.018 -1.074,-0.026 -0.266,-0.005 -0.423,-0.01 -0.693,-0.016 0.016,-0.389 0.223,-0.623 0.581,-0.69 0.24,-0.045 0.614,-0.04 0.881,-0.052 0.044,-0.002 0.334,0.008 0.337,-0.042 C -2.958,1.229 -3.06,1.225 -3.093,1.223 -3.372,1.205 -3.554,1.203 -3.882,1.199 -4.206,1.196 -4.374,1.199 -4.739,1.196 -4.729,1.031 -4.707,0.909 -4.59,0.769 -4.414,0.558 -4.066,0.525 -3.863,0.519 -3.644,0.513 -3.487,0.527 -3.32,0.517 -3.209,0.512 -3.038,0.49 -3.039,0.46 -3.042,0.414 -3.161,0.425 -3.26,0.423 -3.75,0.414 -4.355,0.429 -4.797,0.434 c 0.002,-0.165 0.033,-0.335 0.168,-0.481 0.158,-0.172 0.453,-0.226 0.668,-0.234 0.316,-0.012 0.556,0.015 0.889,-0.004 0.026,-0.001 0.067,0.008 0.069,-0.008 0.002,-0.014 -0.039,-0.021 -0.067,-0.025 -0.326,-0.046 -0.553,-0.081 -0.908,-0.125 -0.32,-0.04 -0.5,-0.06 -0.821,-0.093 0.062,-0.238 0.165,-0.394 0.38,-0.505 0.168,-0.086 0.364,-0.109 0.613,-0.097 0.372,0.018 0.678,0.085 1.077,0.132 0.039,0.005 0.099,0.02 0.102,0.009 0.004,-0.013 -0.04,-0.023 -0.067,-0.031 -0.309,-0.093 -0.614,-0.188 -1.009,-0.298 -0.437,-0.122 -0.685,-0.186 -1.126,-0.291 0.367,-0.382 0.534,-0.49 0.726,-0.505 0.248,-0.019 0.582,0.148 0.928,0.309 0.226,0.105 0.426,0.203 0.635,0.298 0.02,0.01 0.051,0.026 0.054,0.02 0.006,-0.011 -0.034,-0.032 -0.054,-0.044 -0.334,-0.203 -0.62,-0.349 -1.005,-0.588 -0.254,-0.158 -0.396,-0.25 -0.644,-0.417 0.247,-0.094 0.463,-0.197 0.745,-0.202 0.172,-0.004 0.31,0.032 0.443,0.137 0.138,0.109 0.263,0.235 0.429,0.389 0.162,0.151 0.23,0.23 0.412,0.393 0.022,0.019 0.061,0.063 0.07,0.052 0.011,-0.013 -0.031,-0.044 -0.052,-0.07 -0.255,-0.321 -0.425,-0.516 -0.733,-0.883 0.324,-0.006 0.491,-0.004 0.76,0.107 0.33,0.135 0.472,0.295 0.664,0.541 0.019,0.028 0.022,-0.04 0.012,-0.073 -0.031,-0.101 -0.251,-0.302 -0.401,-0.416 -0.217,-0.165 -0.454,-0.302 -0.691,-0.439 0.046,-0.009 0.073,-0.018 0.114,-0.04 0.036,-0.02 0.056,-0.034 0.085,-0.064 -0.117,-0.096 -0.204,-0.207 -0.323,-0.285 -0.116,-0.075 -0.23,-0.105 -0.365,-0.117 -0.106,-0.01 -0.157,-0.01 -0.259,0.004 -0.042,0.005 -0.083,0.013 -0.129,0.018 -0.024,0.004 -0.034,-0.025 -0.046,-0.049 -0.036,-0.002 -0.058,-0.007 -0.092,-0.022 -0.088,-0.039 -0.147,-0.095 -0.155,-0.19 -0.008,-0.086 0.023,-0.152 0.094,-0.2 0.005,0.055 0.027,0.09 0.072,0.121 0.027,0.018 0.046,0.025 0.078,0.028 0.002,-0.026 0.038,-0.03 0.066,-0.028 0.03,0.002 0.062,0.017 0.102,0.025 0.043,0.008 0.064,0.009 0.11,0.017 -0.097,-0.061 -0.178,-0.11 -0.256,-0.165 -0.031,-0.022 -0.054,-0.033 -0.064,-0.07 -0.006,-0.021 0,-0.038 0.016,-0.072 -0.04,-0.072 -0.058,-0.143 -0.031,-0.233 0.027,-0.087 0.123,-0.157 0.242,-0.187 -0.019,0.058 -0.025,0.09 -0.02,0.148 0.002,0.029 0.005,0.045 0.014,0.073 0.034,-0.005 0.053,-0.003 0.078,0.027 0.037,0.046 0.059,0.072 0.097,0.117 0.043,0.052 0.068,0.081 0.112,0.133 -0.024,-0.086 -0.038,-0.134 -0.063,-0.22 -0.021,-0.071 -0.038,-0.087 -0.055,-0.182 -0.005,-0.026 0.015,-0.039 0.042,-0.051 -0.004,-0.14 0.039,-0.211 0.141,-0.266 0.084,-0.046 0.246,-0.059 0.335,-0.042 -0.079,0.032 -0.122,0.07 -0.164,0.144 -0.021,0.037 -0.031,0.061 -0.038,0.104 0.033,0.005 0.055,0.019 0.062,0.068 0.015,0.106 0.025,0.161 0.04,0.265 0.01,0.065 0.034,0.166 0.048,0.162 0.037,-0.045 0.067,-0.09 0.111,-0.16 0.021,-0.034 0.047,-0.057 0.083,-0.048 0.021,0.006 0.034,0.016 0.044,0.034 0.022,-0.023 0.032,-0.04 0.04,-0.071 0.011,-0.048 0.001,-0.069 -0.021,-0.123 0.108,-0.017 0.212,0.028 0.246,0.132 0.038,0.117 -0.025,0.24 -0.078,0.289 0.021,0.048 0.004,0.082 -0.028,0.114 -0.083,0.081 -0.153,0.105 -0.172,0.129 -0.038,0.047 -0.027,0.075 -0.002,0.11 0.056,0.079 0.079,0.106 0.14,0.164 0.061,0.059 0.099,0.089 0.171,0.135 0.038,-0.037 0.058,-0.06 0.09,-0.102 0.038,-0.048 0.056,-0.077 0.085,-0.13 0.05,0.082 0.08,0.127 0.136,0.205 0.069,0.093 0.109,0.146 0.188,0.231 0.076,0.081 0.174,0.165 0.196,0.185 0.023,0.034 0.06,-0.071 0.086,-0.132 0.02,-0.051 0.011,-0.094 -0.004,-0.155 -0.06,-0.244 -0.237,-0.637 -0.394,-0.905 -0.225,-0.381 -0.497,-0.689 -0.799,-1.032 0.112,-0.045 0.269,-0.062 0.442,-0.052 0.17,0.01 0.357,0.032 0.543,0.074 0.09,-0.105 0.146,-0.161 0.249,-0.253 0.128,-0.113 0.205,-0.172 0.347,-0.264 0.143,0.092 0.22,0.151 0.347,0.264 0.103,0.092 0.159,0.148 0.25,0.253 0.186,-0.042 0.372,-0.064 0.542,-0.074 0.174,-0.01 0.33,0.007 0.442,0.052 -0.301,0.343 -0.573,0.651 -0.798,1.032 -0.158,0.268 -0.334,0.661 -0.394,0.905 -0.016,0.061 -0.025,0.104 -0.004,0.155 0.025,0.061 0.062,0.166 0.085,0.132 0.023,-0.02 0.121,-0.104 0.197,-0.185 0.079,-0.085 0.119,-0.138 0.187,-0.231 0.056,-0.078 0.087,-0.123 0.137,-0.205 0.028,0.053 0.047,0.082 0.084,0.13 0.033,0.042 0.053,0.065 0.091,0.102 0.071,-0.046 0.11,-0.076 0.171,-0.135 0.06,-0.058 0.083,-0.085 0.14,-0.164 C 0.557,-3.666 0.569,-3.694 0.531,-3.741 0.512,-3.765 0.442,-3.789 0.359,-3.87 0.326,-3.902 0.309,-3.936 0.331,-3.984 0.277,-4.033 0.215,-4.156 0.253,-4.273 0.286,-4.377 0.391,-4.422 0.499,-4.405 0.476,-4.351 0.466,-4.33 0.478,-4.282 c 0.008,0.031 0.017,0.048 0.04,0.071 0.01,-0.018 0.022,-0.028 0.043,-0.034 0.036,-0.009 0.062,0.014 0.083,0.048 0.044,0.07 0.074,0.115 0.112,0.16 0.013,0.004 0.037,-0.097 0.047,-0.162 0.016,-0.104 0.025,-0.159 0.04,-0.265 C 0.85,-4.513 0.874,-4.527 0.905,-4.532 0.898,-4.575 0.889,-4.599 0.867,-4.636 0.825,-4.71 0.782,-4.748 0.703,-4.78 c 0.089,-0.017 0.252,-0.004 0.335,0.042 0.102,0.055 0.145,0.126 0.141,0.266 0.028,0.012 0.047,0.025 0.043,0.051 -0.018,0.095 -0.034,0.111 -0.056,0.182 -0.024,0.086 -0.038,0.134 -0.062,0.22 0.043,-0.052 0.069,-0.081 0.111,-0.133 0.039,-0.045 0.06,-0.071 0.097,-0.117 0.025,-0.03 0.043,-0.032 0.078,-0.027 0.009,-0.028 0.012,-0.044 0.015,-0.073 0.005,-0.058 -0.002,-0.09 -0.021,-0.148 0.119,0.03 0.216,0.1 0.242,0.187 0.028,0.09 0.01,0.161 -0.029,0.233 0.014,0.034 0.02,0.051 0.014,0.072 -0.01,0.037 -0.033,0.048 -0.064,0.07 -0.078,0.055 -0.159,0.104 -0.255,0.165 0.045,-0.008 0.066,-0.009 0.11,-0.017 0.039,-0.008 0.071,-0.023 0.101,-0.025 0.029,-0.002 0.064,0.002 0.066,0.028 0.033,-0.003 0.052,-0.01 0.078,-0.028 0.046,-0.031 0.067,-0.066 0.072,-0.121 0.072,0.048 0.103,0.114 0.094,0.2 -0.008,0.095 -0.068,0.151 -0.154,0.19 -0.034,0.015 -0.056,0.02 -0.093,0.022 C 1.555,-3.517 1.544,-3.488 1.52,-3.492 1.475,-3.497 1.433,-3.505 1.391,-3.51 1.29,-3.524 1.238,-3.524 1.133,-3.514 c -0.135,0.012 -0.25,0.042 -0.365,0.117 -0.12,0.078 -0.207,0.189 -0.324,0.285 0.03,0.03 0.049,0.044 0.085,0.064 0.041,0.022 0.068,0.031 0.114,0.04 -0.236,0.137 -0.473,0.274 -0.69,0.439 -0.15,0.114 -0.371,0.315 -0.402,0.416 -0.01,0.033 -0.006,0.101 0.013,0.073 0.191,-0.246 0.333,-0.406 0.664,-0.541 0.268,-0.111 0.435,-0.113 0.759,-0.107 -0.308,0.367 -0.477,0.562 -0.733,0.883 -0.021,0.026 -0.063,0.057 -0.052,0.07 0.009,0.011 0.048,-0.033 0.071,-0.052 0.182,-0.163 0.25,-0.242 0.413,-0.393 0.165,-0.154 0.291,-0.28 0.427,-0.389 0.133,-0.105 0.271,-0.141 0.443,-0.137 0.283,0.005 0.499,0.108 0.747,0.202 -0.25,0.167 -0.391,0.259 -0.645,0.417 -0.386,0.239 -0.671,0.385 -1.005,0.588 -0.021,0.012 -0.062,0.033 -0.055,0.044 0.003,0.006 0.034,-0.01 0.055,-0.02 0.209,-0.095 0.408,-0.193 0.634,-0.298 0.346,-0.161 0.681,-0.328 0.928,-0.309 0.192,0.015 0.36,0.123 0.728,0.505 -0.442,0.105 -0.69,0.169 -1.127,0.291 -0.396,0.11 -0.7,0.205 -1.01,0.298 -0.027,0.008 -0.071,0.018 -0.067,0.031 0.004,0.011 0.063,-0.004 0.103,-0.009 0.398,-0.047 0.704,-0.114 1.077,-0.132 0.249,-0.012 0.444,0.011 0.612,0.097 0.215,0.111 0.318,0.267 0.38,0.505 -0.321,0.033 -0.501,0.053 -0.821,0.093 -0.354,0.044 -0.582,0.079 -0.907,0.125 -0.028,0.004 -0.069,0.011 -0.067,0.025 10e-4,0.016 0.042,0.007 0.069,0.008 0.332,0.019 0.572,-0.008 0.889,0.004 0.215,0.008 0.51,0.062 0.668,0.234 C 2.876,0.099 2.908,0.269 2.91,0.434 2.467,0.429 1.863,0.414 1.372,0.423 1.273,0.425 1.155,0.414 1.152,0.46 1.15,0.49 1.321,0.512 1.432,0.517 1.599,0.527 1.757,0.513 1.975,0.519 2.179,0.525 2.526,0.558 2.702,0.769 2.819,0.909 2.841,1.031 2.852,1.196 2.486,1.199 2.319,1.196 1.995,1.199 1.666,1.203 1.485,1.205 1.207,1.223 1.172,1.225 1.07,1.229 1.072,1.264 1.074,1.314 1.364,1.304 1.408,1.306 1.675,1.318 2.049,1.313 2.29,1.358 2.647,1.425 2.854,1.659 2.871,2.048 2.6,2.054 2.443,2.059 2.177,2.064 1.716,2.072 1.581,2.09 1.103,2.09 0.855,2.09 0.482,2.086 0.303,1.977 0.214,1.924 0.257,1.709 0.298,1.605 0.384,1.391 0.601,1.002 0.609,0.662 0.616,0.336 0.318,0.007 0,0" style="opacity:1;fill:#000000;fill-opacity:1;fill-rule:nonzero;stroke:none"/></g><g transform="translate(214.0882,117.5446)"/><g transform="translate(212.6608,118.9676)"><path d="M 0,0 C 0.014,0.027 0.023,0.042 0.042,0.066 0.064,0.095 0.078,0.11 0.106,0.134 0.159,0.091 0.175,0.037 0.174,-0.028 0.172,-0.136 0.137,-0.144 0.076,-0.176 0.084,-0.138 0.082,-0.113 0.066,-0.078 0.051,-0.041 0.034,-0.021 0,0" style="fill:#ffffff;fill-opacity:1;fill-rule:nonzero;stroke:none"/></g><g transform="translate(212.1725,118.5966)"><path d="m 0,0 c -0.03,0 -0.049,0.002 -0.079,0.008 -0.027,0.005 -0.042,0.009 -0.066,0.018 0,-0.047 0.005,-0.079 0.035,-0.115 0.046,-0.055 0.096,-0.072 0.188,-0.096 C 0.053,-0.159 0.04,-0.141 0.025,-0.108 0.007,-0.069 0.002,-0.043 0,0" style="fill:#ffffff;fill-opacity:1;fill-rule:nonzero;stroke:none"/></g><g transform="translate(211.694,118.8729)"><path d="m 0,0 c -0.02,0.018 -0.031,0.023 -0.05,0.04 -0.021,0.02 -0.032,0.033 -0.051,0.057 -0.016,-0.038 -0.021,-0.063 -0.018,-0.105 0.006,-0.077 0.037,-0.129 0.104,-0.168 -0.008,0.032 -0.01,0.052 -0.008,0.085 C -0.02,-0.054 -0.013,-0.031 0,0" style="fill:#ffffff;fill-opacity:1;fill-rule:nonzero;stroke:none"/></g><g transform="translate(211.5653,119.5257)"><path d="m 0,0 c -0.053,-0.006 -0.086,-0.023 -0.119,-0.064 -0.045,-0.055 -0.054,-0.113 -0.029,-0.178 0.013,0.036 0.029,0.056 0.061,0.077 0.028,0.019 0.048,0.025 0.082,0.025 -0.002,0.027 -0.002,0.043 0,0.07 0,0.027 0.002,0.043 0.005,0.07" style="fill:#ffffff;fill-opacity:1;fill-rule:nonzero;stroke:none"/></g><g transform="translate(212.7462,119.9704)"><path d="M 0,0 C 0.028,-0.019 0.043,-0.031 0.068,-0.055 0.094,-0.079 0.107,-0.094 0.129,-0.123 0.046,-0.178 0,-0.215 -0.068,-0.288 -0.126,-0.348 -0.16,-0.378 -0.2,-0.454 c -0.029,-0.052 -0.029,-0.125 0.005,-0.165 0.043,-0.05 0.078,-0.055 0.125,-0.092 0.033,-0.027 0.052,-0.042 0.084,-0.071 -0.04,-0.038 -0.062,-0.061 -0.096,-0.103 -0.038,-0.048 -0.058,-0.077 -0.088,-0.129 -0.07,0.093 -0.103,0.134 -0.14,0.187 -0.029,0.039 -0.085,0.053 -0.117,-0.034 -0.023,-0.059 -0.036,-0.114 -0.048,-0.189 -0.019,-0.112 -0.025,-0.172 -0.04,-0.254 -0.045,-0.007 -0.072,-0.007 -0.118,0.002 -0.048,0.01 -0.076,0.022 -0.117,0.049 0.025,0.07 0.037,0.109 0.057,0.18 0.023,0.081 0.035,0.11 0.051,0.21 0.006,0.034 0.01,0.071 -0.015,0.085 -0.04,0.023 -0.068,0.002 -0.107,-0.049 -0.046,-0.058 -0.073,-0.09 -0.12,-0.147 -0.031,-0.039 -0.049,-0.061 -0.081,-0.099 -0.044,0.024 -0.067,0.041 -0.102,0.076 -0.039,0.038 -0.058,0.064 -0.084,0.113 0.065,0.046 0.102,0.071 0.167,0.116 0.072,0.049 0.121,0.079 0.186,0.125 0.02,0.015 0.033,0.035 0.026,0.06 -0.01,0.034 -0.058,0.028 -0.088,0.023 -0.054,-0.01 -0.092,-0.014 -0.15,-0.023 -0.045,-0.006 -0.069,-0.009 -0.112,-0.015 0.001,0.034 0.003,0.053 0.005,0.087 0.005,0.044 0.007,0.068 0.014,0.112 0.08,-0.017 0.126,-0.023 0.208,-0.027 0.128,-0.005 0.204,-0.004 0.327,0.031 0.103,0.028 0.161,0.053 0.25,0.111 0.075,0.05 0.107,0.091 0.174,0.151 C -0.087,-0.082 -0.056,-0.052 0,0" style="fill:#ebbd00;fill-opacity:1;fill-rule:nonzero;stroke:none"/></g><g transform="translate(215.5156,118.9676)"><path d="M 0,0 C -0.014,0.027 -0.023,0.042 -0.042,0.066 -0.064,0.095 -0.078,0.11 -0.106,0.134 -0.159,0.091 -0.175,0.037 -0.174,-0.028 c 0.002,-0.108 0.037,-0.116 0.099,-0.148 -0.009,0.038 -0.006,0.063 0.009,0.098 C -0.051,-0.041 -0.034,-0.021 0,0" style="fill:#ffffff;fill-opacity:1;fill-rule:nonzero;stroke:none"/></g><g transform="translate(216.0035,118.5966)"><path d="M 0,0 C 0.031,0 0.049,0.002 0.08,0.008 0.106,0.013 0.121,0.017 0.146,0.026 0.145,-0.021 0.14,-0.053 0.11,-0.089 0.064,-0.144 0.016,-0.161 -0.078,-0.185 c 0.026,0.026 0.039,0.044 0.054,0.077 C -0.007,-0.069 0,-0.043 0,0" style="fill:#ffffff;fill-opacity:1;fill-rule:nonzero;stroke:none"/></g><g transform="translate(216.4825,118.8729)"><path d="M 0,0 C 0.021,0.018 0.031,0.023 0.05,0.04 0.071,0.06 0.082,0.073 0.1,0.097 0.117,0.059 0.122,0.034 0.119,-0.008 0.114,-0.085 0.081,-0.137 0.015,-0.176 0.023,-0.144 0.025,-0.124 0.023,-0.091 0.02,-0.054 0.014,-0.031 0,0" style="fill:#ffffff;fill-opacity:1;fill-rule:nonzero;stroke:none"/></g><g transform="translate(216.6111,119.5257)"><path d="m 0,0 c 0.052,-0.006 0.086,-0.023 0.119,-0.064 0.045,-0.055 0.053,-0.113 0.029,-0.178 -0.013,0.036 -0.029,0.056 -0.061,0.077 -0.028,0.019 -0.048,0.025 -0.082,0.025 0.002,0.027 0.002,0.043 0,0.07 C 0.004,-0.043 0.004,-0.027 0,0" style="fill:#ffffff;fill-opacity:1;fill-rule:nonzero;stroke:none"/></g><g transform="translate(215.4302,119.9704)"><path d="m 0,0 c -0.028,-0.019 -0.043,-0.031 -0.067,-0.055 -0.027,-0.024 -0.04,-0.039 -0.062,-0.068 0.084,-0.055 0.128,-0.092 0.197,-0.165 0.058,-0.06 0.091,-0.09 0.133,-0.166 C 0.229,-0.506 0.229,-0.579 0.195,-0.619 0.153,-0.669 0.117,-0.674 0.07,-0.711 0.037,-0.738 0.019,-0.753 -0.013,-0.782 0.026,-0.82 0.047,-0.843 0.081,-0.885 0.12,-0.933 0.14,-0.962 0.17,-1.014 c 0.071,0.093 0.103,0.134 0.14,0.187 0.028,0.039 0.085,0.053 0.118,-0.034 0.022,-0.059 0.035,-0.114 0.047,-0.189 0.019,-0.112 0.025,-0.172 0.04,-0.254 0.045,-0.007 0.072,-0.007 0.117,0.002 0.049,0.01 0.076,0.022 0.117,0.049 -0.024,0.07 -0.036,0.109 -0.057,0.18 -0.023,0.081 -0.033,0.11 -0.05,0.21 -0.006,0.034 -0.011,0.071 0.014,0.085 0.041,0.023 0.069,0.002 0.109,-0.049 0.045,-0.058 0.072,-0.09 0.119,-0.147 0.032,-0.039 0.049,-0.061 0.081,-0.099 0.044,0.024 0.067,0.041 0.102,0.076 0.039,0.038 0.059,0.064 0.084,0.113 -0.064,0.046 -0.102,0.071 -0.167,0.116 -0.073,0.049 -0.121,0.079 -0.186,0.125 -0.02,0.015 -0.033,0.035 -0.026,0.06 0.009,0.034 0.058,0.028 0.087,0.023 C 0.914,-0.57 0.952,-0.574 1.01,-0.583 1.054,-0.589 1.079,-0.592 1.122,-0.598 1.12,-0.564 1.119,-0.545 1.117,-0.511 1.113,-0.467 1.11,-0.443 1.103,-0.399 1.023,-0.416 0.977,-0.422 0.895,-0.426 0.767,-0.431 0.692,-0.43 0.567,-0.395 0.466,-0.367 0.408,-0.342 0.318,-0.284 0.243,-0.234 0.211,-0.193 0.144,-0.133 0.087,-0.082 0.055,-0.052 0,0" style="fill:#ebbd00;fill-opacity:1;fill-rule:nonzero;stroke:none"/></g><g transform="translate(212.8543,124.1453)"><path d="m 0,0 c 0.116,-0.014 0.232,-0.014 0.334,-0.003 0.214,0.024 0.337,0.08 0.51,0.206 L 0.878,0.189 C 0.773,0.005 0.635,-0.087 0.425,-0.111 0.255,-0.131 0.031,-0.056 0,0" style="fill:#e30613;fill-opacity:1;fill-rule:nonzero;stroke:none"/></g><g transform="translate(213.5106,123.9296)"><path d="M 0,0 C 0.059,0.073 0.091,0.114 0.148,0.188 0.222,0.283 0.263,0.338 0.335,0.436 0.309,0.446 0.295,0.452 0.269,0.461 0.153,0.505 0.09,0.565 -0.034,0.559 -0.13,0.554 -0.189,0.534 -0.268,0.478 c 0.02,0.083 0.018,0.119 0.036,0.194 0.015,0.064 0.025,0.093 0.066,0.15 0.047,0.063 0.148,0.089 0.246,0.092 C 0.181,0.917 0.248,0.919 0.333,0.908 0.324,0.865 0.321,0.84 0.32,0.796 0.319,0.686 0.354,0.627 0.388,0.523 0.407,0.467 0.424,0.409 0.424,0.345 0.37,0.274 0.336,0.236 0.269,0.176 0.176,0.093 0.095,0.031 0,0" style="fill:#ebbd00;fill-opacity:1;fill-rule:nonzero;stroke:none"/></g><g transform="translate(214.1842,124.7254)"><path d="m 0,0 c -0.014,-0.013 -0.02,-0.025 -0.021,-0.043 -0.004,-0.033 0.012,-0.066 0.045,-0.073 0.024,-0.005 0.047,0.002 0.059,0.024 0.008,0.015 0.009,0.029 0.002,0.044 0.028,0.002 0.045,0 0.073,-0.008 C 0.197,-0.067 0.215,-0.068 0.249,-0.107 0.269,-0.131 0.245,-0.168 0.216,-0.179 0.183,-0.193 0.149,-0.156 0.12,-0.165 0.082,-0.175 0.09,-0.222 0.009,-0.212 c -0.067,0.007 -0.142,0.052 -0.13,0.126 0.006,0.038 -0.047,0.047 -0.031,0.094 0.01,0.028 0.043,0.037 0.072,0.032 C -0.059,0.035 -0.021,0.028 0,0" style="fill:#ffffff;fill-opacity:1;fill-rule:nonzero;stroke:none"/></g></g></g><g transform="matrix(0.35277777,0,0,-0.35277777,119.80508,214.5121)"><g clip-path="url(#dest-e)"><g transform="translate(190.7779,99.0701)"><path d="M 0,0 H 3.747 V 1.018 H 5.711 V 0 H 7.384 V 1.018 H 9.348 V 0 h 1.673 v 1.018 h 1.964 V 0 h 1.674 v 1.018 h 1.964 V 0 h 1.673 V 1.018 H 20.26 V 0 h 1.673 v 1.018 h 1.965 V 0 h 3.746 V -6.838 H 0 Z" style="fill:#000000;fill-opacity:1;fill-rule:nonzero;stroke:none"/></g><path d="m 202.854,98.925 h 1.673 v -0.873 h -1.673 z" style="fill:#e30613;fill-opacity:1;fill-rule:nonzero;stroke:none"/><path d="m 201.035,98.925 h 1.673 v -0.873 h -1.673 z" style="fill:#e30613;fill-opacity:1;fill-rule:nonzero;stroke:none"/><path d="m 199.217,98.925 h 1.673 v -0.873 h -1.673 z" style="fill:#e30613;fill-opacity:1;fill-rule:nonzero;stroke:none"/><path d="m 197.398,98.925 h 1.673 v -0.873 h -1.673 z" style="fill:#e30613;fill-opacity:1;fill-rule:nonzero;stroke:none"/><path d="m 195.58,98.925 h 1.673 v -0.873 h -1.673 z" style="fill:#e30613;fill-opacity:1;fill-rule:nonzero;stroke:none"/><path d="m 193.761,98.925 h 1.673 v -0.873 h -1.673 z" style="fill:#e30613;fill-opacity:1;fill-rule:nonzero;stroke:none"/><path d="m 191.942,98.925 h 1.673 v -0.873 h -1.673 z" style="fill:#e30613;fill-opacity:1;fill-rule:nonzero;stroke:none"/><path d="m 204.673,98.925 h 1.673 v -0.873 h -1.673 z" style="fill:#e30613;fill-opacity:1;fill-rule:nonzero;stroke:none"/><path d="m 206.491,98.925 h 1.673 v -0.873 h -1.673 z" style="fill:#e30613;fill-opacity:1;fill-rule:nonzero;stroke:none"/><path d="m 208.31,98.925 h 1.673 v -0.873 h -1.673 z" style="fill:#e30613;fill-opacity:1;fill-rule:nonzero;stroke:none"/><path d="m 210.129,98.925 h 1.673 v -0.873 h -1.673 z" style="fill:#e30613;fill-opacity:1;fill-rule:nonzero;stroke:none"/><path d="m 211.947,98.925 h 1.673 v -0.873 h -1.673 z" style="fill:#e30613;fill-opacity:1;fill-rule:nonzero;stroke:none"/><path d="m 213.766,98.925 h 1.673 v -0.873 h -1.673 z" style="fill:#e30613;fill-opacity:1;fill-rule:nonzero;stroke:none"/><path d="m 215.585,98.925 h 1.673 v -0.873 h -1.673 z" style="fill:#e30613;fill-opacity:1;fill-rule:nonzero;stroke:none"/><path d="m 201.945,97.906 h 1.673 v -0.873 h -1.673 z" style="fill:#e30613;fill-opacity:1;fill-rule:nonzero;stroke:none"/><path d="m 200.126,97.906 h 1.673 v -0.873 h -1.673 z" style="fill:#e30613;fill-opacity:1;fill-rule:nonzero;stroke:none"/><path d="m 198.307,97.906 h 1.673 v -0.873 h -1.673 z" style="fill:#e30613;fill-opacity:1;fill-rule:nonzero;stroke:none"/><path d="m 196.489,97.906 h 1.673 v -0.873 h -1.673 z" style="fill:#e30613;fill-opacity:1;fill-rule:nonzero;stroke:none"/><path d="m 194.67,97.906 h 1.673 v -0.873 h -1.673 z" style="fill:#e30613;fill-opacity:1;fill-rule:nonzero;stroke:none"/><path d="m 192.852,97.906 h 1.673 v -0.873 h -1.673 z" style="fill:#e30613;fill-opacity:1;fill-rule:nonzero;stroke:none"/><path d="m 205.582,97.906 h 1.673 v -0.873 h -1.673 z" style="fill:#e30613;fill-opacity:1;fill-rule:nonzero;stroke:none"/><path d="m 207.401,97.906 h 1.673 v -0.873 h -1.673 z" style="fill:#e30613;fill-opacity:1;fill-rule:nonzero;stroke:none"/><path d="m 209.219,97.906 h 1.673 v -0.873 h -1.673 z" style="fill:#e30613;fill-opacity:1;fill-rule:nonzero;stroke:none"/><path d="m 211.038,97.906 h 1.673 v -0.873 h -1.673 z" style="fill:#e30613;fill-opacity:1;fill-rule:nonzero;stroke:none"/><path d="m 212.857,97.906 h 1.674 v -0.873 h -1.674 z" style="fill:#e30613;fill-opacity:1;fill-rule:nonzero;stroke:none"/><path d="m 214.676,97.906 h 1.673 v -0.873 h -1.673 z" style="fill:#e30613;fill-opacity:1;fill-rule:nonzero;stroke:none"/><path d="m 201.035,96.888 h 1.673 v -0.873 h -1.673 z" style="fill:#e30613;fill-opacity:1;fill-rule:nonzero;stroke:none"/><path d="m 199.217,96.888 h 1.673 v -0.873 h -1.673 z" style="fill:#e30613;fill-opacity:1;fill-rule:nonzero;stroke:none"/><path d="m 197.398,96.888 h 1.673 v -0.873 h -1.673 z" style="fill:#e30613;fill-opacity:1;fill-rule:nonzero;stroke:none"/><path d="m 195.58,96.888 h 1.673 v -0.873 h -1.673 z" style="fill:#e30613;fill-opacity:1;fill-rule:nonzero;stroke:none"/><path d="m 193.761,96.888 h 1.673 v -0.873 h -1.673 z" style="fill:#e30613;fill-opacity:1;fill-rule:nonzero;stroke:none"/><path d="m 206.491,96.888 h 1.673 v -0.873 h -1.673 z" style="fill:#e30613;fill-opacity:1;fill-rule:nonzero;stroke:none"/><path d="m 208.31,96.888 h 1.673 v -0.873 h -1.673 z" style="fill:#e30613;fill-opacity:1;fill-rule:nonzero;stroke:none"/><path d="m 210.129,96.888 h 1.673 v -0.873 h -1.673 z" style="fill:#e30613;fill-opacity:1;fill-rule:nonzero;stroke:none"/><path d="m 211.947,96.888 h 1.673 v -0.873 h -1.673 z" style="fill:#e30613;fill-opacity:1;fill-rule:nonzero;stroke:none"/><path d="m 213.766,96.888 h 1.673 v -0.873 h -1.673 z" style="fill:#e30613;fill-opacity:1;fill-rule:nonzero;stroke:none"/><path d="m 201.945,95.869 h 1.673 v -0.873 h -1.673 z" style="fill:#e30613;fill-opacity:1;fill-rule:nonzero;stroke:none"/><path d="m 200.126,95.869 h 1.673 v -0.873 h -1.673 z" style="fill:#e30613;fill-opacity:1;fill-rule:nonzero;stroke:none"/><path d="m 198.307,95.869 h 1.673 v -0.873 h -1.673 z" style="fill:#e30613;fill-opacity:1;fill-rule:nonzero;stroke:none"/><path d="m 196.489,95.869 h 1.673 v -0.873 h -1.673 z" style="fill:#e30613;fill-opacity:1;fill-rule:nonzero;stroke:none"/><path d="m 194.67,95.869 h 1.673 v -0.873 h -1.673 z" style="fill:#e30613;fill-opacity:1;fill-rule:nonzero;stroke:none"/><path d="m 205.582,95.869 h 1.673 v -0.873 h -1.673 z" style="fill:#e30613;fill-opacity:1;fill-rule:nonzero;stroke:none"/><path d="m 207.401,95.869 h 1.673 v -0.873 h -1.673 z" style="fill:#e30613;fill-opacity:1;fill-rule:nonzero;stroke:none"/><path d="m 209.219,95.869 h 1.673 v -0.873 h -1.673 z" style="fill:#e30613;fill-opacity:1;fill-rule:nonzero;stroke:none"/><path d="m 211.038,95.869 h 1.673 v -0.873 h -1.673 z" style="fill:#e30613;fill-opacity:1;fill-rule:nonzero;stroke:none"/><path d="m 212.857,95.869 h 1.674 v -0.873 h -1.674 z" style="fill:#e30613;fill-opacity:1;fill-rule:nonzero;stroke:none"/><path d="m 201.035,94.851 h 1.673 v -0.873 h -1.673 z" style="fill:#e30613;fill-opacity:1;fill-rule:nonzero;stroke:none"/><path d="m 199.217,94.851 h 1.673 v -0.873 h -1.673 z" style="fill:#e30613;fill-opacity:1;fill-rule:nonzero;stroke:none"/><path d="m 197.398,94.851 h 1.673 v -0.873 h -1.673 z" style="fill:#e30613;fill-opacity:1;fill-rule:nonzero;stroke:none"/><path d="m 206.491,94.851 h 1.673 v -0.873 h -1.673 z" style="fill:#e30613;fill-opacity:1;fill-rule:nonzero;stroke:none"/><path d="m 208.31,94.851 h 1.673 v -0.873 h -1.673 z" style="fill:#e30613;fill-opacity:1;fill-rule:nonzero;stroke:none"/><path d="m 210.129,94.851 h 1.673 v -0.873 h -1.673 z" style="fill:#e30613;fill-opacity:1;fill-rule:nonzero;stroke:none"/><path d="m 201.945,93.832 h 1.673 v -0.873 h -1.673 z" style="fill:#e30613;fill-opacity:1;fill-rule:nonzero;stroke:none"/><path d="m 200.126,93.832 h 1.673 v -0.873 h -1.673 z" style="fill:#e30613;fill-opacity:1;fill-rule:nonzero;stroke:none"/><path d="m 205.582,93.832 h 1.673 v -0.873 h -1.673 z" style="fill:#e30613;fill-opacity:1;fill-rule:nonzero;stroke:none"/><path d="m 207.401,93.832 h 1.673 v -0.873 h -1.673 z" style="fill:#e30613;fill-opacity:1;fill-rule:nonzero;stroke:none"/><path d="m 201.945,99.943 h 1.673 V 99.07 h -1.673 z" style="fill:#e30613;fill-opacity:1;fill-rule:nonzero;stroke:none"/><path d="m 198.307,99.943 h 1.673 V 99.07 h -1.673 z" style="fill:#e30613;fill-opacity:1;fill-rule:nonzero;stroke:none"/><path d="m 194.67,99.943 h 1.673 V 99.07 h -1.673 z" style="fill:#e30613;fill-opacity:1;fill-rule:nonzero;stroke:none"/><path d="m 205.582,99.943 h 1.673 V 99.07 h -1.673 z" style="fill:#e30613;fill-opacity:1;fill-rule:nonzero;stroke:none"/><path d="m 209.219,99.943 h 1.673 V 99.07 h -1.673 z" style="fill:#e30613;fill-opacity:1;fill-rule:nonzero;stroke:none"/><path d="m 212.857,99.943 h 1.674 V 99.07 h -1.674 z" style="fill:#e30613;fill-opacity:1;fill-rule:nonzero;stroke:none"/><path d="m 203.763,97.906 h 1.673 v -0.873 h -1.673 z" style="fill:#e30613;fill-opacity:1;fill-rule:nonzero;stroke:none"/><g transform="translate(204.6003,98.0517)"><path d="M 0,0 C 1.085,0 1.964,-0.879 1.964,-1.964 V -5.82 h -3.928 v 3.856 C -1.964,-0.879 -1.085,0 0,0" style="fill:#000000;fill-opacity:1;fill-rule:nonzero;stroke:none"/></g><path d="m 202.781,95.864 h 0.582 v -0.868 h -0.582 z" style="fill:#e30613;fill-opacity:1;fill-rule:nonzero;stroke:none"/><path d="m 202.781,94.851 h 0.582 v -0.873 h -0.582 z" style="fill:#e30613;fill-opacity:1;fill-rule:nonzero;stroke:none"/><path d="m 202.781,93.834 h 0.582 v -1.602 h -0.582 z" style="fill:#e30613;fill-opacity:1;fill-rule:nonzero;stroke:none"/><g transform="translate(203.029,97.0049)"><path d="M 0,0 C 0.169,0.288 0.415,0.526 0.71,0.685 L 0.982,0.097 C 0.803,-0.001 0.653,-0.141 0.541,-0.311 Z" style="fill:#e30613;fill-opacity:1;fill-rule:nonzero;stroke:none"/></g><g transform="translate(203.4958,96.5681)"><path d="M 0,0 -0.536,0.306 C -0.651,0.068 -0.714,-0.199 -0.714,-0.48 v -0.073 h 0.581 c 0,0.199 0.048,0.387 0.133,0.553" style="fill:#e30613;fill-opacity:1;fill-rule:nonzero;stroke:none"/></g><path d="m 205.837,95.864 h 0.581 v -0.868 h -0.581 z" style="fill:#e30613;fill-opacity:1;fill-rule:nonzero;stroke:none"/><path d="m 205.837,94.851 h 0.581 v -0.873 h -0.581 z" style="fill:#e30613;fill-opacity:1;fill-rule:nonzero;stroke:none"/><path d="m 205.837,93.834 h 0.581 v -1.602 h -0.581 z" style="fill:#e30613;fill-opacity:1;fill-rule:nonzero;stroke:none"/><g transform="translate(206.1708,97.0049)"><path d="M 0,0 C -0.168,0.288 -0.415,0.526 -0.709,0.685 L -0.982,0.097 c 0.179,-0.098 0.329,-0.238 0.441,-0.408 z" style="fill:#e30613;fill-opacity:1;fill-rule:nonzero;stroke:none"/></g><g transform="translate(205.7044,96.5681)"><path d="M 0,0 0.536,0.306 C 0.65,0.068 0.714,-0.199 0.714,-0.48 V -0.553 H 0.133 C 0.133,-0.354 0.085,-0.166 0,0" style="fill:#e30613;fill-opacity:1;fill-rule:nonzero;stroke:none"/></g><g transform="translate(204.6003,97.106)"><path d="m 0,0 c 0.603,0 1.091,-0.489 1.091,-1.091 v -3.783 h -2.183 v 3.783 C -1.092,-0.489 -0.603,0 0,0" style="fill:#ffffff;fill-opacity:1;fill-rule:nonzero;stroke:none"/></g><g transform="translate(204.6003,97.9062)"><path d="m 0,0 c -0.261,0 -0.507,-0.055 -0.731,-0.154 l 0.27,-0.589 c 0.143,0.057 0.298,0.088 0.461,0.088 0.163,0 0.317,-0.031 0.46,-0.088 l 0.271,0.589 C 0.507,-0.055 0.26,0 0,0" style="fill:#e30613;fill-opacity:1;fill-rule:nonzero;stroke:none"/></g></g></g><g clip-path="url(#dest-f)" transform="matrix(0.352778, 0, 0, -0.352778, 119.805077, 214.5121)"><path d="M 224.416 108.237 C 224.083 108.462 223.631 108.374 223.407 108.041 C 223.233 107.783 223.246 107.457 223.418 107.216 C 223.374 107.138 223.33 107.066 223.284 106.998 C 223.4 107.309 223.291 107.663 223.005 107.856 C 222.673 108.08 222.221 107.992 221.996 107.659 C 221.771 107.327 221.859 106.875 222.191 106.65 C 222.428 106.491 222.723 106.489 222.955 106.619 C 222.38 106.084 221.721 106.147 221.275 106.448 C 220.833 106.746 220.582 107.165 220.628 107.738 C 220.93 107.638 221.272 107.746 221.458 108.022 C 221.683 108.355 221.595 108.807 221.262 109.031 C 220.93 109.256 220.477 109.168 220.253 108.835 C 220.068 108.561 220.095 108.207 220.297 107.964 C 219.783 107.706 219.299 107.781 218.858 108.078 C 218.412 108.379 218.108 108.984 218.392 109.72 C 218.352 109.44 218.464 109.165 218.701 109.004 C 219.034 108.78 219.487 108.868 219.711 109.2 C 219.936 109.533 219.848 109.985 219.515 110.21 C 219.227 110.404 218.845 110.363 218.605 110.131 C 218.654 110.204 218.708 110.276 218.768 110.351 C 219.055 110.281 219.361 110.392 219.536 110.651 C 219.761 110.984 219.672 111.436 219.34 111.661 C 219.007 111.885 218.555 111.797 218.33 111.465 C 218.157 111.207 218.171 110.881 218.342 110.64 C 218.298 110.562 218.254 110.49 218.208 110.422 C 218.324 110.733 218.215 111.087 217.929 111.28 C 217.596 111.504 217.144 111.416 216.92 111.083 C 216.695 110.75 216.783 110.299 217.116 110.074 C 217.352 109.915 217.648 109.913 217.88 110.043 C 217.304 109.508 216.644 109.571 216.198 109.872 C 215.758 110.17 215.506 110.589 215.552 111.162 C 215.854 111.062 216.196 111.17 216.382 111.446 C 216.607 111.779 216.519 112.231 216.187 112.455 C 215.854 112.68 215.401 112.592 215.177 112.259 C 214.992 111.985 215.019 111.631 215.221 111.387 C 214.707 111.13 214.224 111.204 213.782 111.502 C 213.335 111.803 213.032 112.408 213.315 113.144 C 213.275 112.864 213.388 112.589 213.625 112.428 C 213.959 112.203 214.411 112.291 214.635 112.624 C 214.859 112.957 214.772 113.409 214.439 113.634 C 214.151 113.828 213.769 113.786 213.53 113.555 C 213.578 113.628 213.632 113.7 213.692 113.774 C 213.979 113.705 214.285 113.816 214.46 114.075 C 214.684 114.408 214.597 114.86 214.264 115.085 C 213.931 115.309 213.479 115.221 213.255 114.889 C 213.081 114.631 213.095 114.305 213.266 114.064 C 213.223 113.986 213.178 113.914 213.132 113.846 C 213.248 114.157 213.139 114.51 212.853 114.703 C 212.52 114.928 212.068 114.84 211.844 114.507 C 211.619 114.174 211.707 113.722 212.04 113.498 C 212.276 113.339 212.571 113.337 212.804 113.467 C 212.228 112.931 211.568 112.995 211.122 113.296 C 210.682 113.594 210.43 114.013 210.476 114.586 C 210.778 114.486 211.121 114.594 211.306 114.87 C 211.531 115.203 211.443 115.655 211.11 115.879 C 210.778 116.104 210.325 116.016 210.1 115.683 C 209.916 115.409 209.943 115.055 210.146 114.811 C 209.631 114.554 209.148 114.628 208.706 114.926 C 208.259 115.227 207.956 115.832 208.24 116.568 C 208.199 116.288 208.312 116.013 208.55 115.852 C 208.882 115.627 209.335 115.715 209.559 116.048 C 209.784 116.381 209.696 116.833 209.363 117.058 C 209.075 117.252 208.693 117.21 208.454 116.979 C 208.502 117.052 208.555 117.124 208.616 117.198 C 208.903 117.129 209.209 117.24 209.384 117.499 C 209.609 117.832 209.521 118.284 209.188 118.509 C 208.855 118.733 208.403 118.645 208.179 118.312 C 208.005 118.055 208.018 117.729 208.19 117.487 C 208.147 117.41 208.102 117.337 208.056 117.27 C 208.172 117.581 208.063 117.934 207.777 118.127 C 207.444 118.352 206.992 118.264 206.768 117.931 C 206.543 117.598 206.631 117.146 206.964 116.922 C 207.2 116.763 207.495 116.76 207.728 116.891 C 207.152 116.355 206.492 116.419 206.047 116.72 C 205.606 117.018 205.354 117.436 205.4 118.009 C 205.701 117.91 206.044 118.017 206.23 118.294 C 206.455 118.626 206.367 119.078 206.035 119.303 C 205.701 119.528 205.249 119.44 205.025 119.107 C 204.84 118.833 204.866 118.478 205.069 118.235 C 204.556 117.978 204.071 118.052 203.63 118.35 C 203.184 118.651 202.88 119.256 203.163 119.992 C 203.123 119.712 203.236 119.436 203.474 119.276 C 203.807 119.051 204.258 119.139 204.483 119.472 C 204.708 119.805 204.62 120.257 204.287 120.481 C 203.999 120.676 203.617 120.634 203.377 120.403 C 203.425 120.476 203.48 120.548 203.54 120.622 C 203.826 120.553 204.134 120.664 204.308 120.923 C 204.533 121.256 204.445 121.708 204.112 121.933 C 203.779 122.157 203.327 122.069 203.103 121.736 C 202.929 121.479 202.943 121.153 203.114 120.911 C 203.071 120.834 203.026 120.761 202.98 120.694 C 203.096 121.005 202.987 121.358 202.701 121.551 C 202.368 121.776 201.916 121.688 201.692 121.355 C 201.467 121.022 201.555 120.57 201.888 120.345 C 202.124 120.186 202.419 120.184 202.651 120.315 C 202.076 119.779 201.417 119.843 200.971 120.144 C 200.529 120.441 200.278 120.86 200.324 121.433 C 200.625 121.334 200.968 121.441 201.154 121.717 C 201.379 122.05 201.291 122.502 200.958 122.727 C 200.625 122.951 200.173 122.864 199.949 122.53 C 199.764 122.257 199.791 121.902 199.993 121.659 C 199.479 121.402 198.995 121.476 198.554 121.774 C 198.107 122.075 197.804 122.68 198.088 123.416 C 198.047 123.135 198.16 122.86 198.398 122.7 C 198.731 122.475 199.182 122.563 199.407 122.896 C 199.632 123.229 199.544 123.681 199.211 123.905 C 198.923 124.099 198.541 124.058 198.301 123.827 C 198.349 123.9 198.403 123.971 198.463 124.046 C 198.751 123.977 199.057 124.088 199.232 124.347 C 199.456 124.68 199.369 125.132 199.036 125.356 C 198.703 125.581 198.251 125.493 198.026 125.16 C 197.853 124.903 197.866 124.577 198.038 124.335 C 197.994 124.257 197.949 124.185 197.903 124.118 C 198.02 124.428 197.911 124.782 197.625 124.975 C 197.292 125.2 196.84 125.112 196.616 124.779 C 196.391 124.446 196.479 123.994 196.812 123.769 C 197.048 123.61 197.343 123.608 197.575 123.739 C 197 123.203 196.34 123.267 195.895 123.567 C 195.453 123.865 195.202 124.284 195.248 124.857 C 195.549 124.758 195.892 124.865 196.078 125.141 C 196.302 125.474 196.215 125.926 195.882 126.151 C 195.549 126.375 195.097 126.287 194.872 125.954 C 194.688 125.681 194.714 125.326 194.917 125.083 C 194.403 124.826 193.919 124.9 193.478 125.198 C 193.032 125.499 192.728 126.103 193.011 126.84 C 192.971 126.559 193.084 126.284 193.322 126.123 C 193.654 125.899 194.106 125.987 194.331 126.32 C 194.556 126.653 194.468 127.105 194.135 127.329 C 193.847 127.523 193.464 127.482 193.225 127.25 C 193.273 127.324 193.328 127.395 193.388 127.47 C 193.674 127.401 193.981 127.512 194.156 127.771 C 194.381 128.104 194.292 128.555 193.96 128.78 C 193.627 129.005 193.175 128.917 192.95 128.584 C 192.776 128.327 192.791 128 192.962 127.759 C 192.918 127.681 192.873 127.609 192.827 127.541 C 192.943 127.852 192.835 128.206 192.549 128.399 C 192.216 128.623 191.764 128.535 191.54 128.203 C 191.315 127.87 191.403 127.418 191.736 127.193 C 191.972 127.034 192.267 127.032 192.499 127.162 C 191.924 126.627 191.264 126.691 190.819 126.991 C 190.377 127.289 190.126 127.708 190.172 128.281 C 190.473 128.181 190.816 128.289 191.002 128.565 C 191.227 128.898 191.139 129.35 190.806 129.574 C 190.473 129.799 190.021 129.711 189.796 129.378 C 189.612 129.104 189.639 128.75 189.841 128.507 C 189.327 128.25 188.843 128.324 188.402 128.622 C 187.955 128.923 187.652 129.527 187.935 130.263 C 187.895 129.983 188.008 129.708 188.245 129.547 C 188.579 129.323 189.03 129.411 189.255 129.744 C 189.479 130.076 189.392 130.528 189.059 130.753 C 188.771 130.947 188.388 130.906 188.149 130.674 C 188.197 130.747 188.251 130.819 188.311 130.894 C 188.598 130.824 188.905 130.935 189.08 131.195 C 189.304 131.527 189.217 131.979 188.883 132.204 L 184.835 126.202 L 220.37 102.234 L 224.416 108.237 Z" style="fill:#000000;fill-opacity:1;fill-rule:nonzero;stroke:none"/><g transform="translate(223.0461,106.1366)"><path d="m 0,0 -2.608,-3.867 -35.528,23.964 2.608,3.866 c -0.128,-0.693 0.123,-1.389 0.687,-1.77 0.526,-0.357 1.066,-0.44 1.636,-0.248 0.065,-0.57 0.269,-1.036 0.782,-1.384 0.638,-0.432 1.326,-0.44 1.974,-0.023 -0.128,-0.694 0.12,-1.388 0.683,-1.769 0.528,-0.357 1.067,-0.44 1.638,-0.248 0.064,-0.57 0.269,-1.036 0.782,-1.384 0.636,-0.432 1.326,-0.439 1.973,-0.023 -0.128,-0.693 0.12,-1.388 0.684,-1.769 0.527,-0.357 1.066,-0.44 1.636,-0.248 0.065,-0.57 0.27,-1.036 0.782,-1.384 0.638,-0.432 1.327,-0.439 1.974,-0.023 -0.128,-0.693 0.12,-1.388 0.684,-1.769 0.527,-0.356 1.067,-0.439 1.637,-0.248 0.064,-0.57 0.269,-1.036 0.782,-1.384 0.637,-0.431 1.326,-0.439 1.973,-0.023 -0.128,-0.693 0.121,-1.387 0.683,-1.769 0.528,-0.356 1.068,-0.439 1.638,-0.248 0.064,-0.57 0.268,-1.036 0.782,-1.383 0.636,-0.431 1.324,-0.438 1.971,-0.022 C -10.275,6.15 -10.024,5.455 -9.461,5.073 -8.935,4.717 -8.394,4.634 -7.825,4.825 -7.76,4.256 -7.556,3.789 -7.043,3.442 -6.405,3.011 -5.718,3.004 -5.071,3.42 -5.199,2.727 -4.948,2.031 -4.386,1.65 -3.858,1.293 -3.318,1.21 -2.749,1.401 -2.684,0.832 -2.48,0.365 -1.966,0.018 -1.331,-0.411 -0.648,-0.416 0,0" style="fill:#159a34;fill-opacity:1;fill-rule:nonzero;stroke:none"/></g></g><g transform="matrix(0.35277777,0,0,-0.35277777,119.80508,214.5121)"><g clip-path="url(#dest-g)"><g transform="translate(204.4201,119.515)"><path d="M 0,0 C 0.201,0.298 0.122,0.703 -0.176,0.904 -0.473,1.105 -0.878,1.026 -1.08,0.728 -1.28,0.43 -1.202,0.025 -0.904,-0.176 -0.606,-0.377 -0.201,-0.298 0,0" style="fill:#159a34;fill-opacity:1;fill-rule:nonzero;stroke:none"/></g><g transform="translate(206.1669,118.3365)"><path d="M 0,0 C 0.201,0.298 0.123,0.703 -0.175,0.904 -0.473,1.105 -0.878,1.026 -1.079,0.728 -1.28,0.43 -1.202,0.026 -0.903,-0.176 -0.605,-0.377 -0.2,-0.298 0,0" style="fill:#159a34;fill-opacity:1;fill-rule:nonzero;stroke:none"/></g><g transform="translate(206.8307,117.8889)"><path d="M 0,0 C 0.201,0.298 0.606,0.377 0.904,0.176 1.202,-0.026 1.281,-0.43 1.08,-0.728 0.879,-1.026 0.473,-1.105 0.176,-0.904 -0.122,-0.703 -0.2,-0.298 0,0" style="fill:#159a34;fill-opacity:1;fill-rule:nonzero;stroke:none"/></g><g transform="translate(209.4968,116.0911)"><path d="M 0,0 C 0.201,0.298 0.122,0.703 -0.176,0.904 -0.474,1.105 -0.879,1.026 -1.08,0.728 -1.281,0.43 -1.202,0.025 -0.904,-0.176 -0.606,-0.377 -0.201,-0.298 0,0" style="fill:#159a34;fill-opacity:1;fill-rule:nonzero;stroke:none"/></g><g transform="translate(211.2432,114.9127)"><path d="M 0,0 C 0.201,0.298 0.122,0.703 -0.175,0.904 -0.474,1.105 -0.878,1.026 -1.08,0.728 -1.28,0.43 -1.201,0.025 -0.903,-0.176 -0.606,-0.377 -0.201,-0.298 0,0" style="fill:#159a34;fill-opacity:1;fill-rule:nonzero;stroke:none"/></g><g transform="translate(211.9066,114.465)"><path d="M 0,0 C 0.201,0.298 0.606,0.377 0.904,0.176 1.202,-0.025 1.281,-0.43 1.08,-0.728 0.879,-1.026 0.474,-1.105 0.176,-0.904 -0.122,-0.703 -0.2,-0.298 0,0" style="fill:#159a34;fill-opacity:1;fill-rule:nonzero;stroke:none"/></g><g transform="translate(214.5726,112.6674)"><path d="M 0,0 C 0.201,0.298 0.122,0.703 -0.176,0.904 -0.474,1.105 -0.879,1.026 -1.08,0.728 -1.28,0.43 -1.202,0.025 -0.904,-0.176 -0.606,-0.377 -0.201,-0.298 0,0" style="fill:#159a34;fill-opacity:1;fill-rule:nonzero;stroke:none"/></g><g transform="translate(216.319,111.4888)"><path d="M 0,0 C 0.201,0.298 0.123,0.703 -0.175,0.904 -0.473,1.105 -0.878,1.026 -1.079,0.728 -1.28,0.43 -1.201,0.025 -0.903,-0.176 -0.605,-0.377 -0.201,-0.298 0,0" style="fill:#159a34;fill-opacity:1;fill-rule:nonzero;stroke:none"/></g><g transform="translate(216.9824,111.0413)"><path d="M 0,0 C 0.201,0.298 0.607,0.377 0.904,0.176 1.202,-0.025 1.282,-0.43 1.08,-0.728 0.879,-1.026 0.474,-1.105 0.176,-0.904 -0.122,-0.703 -0.2,-0.298 0,0" style="fill:#159a34;fill-opacity:1;fill-rule:nonzero;stroke:none"/></g><g transform="translate(199.3439,122.9388)"><path d="M 0,0 C 0.201,0.298 0.123,0.703 -0.176,0.904 -0.473,1.105 -0.878,1.026 -1.079,0.728 -1.28,0.43 -1.202,0.026 -0.904,-0.176 -0.605,-0.377 -0.2,-0.298 0,0" style="fill:#159a34;fill-opacity:1;fill-rule:nonzero;stroke:none"/></g><g transform="translate(201.0915,121.7604)"><path d="M 0,0 C 0.201,0.298 0.122,0.703 -0.176,0.904 -0.474,1.105 -0.878,1.026 -1.08,0.728 -1.28,0.43 -1.202,0.025 -0.904,-0.176 -0.606,-0.377 -0.201,-0.298 0,0" style="fill:#159a34;fill-opacity:1;fill-rule:nonzero;stroke:none"/></g></g></g><g transform="matrix(0.35277777,0,0,-0.35277777,119.80508,214.5121)"><g clip-path="url(#dest-h)"><g transform="translate(201.7549,121.3129)"><path d="M 0,0 C 0.201,0.298 0.606,0.377 0.904,0.176 1.202,-0.026 1.28,-0.43 1.079,-0.728 0.879,-1.026 0.474,-1.105 0.176,-0.904 -0.122,-0.703 -0.201,-0.298 0,0" style="fill:#159a34;fill-opacity:1;fill-rule:nonzero;stroke:none"/></g><g transform="translate(194.268,126.3627)"><path d="M 0,0 C 0.201,0.298 0.122,0.703 -0.176,0.904 -0.473,1.105 -0.878,1.026 -1.08,0.728 -1.281,0.43 -1.202,0.025 -0.904,-0.176 -0.606,-0.377 -0.201,-0.298 0,0" style="fill:#159a34;fill-opacity:1;fill-rule:nonzero;stroke:none"/></g></g></g><g transform="matrix(0.35277777,0,0,-0.35277777,119.80508,214.5121)"><g clip-path="url(#dest-i)"><g transform="translate(196.0152,125.1841)"><path d="M 0,0 C 0.201,0.298 0.122,0.703 -0.175,0.904 -0.474,1.105 -0.878,1.026 -1.079,0.728 -1.28,0.43 -1.202,0.026 -0.904,-0.176 -0.606,-0.377 -0.201,-0.298 0,0" style="fill:#159a34;fill-opacity:1;fill-rule:nonzero;stroke:none"/></g><g transform="translate(196.6786,124.7366)"><path d="M 0,0 C 0.201,0.298 0.606,0.377 0.904,0.176 1.202,-0.025 1.28,-0.43 1.08,-0.728 0.879,-1.026 0.474,-1.105 0.176,-0.904 -0.122,-0.703 -0.201,-0.298 0,0" style="fill:#159a34;fill-opacity:1;fill-rule:nonzero;stroke:none"/></g><g transform="translate(198.9937,125.2936)"><path d="M 0,0 C 0.298,-0.201 0.377,-0.606 0.176,-0.904 -0.026,-1.202 -0.43,-1.281 -0.728,-1.08 -1.026,-0.878 -1.105,-0.474 -0.904,-0.176 -0.703,0.122 -0.298,0.201 0,0" style="fill:#159a34;fill-opacity:1;fill-rule:nonzero;stroke:none"/></g><g transform="translate(204.0695,121.8697)"><path d="M 0,0 C 0.298,-0.201 0.377,-0.606 0.176,-0.904 -0.025,-1.202 -0.43,-1.28 -0.728,-1.079 -1.026,-0.878 -1.105,-0.474 -0.904,-0.176 -0.702,0.122 -0.298,0.201 0,0" style="fill:#159a34;fill-opacity:1;fill-rule:nonzero;stroke:none"/></g><g transform="translate(209.1454,118.4458)"><path d="m 0,0 c -0.298,0.201 -0.702,0.122 -0.903,-0.176 -0.201,-0.298 -0.123,-0.702 0.175,-0.903 0.299,-0.201 0.703,-0.123 0.904,0.175 C 0.377,-0.606 0.299,-0.201 0,0" style="fill:#159a34;fill-opacity:1;fill-rule:nonzero;stroke:none"/></g></g></g><g transform="matrix(0.35277777,0,0,-0.35277777,119.80508,214.5121)"><g clip-path="url(#dest-j)"><g transform="translate(214.2216,115.022)"><path d="m 0,0 c -0.298,0.201 -0.702,0.122 -0.904,-0.176 -0.2,-0.298 -0.122,-0.702 0.176,-0.904 0.298,-0.201 0.703,-0.122 0.904,0.176 C 0.377,-0.606 0.298,-0.201 0,0" style="fill:#159a34;fill-opacity:1;fill-rule:nonzero;stroke:none"/></g><g transform="translate(219.2975,111.5981)"><path d="m 0,0 c -0.298,0.201 -0.702,0.122 -0.903,-0.176 -0.202,-0.298 -0.123,-0.702 0.175,-0.904 0.299,-0.2 0.703,-0.122 0.904,0.176 C 0.377,-0.606 0.299,-0.201 0,0" style="fill:#159a34;fill-opacity:1;fill-rule:nonzero;stroke:none"/></g><g transform="translate(223.6035,107.0318)"><path d="M 0,0 C -0.053,0.036 -0.1,0.078 -0.141,0.124 -0.775,-1.012 -1.745,-1.061 -2.367,-0.642 -2.83,-0.33 -3.102,0.122 -3.045,0.734 -3.083,0.75 -3.12,0.771 -3.154,0.794 -3.191,0.819 -3.223,0.845 -3.253,0.875 -3.799,0.594 -4.322,0.676 -4.784,0.989 -5.407,1.408 -5.724,2.326 -4.909,3.34 -4.965,3.36 -5.024,3.389 -5.077,3.424 -5.13,3.46 -5.177,3.502 -5.217,3.548 -5.852,2.412 -6.822,2.362 -7.444,2.782 -7.907,3.094 -8.178,3.546 -8.121,4.157 -8.159,4.174 -8.195,4.194 -8.23,4.218 -8.268,4.243 -8.299,4.269 -8.329,4.299 -8.875,4.017 -9.398,4.1 -9.86,4.412 c -0.623,0.42 -0.94,1.338 -0.125,2.352 -0.057,0.02 -0.115,0.048 -0.168,0.084 -0.053,0.036 -0.1,0.077 -0.14,0.123 -0.634,-1.135 -1.604,-1.185 -2.226,-0.765 -0.464,0.312 -0.735,0.763 -0.678,1.375 -0.038,0.017 -0.074,0.037 -0.109,0.061 -0.037,0.025 -0.069,0.051 -0.099,0.081 -0.546,-0.282 -1.069,-0.199 -1.531,0.113 -0.623,0.42 -0.941,1.338 -0.125,2.351 -0.057,0.021 -0.115,0.049 -0.167,0.084 -0.053,0.036 -0.101,0.078 -0.141,0.124 -0.635,-1.135 -1.604,-1.185 -2.227,-0.765 -0.463,0.312 -0.734,0.763 -0.677,1.375 -0.038,0.017 -0.074,0.037 -0.109,0.061 -0.037,0.025 -0.069,0.051 -0.099,0.081 -0.547,-0.282 -1.069,-0.199 -1.532,0.113 -0.622,0.42 -0.939,1.338 -0.124,2.351 -0.057,0.021 -0.115,0.049 -0.168,0.084 -0.053,0.036 -0.1,0.078 -0.14,0.124 -0.634,-1.135 -1.605,-1.185 -2.227,-0.765 -0.463,0.312 -0.734,0.763 -0.677,1.375 -0.037,0.017 -0.074,0.037 -0.109,0.061 -0.038,0.025 -0.069,0.051 -0.1,0.081 -0.546,-0.282 -1.068,-0.199 -1.531,0.113 -0.622,0.42 -0.939,1.338 -0.124,2.351 -0.057,0.02 -0.115,0.049 -0.168,0.084 -0.053,0.036 -0.1,0.078 -0.14,0.124 -0.635,-1.135 -1.605,-1.185 -2.227,-0.766 -0.463,0.313 -0.734,0.764 -0.677,1.376 -0.038,0.017 -0.074,0.037 -0.11,0.061 -0.036,0.024 -0.068,0.051 -0.099,0.08 -0.546,-0.281 -1.068,-0.198 -1.531,0.114 -0.622,0.419 -0.939,1.338 -0.124,2.351 -0.057,0.02 -0.115,0.049 -0.168,0.084 -0.053,0.036 -0.1,0.078 -0.14,0.124 -0.635,-1.136 -1.605,-1.185 -2.227,-0.766 -0.463,0.313 -0.734,0.764 -0.677,1.376 -0.038,0.016 -0.074,0.037 -0.11,0.06 -0.037,0.025 -0.068,0.051 -0.099,0.081 -0.546,-0.281 -1.068,-0.199 -1.531,0.113 -0.623,0.42 -0.939,1.338 -0.124,2.352 -0.057,0.02 -0.115,0.049 -0.168,0.084 l -0.402,-0.597 c -0.313,-0.757 -0.05,-1.6 0.572,-2.019 0.527,-0.355 1.052,-0.417 1.632,-0.188 0.031,-0.602 0.26,-1.089 0.787,-1.444 0.622,-0.42 1.504,-0.349 2.086,0.225 -0.312,-0.756 -0.051,-1.597 0.571,-2.017 0.527,-0.355 1.052,-0.417 1.632,-0.188 0.032,-0.601 0.261,-1.089 0.787,-1.444 0.623,-0.419 1.504,-0.349 2.087,0.226 -0.313,-0.757 -0.052,-1.598 0.57,-2.018 0.527,-0.355 1.052,-0.417 1.632,-0.187 0.032,-0.602 0.261,-1.09 0.787,-1.445 0.623,-0.419 1.504,-0.349 2.087,0.226 -0.312,-0.757 -0.052,-1.598 0.57,-2.018 0.527,-0.355 1.053,-0.417 1.632,-0.187 0.032,-0.602 0.261,-1.089 0.788,-1.444 0.621,-0.42 1.503,-0.35 2.086,0.225 -0.313,-0.757 -0.053,-1.598 0.57,-2.018 0.527,-0.355 1.053,-0.417 1.632,-0.187 0.032,-0.602 0.261,-1.089 0.787,-1.444 0.623,-0.42 1.502,-0.348 2.085,0.227 -0.312,-0.757 -0.05,-1.6 0.572,-2.019 0.527,-0.356 1.053,-0.418 1.632,-0.188 0.032,-0.602 0.26,-1.089 0.787,-1.444 0.622,-0.42 1.501,-0.348 2.085,0.227 -0.312,-0.757 -0.05,-1.6 0.572,-2.019 0.527,-0.356 1.053,-0.417 1.633,-0.188 0.031,-0.602 0.26,-1.089 0.786,-1.444 0.623,-0.42 1.505,-0.349 2.087,0.226 0,0 0.413,0.589 0.401,0.598" style="fill:#159a34;fill-opacity:1;fill-rule:nonzero;stroke:none"/></g></g></g><g transform="matrix(0.35277777,0,0,-0.35277777,119.80508,214.5121)"><g clip-path="url(#dest-k)"><path d="m 190.778,108.164 h 27.53928 l -6.9e-4,-0.218 H 190.778 Z" style="fill:#000000;fill-opacity:1;fill-rule:nonzero;stroke:none"/><g transform="translate(204.6003,92.9594)"><path d="M 0,0 C -7.634,0 -13.822,6.188 -13.822,13.822 V 33.463 H 13.821 V 13.822 C 13.821,6.188 7.633,0 0,0 m 0,0.218 c -7.513,0 -13.604,6.091 -13.604,13.604 V 33.245 H 13.604 V 13.822 C 13.604,6.309 7.513,0.218 0,0.218" style="fill:#000000;fill-opacity:1;fill-rule:evenodd;stroke:none"/></g><g transform="translate(201.7732,106.8932)"><path d="m 0,0 c 0.284,0.131 0.43,0.197 0.713,0.301 0.047,0.017 0.081,0.038 0.12,0.042 0.322,0.036 0.49,0.045 0.804,0.056 0.211,0.008 0.322,0.006 0.541,0.006 0.07,0 0.119,0.002 0.175,-0.04 C 2.54,0.224 2.673,0.109 2.877,-0.057 3.081,-0.222 3.196,-0.316 3.398,-0.483 3.38,-0.605 3.359,-0.673 3.308,-0.784 3.25,-0.908 3.206,-0.975 3.113,-1.076 c 0.132,0.1 0.207,0.215 0.3,0.38 0.053,0.095 0.073,0.15 0.113,0.257 0.017,0.044 0.045,0.068 0.113,0.045 0.435,-0.145 0.838,-0.287 1.396,-0.334 0.096,-0.008 0.139,-0.017 0.246,-0.014 0.051,0.002 0.099,-0.007 0.145,-0.028 0.251,-0.114 0.397,-0.183 0.634,-0.328 0.272,-0.168 0.526,-0.303 0.77,-0.57 0.215,-0.235 0.355,-0.341 0.632,-0.475 0.194,-0.093 0.283,-0.088 0.524,-0.17 0.041,-0.014 0.053,-0.028 0.068,-0.088 0.076,-0.297 0.105,-0.475 0.172,-0.779 0.067,-0.3 0.104,-0.47 0.171,-0.77 0.174,-0.2 0.291,-0.301 0.514,-0.445 0.18,-0.115 0.29,-0.17 0.49,-0.243 C 9.486,-5.114 9.515,-5.387 9.532,-5.87 9.543,-6.171 9.542,-6.342 9.527,-6.643 9.495,-6.764 9.454,-6.821 9.336,-6.901 9.261,-6.952 9.147,-6.963 9.088,-6.963 H 7.419 c -0.118,0.098 -0.16,0.227 -0.12,0.375 0.035,0.133 0.104,0.214 0.242,0.255 0.141,0.043 0.272,0.047 0.431,0.047 0,0.13 -0.025,0.314 -0.08,0.419 -0.037,0.072 -0.083,0.098 -0.15,0.144 -0.365,0.25 -0.552,0.394 -0.844,0.629 -0.178,0.143 -0.249,0.223 -0.399,0.376 -0.011,0.051 -0.017,0.08 -0.029,0.131 -0.007,0.03 -0.01,0.046 -0.016,0.076 0.036,0.053 0.054,0.085 0.079,0.145 0.035,0.082 0.049,0.132 0.059,0.22 C 6.563,-4.25 6.539,-4.307 6.485,-4.4 6.463,-4.437 6.451,-4.457 6.426,-4.491 6.491,-4.756 6.519,-4.908 6.553,-5.179 6.58,-5.397 6.589,-5.521 6.595,-5.74 6.454,-6.009 6.341,-6.173 6.153,-6.465 6.06,-6.611 5.924,-6.77 5.802,-6.901 5.735,-6.973 5.632,-6.963 5.536,-6.963 H 3.843 c -0.092,0.075 -0.14,0.155 -0.14,0.27 0,0.185 0.105,0.352 0.335,0.414 0.1,0.028 0.235,0.034 0.343,0.021 0.017,0.091 0.024,0.143 0.03,0.235 0.008,0.096 0,0.133 0.007,0.246 0.002,0.049 -0.009,0.081 -0.039,0.119 -0.114,0.148 -0.241,0.289 -0.338,0.505 -0.043,0.096 -0.064,0.152 -0.093,0.254 -0.277,0.033 -0.433,0.054 -0.709,0.097 -0.237,0.036 -0.371,0.058 -0.608,0.102 -0.199,0.155 -0.402,0.277 -0.575,0.325 -0.031,0.009 -0.062,0.009 -0.102,0.011 -0.034,0.062 -0.052,0.098 -0.076,0.165 -0.022,0.065 -0.043,0.15 -0.077,0.365 0.006,-0.261 0.057,-0.444 0.13,-0.652 0.078,-0.222 0.091,-0.28 0.173,-0.551 0.018,-0.061 0.013,-0.1 0,-0.162 C 2.033,-5.536 1.993,-5.685 1.901,-5.989 1.803,-6.312 1.73,-6.556 1.611,-6.804 1.578,-6.874 1.523,-6.963 1.45,-6.963 h -1.795 c -0.06,0.088 -0.103,0.215 -0.094,0.323 0.007,0.087 0.043,0.176 0.105,0.238 0.06,0.059 0.26,0.2 0.561,0.246 -0.003,0.329 -0.013,0.482 -0.017,0.79 -0.004,0.32 -0.004,0.501 0,0.821 -0.094,0.129 -0.109,0.176 -0.156,0.298 -0.049,0.127 -0.069,0.204 -0.088,0.34 -0.006,-0.118 0,-0.186 0.025,-0.3 0.031,-0.136 0.08,-0.227 0.134,-0.33 -0.247,-0.228 -0.397,-0.348 -0.674,-0.54 C -0.785,-5.24 -0.924,-5.325 -1.178,-5.459 -1.195,-5.577 -1.198,-5.612 -1.24,-5.683 -1.299,-5.781 -1.408,-5.85 -1.481,-5.85 H -2.95 c -0.102,0 -0.227,0.368 -0.115,0.488 0.233,0.251 0.36,0.396 0.566,0.668 0.163,0.215 0.267,0.373 0.393,0.568 0.109,0.169 0.349,0.24 0.589,0.363 0.212,0.109 0.336,0.162 0.562,0.24 0,0 0.031,0.19 -0.022,0.19 -0.056,-0.004 -0.212,-0.011 -0.34,0.014 -0.183,0.035 -0.316,0.075 -0.511,0.145 -0.195,0.07 -0.303,0.117 -0.487,0.213 -0.156,0.003 -0.245,0.008 -0.4,0.022 -0.144,0.014 -0.226,0.024 -0.368,0.048 0,0 -0.069,0.23 0.008,0.24 0.051,0.006 0.079,0.01 0.13,0.02 0.057,0.011 0.148,-0.014 0.145,0.033 -0.118,-0.006 -0.178,-0.009 -0.303,-0.012 -0.071,-0.002 -0.15,-0.002 -0.236,-0.005 -0.033,0 -0.121,0.093 -0.215,0.188 -0.1,0.104 -0.212,0.19 -0.215,0.239 -0.004,0.053 0.004,0.249 0.004,0.249 -0.037,0.051 -0.003,0.119 0.053,0.112 0.101,0.025 0.267,0.061 0.267,0.061 0.126,0.116 0.223,0.198 0.354,0.304 0.149,0.119 0.233,0.178 0.389,0.281 0.056,0.248 0.065,0.436 0.22,0.469 0.216,0.047 0.438,0.085 0.784,0.093 0.043,0.133 0.089,0.219 0.208,0.292 0.152,0.093 0.388,0.095 0.541,0.09 0.137,-0.161 0.253,-0.349 0.288,-0.614 0.023,-0.168 -0.013,-0.285 -0.059,-0.43 0.036,0.054 0.06,0.085 0.077,0.147 0.077,0.285 -0.032,0.646 -0.104,0.862 C -0.756,-0.246 -0.379,-0.175 0,0" style="fill:#000000;fill-opacity:1;fill-rule:nonzero;stroke:none"/></g><g transform="translate(200.8746,103.6549)"/><g transform="translate(209.2635,100.2931)"><path d="m 0,0 c -0.003,-0.076 0.026,-0.161 0.108,-0.163 0.032,-0.001 0.036,0.011 0.051,0.028 0.023,0.024 0.01,0.051 0.022,0.082 0.021,0.057 0.051,0.069 0.08,0.134 C 0.273,0.106 0.25,0.14 0.222,0.141 0.183,0.143 0.167,0.144 0.119,0.152 0.053,0.163 0.004,0.075 0,0" style="fill:#ffffff;fill-opacity:1;fill-rule:nonzero;stroke:none"/></g><g transform="translate(209.5291,100.2931)"><path d="m 0,0 c -0.004,-0.076 0.025,-0.161 0.108,-0.163 0.032,-0.001 0.036,0.011 0.051,0.028 0.022,0.024 0.009,0.051 0.022,0.082 0.021,0.057 0.051,0.069 0.08,0.134 C 0.273,0.106 0.25,0.14 0.222,0.141 0.182,0.143 0.167,0.144 0.12,0.152 0.053,0.163 0.003,0.075 0,0" style="fill:#ffffff;fill-opacity:1;fill-rule:nonzero;stroke:none"/></g><g transform="translate(205.695,100.2931)"><path d="m 0,0 c -0.003,-0.076 0.026,-0.161 0.108,-0.163 0.032,-0.001 0.036,0.011 0.052,0.028 0.022,0.024 0.009,0.051 0.021,0.082 0.021,0.057 0.051,0.069 0.08,0.134 C 0.273,0.106 0.25,0.14 0.222,0.141 0.183,0.143 0.167,0.144 0.12,0.152 0.053,0.163 0.004,0.075 0,0" style="fill:#ffffff;fill-opacity:1;fill-rule:nonzero;stroke:none"/></g><g transform="translate(205.9606,100.2931)"><path d="m 0,0 c -0.004,-0.076 0.026,-0.161 0.108,-0.163 0.032,-0.001 0.036,0.011 0.05,0.028 0.023,0.024 0.011,0.051 0.023,0.082 0.021,0.057 0.051,0.069 0.08,0.134 C 0.273,0.106 0.25,0.14 0.222,0.141 0.182,0.143 0.167,0.144 0.12,0.152 0.053,0.163 0.004,0.075 0,0" style="fill:#ffffff;fill-opacity:1;fill-rule:nonzero;stroke:none"/></g><g transform="translate(201.5228,100.2931)"><path d="m 0,0 c -0.004,-0.076 0.026,-0.161 0.108,-0.163 0.032,-0.001 0.036,0.011 0.051,0.028 0.023,0.024 0.01,0.051 0.022,0.082 0.021,0.057 0.051,0.069 0.08,0.134 C 0.273,0.106 0.25,0.14 0.222,0.141 0.183,0.143 0.167,0.144 0.12,0.152 0.053,0.163 0.004,0.075 0,0" style="fill:#ffffff;fill-opacity:1;fill-rule:nonzero;stroke:none"/></g><g transform="translate(201.7884,100.2931)"><path d="m 0,0 c -0.004,-0.076 0.025,-0.161 0.108,-0.163 0.032,-0.001 0.036,0.011 0.051,0.028 0.023,0.024 0.009,0.051 0.022,0.082 0.021,0.057 0.051,0.069 0.08,0.134 C 0.273,0.106 0.25,0.14 0.222,0.141 0.183,0.143 0.167,0.144 0.119,0.152 0.053,0.163 0.004,0.075 0,0" style="fill:#ffffff;fill-opacity:1;fill-rule:nonzero;stroke:none"/></g><g transform="translate(198.8669,101.3473)"><path d="m 0,0 c -0.004,-0.076 0.025,-0.161 0.108,-0.163 0.032,-0.001 0.036,0.011 0.051,0.028 0.022,0.024 0.009,0.051 0.022,0.082 0.021,0.057 0.05,0.069 0.08,0.134 C 0.273,0.106 0.25,0.14 0.222,0.141 0.182,0.143 0.167,0.144 0.119,0.152 0.052,0.163 0.003,0.075 0,0" style="fill:#ffffff;fill-opacity:1;fill-rule:nonzero;stroke:none"/></g><g transform="translate(199.1321,101.3473)"><path d="m 0,0 c -0.004,-0.076 0.026,-0.161 0.108,-0.163 0.032,-0.001 0.036,0.011 0.051,0.028 0.022,0.024 0.01,0.051 0.022,0.082 0.021,0.057 0.051,0.069 0.08,0.134 C 0.273,0.106 0.25,0.14 0.222,0.141 0.183,0.143 0.167,0.144 0.12,0.152 0.053,0.163 0.004,0.075 0,0" style="fill:#ffffff;fill-opacity:1;fill-rule:nonzero;stroke:none"/></g><g transform="translate(198.9707,101.2393)"><path d="m 0,0 c 0.008,0.041 0.015,0.064 0.034,0.102 0.019,0.04 0.033,0.061 0.062,0.094 0,0 -0.065,-0.002 -0.104,0.01 C -0.038,0.182 -0.051,0.157 -0.055,0.118 -0.059,0.067 -0.049,0.016 0,0" style="fill:#ffffff;fill-opacity:1;fill-rule:evenodd;stroke:none"/></g><g transform="translate(199.2363,101.2393)"><path d="m 0,0 c 0.007,0.041 0.015,0.064 0.033,0.102 0.02,0.04 0.034,0.061 0.063,0.094 0,0 -0.065,-0.002 -0.104,0.01 C -0.038,0.182 -0.051,0.157 -0.055,0.118 -0.06,0.067 -0.049,0.016 0,0" style="fill:#ffffff;fill-opacity:1;fill-rule:evenodd;stroke:none"/></g><g transform="translate(201.627,100.1851)"><path d="m 0,0 c 0.007,0.041 0.015,0.064 0.034,0.102 0.019,0.04 0.033,0.061 0.062,0.094 0,0 -0.064,-0.002 -0.104,0.01 C -0.038,0.181 -0.051,0.157 -0.055,0.118 -0.06,0.067 -0.049,0.016 0,0" style="fill:#ffffff;fill-opacity:1;fill-rule:evenodd;stroke:none"/></g><g transform="translate(201.8922,100.1851)"><path d="m 0,0 c 0.008,0.041 0.016,0.064 0.033,0.102 0.02,0.04 0.034,0.061 0.063,0.094 0,0 -0.064,-0.002 -0.104,0.01 C -0.038,0.181 -0.051,0.157 -0.055,0.118 -0.06,0.067 -0.049,0.016 0,0" style="fill:#ffffff;fill-opacity:1;fill-rule:evenodd;stroke:none"/></g><g transform="translate(205.7992,100.1851)"><path d="m 0,0 c 0.008,0.041 0.015,0.064 0.034,0.102 0.019,0.04 0.033,0.061 0.062,0.094 0,0 -0.064,-0.002 -0.104,0.01 C -0.038,0.181 -0.051,0.157 -0.055,0.118 -0.059,0.067 -0.049,0.016 0,0" style="fill:#ffffff;fill-opacity:1;fill-rule:evenodd;stroke:none"/></g><g transform="translate(206.0648,100.1851)"><path d="m 0,0 c 0.007,0.041 0.015,0.064 0.034,0.102 0.018,0.04 0.033,0.061 0.062,0.094 0,0 -0.064,-0.002 -0.104,0.01 C -0.038,0.181 -0.051,0.157 -0.055,0.118 -0.06,0.067 -0.049,0.016 0,0" style="fill:#ffffff;fill-opacity:1;fill-rule:evenodd;stroke:none"/></g><g transform="translate(209.3677,100.1851)"><path d="m 0,0 c 0.008,0.041 0.015,0.064 0.034,0.102 0.019,0.04 0.032,0.061 0.062,0.094 0,0 -0.064,-0.002 -0.104,0.01 C -0.038,0.181 -0.051,0.157 -0.055,0.118 -0.059,0.067 -0.05,0.016 0,0" style="fill:#ffffff;fill-opacity:1;fill-rule:evenodd;stroke:none"/></g><g transform="translate(209.6329,100.1851)"><path d="m 0,0 c 0.008,0.041 0.015,0.064 0.034,0.102 0.019,0.04 0.033,0.061 0.062,0.094 0,0 -0.065,-0.002 -0.103,0.01 C -0.038,0.181 -0.051,0.157 -0.055,0.118 -0.059,0.067 -0.049,0.016 0,0" style="fill:#ffffff;fill-opacity:1;fill-rule:evenodd;stroke:none"/></g><g transform="translate(199.5775,105.7453)"><path d="m 0,0 c -0.046,-0.078 -0.06,-0.138 -0.051,-0.228 0.012,-0.122 0.058,-0.2 0.157,-0.271 l -0.001,0.096 c 0.027,-0.002 0.043,-0.002 0.07,0 0.045,0.004 0.07,0.01 0.112,0.026 C 0.218,-0.339 0.182,-0.309 0.13,-0.25 0.058,-0.167 0.026,-0.107 0,0" style="fill:#ffffff;fill-opacity:1;fill-rule:nonzero;stroke:none"/></g><g transform="translate(199.5837,105.5959)"><path d="M 0,0 C 0.014,-0.043 0.027,-0.066 0.053,-0.102 0.086,-0.147 0.112,-0.17 0.159,-0.199 0.133,-0.204 0.118,-0.205 0.092,-0.202 0.069,-0.201 0.056,-0.198 0.034,-0.191 0.023,-0.17 0.018,-0.158 0.012,-0.136 -0.003,-0.085 -0.006,-0.053 0,0" style="fill:#ffffff;fill-opacity:1;fill-rule:nonzero;stroke:none"/></g></g></g></g><path d="m 18.425232,231.83443 v 0.17932 l 38.93044,26.34567 0.553455,0.37414 h 0.265617 l -0.735356,-0.49713 z" style="color:#000000;fill:#ffffff;-inkscape-stroke:none;paint-order:fill markers stroke"/><path d="m 18.302734,231.62891 -0.05664,0.084 40.216797,27.21484 0.05469,-0.084 z" style="color:#000000;fill:#000000;-inkscape-stroke:none;paint-order:fill markers stroke"/><path d="m 18.425232,232.69691 v 0.1819 l 36.778117,24.88685 1.428853,0.9679 h 0.267684 l -1.612821,-1.09089 z" style="color:#000000;fill:#ffffff;-inkscape-stroke:none;paint-order:fill markers stroke"/><path d="m 18.290899,232.84804 36.636442,24.79277 1.850094,1.252" style="fill:none;stroke:#000000;stroke-width:0.1;stroke-linejoin:miter;stroke-dasharray:none;stroke-opacity:1;paint-order:fill markers stroke"/><path d="m 18.425232,233.49583 v 0.52399 l 0.492993,1.20303 2.702678,0.0233 1.025777,2.5001 2.702677,0.0233 1.025777,2.5001 2.701127,0.0212 1.027328,2.50217 2.701127,0.0217 1.02526,2.49959 2.703195,0.0238 1.02526,2.49959 2.703194,0.0238 1.025261,2.5001 2.703194,0.0233 1.025777,2.5001 2.702677,0.0212 1.025778,2.50011 2.701127,0.0233 1.02526,2.50011 2.703194,0.0232 0.320911,0.78083 h 0.216524 l -0.402559,-0.97978 -2.703194,-0.0233 -1.025261,-2.5001 -2.701644,-0.0217 -1.027327,-2.50165 -2.701127,-0.0217 -1.025261,-2.5001 -2.703194,-0.0233 -1.02526,-2.5001 -2.703195,-0.0233 -1.02526,-2.5001 -2.703194,-0.0212 -1.025261,-2.50217 -2.701127,-0.0217 -1.027327,-2.49959 -2.701127,-0.0238 -1.025777,-2.5001 -2.703195,-0.0233 -1.02526,-2.50011 -2.703194,-0.0212 z" style="color:#000000;opacity:0.988976;fill:#ffffff;-inkscape-stroke:none;paint-order:fill markers stroke"/><path d="m 19.711834,235.61551 0.633074,1.516 1.642706,0.0241 -0.633081,-1.51601 z" style="opacity:0.988976;fill:none;stroke:#000000;stroke-width:0.2;stroke-linejoin:miter;stroke-dasharray:none;stroke-opacity:1;paint-order:fill markers stroke"/><path d="m 18.267501,235.10162 0.718155,0.0225 1.025607,2.50045 2.70253,0.0225 1.025599,2.50045 2.702529,0.0225 1.025608,2.50045 2.702521,0.0225 v 0 l 1.025599,2.50045 2.702529,0.0225 1.025607,2.50045 2.70253,0.0225 1.025599,2.50044 2.702529,0.0225 1.025608,2.50045 2.702521,0.0225 1.025599,2.50044 2.702529,0.0225 1.025608,2.50045 2.702529,0.0225 0.184779,0.4505 0.250548,0.61084" style="opacity:0.988976;fill:none;stroke:#000000;stroke-width:0.2;stroke-linejoin:miter;stroke-dasharray:none;stroke-opacity:1;paint-order:fill markers stroke"/><path d="m 19.71118,235.61507 8.28e-4,5.6e-4 0.300863,0.2036 1.209138,0.0177 0.464253,1.11473 0.301294,0.20389 0.0017,0.001 -0.633315,-1.51678 z" style="color:#000000;opacity:0.988976;fill:#f6f5f4;-inkscape-stroke:none;paint-order:fill markers stroke"/><path d="m 18.425232,236.61191 v 0.18191 l 32.42076,21.93974 h 0.268717 z" style="color:#000000;fill:#ffffff;-inkscape-stroke:none;paint-order:fill markers stroke"/><path d="m 23.439962,238.13843 0.633074,1.516 1.642707,0.0241 -0.633082,-1.51601 z" style="opacity:0.988976;fill:none;stroke:#000000;stroke-width:0.2;stroke-linejoin:miter;stroke-dasharray:none;stroke-opacity:1;paint-order:fill markers stroke"/><path d="m 27.168091,240.66134 0.633074,1.516 1.642706,0.0241 -0.633081,-1.51601 z" style="opacity:0.988976;fill:none;stroke:#000000;stroke-width:0.2;stroke-linejoin:miter;stroke-dasharray:none;stroke-opacity:1;paint-order:fill markers stroke"/><path d="m 30.896228,243.18427 0.633073,1.51599 1.642707,0.0241 -0.633082,-1.516 z" style="opacity:0.988976;fill:none;stroke:#000000;stroke-width:0.2;stroke-linejoin:miter;stroke-dasharray:none;stroke-opacity:1;paint-order:fill markers stroke"/><path d="m 34.624356,245.70718 0.633074,1.516 1.642707,0.0241 -0.633082,-1.51601 z" style="opacity:0.988976;fill:none;stroke:#000000;stroke-width:0.2;stroke-linejoin:miter;stroke-dasharray:none;stroke-opacity:1;paint-order:fill markers stroke"/><path d="m 38.352485,248.2301 0.633073,1.51599 1.642707,0.0241 -0.633082,-1.516 z" style="opacity:0.988976;fill:none;stroke:#000000;stroke-width:0.2;stroke-linejoin:miter;stroke-dasharray:none;stroke-opacity:1;paint-order:fill markers stroke"/><path d="m 42.080613,250.75301 0.633074,1.516 1.642707,0.0241 -0.633082,-1.51601 z" style="opacity:0.988976;fill:none;stroke:#000000;stroke-width:0.2;stroke-linejoin:miter;stroke-dasharray:none;stroke-opacity:1;paint-order:fill markers stroke"/><path d="m 45.80875,253.27593 0.633074,1.516 1.642706,0.0241 L 47.451449,253.3 Z" style="opacity:0.988976;fill:none;stroke:#000000;stroke-width:0.2;stroke-linejoin:miter;stroke-dasharray:none;stroke-opacity:1;paint-order:fill markers stroke"/><path d="m 49.536879,255.79885 0.633073,1.516 1.642707,0.0241 -0.633082,-1.516 z" style="opacity:0.988976;fill:none;stroke:#000000;stroke-width:0.2;stroke-linejoin:miter;stroke-dasharray:none;stroke-opacity:1;paint-order:fill markers stroke"/><path d="m 53.265007,258.32176 0.241787,0.579 v 0 l 1.647387,0.0353 -0.02291,-0.0549 -0.223565,-0.53536 z" style="opacity:0.988976;fill:none;stroke:#000000;stroke-width:0.2;stroke-linejoin:miter;stroke-dasharray:none;stroke-opacity:1;paint-order:fill markers stroke"/><path d="m 53.263932,258.32118 0.001,5.2e-4 0.300757,0.20361 1.209228,0.0176 0.07958,0.19068 h 0.216007 l -0.161747,-0.38757 z" style="color:#000000;opacity:0.988976;fill:#f6f5f4;-inkscape-stroke:none;paint-order:fill markers stroke"/><path d="m 49.535769,255.79809 8.28e-4,5.7e-4 0.300863,0.2036 1.209138,0.0177 0.464253,1.11473 0.301294,0.20389 0.0017,0.001 -0.633315,-1.51679 z" style="color:#000000;opacity:0.988976;fill:#f6f5f4;-inkscape-stroke:none;paint-order:fill markers stroke"/><path d="m 45.807649,253.27519 8.28e-4,5.6e-4 0.300863,0.2036 1.209138,0.0177 0.464253,1.11472 0.301294,0.20389 0.0017,0.001 L 47.452367,253.3 Z" style="color:#000000;opacity:0.988976;fill:#f6f5f4;-inkscape-stroke:none;paint-order:fill markers stroke"/><path d="m 42.079537,250.75228 8.28e-4,5.6e-4 0.300863,0.2036 1.209138,0.0177 0.464253,1.11473 0.301294,0.20389 0.0017,0.001 -0.633315,-1.51678 z" style="color:#000000;opacity:0.988976;fill:#f6f5f4;-inkscape-stroke:none;paint-order:fill markers stroke"/><path d="m 38.351416,248.22937 8.29e-4,5.6e-4 0.300863,0.2036 1.209138,0.0177 0.464253,1.11473 0.301294,0.20389 0.0017,0.001 -0.633314,-1.51678 z" style="color:#000000;opacity:0.988976;fill:#f6f5f4;-inkscape-stroke:none;paint-order:fill markers stroke"/><path d="m 34.623304,245.70647 8.29e-4,5.6e-4 0.300863,0.2036 1.209138,0.0177 0.464253,1.11472 0.301294,0.2039 0.0017,0.001 -0.633314,-1.51679 z" style="color:#000000;opacity:0.988976;fill:#f6f5f4;-inkscape-stroke:none;paint-order:fill markers stroke"/><path d="m 30.895184,243.18356 8.28e-4,5.6e-4 0.300864,0.2036 1.209138,0.0177 0.464253,1.11473 0.301294,0.20389 0.0017,0.001 -0.633314,-1.51679 z" style="color:#000000;opacity:0.988976;fill:#f6f5f4;-inkscape-stroke:none;paint-order:fill markers stroke"/><path d="m 27.167072,240.66066 8.28e-4,5.6e-4 0.300864,0.2036 1.209138,0.0177 0.464253,1.11473 0.301294,0.20389 0.0017,0.001 -0.633314,-1.51679 z" style="color:#000000;opacity:0.988976;fill:#f6f5f4;-inkscape-stroke:none;paint-order:fill markers stroke"/><path d="m 23.438952,238.13775 8.28e-4,5.6e-4 0.300864,0.2036 1.209138,0.0177 0.464253,1.11472 0.301294,0.20389 0.0017,10e-4 -0.633315,-1.51679 z" style="color:#000000;opacity:0.988976;fill:#f6f5f4;-inkscape-stroke:none;paint-order:fill markers stroke"/><path d="m 18.238325,236.42495 33.160881,22.44077 v 0" style="fill:none;stroke:#000000;stroke-width:0.1;stroke-linejoin:miter;stroke-dasharray:none;stroke-opacity:1;paint-order:fill markers stroke"/><path d="m 20.782194,231.67061 c 0.02276,0.38621 0.124187,0.75714 0.29869,1.08676 h 5.17e-4 l 0.07648,-0.0444 v -0.001 c -0.172461,-0.31625 -0.276455,-0.67177 -0.30024,-1.04128 z m 3.571358,2.15078 -0.04547,0.17001 c 1.58e-4,-5e-5 3.59e-4,6e-5 5.17e-4,0 0.0497,0.44261 0.156718,0.84327 0.3545,1.19941 l 0.06563,-0.0367 -5.17e-4,-0.003 c -0.230566,-0.38812 -0.347427,-0.83193 -0.374137,-1.32757 z m 4.310848,1.82831 -0.223242,0.45217 c -0.116577,0.63116 -0.02389,1.26266 0.255282,1.79007 l 0.07493,-0.0434 -5.16e-4,-0.006 c -0.348204,-0.64113 -0.415292,-1.44405 -0.105937,-2.19315 z m 3.303675,3.30832 -0.04599,0.1695 -5.17e-4,0.002 c 0.05058,0.44225 0.158308,0.8425 0.35605,1.19838 l 0.06511,-0.0367 -0.0016,-0.005 c -0.2294,-0.38725 -0.345194,-0.83028 -0.37207,-1.32499 z m 4.310848,1.82832 c -5.26e-4,5.1e-4 -10e-4,0.001 -0.0016,0.002 l -0.222725,0.44958 -10e-4,0.003 c 8.58e-4,-5.5e-4 0.0017,-10e-4 0.0026,-0.002 -0.116502,0.63076 -0.02436,1.26198 0.254248,1.78903 l 0.07493,-0.0434 -5.17e-4,-0.006 c -0.347111,-0.64051 -0.413409,-1.44232 -0.105936,-2.19056 z m 3.303157,3.3078 -0.04547,0.17002 c 3.15e-4,-1.1e-4 7.18e-4,1.1e-4 10e-4,0 0.0497,0.44261 0.156718,0.84327 0.354501,1.19941 l 0.06511,-0.0367 -0.0021,-0.008 c -0.228488,-0.38572 -0.344572,-0.82676 -0.371554,-1.31982 z m 4.310331,1.82883 c -0.001,0.001 -0.0021,0.002 -0.0031,0.003 l -0.220659,0.44701 -0.001,0.004 c 0.0011,-6.8e-4 0.002,-0.001 0.0031,-0.002 -0.116458,0.63049 -0.02385,1.26101 0.254248,1.788 l 0.0739,-0.0429 v -0.005 c -0.347222,-0.63998 -0.413501,-1.44074 -0.105937,-2.1885 z m 3.303675,3.30781 -0.04548,0.1695 v 5.2e-4 l 0.0016,-5.2e-4 c 0.04973,0.44286 0.156678,0.84333 0.3545,1.19941 l 0.0646,-0.0362 -0.0026,-0.008 c -0.227547,-0.38484 -0.343179,-0.82474 -0.37052,-1.3162 z m 4.309814,1.82625 -0.223759,0.45113 v 5.2e-4 c -3.1e-5,1.7e-4 3.1e-5,3.5e-4 0,5.2e-4 -0.116173,0.63108 -0.02288,1.26188 0.256315,1.78903 l 0.07441,-0.0429 -5.16e-4,-0.008 c -0.347056,-0.64084 -0.413907,-1.4429 -0.106454,-2.19056 z m 3.304708,3.30987 -0.04548,0.17002 c 0.0505,0.44208 0.157739,0.84261 0.355534,1.19889 l 0.0646,-0.0362 -0.0021,-0.008 c -0.227104,-0.38435 -0.341987,-0.82372 -0.369487,-1.31465 z m 4.309298,1.82521 -0.223759,0.45217 c 1.26e-4,-8e-5 3.9e-4,8e-5 5.16e-4,0 -0.116495,0.63072 -0.02224,1.26176 0.257349,1.78904 l 0.07286,-0.0424 -5.17e-4,-0.0103 c -0.346481,-0.64035 -0.413424,-1.44153 -0.105937,-2.1885 z" style="opacity:0.988976;fill:#ffffff;stroke:none;stroke-width:0.1;stroke-linejoin:miter;stroke-dasharray:none;stroke-opacity:1;paint-order:fill markers stroke"/></g></svg>