<svg xmlns="http://www.w3.org/2000/svg" viewBox="0 0 640 480"><g transform="matrix(1, 0, 0, 1, 21.418211, -28.557613)"><path d="M 419.431 432.027 L 418.227 435.888 L 419.574 440.741 L 423.507 443.484 L 423.318 446.442 L 420.239 448.068 L 419.669 451.708 L 415.26 457.127 L 413.648 456.346 L 413.46 453.89 L 408.207 450.133 L 407.381 444.786 L 408.18 437.082 L 409.478 433.562 L 407.879 431.775 L 407.242 428.152 L 411.354 422.523 L 411.956 424.673 L 414.506 423.663 L 416.526 426.729 L 418.798 427.897 L 419.431 432.027" style="fill:#e6e6e6;stroke:#000000;stroke-width:0.242"/><path d="M 385.203 358.531 L 384.48 363.469 L 379.143 363.487 L 380.979 366.095 L 377.832 373.812 L 376.022 375.828 L 367.73 376.125 L 362.949 378.827 L 355.115 377.907 L 341.557 374.827 L 339.443 370.67 L 330.069 372.749 L 328.969 375.02 L 323.222 373.323 L 318.387 373 L 314.095 370.818 L 315.545 367.882 L 315.177 365.749 L 318.041 365.085 L 322.841 368.425 L 324.188 365.251 L 332.551 365.763 L 339.33 363.604 L 343.874 363.972 L 346.832 366.441 L 347.717 364.394 L 346.37 356.515 L 349.777 354.97 L 353.117 349.354 L 360.166 353.278 L 365.495 348.286 L 368.835 347.374 L 376.193 351.105 L 380.646 350.468 L 385.019 352.771 L 384.256 354.315 L 385.203 358.522" style="fill:#e6e6e6;stroke:#000000;stroke-width:0.242"/><path d="M 255.648 318.763 L 262.588 319.751 L 271.374 317.138 L 277.376 322.638 L 282.589 325.56 L 281.511 333.964 L 279.042 334.436 L 278.014 341.358 L 269.717 335.733 L 264.851 336.698 L 258.238 330.853 L 253.829 325.848 L 249.421 325.645 L 248.047 321.241 L 255.648 318.763" style="fill:#e6e6e6;stroke:#000000;stroke-width:0.242"/><path d="M 439.027 404.668 L 441.756 409.441 L 445.429 408.592 L 452.715 410.397 L 466.637 411.007 L 471.342 408.053 L 482.502 405.355 L 489.403 409.571 L 494.974 410.787 L 490.054 415.569 L 486.592 423.784 L 489.654 430.298 L 481.488 428.768 L 471.831 432.35 L 471.728 437.998 L 463.113 439.062 L 456.432 435.107 L 448.841 438.222 L 441.828 437.895 L 441.155 430.388 L 436.405 426.729 L 437.967 425.118 L 436.939 423.757 L 438.533 420.112 L 442.147 416.516 L 437.541 411.537 L 436.688 407.304 L 439.027 404.668" style="fill:#e6e6e6;stroke:#000000;stroke-width:0.242"/><path d="M 404.409 397.377 L 407.843 397.342 L 405.468 402.477 L 410.043 406.949 L 408.66 412.395 L 406.429 412.906 L 404.656 413.961 L 401.572 416.642 L 400.184 422.958 L 391.794 418.612 L 388.216 413.804 L 384.597 411.245 L 380.238 406.917 L 378.186 403.317 L 373.544 397.858 L 375.529 392.991 L 378.932 395.685 L 380.983 393.252 L 385.414 392.991 L 393.563 394.94 L 400.117 394.778 L 404.409 397.373" style="fill:#e6e6e6;stroke:#000000;stroke-width:0.242"/><path d="M 446.87 285.959 L 456.033 286.049 L 466.327 281.142 L 468.527 273.743 L 476.298 269.523 L 475.409 263.588 L 481.174 261.352 L 491.36 256.199 L 501.34 259.552 L 502.687 262.856 L 507.661 261.267 L 516.932 264.441 L 517.861 270.655 L 515.827 274.206 L 521.771 282.776 L 525.632 285.151 L 525.062 287.499 L 531.455 289.779 L 534.185 293.223 L 530.494 296.038 L 522.844 295.593 L 521.022 296.792 L 523.248 301.048 L 525.578 309.214 L 517.439 309.964 L 514.521 312.747 L 513.91 319.095 L 510.139 317.879 L 501.583 318.48 L 499.095 315.535 L 495.54 317.731 L 491.975 315.912 L 484.509 315.657 L 473.928 312.626 L 464.352 311.634 L 457.003 311.917 L 451.808 315.342 L 447.278 315.832 L 447.094 310.202 L 444.172 304.307 L 449.855 301.703 L 449.909 296.59 L 447.278 291.692 L 446.87 285.959" style="fill:#e6e6e6;stroke:#000000;stroke-width:0.242"/><path d="M 315.177 365.754 L 315.545 367.886 L 314.095 370.823 L 318.387 373.004 L 323.222 373.328 L 322.473 378.217 L 318.293 380.223 L 311.28 378.733 L 309.224 383.523 L 304.712 383.896 L 303.065 382.019 L 297.754 386.033 L 293.179 386.598 L 289.103 384.062 L 285.843 378.859 L 281.318 380.722 L 281.457 375.33 L 288.389 368.609 L 288.088 365.552 L 292.407 366.661 L 295.011 364.605 L 303.074 364.69 L 305.018 362.068 L 315.177 365.754" style="fill:#e6e6e6;stroke:#000000;stroke-width:0.242"/><path d="M 385.019 352.78 L 380.646 350.476 L 376.193 351.109 L 368.835 347.379 L 365.495 348.295 L 360.166 353.287 L 353.117 349.359 L 347.766 344.093 L 342.926 341.138 L 341.925 335.935 L 340.264 332.254 L 347.155 329.547 L 350.675 326.44 L 357.486 324.02 L 359.86 321.632 L 362.361 323.073 L 366.595 321.767 L 371.089 325.798 L 378.173 326.88 L 377.585 330.31 L 382.734 332.878 L 384.148 329.668 L 390.653 331.06 L 391.551 334.948 L 398.6 335.693 L 402.963 341.771 L 400.135 341.785 L 398.667 343.998 L 396.49 344.532 L 395.87 347.32 L 394.056 347.9 L 393.8 349.035 L 390.559 350.301 L 386.362 350.095 L 385.019 352.775" style="fill:#e6e6e6;stroke:#000000;stroke-width:0.242"/><path d="M 318.288 271.952 L 318.455 277.034 L 328.035 280.082 L 327.936 284.711 L 337.575 282.264 L 342.904 278.686 L 353.607 283.84 L 358.087 287.979 L 360.3 294.552 L 357.656 297.986 L 361.1 302.547 L 363.448 309.362 L 362.707 313.726 L 366.595 321.767 L 362.361 323.073 L 359.86 321.632 L 357.486 324.02 L 350.675 326.44 L 347.155 329.547 L 340.264 332.254 L 341.925 335.935 L 342.926 341.138 L 347.766 344.093 L 353.117 349.359 L 349.777 354.979 L 346.37 356.519 L 347.717 364.398 L 346.832 366.445 L 343.874 363.981 L 339.33 363.608 L 332.551 365.772 L 324.188 365.256 L 322.841 368.43 L 318.041 365.09 L 315.177 365.754 L 305.018 362.068 L 303.074 364.69 L 295.011 364.605 L 296.214 355.989 L 301.004 347.639 L 287.343 345.385 L 282.867 342.167 L 283.406 336.761 L 281.511 333.969 L 282.589 325.56 L 280.995 312.384 L 286.692 312.379 L 289.094 307.603 L 291.455 295.894 L 289.686 291.535 L 291.536 288.796 L 299.46 288.091 L 301.22 290.947 L 307.657 284.554 L 305.489 279.665 L 305.054 272.221 L 312.219 273.959 L 318.288 271.952" style="fill:#e6e6e6;stroke:#000000;stroke-width:0.242"/><path d="M 344.529 263.656 L 338.841 274.363 L 328.919 266.906 L 327.595 261.393 L 341.503 256.971 L 344.529 263.656" style="fill:#e6e6e6;stroke:#000000;stroke-width:0.242"/><path d="M 327.676 252.311 L 325.359 257.37 L 322.535 255.916 L 315.707 265.514 L 318.288 271.952 L 312.219 273.954 L 305.054 272.221 L 301.206 264.881 L 300.919 251.215 L 302.499 247.574 L 305.215 243.512 L 313.57 242.668 L 316.901 238.914 L 324.524 235.058 L 324.205 242.075 L 321.395 246.492 L 322.535 250.273 L 327.676 252.311" style="fill:#e6e6e6;stroke:#000000;stroke-width:0.242"/><path d="M 138.559 431.74 L 139.035 423.614 L 135.165 418.639 L 148.575 410.316 L 160.18 412.404 L 172.907 412.327 L 182.995 414.303 L 190.87 413.697 L 206.188 414.078 L 209.968 418.554 L 227.423 423.766 L 230.87 421.288 L 241.537 426.464 L 252.527 424.983 L 253.035 431.609 L 244.051 439.161 L 231.903 441.544 L 231.054 445.333 L 225.227 451.556 L 221.573 460.633 L 225.272 466.968 L 219.79 471.893 L 217.739 479.036 L 210.578 481.217 L 203.867 489.608 L 191.83 489.77 L 182.793 489.568 L 176.858 493.402 L 173.235 497.492 L 168.598 496.598 L 165.087 492.935 L 162.398 486.681 L 153.549 484.989 L 152.759 481.375 L 156.27 477.262 L 157.572 474.277 L 154.303 471.004 L 156.921 463.74 L 153.123 457.073 L 157.217 456.157 L 157.599 450.878 L 159.138 449.235 L 159.264 440.458 L 163.641 437.396 L 160.993 431.708 L 155.466 431.309 L 153.845 432.745 L 148.243 432.754 L 145.868 427.178 L 141.998 428.844 L 138.559 431.735" style="fill:#e6e6e6;stroke:#000000;stroke-width:0.242"/><path d="M 454.726 234.191 L 455.826 226.07 L 452.343 227.812 L 446.322 222.892 L 445.501 214.887 L 457.487 210.981 L 469.434 208.938 L 479.719 211.264 L 489.506 210.846 L 490.934 213.298 L 484.186 221.338 L 486.996 234.214 L 482.938 238.551 L 475.117 238.519 L 466.956 233.442 L 462.803 231.758 L 454.726 234.187" style="fill:#e6e6e6;stroke:#000000;stroke-width:0.242"/><path d="M 495.297 64.613 L 493.91 76.182 L 508.433 87.037 L 499.684 99.159 L 510.71 117.134 L 504.326 130.427 L 512.864 141.804 L 508.986 151.64 L 523.02 161.867 L 519.455 169.405 L 510.647 177.867 L 490.35 196.283 L 473.142 197.414 L 456.468 202.631 L 441.043 205.616 L 435.557 197.872 L 426.371 193.181 L 428.486 178.954 L 423.88 165.723 L 428.4 157.077 L 436.998 147.653 L 458.686 131.141 L 465.016 127.922 L 464.029 121.368 L 450.843 113.992 L 447.647 107.864 L 447.395 83.181 L 432.594 72.034 L 419.956 63.926 L 425.639 59.513 L 436.176 68.316 L 448.558 67.495 L 458.735 71.49 L 467.777 64.159 L 472.424 51.867 L 487.145 46.121 L 499.315 52.859 L 495.297 64.613" style="fill:#e6e6e6;stroke:#000000;stroke-width:0.242"/><path d="M 314.854 428.642 L 311.725 437.419 L 307.42 435.111 L 305.224 427.457 L 307.137 423.21 L 313.242 418.828 L 314.854 428.642" style="fill:#e6e6e6;stroke:#000000;stroke-width:0.242"/><path d="M 258.238 330.853 L 264.851 336.698 L 269.717 335.733 L 278.014 341.358 L 280.133 342.427 L 282.867 342.167 L 287.343 345.385 L 301.004 347.639 L 296.214 355.989 L 295.011 364.605 L 292.407 366.661 L 288.088 365.552 L 288.389 368.609 L 281.457 375.33 L 281.318 380.722 L 285.843 378.859 L 289.103 384.062 L 288.712 387.402 L 291.5 391.829 L 288.214 395.402 L 290.656 404.439 L 295.796 405.912 L 294.71 410.945 L 286.122 417.463 L 267.423 414.343 L 253.614 418.078 L 252.527 424.983 L 241.537 426.464 L 230.87 421.288 L 227.423 423.766 L 209.968 418.554 L 206.188 414.078 L 211.094 407.137 L 212.899 383.784 L 203.117 371.285 L 196.122 365.211 L 181.63 360.569 L 180.679 351.716 L 192.971 349.062 L 208.89 352.2 L 205.887 338.319 L 214.834 343.599 L 236.909 333.978 L 239.755 323.773 L 248.047 321.241 L 249.421 325.645 L 253.829 325.852 L 258.238 330.853" style="fill:#e6e6e6;stroke:#000000;stroke-width:0.242"/><path d="M 170.537 277.582 L 165.455 286.543 L 158.29 283.862 L 152.427 284.042 L 154.38 277.043 L 152.427 269.995 L 160.373 269.447 L 170.537 277.582" style="fill:#e6e6e6;stroke:#000000;stroke-width:0.242"/><path d="M 195.727 222.586 L 185.595 237.482 L 195.251 235.606 L 205.64 235.677 L 203.171 246.762 L 194.645 258.807 L 204.45 259.66 L 205.2 261.061 L 213.644 276.661 L 220.136 278.762 L 225.972 293.564 L 228.675 298.642 L 240.159 301.084 L 239.005 309.232 L 234.179 312.949 L 237.964 319.473 L 229.434 326.032 L 216.751 325.919 L 200.607 329.345 L 196.19 326.894 L 189.922 332.721 L 181.15 331.316 L 174.488 336.047 L 169.451 333.574 L 183.354 320.469 L 191.839 317.753 L 191.768 317.744 L 176.961 315.643 L 174.277 310.615 L 184.185 306.673 L 178.991 299.8 L 180.795 291.369 L 194.883 292.54 L 194.897 292.54 L 196.293 285.016 L 189.945 276.976 L 189.797 276.792 L 178.286 274.484 L 176.028 270.919 L 179.471 265.007 L 176.355 261.344 L 171.251 267.624 L 170.694 254.78 L 165.904 247.916 L 169.347 233.846 L 176.714 222.654 L 184.284 223.754 L 195.723 222.586" style="fill:#e6e6e6;stroke:#000000;stroke-width:0.242"/><path d="M 448.917 500.109 L 454.098 503.741 L 461.479 503.126 L 468.536 503.893 L 468.307 505.766 L 473.474 504.473 L 472.289 507.642 L 458.637 508.558 L 458.731 506.785 L 447.162 504.688 L 448.917 500.109" style="fill:#e6e6e6;stroke:#000000;stroke-width:0.242"/><path d="M 476.451 435.353 L 473.515 442.429 L 471.261 443.695 L 465.488 443.376 L 460.536 442.308 L 449.056 445.235 L 455.629 451.542 L 450.812 453.365 L 445.532 453.374 L 440.517 447.605 L 438.735 450.065 L 440.854 456.741 L 445.599 461.962 L 442.026 464.391 L 447.305 469.491 L 451.997 472.688 L 452.141 478.896 L 443.368 475.987 L 446.165 481.577 L 440.145 482.726 L 443.741 492.338 L 437.447 492.472 L 429.671 487.745 L 426.115 479.004 L 424.454 471.691 L 420.759 466.618 L 415.902 460.292 L 415.26 457.123 L 419.669 451.708 L 420.234 448.068 L 423.318 446.438 L 423.507 443.484 L 429.711 442.483 L 433.325 440.018 L 438.461 440.238 L 440.019 438.267 L 441.828 437.89 L 448.841 438.218 L 456.432 435.107 L 463.113 439.062 L 471.728 437.993 L 471.831 432.346 L 476.451 435.353" style="fill:#e6e6e6;stroke:#000000;stroke-width:0.242"/><path d="M 402.743 385.036 L 405.046 389.611 L 408.059 392.964 L 404.409 397.377 L 400.117 394.783 L 393.563 394.944 L 385.414 392.996 L 380.983 393.256 L 378.932 395.689 L 375.529 392.996 L 373.544 397.862 L 378.186 403.317 L 380.238 406.922 L 384.597 411.25 L 388.216 413.804 L 391.794 418.617 L 400.184 422.958 L 399.143 424.907 L 390.227 420.669 L 384.732 416.529 L 376.058 413.104 L 368.085 404.574 L 369.998 403.703 L 365.674 398.801 L 365.499 394.845 L 359.403 392.996 L 356.498 398.055 L 353.696 394.132 L 353.912 390.051 L 354.249 389.862 L 360.857 390.262 L 362.595 388.273 L 365.818 390.199 L 369.54 390.423 L 369.504 387.128 L 372.799 385.92 L 373.719 381.135 L 381.266 377.979 L 384.278 379.442 L 391.367 384.529 L 399.197 386.8 L 402.739 385.036" style="fill:#e6e6e6;stroke:#000000;stroke-width:0.242"/><path d="M 377.832 373.821 L 380.979 366.1 L 379.143 363.491 L 384.48 363.473 L 385.203 358.535 L 390.025 361.633 L 393.518 362.948 L 401.477 361.467 L 402.241 359.038 L 406.007 358.683 L 410.627 356.798 L 411.65 357.574 L 416.104 356.057 L 418.326 353.197 L 421.433 352.456 L 431.588 356.151 L 433.608 354.908 L 438.874 358.212 L 439.534 361.453 L 433.743 363.985 L 429.258 372.129 L 423.525 380.214 L 415.924 382.455 L 410.007 381.929 L 402.743 385.041 L 399.201 386.809 L 391.367 384.533 L 384.278 379.447 L 381.266 377.983 L 379.425 373.961 L 377.832 373.826" style="fill:#e6e6e6;stroke:#000000;stroke-width:0.242"/><path d="M 165.455 286.543 L 167.017 295.777 L 159.852 307.198 L 143.044 314.687 L 129.625 312.774 L 137.311 299.481 L 132.359 286.363 L 145.262 276.141 L 152.427 269.995 L 154.38 277.043 L 152.427 284.042 L 158.29 283.862 L 165.455 286.543" style="fill:#e6e6e6;stroke:#000000;stroke-width:0.242"/><path d="M 86.661 106.916 L 84.47 117.094 L 95.182 127.684 L 82.859 139.375 L 55.509 149.75 L 47.338 152.488 L 34.853 150.28 L 8.402 145.503 L 17.735 138.796 L -2.898 131.312 L 13.888 128.326 L 13.479 123.788 L -6.418 120.174 L -0.012 109.974 L 14.355 107.635 L 29.134 118.288 L 43.54 109.749 L 55.469 114.194 L 70.93 105.799 L 86.661 106.916" style="fill:#e6e6e6;stroke:#000000;stroke-width:0.242"/><path d="M 371.367 472.566 L 367.95 481.208 L 369.369 484.593 L 367.38 490.196 L 360.13 486.097 L 355.308 484.917 L 342.073 479.359 L 343.402 473.72 L 354.496 474.726 L 364.166 473.527 L 371.367 472.566" style="fill:#e6e6e6;stroke:#000000;stroke-width:0.242"/><path d="M 311.536 439.34 L 317.224 447.34 L 315.896 462.106 L 311.581 461.406 L 307.716 465.109 L 304.124 462.169 L 303.747 448.705 L 301.583 442.276 L 306.795 442.837 L 311.536 439.34" style="fill:#e6e6e6;stroke:#000000;stroke-width:0.242"/><path d="M 341.557 374.832 L 355.115 377.911 L 354.087 383.761 L 356.359 388.789 L 348.812 387.074 L 341.104 391.254 L 341.629 397.081 L 340.466 400.412 L 343.573 406.338 L 352.466 412.175 L 357.234 421.688 L 367.784 430.891 L 375.214 430.824 L 377.522 433.333 L 374.864 435.596 L 383.354 439.686 L 390.317 443.098 L 398.447 448.961 L 399.426 451.053 L 397.657 455.053 L 392.395 449.832 L 384.157 447.987 L 380.166 455.228 L 387.021 459.358 L 385.895 465.15 L 381.935 465.805 L 376.871 475.264 L 372.916 476.113 L 372.956 472.75 L 374.891 466.829 L 376.952 464.467 L 373.252 458.03 L 370.357 452.4 L 366.42 451.008 L 363.623 446.164 L 357.53 444.121 L 353.427 439.587 L 346.415 438.855 L 339.003 433.742 L 330.329 426.33 L 323.882 419.73 L 320.928 408.327 L 316.21 406.976 L 308.497 403.142 L 304.133 404.713 L 298.652 410.096 L 294.714 410.945 L 295.796 405.912 L 290.661 404.439 L 288.218 395.402 L 291.505 391.829 L 288.712 387.402 L 289.103 384.062 L 293.184 386.598 L 297.754 386.033 L 303.069 382.019 L 304.712 383.896 L 309.229 383.523 L 311.285 378.733 L 318.297 380.223 L 322.477 378.217 L 323.227 373.328 L 328.973 375.025 L 330.073 372.753 L 339.443 370.674 L 341.562 374.832" style="fill:#e6e6e6;stroke:#000000;stroke-width:0.242"/><path d="M 421.065 429.791 L 420.638 432.121 L 419.431 432.027 L 418.798 427.897 L 416.526 426.729 L 414.506 423.663 L 416.279 421.095 L 418.546 420.269 L 419.857 416.453 L 421.559 415.816 L 422.905 417.441 L 424.679 418.155 L 425.918 419.982 L 427.476 420.525 L 429.321 422.648 L 430.663 422.586 L 429.604 425.374 L 428.468 426.729 L 428.787 427.587 L 426.663 428.027 L 421.065 429.791" style="fill:#e6e6e6;stroke:#000000;stroke-width:0.242"/><path d="M 439.732 280.554 L 438.973 277.214 L 439.983 273.618 L 435.79 271.526 L 425.864 269.218 L 423.848 258.044 L 434.708 253.936 L 450.605 254.793 L 459.921 253.469 L 461.25 256.257 L 466.296 257.119 L 475.409 263.588 L 476.298 269.523 L 468.527 273.743 L 466.327 281.142 L 456.033 286.049 L 446.87 285.959 L 444.594 281.95 L 439.732 280.554" style="fill:#e6e6e6;stroke:#000000;stroke-width:0.242"/><path d="M 281.511 333.964 L 283.406 336.761 L 282.867 342.167 L 280.133 342.427 L 278.014 341.358 L 279.042 334.436 L 281.511 333.969" style="fill:#e6e6e6;stroke:#000000;stroke-width:0.242"/><path d="M 423.848 258.044 L 424.176 247.929 L 428.836 239.408 L 437.77 234.739 L 445.299 244.921 L 452.904 244.656 L 454.726 234.191 L 462.803 231.763 L 466.956 233.451 L 475.117 238.524 L 482.933 238.551 L 487.504 241.689 L 488.312 248.261 L 491.36 256.199 L 481.174 261.352 L 475.409 263.588 L 466.296 257.119 L 461.25 256.261 L 459.921 253.469 L 450.605 254.798 L 434.704 253.936 L 423.848 258.044" style="fill:#e6e6e6;stroke:#000000;stroke-width:0.242"/><path d="M 476.594 357.35 L 478.857 355.559 L 485.156 354.36 L 492.146 358.14 L 496.047 358.593 L 500.33 361.848 L 499.648 365.934 L 503.1 367.9 L 504.474 372.91 L 507.782 375.945 L 507.113 377.723 L 508.882 378.93 L 506.373 379.806 L 500.783 379.46 L 499.85 377.813 L 497.865 378.764 L 498.539 380.892 L 495.944 384.668 L 494.287 388.722 L 491.899 390.001 L 490.202 384.614 L 491.203 379.55 L 490.898 374.32 L 485.43 367.2 L 482.422 362.118 L 479.486 358.531 L 476.594 357.35" style="fill:#e6e6e6;stroke:#000000;stroke-width:0.242"/><path d="M 419.431 432.027 L 420.638 432.121 L 421.065 429.791 L 426.663 428.022 L 428.782 427.587 L 432.014 426.918 L 436.405 426.729 L 441.155 430.388 L 441.828 437.895 L 440.019 438.267 L 438.461 440.238 L 433.325 440.018 L 429.711 442.487 L 423.507 443.484 L 419.574 440.741 L 418.227 435.888 L 419.431 432.027" style="fill:#e6e6e6;stroke:#000000;stroke-width:0.242"/><path d="M 411.956 424.673 L 411.354 422.523 L 407.242 428.152 L 407.879 431.775 L 405.895 430.891 L 403.237 427.174 L 399.143 424.907 L 400.184 422.958 L 401.572 416.642 L 404.656 413.966 L 406.429 412.911 L 408.943 414.891 L 410.331 416.484 L 413.442 417.728 L 417.06 420.112 L 416.279 421.095 L 414.506 423.663 L 411.956 424.673" style="fill:#e6e6e6;stroke:#000000;stroke-width:0.242"/><path d="M 281.807 291.171 L 289.686 291.535 L 291.455 295.894 L 289.094 307.603 L 286.692 312.375 L 280.995 312.379 L 282.589 325.56 L 277.376 322.633 L 271.374 317.138 L 262.588 319.751 L 255.648 318.763 L 260.532 315.302 L 268.833 296.563 L 281.807 291.167" style="fill:#e6e6e6;stroke:#000000;stroke-width:0.242"/><path d="M 491.252 28.558 L 520.909 41.178 L 508.698 45.744 L 519.087 56.365 L 502.956 63.082 L 495.297 64.613 L 499.315 52.859 L 487.145 46.121 L 472.424 51.867 L 467.777 64.159 L 458.735 71.49 L 448.558 67.495 L 436.176 68.316 L 425.639 59.517 L 419.956 63.926 L 414.075 64.608 L 412.687 75.481 L 394.815 72.846 L 392.306 81.969 L 383.201 81.915 L 376.943 93.421 L 367.461 111.051 L 352.74 132.91 L 356.193 138.136 L 352.893 144.156 L 343.488 143.9 L 337.333 157.993 L 337.916 177.566 L 343.972 184.929 L 340.839 201.773 L 332.946 211.453 L 328.767 219.511 L 322.41 210.927 L 303.684 227.04 L 291.047 230.268 L 277.933 223.233 L 274.543 208.202 L 271.549 175.079 L 280.276 165.62 L 305.309 153.126 L 324.03 137.516 L 341.386 115.981 L 364.166 85.219 L 380.045 72.913 L 406.102 51.997 L 426.905 44.572 L 442.506 45.474 L 456.94 31.247 L 474.228 32.015 L 491.252 28.558" style="fill:#e6e6e6;stroke:#000000;stroke-width:0.242"/><path d="M 366.595 321.767 L 362.707 313.726 L 363.448 309.362 L 361.1 302.547 L 357.656 297.986 L 360.3 294.552 L 358.087 287.979 L 364.561 284.163 L 379.358 278.125 L 391.3 273.685 L 400.764 275.903 L 401.477 279.099 L 410.618 279.265 L 422.295 280.747 L 439.732 280.554 L 444.594 281.95 L 446.87 285.959 L 447.278 291.688 L 449.909 296.59 L 449.855 301.703 L 444.172 304.307 L 447.094 310.202 L 447.278 315.832 L 452.046 326.786 L 451.027 330.279 L 446.322 331.729 L 437.716 342.009 L 440.158 347.522 L 438.089 346.809 L 429.078 342.09 L 422.254 343.828 L 417.778 342.566 L 412.176 345.197 L 407.394 340.842 L 403.498 342.512 L 402.963 341.771 L 398.6 335.693 L 391.551 334.948 L 390.653 331.06 L 384.148 329.668 L 382.734 332.878 L 377.585 330.31 L 378.173 326.88 L 371.089 325.794 L 366.595 321.767" style="fill:#e6e6e6;stroke:#000000;stroke-width:0.242"/><path d="M 138.559 431.74 L 141.998 428.848 L 145.868 427.183 L 148.243 432.759 L 153.845 432.75 L 155.466 431.313 L 160.993 431.713 L 163.641 437.401 L 159.264 440.462 L 159.138 449.239 L 157.599 450.882 L 157.217 456.162 L 153.123 457.078 L 156.921 463.745 L 154.303 471.008 L 157.572 474.281 L 156.27 477.267 L 152.759 481.379 L 153.549 484.998 L 149.738 487.826 L 144.741 486.29 L 139.847 487.494 L 141.297 478.941 L 140.404 472.185 L 136.162 471.17 L 133.894 466.986 L 134.649 459.722 L 138.429 455.682 L 139.102 451.161 L 141.082 444.413 L 140.871 439.636 L 138.976 435.569 L 138.559 431.744" style="fill:#e6e6e6;stroke:#000000;stroke-width:0.242"/><path d="M 439.534 361.449 L 443.629 358.858 L 449.496 360.196 L 455.575 360.241 L 459.975 363.195 L 463.211 361.341 L 470.21 360.178 L 472.594 357.35 L 476.594 357.35 L 479.486 358.531 L 482.422 362.118 L 485.43 367.2 L 490.898 374.32 L 491.203 379.55 L 490.202 384.614 L 491.899 390.001 L 496.128 392.17 L 500.586 390.275 L 504.887 392.295 L 505.107 395.321 L 500.51 397.844 L 497.627 396.744 L 494.974 410.787 L 489.403 409.571 L 482.502 405.355 L 471.342 408.053 L 466.637 411.007 L 452.715 410.397 L 445.429 408.592 L 441.756 409.441 L 439.027 404.668 L 437.294 402.639 L 439.489 400.673 L 437.15 399.218 L 434.174 401.835 L 428.647 398.441 L 427.902 393.611 L 422.124 390.85 L 421.065 387.097 L 415.924 382.45 L 423.525 380.21 L 429.258 372.124 L 433.743 363.981 L 439.534 361.449" style="fill:#e6e6e6;stroke:#000000;stroke-width:0.242"/><path d="M 439.732 280.554 L 422.295 280.751 L 410.618 279.265 L 412.782 273.492 L 425.864 269.218 L 435.79 271.53 L 439.983 273.618 L 438.973 277.214 L 439.732 280.554" style="fill:#e6e6e6;stroke:#000000;stroke-width:0.242"/><path d="M 422.124 390.845 L 427.902 393.611 L 428.647 398.441 L 434.174 401.835 L 437.15 399.218 L 439.489 400.673 L 437.294 402.639 L 439.027 404.668 L 436.688 407.304 L 437.541 411.537 L 442.147 416.516 L 438.533 420.112 L 436.939 423.757 L 437.967 425.118 L 436.405 426.729 L 432.014 426.922 L 428.787 427.587 L 428.468 426.729 L 429.604 425.374 L 430.663 422.586 L 429.321 422.648 L 427.476 420.525 L 425.918 419.982 L 424.679 418.155 L 422.905 417.441 L 421.559 415.816 L 419.857 416.453 L 418.546 420.269 L 416.279 421.095 L 417.056 420.112 L 413.442 417.728 L 410.331 416.484 L 408.943 414.891 L 406.429 412.911 L 408.66 412.399 L 410.043 406.953 L 405.468 402.477 L 407.843 397.342 L 404.409 397.377 L 408.059 392.964 L 405.046 389.615 L 402.743 385.041 L 410.007 381.925 L 415.924 382.45 L 421.065 387.101 L 422.124 390.85" style="fill:#e6e6e6;stroke:#000000;stroke-width:0.242"/><path d="M 402.963 341.771 L 403.498 342.512 L 407.394 340.842 L 412.176 345.197 L 417.778 342.566 L 422.254 343.828 L 429.078 342.09 L 438.089 346.809 L 435.462 349.992 L 433.608 354.903 L 431.588 356.147 L 421.433 352.447 L 418.326 353.193 L 416.104 356.052 L 411.65 357.57 L 410.627 356.793 L 406.007 358.674 L 402.241 359.033 L 401.477 361.462 L 393.518 362.944 L 390.025 361.624 L 385.203 358.531 L 384.256 354.324 L 385.019 352.78 L 386.362 350.095 L 390.559 350.301 L 393.8 349.04 L 394.056 347.9 L 395.87 347.32 L 396.49 344.532 L 398.667 343.998 L 400.135 341.785 L 402.963 341.771" style="fill:#e6e6e6;stroke:#000000;stroke-width:0.242"/><path d="M 355.115 377.911 L 362.949 378.836 L 367.73 376.134 L 376.022 375.837 L 377.832 373.821 L 379.425 373.952 L 381.266 377.979 L 373.719 381.135 L 372.799 385.92 L 369.504 387.128 L 369.54 390.423 L 365.818 390.199 L 362.595 388.273 L 360.857 390.262 L 354.249 389.862 L 356.359 388.789 L 354.087 383.761 L 355.115 377.911" style="fill:#e6e6e6;stroke:#000000;stroke-width:0.242"/><path d="M 434.538 118.418 L 425.343 129.238 L 426.82 138.621 L 411.74 150.787 L 393.432 163.622 L 386.528 184.238 L 393.275 194.379 L 402.344 202.281 L 393.634 218.151 L 383.776 221.406 L 380.157 244.445 L 374.774 257.065 L 363.272 255.772 L 357.908 266.34 L 346.926 266.951 L 343.914 254.349 L 335.977 239 L 328.767 219.511 L 332.946 211.453 L 340.839 201.773 L 343.972 184.929 L 337.916 177.566 L 337.333 157.993 L 343.488 143.9 L 352.893 144.156 L 356.193 138.136 L 352.74 132.91 L 367.461 111.051 L 376.943 93.421 L 383.201 81.915 L 392.306 81.969 L 394.815 72.846 L 412.687 75.481 L 414.075 64.608 L 419.956 63.926 L 432.594 72.034 L 447.395 83.181 L 447.647 107.864 L 450.843 113.992 L 434.538 118.418" style="fill:#e6e6e6;stroke:#000000;stroke-width:0.242"/><path d="M 482.027 445.199 L 474.116 451.242 L 471.135 446.016 L 471.261 443.695 L 473.515 442.429 L 476.451 435.353 L 471.831 432.35 L 481.488 428.768 L 489.654 430.298 L 490.781 434.667 L 499.055 438.325 L 497.331 441.091 L 486.072 441.715 L 482.027 445.199" style="fill:#e6e6e6;stroke:#000000;stroke-width:0.242"/><path d="M 525.578 309.21 L 529.121 309.726 L 531.514 306.835 L 534.396 307.472 L 544.228 306.247 L 550.284 313.43 L 547.918 315.984 L 548.703 319.89 L 556.264 320.501 L 559.635 325.928 L 559.429 328.384 L 571.469 332.757 L 578.742 330.79 L 584.596 336.595 L 590.136 336.461 L 604.112 340.479 L 604.22 344.093 L 600.372 350.499 L 602.464 357.211 L 600.974 361.247 L 591.802 362.131 L 586.913 365.498 L 586.612 370.832 L 579.043 371.788 L 572.735 375.653 L 563.86 376.282 L 555.694 380.717 L 556.246 388.08 L 560.888 390.922 L 570.558 390.217 L 568.704 394.41 L 558.324 396.439 L 545.458 403.196 L 540.183 400.825 L 542.275 395.33 L 531.913 391.896 L 533.588 389.638 L 542.665 385.714 L 539.918 383.002 L 525.183 380.003 L 524.528 375.563 L 515.742 377.031 L 512.227 383.577 L 504.887 392.295 L 500.586 390.275 L 496.128 392.17 L 491.899 390.001 L 494.283 388.722 L 495.939 384.668 L 498.534 380.892 L 497.865 378.76 L 499.85 377.813 L 500.783 379.46 L 506.368 379.806 L 508.882 378.93 L 507.113 377.723 L 507.782 375.945 L 504.469 372.91 L 503.1 367.9 L 499.648 365.934 L 500.33 361.848 L 496.047 358.593 L 492.146 358.14 L 485.156 354.36 L 478.853 355.559 L 476.594 357.35 L 472.594 357.35 L 470.21 360.178 L 463.211 361.341 L 459.975 363.195 L 455.57 360.241 L 449.496 360.196 L 443.629 358.858 L 439.534 361.449 L 438.874 358.203 L 433.608 354.903 L 435.462 349.992 L 438.089 346.809 L 440.158 347.522 L 437.716 342.009 L 446.322 331.729 L 451.027 330.279 L 452.046 326.786 L 447.274 315.832 L 451.808 315.342 L 457.003 311.912 L 464.347 311.634 L 473.928 312.626 L 484.509 315.657 L 491.975 315.912 L 495.54 317.731 L 499.095 315.535 L 501.583 318.48 L 510.139 317.879 L 513.91 319.091 L 514.521 312.747 L 517.439 309.964 L 525.578 309.21" style="fill:#e6e6e6;stroke:#000000;stroke-width:0.242"/></g></svg>