<svg xmlns="http://www.w3.org/2000/svg" viewBox="0 0 640 480"><rect width="640" height="480" fill="#fff"/><rect width="355.526" height="53.333" x="284.444" fill="#000"/><rect width="355.526" height="53.333" x="284.444" y="106.667" fill="#000"/><rect width="640" height="53.333" y="213.333" fill="#000"/><rect width="640" height="53.333" y="320" fill="#000"/><rect width="640" height="53.333" y="426.666" fill="#000"/><g fill="#000" transform="matrix(0.474074, 0, 0, 0.533333, -106.666656, -65.333282)"><use href="#fre-a" transform="rotate(-90 300,167.5)"/><path d="M 300,167.5 l -9,-13.5 l 9,-22.5 l 9,22.5 z"/><use href="#fre-a" transform="rotate(90 300,167.5)"/><path d="M 300,167.5 l 40.5,99 l -31.5,-13.5 l -9,18 l -9,-18 l -31.5,13.5 z"/></g><g fill="#000" transform="matrix(0.474074, 0, 0, 0.533333, -35.555553, -65.333282)"><use href="#fre-a" transform="rotate(-90 300,167.5)"/><path d="M 300,167.5 l -9,-13.5 l 9,-22.5 l 9,22.5 z"/><use href="#fre-a" transform="rotate(90 300,167.5)"/><path d="M 300,167.5 l 40.5,99 l -31.5,-13.5 l -9,18 l -9,-18 l -31.5,13.5 z"/></g><g fill="#000" transform="matrix(0.474074, 0, 0, 0.533333, 35.555553, -65.333282)"><use href="#fre-a" transform="rotate(-90 300,167.5)"/><path d="M 300,167.5 l -9,-13.5 l 9,-22.5 l 9,22.5 z"/><use href="#fre-a" transform="rotate(90 300,167.5)"/><path d="M 300,167.5 l 40.5,99 l -31.5,-13.5 l -9,18 l -9,-18 l -31.5,13.5 z"/></g><g fill="#000" transform="matrix(0.474074, 0, 0, 0.533333, 106.666656, -65.333282)"><use href="#fre-a" transform="rotate(-90 300,167.5)"/><path d="M 300,167.5 l -9,-13.5 l 9,-22.5 l 9,22.5 z"/><use href="#fre-a" transform="rotate(90 300,167.5)"/><path d="M 300,167.5 l 40.5,99 l -31.5,-13.5 l -9,18 l -9,-18 l -31.5,13.5 z"/></g><g fill="#000" transform="matrix(0.474074, 0, 0, 0.533333, -71.111107, 0)"><use href="#fre-a" transform="rotate(-90 300,167.5)"/><path d="M 300,167.5 l -9,-13.5 l 9,-22.5 l 9,22.5 z"/><use href="#fre-a" transform="rotate(90 300,167.5)"/><path d="M 300,167.5 l 40.5,99 l -31.5,-13.5 l -9,18 l -9,-18 l -31.5,13.5 z"/></g><g fill="#000" transform="matrix(0.474074, 0, 0, 0.533333, 0, 0)"><path d="M 300,167.5 l -9,-13.5 l 9,-22.5 l 9,22.5 z" transform="matrix(0, -1, 1, 0, 132.5, 467.5)"/><path id="fre-a" d="M 300,167.5 l -9,-13.5 l 9,-22.5 l 9,22.5 z"/><path d="M 300,167.5 l -9,-13.5 l 9,-22.5 l 9,22.5 z" transform="matrix(0, 1, -1, 0, 467.5, -132.5)"/><path d="M 300,167.5 l 40.5,99 l -31.5,-13.5 l -9,18 l -9,-18 l -31.5,13.5 z"/></g><g fill="#000" transform="matrix(0.474074, 0, 0, 0.533333, 71.111107, 0)"><path d="M 300,167.5 l -9,-13.5 l 9,-22.5 l 9,22.5 z" transform="matrix(0, -1, 1, 0, 132.5, 467.5)"/><path d="M 300,167.5 l -9,-13.5 l 9,-22.5 l 9,22.5 z"/><path d="M 300,167.5 l -9,-13.5 l 9,-22.5 l 9,22.5 z" transform="matrix(0, 1, -1, 0, 467.5, -132.5)"/><path d="M 300,167.5 l 40.5,99 l -31.5,-13.5 l -9,18 l -9,-18 l -31.5,13.5 z"/></g><g fill="#000" transform="matrix(0.474074, 0, 0, 0.533333, -106.666656, 65.333282)"><path d="M 300,167.5 l -9,-13.5 l 9,-22.5 l 9,22.5 z" transform="matrix(0, -1, 1, 0, 132.5, 467.5)"/><path d="M 300,167.5 l -9,-13.5 l 9,-22.5 l 9,22.5 z"/><path d="M 300,167.5 l -9,-13.5 l 9,-22.5 l 9,22.5 z" transform="matrix(0, 1, -1, 0, 467.5, -132.5)"/><path d="M 300,167.5 l 40.5,99 l -31.5,-13.5 l -9,18 l -9,-18 l -31.5,13.5 z"/></g><g fill="#000" transform="matrix(0.474074, 0, 0, 0.533333, -35.555553, 65.333282)"><path d="M 300,167.5 l -9,-13.5 l 9,-22.5 l 9,22.5 z" transform="matrix(0, -1, 1, 0, 132.5, 467.5)"/><path d="M 300,167.5 l -9,-13.5 l 9,-22.5 l 9,22.5 z"/><path d="M 300,167.5 l -9,-13.5 l 9,-22.5 l 9,22.5 z" transform="matrix(0, 1, -1, 0, 467.5, -132.5)"/><path d="M 300,167.5 l 40.5,99 l -31.5,-13.5 l -9,18 l -9,-18 l -31.5,13.5 z"/></g><g fill="#000" transform="matrix(0.474074, 0, 0, 0.533333, 35.555553, 65.333282)"><path d="M 300,167.5 l -9,-13.5 l 9,-22.5 l 9,22.5 z" transform="matrix(0, -1, 1, 0, 132.5, 467.5)"/><path d="M 300,167.5 l -9,-13.5 l 9,-22.5 l 9,22.5 z"/><path d="M 300,167.5 l -9,-13.5 l 9,-22.5 l 9,22.5 z" transform="matrix(0, 1, -1, 0, 467.5, -132.5)"/><path d="M 300,167.5 l 40.5,99 l -31.5,-13.5 l -9,18 l -9,-18 l -31.5,13.5 z"/></g><g fill="#000" transform="matrix(0.474074, 0, 0, 0.533333, 106.666656, 65.333282)"><path d="M 300,167.5 l -9,-13.5 l 9,-22.5 l 9,22.5 z" transform="matrix(0, -1, 1, 0, 132.5, 467.5)"/><path d="M 300,167.5 l -9,-13.5 l 9,-22.5 l 9,22.5 z"/><path d="M 300,167.5 l -9,-13.5 l 9,-22.5 l 9,22.5 z" transform="matrix(0, 1, -1, 0, 467.5, -132.5)"/><path d="M 300,167.5 l 40.5,99 l -31.5,-13.5 l -9,18 l -9,-18 l -31.5,13.5 z"/></g></svg>