<svg xmlns="http://www.w3.org/2000/svg" viewBox="0 0 640 480"><rect width="639.943" height="479.91" x="0.025" y="0.001" fill="#002395"/><path d="M 0.025 0.001 L 135.124 0.001 L 639.967 377.708 L 639.967 479.911 L 497.757 479.911 L 0.025 102.204 L 0.025 0.001 Z" style="fill: rgb(255, 210, 3);"/><path d="M 0.025 0.001 L 60.464 0.001 L 639.967 433.253 L 639.967 479.911 L 577.751 479.911 L 0.025 46.659 L 0.025 0.001 Z" style="fill: rgb(0, 35, 149);"/><path d="M 0.025 0.001 L 51.576 0.001 L 639.967 439.918 L 639.967 479.911 L 586.638 479.911 L 0.025 39.994 L 0.025 0.001 Z" style="fill: rgb(255, 255, 255);"/><path d="M 124.635 0.001 L 113.437 0.001 L 137.668 17.72 L 134.925 23.435 L 116.634 9.718 L 114.347 8.003 L 112.975 10.862 L 107.488 22.292 L 106.116 25.15 L 108.402 26.865 L 158.704 64.588 L 160.99 66.301 L 162.362 63.444 L 167.85 52.013 L 169.221 49.155 L 166.936 47.441 L 148.643 33.723 L 151.387 28.007 L 197.116 62.3 L 194.373 68.016 L 176.081 54.299 L 173.795 52.585 L 172.422 55.442 L 166.936 66.874 L 165.563 69.731 L 167.85 71.446 L 218.151 109.168 L 220.438 110.883 L 221.81 108.025 L 227.297 96.595 L 228.669 93.736 L 226.382 92.021 L 208.091 78.305 L 210.835 72.589 L 256.564 106.882 L 253.819 112.598 L 235.528 98.881 L 233.242 97.166 L 231.87 100.023 L 226.382 111.454 L 225.011 114.313 L 227.297 116.028 L 277.599 153.75 L 279.885 155.464 L 281.258 152.607 L 286.744 141.175 L 288.117 138.318 L 285.83 136.603 L 267.538 122.886 L 270.282 117.17 L 316.012 151.463 L 313.267 157.179 L 294.976 143.461 L 292.689 141.746 L 291.318 144.605 L 285.83 156.036 L 284.458 158.894 L 286.744 160.608 L 337.046 198.331 L 339.333 200.046 L 340.704 197.187 L 346.192 185.757 L 347.564 182.899 L 345.278 181.184 L 326.986 167.466 L 329.73 161.752 L 375.458 196.045 L 372.715 201.761 L 354.423 188.043 L 352.137 186.328 L 350.766 189.186 L 345.278 200.617 L 343.905 203.475 L 346.192 205.189 L 396.494 242.912 L 398.781 244.626 L 400.152 241.769 L 405.64 230.338 L 407.011 227.481 L 404.725 225.766 L 386.434 212.048 L 389.177 206.333 L 434.906 240.626 L 432.163 246.341 L 413.871 232.624 L 411.584 230.909 L 410.212 233.768 L 404.725 245.199 L 403.353 248.056 L 405.64 249.771 L 455.942 287.494 L 458.228 289.208 L 459.6 286.35 L 465.088 274.92 L 466.459 272.061 L 464.172 270.347 L 445.881 256.629 L 448.625 250.913 L 494.354 285.208 L 491.61 290.923 L 473.319 277.206 L 471.032 275.491 L 469.66 278.348 L 464.172 289.78 L 462.801 292.638 L 465.088 294.352 L 515.389 332.074 L 517.675 333.789 L 519.047 330.932 L 524.534 319.501 L 525.907 316.643 L 523.62 314.928 L 505.328 301.211 L 508.073 295.495 L 553.801 329.788 L 551.057 335.504 L 532.766 321.787 L 530.48 320.072 L 529.108 322.93 L 523.62 334.362 L 522.249 337.219 L 524.534 338.934 L 574.836 376.656 L 577.123 378.371 L 578.495 375.513 L 583.982 364.082 L 585.354 361.224 L 583.068 359.509 L 564.776 345.792 L 567.52 340.076 L 613.249 374.37 L 610.505 380.086 L 592.213 366.368 L 589.927 364.654 L 588.555 367.511 L 583.068 378.942 L 581.695 381.8 L 583.982 383.514 L 634.284 421.237 L 636.571 422.952 L 637.942 420.095 L 640 415.808 L 639.969 402.37 L 624.224 390.374 L 626.967 384.658 L 639.967 394.816 L 640 386.658 L 627.425 377.227 L 625.138 375.513 L 623.766 378.371 L 618.279 389.801 L 616.907 392.66 L 619.194 394.375 L 637.485 408.092 L 634.742 413.808 L 589.012 379.513 L 591.757 373.798 L 610.048 387.515 L 612.334 389.23 L 613.706 386.373 L 619.194 374.941 L 620.565 372.084 L 618.279 370.369 L 567.977 332.647 L 565.691 330.932 L 564.318 333.789 L 558.832 345.221 L 557.459 348.078 L 559.746 349.793 L 578.037 363.51 L 575.294 369.226 L 529.564 334.933 L 532.309 329.217 L 550.6 342.935 L 552.887 344.649 L 554.258 341.791 L 559.746 330.361 L 561.118 327.502 L 558.832 325.787 L 508.53 288.065 L 506.243 286.35 L 504.872 289.208 L 499.384 300.64 L 498.012 303.497 L 500.298 305.212 L 518.59 318.929 L 515.846 324.645 L 470.118 290.351 L 472.861 284.635 L 491.153 298.353 L 493.439 300.067 L 494.81 297.21 L 500.298 285.779 L 501.67 282.922 L 499.384 281.207 L 449.082 243.484 L 446.795 241.769 L 445.424 244.626 L 439.936 256.058 L 438.565 258.916 L 440.851 260.63 L 459.142 274.347 L 456.399 280.063 L 410.67 245.77 L 413.413 240.054 L 431.705 253.772 L 433.992 255.487 L 435.364 252.628 L 440.851 241.198 L 442.223 238.34 L 439.936 236.625 L 389.634 198.902 L 387.348 197.187 L 385.976 200.046 L 380.488 211.477 L 379.117 214.334 L 381.404 216.049 L 399.695 229.767 L 396.951 235.482 L 351.222 201.188 L 353.966 195.474 L 372.257 209.19 L 374.544 210.905 L 375.916 208.048 L 381.404 196.616 L 382.775 193.759 L 380.488 192.044 L 330.187 154.321 L 327.901 152.607 L 326.528 155.464 L 321.042 166.895 L 319.669 169.754 L 321.956 171.467 L 340.248 185.185 L 337.503 190.9 L 291.775 156.607 L 294.519 150.892 L 312.81 164.609 L 315.096 166.324 L 316.468 163.466 L 321.956 152.035 L 323.327 149.177 L 321.042 147.462 L 270.74 109.74 L 268.453 108.025 L 267.081 110.883 L 261.594 122.315 L 260.222 125.172 L 262.508 126.887 L 280.8 140.604 L 278.056 146.32 L 232.327 112.026 L 235.071 106.311 L 253.363 120.028 L 255.649 121.742 L 257.021 118.885 L 262.508 107.453 L 263.881 104.596 L 261.594 102.881 L 211.292 65.159 L 209.005 63.444 L 207.634 66.301 L 202.146 77.733 L 200.774 80.591 L 203.061 82.306 L 221.352 96.022 L 218.609 101.738 L 172.88 67.445 L 175.624 61.729 L 193.915 75.447 L 196.202 77.161 L 197.573 74.303 L 203.061 62.873 L 204.433 60.014 L 202.146 58.299 L 151.844 20.577 L 149.559 18.863 L 148.186 21.72 L 142.698 33.152 L 141.327 36.009 L 143.613 37.724 L 161.904 51.441 L 159.161 57.157 L 113.432 22.864 L 116.176 17.148 L 134.467 30.866 L 136.754 32.579 L 138.126 29.722 L 143.613 18.291 L 144.985 15.434 L 142.698 13.719 L 124.635 0.001 Z" style="fill: rgb(0, 35, 149);"/><path d="M 83.04 0.001 L 72.196 0 L 101.498 21.796 L 109.726 4.656 L 103.483 0 L 93.267 0.077 L 102.413 6.935 L 99.669 12.651 L 83.04 0.001 Z" style="fill: rgb(0, 35, 149); stroke-width: 1;"/><path d="M 0 85.523 L 0.058 93.287 L 19.688 108.025 L 21.06 105.167 L 26.547 93.736 L 27.92 90.879 L 25.633 89.164 L 7.342 75.447 L 10.085 69.731 L 55.814 104.024 L 53.07 109.74 L 34.779 96.022 L 32.492 94.308 L 31.12 97.166 L 25.633 108.597 L 24.261 111.454 L 26.547 113.169 L 76.849 150.892 L 79.135 152.607 L 80.507 149.749 L 85.995 138.318 L 87.366 135.46 L 85.081 133.745 L 66.789 120.028 L 69.533 114.313 L 115.261 148.606 L 112.518 154.321 L 94.226 140.604 L 91.94 138.889 L 90.568 141.746 L 85.081 153.178 L 83.708 156.036 L 85.995 157.751 L 136.296 195.474 L 138.583 197.187 L 139.955 194.33 L 145.443 182.899 L 146.814 180.041 L 144.527 178.327 L 126.236 164.609 L 128.98 158.894 L 174.709 193.186 L 171.966 198.902 L 153.673 185.185 L 151.387 183.47 L 150.015 186.328 L 144.527 197.76 L 143.156 200.617 L 145.443 202.332 L 195.744 240.054 L 198.031 241.769 L 199.403 238.911 L 204.89 227.481 L 206.262 224.622 L 203.975 222.907 L 185.684 209.19 L 188.427 203.475 L 234.157 237.768 L 231.412 243.484 L 213.121 229.767 L 210.835 228.052 L 209.463 230.909 L 203.975 242.34 L 202.604 245.199 L 204.89 246.913 L 255.192 284.635 L 257.478 286.35 L 258.849 283.493 L 264.337 272.061 L 265.71 269.204 L 263.423 267.489 L 245.131 253.772 L 247.875 248.056 L 293.603 282.349 L 290.86 288.065 L 272.569 274.347 L 270.282 272.633 L 268.911 275.491 L 263.423 286.922 L 262.051 289.78 L 264.337 291.494 L 314.639 329.217 L 316.926 330.932 L 318.297 328.073 L 323.785 316.643 L 325.157 313.785 L 322.871 312.07 L 304.579 298.353 L 307.323 292.638 L 353.051 326.931 L 350.308 332.647 L 332.016 318.929 L 329.73 317.214 L 328.357 320.072 L 322.871 331.503 L 321.498 334.362 L 323.785 336.075 L 374.087 373.798 L 376.373 375.513 L 377.745 372.655 L 383.233 361.224 L 384.604 358.367 L 382.318 356.652 L 364.027 342.935 L 366.77 337.219 L 412.499 371.512 L 409.755 377.227 L 391.464 363.51 L 389.177 361.795 L 387.805 364.654 L 382.318 376.085 L 380.946 378.942 L 383.233 380.657 L 433.534 418.38 L 435.82 420.095 L 437.193 417.236 L 442.68 405.806 L 444.052 402.947 L 441.765 401.233 L 423.474 387.515 L 426.218 381.8 L 471.947 416.094 L 469.203 421.809 L 450.911 408.092 L 448.625 406.377 L 447.253 409.234 L 441.765 420.666 L 440.394 423.523 L 442.68 425.238 L 492.981 462.96 L 495.268 464.675 L 496.64 461.818 L 502.127 450.387 L 503.499 447.529 L 501.213 445.815 L 482.921 432.097 L 485.665 426.381 L 531.394 460.674 L 528.65 466.39 L 510.358 452.673 L 508.073 450.958 L 506.701 453.816 L 501.213 465.248 L 499.842 468.105 L 502.127 469.82 L 515.49 479.84 L 526.2 479.912 L 507.157 465.819 L 509.902 460.103 L 528.193 473.821 L 530.48 475.535 L 531.851 472.677 L 537.339 461.246 L 538.711 458.388 L 536.424 456.674 L 486.122 418.951 L 483.836 417.236 L 482.465 420.095 L 476.977 431.526 L 475.604 434.383 L 477.891 436.098 L 496.183 449.815 L 493.439 455.531 L 447.711 421.237 L 450.454 415.521 L 468.745 429.239 L 471.032 430.954 L 472.403 428.096 L 477.891 416.665 L 479.263 413.808 L 476.977 412.093 L 426.675 374.37 L 424.388 372.655 L 423.017 375.513 L 417.529 386.944 L 416.158 389.801 L 418.443 391.516 L 436.735 405.234 L 433.991 410.949 L 388.263 376.656 L 391.006 370.941 L 409.298 384.658 L 411.584 386.373 L 412.957 383.514 L 418.443 372.084 L 419.816 369.226 L 417.529 367.511 L 367.227 329.788 L 364.941 328.073 L 363.569 330.932 L 358.081 342.363 L 356.71 345.221 L 358.996 346.935 L 377.288 360.653 L 374.544 366.368 L 328.815 332.074 L 331.559 326.36 L 349.85 340.076 L 352.137 341.791 L 353.509 338.934 L 358.996 327.502 L 360.368 324.645 L 358.081 322.93 L 307.78 285.208 L 305.494 283.493 L 304.121 286.35 L 298.635 297.781 L 297.262 300.64 L 299.549 302.353 L 317.84 316.071 L 315.096 321.787 L 269.367 287.494 L 272.112 281.778 L 290.403 295.495 L 292.689 297.21 L 294.061 294.352 L 299.549 282.922 L 300.92 280.063 L 298.635 278.348 L 248.333 240.626 L 246.046 238.911 L 244.674 241.769 L 239.187 253.201 L 237.815 256.058 L 240.101 257.773 L 258.393 271.49 L 255.649 277.206 L 209.92 242.912 L 212.664 237.197 L 230.956 250.913 L 233.242 252.628 L 234.613 249.771 L 240.101 238.34 L 241.474 235.482 L 239.187 233.768 L 188.885 196.045 L 186.598 194.33 L 185.227 197.187 L 179.739 208.619 L 178.367 211.477 L 180.654 213.191 L 198.945 226.908 L 196.202 232.624 L 150.473 198.331 L 153.216 192.615 L 171.508 206.333 L 173.795 208.048 L 175.166 205.189 L 180.654 193.759 L 182.026 190.9 L 179.739 189.186 L 129.437 151.463 L 127.15 149.749 L 125.779 152.607 L 120.291 164.038 L 118.919 166.895 L 121.206 168.61 L 139.497 182.327 L 136.754 188.043 L 91.025 153.75 L 93.769 148.035 L 112.06 161.752 L 114.347 163.466 L 115.719 160.608 L 121.206 149.177 L 122.578 146.32 L 120.291 144.605 L 69.989 106.882 L 67.704 105.167 L 66.332 108.025 L 60.844 119.456 L 59.472 122.315 L 61.758 124.029 L 80.051 137.746 L 77.306 143.461 L 31.578 109.168 L 34.321 103.453 L 52.612 117.17 L 54.899 118.885 L 56.271 116.028 L 61.758 104.596 L 63.13 101.738 L 60.844 100.023 L 10.543 62.3 L 8.256 60.587 L 6.884 63.444 L 1.397 74.875 L 0.025 77.733 L 2.311 79.447 L 20.603 93.165 L 17.858 98.881 L 0 85.523 Z" style="fill: rgb(0, 35, 149);"/><path d="M 536.316 480 L 546.619 479.982 L 542.345 476.749 L 545.089 471.033 L 557.285 479.982 L 567.062 479.981 L 545.547 463.602 L 543.26 461.889 L 541.889 464.746 L 536.401 476.177 L 535.029 479.035 L 536.316 480 Z" style="fill: rgb(0, 35, 149); stroke-width: 1; transform-origin: 377.306px -23.137px;"/><path d="M 0.024 54.437 C 0.039 54.466 0.025 65.101 0.025 65.101 L 3.683 57.157 L 0.024 54.437 Z" style="fill: rgb(0, 35, 149);"/></svg>