<svg xmlns="http://www.w3.org/2000/svg" viewBox="0 0 640 480"><path fill="#ed2939" d="M 0 0 H 640 V 480 H 0 V 0 Z"/><g transform="matrix(1.845764, 0, 0, 1.845764, -15.405682, 38.422432)"><g fill="gold" stroke="#000" stroke-width="0.75" transform="matrix(1, 0, 0, 1, 0, -0.625025)"><rect width="14.0299" height="27.284" x="35.0056" y="32.6322"/><rect width="14.0299" height="35.7965" x="57.8343" y="24.2732"/><rect width="14.0299" height="27.3549" x="80.9781" y="32.7149"/><path d="m30.5239,62.8751h67.8915l2.34026,25.9995 -72.4865,0.879236 2.25469,-26.8162z"/><rect width="79.3361" height="8.79214" x="25.0484" y="89.0849"/><path d="m28.3318,53.7454,6.76406,0,0.000108,3.95644,6.30917,0,0-3.95641,6.76406,0-0.000236,3.95644,6.30952,0,0-3.95644,6.76406,0,0.000416,3.95644,6.30886,0,0-3.95644,6.76406,0,0.00008,3.95644,6.662,0,0.000082-3.95644,6.4112,0,0,3.95641,6.29972,0.000038-0.000161-3.95648,6.76407,0,0,8.35256-72.1211,0z" transform="translate(0,0.625025)"/><path d="m31.355,25.458,4.27967,0,0.000352,3.14631,4.02864,0,0.000365-3.14632,4.242,0.000013,0,3.13766,4.55642,0-0.000421-3.13764,4.3147,0,0,6.64199-21.4217,0.00026z" transform="translate(0,0.625025)"/><path d="m31.355,25.458,4.27967,0,0.000352,3.14631,4.02864,0,0.000365-3.14632,4.242,0.000013,0,3.13766,4.55642,0-0.000421-3.13764,4.3147,0,0,6.64199-21.4217,0.00026z" transform="matrix(1, 0, 0, 1, 22.828779220581055, -7.663170576095581)"/><path d="m31.355,25.458,4.27967,0,0.000352,3.14631,4.02864,0,0.000365-3.14632,4.242,0.000013,0,3.13766,4.55642,0-0.000421-3.13764,4.3147,0,0,6.64199-21.4217,0.00026z" transform="matrix(1, 0, 0, 1, 45.972469329833984, 0.778429239988327)"/><g fill="#ed2939"><rect width="4.14521" height="5.59529" x="85.761" y="38.9318"/><rect width="4.14521" height="5.59529" x="39.7885" y="38.7783"/><rect width="4.14521" height="5.59529" x="62.6173" y="30.4901"/><rect width="6.46986" height="8.03588" x="84.0757" y="67.6219"/><rect width="6.46986" height="8.03588" x="39.0129" y="67.7962"/><path d="m61.3431,88.418v-13.7719c0,-3.8352 8.04692,-3.4866 8.22584,-0.348682c0.178711,3.13792 0.178711,13.2489 0.178711,14.1205c-0.894171,0.174321 -7.33146,0.00006 -8.40455,0z"/></g></g><g fill="gold" stroke="#000" stroke-width="0.75" transform="matrix(1, 0, 0, 1, 234, -0.625025)"><rect width="14.0299" height="27.284" x="35.0056" y="32.6322"/><rect width="14.0299" height="35.7965" x="57.8343" y="24.2732"/><rect width="14.0299" height="27.3549" x="80.9781" y="32.7149"/><path d="m30.5239,62.8751h67.8915l2.34026,25.9995 -72.4865,0.879236 2.25469,-26.8162z"/><rect width="79.3361" height="8.79214" x="25.0484" y="89.0849"/><path d="m28.3318,53.7454,6.76406,0,0.000108,3.95644,6.30917,0,0-3.95641,6.76406,0-0.000236,3.95644,6.30952,0,0-3.95644,6.76406,0,0.000416,3.95644,6.30886,0,0-3.95644,6.76406,0,0.00008,3.95644,6.662,0,0.000082-3.95644,6.4112,0,0,3.95641,6.29972,0.000038-0.000161-3.95648,6.76407,0,0,8.35256-72.1211,0z" transform="translate(0,0.625025)"/><path d="m31.355,25.458,4.27967,0,0.000352,3.14631,4.02864,0,0.000365-3.14632,4.242,0.000013,0,3.13766,4.55642,0-0.000421-3.13764,4.3147,0,0,6.64199-21.4217,0.00026z" transform="translate(0,0.625025)"/><path d="m31.355,25.458,4.27967,0,0.000352,3.14631,4.02864,0,0.000365-3.14632,4.242,0.000013,0,3.13766,4.55642,0-0.000421-3.13764,4.3147,0,0,6.64199-21.4217,0.00026z" transform="matrix(1, 0, 0, 1, 22.828779220581055, -7.663170576095581)"/><path d="m31.355,25.458,4.27967,0,0.000352,3.14631,4.02864,0,0.000365-3.14632,4.242,0.000013,0,3.13766,4.55642,0-0.000421-3.13764,4.3147,0,0,6.64199-21.4217,0.00026z" transform="matrix(1, 0, 0, 1, 45.972469329833984, 0.778429239988327)"/><g fill="#ed2939"><rect width="4.14521" height="5.59529" x="85.761" y="38.9318"/><rect width="4.14521" height="5.59529" x="39.7885" y="38.7783"/><rect width="4.14521" height="5.59529" x="62.6173" y="30.4901"/><rect width="6.46986" height="8.03588" x="84.0757" y="67.6219"/><rect width="6.46986" height="8.03588" x="39.0129" y="67.7962"/><path d="m61.3431,88.418v-13.7719c0,-3.8352 8.04692,-3.4866 8.22584,-0.348682c0.178711,3.13792 0.178711,13.2489 0.178711,14.1205c-0.894171,0.174321 -7.33146,0.00006 -8.40455,0z"/></g></g><g fill="gold" stroke="#000" stroke-width="0.75" transform="matrix(1, 0, 0, 1, 117, 51.374973)"><rect width="14.0299" height="27.284" x="35.0056" y="32.6322"/><rect width="14.0299" height="35.7965" x="57.8343" y="24.2732"/><rect width="14.0299" height="27.3549" x="80.9781" y="32.7149"/><path d="m30.5239,62.8751h67.8915l2.34026,25.9995 -72.4865,0.879236 2.25469,-26.8162z"/><rect width="79.3361" height="8.79214" x="25.0484" y="89.0849"/><path d="m28.3318,53.7454,6.76406,0,0.000108,3.95644,6.30917,0,0-3.95641,6.76406,0-0.000236,3.95644,6.30952,0,0-3.95644,6.76406,0,0.000416,3.95644,6.30886,0,0-3.95644,6.76406,0,0.00008,3.95644,6.662,0,0.000082-3.95644,6.4112,0,0,3.95641,6.29972,0.000038-0.000161-3.95648,6.76407,0,0,8.35256-72.1211,0z" transform="translate(0,0.625025)"/><path d="m31.355,25.458,4.27967,0,0.000352,3.14631,4.02864,0,0.000365-3.14632,4.242,0.000013,0,3.13766,4.55642,0-0.000421-3.13764,4.3147,0,0,6.64199-21.4217,0.00026z" transform="translate(0,0.625025)"/><path d="m31.355,25.458,4.27967,0,0.000352,3.14631,4.02864,0,0.000365-3.14632,4.242,0.000013,0,3.13766,4.55642,0-0.000421-3.13764,4.3147,0,0,6.64199-21.4217,0.00026z" transform="matrix(1, 0, 0, 1, 22.828779220581055, -7.663170576095581)"/><path d="m31.355,25.458,4.27967,0,0.000352,3.14631,4.02864,0,0.000365-3.14632,4.242,0.000013,0,3.13766,4.55642,0-0.000421-3.13764,4.3147,0,0,6.64199-21.4217,0.00026z" transform="matrix(1, 0, 0, 1, 45.972469329833984, 0.778429239988327)"/><g fill="#ed2939"><rect width="4.14521" height="5.59529" x="85.761" y="38.9318"/><rect width="4.14521" height="5.59529" x="39.7885" y="38.7783"/><rect width="4.14521" height="5.59529" x="62.6173" y="30.4901"/><rect width="6.46986" height="8.03588" x="84.0757" y="67.6219"/><rect width="6.46986" height="8.03588" x="39.0129" y="67.7962"/><path d="m61.3431,88.418v-13.7719c0,-3.8352 8.04692,-3.4866 8.22584,-0.348682c0.178711,3.13792 0.178711,13.2489 0.178711,14.1205c-0.894171,0.174321 -7.33146,0.00006 -8.40455,0z"/></g></g><g fill="gold" stroke="#000" stroke-width="0.75" transform="matrix(1, 0, 0, 1, 234, 103.374977)"><rect width="14.0299" height="27.284" x="35.0056" y="32.6322"/><rect width="14.0299" height="35.7965" x="57.8343" y="24.2732"/><rect width="14.0299" height="27.3549" x="80.9781" y="32.7149"/><path d="m30.5239,62.8751h67.8915l2.34026,25.9995 -72.4865,0.879236 2.25469,-26.8162z"/><rect width="79.3361" height="8.79214" x="25.0484" y="89.0849"/><path d="m28.3318,53.7454,6.76406,0,0.000108,3.95644,6.30917,0,0-3.95641,6.76406,0-0.000236,3.95644,6.30952,0,0-3.95644,6.76406,0,0.000416,3.95644,6.30886,0,0-3.95644,6.76406,0,0.00008,3.95644,6.662,0,0.000082-3.95644,6.4112,0,0,3.95641,6.29972,0.000038-0.000161-3.95648,6.76407,0,0,8.35256-72.1211,0z" transform="translate(0,0.625025)"/><path d="m31.355,25.458,4.27967,0,0.000352,3.14631,4.02864,0,0.000365-3.14632,4.242,0.000013,0,3.13766,4.55642,0-0.000421-3.13764,4.3147,0,0,6.64199-21.4217,0.00026z" transform="translate(0,0.625025)"/><path d="m31.355,25.458,4.27967,0,0.000352,3.14631,4.02864,0,0.000365-3.14632,4.242,0.000013,0,3.13766,4.55642,0-0.000421-3.13764,4.3147,0,0,6.64199-21.4217,0.00026z" transform="matrix(1, 0, 0, 1, 22.828779220581055, -7.663170576095581)"/><path d="m31.355,25.458,4.27967,0,0.000352,3.14631,4.02864,0,0.000365-3.14632,4.242,0.000013,0,3.13766,4.55642,0-0.000421-3.13764,4.3147,0,0,6.64199-21.4217,0.00026z" transform="matrix(1, 0, 0, 1, 45.972469329833984, 0.778429239988327)"/><g fill="#ed2939"><rect width="4.14521" height="5.59529" x="85.761" y="38.9318"/><rect width="4.14521" height="5.59529" x="39.7885" y="38.7783"/><rect width="4.14521" height="5.59529" x="62.6173" y="30.4901"/><rect width="6.46986" height="8.03588" x="84.0757" y="67.6219"/><rect width="6.46986" height="8.03588" x="39.0129" y="67.7962"/><path d="m61.3431,88.418v-13.7719c0,-3.8352 8.04692,-3.4866 8.22584,-0.348682c0.178711,3.13792 0.178711,13.2489 0.178711,14.1205c-0.894171,0.174321 -7.33146,0.00006 -8.40455,0z"/></g></g><g fill="gold" stroke="#000" stroke-width="0.75" transform="matrix(1, 0, 0, 1, 0, 103.374977)"><rect width="14.0299" height="27.284" x="35.0056" y="32.6322"/><rect width="14.0299" height="35.7965" x="57.8343" y="24.2732"/><rect width="14.0299" height="27.3549" x="80.9781" y="32.7149"/><path d="m30.5239,62.8751h67.8915l2.34026,25.9995 -72.4865,0.879236 2.25469,-26.8162z"/><rect width="79.3361" height="8.79214" x="25.0484" y="89.0849"/><path d="m28.3318,53.7454,6.76406,0,0.000108,3.95644,6.30917,0,0-3.95641,6.76406,0-0.000236,3.95644,6.30952,0,0-3.95644,6.76406,0,0.000416,3.95644,6.30886,0,0-3.95644,6.76406,0,0.00008,3.95644,6.662,0,0.000082-3.95644,6.4112,0,0,3.95641,6.29972,0.000038-0.000161-3.95648,6.76407,0,0,8.35256-72.1211,0z" transform="translate(0,0.625025)"/><path d="m31.355,25.458,4.27967,0,0.000352,3.14631,4.02864,0,0.000365-3.14632,4.242,0.000013,0,3.13766,4.55642,0-0.000421-3.13764,4.3147,0,0,6.64199-21.4217,0.00026z" transform="translate(0,0.625025)"/><path d="m31.355,25.458,4.27967,0,0.000352,3.14631,4.02864,0,0.000365-3.14632,4.242,0.000013,0,3.13766,4.55642,0-0.000421-3.13764,4.3147,0,0,6.64199-21.4217,0.00026z" transform="matrix(1, 0, 0, 1, 22.828779220581055, -7.663170576095581)"/><path d="m31.355,25.458,4.27967,0,0.000352,3.14631,4.02864,0,0.000365-3.14632,4.242,0.000013,0,3.13766,4.55642,0-0.000421-3.13764,4.3147,0,0,6.64199-21.4217,0.00026z" transform="matrix(1, 0, 0, 1, 45.972469329833984, 0.778429239988327)"/><g fill="#ed2939"><rect width="4.14521" height="5.59529" x="85.761" y="38.9318"/><rect width="4.14521" height="5.59529" x="39.7885" y="38.7783"/><rect width="4.14521" height="5.59529" x="62.6173" y="30.4901"/><rect width="6.46986" height="8.03588" x="84.0757" y="67.6219"/><rect width="6.46986" height="8.03588" x="39.0129" y="67.7962"/><path d="m61.3431,88.418v-13.7719c0,-3.8352 8.04692,-3.4866 8.22584,-0.348682c0.178711,3.13792 0.178711,13.2489 0.178711,14.1205c-0.894171,0.174321 -7.33146,0.00006 -8.40455,0z"/></g></g></g></svg>