<svg xmlns="http://www.w3.org/2000/svg" viewBox="0 0 640 480"><rect width="640" height="480" fill="#00a040"/><path fill="#fff" d="M 318.103 156.211 C 297.524 118.775 325.179 73.094 367.885 73.985 C 410.591 74.879 436.317 121.674 414.192 158.219 C 406.838 170.362 395.111 179.228 381.422 182.988 C 359.719 190.382 354.159 218.5 371.412 233.601 C 380.341 241.414 393.056 243.184 403.776 238.103 C 441.205 217.52 486.879 245.181 485.987 287.893 C 485.096 330.606 438.307 356.334 401.769 334.207 C 389.626 326.852 380.762 315.124 377.004 301.431 C 369.61 279.725 341.496 274.164 326.399 291.421 C 318.587 300.351 316.817 313.066 321.897 323.788 C 342.477 361.224 314.82 406.906 272.115 406.015 C 229.409 405.121 203.683 358.326 225.808 321.782 C 233.162 309.637 244.889 300.773 258.578 297.013 C 280.28 289.617 285.84 261.499 268.588 246.399 C 259.661 238.585 246.945 236.816 236.224 241.896 C 198.794 262.48 153.121 234.819 154.012 192.107 C 154.905 149.394 201.693 123.665 238.231 145.792 C 250.374 153.148 259.238 164.876 262.997 178.568 C 270.39 200.274 298.504 205.835 313.603 188.579 C 321.414 179.649 323.182 166.934 318.103 156.211 Z" style="transform-origin: 345.068px 240px;"/></svg>