<svg xmlns="http://www.w3.org/2000/svg" viewBox="0 0 640 480"><rect width="640" height="480" x="-0.25" rx="19.725" ry="19.725" style="fill:red;fill-opacity:1;fill-rule:evenodd;stroke:none;stroke-width:2;stroke-linecap:round;stroke-linejoin:miter;stroke-miterlimit:4;stroke-dasharray:none;stroke-opacity:1"/><rect width="213.333" height="480" x="-0.25" style="fill:#009c31;fill-opacity:1;fill-rule:evenodd;stroke:none;stroke-width:2;stroke-linecap:round;stroke-linejoin:miter;stroke-miterlimit:4;stroke-dasharray:none;stroke-opacity:1"/><rect width="213.333" height="480" x="426.417" style="fill:#009cce;fill-opacity:1;fill-rule:evenodd;stroke:none;stroke-width:2;stroke-linecap:round;stroke-linejoin:miter;stroke-miterlimit:4;stroke-dasharray:none;stroke-opacity:1"/><g transform="matrix(1.963125, 0, 0, 2.208515, 2.582805, 0.37114)"><rect width="2" height="48.350132" x="161.09517" y="114.83156" style="fill:#b5cece;fill-opacity:1;fill-rule:evenodd;stroke:none;stroke-width:2;stroke-linecap:round;stroke-linejoin:miter;stroke-miterlimit:4;stroke-dasharray:none;stroke-opacity:1"/><path d="M 106.34375,123.46875 C 106.26712,124.6603 106.1875,125.8517 106.1875,127.0625 C 106.1875,157.64397 131.01228,182.46875 161.59375,182.46875 C 191.36651,182.46875 215.67249,158.93186 216.9375,129.46875 L 202,128.65625 C 202.02044,129.12915 202.03125,129.61584 202.03125,130.09375 C 202.03126,148.04546 187.45171,162.59375 169.5,162.59375 C 151.54828,162.59376 137,148.04546 137,130.09375 C 137,128.42137 137.13116,126.76088 137.375,125.15625 L 106.34375,123.46875 z" style="fill:#bdbdbd;fill-opacity:1;fill-rule:evenodd;stroke:#6b6b6b;stroke-width:2;stroke-linecap:butt;stroke-linejoin:miter;stroke-miterlimit:4;stroke-dasharray:none;stroke-opacity:1"/><path d="M 107.49271,120.29973 L 216.5683,120.29973 L 216.5683,55.257294 C 216.5683,41.855341 197.21657,34.535809 162.6061,34.535809 C 122.95769,34.535809 107.49271,44.852566 107.49271,55.257294 L 107.49271,120.29973 z" style="fill:white;fill-opacity:1;fill-rule:evenodd;stroke:none;stroke-width:2;stroke-linecap:butt;stroke-linejoin:miter;stroke-miterlimit:4;stroke-dasharray:none;stroke-opacity:1"/><path d="M 107.5,77 L 107.5,82.875 L 216.5625,82.875 L 216.5625,77 L 107.5,77 z" style="fill:red;fill-opacity:1;fill-rule:evenodd;stroke:none;stroke-width:2;stroke-linecap:round;stroke-linejoin:miter;stroke-miterlimit:4;stroke-dasharray:none;stroke-opacity:1"/><path d="M 135.556,59.530281 C 135.37458,59.829484 128.89476,58.667973 128.59173,58.842926 C 128.29705,59.01306 126.25198,65.105664 125.9118,65.098362 C 125.56197,65.090853 123.32796,58.898405 123.02493,58.723453 C 122.73025,58.55332 116.43137,59.828544 116.2676,59.530281 C 116.09919,59.22357 120.345,54.192632 120.345,53.842727 C 120.345,53.50246 116.09118,48.68508 116.2676,48.394119 C 116.44901,48.094917 122.92884,49.256427 123.23186,49.081474 C 123.52654,48.911341 125.57161,42.818737 125.9118,42.826038 C 126.26162,42.833547 128.49564,49.025995 128.79866,49.200947 C 129.09334,49.37108 135.39223,48.095857 135.556,48.394119 C 135.72441,48.700831 131.4786,53.731768 131.4786,54.081673 C 131.4786,54.42194 135.73241,59.23932 135.556,59.530281 z" style="fill:#bdbdbd;fill-opacity:1;fill-rule:evenodd;stroke:none;stroke-width:2;stroke-linecap:round;stroke-linejoin:miter;stroke-miterlimit:4;stroke-dasharray:none;stroke-opacity:1" transform="translate(8.346154,4.748674)"/><path d="M 135.556,59.530281 C 135.37458,59.829484 128.89476,58.667973 128.59173,58.842926 C 128.29705,59.01306 126.25198,65.105664 125.9118,65.098362 C 125.56197,65.090853 123.32796,58.898405 123.02493,58.723453 C 122.73025,58.55332 116.43137,59.828544 116.2676,59.530281 C 116.09919,59.22357 120.345,54.192632 120.345,53.842727 C 120.345,53.50246 116.09118,48.68508 116.2676,48.394119 C 116.44901,48.094917 122.92884,49.256427 123.23186,49.081474 C 123.52654,48.911341 125.57161,42.818737 125.9118,42.826038 C 126.26162,42.833547 128.49564,49.025995 128.79866,49.200947 C 129.09334,49.37108 135.39223,48.095857 135.556,48.394119 C 135.72441,48.700831 131.4786,53.731768 131.4786,54.081673 C 131.4786,54.42194 135.73241,59.23932 135.556,59.530281 z" style="fill:#bdbdbd;fill-opacity:1;fill-rule:evenodd;stroke:none;stroke-width:2;stroke-linecap:round;stroke-linejoin:miter;stroke-miterlimit:4;stroke-dasharray:none;stroke-opacity:1" transform="translate(64.03515,4.748674)"/><path d="M 135.556,59.530281 C 135.37458,59.829484 128.89476,58.667973 128.59173,58.842926 C 128.29705,59.01306 126.25198,65.105664 125.9118,65.098362 C 125.56197,65.090853 123.32796,58.898405 123.02493,58.723453 C 122.73025,58.55332 116.43137,59.828544 116.2676,59.530281 C 116.09919,59.22357 120.345,54.192632 120.345,53.842727 C 120.345,53.50246 116.09118,48.68508 116.2676,48.394119 C 116.44901,48.094917 122.92884,49.256427 123.23186,49.081474 C 123.52654,48.911341 125.57161,42.818737 125.9118,42.826038 C 126.26162,42.833547 128.49564,49.025995 128.79866,49.200947 C 129.09334,49.37108 135.39223,48.095857 135.556,48.394119 C 135.72441,48.700831 131.4786,53.731768 131.4786,54.081673 C 131.4786,54.42194 135.73241,59.23932 135.556,59.530281 z" style="fill:#bdbdbd;fill-opacity:1;fill-rule:evenodd;stroke:none;stroke-width:2;stroke-linecap:round;stroke-linejoin:miter;stroke-miterlimit:4;stroke-dasharray:none;stroke-opacity:1" transform="translate(64.03515,47.77454)"/><path d="M 135.556,59.530281 C 135.37458,59.829484 128.89476,58.667973 128.59173,58.842926 C 128.29705,59.01306 126.25198,65.105664 125.9118,65.098362 C 125.56197,65.090853 123.32796,58.898405 123.02493,58.723453 C 122.73025,58.55332 116.43137,59.828544 116.2676,59.530281 C 116.09919,59.22357 120.345,54.192632 120.345,53.842727 C 120.345,53.50246 116.09118,48.68508 116.2676,48.394119 C 116.44901,48.094917 122.92884,49.256427 123.23186,49.081474 C 123.52654,48.911341 125.57161,42.818737 125.9118,42.826038 C 126.26162,42.833547 128.49564,49.025995 128.79866,49.200947 C 129.09334,49.37108 135.39223,48.095857 135.556,48.394119 C 135.72441,48.700831 131.4786,53.731768 131.4786,54.081673 C 131.4786,54.42194 135.73241,59.23932 135.556,59.530281 z" style="fill:#bdbdbd;fill-opacity:1;fill-rule:evenodd;stroke:none;stroke-width:2;stroke-linecap:round;stroke-linejoin:miter;stroke-miterlimit:4;stroke-dasharray:none;stroke-opacity:1" transform="translate(8.346154,47.77454)"/><path d="M 162.59375,34.53125 C 161.41882,34.53125 160.28893,34.544647 159.15625,34.5625 L 159.15625,120.3125 L 165.0625,120.3125 L 165.0625,34.5625 C 164.23483,34.553772 163.43971,34.53125 162.59375,34.53125 z" style="fill:red;fill-opacity:1;fill-rule:evenodd;stroke:none;stroke-width:2;stroke-linecap:butt;stroke-linejoin:miter;stroke-miterlimit:4;stroke-dasharray:none;stroke-opacity:1"/><path d="M 107.49271,120.29973 L 216.5683,120.29973 L 216.5683,55.257294 C 216.5683,41.855341 197.21657,34.535809 162.6061,34.535809 C 122.95769,34.535809 107.49271,44.852566 107.49271,55.257294 L 107.49271,120.29973 z" style="fill:none;fill-opacity:1;fill-rule:evenodd;stroke:#b5cece;stroke-width:2;stroke-linecap:butt;stroke-linejoin:miter;stroke-miterlimit:4;stroke-dasharray:none;stroke-opacity:1"/></g></svg>