<svg xmlns="http://www.w3.org/2000/svg" viewBox="0 0 640 480"><path fill="#ffac18" d="M0 0H640V240H0z"/><path fill="#bf0709" d="M0 240H640V480H0z"/><path d="M 310.317 439.43 C 309.885 438.482 309.521 437.309 309.067 435.401 C 308.83 434.401 308.547 433.419 308.44 433.217 C 308.332 433.016 308.077 432.215 307.872 431.436 C 307.668 430.658 307.408 429.908 307.296 429.77 C 307.108 429.542 306.727 428.319 306.519 427.285 C 306.402 426.701 306.05 423.923 305.83 421.853 C 305.727 420.876 305.492 419.551 305.311 418.907 C 304.972 417.71 304.781 416.705 304.448 414.385 C 304.343 413.649 303.944 412.393 303.546 411.542 C 303.153 410.705 302.724 409.654 302.592 409.206 C 302.458 408.76 302.267 408.21 302.167 407.988 C 301.162 405.744 300.799 402.676 301.426 401.72 C 301.795 401.157 303.428 400.533 304.533 400.533 C 304.948 400.533 305.558 400.742 306.007 401.04 C 307.025 401.713 307.944 403.983 308.246 406.565 C 308.362 407.571 308.639 409.08 308.861 409.917 C 309.519 412.41 310.442 415.786 310.999 417.738 C 311.286 418.743 311.655 420.225 311.819 421.03 C 311.983 421.835 312.401 423.299 312.748 424.28 C 313.893 427.52 313.984 427.882 313.972 429.156 C 313.96 430.501 314.186 431.549 315.309 435.372 C 316.086 438.019 316.121 438.221 315.927 438.98 C 315.734 439.738 315.123 439.925 312.717 439.964 L 310.577 439.998 L 310.317 439.43 Z M 213.918 398.932 C 213.024 398.845 211.836 398.645 211.278 398.489 C 210.538 398.282 209.823 398.247 208.651 398.36 C 207.728 398.45 206.643 398.433 206.112 398.321 C 205.168 398.124 203.405 397.841 201.933 397.653 C 201.487 397.596 200.143 397.496 198.948 397.43 C 195.524 397.244 195.035 396.895 194.528 394.277 C 194.388 393.55 193.918 391.993 193.482 390.815 C 193.047 389.637 192.691 388.6 192.691 388.509 C 192.691 388.18 191.651 386.283 191.133 385.666 C 190.84 385.319 190.318 384.866 189.97 384.658 C 189.264 384.236 188.085 383.064 187.591 382.292 C 187.178 381.65 186.065 378.389 185.892 377.316 C 185.658 375.871 185.33 374.477 185.173 374.269 C 184.87 373.866 184.181 370.586 184.149 369.395 C 184.131 368.724 184.031 367.83 183.926 367.409 C 183.685 366.44 183.973 364.8 184.641 363.341 C 185.292 361.918 187.471 359.943 190.737 357.816 C 191.875 357.075 192.435 356.663 195.082 354.624 C 197.003 353.143 197.018 353.128 197.062 352.418 C 197.122 351.436 196.177 350.133 194.861 349.386 C 194.282 349.057 193.434 348.443 192.977 348.021 C 191.926 347.052 191.734 345.93 192.288 343.997 C 192.718 342.488 194.214 339.437 194.869 338.731 C 195.124 338.457 195.336 338.16 195.34 338.071 C 195.345 337.983 195.712 337.509 196.155 337.018 C 196.858 336.241 197.163 336.076 198.533 335.725 C 200.812 335.142 202.54 334.999 203.429 335.32 C 204.6 335.742 207.457 335.997 208.093 335.735 C 208.981 335.37 219.967 335.195 224.988 335.466 C 226.496 335.547 228.083 335.63 228.514 335.651 C 228.945 335.671 229.673 335.56 230.133 335.405 C 230.702 335.212 231.296 335.17 231.99 335.271 C 233.247 335.453 239.836 335.491 241.657 335.325 C 242.391 335.258 243.36 335.105 243.812 334.983 C 244.263 334.861 244.852 334.767 245.119 334.775 C 245.387 334.781 246.432 334.733 247.443 334.666 C 248.827 334.576 249.459 334.62 249.998 334.845 C 250.536 335.07 251.192 335.116 252.628 335.03 C 254.732 334.905 255.437 334.902 257.667 335.011 C 258.594 335.057 260.339 334.903 262.233 334.61 C 264.368 334.278 265.424 334.193 265.71 334.331 C 265.936 334.438 266.777 334.58 267.581 334.645 C 268.384 334.709 269.276 334.851 269.563 334.961 C 269.851 335.071 270.644 335.25 271.326 335.359 C 272.69 335.579 272.996 335.84 273.342 337.071 C 273.822 338.776 273.367 341.448 272.508 341.979 C 272.366 342.067 271.464 342.269 270.505 342.427 C 269.546 342.586 268.258 342.798 267.643 342.9 C 265.168 343.311 263.449 343.34 262.757 342.982 C 262.188 342.688 261.702 342.662 259.133 342.791 C 257.502 342.871 255.847 342.939 255.457 342.94 C 255.066 342.941 253.968 342.943 253.019 342.944 C 247.159 342.95 244.708 343.006 244.573 343.141 C 244.305 343.407 243.642 343.306 242.979 342.896 C 242.423 342.552 241.907 342.493 239.096 342.453 C 237.313 342.427 233.387 342.468 230.371 342.544 C 227.354 342.62 224.125 342.677 223.194 342.672 C 222.263 342.666 221.385 342.758 221.244 342.875 C 221.024 343.057 218.138 343.12 214.324 343.024 C 213.018 342.991 208.921 343.505 207.917 343.827 C 206.574 344.26 205.926 344.867 205.779 345.834 C 205.644 346.722 205.58 346.627 207.651 348.617 C 208.198 349.144 208.946 350.157 209.312 350.871 C 209.862 351.942 209.98 352.408 209.997 353.569 C 210.022 355.3 209.668 356.19 208.493 357.351 C 207.009 358.815 203.242 360.444 200.906 360.631 C 200.564 360.659 199.964 360.926 199.573 361.225 C 199.181 361.523 198.363 361.925 197.757 362.116 C 197.149 362.308 196.366 362.679 196.015 362.941 C 195.318 363.461 194.604 363.632 192.878 363.699 C 192.254 363.723 191.648 363.801 191.53 363.875 C 190.943 364.237 190.902 367.364 191.454 369.575 C 191.947 371.545 192.713 372.865 193.704 373.45 C 193.899 373.566 194.286 373.821 194.563 374.019 C 195.001 374.33 195.559 374.377 198.805 374.378 C 200.861 374.379 202.954 374.299 203.457 374.2 C 204.2 374.054 212.414 374.055 219.605 374.201 C 220.387 374.217 223.495 374.23 226.512 374.229 C 231.763 374.228 236.76 374.29 240.019 374.396 C 240.857 374.422 242.777 374.369 244.285 374.276 C 247.725 374.066 260.355 374.045 269.167 374.236 C 272.854 374.316 276.967 374.381 278.307 374.381 C 279.648 374.382 282.071 374.47 283.691 374.576 C 287.168 374.806 291.828 374.946 301.261 375.101 C 313.801 375.306 316.471 375.368 318.831 375.506 C 320.116 375.581 323.771 375.662 326.956 375.687 C 332.306 375.729 336.526 375.936 341.377 376.396 C 342.439 376.497 344.033 376.591 344.92 376.604 C 345.806 376.617 346.594 376.666 346.67 376.713 C 346.979 376.905 358.143 376.772 364.127 376.506 C 365.971 376.425 370.541 376.332 374.284 376.302 C 384.417 376.22 392.777 375.998 393.58 375.791 C 394.8 375.477 395.995 375.38 399.979 375.271 C 405.729 375.112 410.079 374.841 410.969 374.584 C 411.404 374.458 412.765 374.306 413.995 374.244 C 415.223 374.182 416.64 374.01 417.143 373.861 C 417.645 373.711 418.965 373.487 420.074 373.364 C 421.43 373.213 422.31 373.005 422.756 372.728 C 423.453 372.298 426.678 371.331 427.431 371.326 C 428.105 371.322 432.23 369.517 432.63 369.051 C 432.826 368.825 432.986 368.388 432.986 368.081 C 432.986 366.537 434.371 364.327 436.058 363.182 C 437.224 362.391 437.678 361.799 437.93 360.742 C 438.15 359.824 437.07 359.161 434.815 358.826 C 433.902 358.691 430.475 357.145 429.556 356.454 C 429.29 356.253 428.928 356.09 428.751 356.09 C 428.575 356.09 427.696 355.736 426.798 355.302 C 425.9 354.869 424.8 354.343 424.353 354.134 C 423.182 353.586 421.885 352.485 421.601 351.8 C 421.296 351.065 421.48 349.516 422.043 348.092 C 422.59 346.706 422.764 343.887 422.37 342.786 C 421.789 341.164 418.925 340.426 416.029 341.151 C 413.433 341.802 410.407 341.877 407.9 341.352 C 407.565 341.282 405.235 341.198 402.72 341.166 C 399.728 341.126 397.905 341.018 397.44 340.852 C 397.049 340.712 395.129 340.528 393.174 340.441 C 391.219 340.356 388.934 340.183 388.096 340.058 C 387.083 339.907 386.266 339.896 385.659 340.023 C 382.292 340.732 379.929 340.788 377.331 340.22 C 376.716 340.086 375.573 339.991 374.791 340.009 C 374.01 340.028 372.705 340.041 371.891 340.039 C 371.079 340.036 370.256 340.116 370.064 340.216 C 369.561 340.477 369.168 340.279 367.791 339.066 C 366.448 337.885 366.107 337.407 366.34 337.031 C 366.607 336.599 370.206 335.741 371.541 335.791 C 373.97 335.881 376.141 335.803 376.378 335.617 C 377.124 335.031 380.477 334.868 383.148 335.287 C 385.191 335.607 385.735 335.62 387.844 335.396 C 389.647 335.206 390.789 335.197 392.525 335.364 C 393.788 335.485 394.924 335.521 395.047 335.445 C 395.171 335.368 397.505 335.275 400.234 335.237 C 402.963 335.2 405.28 335.116 405.385 335.051 C 405.49 334.987 407.183 334.889 409.147 334.834 C 411.898 334.757 413.079 334.807 414.28 335.051 C 416.134 335.426 419.446 335.639 424.049 335.678 C 430.176 335.731 435.856 336.42 437.211 337.275 C 438.46 338.064 438.76 338.642 438.741 340.224 C 438.72 341.881 438.05 343.489 436.953 344.511 C 436.534 344.902 435.539 345.869 434.74 346.659 C 433.943 347.45 433.115 348.161 432.901 348.241 C 432.605 348.35 432.568 348.441 432.749 348.621 C 432.88 348.751 432.986 349.249 432.986 349.726 C 432.986 350.534 433.058 350.646 434.052 351.391 C 434.639 351.831 435.575 352.389 436.135 352.631 C 439.459 354.075 443.835 356.261 444.366 356.741 C 445.153 357.455 445.51 358.131 445.774 359.398 C 446.1 360.967 445.701 362.321 444.413 364.018 C 443.881 364.719 443.344 365.438 443.216 365.616 C 443.09 365.795 442.927 366.341 442.855 366.831 C 442.727 367.694 442.751 367.746 443.715 368.659 C 444.742 369.629 446.5 370.792 447.915 371.436 C 449.961 372.366 452.081 374.931 452.079 376.471 C 452.075 378.309 451.414 379.281 448.965 381.05 C 448.053 381.709 447.124 382.451 446.9 382.7 C 446.078 383.613 444.189 384.892 442.285 385.825 C 440.796 386.554 440.149 387.004 439.565 387.716 C 438.687 388.787 437.068 392.6 437.038 393.667 C 437.008 394.703 436.654 395.531 435.653 396.905 C 435.063 397.715 434.472 398.265 433.891 398.546 C 432.955 399 432.83 399.001 421.205 398.655 C 419.474 398.603 416.985 398.626 415.674 398.705 C 413.958 398.809 413.02 398.776 412.322 398.587 C 411.76 398.435 409.69 398.285 407.393 398.23 C 402.808 398.122 401.653 398.04 399.979 397.709 C 398.621 397.44 396.66 397.445 393.174 397.729 C 391.889 397.833 389.741 397.925 388.4 397.93 C 387.06 397.936 385.825 397.943 385.659 397.944 C 385.491 397.945 384.678 397.805 383.851 397.634 C 382.929 397.442 381.871 397.364 381.109 397.432 C 380.427 397.494 378.773 397.582 377.432 397.629 C 376.091 397.675 373.623 397.771 371.948 397.84 C 368.312 397.992 368.086 397.988 366.26 397.736 C 362.681 397.242 359.646 397.08 358.38 397.314 C 354.991 397.942 353.274 398.096 352.521 397.841 C 352.116 397.703 351.521 397.628 351.201 397.673 C 350.654 397.751 349.011 397.529 347.877 397.224 C 347.074 397.007 345.46 397.086 343.916 397.417 C 343.135 397.585 342.076 397.725 341.565 397.726 C 340.686 397.73 336.724 398.228 335.811 398.451 C 335.15 398.612 329.877 398.166 328.343 397.82 C 327.971 397.735 326.25 397.645 324.518 397.618 C 322.786 397.59 321.186 397.559 320.964 397.547 C 319.513 397.474 318.582 397.537 318.214 397.734 C 317.654 398.033 309.556 398.045 307.253 397.749 C 306.303 397.627 304.887 397.344 304.105 397.119 C 302.92 396.778 302.106 396.711 299.23 396.72 C 297.33 396.727 295.593 396.726 295.371 396.719 C 295.147 396.711 294.097 396.673 293.035 396.632 C 291.967 396.591 290.88 396.654 290.598 396.771 C 289.147 397.378 281.328 397.725 279.192 397.278 C 278.292 397.09 277.682 397.058 277.363 397.184 C 276.857 397.384 274.535 397.432 270.691 397.322 C 269.406 397.285 268.035 397.314 267.643 397.385 C 266.723 397.554 262.23 397.24 259.583 396.824 C 257.567 396.506 257.482 396.509 256.244 396.925 C 255.056 397.326 254.667 397.347 250.147 397.255 C 247.49 397.2 245.23 397.101 245.123 397.035 C 244.862 396.874 238.95 397.08 236.668 397.33 C 235.663 397.44 233.56 397.516 231.996 397.499 C 229.348 397.469 227.172 397.586 225.343 397.856 C 223.898 398.07 223.658 398.1 220.861 398.425 C 219.317 398.605 217.97 398.7 217.869 398.638 C 217.768 398.575 217.312 398.625 216.855 398.748 C 216.398 398.87 215.917 398.998 215.784 399.031 C 215.651 399.065 214.812 399.02 213.918 398.932 Z M 373.166 374.371 C 373.097 374.259 373.137 374.168 373.256 374.168 C 373.375 374.168 373.471 374.259 373.471 374.371 C 373.471 374.482 373.431 374.574 373.381 374.574 C 373.332 374.574 373.236 374.482 373.166 374.371 Z M 284.839 371.834 C 284.672 371.667 284.478 371.266 284.407 370.941 C 284.185 369.933 283.674 369.653 281.919 369.581 C 278.587 369.441 275.603 369.291 274.01 369.185 C 273.099 369.124 271.576 369.17 270.626 369.288 C 267.591 369.666 253.982 369.586 250.176 369.17 C 249.058 369.048 247.971 368.622 247.69 368.198 C 247.467 367.861 247.504 366.596 247.759 365.866 C 247.921 365.403 248.222 365.115 248.826 364.846 C 250.014 364.317 250.457 364.237 252.409 364.197 C 253.359 364.178 254.364 364.07 254.644 363.956 C 254.923 363.842 255.746 363.731 256.472 363.709 C 259.98 363.603 262.792 363.326 264.061 362.961 C 266.094 362.375 268.05 361.946 268.867 361.905 C 269.792 361.859 271.252 360.996 272.772 359.598 C 273.822 358.634 274.065 358.501 274.621 358.587 C 275.743 358.764 278.057 359.826 278.701 360.461 C 279.528 361.277 280.051 361.512 281.862 361.884 C 282.7 362.056 284.117 362.478 285.011 362.821 C 286.864 363.535 290.079 363.926 291.484 363.611 C 291.938 363.509 292.404 363.501 292.52 363.593 C 292.635 363.686 293.225 363.866 293.831 363.993 C 296.782 364.616 302.047 363.209 304.042 361.266 C 305.241 360.098 305.563 357.529 304.717 355.893 C 304.303 355.091 304.329 354.621 304.824 353.991 C 305.355 353.317 306.125 353.187 308.268 353.411 C 309.741 353.565 310.167 353.701 311.157 354.336 C 311.797 354.744 312.405 355.238 312.509 355.432 C 312.613 355.626 313.125 356.103 313.645 356.492 C 315.088 357.572 315.454 358.296 315.321 359.813 C 315.104 362.299 314.272 363.959 312.24 365.963 C 311.766 366.43 311.11 366.951 310.782 367.121 C 310.1 367.473 308.186 368.036 306.847 368.276 C 306.344 368.366 304.927 368.64 303.698 368.883 C 302.469 369.126 301.052 369.367 300.55 369.418 C 298.954 369.582 298.8 369.668 298.032 370.826 C 297.267 371.976 296.844 372.152 296.728 371.366 C 296.693 371.127 296.397 370.647 296.072 370.298 L 295.479 369.664 L 293.902 369.806 C 293.033 369.884 292.277 369.956 292.222 369.966 C 292.166 369.976 291.435 369.903 290.597 369.806 C 288.427 369.552 288.217 369.552 287.743 369.806 C 287.364 370.009 287.352 370.061 287.637 370.297 C 288.027 370.62 288.067 371.731 287.69 371.731 C 287.234 371.731 286.534 370.926 286.534 370.402 C 286.534 370.127 286.443 369.902 286.332 369.902 C 286.219 369.902 286.128 370.349 286.128 370.896 C 286.128 371.615 286.039 371.924 285.807 372.013 C 285.329 372.196 285.172 372.167 284.839 371.834 Z M 289.801 362.572 C 288.262 362.373 286.065 361.329 285.451 360.506 C 285.222 360.198 284.297 359.452 283.397 358.85 C 280.802 357.111 278.668 354.83 278.287 353.385 C 278.162 352.917 277.874 352.169 277.646 351.722 C 276.472 349.426 276.477 349.448 276.526 346.441 C 276.553 344.741 276.482 343.374 276.35 343.041 C 276.172 342.596 276.199 342.331 276.486 341.721 C 276.683 341.301 276.929 340.901 277.032 340.834 C 277.442 340.566 277.565 339.195 277.279 338.094 C 277.122 337.492 277.002 336.154 277.013 335.119 C 277.056 330.95 276.823 328.29 276.301 326.972 C 276.028 326.286 275.759 325.266 275.703 324.707 C 275.592 323.593 274.61 320.876 273.888 319.686 C 273.637 319.271 272.894 318.477 272.239 317.924 C 271.585 317.37 270.899 316.694 270.717 316.421 C 270.535 316.148 270.129 315.557 269.815 315.108 C 269.443 314.576 269.185 313.871 269.074 313.087 C 268.981 312.426 268.661 311.113 268.362 310.171 C 267.895 308.693 267.828 308.164 267.873 306.324 C 267.954 303.089 267.712 299.365 267.367 298.539 C 267.165 298.056 267.062 297.11 267.06 295.716 C 267.058 294.563 266.961 293.192 266.844 292.671 C 266.727 292.148 266.639 290.995 266.649 290.107 C 266.661 288.991 266.542 288.127 266.262 287.304 C 265.702 285.657 265.384 283.7 265.443 282.255 C 265.526 280.226 265.197 277.727 264.472 274.881 C 264.094 273.394 263.784 271.879 263.784 271.515 C 263.784 271.151 263.624 270.218 263.429 269.444 C 263.163 268.392 263.1 267.557 263.178 266.145 C 263.28 264.312 263.304 264.236 263.957 263.667 C 264.79 262.939 266.24 262.518 268.33 262.397 C 269.852 262.309 269.96 262.332 270.564 262.867 C 271.457 263.661 272.292 265.502 273.046 268.34 C 273.208 268.955 273.512 269.869 273.718 270.372 C 274.302 271.79 274.917 274.016 275.065 275.247 C 275.224 276.579 275.537 277.3 276.443 278.416 C 276.929 279.013 277.277 279.817 277.677 281.259 C 277.983 282.365 278.413 283.462 278.632 283.696 C 278.851 283.929 279.338 285.072 279.714 286.234 C 280.09 287.397 280.584 288.773 280.811 289.294 C 281.037 289.814 281.286 290.683 281.362 291.224 C 281.439 291.765 281.72 292.763 281.987 293.442 C 282.253 294.121 282.472 294.878 282.472 295.125 C 282.472 295.417 282.706 295.711 283.144 295.969 C 283.732 296.317 283.874 296.577 284.275 298.044 C 284.527 298.967 284.898 300.089 285.099 300.536 C 285.3 300.982 285.533 301.667 285.617 302.059 C 285.702 302.45 286.033 303.131 286.355 303.572 C 286.677 304.012 286.941 304.467 286.941 304.583 C 286.941 304.698 287.159 305.388 287.427 306.117 C 287.694 306.846 288.03 308.388 288.173 309.544 C 288.402 311.397 288.391 311.952 288.072 314.216 C 287.712 316.766 287.712 316.805 288.157 319.426 C 288.402 320.878 288.743 322.432 288.912 322.879 C 289.082 323.326 289.432 324.298 289.69 325.04 C 289.947 325.781 290.509 326.97 290.938 327.68 C 291.367 328.391 292.003 329.566 292.351 330.293 C 293.501 332.695 294.05 333.921 294.05 334.091 C 294.05 334.182 294.462 334.759 294.966 335.372 C 295.47 335.986 295.937 336.664 296.007 336.878 C 296.208 337.513 297.506 339.459 298.452 340.547 C 298.935 341.104 299.332 341.664 299.332 341.792 C 299.332 341.92 299.468 342.138 299.636 342.277 C 299.803 342.416 299.94 342.756 299.94 343.033 C 299.94 343.31 300.072 343.824 300.231 344.176 C 301.139 346.178 301.513 350.619 300.926 352.433 C 300.596 353.454 297.602 358.598 296.352 360.294 C 295.787 361.061 292.462 362.806 291.642 362.767 C 291.347 362.753 290.518 362.665 289.801 362.572 Z M 338.093 360.821 C 337.796 360.636 337.371 360.158 337.151 359.76 C 336.791 359.11 336.15 356.667 336.133 355.886 C 336.13 355.719 336.062 355.107 335.983 354.526 C 335.896 353.889 335.935 353.093 336.08 352.516 C 336.485 350.908 335.989 350.942 334.686 352.611 C 334.304 353.099 333.368 353.899 332.606 354.386 C 331.845 354.875 331.219 355.298 331.216 355.326 C 331.212 355.355 331.001 356.012 330.746 356.786 C 330.012 359.016 329.332 359.104 328.337 357.095 C 327.103 354.603 326.975 353.067 327.695 349.396 C 327.973 347.976 328.676 346.34 329.006 346.34 C 329.14 346.34 330.467 344.771 331.876 342.947 C 332.673 341.916 332.407 341.516 330.98 341.596 C 328.525 341.734 327.385 341.86 325.931 342.151 C 322.64 342.81 319.062 342.98 316.901 342.581 C 316.119 342.436 314.611 342.264 313.55 342.199 C 312.488 342.134 311.3 341.986 310.909 341.869 C 310.518 341.753 309.147 341.679 307.862 341.705 C 304.788 341.766 304.034 341.537 302.657 340.127 C 302.067 339.522 301.511 339.027 301.422 339.027 C 301.333 339.027 301.244 338.296 301.223 337.403 L 301.185 335.779 L 302.117 335.233 C 302.903 334.772 303.322 334.679 304.795 334.636 C 305.756 334.606 306.953 334.565 307.456 334.542 C 307.959 334.521 308.899 334.613 309.546 334.749 C 310.383 334.926 311.521 334.95 313.506 334.832 C 315.038 334.741 316.429 334.691 316.596 334.721 C 316.985 334.791 328.216 335.039 330.104 335.02 C 330.886 335.012 332.075 334.87 332.745 334.701 C 333.415 334.535 334.101 334.392 334.268 334.386 C 337.037 334.273 338.67 334.152 339.753 333.98 C 340.479 333.863 341.804 333.718 342.697 333.656 C 344.152 333.556 344.373 333.486 344.797 332.985 C 345.616 332.018 345.767 331.45 345.634 329.826 C 345.52 328.423 345.446 328.235 344.575 327.121 C 343.924 326.291 343.417 325.306 342.914 323.895 C 342.516 322.777 342.19 321.725 342.19 321.555 C 342.19 321.386 341.976 320.929 341.716 320.54 C 341.456 320.151 340.989 319.131 340.679 318.275 C 340.078 316.61 339.471 315.845 337.811 314.652 C 337.266 314.262 336.542 313.627 336.204 313.242 C 335.866 312.857 335.302 312.254 334.952 311.902 C 334.311 311.255 333.907 310.157 333.174 307.058 C 332.876 305.798 332.708 305.516 331.488 304.215 C 330.743 303.42 329.933 302.632 329.687 302.465 C 329.441 302.297 328.978 301.886 328.657 301.55 C 328.336 301.215 327.767 300.712 327.393 300.433 C 325.222 298.814 323.261 296.479 322.789 294.949 C 322.701 294.67 322.325 293.986 321.95 293.429 C 321.575 292.872 321.268 292.344 321.268 292.257 C 321.268 292.03 320.266 290.499 319.614 289.728 C 319.311 289.371 318.677 288.411 318.206 287.596 C 317.143 285.756 315.415 283.333 313.986 281.682 C 312.771 280.28 312.236 279.242 312.027 277.887 C 311.949 277.384 311.666 276.592 311.397 276.125 C 311.129 275.658 310.909 275.163 310.909 275.027 C 310.909 274.889 310.694 274.494 310.432 274.149 C 310.17 273.803 309.838 273.154 309.696 272.707 C 309.553 272.261 309.258 271.497 309.041 271.011 C 308.823 270.524 308.559 269.61 308.455 268.98 C 308.35 268.348 308.125 267.238 307.955 266.512 C 307.784 265.786 307.603 264.634 307.552 263.952 C 307.432 262.365 306.437 260.095 305.719 259.767 C 304.847 259.371 304.714 259.749 304.714 262.611 C 304.714 264.757 304.662 265.193 304.403 265.244 C 303.912 265.342 300.546 262.518 299.491 261.124 C 298.964 260.428 298.061 259.463 297.482 258.979 C 296.904 258.496 296.301 257.786 296.14 257.403 C 295.98 257.021 295.497 256.148 295.067 255.466 C 294.637 254.782 294.218 253.949 294.139 253.614 C 294.059 253.278 293.927 252.913 293.846 252.802 C 293.764 252.69 293.5 252.05 293.257 251.379 C 293.016 250.709 292.49 249.384 292.089 248.434 C 291.687 247.485 291.142 246.193 290.877 245.565 C 290.464 244.59 290.393 244.088 290.393 242.136 C 290.393 240.878 290.296 239.473 290.175 239.013 C 290.055 238.553 289.817 237.628 289.645 236.958 C 289.473 236.288 289.263 235.557 289.177 235.333 C 288.903 234.619 288.59 232.938 288.458 231.473 C 288.387 230.692 288.218 229.275 288.082 228.327 C 287.922 227.209 287.896 226.206 288.008 225.483 C 288.103 224.868 288.202 222.902 288.226 221.114 L 288.271 217.864 L 289.043 216.593 C 289.468 215.893 290.028 214.78 290.288 214.118 C 290.547 213.455 291.007 212.588 291.311 212.19 C 291.615 211.793 291.885 211.18 291.913 210.83 C 291.963 210.188 292.353 209.605 294.524 206.933 C 296.355 204.678 297.162 203.763 298.674 202.223 C 299.442 201.442 300.392 200.346 300.783 199.788 C 301.593 198.634 302.687 197.928 306.786 195.907 C 308.751 194.938 309.436 194.506 309.352 194.288 C 309.142 193.738 309.64 193.433 310.574 193.538 C 311.355 193.626 311.567 193.548 312.515 192.831 C 313.489 192.093 314.362 191.015 314.362 190.549 C 314.362 190.446 314.636 189.955 314.971 189.458 C 315.73 188.335 315.761 187.753 315.071 187.58 C 314.533 187.445 314.508 187.458 312.432 189.018 C 311.762 189.523 311.077 189.997 310.909 190.073 C 310.742 190.15 310.102 190.551 309.487 190.964 C 307.63 192.213 306.857 192.501 304.687 192.757 C 303.137 192.939 302.402 192.943 301.712 192.768 C 301.048 192.602 300.682 192.598 300.383 192.759 C 299.901 193.017 299.707 192.963 297.799 192.049 C 297.013 191.673 296.087 191.307 295.742 191.238 C 294.837 191.057 292.912 189.467 292.411 188.486 C 292.081 187.838 291.957 187.127 291.871 185.379 C 291.772 183.359 291.807 183.006 292.194 182.131 C 292.432 181.591 292.628 181.033 292.628 180.889 C 292.628 180.646 293.006 180.141 294.796 177.993 C 295.195 177.513 295.876 176.94 296.309 176.719 C 296.742 176.498 297.097 176.224 297.097 176.111 C 297.097 175.868 298.69 175.158 299.585 174.998 C 299.929 174.938 300.31 174.818 300.432 174.748 C 300.895 174.448 302.524 174.108 303.554 174.098 C 304.212 174.098 304.937 173.928 305.425 173.688 C 305.863 173.458 306.395 173.278 306.607 173.278 C 306.819 173.278 307.33 173.048 307.742 172.768 C 308.153 172.488 308.545 172.268 308.612 172.268 C 308.907 172.268 310.434 170.838 310.709 170.308 C 310.875 169.988 311.158 169.618 311.34 169.478 C 311.858 169.088 312.331 167.908 312.331 167.008 C 312.331 166.558 312.483 165.748 312.67 165.208 C 313.352 163.258 313.156 161.338 312.008 158.758 C 311.76 158.198 311.494 157.318 311.418 156.808 C 311.257 155.728 311.189 155.608 310.5 155.168 C 310.219 154.998 309.493 154.428 308.887 153.908 C 308.281 153.388 307.705 152.968 307.607 152.968 C 307.082 152.968 304.305 151.448 302.937 150.418 C 301.337 149.208 301.197 148.958 301.563 147.998 C 301.762 147.468 301.782 147.468 303.341 147.588 C 306.5 147.828 307.707 148.098 308.777 148.798 C 309.838 149.488 312.246 150.588 313.179 150.808 C 313.876 150.968 314.362 150.508 314.362 149.678 C 314.362 149.208 314.062 148.718 313.122 147.668 C 312.441 146.888 311.762 146.268 311.615 146.268 C 311.467 146.268 311.088 146.048 310.772 145.788 C 310.457 145.528 309.376 144.878 308.37 144.318 C 306.595 143.368 306.356 143.178 305.718 142.278 C 305.014 141.278 306.219 140.648 309.182 140.458 C 311.092 140.338 311.287 140.368 312.432 140.878 C 313.102 141.168 314.016 141.488 314.463 141.588 C 315.781 141.868 317.439 142.568 318.002 143.078 C 318.964 143.968 319.524 144.228 320.399 144.228 C 320.877 144.228 321.268 144.168 321.268 144.068 C 321.268 143.528 324.538 140.748 325.602 140.398 C 327.421 139.808 331.639 139.738 333.303 140.278 C 334.759 140.748 338.014 142.328 338.691 142.908 C 338.996 143.158 339.611 143.568 340.057 143.808 C 340.504 144.048 341.281 144.488 341.784 144.788 C 342.596 145.278 342.891 145.328 344.425 145.308 C 345.374 145.288 346.562 145.218 347.065 145.148 C 348.141 144.988 348.258 144.988 348.791 145.128 C 349.015 145.168 349.346 145.218 349.528 145.228 C 349.71 145.238 350.212 145.598 350.646 146.028 C 351.565 146.958 351.716 147.158 352.2 148.098 C 352.739 149.148 354.724 151.098 355.821 151.658 C 356.351 151.928 356.842 152.238 356.911 152.348 C 356.979 152.458 357.42 152.648 357.89 152.768 C 358.36 152.898 359.019 153.128 359.354 153.268 C 359.689 153.408 360.383 153.638 360.896 153.778 C 361.717 153.988 361.885 154.128 362.29 154.968 C 362.543 155.488 362.826 156.448 362.917 157.098 C 363.118 158.518 363.701 159.708 364.703 160.748 C 365.752 161.838 366.62 162.328 368.059 162.638 C 370.074 163.068 371.109 162.998 372.589 162.308 C 374.392 161.478 375.815 161.478 377.486 162.298 C 378.912 163.008 380.581 164.548 380.581 165.158 C 380.581 165.848 379.805 167.348 379.24 167.738 C 378.011 168.588 377.3 169.418 376.64 170.768 C 375.549 173.018 373.559 174.178 369.713 174.828 C 367.146 175.268 363.164 175.488 362.729 175.218 C 362.619 175.158 361.557 175.008 360.371 174.898 C 359.185 174.788 357.601 174.498 356.854 174.268 C 353.328 173.158 351.793 172.598 351.006 172.138 C 349.981 171.538 348.327 171.298 347.517 171.638 C 346.406 172.098 346.245 172.698 346.302 176.155 L 346.354 179.271 L 347.131 180.896 C 348.422 183.595 348.493 183.703 349.636 184.755 C 350.674 185.71 350.745 185.838 350.826 186.888 C 350.874 187.503 350.97 188.335 351.039 188.738 C 351.148 189.37 351.09 189.528 350.611 189.905 C 349.838 190.513 349.528 190.458 348.511 189.528 C 348.023 189.082 347.461 188.716 347.264 188.716 C 346.825 188.716 346.575 189.284 346.862 189.63 C 346.977 189.769 347.016 190.029 346.947 190.208 C 346.825 190.529 347.405 191.679 348.091 192.473 C 348.283 192.698 348.7 193.703 349.016 194.708 C 349.389 195.896 349.761 196.683 350.081 196.954 C 350.441 197.263 350.596 197.642 350.669 198.397 C 350.761 199.363 350.731 199.448 350.126 199.878 C 349.384 200.406 348.876 200.343 347.753 199.581 C 347.343 199.303 346.926 199.075 346.825 199.075 C 346.724 199.075 346.395 198.847 346.093 198.568 C 345.792 198.288 345.465 198.06 345.366 198.06 C 345.266 198.06 345.229 198.517 345.283 199.075 C 345.354 199.816 345.517 200.218 345.886 200.559 C 346.165 200.818 346.548 201.434 346.739 201.931 C 347.02 202.661 347.416 203.082 348.813 204.138 C 350.982 205.777 351.331 206.252 351.331 207.573 C 351.331 209.096 350.872 209.383 348.391 209.408 C 346.344 209.428 345.61 209.256 344.896 208.588 C 344.408 208.13 344.018 208.236 344.018 208.825 C 344.018 209.036 343.926 209.264 343.815 209.333 C 343.703 209.402 343.612 210.088 343.612 210.857 C 343.612 211.625 343.703 212.311 343.815 212.38 C 343.926 212.449 344.018 212.967 344.018 213.531 C 344.018 214.737 344.516 216.793 344.977 217.498 C 345.156 217.772 345.721 218.183 346.235 218.413 C 350.138 220.163 351.884 221.228 353.753 223 C 354.376 223.591 355.159 224.221 355.495 224.399 C 356.79 225.09 358.239 226.63 360.335 229.544 C 360.937 230.382 362.299 231.982 363.361 233.098 C 364.422 234.216 366.142 236.135 367.185 237.364 C 369.257 239.809 373.777 244.372 374.127 244.372 C 374.247 244.372 374.669 244.749 375.064 245.211 C 375.459 245.672 376.026 246.197 376.323 246.379 C 376.621 246.56 377.344 247.119 377.931 247.622 C 379.14 248.658 380.03 249.233 381.495 249.924 C 382.053 250.187 382.866 250.646 383.3 250.942 C 383.735 251.239 384.218 251.481 384.375 251.481 C 384.703 251.481 384.943 251.66 386.239 252.869 C 386.757 253.353 387.456 253.892 387.791 254.066 C 388.126 254.239 388.629 254.609 388.909 254.887 C 389.188 255.166 389.645 255.537 389.924 255.712 C 390.203 255.888 390.751 256.276 391.143 256.575 C 391.534 256.874 392.524 257.403 393.343 257.751 C 394.162 258.098 395.076 258.556 395.374 258.766 C 395.672 258.976 396.739 259.495 397.744 259.919 C 398.75 260.343 399.664 260.757 399.775 260.84 C 399.887 260.922 400.79 261.458 401.78 262.03 C 403.084 262.782 403.765 263.057 404.244 263.024 C 404.614 262.999 405.158 263.145 405.48 263.357 C 405.844 263.595 406.535 263.76 407.364 263.807 C 408.11 263.848 409.03 264.052 409.505 264.282 C 410.442 264.733 412.315 265.875 412.47 266.088 C 412.526 266.166 412.984 266.384 413.486 266.574 C 413.989 266.765 415.291 267.382 416.38 267.945 C 418.502 269.043 418.892 269.477 419.189 271.076 C 419.392 272.172 418.954 273.176 417.967 273.876 C 417.534 274.183 417.096 274.434 416.994 274.434 C 416.892 274.434 416.221 274.845 415.503 275.346 C 414.785 275.847 414.093 276.259 413.966 276.26 C 413.475 276.265 412.641 276.851 411.855 277.745 C 410.452 279.338 407.655 280.324 404.533 280.325 C 403.799 280.325 402.223 280.422 401.032 280.542 C 399.382 280.709 398.586 280.701 397.695 280.51 C 397.052 280.372 395.84 280.279 395.002 280.302 C 393.383 280.348 392.162 280.035 391.149 279.313 C 390.47 278.83 390.06 278.796 389.665 279.191 C 389.435 279.421 389.42 279.68 389.586 280.496 C 389.823 281.651 389.59 282.153 388.815 282.153 C 388.569 282.153 388.298 282.222 388.215 282.305 C 388.13 282.389 387.224 282.48 386.2 282.507 C 385.175 282.536 384.247 282.563 384.135 282.57 C 381.931 282.692 376.567 281.696 374.953 280.865 C 373.013 279.866 369.094 278.976 367.786 279.237 C 367.401 279.315 366.948 279.632 366.631 280.047 C 365.958 280.93 365.481 280.923 363.416 279.997 C 362.522 279.597 361.334 279.092 360.776 278.877 C 360.217 278.662 359.441 278.312 359.05 278.102 C 358.658 277.891 357.47 277.425 356.409 277.067 C 354.081 276.282 352.284 275.465 351.051 274.633 C 350.548 274.293 349.833 273.914 349.464 273.791 C 349.094 273.667 348.501 273.35 348.145 273.086 C 347.79 272.822 347.445 272.606 347.379 272.606 C 347.313 272.606 346.898 272.377 346.456 272.098 C 346.013 271.819 345.571 271.591 345.472 271.591 C 345.374 271.591 344.581 271.111 343.71 270.524 C 342.838 269.937 341.6 269.178 340.958 268.836 C 340.316 268.494 339.468 267.968 339.074 267.668 C 338.68 267.367 338.302 267.122 338.234 267.122 C 338.166 267.122 337.601 266.733 336.978 266.258 C 336.356 265.783 335.503 265.167 335.082 264.887 C 333.473 263.817 333.118 263.557 332.034 262.652 C 331.42 262.139 330.231 261.222 329.393 260.612 C 328.556 260.002 327.361 259.047 326.739 258.489 C 326.117 257.93 325.34 257.245 325.012 256.966 C 322.853 255.128 322.286 254.572 320.846 252.883 C 319.961 251.847 319.237 250.89 319.237 250.757 C 319.237 250.624 319.109 250.409 318.952 250.279 C 318.796 250.149 318.436 249.553 318.152 248.956 C 317.87 248.358 317.365 247.557 317.03 247.177 C 316.696 246.796 316.265 246.077 316.073 245.581 C 315.881 245.083 315.521 244.402 315.275 244.068 C 315.029 243.732 314.535 242.863 314.177 242.138 C 313.819 241.412 313.446 240.68 313.348 240.513 C 312.578 239.198 311.626 236.656 311.297 235.04 C 311.08 233.972 310.798 232.87 310.671 232.591 C 310.33 231.847 310.312 229.913 310.624 227.698 C 310.942 225.446 311.304 224.539 312.432 223.158 C 314.348 220.814 314.554 220.638 315.747 220.309 C 316.382 220.135 317.192 219.845 317.548 219.665 C 317.984 219.445 318.427 219.381 318.904 219.471 C 319.318 219.548 319.665 219.517 319.741 219.394 C 319.812 219.279 320.034 219.184 320.233 219.184 C 320.433 219.184 320.883 219.042 321.233 218.867 C 321.583 218.693 322.488 218.456 323.245 218.341 C 324.081 218.214 325.271 217.818 326.284 217.33 C 327.626 216.683 328.091 216.333 328.688 215.521 C 329.095 214.967 329.501 214.513 329.591 214.513 C 329.68 214.513 329.896 214.216 330.071 213.853 C 330.245 213.49 330.895 212.651 331.514 211.988 C 332.134 211.327 332.755 210.527 332.895 210.212 C 333.035 209.896 333.209 209.638 333.282 209.638 C 333.408 209.638 333.634 209.312 334.912 207.283 C 335.753 205.949 337.342 202.899 337.534 202.25 C 337.675 201.777 337.627 201.603 337.284 201.325 C 336.979 201.078 336.844 200.702 336.801 199.978 C 336.768 199.426 336.733 198.912 336.723 198.835 C 336.713 198.759 336.526 198.639 336.307 198.57 C 335.771 198.4 335.081 198.796 335.081 199.273 C 335.081 199.487 335.001 199.71 334.904 199.77 C 334.806 199.83 334.672 200.152 334.606 200.485 C 334.539 200.818 334.167 201.443 333.778 201.873 C 333.39 202.303 332.587 203.512 331.994 204.558 C 330.757 206.744 329.328 208.099 326.125 210.124 C 323.753 211.623 322.787 211.812 321.968 210.933 C 321.669 210.611 321.08 209.754 320.659 209.028 C 319.481 206.995 319.062 207.127 318.121 209.827 C 317.948 210.322 317.591 211.01 317.327 211.357 C 316.856 211.974 316.488 212.201 314.468 213.118 C 313.5 213.558 312.487 214.46 310.502 216.652 C 309.998 217.207 309.206 217.881 308.74 218.149 C 308.274 218.418 307.844 218.783 307.783 218.962 C 307.723 219.14 307.528 219.652 307.351 220.098 C 306.623 221.929 305.412 226.43 305.55 226.789 C 305.597 226.913 305.406 227.583 305.124 228.276 C 304.547 229.695 304.485 230.264 304.888 230.419 C 305.047 230.48 305.222 230.988 305.299 231.608 C 305.475 233.028 305.776 234.419 306.259 236.043 C 306.476 236.77 306.787 238.027 306.95 238.837 C 307.113 239.646 307.397 240.652 307.578 241.071 C 308.093 242.253 308.902 244.408 309.084 245.082 C 309.175 245.418 309.393 246.218 309.569 246.861 C 309.836 247.837 310.682 249.467 311.122 249.856 C 311.185 249.912 311.354 250.277 311.497 250.668 C 311.875 251.699 312.362 252.575 312.658 252.754 C 312.799 252.839 313.299 253.617 313.768 254.48 C 314.237 255.344 314.723 256.142 314.847 256.255 C 314.971 256.367 315.437 256.911 315.883 257.464 C 317.565 259.556 319.542 261.368 320.826 261.994 C 321.816 262.477 322.686 263.214 324.821 265.374 C 326.322 266.894 327.626 268.137 327.719 268.137 C 327.811 268.137 328.277 268.5 328.752 268.944 C 329.646 269.777 329.865 269.921 331.536 270.778 C 332.08 271.057 332.676 271.423 332.86 271.591 C 333.044 271.758 333.491 272.124 333.856 272.403 C 334.22 272.682 334.842 273.253 335.238 273.672 C 335.635 274.092 336.069 274.434 336.203 274.434 C 336.528 274.434 337.396 275.714 337.926 276.973 C 338.161 277.532 338.542 278.387 338.773 278.874 C 339.004 279.361 339.383 280.732 339.614 281.921 C 339.846 283.11 340.125 284.144 340.236 284.219 C 340.363 284.306 340.338 284.476 340.167 284.682 C 339.946 284.947 339.941 285.382 340.141 287.083 C 340.554 290.617 340.604 291.307 340.656 294.238 C 340.685 295.802 340.814 298.337 340.943 299.869 C 341.179 302.666 341.288 303.019 342.34 304.395 C 342.68 304.84 344.622 308.92 344.902 309.777 C 345.066 310.28 345.266 311.102 345.346 311.606 C 345.589 313.149 346.204 314.135 348.306 316.353 C 349.823 317.953 350.639 318.642 351.573 319.109 C 352.257 319.451 352.926 319.731 353.058 319.731 C 353.191 319.731 353.473 319.925 353.686 320.161 C 353.899 320.399 354.582 320.94 355.206 321.364 C 355.828 321.788 356.616 322.453 356.958 322.841 C 357.3 323.231 357.82 323.706 358.115 323.9 C 358.753 324.318 361.898 325.236 362.154 325.078 C 362.445 324.898 365.612 325.455 366.1 325.771 C 367.224 326.502 366.754 327.566 364.767 328.788 C 363.216 329.744 361.633 330.496 361.177 330.496 C 360.671 330.496 359.397 331.09 358.9 331.556 C 358.29 332.13 358.308 333.016 358.956 334.27 C 359.241 334.82 359.706 335.818 359.991 336.488 C 360.593 337.908 361.577 339.027 362.221 339.027 C 362.471 339.027 362.948 339.258 363.283 339.539 C 364.508 340.571 365.676 340.92 367.885 340.915 C 369.69 340.911 369.995 340.965 370.624 341.391 C 371.013 341.655 371.486 341.871 371.675 341.871 C 372.767 341.871 373.879 344.232 374.298 347.447 C 374.627 349.968 374.468 351.572 373.768 352.781 C 373.029 354.058 371.92 355.146 371.516 354.991 C 371.344 354.925 371.134 354.871 371.049 354.871 C 370.963 354.871 370.586 353.955 370.209 352.835 C 369.355 350.294 369.197 350.172 366.576 350.041 C 364.314 349.927 363.104 349.47 360.597 347.778 C 359.741 347.201 358.941 346.789 358.819 346.865 C 358.697 346.94 358.522 346.88 358.431 346.731 C 358.203 346.363 354.827 347.445 354.329 348.046 C 353.066 349.571 352.479 350.199 352.316 350.199 C 352.214 350.199 351.496 350.617 350.721 351.127 C 349.065 352.218 347.556 353.817 347.366 354.682 C 347.204 355.423 345.172 357.474 344.432 357.644 C 344.149 357.71 343.734 357.876 343.51 358.014 C 343.287 358.151 342.538 358.407 341.846 358.582 C 340.167 359.006 339.966 359.141 339.468 360.166 C 338.967 361.197 338.817 361.269 338.093 360.821 Z M 327.218 164.748 C 327.302 164.428 327.495 164.338 328.17 164.338 C 329.023 164.338 330.321 163.638 331.197 162.698 C 331.791 162.058 331.902 160.348 331.441 159.008 C 330.931 157.528 330.521 156.928 329.641 156.388 C 328.795 155.858 327.991 155.868 326.416 156.398 C 324.936 156.898 324.518 157.318 324.518 158.288 C 324.518 158.728 324.425 159.258 324.311 159.478 C 324.074 159.918 323.974 163.018 324.177 163.628 C 324.328 164.088 326.009 165.098 326.678 165.128 C 326.953 165.148 327.151 165.008 327.218 164.748 Z M 259.722 357.951 C 259.554 357.857 258.868 357.669 258.198 357.533 C 257.528 357.397 256.34 357.096 255.558 356.862 C 253.695 356.308 252.374 356.231 250.328 356.559 C 248.648 356.828 244.314 356.866 243.907 356.616 C 243.558 356.4 240.408 356.451 239.344 356.691 C 238.117 356.966 237.308 356.654 237.216 355.867 C 237.11 354.961 237.593 354.781 240.197 354.759 C 241.496 354.748 242.748 354.676 242.982 354.599 C 243.537 354.415 245.366 354.281 247.636 354.26 C 249.435 354.242 250.286 354.316 252.317 354.666 C 252.9 354.766 254.259 354.765 255.466 354.663 C 261.411 354.162 263.11 354.243 264.237 355.076 C 264.573 355.325 265.089 355.592 265.383 355.671 C 265.804 355.784 265.917 355.939 265.917 356.404 C 265.917 356.945 265.832 357.015 264.902 357.236 C 264.342 357.368 263.429 357.601 262.871 357.756 C 261.645 358.091 260.139 358.186 259.722 357.951 Z M 398.819 354.356 C 398.739 354.276 397.996 354.181 397.168 354.145 C 396.295 354.108 395.162 353.899 394.47 353.648 C 393.265 353.211 389.013 352.311 387.428 352.158 C 386.957 352.112 386.435 352.026 386.268 351.966 C 386.1 351.906 385.007 351.803 383.84 351.736 C 381.597 351.606 380.783 351.31 380.783 350.622 C 380.783 349.991 380.843 349.981 386.166 349.702 C 387.171 349.649 388.314 349.509 388.705 349.389 C 389.096 349.269 390.285 349.171 391.345 349.171 C 392.407 349.171 393.621 349.078 394.045 348.965 C 395.358 348.611 397.073 348.599 397.924 348.936 C 398.595 349.203 398.977 349.214 400.486 349.013 C 402.741 348.713 404.051 348.714 404.613 349.016 C 405.399 349.437 407.447 349.779 409.24 349.786 C 410.667 349.791 411.047 349.861 411.322 350.165 C 411.809 350.702 411.736 351.157 411.1 351.547 C 410.792 351.736 410.22 352.099 409.83 352.356 C 409.124 352.821 408.67 352.942 405.374 353.552 C 404.431 353.726 403.528 353.978 403.367 354.111 C 403.043 354.381 399.053 354.596 398.819 354.356 Z M 312.518 290.886 C 312.006 290.699 311.321 290.492 310.995 290.425 C 310.284 290.28 309.073 289.716 307.152 288.631 C 306.369 288.189 305.478 287.731 305.171 287.611 C 304.863 287.492 304.612 287.317 304.612 287.221 C 304.612 287.126 304.178 286.751 303.647 286.388 C 301.327 284.804 297.082 280.094 296.614 278.584 C 296.542 278.352 296.212 277.886 295.88 277.546 C 295.216 276.867 294.144 275.144 293.313 273.418 C 292.557 271.852 291.72 270.711 290.188 269.167 C 289.461 268.433 288.547 267.442 288.157 266.965 C 287.417 266.059 283.932 262.897 282.767 262.077 C 282.397 261.815 281.707 261.243 281.232 260.806 C 280.758 260.367 279.952 259.767 279.44 259.47 C 278.929 259.172 278.112 258.582 277.625 258.156 C 276.518 257.189 275.617 256.992 274.536 257.479 C 274.096 257.678 273.622 257.976 273.486 258.142 C 273.109 258.594 271.76 259.403 271.38 259.403 C 271.196 259.403 270.372 259.732 269.547 260.133 C 268.054 260.862 268.04 260.864 265.257 260.874 C 262.953 260.882 262.18 260.804 260.839 260.427 C 259.945 260.175 259.1 259.876 258.96 259.762 C 258.506 259.394 258.678 258.593 259.342 257.988 L 259.976 257.408 L 259.828 255.048 C 259.672 252.555 259.549 252.247 258.548 251.866 C 257.883 251.613 256.736 251.842 256.575 252.261 C 256.255 253.095 254.522 255.814 254.096 256.148 C 253.335 256.747 252.576 256.375 251.917 255.08 C 251.702 254.657 251.108 254.012 250.597 253.644 C 249.49 252.847 248.688 251.462 248.348 249.754 C 248.214 249.084 247.885 247.679 247.616 246.632 C 247.047 244.419 247.141 243.717 248.212 242.139 C 248.988 240.995 250.822 239.335 251.448 239.208 C 251.697 239.158 252.13 239.069 252.409 239.013 C 252.689 238.956 253.373 238.848 253.93 238.773 C 254.487 238.699 255.149 238.56 255.401 238.464 C 255.653 238.368 256.013 238.348 256.201 238.421 C 256.465 238.522 256.512 238.471 256.406 238.195 C 256.331 237.999 256.269 237.766 256.269 237.676 C 256.269 237.587 255.853 237.069 255.346 236.525 C 254.838 235.981 254.287 235.221 254.121 234.836 C 253.955 234.451 253.577 233.818 253.281 233.43 C 252.985 233.043 252.484 232.22 252.169 231.604 C 251.854 230.988 251.436 230.294 251.241 230.064 C 251.046 229.833 250.761 229.417 250.607 229.138 C 250.337 228.644 250.127 228.343 248.267 225.786 C 247.781 225.116 247.12 224.065 246.799 223.45 L 246.217 222.333 L 246.177 217.052 C 246.022 196.609 245.852 187.468 245.594 185.771 C 245.539 185.405 245.049 184.654 244.372 183.894 L 243.242 182.628 L 242.442 183.036 C 242.003 183.26 241.644 183.529 241.644 183.635 C 241.644 183.741 241.228 184.31 240.72 184.901 C 235.138 191.382 229.172 196.99 225.109 199.576 C 223.527 200.583 219.698 201.621 216.762 201.838 C 215.907 201.902 213.799 201.521 211.582 200.903 C 210.856 200.7 209.942 200.47 209.55 200.393 C 208.683 200.219 207.519 199.538 207.519 199.204 C 207.519 199.07 207.243 198.797 206.905 198.597 C 206.568 198.398 206.135 197.989 205.945 197.69 C 205.267 196.623 203.611 194.863 202.578 194.112 C 202 193.693 201.36 193.126 201.157 192.853 C 200.794 192.368 200.797 192.339 201.309 191.465 C 201.964 190.347 201.968 189.773 201.327 189.081 C 200.732 188.439 199.112 187.294 198.799 187.294 C 198.679 187.294 198.582 187.212 198.582 187.111 C 198.582 187.01 198.239 186.75 197.82 186.533 C 197.117 186.169 197.002 185.976 196.316 184.003 C 195.908 182.829 195.389 181.508 195.165 181.068 C 194.726 180.207 194.236 178.577 193.831 176.63 C 193.692 175.96 193.438 175.138 193.267 174.798 C 193.096 174.468 192.844 173.598 192.708 172.878 C 192.572 172.148 192.378 171.178 192.276 170.718 C 192.174 170.258 192.083 168.848 192.075 167.568 C 192.066 166.298 192.05 164.758 192.038 164.138 C 192.005 162.318 192.462 158.398 192.878 156.928 C 192.973 156.588 193.159 155.768 193.292 155.098 C 193.424 154.428 193.662 153.378 193.819 152.768 C 193.977 152.148 194.253 150.878 194.433 149.928 C 194.613 148.968 195.023 147.218 195.342 146.038 C 195.969 143.718 196.311 141.928 196.468 140.168 C 196.576 138.968 196.829 137.778 197.289 136.288 C 197.746 134.818 198.614 134.568 200.436 135.378 C 201.937 136.038 202.783 137.128 203.666 139.508 C 203.799 139.868 204.083 140.368 204.298 140.608 C 204.849 141.248 204.983 141.968 204.679 142.698 C 204.536 143.038 204.222 143.868 203.982 144.538 C 203.742 145.208 203.489 145.848 203.42 145.958 C 203.069 146.528 201.838 151.638 201.74 152.928 C 201.678 153.748 201.546 154.568 201.446 154.758 C 201.278 155.068 201.006 156.418 200.415 159.878 C 200.126 161.558 199.768 169.098 199.933 170.028 C 200.328 172.278 201.295 175.348 202.33 177.646 C 202.583 178.204 202.933 179.092 203.109 179.617 C 203.286 180.142 203.921 181.33 204.521 182.257 C 205.688 184.061 206.029 184.742 206.625 186.45 C 206.833 187.048 207.193 187.733 207.424 187.973 C 207.656 188.214 208.197 188.85 208.628 189.386 C 209.454 190.413 210.46 190.988 212.786 191.763 C 213.504 192.002 214.438 192.374 214.86 192.59 C 215.831 193.085 216.135 193.082 216.833 192.566 C 217.151 192.33 217.95 192.071 218.668 191.969 C 219.368 191.87 220.159 191.647 220.426 191.471 C 220.693 191.297 221.103 191.153 221.335 191.153 C 221.568 191.153 222.973 190.573 224.457 189.863 L 227.153 188.573 L 228.213 186.988 C 228.918 185.933 229.224 185.294 229.128 185.079 C 229.048 184.901 229 184.425 229.02 184.022 C 229.096 182.489 228.555 180.747 227.602 179.453 C 225.936 177.189 224.889 174.558 224.381 171.348 C 224.293 170.788 224.124 170.058 224.007 169.728 C 223.442 168.118 223.234 166.448 223.398 164.848 C 223.546 163.408 223.618 161.728 223.842 154.488 C 223.908 152.378 223.772 152.008 222.516 150.818 C 221.361 149.718 219.819 148.898 217.574 148.178 C 215.871 147.648 214.151 146.578 212.804 145.248 C 211.861 144.308 209.953 141.718 209.362 140.568 C 208.986 139.848 208.597 139.148 208.496 139.028 C 208.038 138.428 206.311 134.768 206.391 134.548 C 206.505 134.238 205.533 132.338 204.593 131.028 C 204.192 130.468 203.863 129.948 203.863 129.868 C 203.863 129.778 203.438 129.068 202.92 128.288 C 202.401 127.508 201.862 126.498 201.722 126.058 C 201.581 125.608 201.103 124.468 200.66 123.518 C 200.217 122.568 199.703 121.388 199.519 120.918 C 199.335 120.428 198.61 119.198 197.907 118.168 C 197.204 117.138 196.315 115.678 195.93 114.918 C 195.545 114.148 195.002 113.268 194.723 112.948 C 194.443 112.628 193.803 111.888 193.301 111.298 C 192.798 110.708 192.178 109.988 191.923 109.708 C 190.669 108.318 189.109 105.958 188.302 104.218 C 187.808 103.158 187.268 102.028 187.102 101.718 C 186.937 101.398 186.801 100.958 186.801 100.738 C 186.801 100.518 186.573 99.998 186.293 99.588 C 186.013 99.178 185.785 98.718 185.785 98.568 C 185.785 98.188 184.458 95.508 183.886 94.738 C 183.623 94.378 182.947 93.468 182.383 92.708 C 181.395 91.378 180.549 89.338 179.905 86.748 C 179.628 85.638 178.849 83.628 178.061 81.968 C 177.74 81.308 177.256 80.258 176.984 79.638 C 176.439 78.408 174.045 75.678 172.855 74.948 C 171.485 74.098 169.734 72.148 169.171 70.848 C 168.745 69.858 168.861 67.468 169.383 66.428 C 169.77 65.668 169.962 65.508 170.637 65.378 C 171.074 65.278 171.532 65.128 171.652 65.028 C 171.773 64.938 172.283 64.788 172.785 64.708 C 173.614 64.568 174.473 64.298 177.558 63.178 C 179.726 62.398 180.442 61.978 180.985 61.158 C 181.283 60.708 181.67 60.338 181.848 60.338 C 182.024 60.338 182.458 60.218 182.809 60.048 C 183.161 59.888 184.033 59.518 184.745 59.218 C 185.458 58.928 186.331 58.398 186.684 58.038 C 187.595 57.128 189.382 55.668 189.593 55.668 C 189.691 55.668 189.978 55.388 190.229 55.048 C 190.481 54.718 190.909 54.348 191.182 54.238 C 191.453 54.138 191.676 53.958 191.676 53.828 C 191.676 53.718 192.155 53.388 192.742 53.108 C 193.328 52.828 194.448 52.248 195.231 51.808 C 196.013 51.378 196.776 51.018 196.928 51.008 C 197.079 51.008 197.474 50.768 197.807 50.488 C 198.138 50.218 198.573 49.978 198.773 49.978 C 198.973 49.978 199.386 49.788 199.69 49.548 C 200.048 49.268 200.613 49.088 201.292 49.038 C 201.868 48.998 202.979 48.878 203.762 48.768 C 204.693 48.628 205.744 48.628 206.808 48.758 C 208.394 48.948 208.443 48.928 208.843 48.458 C 209.219 47.998 209.273 47.988 209.473 48.308 C 209.668 48.628 209.731 48.588 210.028 48.008 C 210.213 47.658 210.363 46.968 210.363 46.478 C 210.363 45.998 210.532 45.278 210.738 44.868 C 210.943 44.468 211.231 43.708 211.375 43.188 C 211.521 42.668 211.813 42.158 212.027 42.038 C 212.67 41.698 214.437 42.028 215.339 42.658 C 216.415 43.408 217.161 43.628 219.707 43.968 L 221.839 44.238 L 223.487 43.448 C 224.393 43.028 225.236 42.668 225.36 42.668 C 225.484 42.668 226.085 42.438 226.696 42.168 C 228.068 41.538 228.319 41.538 231.589 42.168 C 234.293 42.718 234.707 42.778 236.944 42.968 C 237.655 43.028 238.295 43.118 238.366 43.168 C 238.438 43.208 239.718 43.348 241.212 43.478 C 243.5 43.678 244.06 43.668 244.767 43.428 C 245.227 43.278 246.153 42.968 246.823 42.778 C 247.494 42.578 248.453 42.268 248.957 42.068 C 249.459 41.868 250.465 41.598 251.191 41.458 C 251.917 41.318 252.694 41.138 252.917 41.048 C 253.141 40.968 253.575 40.788 253.882 40.668 C 256.011 39.818 258.335 39.778 259.132 40.568 C 259.607 41.038 259.93 42.718 259.973 44.938 C 260.002 46.418 259.937 46.768 259.468 47.658 C 259.097 48.368 258.827 49.378 258.602 50.908 C 258.421 52.128 258.184 53.538 258.073 54.038 C 257.657 55.918 257.514 65.228 257.882 66.438 C 258.002 66.828 258.199 67.968 258.322 68.968 C 258.444 69.968 258.71 71.338 258.912 72.018 C 259.116 72.688 259.343 73.648 259.419 74.158 C 259.495 74.658 259.822 75.548 260.147 76.128 C 260.472 76.718 260.737 77.318 260.737 77.468 C 260.737 77.628 261.003 78.408 261.329 79.188 C 261.654 79.968 262.032 81.128 262.167 81.728 C 262.395 82.748 262.371 82.998 261.87 84.738 C 261.54 85.888 261.133 86.848 260.843 87.158 C 260.323 87.708 259.945 88.598 259.423 90.508 C 259.24 91.168 258.964 92.138 258.81 92.638 C 258.472 93.738 258.182 99.038 258.439 99.398 C 258.907 100.038 259.645 103.148 259.826 105.228 C 259.889 105.958 260.176 107.968 260.463 109.698 C 260.826 111.878 260.95 113.218 260.868 114.068 C 260.131 121.678 259.686 122.738 257.855 121.278 C 257.408 120.918 256.453 120.408 255.733 120.148 C 253.672 119.398 252.572 118.458 252.317 117.218 C 252.237 116.818 252.097 115.728 252.007 114.778 C 251.917 113.828 251.697 112.228 251.515 111.218 C 251.212 109.538 251.137 107.058 251.216 101.168 C 251.227 100.328 251.224 98.458 251.209 97.008 C 251.181 94.148 251.345 90.038 251.497 89.788 C 251.585 89.658 251.996 87.128 252.409 84.218 C 252.733 81.918 252.697 77.418 252.337 75.498 C 252.153 74.508 251.923 73.588 251.827 73.468 C 251.731 73.338 251.596 72.328 251.527 71.208 C 251.458 70.088 251.26 68.718 251.087 68.168 C 250.776 67.158 250.537 64.428 250.183 57.848 C 250.019 54.808 249.952 54.378 249.536 53.788 C 248.87 52.848 248.793 52.788 247.307 52.068 C 245.859 51.358 245.503 51.278 245.162 51.628 C 245.005 51.778 244.718 51.778 244.157 51.628 C 243.052 51.318 241.991 51.358 240.677 51.728 C 239.915 51.958 239.208 52.018 238.513 51.928 C 237.294 51.778 230.363 51.508 228.379 51.528 C 226.564 51.558 224.886 52.128 223.978 53.028 C 223.584 53.418 222.896 54.028 222.449 54.348 C 220.958 55.458 220.831 55.568 219.962 56.468 C 218.779 57.678 216.601 58.778 215.649 58.648 C 215.256 58.588 214.476 58.478 213.918 58.408 C 213.359 58.328 212.273 57.958 211.504 57.578 C 210.373 57.018 209.868 56.888 208.863 56.888 C 207.72 56.898 206.409 57.218 205.537 57.688 C 205.343 57.798 204.498 58.168 203.66 58.518 C 202.822 58.868 201.725 59.368 201.223 59.628 C 200.72 59.908 199.714 60.418 198.988 60.778 C 198.263 61.138 197.245 61.718 196.729 62.058 C 196.213 62.398 195.527 62.828 195.206 63.028 C 194.085 63.698 193.813 63.898 193.543 64.258 C 193.132 64.798 191.159 65.718 189.346 66.218 C 188.456 66.468 187.273 66.908 186.717 67.218 C 185.321 67.968 183.629 69.678 183.443 70.528 C 183.36 70.908 183.11 71.338 182.888 71.498 C 182.523 71.748 182.493 71.938 182.595 73.288 C 182.668 74.238 182.828 74.928 183.028 75.158 C 183.204 75.348 183.349 75.778 183.351 76.098 C 183.355 76.848 183.502 77.068 184.262 77.458 C 184.597 77.628 185.465 78.438 186.192 79.248 C 187.928 81.178 188.665 82.538 189.353 85.078 C 189.678 86.278 190.268 87.188 190.968 87.568 C 191.268 87.718 191.485 88.068 191.571 88.548 C 191.645 88.958 191.82 89.468 191.96 89.688 C 192.1 89.918 192.424 90.698 192.68 91.428 C 192.938 92.168 193.462 93.118 193.853 93.568 C 194.518 94.308 194.553 94.418 194.404 95.278 C 194.023 97.488 194.414 98.538 196.388 100.588 C 197.357 101.598 199.05 102.738 199.431 102.638 C 199.507 102.618 199.67 102.908 199.794 103.278 C 199.918 103.658 200.195 104.128 200.41 104.318 C 200.625 104.518 200.908 105.008 201.04 105.408 C 201.172 105.818 201.441 106.378 201.64 106.668 C 201.838 106.948 202.063 107.518 202.142 107.928 C 202.292 108.728 203.31 110.318 203.674 110.318 C 203.792 110.318 204.151 110.878 204.472 111.578 C 204.793 112.278 205.289 113.098 205.576 113.398 C 205.863 113.698 206.098 114.038 206.098 114.148 C 206.098 114.268 206.351 114.798 206.662 115.328 C 206.972 115.868 207.573 117.128 207.999 118.128 C 208.426 119.138 209.032 120.508 209.347 121.178 C 209.661 121.848 210.027 122.808 210.159 123.308 C 210.476 124.518 211.073 125.468 211.768 125.878 C 212.078 126.058 212.435 126.488 212.562 126.838 C 212.688 127.188 213.218 128.208 213.736 129.098 C 214.255 129.988 214.994 131.358 215.378 132.128 C 216.052 133.478 217.313 134.878 220.334 137.608 C 220.997 138.208 221.369 138.758 221.619 139.508 C 221.978 140.588 223.104 141.788 223.764 141.798 C 223.935 141.798 224.458 141.978 224.926 142.188 C 225.588 142.488 225.896 142.818 226.304 143.618 C 226.593 144.188 227.128 144.988 227.49 145.408 C 228.852 146.968 229.526 148.288 229.858 150.068 C 229.967 150.668 230.274 151.628 230.54 152.208 C 231.444 154.198 232.088 156.638 232.335 159.028 C 232.63 161.878 232.849 163.488 233.113 164.728 C 233.275 165.488 233.287 166.208 233.152 167.068 C 232.847 168.998 232.953 172.558 233.328 173.008 C 234.143 173.988 234.293 174.908 233.64 174.908 C 232.992 174.908 232.211 176.845 232.008 178.966 C 231.625 182.937 231.625 182.907 232.022 183.373 C 232.231 183.619 232.741 183.88 233.154 183.953 C 233.799 184.067 233.978 184.009 234.408 183.544 C 234.684 183.247 234.972 182.637 235.047 182.189 C 235.123 181.742 235.678 180.389 236.282 179.183 C 237.327 177.093 237.379 176.913 237.385 175.388 C 237.388 174.508 237.472 173.168 237.569 172.408 C 237.682 171.538 237.672 170.758 237.543 170.288 C 237.392 169.738 237.42 169.218 237.655 168.218 C 238.137 166.178 238.269 163.748 238.012 161.658 C 237.885 160.618 237.689 158.998 237.577 158.048 C 237.276 155.508 236.568 153.478 234.7 149.778 L 233.033 146.478 L 233.083 144.938 C 233.109 144.088 233.078 143.218 233.012 143.018 C 232.888 142.628 231.966 141.988 230.64 141.368 C 229.587 140.878 229.209 140.188 229.158 138.688 C 229.123 137.698 228.959 137.128 228.384 136.008 C 227.653 134.578 225.648 132.278 224.478 131.528 C 224.145 131.308 223.324 130.718 222.653 130.218 C 221.745 129.528 220.87 129.118 219.227 128.588 C 216.361 127.668 215.567 127.038 215.506 125.628 C 215.483 125.068 215.427 124.388 215.382 124.098 C 215.336 123.808 215.458 123.058 215.651 122.428 C 215.873 121.718 215.963 120.948 215.898 120.368 C 215.793 119.428 216.218 118.068 216.808 117.458 C 217.685 116.538 215.998 115.448 214.066 115.668 C 213.431 115.748 212.645 115.708 212.192 115.568 C 211.385 115.318 209.673 113.848 209.013 112.818 C 208.808 112.508 208.426 112.068 208.167 111.858 C 207.908 111.648 207.33 110.698 206.884 109.748 C 206.438 108.798 205.844 107.718 205.563 107.348 C 205.282 106.978 204.87 106.198 204.647 105.618 C 204.423 105.028 204.083 104.318 203.89 104.028 C 203.357 103.238 203.098 102.538 202.935 101.458 C 202.598 99.208 201.913 98.408 199.393 97.328 C 197.692 96.608 197.441 96.318 197.663 95.308 C 197.846 94.468 198.725 93.738 199.988 93.368 C 201.581 92.908 201.953 92.588 202.345 91.378 C 202.536 90.778 202.966 89.718 203.299 89.018 C 203.868 87.798 203.898 87.618 203.762 86.168 C 203.518 83.568 202.81 82.788 200.72 82.828 C 199.188 82.858 198.591 82.548 197.818 81.318 C 196.821 79.738 196.652 79.058 196.924 77.698 C 197.053 77.058 197.16 76.048 197.16 75.458 C 197.16 74.868 197.261 74.128 197.383 73.818 C 197.506 73.498 197.688 72.618 197.785 71.858 C 197.884 71.098 198.138 70.088 198.35 69.628 C 198.726 68.788 200.29 67.048 200.659 67.048 C 200.761 67.048 201.227 66.778 201.693 66.468 C 202.673 65.808 204.258 65.278 205.282 65.258 C 206.301 65.238 208.466 66.318 208.833 67.028 C 208.998 67.348 209.484 67.878 209.916 68.188 C 210.347 68.508 211.142 69.278 211.683 69.888 C 212.896 71.268 213.051 71.378 214.36 71.688 C 215.574 71.988 215.808 71.908 217.301 70.668 C 219.202 69.088 220.919 68.708 222.988 69.388 C 223.923 69.708 224.013 69.698 224.628 69.338 C 225.566 68.788 225.985 67.918 226.19 66.108 C 226.289 65.228 226.623 63.838 226.929 63.028 C 227.585 61.278 228.375 60.438 230.778 58.918 C 232.258 57.988 232.925 57.768 234.027 57.878 C 234.25 57.888 235.083 57.938 235.876 57.988 C 237.581 58.078 238.226 58.378 239.546 59.668 C 240.656 60.778 242.406 64.038 242.714 65.588 C 243.15 67.788 243.117 68.918 242.587 69.888 C 242.312 70.388 241.884 71.198 241.635 71.678 C 241.386 72.168 240.784 72.948 240.297 73.438 C 239.177 74.558 239.013 75.008 239.138 76.618 C 239.338 79.168 240.102 79.788 242.751 79.538 C 243.975 79.428 244.283 79.468 244.56 79.738 C 244.95 80.128 244.962 80.208 244.981 82.478 C 244.994 83.998 245.074 84.378 245.647 85.528 C 246.592 87.438 247.204 91.168 247.047 94.048 C 246.982 95.228 246.883 97.338 246.827 98.728 C 246.772 100.128 246.685 101.918 246.634 102.688 C 246.533 104.248 246.486 106.568 246.546 107.058 C 246.646 107.878 246.447 108.348 245.607 109.288 C 243.816 111.308 243.547 112.468 244.384 114.588 C 245.102 116.408 244.429 117.188 242.102 117.248 C 240.45 117.298 239.903 117.018 237.732 115.048 C 236.502 113.928 233.925 110.998 233.925 110.718 C 233.925 110.628 233.599 110.168 233.201 109.678 C 232.499 108.848 232.478 108.768 232.513 107.278 C 232.533 106.428 232.496 104.668 232.43 103.358 C 232.294 100.638 231.988 99.748 231.183 99.748 C 230.563 99.748 230.153 100.368 229.96 101.568 C 229.787 102.668 229.576 103.128 228.886 103.868 C 228.173 104.628 226.948 104.628 225.551 103.868 L 224.536 103.318 L 224.148 103.798 C 223.724 104.318 223.762 104.968 224.315 106.658 C 224.505 107.228 224.653 108.768 224.718 110.818 C 224.834 114.528 224.59 116.198 223.533 118.938 C 222.968 120.418 222.92 120.718 223.031 122.088 C 223.266 125.008 223.713 126.028 225.206 127.078 C 225.717 127.438 226.393 127.968 226.708 128.268 C 227.023 128.558 227.388 128.798 227.518 128.798 C 227.649 128.798 228.018 129.068 228.339 129.408 C 228.66 129.738 229.128 130.018 229.379 130.018 C 229.986 130.018 230.202 129.318 229.778 128.728 C 229.599 128.488 229.303 128.058 229.117 127.778 C 228.931 127.498 228.463 126.798 228.078 126.218 C 227.214 124.918 227.042 124.048 227.221 121.858 C 227.41 119.548 227.981 118.298 229.394 117.088 L 230.505 116.138 L 231.86 116.388 C 232.605 116.528 233.672 116.898 234.23 117.218 C 234.788 117.528 235.658 117.998 236.16 118.258 C 236.663 118.518 237.218 118.838 237.393 118.978 C 238.217 119.658 241.422 119.878 242.562 119.328 C 243.098 119.078 243.398 119.058 243.92 119.218 C 244.288 119.328 245.092 119.428 245.707 119.428 C 246.462 119.448 247.677 119.738 249.464 120.348 C 251.742 121.128 252.254 121.378 253.196 122.218 C 253.796 122.768 254.481 123.318 254.719 123.448 C 256.207 124.268 259.928 128.578 261.126 130.878 C 261.283 131.178 261.594 131.628 261.817 131.868 C 262.04 132.098 262.608 133.158 263.08 134.198 C 263.551 135.248 264.024 136.218 264.132 136.358 C 264.238 136.498 264.447 136.928 264.595 137.318 C 264.743 137.718 265.023 138.408 265.217 138.848 C 266.217 141.148 266.66 142.298 266.917 143.268 C 267.074 143.858 267.385 144.748 267.608 145.248 C 267.832 145.748 268.076 146.708 268.148 147.378 C 268.222 148.048 268.514 149.688 268.798 151.028 C 269.224 153.038 269.316 154.038 269.324 156.718 C 269.329 158.508 269.228 160.848 269.1 161.908 C 268.971 162.968 268.824 164.838 268.774 166.068 C 268.679 168.368 268.1 170.878 267.243 172.718 C 267.022 173.198 266.387 174.718 265.831 176.096 C 265.275 177.478 264.597 178.941 264.323 179.346 C 264.049 179.752 263.762 180.294 263.687 180.551 C 263.61 180.808 263.235 181.571 262.853 182.247 C 262.472 182.922 262.159 183.56 262.159 183.664 C 262.159 184.278 261.051 185.927 260.332 186.379 C 259.315 187.022 259.189 187.016 258.825 186.313 C 258.662 185.995 258.152 185.26 257.692 184.678 C 256.76 183.5 255.253 180.538 255.253 179.885 C 255.253 179.653 255.378 179.283 255.532 179.063 C 255.684 178.842 256.106 177.748 256.468 176.63 C 256.831 175.518 257.377 173.908 257.685 173.078 C 258.294 171.408 259.771 166.758 260.099 165.458 C 260.212 165.008 260.416 164.208 260.551 163.678 C 260.71 163.038 260.745 162.158 260.65 161.138 C 260.57 160.268 260.466 158.608 260.417 157.438 C 260.368 156.258 260.174 154.438 259.987 153.378 C 259.798 152.318 259.662 151.348 259.684 151.218 C 259.706 151.108 259.452 150.168 259.12 149.128 C 258.787 148.098 258.417 146.688 258.297 145.998 C 258.176 145.308 257.944 144.078 257.782 143.278 C 257.62 142.468 257.487 141.528 257.487 141.168 C 257.487 140.028 255.946 137.528 255.246 137.528 C 255.141 137.528 254.927 137.218 254.769 136.838 C 254.491 136.168 251.843 132.818 250.228 131.078 C 249.756 130.568 249.242 130.218 248.981 130.218 C 248.737 130.218 248.197 130.068 247.782 129.898 C 246.465 129.338 243.358 128.818 242.507 129.018 C 242.088 129.118 241.412 129.198 241.004 129.198 C 240.366 129.198 240.199 129.308 239.807 129.968 C 239.41 130.628 239.356 130.968 239.392 132.628 C 239.46 135.838 240.217 136.528 242.419 135.418 C 242.95 135.148 243.956 134.818 244.654 134.668 C 245.508 134.508 245.992 134.298 246.127 134.048 C 246.41 133.528 246.9 133.568 247.122 134.158 C 247.224 134.428 247.702 134.918 248.182 135.258 C 249.429 136.118 249.883 136.678 250.276 137.828 C 250.877 139.608 250.718 140.548 249.587 141.928 C 247.305 144.728 246.418 146.528 246.088 149.028 C 245.824 151.048 245.825 152.418 246.091 153.178 C 246.19 153.448 246.372 154.058 246.497 154.518 C 246.622 154.978 247.167 156.038 247.711 156.868 C 248.253 157.698 248.8 158.688 248.925 159.078 C 249.2 159.918 249.294 165.218 249.075 167.528 C 248.918 169.168 248.924 169.198 249.643 170.568 C 250.456 172.128 250.652 173.178 250.993 177.781 C 251.112 179.383 251.252 180.921 251.306 181.201 C 251.359 181.48 251.456 182.303 251.52 183.028 C 251.699 185.034 252.35 188.109 252.676 188.483 C 252.835 188.668 253.026 189.364 253.101 190.033 C 253.176 190.701 253.371 191.452 253.534 191.701 C 253.697 191.951 253.832 192.268 253.832 192.405 C 253.832 192.673 254.687 194.026 255.302 194.729 C 255.507 194.964 255.858 195.878 256.083 196.76 C 256.516 198.455 257.531 201.82 258.063 203.323 C 258.237 203.815 258.707 204.638 259.106 205.151 C 260.204 206.562 260.459 207.025 260.622 207.902 C 260.847 209.114 261.484 210.226 262.67 211.478 C 263.258 212.099 264.025 213.151 264.373 213.814 C 264.722 214.478 265.118 215.203 265.255 215.427 C 266.466 217.408 266.628 217.766 266.628 218.447 C 266.628 218.86 266.483 219.538 266.305 219.953 C 266.127 220.368 265.901 221.691 265.801 222.892 C 265.7 224.093 265.532 225.463 265.426 225.938 C 264.558 229.832 264.499 230.496 264.889 232.06 C 265.15 233.107 265.218 233.848 265.117 234.544 C 264.909 235.996 264.218 237.775 263.661 238.298 C 263.394 238.55 263.175 238.918 263.175 239.117 C 263.175 239.52 263.659 239.646 265.816 239.805 C 270.262 240.134 272.442 240.773 273.979 242.198 C 274.25 242.449 274.923 242.993 275.475 243.408 C 276.027 243.823 276.891 244.634 277.394 245.211 C 277.897 245.787 279.245 247.21 280.39 248.372 C 281.535 249.534 282.805 251.006 283.212 251.642 C 283.619 252.279 284.063 252.892 284.2 253.003 C 284.335 253.116 284.74 253.646 285.099 254.18 C 285.458 254.715 286.134 255.55 286.6 256.035 C 287.067 256.521 288.021 257.521 288.721 258.258 C 289.421 258.995 290.563 259.965 291.26 260.412 C 291.957 260.859 292.927 261.57 293.417 261.99 C 293.906 262.41 294.614 262.975 294.991 263.244 C 295.367 263.513 295.675 263.81 295.675 263.904 C 295.675 263.998 295.789 264.077 295.929 264.08 C 296.068 264.084 296.542 264.358 296.981 264.69 C 297.419 265.022 297.947 265.293 298.152 265.293 C 298.359 265.293 299.038 265.797 299.662 266.411 C 300.287 267.025 300.922 267.527 301.072 267.527 C 301.384 267.527 302.853 268.951 303.484 269.863 C 303.716 270.199 304.276 270.976 304.73 271.591 C 305.183 272.205 305.609 272.855 305.676 273.037 C 305.743 273.217 306.291 274.086 306.893 274.966 C 307.496 275.847 308.433 277.504 308.977 278.649 C 309.519 279.794 310.022 280.731 310.094 280.731 C 310.244 280.731 310.909 282.067 310.909 282.367 C 310.909 282.477 311.134 282.923 311.409 283.359 C 311.684 283.794 311.966 284.382 312.038 284.667 C 312.11 284.951 312.296 285.289 312.452 285.419 C 312.609 285.549 312.737 285.791 312.737 285.956 C 312.737 286.121 312.861 286.543 313.011 286.896 C 313.163 287.247 313.484 288.187 313.726 288.982 C 314.362 291.077 314.113 291.47 312.518 290.886 Z M 226.573 94.858 C 227.042 94.518 227.426 94.158 227.426 94.078 C 227.426 93.918 227.652 93.698 229.609 91.868 L 230.675 90.878 L 230.675 89.448 C 230.675 87.828 230.364 87.268 228.307 85.158 C 227.693 84.528 226.863 83.548 226.462 82.988 C 224.876 80.788 223.864 80.048 222.432 80.048 C 221.278 80.048 220.535 81.268 220.512 83.198 C 220.498 84.238 220.1 85.338 219.414 86.238 C 218.723 87.148 218.082 89.008 218.082 90.098 C 218.082 90.578 218.298 91.388 218.589 91.988 C 218.868 92.568 219.098 93.128 219.098 93.238 C 219.098 93.538 220.364 94.428 220.927 94.528 C 221.205 94.568 221.708 94.718 222.043 94.868 C 222.378 94.998 222.835 95.188 223.058 95.288 C 223.282 95.378 223.973 95.468 224.593 95.468 C 225.544 95.478 225.853 95.378 226.573 94.858 Z M 423.22 289.62 C 422.932 289.505 422.443 289.012 422.134 288.523 C 421.487 287.5 421.494 287.117 422.218 283.575 C 422.6 281.706 422.651 280.82 422.63 276.417 C 422.612 272.617 422.53 271.107 422.295 270.222 C 422.125 269.578 421.991 268.465 422 267.749 C 422.008 266.983 421.847 265.907 421.61 265.138 C 421.387 264.418 421.205 263.518 421.205 263.139 C 421.205 262.76 421.123 262.45 421.022 262.45 C 420.922 262.45 420.66 262.107 420.44 261.688 C 420.22 261.269 419.83 260.561 419.573 260.114 C 419.316 259.667 418.883 258.89 418.61 258.387 C 418.339 257.885 417.767 257.096 417.342 256.633 C 416.916 256.172 416.428 255.523 416.258 255.194 C 416.088 254.865 415.441 254.212 414.821 253.744 C 414.202 253.277 413.49 252.617 413.24 252.277 C 412.789 251.668 412.178 251.227 409.316 249.45 C 408.507 248.947 407.584 248.362 407.264 248.149 C 405.613 247.054 404.508 246.426 403.135 245.802 L 401.619 245.112 L 399.58 245.367 C 398.459 245.507 397.312 245.642 397.033 245.667 C 396.754 245.693 396.388 245.768 396.22 245.835 C 395.8 246.002 391.539 246.668 391.047 246.644 C 390.826 246.633 390.507 246.746 390.335 246.893 C 390.009 247.177 389.304 247.382 388.047 247.557 C 387.33 247.658 386.452 247.445 384.338 246.657 C 382.815 246.089 382.59 245.917 381.651 244.586 C 381.135 243.854 380.449 242.935 380.126 242.544 C 379.804 242.153 378.929 241.056 378.181 240.108 C 375.839 237.133 369.44 230.966 368.696 230.966 C 368.621 230.966 368.181 230.703 367.716 230.383 C 367.251 230.061 366.138 229.32 365.245 228.735 C 363.166 227.374 361.591 225.921 361.211 225.011 C 361.046 224.618 360.713 224.189 360.471 224.06 C 360.069 223.844 360.041 223.715 360.156 222.57 C 360.225 221.882 360.319 220.678 360.365 219.895 C 360.419 218.98 360.676 217.858 361.086 216.747 C 361.436 215.798 361.816 214.701 361.932 214.31 C 362.047 213.918 362.301 213.37 362.496 213.091 C 362.69 212.812 363.036 212.018 363.266 211.328 C 363.678 210.093 366.538 205.902 367.366 205.321 C 367.565 205.182 367.971 204.602 368.269 204.031 C 368.904 202.815 370.143 201.31 370.509 201.31 C 370.649 201.31 371.15 200.898 371.621 200.396 C 372.092 199.893 372.553 199.482 372.646 199.482 C 372.738 199.482 373.122 199.069 373.498 198.566 C 373.874 198.062 374.913 197.158 375.807 196.555 C 376.701 195.953 378.021 194.905 378.742 194.225 C 379.463 193.546 380.697 192.659 381.485 192.255 C 382.272 191.851 383.191 191.317 383.526 191.068 C 384.374 190.437 385.831 189.698 388.116 188.743 C 389.189 188.295 390.605 187.603 391.265 187.206 C 391.924 186.808 392.6 186.483 392.768 186.483 C 392.935 186.483 393.758 186.221 394.595 185.899 C 397.407 184.821 398.195 184.675 401.908 184.543 C 403.864 184.473 405.737 184.427 406.072 184.441 C 406.407 184.454 407.093 184.372 407.595 184.256 C 408.099 184.141 409.513 184.015 410.74 183.978 C 412.577 183.922 413.149 183.979 413.99 184.305 C 414.55 184.523 416.003 184.823 417.218 184.973 C 418.553 185.138 419.559 185.365 419.762 185.548 C 419.947 185.716 420.415 185.89 420.804 185.934 C 421.192 185.979 421.793 186.189 422.138 186.402 C 424.395 187.784 425.041 188.115 425.674 188.208 C 426.065 188.265 426.95 188.494 427.641 188.718 C 428.333 188.94 429.043 189.123 429.22 189.123 C 429.545 189.123 431.773 189.983 433.742 190.869 C 434.325 191.132 435.035 191.404 435.319 191.476 C 435.602 191.547 435.884 191.686 435.945 191.786 C 436.007 191.885 436.284 191.966 436.561 191.966 C 436.838 191.966 437.41 192.143 437.832 192.358 C 438.254 192.573 439.131 192.936 439.783 193.165 C 440.434 193.393 441.113 193.706 441.293 193.859 C 441.472 194.013 442.06 194.346 442.6 194.602 C 443.14 194.857 443.633 195.199 443.696 195.364 C 443.804 195.645 446.184 197.301 447.129 197.752 C 447.82 198.082 448.648 198.878 449.837 200.355 C 450.446 201.113 451.544 202.193 452.275 202.758 C 453.143 203.428 453.935 204.286 454.562 205.238 C 456.151 207.648 457.422 209.432 458.18 210.32 C 459.751 212.159 460.224 213.003 460.52 214.497 C 460.711 215.459 462.172 217.674 463.538 219.073 C 464.989 220.56 466.079 222.418 466.339 223.851 C 466.452 224.468 466.728 225.385 466.953 225.888 C 467.42 226.934 468.339 229.651 468.429 230.255 C 468.461 230.478 468.636 231.061 468.815 231.55 C 468.995 232.038 469.142 232.687 469.142 232.99 C 469.142 233.558 470.316 237.703 470.784 238.786 C 471.12 239.568 471.21 244.758 470.894 245.16 C 470.757 245.335 470.703 246.142 470.753 247.293 C 470.921 251.168 470.799 253.673 470.254 257.473 C 470.206 257.808 470.106 258.86 470.03 259.809 C 469.919 261.225 469.793 261.684 469.333 262.359 C 469.024 262.812 468.646 263.589 468.494 264.086 C 468.154 265.194 467.229 266.89 466.354 268.01 C 465.994 268.471 465.334 269.367 464.885 270 C 464.438 270.633 463.805 271.341 463.48 271.572 C 463.156 271.802 462.83 272.231 462.757 272.523 C 462.636 273.003 461.321 274.957 460.677 275.611 C 460.535 275.756 460.005 276.057 459.499 276.281 C 458.994 276.504 458.579 276.817 458.579 276.976 C 458.579 277.414 457.859 277.735 457.594 277.415 C 457.369 277.145 457.627 273.606 457.904 273.158 C 457.979 273.037 458.08 271.927 458.129 270.69 C 458.275 267.028 458.284 267.136 457.802 266.798 C 457.244 266.407 457.235 265.672 457.786 265.175 C 458.481 264.546 458.611 264.129 458.804 261.911 C 458.973 259.966 458.954 259.73 458.568 258.974 C 458.181 258.215 458.173 258.113 458.465 257.667 C 458.879 257.037 458.866 256.779 458.359 255.387 C 458.077 254.612 457.911 253.579 457.86 252.293 C 457.819 251.232 457.673 249.358 457.536 248.13 C 457.399 246.901 457.305 245.14 457.326 244.216 C 457.369 242.383 457.005 241.314 456.092 240.583 C 455.569 240.163 455.193 239.088 455.038 237.568 C 454.909 236.299 454.618 235.093 454.362 234.768 C 454.255 234.632 454.108 233.998 454.036 233.36 C 453.965 232.723 453.574 231.443 453.167 230.517 C 452.246 228.42 449.922 223.875 449.557 223.457 C 449.407 223.286 449.145 222.871 448.973 222.536 C 448.47 221.554 447.848 221.013 447.223 221.013 C 446.687 221.013 445.697 220.353 443.389 218.461 C 442.364 217.619 442.348 218.061 443.368 219.038 C 443.865 219.516 444.885 220.818 445.631 221.932 C 447.886 225.293 449.23 227.16 449.651 227.513 C 450.113 227.9 451.453 229.993 451.667 230.661 C 451.932 231.489 453.07 233.704 453.702 234.622 C 454.162 235.289 454.666 237.563 454.812 239.626 C 454.876 240.534 455.097 241.768 455.303 242.368 C 455.68 243.472 455.841 244.734 456.049 248.231 C 456.166 250.226 456.499 253.384 456.648 253.919 C 456.721 254.181 457.174 257.797 457.449 260.307 C 457.602 261.709 457.174 264.506 456.439 266.919 C 455.206 270.956 454.885 271.869 454.361 272.809 C 452.946 275.352 452.344 276.677 452.1 277.786 C 451.777 279.253 451.293 280.291 450.809 280.553 C 450.521 280.709 450.411 280.643 450.25 280.218 C 450.14 279.927 450.049 279.53 450.049 279.335 C 450.049 279.141 449.82 278.672 449.54 278.293 C 449.129 277.735 449.034 277.373 449.038 276.375 C 449.04 275.699 449.14 274.734 449.258 274.231 C 449.376 273.728 449.479 272.54 449.485 271.591 C 449.498 269.637 449.84 268.015 450.448 267.032 C 450.813 266.441 450.859 266.045 450.841 263.644 C 450.83 262.15 450.761 260.149 450.689 259.2 C 450.571 257.667 450.514 257.481 450.18 257.538 C 449.937 257.579 449.837 257.507 449.9 257.335 C 449.954 257.187 450.097 257.088 450.219 257.116 C 450.451 257.166 450.325 256.637 450.009 256.224 C 449.91 256.095 449.879 255.17 449.939 254.168 C 450.02 252.832 449.968 252.117 449.744 251.482 C 449.576 251.007 449.44 250.377 449.44 250.082 C 449.44 249.787 449.24 249.182 448.999 248.736 C 448.53 247.875 448.045 246.307 447.426 243.661 C 447.217 242.768 446.98 241.853 446.9 241.63 C 446.534 240.619 445.076 237.709 444.65 237.138 C 444.392 236.79 444.116 236.242 444.039 235.919 C 443.795 234.9 442.095 231.805 441.603 231.482 C 441.342 231.311 440.77 230.828 440.33 230.408 C 439.891 229.988 439.407 229.553 439.255 229.44 C 437.801 228.364 436.941 227.644 435.728 226.488 C 434.946 225.743 433.901 224.928 433.407 224.676 C 432.913 224.424 432.045 223.788 431.478 223.263 C 430.186 222.067 428.439 220.959 427.983 221.047 C 427.793 221.084 427.55 221.378 427.442 221.698 C 427.268 222.222 427.317 222.338 427.91 222.816 C 428.273 223.108 428.81 223.488 429.103 223.658 C 429.395 223.828 429.895 224.143 430.213 224.355 C 430.681 224.668 430.865 224.696 431.175 224.503 C 431.745 224.146 431.97 224.209 431.97 224.725 C 431.97 225.453 432.524 226.06 433.4 226.296 C 433.871 226.423 434.345 226.724 434.539 227.021 C 434.721 227.3 435.278 227.713 435.774 227.94 C 436.485 228.264 436.761 228.542 437.075 229.252 C 437.343 229.857 437.6 230.153 437.855 230.153 C 438.065 230.153 438.517 230.39 438.861 230.679 C 439.356 231.096 439.486 231.365 439.486 231.975 C 439.486 232.427 439.618 232.853 439.805 233.009 C 440.24 233.371 440.797 234.502 441.187 235.816 C 441.582 237.148 441.828 237.466 442.463 237.466 C 442.749 237.466 443 237.613 443.068 237.821 C 443.132 238.017 443.304 238.443 443.449 238.768 C 443.595 239.093 443.672 239.468 443.622 239.599 C 443.571 239.73 443.671 239.955 443.844 240.098 C 444.22 240.411 444.243 240.788 443.915 241.313 C 443.728 241.613 443.727 241.808 443.914 242.173 C 444.285 242.902 444.645 243.443 444.869 243.61 C 444.996 243.706 444.959 243.835 444.769 243.957 C 444.505 244.127 444.53 244.345 444.958 245.632 C 445.495 247.248 446.282 248.967 446.71 249.455 C 446.891 249.662 446.969 250.237 446.941 251.182 C 446.907 252.354 446.994 252.791 447.442 253.716 C 448.035 254.94 448.569 257.675 448.867 261.028 C 448.971 262.201 449.104 263.618 449.161 264.177 C 449.278 265.307 448.992 266.309 448.552 266.309 C 448.131 266.309 448.066 266.854 448.031 270.664 C 448.007 273.247 447.924 274.266 447.695 274.747 C 447.528 275.099 447.411 275.699 447.437 276.079 C 447.503 277.065 446.848 278.422 446.14 278.765 C 445.676 278.989 445.412 279.001 444.879 278.817 C 443.87 278.47 443.661 278.225 442.96 276.554 C 442.219 274.788 442.128 273.723 442.496 271.124 C 442.667 269.918 442.687 269.109 442.556 268.635 C 442.45 268.249 442.411 267.088 442.471 266.055 C 442.578 264.206 442.569 264.155 441.862 262.809 C 441.468 262.057 441.081 261.152 441.003 260.797 C 440.925 260.442 440.545 259.862 440.159 259.508 C 439.514 258.917 439.471 258.807 439.638 258.169 C 439.782 257.617 439.722 257.233 439.348 256.309 C 439.089 255.669 438.877 255.024 438.877 254.876 C 438.877 254.727 438.75 254.432 438.594 254.218 C 438.325 253.852 438.263 253.883 437.373 254.84 C 436.343 255.946 436.31 256.169 436.829 258.489 C 437.16 259.972 437.513 261.693 437.558 262.043 C 437.677 262.966 437.912 264.033 438.09 264.469 C 438.202 264.742 438.374 265.663 438.471 266.517 C 438.569 267.372 438.801 268.392 438.989 268.785 C 439.308 269.454 439.308 269.574 438.982 270.697 C 438.791 271.356 438.312 272.346 437.918 272.896 L 437.2 273.897 L 437.463 275.29 C 437.747 276.798 437.722 276.864 436.69 277.272 C 436.075 277.513 435.93 277.483 434.76 276.869 C 434.064 276.503 433.35 276.081 433.174 275.929 C 432.735 275.552 432.723 275.558 432.292 276.36 C 431.795 277.282 431.261 277.446 430.645 276.867 C 429.901 276.168 429.725 274.876 429.94 271.687 C 430.043 270.147 430.078 268.807 430.018 268.71 C 429.877 268.482 429.3 264.52 429.037 261.977 C 428.97 261.327 428.689 260.347 428.411 259.801 C 428.135 259.254 427.908 258.581 427.908 258.305 C 427.908 258.028 427.825 257.751 427.724 257.688 C 427.623 257.626 427.585 257.405 427.639 257.197 C 427.7 256.966 427.608 256.768 427.405 256.691 C 427.107 256.577 427.086 256.721 427.209 258.034 C 427.285 258.842 427.475 260.007 427.632 260.622 C 427.97 261.942 428.515 266.838 428.522 268.616 C 428.525 269.302 428.615 270.246 428.724 270.713 C 428.831 271.181 428.938 273.237 428.96 275.283 C 428.997 278.671 428.961 279.112 428.556 280.204 C 428.311 280.864 428.108 281.823 428.104 282.337 C 428.088 284.402 427.044 287.186 425.794 288.493 C 425.186 289.129 424.018 289.926 423.805 289.85 C 423.771 289.838 423.509 289.734 423.22 289.62 Z M 463.049 265.598 C 463.049 265.319 462.957 265.09 462.845 265.09 C 462.734 265.09 462.642 265.319 462.642 265.598 C 462.642 265.877 462.734 266.107 462.845 266.107 C 462.957 266.107 463.049 265.877 463.049 265.598 Z M 463.26 259.792 C 463.66 259.046 463.553 256.201 463.063 254.567 C 462.649 253.185 462.638 253.014 462.915 252.07 C 463.208 251.072 463.2 251.022 462.454 248.882 C 461.751 246.867 461.54 245.944 461.315 243.891 C 461.268 243.459 461.14 242.82 461.031 242.469 C 460.44 240.576 460.204 239.687 460.204 239.347 C 460.204 238.908 459.834 238.481 459.453 238.481 C 459.152 238.481 459.084 239.708 459.367 240.015 C 459.705 240.38 460.398 243.054 460.522 244.473 C 460.59 245.256 460.727 246.169 460.825 246.505 C 460.924 246.84 461.147 248.119 461.321 249.348 C 461.495 250.577 461.725 251.766 461.832 251.989 C 461.939 252.212 462.068 253.309 462.118 254.427 C 462.189 255.987 462.529 259.818 462.628 260.165 C 462.685 260.368 463.074 260.14 463.26 259.792 Z M 427.299 256.032 C 427.299 255.853 427.171 255.418 427.015 255.067 C 426.86 254.714 426.52 253.787 426.261 253.004 C 426.001 252.222 425.652 251.363 425.485 251.095 C 425.09 250.463 424.295 248.583 423.927 247.418 C 423.769 246.916 423.435 246.173 423.184 245.768 C 422.571 244.777 420.818 242.863 420.665 243.017 C 420.597 243.084 420.782 243.648 421.076 244.269 C 421.37 244.89 421.611 245.498 421.611 245.619 C 421.611 245.741 421.787 246.172 422.002 246.578 C 422.217 246.985 422.45 247.578 422.52 247.899 C 422.59 248.219 423.147 248.989 423.759 249.612 C 424.371 250.233 424.926 250.977 424.992 251.264 C 425.059 251.551 425.407 252.38 425.765 253.107 C 426.125 253.832 426.537 254.861 426.681 255.392 C 426.936 256.322 427.299 256.699 427.299 256.032 Z M 437.252 251.793 C 437.252 251.119 435.895 247.742 434.962 246.098 C 434.835 245.875 434.465 245.144 434.138 244.473 C 433.185 242.514 432.164 240.891 431.2 239.802 C 430.333 238.822 429.399 238.142 429.196 238.344 C 429.034 238.507 429.904 241.103 430.528 242.319 C 430.85 242.946 431.261 243.778 431.444 244.169 C 431.626 244.56 432.131 245.519 432.566 246.302 C 433.498 247.975 433.65 248.284 434.466 250.161 C 435.197 251.842 435.345 251.959 437.1 252.267 C 437.183 252.282 437.252 252.068 437.252 251.793 Z M 428.518 237.084 C 428.518 236.987 428.38 236.793 428.213 236.653 C 427.965 236.448 427.908 236.456 427.908 236.696 C 427.908 236.858 427.969 237.053 428.043 237.127 C 428.236 237.32 428.518 237.295 428.518 237.084 Z M 458.294 233.378 C 458.137 232.393 457.817 231.723 457.575 231.873 C 457.237 232.082 457.921 234.216 458.325 234.216 C 458.382 234.216 458.369 233.839 458.294 233.378 Z M 415.92 232.796 C 415.914 232.27 414.485 231.158 413.492 230.905 C 413.216 230.835 412.783 230.829 412.53 230.893 L 412.069 231.009 L 412.625 231.795 C 412.931 232.228 413.319 232.595 413.486 232.61 C 413.654 232.625 413.9 232.65 414.033 232.665 C 414.165 232.68 414.465 232.897 414.699 233.148 C 415.06 233.534 415.184 233.565 415.524 233.353 C 415.744 233.215 415.922 232.964 415.92 232.796 Z M 394.934 231.813 C 395.036 231.42 395.992 230.763 396.46 230.763 C 396.614 230.763 396.939 230.903 397.182 231.073 C 397.548 231.329 398.643 231.396 403.474 231.455 C 407.089 231.5 409.538 231.613 409.888 231.753 C 410.368 231.943 410.471 231.923 410.567 231.624 C 410.63 231.429 410.775 231.019 410.89 230.712 C 411.223 229.819 410.897 229.575 408.408 228.857 C 406.646 228.348 404.545 227.898 404.387 227.994 C 404.309 228.043 403.421 228.145 402.415 228.22 C 401.41 228.296 400.176 228.446 399.674 228.553 C 399.171 228.662 398.364 228.836 397.88 228.941 C 397.397 229.046 396.405 229.174 395.675 229.227 C 394.36 229.322 393.398 229.729 393.355 230.208 C 393.307 230.731 393.425 231.488 393.608 231.829 C 393.864 232.308 394.808 232.298 394.934 231.813 Z M 457.455 230.077 C 457.379 229.568 457.188 229.043 457.03 228.913 C 456.788 228.712 456.762 228.828 456.862 229.663 C 456.972 230.576 457.299 231.299 457.506 231.091 C 457.555 231.043 457.532 230.587 457.455 230.077 Z M 455.939 225.994 C 455.939 225.829 455.514 224.893 454.995 223.913 C 454.475 222.932 453.867 221.764 453.645 221.318 C 453.175 220.373 451.715 218.026 451.275 217.509 C 450.887 217.051 450.455 217.052 450.455 217.51 C 450.455 217.93 451.921 220.453 453.497 222.746 C 454.11 223.636 454.814 224.798 455.062 225.329 C 455.502 226.268 455.939 226.599 455.939 225.994 Z M 394.12 221.216 C 394.713 220.881 395.365 220.607 395.568 220.607 C 395.77 220.607 396.023 220.52 396.13 220.414 C 396.68 219.865 402.035 218.396 403.94 218.272 C 404.33 218.246 405.885 218.085 407.393 217.913 C 409.295 217.698 410.445 217.659 411.15 217.788 C 413.494 218.213 413.797 218.224 414.078 217.886 C 414.459 217.427 414.791 217.474 416.058 218.169 C 416.67 218.505 417.597 218.881 418.12 219.005 C 418.644 219.13 419.712 219.528 420.494 219.89 C 421.361 220.293 422.193 220.536 422.627 220.516 C 423.018 220.498 423.566 220.628 423.845 220.808 C 425.38 221.793 426.071 221.831 426.795 220.971 L 427.343 220.319 L 426.82 219.904 C 426.105 219.336 423.815 218.163 423.43 218.166 C 423.256 218.168 423.027 218.086 422.921 217.984 C 422.815 217.883 421.723 217.508 420.494 217.153 C 418.882 216.688 417.835 216.507 416.736 216.503 C 415.824 216.502 414.724 216.347 413.995 216.118 C 412.645 215.696 412.04 215.64 411.75 215.913 C 411.352 216.286 406.889 216.554 405.729 216.275 C 404.77 216.043 401.192 216.774 399.877 217.469 C 399.374 217.735 398.182 218.085 397.228 218.247 C 395.833 218.483 395.159 218.733 393.792 219.523 C 391.894 220.619 391.53 221.008 391.941 221.503 C 392.333 221.976 392.907 221.9 394.12 221.216 Z M 449.033 215.569 C 449.033 215.48 448.93 215.304 448.806 215.18 C 448.681 215.055 448.474 214.74 448.343 214.479 C 448.213 214.218 447.98 214.005 447.825 214.005 C 447.3 214.005 447.392 214.448 448.05 215.092 C 448.695 215.723 449.033 215.887 449.033 215.569 Z M 446.555 212.663 C 446.622 212.087 446.301 211.636 444.666 210.008 C 442.366 207.718 437.152 203.544 436.592 203.544 C 436.082 203.544 435.384 203.16 435.056 202.699 C 434.91 202.493 434.621 202.325 434.414 202.325 C 434.206 202.325 433.823 202.136 433.562 201.905 C 432.866 201.288 430.551 200.307 429.779 200.3 C 429.411 200.297 428.76 200.115 428.33 199.896 C 427.313 199.377 425.475 198.779 423.947 198.471 C 423.277 198.335 422.511 198.138 422.245 198.033 C 421.979 197.928 421.72 197.884 421.668 197.935 C 421.616 197.987 421.148 197.893 420.628 197.727 C 419.027 197.216 416.66 196.643 416.14 196.64 L 415.645 196.638 L 416.184 197.197 C 417.171 198.22 420.011 199.511 422.119 199.894 C 422.901 200.037 423.724 200.266 423.947 200.405 C 424.17 200.543 424.785 200.718 425.314 200.792 C 425.841 200.866 426.325 201.011 426.389 201.113 C 426.64 201.521 429.153 202.758 431.165 203.463 C 433.209 204.181 434.723 204.906 436.236 205.894 C 436.627 206.149 437.482 206.511 438.136 206.698 C 439.009 206.948 439.408 207.183 439.636 207.579 C 439.807 207.878 440.491 208.522 441.156 209.012 C 441.821 209.501 442.414 210.025 442.471 210.176 C 442.53 210.327 442.704 210.45 442.86 210.45 C 443.015 210.45 443.142 210.585 443.142 210.75 C 443.142 210.915 443.361 211.193 443.629 211.369 C 443.896 211.544 444.161 211.862 444.216 212.074 C 444.344 212.563 445.55 213.318 446.087 213.247 C 446.356 213.211 446.515 213.013 446.555 212.663 Z M 434.002 211.263 C 433.401 210.676 432.983 210.487 432.99 210.806 C 432.995 211.119 433.318 211.452 433.805 211.646 C 434.624 211.973 434.659 211.905 434.002 211.263 Z M 391.713 210.622 C 391.859 210.415 392.125 210.248 392.304 210.248 C 392.483 210.248 393.114 209.882 393.705 209.434 C 394.297 208.988 394.996 208.622 395.26 208.622 C 395.523 208.622 396.19 208.408 396.741 208.146 C 397.293 207.884 398.247 207.507 398.861 207.308 C 399.476 207.108 400.207 206.852 400.486 206.737 C 400.94 206.549 401.627 206.409 403.635 206.095 C 403.97 206.043 405.775 205.936 407.646 205.858 C 409.518 205.78 411.049 205.636 411.049 205.538 C 411.049 205.438 411.215 205.447 411.417 205.555 C 411.62 205.663 412.693 205.771 413.804 205.793 C 415.645 205.831 418.639 206.279 420.697 206.826 C 421.144 206.944 421.738 207.077 422.017 207.12 C 423.718 207.383 426.74 208.536 427.304 209.135 C 427.581 209.43 428.44 209.826 429.509 210.153 C 430.471 210.446 431.48 210.775 431.749 210.883 C 432.106 211.027 432.284 211.009 432.406 210.816 C 432.82 210.164 432.475 209.812 431.158 209.538 C 430.767 209.458 430.265 209.229 430.041 209.032 C 429.817 208.834 428.995 208.56 428.213 208.422 C 427.43 208.283 426.7 208.065 426.588 207.936 C 426.285 207.588 425.271 206.951 424.353 206.532 C 423.906 206.328 423.312 205.944 423.033 205.679 C 422.495 205.169 420.996 204.568 420.252 204.563 C 420.008 204.561 419.75 204.468 419.681 204.357 C 419.612 204.245 419.252 204.153 418.88 204.153 C 418.509 204.153 417.943 204.017 417.623 203.85 C 417.303 203.683 416.878 203.546 416.679 203.545 C 416.48 203.544 415.993 203.408 415.596 203.243 C 415.1 203.035 413.833 202.913 411.512 202.846 C 408.47 202.758 408.07 202.788 407.326 203.147 C 406.874 203.365 406.205 203.544 405.84 203.544 C 405.475 203.544 404.956 203.645 404.685 203.768 C 404.353 203.92 404.07 203.927 403.813 203.79 C 403.18 203.455 402.058 203.942 401.726 204.696 C 401.43 205.368 400.891 205.633 400.185 205.457 C 399.933 205.393 399.595 205.518 399.316 205.777 C 399.066 206.01 398.861 206.105 398.861 205.989 C 398.861 205.873 398.756 205.778 398.628 205.778 C 398.29 205.778 396.22 206.816 396.22 206.985 C 396.22 207.15 394.64 208.216 394.396 208.216 C 393.599 208.216 390.533 210.625 390.533 211.252 C 390.533 211.563 391.358 211.122 391.713 210.622 Z M 384.337 202.173 C 385.987 200.779 387.459 199.685 387.681 199.685 C 387.815 199.685 388.946 199.285 390.196 198.796 C 391.446 198.307 393.199 197.703 394.091 197.453 C 394.983 197.203 396.033 196.908 396.424 196.799 C 397.123 196.604 397.761 196.488 400.588 196.038 C 401.37 195.913 402.894 195.792 403.974 195.768 C 406.024 195.722 406.515 195.561 405.923 195.129 C 405.371 194.725 397.558 194.993 395.169 195.498 C 393.562 195.837 393.41 195.918 393.166 196.556 C 392.94 197.15 392.565 197.191 392.42 196.638 C 392.302 196.186 391.93 196.122 391.32 196.449 C 391.001 196.619 390.965 196.728 391.147 196.948 C 391.425 197.283 391.245 197.653 390.804 197.653 C 390.57 197.653 390.522 197.523 390.617 197.146 C 390.732 196.686 390.685 196.638 390.111 196.638 C 389.564 196.638 388.406 197.113 388.096 197.464 C 388.04 197.527 387.583 197.859 387.08 198.203 C 386.005 198.937 385.309 199.688 384.562 200.921 C 384.264 201.414 383.874 202.023 383.696 202.275 C 383.261 202.893 383.535 202.85 384.337 202.173 Z M 388.299 198.364 C 388.575 198.032 389.111 197.95 389.111 198.241 C 389.111 198.428 388.63 198.669 388.257 198.669 C 388.13 198.669 388.145 198.549 388.299 198.364 Z M 415.415 196.638 C 415.347 196.527 415.159 196.434 414.998 196.434 C 414.836 196.434 414.705 196.527 414.705 196.638 C 414.705 196.749 414.893 196.841 415.123 196.841 C 415.354 196.841 415.485 196.749 415.415 196.638 Z M 410.338 195.094 C 410.338 194.778 409.283 194.773 408.371 195.086 C 407.519 195.377 407.547 195.496 408.51 195.673 C 409.009 195.766 410.338 195.344 410.338 195.094 Z M 345.397 287.244 C 344.842 287.066 343.788 286.386 343.181 285.814 C 342.202 284.893 341.251 281.197 341.619 279.747 C 341.906 278.617 342.494 278.405 344.888 278.573 C 347.644 278.767 347.928 278.817 349.016 279.3 C 349.563 279.543 350.376 279.82 350.823 279.914 C 351.27 280.008 352.138 280.268 352.752 280.492 C 353.366 280.716 354.714 281.048 355.746 281.231 C 358.38 281.697 360.282 282.492 360.527 283.231 C 360.768 283.958 360.412 284.379 358.981 285.056 C 357.314 285.844 356.066 286.178 353.565 286.504 C 352.28 286.672 351.001 286.858 350.721 286.918 C 350.442 286.978 349.756 287.076 349.198 287.136 C 346.878 287.384 345.918 287.411 345.397 287.244 Z M 254.773 237.568 C 254.709 237.399 254.54 237.261 254.397 237.258 C 254.052 237.251 253.423 235.968 253.613 235.663 C 253.94 235.133 255.539 236.977 255.31 237.618 C 255.187 237.963 254.916 237.938 254.773 237.568 Z M 354.784 220.911 C 354.645 220.743 354.417 220.607 354.279 220.607 C 354.141 220.607 353.681 220.333 353.26 219.997 C 352.839 219.662 352.361 219.388 352.198 219.388 C 351.753 219.388 350.801 218.632 349.256 217.052 C 348.189 215.96 347.88 215.513 347.923 215.126 C 347.991 214.508 348.767 214.186 349.502 214.471 C 350.193 214.738 350.286 214.763 351.31 214.954 C 352.639 215.203 354.56 216.202 355.621 217.198 C 356.432 217.958 356.581 218.225 356.708 219.145 C 356.821 219.971 356.781 220.324 356.526 220.713 C 356.146 221.292 355.19 221.4 354.784 220.911 Z" style="fill:#000000;fill-opacity:1"/></svg>