<svg xmlns="http://www.w3.org/2000/svg" width="1169.895px" height="776.546px" viewBox="0 0 640 480"><g transform="matrix(0.547058, 0, 0, 0.618122, -0.021343, -155.426102)"><rect width="1169.895" height="776.546" x="0.039" y="251.449" style="stroke: rgb(158, 135, 57); fill: rgb(228, 5, 68); paint-order: stroke; stroke-width: 14px;"/><path fill="#fff" d="M756.3703 806.24098c0 17.673-14.3269 32-32 32h-108c-17.6731 0-32 14.3268-32 32 0-17.6732-14.3269-32-32-32h-110c-17.6731 0-32-14.327-32-32V409.24085h346z"/><path fill="#1e5da8" d="M756.4953 806.61598c0 17.673-14.3269 32-32 32h-108c-17.6731 0-32 14.3268-32 32 0-17.6732-14.3269-32-32-32h-110c-17.6731 0-32-14.327-32-32v-73.925l346-253.14424z"/><path fill="#78b82a" d="m409.3006 682.29138 272.5-272.50003 74.3553.34138 1.3249 141.76736-286.7857 286.78579-33.2704-.2098c-18.5775-2.4438-23.0096-14.532-27.2536-26.7486z"/><path fill="none" stroke="#9e8739" stroke-width="6" d="M758.25 808.19528c0 17.673-14.3269 31.9999-32 31.9999h-108c-17.6731 0-32 14.3268-32 32 0-17.6732-14.3269-32-32-32h-110c-17.6731 0-32-14.3269-32-31.9999V411.19515h346z"/></g></svg>