<svg xmlns="http://www.w3.org/2000/svg" viewBox="0 0 640 480"><defs><clipPath id="it72-a"><path d="M 218.294 96.77 L 218.294 331.249 C 218.294 356.452 239.083 367.202 262.477 368.776 C 275.349 369.642 291.328 370.705 303.37 371.985 C 315.286 373.266 320.04 383.219 320.04 383.219 C 320.04 383.219 324.794 373.266 336.71 371.985 C 348.752 370.705 364.73 369.642 377.602 368.776 C 400.996 367.201 421.731 356.452 421.731 331.249 L 421.731 96.77 L 218.294 96.77 Z"/></clipPath></defs><rect width="640" height="480" fill="#16246b"/><path fill="#fff" d="M 218.294 96.77 L 218.294 331.249 C 218.294 356.452 239.083 367.201 262.477 368.776 C 275.349 369.642 291.327 370.705 303.369 371.985 C 315.285 373.266 320.039 383.218 320.039 383.218 C 320.039 383.218 324.793 373.266 336.709 371.985 C 348.751 370.705 364.73 369.642 377.602 368.776 C 400.996 367.201 421.731 356.452 421.731 331.249 L 421.731 96.77 L 218.294 96.77 Z"/><line x1="170.973" x2="462.46" y1="19.449" y2="438.404" fill="none" stroke="#d20019" stroke-width="45.853" clip-path="url(#it72-a)"/><path fill="none" stroke="#000" stroke-width="1.4855" d="M 218.294 96.77 L 218.294 331.249 C 218.294 356.452 239.083 367.201 262.477 368.776 C 275.349 369.642 291.327 370.705 303.369 371.985 C 315.285 373.266 320.039 383.218 320.039 383.218 C 320.039 383.218 324.793 373.266 336.709 371.985 C 348.751 370.705 364.73 369.642 377.602 368.776 C 400.996 367.201 421.731 356.452 421.731 331.249 L 421.731 96.77 L 218.294 96.77 Z"/></svg>