<svg xmlns="http://www.w3.org/2000/svg" viewBox="0 0 640 480"><rect width="640" height="480" style="fill:#2c4878;fill-opacity:1;fill-rule:evenodd;stroke:none"/><path d="M 418.311 350.388 C 418.311 354.528 415.326 357.884 411.643 357.884 C 386.947 357.884 362.251 357.884 337.554 357.884 C 327.734 357.884 319.773 366.834 319.773 377.874 C 319.773 366.834 311.812 357.884 301.991 357.884 C 278.646 357.884 251.254 357.884 229.384 357.884 C 225.701 357.884 222.716 354.528 222.716 350.388 L 222.716 96.346 L 418.311 96.346 L 418.311 350.388 Z" style="fill:#c5c5c5;fill-opacity:1;stroke:none"/><path d="M 417.798 353.277 C 417.798 357.417 414.812 360.773 411.13 360.773 C 386.433 360.773 361.737 360.773 337.041 360.773 C 327.22 360.773 319.259 369.723 319.259 380.764 C 319.259 369.723 311.298 360.773 301.478 360.773 C 278.133 360.774 250.74 360.773 228.87 360.773 C 225.188 360.773 222.202 357.417 222.202 353.277 L 222.202 99.235 L 417.798 99.235 L 417.798 353.277 Z" style="fill:none;stroke:#2c4878;stroke-width:8;stroke-linecap:butt;stroke-linejoin:miter;stroke-miterlimit:4;stroke-opacity:1;stroke-dasharray:none;stroke-dashoffset:0"/><path d="M 419.275 252.708 C 416.305 255.429 412.515 257.061 408.386 257.061 C 404.254 257.061 400.461 255.427 397.361 252.805 C 394.336 250.436 390.726 248.971 386.813 248.971 C 382.851 248.971 379.201 250.472 376.191 252.869 C 373.13 255.442 369.353 257.061 365.239 257.061 C 361.1 257.061 357.3 255.421 354.201 252.793 C 351.182 250.433 347.576 248.971 343.666 248.971 C 339.703 248.971 336.052 250.474 333.064 252.851 C 330.019 255.427 326.226 257.061 322.093 257.061 C 317.955 257.061 314.157 255.422 311.084 252.818 C 308.082 250.452 304.455 248.971 300.52 248.971 C 296.574 248.971 292.937 250.461 289.915 252.855 C 286.836 255.442 283.059 257.061 278.947 257.061 C 274.787 257.061 270.971 255.405 267.892 252.777 C 264.898 250.436 261.288 248.971 257.374 248.971 C 253.432 248.971 249.799 250.457 246.783 252.842 C 243.705 255.436 239.922 257.061 235.801 257.061 C 231.521 257.061 227.605 255.308 224.589 252.406 L 224.121 261.646 C 227.194 264.827 231.296 266.768 235.801 266.768 C 239.923 266.768 243.707 265.143 246.773 262.559 C 249.78 260.173 253.422 258.679 257.374 258.679 C 261.291 258.679 264.903 260.147 267.931 262.521 C 271.032 265.139 274.821 266.768 278.947 266.768 C 283.083 266.768 286.879 265.132 289.942 262.538 C 292.94 260.167 296.576 258.679 300.52 258.679 C 304.445 258.679 308.064 260.153 311.067 262.511 C 314.146 265.125 317.949 266.768 322.093 266.768 C 326.206 266.768 329.983 265.15 333.079 262.547 C 336.111 260.157 339.735 258.679 343.666 258.679 C 347.581 258.679 351.191 260.145 354.175 262.476 C 357.246 265.105 361.07 266.768 365.239 266.768 C 369.366 266.768 373.155 265.139 376.223 262.549 C 379.229 260.169 382.866 258.679 386.813 258.679 C 390.729 258.679 394.341 260.146 397.384 262.633 C 400.428 265.121 404.235 266.768 408.386 266.768 C 412.509 266.768 416.295 265.142 419.263 262.427 L 419.275 252.708 Z" style="fill:#2c4878;fill-opacity:1;stroke:none"/><path d="M 419.275 233.293 C 416.305 236.014 412.515 237.645 408.386 237.645 C 404.254 237.645 400.461 236.011 397.361 233.389 C 394.336 231.021 390.726 229.555 386.813 229.555 C 382.851 229.555 379.201 231.057 376.191 233.453 C 373.13 236.026 369.353 237.645 365.239 237.645 C 361.1 237.645 357.3 236.005 354.201 233.377 C 351.182 231.018 347.576 229.555 343.666 229.555 C 339.703 229.555 336.052 231.058 333.064 233.435 C 330.019 236.011 326.226 237.645 322.093 237.645 C 317.955 237.645 314.157 236.006 311.084 233.402 C 308.082 231.036 304.455 229.555 300.52 229.555 C 296.574 229.555 292.937 231.045 289.915 233.439 C 286.836 236.027 283.059 237.645 278.947 237.645 C 274.787 237.645 270.971 235.989 267.892 233.361 C 264.898 231.021 261.288 229.555 257.374 229.555 C 253.432 229.555 249.799 231.042 246.783 233.426 C 243.705 236.02 239.922 237.645 235.801 237.645 C 230.493 237.645 225.745 234.949 222.579 230.708 L 222.82 240.732 C 225.983 244.79 230.626 247.353 235.801 247.353 C 239.923 247.353 243.707 245.727 246.773 243.143 C 249.78 240.757 253.422 239.263 257.374 239.263 C 261.291 239.263 264.903 240.731 267.931 243.105 C 271.032 245.723 274.821 247.353 278.947 247.353 C 283.083 247.353 286.879 245.716 289.942 243.122 C 292.94 240.752 296.576 239.263 300.52 239.263 C 304.445 239.263 308.064 240.737 311.067 243.095 C 314.146 245.709 317.949 247.353 322.093 247.353 C 326.206 247.353 329.983 245.734 333.079 243.132 C 336.111 240.741 339.735 239.263 343.666 239.263 C 347.581 239.263 351.191 240.729 354.175 243.06 C 357.246 245.689 361.07 247.353 365.239 247.353 C 369.366 247.353 373.155 245.723 376.223 243.133 C 379.229 240.753 382.866 239.263 386.813 239.263 C 390.729 239.263 394.341 240.731 397.384 243.218 C 400.428 245.705 404.235 247.353 408.386 247.353 C 412.509 247.353 416.295 245.726 419.263 243.011 L 419.275 233.293 Z" style="fill:#2c4878;fill-opacity:1;stroke:none"/><path d="M 419.275 213.877 C 416.305 216.598 412.515 218.229 408.386 218.229 C 404.254 218.229 400.461 216.596 397.361 213.973 C 394.336 211.605 390.726 210.139 386.813 210.139 C 382.851 210.139 379.201 211.641 376.191 214.037 C 373.13 216.61 369.353 218.229 365.239 218.229 C 361.1 218.229 357.3 216.589 354.201 213.961 C 351.182 211.602 347.576 210.139 343.666 210.139 C 339.703 210.139 336.052 211.642 333.064 214.019 C 330.019 216.595 326.226 218.229 322.093 218.229 C 317.955 218.229 314.157 216.59 311.084 213.986 C 308.082 211.62 304.455 210.139 300.52 210.139 C 296.574 210.139 292.937 211.629 289.915 214.023 C 286.836 216.611 283.059 218.229 278.947 218.229 C 274.787 218.229 270.971 216.573 267.892 213.945 C 264.898 211.605 261.288 210.139 257.374 210.139 C 253.432 210.139 249.799 211.626 246.783 214.01 C 243.705 216.604 239.922 218.229 235.801 218.229 C 230.747 218.229 226.201 215.785 223.045 211.891 L 222.745 221.22 C 225.91 225.334 230.585 227.937 235.801 227.937 C 239.923 227.937 243.707 226.311 246.773 223.727 C 249.78 221.342 253.422 219.847 257.374 219.847 C 261.291 219.847 264.903 221.315 267.931 223.689 C 271.032 226.308 274.821 227.937 278.947 227.937 C 283.083 227.937 286.879 226.3 289.942 223.706 C 292.94 221.336 296.576 219.847 300.52 219.847 C 304.445 219.847 308.064 221.321 311.067 223.679 C 314.146 226.294 317.949 227.937 322.093 227.937 C 326.206 227.937 329.983 226.318 333.079 223.716 C 336.111 221.326 339.735 219.847 343.666 219.847 C 347.581 219.847 351.191 221.313 354.175 223.645 C 357.246 226.274 361.07 227.937 365.239 227.937 C 369.366 227.937 373.155 226.308 376.223 223.717 C 379.229 221.337 382.866 219.847 386.813 219.847 C 390.729 219.847 394.341 221.315 397.384 223.802 C 400.428 226.289 404.235 227.937 408.386 227.937 C 412.509 227.937 416.295 226.31 419.263 223.596 L 419.275 213.877 Z" style="fill:#2c4878;fill-opacity:1;stroke:none"/><path d="M 419.275 194.461 C 416.305 197.182 412.515 198.813 408.386 198.813 C 404.254 198.813 400.461 197.18 397.361 194.558 C 394.336 192.189 390.726 190.723 386.813 190.723 C 382.851 190.723 379.201 192.225 376.191 194.622 C 373.13 197.195 369.353 198.813 365.239 198.813 C 361.1 198.813 357.3 197.174 354.201 194.546 C 351.182 192.186 347.576 190.723 343.666 190.723 C 339.703 190.723 336.052 192.226 333.064 194.604 C 330.019 197.179 326.226 198.813 322.093 198.813 C 317.955 198.813 314.157 197.175 311.084 194.57 C 308.082 192.205 304.455 190.723 300.52 190.723 C 296.574 190.723 292.937 192.213 289.915 194.607 C 286.836 197.195 283.059 198.813 278.947 198.813 C 274.787 198.813 270.971 197.158 267.892 194.529 C 264.898 192.189 261.288 190.723 257.374 190.723 C 253.432 190.723 249.799 192.21 246.783 194.595 C 243.705 197.189 239.922 198.813 235.801 198.813 C 230.627 198.813 225.986 196.252 222.822 192.196 L 222.861 201.953 C 226.023 205.981 230.648 208.521 235.801 208.521 C 239.923 208.521 243.707 206.896 246.773 204.312 C 249.78 201.926 253.422 200.431 257.374 200.431 C 261.291 200.431 264.903 201.899 267.931 204.274 C 271.032 206.892 274.821 208.521 278.947 208.521 C 283.083 208.521 286.879 206.885 289.942 204.291 C 292.94 201.92 296.576 200.431 300.52 200.431 C 304.445 200.431 308.064 201.905 311.067 204.263 C 314.146 206.878 317.949 208.521 322.093 208.521 C 326.206 208.521 329.983 206.903 333.079 204.3 C 336.111 201.91 339.735 200.431 343.666 200.431 C 347.581 200.431 351.191 201.898 354.175 204.229 C 357.246 206.858 361.07 208.521 365.239 208.521 C 369.366 208.521 373.155 206.892 376.223 204.301 C 379.229 201.922 382.866 200.431 386.813 200.431 C 390.729 200.431 394.341 201.899 397.384 204.386 C 400.428 206.873 404.235 208.521 408.386 208.521 C 412.509 208.521 416.295 206.894 419.263 204.18 L 419.275 194.461 Z" style="fill:#2c4878;fill-opacity:1;stroke:none"/></svg>