<svg xmlns="http://www.w3.org/2000/svg" viewBox="0 0 640 480"><rect width="640" height="480" style="fill:#0a4fa2;fill-opacity:1;fill-rule:evenodd;stroke:none"/><path d="M 200.381 108.436 C 202.974 108.083 204.439 107.834 204.777 107.688 C 205.008 107.584 205.221 107.273 205.416 106.754 L 205.416 106.411 C 205.416 105.892 205.487 104.014 205.629 100.775 C 205.665 99.861 205.683 98.969 205.683 98.097 L 205.603 94.391 L 205.656 90.187 L 205.629 82.37 L 205.656 76.764 C 205.674 74.398 205.518 72.955 205.19 72.436 C 204.861 71.917 204.013 71.548 202.645 71.33 C 201.278 71.112 200.523 70.951 200.381 70.847 C 200.239 70.744 200.167 70.578 200.167 70.349 C 200.167 70.204 200.194 70.017 200.247 69.789 C 200.425 69.602 200.834 69.498 201.473 69.477 C 201.562 69.477 201.806 69.451 202.206 69.399 C 202.605 69.348 202.983 69.322 203.338 69.322 L 205.523 69.322 L 212.53 69.228 C 216.491 69.228 219.266 69.571 220.856 70.256 C 222.446 70.941 223.711 72.098 224.653 73.728 C 225.594 75.358 226.065 77.18 226.065 79.194 C 226.065 83.014 224.351 85.931 220.923 87.944 C 220.336 88.297 219.875 88.609 219.537 88.879 C 220.141 90.374 220.985 92.169 222.068 94.266 L 225.452 101.055 C 226.802 103.546 227.734 105.109 228.25 105.742 C 228.765 106.375 229.391 106.899 230.128 107.315 C 230.865 107.73 232.104 108.124 233.845 108.498 C 233.862 108.706 233.871 108.872 233.871 108.996 C 233.871 109.121 233.863 109.277 233.845 109.463 C 231.411 109.505 228.56 109.526 225.292 109.526 C 225.061 109.526 224.742 109.505 224.333 109.463 C 223.072 106.64 221.589 103.536 219.884 100.152 L 215.94 91.744 C 215.407 90.872 214.968 90.327 214.622 90.109 C 214.275 89.891 213.818 89.782 213.249 89.782 L 210.985 89.813 L 210.239 89.782 C 210.185 90.446 210.159 91.806 210.159 93.861 L 210.159 104.512 C 210.141 104.906 210.212 105.456 210.372 106.162 C 210.514 106.557 210.758 106.873 211.105 107.112 C 211.451 107.351 212.45 107.709 214.102 108.187 L 215.194 108.498 C 215.336 108.706 215.407 108.986 215.407 109.339 C 214.928 109.443 214.59 109.495 214.395 109.495 C 212.796 109.495 211.669 109.474 211.011 109.432 C 210.674 109.412 210.399 109.401 210.185 109.401 L 206.562 109.464 L 203.018 109.432 C 202.858 109.432 202.05 109.464 200.594 109.526 L 200.061 109.401 L 200.008 109.09 C 200.008 108.903 200.132 108.685 200.381 108.436 L 200.381 108.436 Z M 210.292 88.069 C 210.772 88.09 211.127 88.1 211.358 88.1 C 212.637 88.1 214.111 87.924 215.781 87.571 C 216.953 87.301 217.903 86.86 218.631 86.247 C 219.36 85.635 219.968 84.726 220.456 83.522 C 220.945 82.318 221.189 81.072 221.189 79.785 C 221.189 78.373 220.807 76.879 220.043 75.301 C 219.457 74.097 218.467 73.09 217.073 72.28 C 215.678 71.47 214.004 71.065 212.051 71.065 C 211.571 71.065 210.949 71.097 210.186 71.159 C 210.115 72.238 210.079 73.069 210.079 73.65 L 210.212 79.474 L 210.185 81.872 C 210.185 83.491 210.221 85.557 210.292 88.069 L 210.292 88.069 Z" style="font-size:72.7480545px;font-style:normal;font-variant:normal;font-weight:normal;font-stretch:normal;text-indent:0;text-align:start;text-decoration:none;line-height:125%;letter-spacing:0px;word-spacing:0px;text-transform:none;direction:ltr;block-progression:tb;writing-mode:lr-tb;text-anchor:start;baseline-shift:baseline;color:#000000;fill:#deb308;fill-opacity:1;fill-rule:nonzero;stroke:#deb308;stroke-width:0.50519478;stroke-miterlimit:4;stroke-opacity:1;stroke-dasharray:none;marker:none;visibility:visible;display:inline;overflow:visible;enable-background:accumulate;font-family:Garamond;-inkscape-font-specification:Garamond"/><path d="M 234.5 108.587 C 234.65 108.399 234.778 108.284 234.883 108.242 C 235.138 108.138 235.574 108.055 236.19 107.992 C 237.646 107.867 238.548 107.679 238.893 107.429 C 239.103 107.012 239.208 106.427 239.208 105.676 L 239.186 103.486 L 239.208 95.538 L 239.163 91.782 L 239.186 83.928 L 239.073 75.009 C 239.058 72.882 238.961 71.682 238.78 71.411 C 238.51 71.014 237.706 70.785 236.37 70.722 C 235.799 70.702 235.296 70.639 234.86 70.535 C 234.665 70.389 234.567 70.201 234.567 69.971 C 234.567 69.804 234.605 69.606 234.68 69.377 C 234.815 69.272 234.935 69.22 235.041 69.22 C 235.251 69.22 235.506 69.231 235.806 69.251 C 236.693 69.356 237.609 69.408 238.555 69.408 L 240.222 69.345 L 244.187 69.47 C 246.17 69.471 247.717 69.439 248.828 69.377 C 249.94 69.314 250.691 69.283 251.081 69.283 C 251.427 69.283 252.283 69.325 253.65 69.408 L 256.849 69.377 L 257.232 69.471 L 259.102 69.377 L 259.327 69.533 C 259.402 69.7 259.455 69.878 259.485 70.065 C 259.485 70.357 259.451 70.806 259.383 71.411 C 259.316 72.016 259.282 72.391 259.282 72.537 C 259.282 74.707 259.334 76.543 259.44 78.045 C 259.424 78.17 259.379 78.254 259.304 78.295 C 259.139 78.295 258.989 78.264 258.854 78.201 C 258.688 77.805 258.467 77.106 258.189 76.105 C 257.911 75.103 257.494 73.946 256.939 72.631 C 256.563 71.755 256.27 71.234 256.06 71.067 C 255.85 70.9 255.414 70.816 254.753 70.816 C 254.618 70.816 253.935 70.796 252.703 70.754 C 252.373 70.733 252.05 70.722 251.735 70.722 L 245.314 70.91 L 244.75 70.91 C 243.924 70.91 243.429 71.056 243.264 71.348 C 243.008 71.849 242.881 73.32 242.881 75.761 C 242.881 76.011 242.918 78.514 242.993 83.271 L 242.993 87.621 C 243.158 87.683 243.339 87.714 243.534 87.714 L 243.917 87.714 C 244.172 87.715 244.548 87.725 245.043 87.746 C 245.824 87.788 246.35 87.808 246.62 87.808 C 246.801 87.808 246.958 87.797 247.093 87.777 C 248.716 87.694 250.803 87.652 253.357 87.652 C 254.153 87.464 254.618 87.245 254.753 86.995 C 254.979 86.619 255.148 85.639 255.26 84.053 C 255.373 82.468 255.625 81.571 256.015 81.362 C 256.21 81.362 256.39 81.414 256.556 81.518 C 256.586 81.685 256.601 81.842 256.601 81.988 C 256.601 82.134 256.586 82.374 256.556 82.708 C 256.481 83.479 256.443 85.899 256.443 89.967 C 256.443 91.052 256.484 92.262 256.567 93.597 C 256.65 94.933 256.691 95.652 256.691 95.757 C 256.691 95.944 256.668 96.195 256.623 96.508 C 256.503 96.591 256.406 96.633 256.331 96.633 L 256.173 96.633 C 255.933 96.049 255.7 95.141 255.474 93.91 C 255.084 91.803 254.675 90.484 254.247 89.952 C 253.819 89.42 253.124 89.154 252.163 89.154 C 251.952 89.154 251.569 89.17 251.014 89.201 C 250.458 89.232 249.632 89.248 248.535 89.248 L 247.071 89.248 C 244.983 89.248 243.617 89.31 242.971 89.436 L 242.948 90.468 L 242.971 96.226 L 242.948 99.856 L 242.971 103.392 C 242.986 105.52 243.083 106.751 243.264 107.085 C 243.519 107.544 244.075 107.773 244.931 107.773 L 246.305 107.742 C 246.425 107.742 246.895 107.758 247.713 107.789 C 248.532 107.82 249.542 107.836 250.743 107.836 C 253.642 107.836 255.572 107.664 256.533 107.32 C 257.495 106.975 258.287 106.365 258.91 105.489 C 259.533 104.613 260.318 102.725 261.264 99.825 C 261.55 98.97 261.835 98.542 262.121 98.542 C 262.256 98.542 262.406 98.625 262.571 98.792 C 262.136 100.858 261.888 102.214 261.828 102.86 C 261.662 104.321 261.565 105.812 261.535 107.335 C 261.535 108.024 261.415 108.597 261.174 109.056 L 260.679 109.056 L 254.348 109.15 L 251.509 109.119 L 244.751 109.244 L 242.002 109.244 C 241.657 109.244 241.334 109.255 241.033 109.275 C 238.33 109.442 236.34 109.526 235.063 109.526 C 234.838 109.526 234.684 109.473 234.601 109.369 C 234.519 109.265 234.477 109.108 234.477 108.9 L 234.5 108.587 Z" style="font-size:72.7480545px;font-style:normal;font-variant:normal;font-weight:normal;font-stretch:normal;text-indent:0;text-align:start;text-decoration:none;line-height:125%;letter-spacing:0px;word-spacing:0px;text-transform:none;direction:ltr;block-progression:tb;writing-mode:lr-tb;text-anchor:start;baseline-shift:baseline;color:#000000;fill:#deb308;fill-opacity:1;fill-rule:nonzero;stroke:#deb308;stroke-width:0.50519478;stroke-miterlimit:4;stroke-opacity:1;stroke-dasharray:none;marker:none;visibility:visible;display:inline;overflow:visible;enable-background:accumulate;font-family:Garamond;-inkscape-font-specification:Garamond"/><path d="M 299.835 71.889 L 300.133 76.506 C 300.241 77.903 300.295 78.855 300.295 79.361 L 299.537 79.513 C 298.327 76.435 296.825 74.126 295.029 72.587 C 293.233 71.048 291.035 70.279 288.436 70.279 C 285.259 70.279 282.786 70.714 281.017 71.585 C 278.453 72.82 276.26 74.967 274.437 78.025 C 272.614 81.083 271.702 84.769 271.702 89.082 C 271.702 91.573 272.036 93.811 272.704 95.795 C 273.372 97.78 274.315 99.628 275.534 101.339 C 276.752 103.051 278.192 104.534 279.852 105.79 C 280.935 106.62 282.226 107.248 283.724 107.673 C 284.573 107.896 285.836 108.007 287.515 108.007 C 288.598 108.007 289.798 107.835 291.116 107.491 C 292.434 107.146 293.427 106.686 294.095 106.109 C 294.762 105.531 295.218 104.878 295.462 104.149 C 295.706 103.42 295.827 102.003 295.827 99.896 C 295.827 96.393 295.62 94.353 295.205 93.775 C 294.789 93.198 293.481 92.819 291.279 92.636 L 290.196 92.545 L 289.465 92.576 C 289.356 92.555 289.212 92.525 289.031 92.484 L 288.625 91.725 C 288.625 91.624 288.688 91.492 288.815 91.33 C 289.753 91.168 291.793 91.087 294.934 91.087 C 295.638 91.087 296.784 91.107 298.373 91.148 L 301.161 91.269 L 303.68 91.239 C 304.167 91.239 304.754 91.259 305.44 91.3 C 305.566 91.32 305.647 91.355 305.683 91.406 C 305.719 91.457 305.737 91.543 305.737 91.664 C 305.737 91.887 305.692 92.17 305.602 92.515 C 304.844 92.697 304.257 92.788 303.842 92.788 L 302.082 92.758 C 301.486 92.758 301.008 92.991 300.647 93.456 C 300.467 93.679 300.376 94.439 300.376 95.735 L 300.403 99.714 C 300.403 102.448 300.304 104.19 300.106 104.939 C 299.997 105.385 299.772 105.784 299.429 106.139 C 299.086 106.493 298.364 106.914 297.263 107.4 C 295.692 108.108 294.266 108.584 292.985 108.827 C 290.602 109.293 288.3 109.526 286.08 109.526 C 282.506 109.526 279.577 109.015 277.294 107.992 C 275.01 106.969 273.043 105.547 271.391 103.724 C 269.739 101.901 268.562 100.058 267.858 98.195 C 266.793 95.461 266.26 92.677 266.26 89.842 C 266.26 86.298 267.095 82.83 268.765 79.437 C 270.434 76.045 273.129 73.286 276.847 71.16 C 279.464 69.661 283.02 68.912 287.515 68.912 C 290.62 68.912 293.161 69.216 295.137 69.823 C 297.114 70.431 298.68 71.119 299.835 71.889 L 299.835 71.889 Z" style="font-size:72.7480545px;font-style:normal;font-variant:normal;font-weight:normal;font-stretch:normal;text-indent:0;text-align:start;text-decoration:none;line-height:125%;letter-spacing:0px;word-spacing:0px;text-transform:none;direction:ltr;block-progression:tb;writing-mode:lr-tb;text-anchor:start;baseline-shift:baseline;color:#000000;fill:#deb308;fill-opacity:1;fill-rule:nonzero;stroke:#deb308;stroke-width:0.50519478;stroke-miterlimit:4;stroke-opacity:1;stroke-dasharray:none;marker:none;visibility:visible;display:inline;overflow:visible;enable-background:accumulate;font-family:Garamond;-inkscape-font-specification:Garamond"/><path d="M 307.796 108.526 C 308.146 108.339 308.504 108.225 308.87 108.183 C 311.306 107.975 312.699 107.595 313.049 107.043 C 313.399 106.492 313.574 103.822 313.574 99.034 L 313.551 95.755 L 313.551 92.32 L 313.455 88.542 L 313.503 86.325 L 313.479 83.889 L 313.479 81.016 L 313.431 79.736 L 313.479 78.112 C 313.495 77.737 313.503 77.3 313.503 76.801 C 313.503 75.489 313.455 74.105 313.36 72.648 C 313.296 72.356 313.208 72.075 313.097 71.804 C 312.508 71.409 311.557 71.143 310.243 71.008 C 308.93 70.873 308.186 70.722 308.011 70.555 C 307.883 70.43 307.812 70.108 307.796 69.587 L 309.802 69.587 L 316.13 69.775 C 317.753 69.775 319.918 69.712 322.625 69.587 C 322.625 69.92 322.609 70.233 322.577 70.524 C 322.259 70.628 321.725 70.743 320.977 70.868 C 319.465 71.097 318.541 71.315 318.207 71.523 C 318 71.628 317.849 71.804 317.753 72.054 C 317.594 72.429 317.499 73.126 317.467 74.146 L 317.347 78.175 L 317.443 92.07 L 317.443 97.566 C 317.411 99.294 317.395 100.47 317.395 101.095 C 317.395 103.426 317.439 104.915 317.526 105.56 C 317.614 106.205 317.765 106.669 317.98 106.95 C 318.195 107.231 318.549 107.454 319.043 107.621 C 319.775 107.85 320.348 107.975 320.762 107.996 C 321.654 108.037 322.219 108.204 322.458 108.495 C 322.505 108.766 322.529 108.995 322.529 109.182 L 322.529 109.432 C 321.081 109.494 320.014 109.526 319.329 109.526 C 318.931 109.526 318.223 109.495 317.204 109.432 L 313.909 109.494 L 308.297 109.463 L 307.843 109.463 L 307.796 108.526 Z" style="font-size:72.7480545px;font-style:normal;font-variant:normal;font-weight:normal;font-stretch:normal;text-indent:0;text-align:start;text-decoration:none;line-height:125%;letter-spacing:0px;word-spacing:0px;text-transform:none;direction:ltr;block-progression:tb;writing-mode:lr-tb;text-anchor:start;baseline-shift:baseline;color:#000000;fill:#deb308;fill-opacity:1;fill-rule:nonzero;stroke:#deb308;stroke-width:0.50519478;stroke-miterlimit:4;stroke-opacity:1;stroke-dasharray:none;marker:none;visibility:visible;display:inline;overflow:visible;enable-background:accumulate;font-family:Garamond;-inkscape-font-specification:Garamond"/><path d="M 327.018 88.955 C 327.018 86.832 327.247 84.944 327.704 83.289 C 328.161 81.635 328.93 79.84 330.013 77.905 C 331.095 75.97 332.401 74.352 333.93 73.051 C 335.46 71.75 337.578 70.601 340.283 69.602 C 342.186 68.915 344.593 68.572 347.503 68.572 C 349.462 68.572 351.379 68.863 353.254 69.446 C 355.129 70.028 356.831 70.84 358.361 71.88 C 359.891 72.921 361.421 74.523 362.951 76.687 C 364.014 78.186 364.816 79.799 365.357 81.526 C 366.066 83.794 366.421 86.135 366.421 88.549 C 366.421 91.296 366.183 93.575 365.707 95.385 C 365.231 97.196 364.434 98.985 363.315 100.754 C 362.438 102.128 360.936 103.709 358.809 105.499 C 357.391 106.706 355.628 107.679 353.52 108.418 C 351.412 109.156 349.136 109.526 346.692 109.526 C 344.21 109.526 341.999 109.203 340.059 108.558 C 338.119 107.913 336.5 107.127 335.204 106.201 C 333.907 105.275 332.573 103.907 331.202 102.097 C 329.831 100.286 328.791 98.288 328.082 96.103 C 327.373 93.918 327.018 91.535 327.018 88.955 L 327.018 88.955 Z M 346.44 108.371 C 348.007 108.371 349.635 108.126 351.323 107.637 C 353.011 107.148 354.509 106.337 355.815 105.202 C 357.121 104.068 358.142 102.778 358.879 101.332 C 359.616 99.886 360.208 98.028 360.656 95.76 C 361.104 93.492 361.328 91.223 361.328 88.955 C 361.328 86.125 360.954 83.326 360.208 80.558 C 359.63 78.456 358.688 76.578 357.382 74.924 C 356.076 73.269 354.499 71.99 352.652 71.084 C 350.805 70.179 348.837 69.727 346.748 69.726 C 345.05 69.727 343.389 70.039 341.766 70.663 C 340.143 71.287 338.809 72.083 337.764 73.051 C 336.72 74.019 335.749 75.392 334.854 77.171 C 333.958 78.951 333.277 80.912 332.811 83.055 C 332.345 85.199 332.111 87.093 332.111 88.736 C 332.111 90.464 332.345 92.42 332.811 94.605 C 333.277 96.79 333.916 98.684 334.728 100.286 C 335.54 101.888 336.538 103.309 337.722 104.547 C 338.907 105.785 340.236 106.732 341.71 107.388 C 343.184 108.043 344.761 108.371 346.44 108.371 L 346.44 108.371 Z" style="font-size:72.7480545px;font-style:normal;font-variant:normal;font-weight:normal;font-stretch:normal;text-indent:0;text-align:start;text-decoration:none;line-height:125%;letter-spacing:0px;word-spacing:0px;text-transform:none;direction:ltr;block-progression:tb;writing-mode:lr-tb;text-anchor:start;baseline-shift:baseline;color:#000000;fill:#deb308;fill-opacity:1;fill-rule:nonzero;stroke:#deb308;stroke-width:0.50519478;stroke-miterlimit:4;stroke-opacity:1;stroke-dasharray:none;marker:none;visibility:visible;display:inline;overflow:visible;enable-background:accumulate;font-family:Garamond;-inkscape-font-specification:Garamond"/><path d="M 370.054 70.545 L 370.029 69.045 C 372.63 69.045 374.535 68.962 375.743 68.795 C 376.213 68.733 376.541 68.702 376.725 68.702 C 376.876 68.702 377.103 68.713 377.405 68.733 C 378.11 69.462 378.764 70.295 379.369 71.232 C 379.503 71.419 379.654 71.627 379.822 71.856 L 385.133 79.134 L 385.889 80.259 C 386.963 81.821 387.94 83.153 388.822 84.257 C 389.703 85.361 391.419 87.662 393.97 91.16 L 399.986 99.438 C 400.574 100.25 401.329 101.26 402.252 102.468 L 402.277 101.968 C 402.176 99.073 402.126 97.543 402.126 97.376 L 402.227 95.502 L 402.176 92.566 L 402.176 91.223 C 402.176 90.369 402.118 87.735 402 83.32 C 401.983 82.716 401.916 81.576 401.799 79.9 C 401.681 78.223 401.623 76.75 401.623 75.48 C 401.623 73.189 401.514 71.857 401.295 71.482 C 401.144 71.211 400.431 70.93 399.156 70.638 C 398.853 70.618 398.383 70.555 397.746 70.451 C 396.991 70.409 396.546 70.357 396.412 70.295 C 396.277 70.232 396.143 70.055 396.009 69.764 C 396.042 69.431 396.118 69.118 396.235 68.827 C 396.688 68.66 397.133 68.577 397.57 68.577 C 398.039 68.577 398.623 68.65 399.319 68.795 C 400.016 68.941 400.641 69.014 401.195 69.014 C 401.967 69.014 403.167 68.951 404.795 68.827 C 405.718 68.743 406.355 68.702 406.708 68.702 L 407.136 68.702 L 407.085 69.67 C 406.817 69.816 406.448 69.904 405.978 69.936 C 405.508 69.967 405.071 70.055 404.669 70.201 C 404.064 70.43 403.704 70.628 403.586 70.794 C 403.183 71.336 402.982 71.888 402.982 72.45 L 403.259 82.321 L 403.46 86.85 L 403.435 88.162 L 403.586 94.44 C 403.687 98.73 403.737 102.457 403.737 105.622 C 403.737 106.31 403.704 107.799 403.637 110.089 L 402.453 110.214 C 401.866 109.381 399.844 106.757 396.386 102.343 C 395.581 101.322 395.035 100.604 394.75 100.187 L 392.585 97.095 C 391.746 95.95 391.2 95.221 390.949 94.909 C 390.697 94.596 390.512 94.367 390.395 94.221 C 388.566 91.639 386.191 88.411 383.271 84.538 C 382.482 83.497 381.324 81.873 379.796 79.665 C 378.84 78.27 378.236 77.416 377.984 77.104 C 377.732 76.792 377.388 76.438 376.952 76.042 L 376.876 77.104 C 376.876 81.165 376.96 86.766 377.128 93.909 L 377.304 104.248 C 377.321 105.123 377.363 105.966 377.43 106.778 L 378.311 107.028 C 379.906 107.215 381.475 107.497 383.019 107.871 C 383.136 107.996 383.237 108.09 383.321 108.153 L 383.296 109.339 C 383.027 109.444 382.809 109.496 382.641 109.496 C 382.457 109.496 382.23 109.475 381.962 109.433 C 380.3 109.267 378.278 109.183 375.894 109.183 C 374.216 109.183 372.739 109.235 371.464 109.339 L 371.111 109.371 C 370.96 109.371 370.742 109.35 370.457 109.308 L 370.432 108.371 L 371.086 107.996 L 372.269 107.778 C 373.327 107.59 374.099 107.382 374.585 107.153 C 374.904 107.007 375.164 106.788 375.366 106.497 C 375.55 105.06 375.643 102.957 375.643 100.187 C 375.643 98.896 375.618 96.533 375.567 93.097 L 375.567 88.849 L 375.517 79.978 C 375.483 76.021 375.374 73.689 375.19 72.981 C 375.089 72.606 374.879 72.273 374.56 71.981 C 373.923 71.419 373.088 71.065 372.056 70.919 C 371.023 70.774 370.356 70.649 370.054 70.544 L 370.054 70.545 Z" style="font-size:72.7480545px;font-style:normal;font-variant:normal;font-weight:normal;font-stretch:normal;text-indent:0;text-align:start;text-decoration:none;line-height:125%;letter-spacing:0px;word-spacing:0px;text-transform:none;direction:ltr;block-progression:tb;writing-mode:lr-tb;text-anchor:start;baseline-shift:baseline;color:#000000;fill:#deb308;fill-opacity:1;fill-rule:nonzero;stroke:#deb308;stroke-width:0.50519478;stroke-miterlimit:4;stroke-opacity:1;stroke-dasharray:none;marker:none;visibility:visible;display:inline;overflow:visible;enable-background:accumulate;font-family:Garamond;-inkscape-font-specification:Garamond"/><path d="M 410.356 108.584 C 410.514 108.395 410.649 108.28 410.76 108.238 C 411.03 108.134 411.49 108.05 412.14 107.987 C 413.678 107.861 414.629 107.673 414.994 107.422 C 415.216 107.003 415.327 106.417 415.327 105.664 L 415.303 103.467 L 415.327 95.493 L 415.279 91.726 L 415.303 83.847 L 415.184 74.9 C 415.168 72.765 415.065 71.562 414.875 71.29 C 414.59 70.892 413.741 70.662 412.33 70.599 C 411.727 70.578 411.196 70.515 410.736 70.411 C 410.53 70.264 410.427 70.076 410.427 69.846 C 410.427 69.678 410.467 69.479 410.546 69.249 C 410.689 69.145 410.816 69.092 410.927 69.092 C 411.149 69.092 411.418 69.103 411.735 69.124 C 412.671 69.228 413.638 69.281 414.637 69.281 L 416.397 69.218 L 420.584 69.343 C 422.677 69.344 424.31 69.312 425.483 69.249 C 426.657 69.187 427.45 69.155 427.862 69.155 C 428.227 69.155 429.13 69.197 430.573 69.281 L 433.951 69.25 L 434.355 69.344 L 436.329 69.25 L 436.567 69.406 C 436.647 69.574 436.702 69.752 436.734 69.94 C 436.734 70.233 436.698 70.683 436.626 71.29 C 436.555 71.897 436.519 72.274 436.519 72.42 C 436.519 74.597 436.574 76.438 436.685 77.945 C 436.669 78.071 436.622 78.154 436.543 78.196 C 436.368 78.196 436.21 78.165 436.067 78.102 C 435.892 77.705 435.659 77.003 435.365 75.999 C 435.072 74.994 434.632 73.833 434.045 72.514 C 433.649 71.635 433.34 71.112 433.118 70.945 C 432.896 70.777 432.436 70.694 431.738 70.694 C 431.595 70.694 430.874 70.673 429.574 70.631 C 429.225 70.61 428.884 70.6 428.551 70.6 L 421.772 70.788 L 421.177 70.788 C 420.305 70.788 419.782 70.934 419.608 71.227 C 419.338 71.73 419.203 73.205 419.203 75.654 C 419.203 75.905 419.243 78.416 419.322 83.188 L 419.322 87.551 C 419.497 87.614 419.687 87.645 419.893 87.645 L 420.297 87.645 C 420.567 87.645 420.963 87.656 421.487 87.677 C 422.311 87.719 422.866 87.739 423.152 87.739 C 423.342 87.739 423.508 87.728 423.651 87.708 C 425.364 87.624 427.568 87.582 430.263 87.582 C 431.104 87.394 431.595 87.174 431.738 86.923 C 431.976 86.547 432.154 85.563 432.273 83.972 C 432.392 82.382 432.658 81.482 433.07 81.273 C 433.276 81.273 433.466 81.325 433.641 81.43 C 433.673 81.597 433.688 81.754 433.688 81.9 C 433.688 82.047 433.673 82.288 433.641 82.622 C 433.562 83.397 433.522 85.824 433.522 89.905 C 433.522 90.994 433.565 92.208 433.653 93.547 C 433.74 94.886 433.783 95.608 433.784 95.713 C 433.783 95.901 433.76 96.152 433.712 96.466 C 433.585 96.55 433.482 96.592 433.403 96.592 L 433.236 96.592 C 432.983 96.006 432.737 95.096 432.499 93.861 C 432.087 91.747 431.655 90.423 431.203 89.89 C 430.751 89.356 430.018 89.089 429.003 89.089 C 428.781 89.089 428.376 89.105 427.79 89.136 C 427.203 89.168 426.331 89.183 425.173 89.183 L 423.627 89.183 C 421.423 89.184 419.98 89.246 419.298 89.372 L 419.275 90.408 L 419.298 96.184 L 419.275 99.825 L 419.298 103.373 C 419.314 105.507 419.417 106.742 419.608 107.077 C 419.877 107.537 420.464 107.768 421.368 107.768 L 422.819 107.736 C 422.945 107.736 423.441 107.752 424.305 107.783 C 425.169 107.815 426.236 107.831 427.504 107.831 C 430.565 107.831 432.602 107.658 433.617 107.313 C 434.632 106.967 435.468 106.355 436.126 105.476 C 436.784 104.597 437.613 102.703 438.612 99.794 C 438.913 98.936 439.215 98.507 439.516 98.507 C 439.659 98.507 439.817 98.591 439.991 98.758 C 439.532 100.83 439.27 102.19 439.207 102.839 C 439.032 104.304 438.929 105.801 438.897 107.328 C 438.897 108.019 438.771 108.594 438.517 109.055 L 437.994 109.055 L 431.31 109.149 L 428.313 109.118 L 421.177 109.243 L 418.276 109.243 C 417.911 109.243 417.57 109.254 417.253 109.274 C 414.399 109.442 412.298 109.526 410.95 109.526 C 410.712 109.526 410.549 109.473 410.462 109.369 C 410.375 109.264 410.331 109.107 410.331 108.898 L 410.356 108.584 Z" style="font-size:72.7480545px;font-style:normal;font-variant:normal;font-weight:normal;font-stretch:normal;text-indent:0;text-align:start;text-decoration:none;line-height:125%;letter-spacing:0px;word-spacing:0px;text-transform:none;direction:ltr;block-progression:tb;writing-mode:lr-tb;text-anchor:start;baseline-shift:baseline;color:#000000;fill:#deb308;fill-opacity:1;fill-rule:nonzero;stroke:#deb308;stroke-width:0.50519478;stroke-miterlimit:4;stroke-opacity:1;stroke-dasharray:none;marker:none;visibility:visible;display:inline;overflow:visible;enable-background:accumulate;font-family:Garamond;-inkscape-font-specification:Garamond"/><path d="M 221.215 372.753 C 221.431 374.313 221.538 375.914 221.538 377.556 C 221.538 377.88 221.53 378.316 221.512 378.863 C 221.26 378.924 221.071 378.954 220.946 378.954 C 220.838 378.954 220.685 378.934 220.487 378.893 C 219.733 376.522 218.502 374.698 216.795 373.422 C 215.089 372.145 212.978 371.507 210.463 371.507 C 209.133 371.507 208.01 371.679 207.094 372.023 C 205.477 372.652 204.058 373.518 202.836 374.622 C 201.614 375.727 200.581 377.044 199.737 378.574 C 198.892 380.104 198.223 381.958 197.729 384.137 C 197.235 386.315 196.988 388.539 196.988 390.809 C 196.988 395.146 197.572 398.728 198.74 401.555 C 199.908 404.382 201.506 406.398 203.537 407.604 C 205.567 408.809 207.615 409.412 209.681 409.412 L 210.948 409.382 C 212.385 409.179 213.364 408.987 213.885 408.804 C 215.196 408.379 216.279 407.877 217.132 407.3 C 217.986 406.722 218.821 405.906 219.639 404.853 C 220.456 403.799 221.152 402.573 221.727 401.174 L 222.051 401.053 C 222.14 401.053 222.275 401.114 222.455 401.235 C 222.437 401.722 222.419 402.036 222.401 402.178 C 221.646 405.602 221.098 407.943 220.757 409.199 C 220.47 409.28 220.11 409.402 219.679 409.564 C 217.577 410.375 214.765 410.78 211.244 410.78 C 208.405 410.78 206.281 410.562 204.871 410.127 C 203.46 409.691 201.924 409.012 200.262 408.09 C 198.601 407.168 197.141 405.947 195.883 404.427 C 194.626 402.907 193.611 400.987 192.838 398.667 C 192.065 396.346 191.679 393.818 191.679 391.082 C 191.679 388.489 191.985 386.224 192.595 384.289 C 193.206 382.353 194.149 380.393 195.425 378.407 C 196.701 376.421 198.205 374.769 199.939 373.452 C 201.673 372.135 203.6 371.203 205.72 370.655 C 207.211 370.291 209.322 370.108 212.053 370.108 C 214.047 370.108 215.924 370.407 217.685 371.005 C 219.445 371.603 220.622 372.185 221.215 372.753 L 221.215 372.753 Z" style="font-size:72.7480545px;font-style:normal;font-variant:normal;font-weight:normal;font-stretch:normal;text-indent:0;text-align:start;text-decoration:none;line-height:125%;letter-spacing:0px;word-spacing:0px;text-transform:none;direction:ltr;block-progression:tb;writing-mode:lr-tb;text-anchor:start;baseline-shift:baseline;color:#000000;fill:#deb308;fill-opacity:1;fill-rule:nonzero;stroke:#deb308;stroke-width:0.50519478;stroke-miterlimit:4;stroke-opacity:1;stroke-dasharray:none;marker:none;visibility:visible;display:inline;overflow:visible;enable-background:accumulate;font-family:Garamond;-inkscape-font-specification:Garamond"/><path d="M 223.373 410.041 C 223.624 409.882 223.848 409.802 224.046 409.802 L 224.664 409.802 C 224.79 409.802 225.005 409.793 225.31 409.773 C 226.691 409.634 227.507 409.495 227.758 409.356 C 228.386 408.979 228.924 408.324 229.373 407.391 C 230.305 405.367 231.354 402.5 232.52 398.789 C 233.076 397.023 233.426 395.951 233.57 395.574 C 234.018 394.384 234.448 393.133 234.861 391.824 L 237.39 383.995 C 237.784 382.765 238.735 379.947 240.242 375.542 C 240.618 374.431 241.076 372.942 241.614 371.077 L 242.394 371.017 L 243.336 371.047 C 244.107 372.734 244.788 374.55 245.38 376.494 C 245.703 377.526 246.232 379.064 246.968 381.108 L 251.057 393.342 L 253.236 399.98 C 254.384 403.75 255.137 406.067 255.496 406.93 C 255.855 407.793 256.187 408.364 256.492 408.642 C 256.581 408.721 256.918 408.84 257.5 408.999 C 258.083 409.158 258.491 409.277 258.725 409.356 C 259.55 409.614 260.124 409.832 260.446 410.011 C 260.518 410.229 260.554 410.398 260.554 410.517 C 260.554 410.616 260.527 410.765 260.473 410.963 C 259.899 410.983 259.496 410.993 259.263 410.993 C 258.348 410.993 256.734 410.963 254.42 410.904 L 251.73 410.815 L 248.474 410.874 C 248.259 410.874 248.039 410.859 247.815 410.829 C 247.591 410.8 247.398 410.785 247.237 410.785 L 246.645 410.785 C 246.447 410.765 246.268 410.705 246.107 410.606 C 246.107 410.328 246.151 410.06 246.241 409.802 C 246.456 409.683 246.654 409.614 246.833 409.594 L 249.658 409.386 C 250.393 409.346 250.949 409.237 251.326 409.058 C 251.434 408.701 251.487 408.433 251.487 408.255 C 251.487 407.897 251.254 406.975 250.788 405.486 C 250.465 404.494 250.183 403.552 249.94 402.659 C 249.698 401.766 248.743 398.829 247.075 393.848 C 246.34 393.709 245.694 393.64 245.138 393.64 L 239.381 393.699 L 237.686 393.669 C 237.076 393.669 236.403 393.719 235.668 393.818 C 235.435 394.413 235.282 394.84 235.211 395.098 L 232.843 403.284 C 231.839 406.399 231.336 408.116 231.336 408.433 C 231.336 408.612 231.417 408.909 231.579 409.326 C 231.955 409.445 232.457 409.554 233.085 409.654 L 236.744 410.011 C 236.941 410.189 237.04 410.348 237.04 410.487 C 237.04 410.586 237.013 410.735 236.959 410.933 C 236.152 410.953 235.534 410.963 235.103 410.963 C 233.668 410.963 232 410.914 230.099 410.814 C 229.22 410.775 228.592 410.755 228.216 410.755 C 227.839 410.755 227.184 410.775 226.252 410.814 C 225.642 410.854 225.203 410.874 224.933 410.874 C 224.503 410.874 223.947 410.844 223.265 410.785 L 223.265 410.606 C 223.265 410.467 223.301 410.279 223.373 410.041 L 223.373 410.041 Z M 236.206 392.181 C 238.125 392.3 240.313 392.36 242.771 392.36 C 244.17 392.36 245.398 392.31 246.456 392.211 C 246.277 391.437 246.071 390.713 245.838 390.038 C 244.672 386.585 244.026 384.68 243.901 384.323 L 241.452 377.447 L 241.183 376.911 C 241.076 377.149 240.681 378.171 240 379.977 C 238.852 383.073 238.027 385.484 237.524 387.21 C 237.291 387.984 237.049 388.753 236.798 389.517 C 236.547 390.281 236.39 390.817 236.327 391.124 C 236.264 391.432 236.17 391.744 236.045 392.062 L 236.206 392.181 Z" style="font-size:72.7480545px;font-style:normal;font-variant:normal;font-weight:normal;font-stretch:normal;text-indent:0;text-align:start;text-decoration:none;line-height:125%;letter-spacing:0px;word-spacing:0px;text-transform:none;direction:ltr;block-progression:tb;writing-mode:lr-tb;text-anchor:start;baseline-shift:baseline;color:#000000;fill:#deb308;fill-opacity:1;fill-rule:nonzero;stroke:#deb308;stroke-width:0.50519478;stroke-miterlimit:4;stroke-opacity:1;stroke-dasharray:none;marker:none;visibility:visible;display:inline;overflow:visible;enable-background:accumulate;font-family:Garamond;-inkscape-font-specification:Garamond"/><path d="M 262.296 410.823 C 262.311 410.505 262.371 410.22 262.477 409.966 C 263.649 409.522 264.792 409.226 265.905 409.078 C 266.642 408.994 267.115 408.761 267.326 408.381 C 267.476 408.106 267.566 407.091 267.596 405.336 L 267.754 396.963 L 267.732 391.286 L 267.754 383.864 L 267.754 381.898 C 267.769 377.437 267.754 374.656 267.709 373.557 C 267.694 373.346 267.634 373.05 267.529 372.669 C 267.138 372.415 266.811 372.246 266.548 372.161 C 266.284 372.077 265.108 371.77 263.018 371.242 C 263.003 371.009 262.995 370.84 262.995 370.734 C 262.995 370.607 263.003 370.438 263.018 370.227 C 263.304 370.227 263.77 370.248 264.416 370.29 L 267.844 370.449 L 269.829 370.512 L 270.416 370.48 C 270.491 370.48 270.709 370.502 271.07 370.544 C 271.957 370.544 272.468 370.533 272.603 370.512 L 274.408 370.322 C 275.625 370.322 276.482 370.353 276.979 370.417 C 276.964 370.797 276.911 371.21 276.821 371.654 C 276.655 371.696 275.874 371.754 274.475 371.828 C 273.077 371.902 272.272 372.024 272.062 372.193 C 271.716 372.468 271.543 373.313 271.543 374.73 C 271.543 375.068 271.528 375.756 271.498 376.792 L 271.498 378.694 L 271.521 384.562 L 271.521 386.56 L 271.566 397.058 L 271.498 406.001 L 271.521 407.968 C 271.521 408.602 271.596 408.993 271.746 409.141 C 272.122 409.163 273.227 409.184 275.062 409.205 L 276.595 409.205 L 280.497 409.014 C 281.52 408.972 282.249 408.829 282.685 408.586 C 283.121 408.343 283.85 407.629 284.873 406.445 C 285.489 405.684 285.97 404.902 286.316 404.098 C 286.391 403.929 286.519 403.676 286.699 403.337 C 286.985 402.787 287.368 401.688 287.85 400.039 L 288.594 400.039 C 288.504 400.8 288.406 401.519 288.301 402.195 C 287.865 405.177 287.564 407.661 287.399 409.649 C 287.368 410.071 287.338 410.463 287.308 410.822 L 278.873 410.473 C 271.626 410.473 267.326 410.568 265.973 410.759 C 265.552 410.801 265.108 410.822 264.642 410.822 L 262.296 410.823 Z" style="font-size:72.7480545px;font-style:normal;font-variant:normal;font-weight:normal;font-stretch:normal;text-indent:0;text-align:start;text-decoration:none;line-height:125%;letter-spacing:0px;word-spacing:0px;text-transform:none;direction:ltr;block-progression:tb;writing-mode:lr-tb;text-anchor:start;baseline-shift:baseline;color:#000000;fill:#deb308;fill-opacity:1;fill-rule:nonzero;stroke:#deb308;stroke-width:0.50519478;stroke-miterlimit:4;stroke-opacity:1;stroke-dasharray:none;marker:none;visibility:visible;display:inline;overflow:visible;enable-background:accumulate;font-family:Garamond;-inkscape-font-specification:Garamond"/><path d="M 288.263 410.161 C 288.504 410.002 288.719 409.922 288.908 409.922 L 289.502 409.922 C 289.622 409.922 289.829 409.912 290.121 409.892 C 291.445 409.753 292.228 409.613 292.469 409.474 C 293.071 409.096 293.587 408.439 294.017 407.503 C 294.911 405.473 295.918 402.597 297.036 398.874 C 297.569 397.103 297.904 396.028 298.042 395.65 C 298.472 394.456 298.885 393.202 299.28 391.888 L 301.706 384.035 C 302.084 382.801 302.996 379.975 304.441 375.556 C 304.802 374.441 305.241 372.948 305.757 371.077 L 306.505 371.017 L 307.408 371.047 C 308.147 372.739 308.801 374.561 309.369 376.511 C 309.678 377.546 310.186 379.089 310.891 381.139 L 314.813 393.411 L 316.903 400.069 C 318.004 403.851 318.726 406.175 319.07 407.041 C 319.414 407.907 319.732 408.479 320.025 408.758 C 320.111 408.837 320.433 408.957 320.992 409.116 C 321.551 409.275 321.943 409.395 322.166 409.474 C 322.957 409.733 323.508 409.952 323.818 410.131 C 323.886 410.35 323.921 410.519 323.921 410.639 C 323.921 410.738 323.895 410.887 323.843 411.087 C 323.293 411.107 322.906 411.116 322.682 411.116 C 321.805 411.116 320.257 411.087 318.038 411.027 L 315.458 410.937 L 312.336 410.997 C 312.13 410.997 311.919 410.982 311.704 410.952 C 311.489 410.922 311.304 410.908 311.149 410.908 L 310.582 410.908 C 310.392 410.887 310.22 410.828 310.066 410.728 C 310.065 410.45 310.109 410.181 310.195 409.922 C 310.401 409.803 310.59 409.733 310.762 409.713 L 313.471 409.504 C 314.177 409.464 314.71 409.355 315.071 409.176 C 315.174 408.817 315.226 408.549 315.226 408.37 C 315.226 408.011 315.002 407.086 314.555 405.593 C 314.245 404.598 313.974 403.652 313.742 402.756 C 313.51 401.861 312.594 398.915 310.994 393.919 C 310.289 393.779 309.67 393.71 309.137 393.71 L 303.615 393.769 L 301.99 393.739 C 301.405 393.739 300.76 393.789 300.055 393.888 C 299.831 394.486 299.685 394.914 299.616 395.172 L 297.345 403.383 C 296.382 406.508 295.901 408.23 295.901 408.549 C 295.901 408.728 295.978 409.026 296.133 409.444 C 296.494 409.564 296.976 409.673 297.578 409.773 L 301.087 410.131 C 301.276 410.31 301.37 410.469 301.37 410.609 C 301.37 410.708 301.345 410.858 301.293 411.057 C 300.519 411.077 299.926 411.087 299.513 411.087 C 298.137 411.087 296.537 411.037 294.714 410.937 C 293.871 410.898 293.269 410.878 292.908 410.878 C 292.546 410.878 291.919 410.897 291.024 410.937 C 290.439 410.977 290.018 410.997 289.76 410.997 C 289.347 410.997 288.814 410.967 288.16 410.907 L 288.16 410.728 C 288.16 410.589 288.195 410.4 288.263 410.161 L 288.263 410.161 Z M 300.571 392.246 C 302.411 392.366 304.51 392.425 306.866 392.425 C 308.208 392.425 309.386 392.376 310.401 392.276 C 310.229 391.5 310.031 390.773 309.807 390.096 C 308.689 386.633 308.07 384.722 307.95 384.364 L 305.602 377.467 L 305.344 376.929 C 305.241 377.168 304.862 378.193 304.209 380.005 C 303.108 383.11 302.316 385.528 301.835 387.26 C 301.611 388.036 301.379 388.808 301.138 389.574 C 300.897 390.34 300.747 390.878 300.687 391.186 C 300.626 391.495 300.536 391.808 300.416 392.127 L 300.571 392.246 Z" style="font-size:72.7480545px;font-style:normal;font-variant:normal;font-weight:normal;font-stretch:normal;text-indent:0;text-align:start;text-decoration:none;line-height:125%;letter-spacing:0px;word-spacing:0px;text-transform:none;direction:ltr;block-progression:tb;writing-mode:lr-tb;text-anchor:start;baseline-shift:baseline;color:#000000;fill:#deb308;fill-opacity:1;fill-rule:nonzero;stroke:#deb308;stroke-width:0.50519478;stroke-miterlimit:4;stroke-opacity:1;stroke-dasharray:none;marker:none;visibility:visible;display:inline;overflow:visible;enable-background:accumulate;font-family:Garamond;-inkscape-font-specification:Garamond"/><path d="M 326.097 371.807 L 326.097 370.818 C 326.43 370.733 326.694 370.679 326.89 370.658 L 329.648 370.498 C 331.937 370.285 334.5 370.115 337.337 369.987 C 338.472 369.945 340.262 369.924 342.708 369.924 C 346.034 369.924 348.47 370.19 350.016 370.722 C 352.265 371.509 353.943 372.696 355.049 374.282 C 356.154 375.867 356.707 377.629 356.707 379.566 C 356.707 382.716 354.643 385.366 350.514 387.515 L 350.368 387.771 C 352.481 388.388 354.212 389.25 355.562 390.357 C 356.912 391.464 357.949 392.815 358.673 394.412 C 359.201 395.582 359.465 397.115 359.465 399.009 C 359.465 402.181 358.14 405.006 355.489 407.486 C 352.838 409.965 349.184 411.205 344.528 411.205 L 340.155 411.205 L 335.723 411.365 C 331.81 411.407 329.521 411.429 328.856 411.429 C 328.171 411.429 327.496 411.396 326.831 411.333 L 326.831 410.982 C 326.831 410.726 326.88 410.545 326.978 410.439 C 327.095 410.311 327.32 410.205 327.653 410.12 C 330.098 409.566 331.482 409.188 331.805 408.986 C 332.128 408.784 332.348 408.459 332.466 408.012 C 332.7 407.161 332.818 404.969 332.818 401.435 C 332.818 401.116 332.809 400.712 332.788 400.222 C 332.749 398.796 332.73 397.977 332.73 397.764 L 332.73 394.443 C 332.73 388.824 332.671 383.918 332.554 379.725 L 332.524 373.308 L 332.495 372.51 C 330.832 372.254 329.365 372.095 328.093 372.031 C 327.271 372.009 326.606 371.935 326.097 371.807 L 326.097 371.807 Z M 337.748 387.962 C 338.726 388.175 339.754 388.282 340.83 388.282 C 345.056 388.282 347.922 387.271 349.429 385.249 C 350.935 383.227 351.688 381.215 351.688 379.214 C 351.688 378.32 351.556 377.411 351.292 376.485 C 351.028 375.559 350.558 374.723 349.883 373.978 C 349.208 373.233 348.372 372.68 347.374 372.318 C 345.672 371.701 343.931 371.392 342.15 371.392 C 340.487 371.392 338.942 371.594 337.513 371.999 C 337.494 372.446 337.484 372.776 337.484 372.989 C 337.484 373.201 337.504 373.808 337.543 374.808 C 337.562 375.447 337.572 376.086 337.572 376.724 L 337.484 380.587 L 337.513 382.886 L 337.719 387.388 L 337.748 387.962 Z M 344.645 409.673 C 346.582 409.524 348.206 409.077 349.517 408.332 C 350.123 407.991 350.842 407.379 351.674 406.496 C 352.505 405.613 353.151 404.554 353.611 403.319 C 354.07 402.085 354.3 400.893 354.3 399.743 C 354.3 398.871 354.139 397.796 353.816 396.519 C 353.493 395.242 352.945 394.119 352.173 393.151 C 351.4 392.182 350.25 391.384 348.724 390.756 C 347.198 390.128 345.516 389.814 343.676 389.814 C 340.116 389.814 338.12 389.889 337.689 390.038 C 337.67 390.527 337.66 390.889 337.66 391.123 L 337.689 392.304 L 337.66 394.699 L 337.66 397.413 C 337.719 402.415 337.826 405.373 337.983 406.289 C 338.14 407.204 338.673 407.991 339.582 408.651 C 340.492 409.311 342.18 409.651 344.645 409.673 L 344.645 409.673 Z" style="font-size:72.7480545px;font-style:normal;font-variant:normal;font-weight:normal;font-stretch:normal;text-indent:0;text-align:start;text-decoration:none;line-height:125%;letter-spacing:0px;word-spacing:0px;text-transform:none;direction:ltr;block-progression:tb;writing-mode:lr-tb;text-anchor:start;baseline-shift:baseline;color:#000000;fill:#deb308;fill-opacity:1;fill-rule:nonzero;stroke:#deb308;stroke-width:0.50519478;stroke-miterlimit:4;stroke-opacity:1;stroke-dasharray:none;marker:none;visibility:visible;display:inline;overflow:visible;enable-background:accumulate;font-family:Garamond;-inkscape-font-specification:Garamond"/><path d="M 362.936 410.055 C 365.578 409.697 367.07 409.445 367.414 409.298 C 367.649 409.193 367.866 408.877 368.065 408.352 L 368.065 408.005 C 368.065 407.479 368.138 405.576 368.283 402.296 C 368.319 401.371 368.337 400.467 368.337 399.583 L 368.255 395.83 L 368.31 391.572 L 368.283 383.655 L 368.31 377.978 C 368.328 375.581 368.169 374.12 367.835 373.594 C 367.5 373.068 366.636 372.695 365.243 372.474 C 363.85 372.253 363.081 372.09 362.936 371.985 C 362.791 371.88 362.719 371.712 362.719 371.481 C 362.719 371.333 362.746 371.144 362.8 370.913 C 362.981 370.724 363.397 370.619 364.049 370.597 C 364.139 370.598 364.388 370.571 364.795 370.519 C 365.202 370.466 365.587 370.44 365.948 370.44 L 368.174 370.44 L 375.312 370.345 C 379.346 370.345 382.174 370.692 383.793 371.386 C 385.412 372.08 386.701 373.252 387.66 374.902 C 388.619 376.553 389.099 378.398 389.099 380.438 C 389.099 384.307 387.353 387.261 383.861 389.301 C 383.264 389.658 382.793 389.974 382.45 390.247 C 383.065 391.761 383.924 393.58 385.028 395.704 L 388.475 402.579 C 389.85 405.103 390.8 406.685 391.324 407.326 C 391.849 407.968 392.487 408.499 393.238 408.919 C 393.989 409.34 395.251 409.739 397.024 410.118 C 397.042 410.328 397.051 410.496 397.051 410.622 C 397.051 410.748 397.042 410.906 397.024 411.095 C 394.545 411.137 391.641 411.158 388.312 411.158 C 388.077 411.158 387.751 411.137 387.335 411.095 C 386.05 408.236 384.539 405.092 382.802 401.665 L 378.786 393.149 C 378.243 392.266 377.795 391.714 377.442 391.493 C 377.089 391.272 376.624 391.162 376.045 391.162 L 373.738 391.193 L 372.978 391.162 C 372.923 391.835 372.896 393.212 372.896 395.294 L 372.896 406.08 C 372.878 406.48 372.951 407.037 373.113 407.752 C 373.258 408.152 373.507 408.472 373.86 408.714 C 374.213 408.956 375.23 409.319 376.913 409.802 L 378.026 410.118 C 378.17 410.328 378.243 410.612 378.243 410.969 C 377.754 411.074 377.411 411.127 377.212 411.127 C 375.583 411.127 374.434 411.106 373.765 411.064 C 373.421 411.043 373.141 411.032 372.923 411.032 L 369.232 411.095 L 365.623 411.064 C 365.46 411.064 364.637 411.095 363.153 411.158 L 362.61 411.032 L 362.556 410.717 C 362.556 410.528 362.683 410.307 362.936 410.054 L 362.936 410.055 Z M 373.032 389.427 C 373.521 389.448 373.882 389.459 374.118 389.459 C 375.42 389.459 376.922 389.28 378.623 388.923 C 379.817 388.649 380.785 388.203 381.527 387.582 C 382.269 386.962 382.888 386.042 383.386 384.822 C 383.884 383.603 384.132 382.341 384.132 381.038 C 384.132 379.608 383.743 378.094 382.965 376.496 C 382.368 375.276 381.359 374.256 379.939 373.436 C 378.519 372.616 376.814 372.206 374.823 372.206 C 374.335 372.206 373.701 372.238 372.923 372.301 C 372.851 373.394 372.815 374.235 372.815 374.824 L 372.951 380.722 L 372.924 383.151 C 372.924 384.791 372.96 386.883 373.032 389.427 L 373.032 389.427 Z" style="font-size:72.7480545px;font-style:normal;font-variant:normal;font-weight:normal;font-stretch:normal;text-indent:0;text-align:start;text-decoration:none;line-height:125%;letter-spacing:0px;word-spacing:0px;text-transform:none;direction:ltr;block-progression:tb;writing-mode:lr-tb;text-anchor:start;baseline-shift:baseline;color:#000000;fill:#deb308;fill-opacity:1;fill-rule:nonzero;stroke:#deb308;stroke-width:0.50519478;stroke-miterlimit:4;stroke-opacity:1;stroke-dasharray:none;marker:none;visibility:visible;display:inline;overflow:visible;enable-background:accumulate;font-family:Garamond;-inkscape-font-specification:Garamond"/><path d="M 395.685 410.218 C 396.045 410.027 396.412 409.91 396.788 409.867 C 399.287 409.655 400.717 409.266 401.076 408.703 C 401.436 408.139 401.615 405.411 401.615 400.519 L 401.591 397.168 L 401.591 393.659 L 401.493 389.798 L 401.542 387.533 L 401.517 385.044 L 401.517 382.108 L 401.468 380.8 L 401.517 379.141 C 401.534 378.758 401.542 378.311 401.542 377.801 C 401.542 376.461 401.493 375.046 401.395 373.557 C 401.329 373.26 401.239 372.972 401.125 372.696 C 400.521 372.292 399.545 372.021 398.197 371.882 C 396.849 371.744 396.086 371.59 395.906 371.42 C 395.775 371.292 395.702 370.962 395.685 370.43 L 397.744 370.43 L 404.237 370.622 C 405.903 370.622 408.125 370.558 410.902 370.43 C 410.902 370.771 410.886 371.09 410.853 371.388 C 410.526 371.494 409.979 371.611 409.211 371.739 C 407.66 371.973 406.712 372.196 406.369 372.409 C 406.157 372.515 406.001 372.696 405.903 372.951 C 405.74 373.334 405.642 374.047 405.609 375.089 L 405.487 379.205 L 405.585 393.403 L 405.585 399.019 C 405.552 400.785 405.536 401.986 405.536 402.624 C 405.536 405.007 405.581 406.528 405.671 407.187 C 405.761 407.847 405.916 408.32 406.136 408.607 C 406.357 408.894 406.72 409.123 407.227 409.293 C 407.978 409.527 408.566 409.655 408.991 409.676 C 409.906 409.718 410.486 409.889 410.731 410.186 C 410.78 410.463 410.804 410.697 410.804 410.888 L 410.804 411.144 C 409.318 411.207 408.223 411.239 407.521 411.239 C 407.112 411.239 406.385 411.207 405.34 411.144 L 401.958 411.207 L 396.2 411.175 L 395.734 411.175 L 395.685 410.218 Z" style="font-size:72.7480545px;font-style:normal;font-variant:normal;font-weight:normal;font-stretch:normal;text-indent:0;text-align:start;text-decoration:none;line-height:125%;letter-spacing:0px;word-spacing:0px;text-transform:none;direction:ltr;block-progression:tb;writing-mode:lr-tb;text-anchor:start;baseline-shift:baseline;color:#000000;fill:#deb308;fill-opacity:1;fill-rule:nonzero;stroke:#deb308;stroke-width:0.50519478;stroke-miterlimit:4;stroke-opacity:1;stroke-dasharray:none;marker:none;visibility:visible;display:inline;overflow:visible;enable-background:accumulate;font-family:Garamond;-inkscape-font-specification:Garamond"/><path d="M 413.316 410.011 C 413.553 409.848 413.764 409.766 413.949 409.766 L 414.532 409.766 C 414.65 409.766 414.853 409.756 415.14 409.735 C 416.44 409.592 417.208 409.449 417.445 409.305 C 418.036 408.917 418.542 408.242 418.964 407.28 C 419.843 405.194 420.83 402.238 421.928 398.413 C 422.451 396.593 422.781 395.488 422.916 395.099 C 423.338 393.872 423.743 392.583 424.132 391.233 L 426.512 383.164 C 426.884 381.895 427.779 378.991 429.197 374.45 C 429.552 373.304 429.983 371.77 430.489 369.847 L 431.224 369.786 L 432.11 369.817 C 432.836 371.556 433.478 373.427 434.035 375.432 C 434.339 376.495 434.837 378.081 435.53 380.188 L 439.38 392.798 L 441.431 399.641 C 442.512 403.527 443.221 405.915 443.559 406.805 C 443.897 407.695 444.209 408.283 444.496 408.569 C 444.58 408.651 444.897 408.774 445.446 408.937 C 445.995 409.101 446.379 409.224 446.598 409.306 C 447.375 409.572 447.915 409.797 448.219 409.981 C 448.287 410.206 448.321 410.38 448.321 410.502 C 448.321 410.605 448.295 410.758 448.245 410.962 C 447.705 410.983 447.325 410.993 447.105 410.993 C 446.244 410.993 444.724 410.962 442.546 410.901 L 440.013 410.809 L 436.948 410.87 C 436.746 410.87 436.539 410.855 436.328 410.824 C 436.117 410.794 435.935 410.778 435.783 410.778 L 435.226 410.778 C 435.04 410.758 434.871 410.697 434.719 410.594 C 434.719 410.308 434.761 410.032 434.846 409.766 C 435.049 409.643 435.234 409.572 435.403 409.551 L 438.063 409.336 C 438.755 409.295 439.279 409.183 439.633 408.999 C 439.734 408.631 439.785 408.354 439.785 408.17 C 439.785 407.802 439.566 406.851 439.127 405.317 C 438.823 404.294 438.557 403.322 438.329 402.402 C 438.101 401.482 437.202 398.454 435.631 393.32 C 434.939 393.177 434.331 393.105 433.808 393.105 L 428.387 393.166 L 426.791 393.136 C 426.217 393.136 425.584 393.187 424.892 393.289 C 424.672 393.903 424.529 394.342 424.461 394.608 L 422.232 403.046 C 421.287 406.258 420.814 408.027 420.814 408.354 C 420.814 408.538 420.89 408.845 421.042 409.275 C 421.396 409.397 421.869 409.51 422.46 409.612 L 425.905 409.98 C 426.091 410.165 426.184 410.328 426.184 410.471 C 426.184 410.574 426.158 410.727 426.108 410.932 C 425.348 410.952 424.765 410.962 424.36 410.962 C 423.009 410.962 421.439 410.911 419.649 410.809 C 418.821 410.768 418.23 410.748 417.876 410.748 C 417.521 410.748 416.905 410.768 416.027 410.809 C 415.453 410.85 415.039 410.87 414.786 410.87 C 414.38 410.87 413.857 410.839 413.215 410.778 L 413.215 410.594 C 413.215 410.451 413.249 410.257 413.317 410.011 L 413.316 410.011 Z M 425.398 391.601 C 427.205 391.724 429.265 391.786 431.578 391.786 C 432.895 391.786 434.052 391.735 435.048 391.632 C 434.88 390.834 434.685 390.088 434.466 389.392 C 433.368 385.833 432.76 383.869 432.642 383.501 L 430.337 376.413 L 430.084 375.861 C 429.983 376.107 429.611 377.16 428.969 379.022 C 427.889 382.213 427.112 384.698 426.639 386.477 C 426.42 387.275 426.192 388.068 425.955 388.855 C 425.719 389.643 425.571 390.195 425.512 390.512 C 425.453 390.829 425.364 391.151 425.246 391.479 L 425.398 391.601 Z" style="font-size:72.7480545px;font-style:normal;font-variant:normal;font-weight:normal;font-stretch:normal;text-indent:0;text-align:start;text-decoration:none;line-height:125%;letter-spacing:0px;word-spacing:0px;text-transform:none;direction:ltr;block-progression:tb;writing-mode:lr-tb;text-anchor:start;baseline-shift:baseline;color:#000000;fill:#deb308;fill-opacity:1;fill-rule:nonzero;stroke:#deb308;stroke-width:0.50519478;stroke-miterlimit:4;stroke-opacity:1;stroke-dasharray:none;marker:none;visibility:visible;display:inline;overflow:visible;enable-background:accumulate;font-family:Garamond;-inkscape-font-specification:Garamond"/><g style="font-size:72.7480545px;font-style:normal;font-variant:normal;font-weight:normal;font-stretch:normal;text-indent:0;text-align:start;text-decoration:none;line-height:125%;letter-spacing:0px;word-spacing:0px;text-transform:none;direction:ltr;block-progression:tb;writing-mode:lr-tb;text-anchor:start;baseline-shift:baseline;color:#000000;fill:#000000;fill-opacity:1;fill-rule:nonzero;stroke:none;stroke-width:1px;marker:none;visibility:visible;display:inline;overflow:visible;enable-background:accumulate;font-family:Garamond;-inkscape-font-specification:Garamond" transform="matrix(0.605553, 0, 0, 0.681077, -118.04171, 519.779663)"><path d="m 875.17217,-412.30161 c 0,92.00819 -67.96249,166.59558 -151.79845,166.59558 -83.83593,0 -151.79839,-74.58739 -151.79839,-166.59558 0,-92.00817 67.96246,-166.59555 151.79839,-166.59555 83.83596,0 151.79845,74.58738 151.79845,166.59555 z" style="fill:#d5d6d8;fill-opacity:1"/><path d="m 715.79403,-566.65123 4.44488,-12.21217 c 2.04662,-0.13047 4.16718,-0.0391 6.27031,0 l 4.44488,12.21217 z" style="fill:#0a4fa2;fill-opacity:1;stroke:none"/><path d="m 723.38775,-256.16609 c 41.64231,0 79.10112,-19.6797 105.09681,-51.03793 l -210.22165,-210.2008 c 26.00328,-31.34016 63.47253,-51.03226 105.12797,-51.03226 41.64605,0 79.10789,19.68326 105.09035,51.05053 l -210.19762,210.18648 c 25.99733,31.35128 63.4587,51.03398 105.10414,51.03398 z" style="fill:#deb308;fill-opacity:1;stroke:none"/><path d="m 744.93384,-443.37099 0,3.92268 -43.24558,0 0,-3.92268 18.70965,0 0,-55.65074 -16.67763,-4.38347 9.29756,-25.64652 -8.61056,1.05978 18.90377,-50.91865 18.90387,50.91865 -8.61066,-1.05978 9.29736,25.64652 -16.67733,4.38347 0,55.65074 z" style="fill:#32b457;fill-opacity:1"/><path d="m 740.86525,-491.81899 -17.5542,6.01199 -17.5542,-6.01199" style="fill:none;stroke:#32b457;stroke-width:3.05672693;stroke-miterlimit:4;stroke-opacity:1;stroke-dasharray:none"/><path d="m 740.86525,-496.47271 -17.5542,6.01199 -17.5542,-6.01199" style="fill:none;stroke:#32b457;stroke-width:3.05672693;stroke-miterlimit:4;stroke-opacity:1;stroke-dasharray:none"/><path d="m 650.92993,-449.94297 -8.75368,41.87386 8.75368,42.91967 -20.8848,0 8.80125,-42.91967 -8.80125,-41.87386 z"/><path d="m 632.21344,-453.1057 c 0,1.87905 -1.52327,3.40234 -3.40233,3.40234 -1.87906,0 -3.40233,-1.52329 -3.40233,-3.40234 0,-1.87905 1.52327,-3.40234 3.40233,-3.40234 1.87906,0 3.40233,1.52329 3.40233,3.40234 z"/><path d="m 655.88989,-453.1057 c 0,1.87905 -1.52329,3.40234 -3.40234,3.40234 -1.87905,0 -3.40236,-1.52329 -3.40236,-3.40234 0,-1.87905 1.52331,-3.40234 3.40236,-3.40234 1.87905,0 3.40234,1.52329 3.40234,3.40234 z"/><path d="m 632.21344,-361.94301 c 0,1.87907 -1.52327,3.40234 -3.40233,3.40234 -1.87906,0 -3.40233,-1.52327 -3.40233,-3.40234 0,-1.87905 1.52327,-3.40232 3.40233,-3.40232 1.87906,0 3.40233,1.52327 3.40233,3.40232 z"/><path d="m 655.88989,-361.94301 c 0,1.87907 -1.52329,3.40234 -3.40234,3.40234 -1.87905,0 -3.40236,-1.52327 -3.40236,-3.40234 0,-1.87905 1.52331,-3.40232 3.40236,-3.40232 1.87905,0 3.40234,1.52327 3.40234,3.40232 z"/><path d="m 598.06969,-417.82642 41.87386,8.7529 42.91891,-8.75367 0,20.88478 -42.91891,-8.80045 -41.87386,8.80045 z"/><path d="m 598.30968,-395.708 c 0,1.87929 -1.52344,3.40274 -3.40273,3.40274 -1.87926,0 -3.40271,-1.52345 -3.40271,-3.40274 0,-1.87926 1.52345,-3.40271 3.40271,-3.40271 1.87929,0 3.40273,1.52345 3.40273,3.40271 z"/><path d="m 598.30968,-419.38442 c 0,1.87928 -1.52344,3.40272 -3.40273,3.40272 -1.87926,0 -3.40271,-1.52344 -3.40271,-3.40272 0,-1.87928 1.52345,-3.40272 3.40271,-3.40272 1.87929,0 3.40273,1.52344 3.40273,3.40272 z"/><path d="m 689.47162,-395.708 c 0,1.87929 -1.52345,3.40274 -3.40273,3.40274 -1.87925,0 -3.40273,-1.52345 -3.40273,-3.40274 0,-1.87926 1.52348,-3.40271 3.40273,-3.40271 1.87928,0 3.40273,1.52345 3.40273,3.40271 z"/><path d="m 689.47123,-419.38481 c 0,1.87905 -1.52328,3.40233 -3.40234,3.40233 -1.87906,0 -3.40233,-1.52328 -3.40233,-3.40233 0,-1.87906 1.52327,-3.40234 3.40233,-3.40234 1.87906,0 3.40234,1.52328 3.40234,3.40234 z"/><path d="m 800.74891,-455.29964 14.25569,0 0,94.39566 -14.25569,0 z"/><path d="m 760.67893,-415.22965 94.39565,0 0,14.25567 -94.39565,0 z"/><path d="m 795.64385,-449.13502 24.4658,0 0,11.17338 -24.4658,0 z"/><path d="m 795.64385,-378.242 24.4658,0 0,11.17336 -24.4658,0 z"/><path d="m 766.84354,-420.33471 11.17338,0 0,24.46581 -11.17338,0 z"/><path d="m 837.7366,-420.33471 11.17335,0 0,24.46581 -11.17335,0 z"/><path d="m 697.82297,-310.72937 h 51.52975 v 45.3909 c 0,0 -0.27011,2.8059 -3.80875,2.8059 h -10.5148 c 0,0 -10.21148,-2.64779 -16.47992,-10.96946 -6.26844,-8.32167 -19.61416,-8.60537 -20.72628,-8.60537 v -28.62197 z" style="fill:#00aeef;fill-opacity:1"/><path d="m 707.78698,-303.09397 0,27.22402" style="fill:none;stroke:#deb308;stroke-width:3.05672693;stroke-miterlimit:4;stroke-opacity:1;stroke-dasharray:none"/><path d="m 718.30312,-303.09397 0,33.77895" style="fill:none;stroke:#deb308;stroke-width:3.05672693;stroke-miterlimit:4;stroke-opacity:1;stroke-dasharray:none"/><path d="m 728.81927,-303.03019 0,39.82722" style="fill:none;stroke:#deb308;stroke-width:3.05672693;stroke-miterlimit:4;stroke-opacity:1;stroke-dasharray:none"/><path d="m 739.3354,-303.09397 0,41.84482" style="fill:none;stroke:#deb308;stroke-width:3.05672693;stroke-miterlimit:4;stroke-opacity:1;stroke-dasharray:none"/><path d="m 700.09572,-315.22402 c 0,0 -9.14133,0 -14.66632,-5.48832 -5.52498,-5.48834 -5.42452,-14.9682 -5.42452,-14.9682 h 86.82466 c 0,0 0.10059,9.47986 -5.42454,14.9682 -5.52501,5.48832 -14.66633,5.48832 -14.66633,5.48832 h -46.64295 z" style="fill:#00aeef;fill-opacity:1"/><path d="m 673.38269,-349.99193 100.53879,0 0,10.63651 -100.53879,0 z" style="fill:#00aeef;fill-opacity:1"/></g></svg>