<svg xmlns="http://www.w3.org/2000/svg" viewBox="0 0 640 480"><g style="display:none"><text x="0" y="0" fill="#000" style="white-space: pre;">Projection: MILLER Fi0: 90 Lambda0: 0 FiMin: -90 FiMax: 90 LambdaMin: -180 LambdaMax: 180 Scale: 100</text></g><g><g transform="matrix(2.36393, 0, 0, 2.36393, -199.838257, -489.787262)"><path d="m 241.92764,409.0284 -2.00618,0.14726 -1.0769,-1.03794 -1.27232,-0.0785 -2.26184,-10e-4 -10e-4,-6.4493 0.81094,1.32362 1.05584,2.15803 2.74549,1.74167 2.95652,0.72976 -0.95034,1.46688" style="fill:#e6e6e6;stroke:#000000;stroke-width:0.242"/><path d="m 243.05778,326.21116 1.24146,1.60325 0.82413,-1.7856 2.40815,0.0917 0.34085,0.47444 3.88253,3.63279 1.72667,0.34 2.58057,1.65529 2.17497,0.87809 0.30298,0.9939 -2.07914,3.44063 2.1296,0.61916 2.37185,0.34752 1.67028,-0.36603 1.91542,-1.73987 0.34534,-1.99553 1.04592,-0.43234 1.05961,1.30306 -0.0431,1.80919 -1.77822,1.25356 -1.41835,0.9282 -2.38346,2.22252 -2.81761,3.14309 -0.52756,1.85725 -0.56483,2.39954 0.0207,2.34123 -0.45834,0.52538 -0.16359,1.53005 -0.14424,1.24096 2.68112,2.04648 -0.28847,1.65685 1.31976,1.05162 -0.10736,1.18326 -2.0293,3.12809 -3.13124,1.31805 -4.23523,0.51328 -2.32006,-0.24841 0.44382,1.47402 -0.43221,1.86074 0.38962,1.26058 -1.26675,0.88293 -2.16396,0.34703 -2.03074,-0.91464 -0.81494,0.65679 0.29427,2.50942 1.42599,0.7646 1.15627,-0.8009 0.62885,1.3206 -1.94436,0.79266 -1.69581,1.5943 -0.31049,2.59993 -0.49937,1.39428 -1.99516,0.008 -1.65516,1.34129 -0.60549,1.97629 2.07672,1.94459 2.01913,0.53966 -0.72661,2.40948 -2.49429,1.52678 -1.3725,3.20552 -1.92729,1.08839 -0.86539,1.29858 0.68183,2.90642 1.40566,1.63604 -0.89007,-0.14339 -1.95755,-0.44347 -5.10304,-0.37823 -0.87556,-1.64077 0.0409,-2.09088 -1.40578,0.17933 -0.74427,-1.00648 -0.18428,-2.91828 1.62018,-1.19983 0.66938,-1.72026 -0.24539,-1.3627 1.11949,-2.28315 0.7715,-3.50053 -0.22664,-1.53645 0.92191,-0.49405 -0.22603,-0.97937 -0.97949,-0.51921 0.69587,-1.08441 -0.953,-0.97563 -0.4932,-2.94816 0.84917,-0.51679 -0.3567,-3.07522 0.4961,-2.55745 0.56446,-2.20958 1.26458,-0.89419 -0.64179,-2.39156 -0.008,-2.23342 1.59889,-1.57784 -0.049,-2.00691 1.20516,-2.32927 0.004,-2.17956 -0.54825,-0.43136 -0.97295,-4.04854 1.30111,-2.39095 -0.19977,-2.23657 0.75504,-2.08713 1.38303,-2.14219 1.49036,-1.41424 -0.63211,-0.88983 0.44092,-0.72855 -0.0669,-3.75184 2.30046,-1.10462 0.72479,-2.318 -0.25664,-0.55696 1.76006,-2.00448 2.76315,0.53954" style="fill:#e6e6e6;stroke:#000000;stroke-width:0.242"/><path d="m 216.5122,227.71027 -0.51801,0.11132 -0.53639,-1.28851 -0.79086,-0.64858 0.45945,-1.42562 0.63549,0.0907 0.73919,1.86303 0.011,1.29773" style="fill:#e6e6e6;stroke:#000000;stroke-width:0.242"/><path d="m 215.90973,221.36623 -2.30189,0.3624 -0.14787,-0.83854 0.99257,-0.18149 1.3938,0.068 0.0634,0.58963" style="fill:#e6e6e6;stroke:#000000;stroke-width:0.242"/><path d="m 217.64137,221.34361 -0.36446,1.60773 -0.38816,-0.28956 0.0346,-1.1823 -0.9461,-0.89624 -0.004,-0.26076 1.66835,1.02113" style="fill:#e6e6e6;stroke:#000000;stroke-width:0.242"/><path d="m 191.99699,240.83186 -0.0165,-0.32076 0.25556,-0.10033 0.38356,0.25786 0.75638,-1.31685 0.40147,-0.0289 0.009,0.3204 0.40015,0.01 -0.0352,0.59351 -0.34195,0.94272 0.18477,0.33662 -0.22107,0.77827 0.13322,0.20776 -0.24478,1.0971 -0.41479,0.57524 -0.38138,0.0692 -0.41855,0.75007 -0.63041,8.5e-4 0.16541,-2.44794 0.0162,-1.72487" style="fill:#e6e6e6;stroke:#000000;stroke-width:0.242"/><path d="m 247.53152,326.12053 -2.40815,-0.0917 -0.82413,1.7856 -1.24146,-1.60325 -2.76316,-0.53954 -1.76006,2.00447 -1.52363,0.30469 -0.82728,-3.05695 -1.13474,-2.4736 0.66526,-2.12488 -1.10787,-0.92722 -0.28169,-1.57687 -1.03528,-1.48249 1.33221,-2.34535 -0.90847,-1.82092 0.4846,-0.72673 -0.37848,-0.8009 0.82498,-1.07775 0.0416,-1.83206 0.10372,-1.51032 0.454,-0.72612 -1.82589,-3.4456 1.57009,0.1809 1.08744,-0.0468 0.47117,-0.64615 1.84658,-0.86514 1.11272,-0.80103 2.76339,-0.36094 -0.22469,1.5989 0.25954,0.82087 -0.16976,1.43336 2.29319,1.91857 2.36507,0.3538 0.83078,0.80212 1.42768,0.42543 0.87398,0.624 1.32858,-0.021 1.22658,0.63792 0.0932,1.2446 0.41165,0.62943 0.0278,0.93062 -0.6165,0.0361 0.81228,2.51922 4.04878,0.0895 -0.31024,1.25308 0.22663,0.85751 1.1535,0.61107 0.49888,1.35483 -0.37511,1.72074 -0.57862,0.95965 0.20316,1.25066 -0.66017,0.45436 -0.0362,-0.67749 -1.9671,-1.12202 -1.96105,-0.0311 -3.68034,0.63802 -1.01312,1.93395 -0.0532,1.18557 -0.83176,2.64881 -0.34085,-0.47444" style="fill:#e6e6e6;stroke:#000000;stroke-width:0.242"/><path d="m 258.55824,344.6282 2.81761,-3.14309 2.38346,-2.22252 1.41836,-0.9282 1.77822,-1.25356 0.0431,-1.8092 -1.0596,-1.30305 -1.04592,0.43234 0.41466,-1.30003 0.28605,-1.32821 9.7e-4,-1.23131 -0.75976,-0.40546 -0.79219,0.36144 -0.78735,-0.0992 -0.24683,-0.85983 -0.19663,-2.04066 -0.39555,-0.6632 -1.4261,-0.60016 -0.86201,0.43439 -2.22955,-0.4258 0.14048,-2.99996 -0.62448,-1.22366 0.66018,-0.45436 -0.20316,-1.25066 0.57862,-0.95965 0.3751,-1.72074 -0.49888,-1.35483 -1.1535,-0.61107 -0.22662,-0.85751 0.31023,-1.25308 -4.04878,-0.0895 -0.81227,-2.51922 0.61649,-0.0361 -0.0278,-0.93062 -0.41165,-0.62943 -0.0932,-1.2446 -1.22657,-0.63792 -1.32858,0.021 -0.87399,-0.624 -1.42768,-0.42543 -0.83078,-0.80212 -2.36507,-0.3538 -2.29318,-1.91857 0.16975,-1.43336 -0.25954,-0.82087 0.22469,-1.5989 -2.76339,0.36094 -1.11272,0.80103 -1.84658,0.86514 -0.47117,0.64615 -1.08743,0.0468 -1.57009,-0.1809 -1.19137,0.36821 -0.96062,-0.24564 0.14109,-3.2411 -1.73285,1.25622 -1.86364,-0.0549 -0.79848,-1.13716 -1.40166,-0.12354 0.44624,-0.91439 -1.17357,-1.29446 -0.87871,-1.91386 0.55709,-0.38805 -0.002,-0.89648 1.27655,-0.61251 -0.21054,-1.14637 0.53893,-0.73723 0.15331,-0.98858 2.41492,-1.44075 1.73091,-0.40704 0.28301,-0.31798 1.90322,0.0992 0.94924,-5.79566 0.0498,-0.9161 -0.33081,-1.20939 -0.93679,-0.77041 0.011,-1.5344 1.18943,-0.34811 0.42242,0.21864 0.0714,-0.80888 -1.2376,-0.21841 -0.0263,-1.32168 4.11473,0.0472 0.69865,-0.72829 0.58673,0.67009 0.41177,1.24606 0.39845,-0.26039 1.16257,1.11707 1.64197,-0.13686 0.40885,-0.64626 1.57059,-0.49307 0.8695,-0.34677 0.24539,-0.89457 1.50851,-0.60113 -0.11423,-0.44418 -1.78898,-0.18151 -0.29318,-1.33099 0.0851,-1.41753 -0.94524,-0.54812 0.39566,-0.19493 1.56369,0.27079 1.67911,0.52853 0.60972,-0.49997 1.51855,-0.32803 2.36217,-0.79219 0.77234,-0.80767 -0.27963,-0.59738 1.09795,-0.0936 0.49139,0.48787 -0.27456,0.92941 0.72564,0.32052 0.48448,0.98313 -0.58588,0.745 -0.33589,1.79963 0.54063,1.06843 0.15306,0.97743 1.29894,0.99111 1.03672,0.10484 0.23341,-0.41358 0.66756,-0.0915 0.95541,-0.3705 0.6868,-0.56168 1.16802,0.1792 0.51376,-0.0756 1.14829,0.17278 0.19021,-0.43162 -0.35417,-0.41997 0.21127,-0.61202 0.85208,0.18791 0.99716,-0.21599 1.20977,0.4477 0.92225,0.43573 0.65376,-0.57281 0.47239,0.0883 0.28786,0.59472 1.0112,-0.151 0.80948,-0.80248 0.64856,-1.55643 1.24909,-1.93516 0.71959,-0.1001 0.52223,1.16983 1.18447,3.69607 1.12941,0.34871 0.0571,1.45818 -1.5886,1.73853 0.65703,0.63646 3.73284,0.33178 0.0764,2.11688 1.60385,-1.38592 2.65753,0.75903 3.50766,1.28987 1.0308,1.23818 -0.34643,1.16959 2.45571,-0.65122 4.10988,1.11768 3.15507,-0.0822 3.12192,1.74955 2.69709,2.36991 1.62697,0.61081 1.8058,0.0848 0.76533,0.66792 0.7168,2.69891 0.35055,1.28381 -0.84096,3.5142 -1.07448,1.39066 -2.9766,2.96933 -1.34552,2.41915 -1.56344,1.85954 -0.52792,0.0421 -0.59,1.58136 0.14992,4.04236 -0.58878,3.34274 -0.22434,1.43507 -0.66768,0.86067 -0.3745,2.92469 -2.1412,2.87085 -0.35926,2.28242 -1.70924,0.96098 -0.49441,1.33197 -2.29428,-0.004 -3.32217,0.85595 -1.48734,0.99268 -2.36531,0.65316 -2.48546,1.78488 -1.78765,2.23329 -0.30734,1.68904 0.35127,1.25357 -0.39447,2.30335 -0.4794,1.11743 -1.47584,1.26434 -2.34328,4.0714 -1.85687,1.84984 -1.43591,1.0953 -0.96303,2.23838 -1.39719,1.35278 -0.58455,-1.33995 0.93109,-1.11804 -1.2215,-1.59769 -1.65672,-1.29239 -2.17304,-1.49194 -0.78505,0.0679 -2.11775,-1.79346 -1.37081,0.24672" style="fill:#e6e6e6;stroke:#000000;stroke-width:0.242"/><path d="m 235.30919,401.60844 0.001,6.4493 2.2616,10e-4 1.27232,0.0785 -0.69925,1.18881 -1.81102,0.91756 -1.03781,-0.0942 -1.25041,-0.23922 -1.5332,-0.88705 -2.21236,-0.42519 -2.65716,-1.63532 -2.15683,-1.56211 -2.90859,-3.21944 1.74094,0.59992 2.96487,1.91967 2.80138,1.0383 1.08949,-1.32556 0.68486,-1.96467 1.94689,-1.17673 1.50282,0.3359" style="fill:#e6e6e6;stroke:#000000;stroke-width:0.242"/><path d="m 236.18365,324.92384 0.82728,3.05694 1.52363,-0.30468 0.25665,0.55696 -0.7248,2.318 -2.30045,1.10462 0.0669,3.75184 -0.44092,0.72855 0.6321,0.88983 -1.49036,1.41424 -1.38303,2.14219 -0.75504,2.08713 0.19978,2.23656 -1.30112,2.39096 0.97296,4.04854 0.54825,0.43136 -0.004,2.17956 -1.20516,2.32927 0.0489,2.0069 -1.59889,1.57785 0.008,2.23342 0.6418,2.39156 -1.26458,0.89418 -0.56447,2.20959 -0.49609,2.55745 0.3567,3.07522 -0.84917,0.51679 0.49319,2.94816 0.953,0.97563 -0.69587,1.08441 0.97949,0.51921 0.22603,0.97937 -0.9219,0.49405 0.22664,1.53645 -0.7715,3.50053 -1.11949,2.28315 0.24538,1.3627 -0.66937,1.72026 -1.62018,1.19983 0.18427,2.91828 0.74427,1.00648 1.40578,-0.17933 -0.0409,2.09088 0.87556,1.64076 5.10305,0.37824 1.95755,0.44347 -1.87914,-0.021 -1.01688,0.69806 -1.90551,1.02958 -0.3405,2.68403 -0.89431,0.067 -2.38236,-0.9381 -2.41782,-1.99592 0,0 -2.62716,-1.62744 -0.66151,-1.78754 0.59848,-1.64148 -1.06263,-1.84876 -0.27079,-4.67374 0.89805,-2.59763 2.23052,-2.06669 -3.20541,-0.77585 2.0109,-2.33541 0.7191,-4.33315 2.34691,0.91223 1.10364,-5.32399 -1.41726,-0.67567 -0.6597,3.18714 -1.33172,-0.36145 0.66284,-3.64366 0.71994,-4.64918 0.97042,-1.69617 -0.60826,-2.40464 -0.17425,-2.75214 0.88996,-0.0791 1.29591,-3.90165 1.46011,-3.81815 0.8937,-3.5176 -0.48618,-3.50089 0.63065,-1.91313 -0.253,-2.84423 1.23504,-2.79303 0.3803,-4.38626 0.67785,-4.65995 0.66066,-4.96499 -0.15464,-3.60447 -0.43972,-3.08308 1.08599,-0.55708 0.56591,-1.1172 1.03527,1.4825 0.28169,1.57687 1.10788,0.92722 -0.66526,2.12488 1.13473,2.4736" style="fill:#e6e6e6;stroke:#000000;stroke-width:0.242"/><path d="m 221.07704,279.15498 -0.90459,-0.50009 -1.03649,-0.69949 -0.59991,0.33601 -1.79214,-0.29307 -0.51449,-0.90859 -0.39385,0.0338 -2.1123,-1.206 -0.28629,-0.65582 0.78795,-0.1585 -0.0936,-1.0584 0.49525,-0.76532 1.04775,-0.14169 0.88922,-1.32822 0.80828,-1.10933 -0.77851,-0.50335 0.39858,-1.22804 -0.4765,-1.93684 0.45278,-0.55636 -0.33348,-1.79286 -0.85498,-1.13027 0.27067,-1.032 0.68063,0.15234 0.39809,-0.63138 -0.49018,-1.25223 0.25616,-0.31097 1.0913,0.0676 1.5845,-1.48588 0.86963,-0.22675 0.0209,-0.70483 0.38913,-1.80278 1.21121,-0.99135 1.33064,-0.0405 0.16819,-0.44577 1.65226,0.17848 1.66205,-1.08029 0.8228,-0.47855 1.02232,-1.03237 0.74815,0.13141 0.55394,0.56362 -0.40983,0.72103 -1.35653,0.35876 -0.53566,1.06928 -0.8176,0.61274 -0.61359,0.79365 -0.25834,1.52194 -0.58588,1.24581 1.09045,0.14266 0.27068,0.97828 0.46585,0.46791 0.16685,0.85608 -0.25082,0.78625 0.0743,0.44323 0.51969,0.17702 0.50312,0.74027 2.71572,-0.20412 1.22682,0.27031 1.48636,1.82493 0.85354,-0.22664 1.52097,0.11338 1.20383,-0.24163 0.74693,0.36421 -0.3803,1.14115 -0.47142,0.71123 -0.16541,1.51806 0.42496,1.40555 0.60016,0.62846 0.0727,0.47324 -1.07013,1.05221 0.76617,0.46574 0.56132,0.73894 0.64408,2.10661 -0.39844,0.2604 -0.41177,-1.24606 -0.58673,-0.6701 -0.69866,0.7283 -4.11472,-0.0472 0.0263,1.32167 1.23759,0.21841 -0.0714,0.80888 -0.42241,-0.21864 -1.18943,0.34812 -0.011,1.5344 0.93678,0.77041 0.33081,1.20939 -0.0498,0.9161 -0.94924,5.79566 -1.05682,-1.12446 -0.63077,-0.05 1.3621,-2.1515 -1.61728,-0.98954 -1.26724,0.18149 -0.7629,-0.36553 -1.16354,0.55865 -1.57251,-0.26451 -1.24413,-2.21502 -0.97756,-0.54425 -0.67409,-0.99692 -1.40432,-1.00019 -0.56302,0.20025" style="fill:#e6e6e6;stroke:#000000;stroke-width:0.242"/><path d="m 205.04261,261.4257 -1.146,-0.47178 -0.42882,-0.44649 0.24322,-0.36941 -0.0766,-0.47033 -0.58564,-0.50978 -0.83103,-0.41877 -0.72685,-0.27298 -0.13903,-0.62364 -0.55394,-0.3809 0.13589,0.61988 -0.42133,0.50941 -0.48279,-0.59146 -0.67857,-0.21064 -0.28847,-0.43004 0.0121,-0.64952 0.27964,-0.67252 -0.59641,-0.3013 0.48412,-0.41261 0.31799,-0.27515 1.3915,0.56604 0.48557,-0.27867 0.66986,0.17848 0.34993,0.43947 0.62315,0.14242 0.50578,-0.4529 0.53494,1.1605 0.81651,0.8585 0.99147,0.90991 -0.81663,0.19035 0.0121,0.85716 0.43936,0.31629 -0.31582,0.25205 0.0822,0.38502 -0.17605,0.43136 -0.11107,0.42205" style="fill:#e6e6e6;stroke:#000000;stroke-width:0.242"/><path d="m 206.51578,228.98439 1.82396,0.15888 1.65939,0.0252 1.98355,0.75806 0.84059,0.81324 1.97266,-0.25096 0.74778,0.52164 1.7885,1.37189 1.31491,0.99693 0.69514,-0.0305 1.25962,0.45036 -0.15403,0.62061 1.5569,0.0908 1.59635,0.9011 -0.25047,0.51485 -1.40444,0.2789 -1.42139,0.10901 -1.45514,-0.17376 -3.0238,0.21394 1.41582,-1.22633 -0.86079,-0.57185 -1.36125,-0.14714 -0.72963,-0.63658 -0.5007,-1.25804 -1.19342,0.086 -1.96928,-0.59314 -0.63367,-0.46476 -2.75251,-0.34352 -0.73725,-0.43257 0.79194,-0.55503 -2.07152,-0.11374 -1.51758,1.15361 -0.87495,0.0308 -0.30286,0.54063 -1.04484,0.24224 -0.90375,-0.20994 1.11465,-0.68449 0.45763,-0.80103 0.95505,-0.49392 1.07848,-0.43354 1.59888,-0.21307 0.51147,-0.24479" style="fill:#e6e6e6;stroke:#000000;stroke-width:0.242"/><path d="m 228.80797,236.66402 0.26427,-0.37414 1.64851,0.01 1.25089,0.56495 0.5566,-0.0552 0.38333,0.77766 1.15555,-0.0436 -0.068,0.65254 0.93956,0.079 1.03807,0.80224 -0.78433,0.88898 -1.00442,-0.4748 -0.96957,0.0916 -0.69454,-0.10406 -0.38079,0.39821 -0.81082,0.13443 -0.32138,-0.52949 -0.69841,0.31349 -0.84519,1.49255 -0.54377,-0.3463 -0.10681,-0.62643 0.0436,-0.59278 -0.54365,-0.65556 0.51485,-0.36846 0.16142,-0.84106 -0.18489,-1.19403" style="fill:#e6e6e6;stroke:#000000;stroke-width:0.242"/><path d="m 210.66681,286.0273 1.12421,-1.57978 -0.4569,-0.92286 -0.80707,0.98143 -1.26506,-0.92626 0.42871,-0.59556 -0.35671,-1.91688 0.7398,-0.3186 0.3889,-1.31563 0.79907,-1.36004 -0.14725,-0.86188 1.15688,-0.45302 1.45188,-0.84071 2.1123,1.206 0.39385,-0.0338 0.51449,0.90859 1.79214,0.29307 0.59991,-0.33601 1.03649,0.69949 0.90459,0.50009 0.29451,1.60373 -0.65739,1.37336 -2.30274,2.21224 -2.53955,0.83345 -1.2941,1.83956 -0.39954,1.42731 -1.19403,0.8706 -0.88633,-1.06854 -0.85305,-0.22882 -0.87276,0.16843 -0.0572,-0.77513 0.60246,-0.5036 -0.25047,-0.88027" style="fill:#e6e6e6;stroke:#000000;stroke-width:0.242"/><path d="m 251.00857,399.38083 2.53423,-1.68505 1.79515,0.70059 1.26711,-1.11997 1.68941,1.26033 -0.63356,0.98507 -2.851,0.84784 -0.95034,-0.98881 -1.79503,1.27207 -1.05597,-1.27207" style="fill:#e6e6e6;stroke:#000000;stroke-width:0.242"/><path d="m 269.26263,273.54337 -0.80949,0.80247 -1.0112,0.151 -0.28785,-0.59471 -0.47239,-0.0883 -0.65376,0.57282 -0.92226,-0.43573 0.53554,-0.90205 0.18356,-0.9628 0.36481,-0.90568 -0.81929,-1.24788 -0.1671,-1.44788 1.09941,-1.82057 0.71705,0.23305 1.55508,0.50118 2.23608,1.78693 0.34946,0.8666 -1.24909,1.93515 -0.64856,1.55642" style="fill:#e6e6e6;stroke:#000000;stroke-width:0.242"/><path d="m 189.98549,249.64768 -1.08332,-0.37558 -1.31745,-0.0387 -0.96569,-0.42713 -1.13643,-0.8891 0.052,-0.62836 0.24491,-0.50614 -0.29984,-0.40354 1.01616,-1.76357 2.71064,-0.007 0.054,-0.73798 -0.34183,-0.13165 -0.23449,-0.47007 -0.78118,-0.50168 -0.78602,-0.72527 0.95373,-0.004 10e-4,-1.22525 1.97169,-0.003 1.95294,0.024 -0.0162,1.72487 -0.16541,2.44794 0.63041,-8.5e-4 0.68849,0.39156 0.18199,-0.32246 0.61964,0.27635 -0.96232,0.82499 -1.00127,0.6044 -0.14859,0.41478 0.16832,0.4235 -0.43887,0.54753 -0.49417,0.13248 0.11205,0.25387 -0.39639,0.23825 -0.72395,0.54293 -0.0652,0.31568" style="fill:#e6e6e6;stroke:#000000;stroke-width:0.242"/><path d="m 254.05329,261.1238 1.38666,0.78179 1.30656,1.38387 0.0594,1.09276 0.7957,0.0502 1.13171,1.03455 0.83381,0.73809 -0.33747,1.90527 -1.28211,0.55249 0.11422,0.49901 -0.38961,1.09154 0.93568,1.53561 0.67627,0.002 0.27734,1.19353 1.28961,1.83703 -0.51376,0.0756 -1.16802,-0.1792 -0.6868,0.56168 -0.95541,0.3705 -0.66755,0.0915 -0.23342,0.41358 -1.03672,-0.10483 -1.29893,-0.9911 -0.15307,-0.97745 -0.54063,-1.06843 0.33589,-1.79963 0.58589,-0.745 -0.48449,-0.98312 -0.72563,-0.32053 0.27455,-0.9294 -0.49139,-0.48788 -1.09795,0.0936 -1.42913,-1.60736 0.57209,-0.58335 -0.042,-0.97925 1.29942,-0.34037 0.52442,-0.39748 -0.72297,-0.78771 0.18464,-0.77428 1.67319,-1.24848" style="fill:#e6e6e6;stroke:#000000;stroke-width:0.242"/><path d="m 195.85411,251.26073 -0.36469,-0.6718 -0.64142,-0.18693 0.147,-0.86153 -0.28724,-0.2328 -0.43451,-0.15343 -0.9265,0.2563 -0.0785,-0.28994 -0.63767,-0.34521 -0.45484,-0.42966 -0.62254,-0.18127 0.43886,-0.54752 -0.16831,-0.4235 0.14859,-0.41479 1.00127,-0.60439 0.96231,-0.82499 0.21926,0.0844 0.46331,-0.38042 0.60427,-0.031 0.1959,0.17642 0.32754,-0.10736 0.9812,0.19518 0.97634,-0.0565 0.67929,-0.23934 0.24757,-0.2426 0.67301,0.11204 0.50541,0.14714 0.55248,-0.0508 0.41964,-0.18777 0.96448,0.3003 0.33506,0.0476 0.64456,0.40462 0.61057,0.4846 0.76787,0.33119 0.55587,0.5941 -0.72395,-0.0441 -0.29269,0.2939 -0.73302,0.28205 -0.53348,0.001 -0.46671,0.27431 -0.42301,-0.0973 -0.35986,-0.32974 -0.2207,0.0628 -0.27092,0.51558 -0.2028,-0.0187 -0.0351,0.44358 -0.737,0.59327 -0.38914,0.25603 -0.21672,0.26681 -0.62303,-0.43501 -0.45568,0.57427 -0.44056,-0.0153 -0.49501,0.0509 0.045,1.05718 -0.31012,0.0191 -0.26439,0.49053 -0.65655,0.0882" style="fill:#e6e6e6;stroke:#000000;stroke-width:0.242"/><path d="m 225.68799,236.22225 1.28841,0.097 1.83157,0.34472 0.18489,1.19404 -0.16141,0.84106 -0.51486,0.36846 0.54365,0.65557 -0.0436,0.59278 -1.40263,-0.37074 -0.99667,0.15137 -1.28865,-0.15779 -0.98785,0.40777 -1.1311,-0.67965 0.18598,-0.70422 1.94374,0.30322 1.59368,0.17545 0.76025,-0.48642 -0.96449,-0.94755 0.0158,-0.83696 -1.33233,-0.34205 0.47553,-0.60609" style="fill:#e6e6e6;stroke:#000000;stroke-width:0.242"/><path d="m 216.43851,239.34368 1.42127,0.19567 1.12179,0.52429 0.34992,0.59701 -1.48442,0.0408 -0.6413,0.36397 -1.18205,-0.3497 -1.20734,-0.7946 0.2535,-0.49876 0.88753,-0.15234 0.4811,0.0737" style="fill:#e6e6e6;stroke:#000000;stroke-width:0.242"/><path d="m 175.10878,222.97215 -0.81953,1.97738 -0.36917,1.61463 -0.1544,2.99014 -0.20364,1.08549 0.36627,1.20952 0.65461,1.07895 0.4218,1.71106 1.40166,1.63739 0.49308,1.2515 0.82619,1.07785 2.24225,0.57984 0.87313,0.91331 1.85203,-0.60984 1.61051,-0.22059 1.58135,-0.393 1.32918,-0.37498 1.34323,-0.89311 0.50323,-1.27932 0.1734,-1.8478 0.36505,-0.64468 1.43034,-0.5779 2.23306,-0.51255 1.87005,0.0771 1.28091,-0.18719 0.50663,0.46851 -0.0716,1.06286 -1.13486,1.30899 -0.50227,1.33728 0.38926,0.382 -0.31642,0.94706 -0.52913,1.70538 -0.53542,-0.56071 -0.44202,0.0362 -0.40148,0.0289 -0.75637,1.31685 -0.38357,-0.25786 -0.25555,0.10032 0.0165,0.32077 -1.95294,-0.024 -1.97169,0.003 -0.001,1.22525 -0.95373,0.004 0.78602,0.72526 0.78118,0.50168 0.23449,0.47007 0.34183,0.13166 -0.054,0.73798 -2.71065,0.006 -1.01615,1.76358 0.29983,0.40353 -0.2449,0.50614 -0.052,0.62836 -2.38999,-2.32502 -1.089,-0.70289 -1.72438,-0.56495 -1.1795,0.15754 -1.69617,0.81458 -1.06445,0.21332 -1.49132,-0.5704 -1.58268,-0.412 -1.97387,-0.99438 -1.58329,-0.30431 -2.39084,-1.00986 -1.76672,-1.03988 -0.533,-0.58189 -1.18181,-0.1302 -2.16021,-0.69043 -0.87968,-0.99679 -2.26911,-1.24206 -1.05802,-1.38352 -0.50348,-1.07146 0.70446,-0.21477 -0.21732,-0.62835 0.48557,-0.57209 0.011,-0.76364 -0.71257,-0.99329 -0.19044,-0.88208 -0.7081,-1.12083 -1.86122,-2.21502 -2.12318,-1.74809 -1.02742,-1.40009 -1.81258,-0.91936 -0.38841,-0.55104 0.3221,-1.39706 -1.07689,-0.52865 -1.24643,-1.10316 -0.52647,-1.58945 -1.13594,-0.18561 -1.22634,-1.2048 -0.98966,-1.11562 -0.0921,-0.71825 -1.13571,-1.73999 -0.74802,-1.7747 0.0319,-0.89347 -1.52738,-0.92492 -0.70495,0.10186 -1.2054,-0.64373 -0.33831,0.94815 0.34956,1.11756 0.20546,1.74179 0.72419,0.95288 1.56719,1.58643 0.348,0.54075 0.32125,0.16383 0.27866,0.78723 0.37534,-0.0318 0.42387,1.47426 0.6413,0.57996 0.44963,0.80585 1.32737,1.15531 0.70071,2.10359 0.6269,0.98699 0.58673,1.05343 0.11616,1.18266 1.0181,0.0741 0.84712,1.01615 0.76593,0.99643 -0.0513,0.39918 -0.88874,0.81747 -0.37414,-0.011 -0.55696,-1.35375 -1.38194,-1.27292 -1.52291,-1.08221 -1.07992,-0.56979 0.0697,-1.64524 -0.32041,-1.22259 -1.00648,-0.70083 -1.45176,-1.01095 -0.27866,0.29185 -0.53264,-0.59121 -1.30257,-0.5497 -1.24472,-1.32192 0.15367,-0.17232 0.86986,0.12936 0.78372,-0.85282 0.0788,-1.03237 -1.62563,-1.63845 -1.23953,-0.63779 -0.77863,-1.44232 -0.78347,-1.52061 -0.97793,-1.86207 -0.85813,-2.10782 2.39992,-0.18125 2.68208,-0.25508 -0.19772,0.4598 3.18896,1.14067 4.81798,1.64609 4.19954,-0.0167 1.67489,-7.3e-4 0.003,-0.96353 3.65855,8.5e-4 0.77017,0.82788 1.0798,0.73678 1.2549,1.02221 0.70023,1.21035 0.52538,1.26954 1.0919,0.69563 1.75281,0.68981 1.33051,-1.81923 1.72655,-0.0445 1.48842,0.91912 1.05971,1.57336 0.73036,1.34189 1.24594,1.30062 0.46464,1.59164 0.59133,1.06529 1.64729,0.70107 1.49931,0.49682 0.82365,-0.0676" style="fill:#e6e6e6;stroke:#000000;stroke-width:0.242"/><path d="m 199.24199,255.32282 -0.73072,-0.67348 -0.98687,-0.86346 -0.46501,-0.722 -0.89019,-0.67361 -1.05803,-0.96885 0.23438,-0.33215 0.34871,0.32332 0.15985,-0.15186 0.65654,-0.0882 0.26439,-0.49053 0.31012,-0.0191 -0.045,-1.05718 0.49502,-0.0509 0.44055,0.0153 0.45569,-0.57427 0.62303,0.43499 0.21671,-0.2668 0.38914,-0.25603 0.737,-0.59326 0.0351,-0.44358 0.2028,0.0187 0.27093,-0.51559 0.22069,-0.0628 0.35986,0.32972 0.42301,0.0975 0.46671,-0.27432 0.53349,-0.001 0.73301,-0.28204 0.2927,-0.29391 0.72394,0.0442 -0.18162,0.20705 -0.10779,0.48181 0.21573,0.78881 -0.48666,0.73361 -0.22651,0.86576 -0.0685,0.94683 0.11338,0.55357 0.0532,0.9657 -0.32271,0.21054 -0.19747,0.91658 0.14508,0.56531 -0.4321,0.54703 0.0985,0.5779 0.32368,0.35092 -0.50578,0.45289 -0.62315,-0.14242 -0.34993,-0.43947 -0.66986,-0.17848 -0.48557,0.27867 -1.3915,-0.56604 -0.31799,0.27515" style="fill:#e6e6e6;stroke:#000000;stroke-width:0.242"/><path d="m 215.77967,263.55251 -0.70386,-0.61249 -0.45267,-1.1466 0.52188,-0.56797 -0.53519,-0.14569 -0.39409,-0.70276 -1.05209,-0.59157 -0.92408,0.13551 -0.4281,0.74028 -0.85293,0.53422 -0.46089,0.0741 -0.20691,0.44237 1.00732,1.15326 -0.57656,0.27114 -0.30516,0.31462 -0.9824,0.10846 -0.36554,-1.26856 -0.27504,0.36119 -0.69647,-0.12476 -0.42616,-0.85498 -0.866,-0.14121 -0.54801,-0.24865 -0.90641,0.003 -0.0653,0.46149 -0.24236,-0.32138 0.11107,-0.42204 0.17606,-0.43137 -0.0822,-0.38502 0.31581,-0.25205 -0.43936,-0.31628 -0.0121,-0.85717 0.81664,-0.19034 0.7583,0.76413 -0.0432,0.45096 0.84265,0.0957 0.19929,-0.17329 0.58056,0.52321 1.03902,-0.15391 0.89843,-0.5376 1.28247,-0.42954 0.7208,-0.6366 1.16596,0.12512 -0.0788,0.20946 1.17758,0.0726 0.9398,0.36809 0.68922,0.64056 0.79425,0.58794 -0.25616,0.31098 0.49017,1.25222 -0.39809,0.63138 -0.68063,-0.15234 -0.27067,1.03201" style="fill:#e6e6e6;stroke:#000000;stroke-width:0.242"/><path d="m 233.28933,316.33877 -0.56591,1.1172 -1.08598,0.55708 -2.1175,-1.25223 -0.18307,-0.89322 -4.18672,-2.18067 -3.78743,-2.36725 -1.6289,-1.33063 -0.87495,-1.77967 0.34703,-0.61988 -1.78875,-2.81688 -2.08229,-3.94545 -1.99529,-4.24141 -0.86357,-0.96884 -0.66453,-1.56405 -1.64076,-1.38461 -1.50464,-0.85837 0.68365,-0.94561 -1.02341,-2.01962 0.65715,-1.48188 1.68335,-1.33548 0.25047,0.88027 -0.60246,0.5036 0.0572,0.77513 0.87277,-0.16843 0.85305,0.22882 0.88633,1.06855 1.19402,-0.87061 0.39954,-1.42731 1.29411,-1.83956 2.53954,-0.83345 2.30275,-2.21224 0.65739,-1.37336 -0.29451,-1.60373 0.56301,-0.20025 1.40433,1.00019 0.67409,0.99692 0.97755,0.54425 1.24413,2.21502 1.57251,0.26451 1.16355,-0.55865 0.76289,0.36553 1.26725,-0.18149 1.61728,0.98954 -1.3621,2.1515 0.63077,0.05 1.05682,1.12446 -1.90322,-0.0992 -0.28301,0.31799 -1.73091,0.40704 -2.41491,1.44074 -0.15331,0.98858 -0.53894,0.73724 0.21055,1.14637 -1.27655,0.6125 0.002,0.89649 -0.55709,0.38804 0.8787,1.91386 1.17358,1.29447 -0.44625,0.91438 1.40167,0.12355 0.79848,1.13716 1.86364,0.0549 1.73284,-1.25623 -0.14108,3.24111 0.96061,0.24563 1.19137,-0.36821 1.82589,3.44561 -0.454,0.72611 -0.10372,1.51032 -0.0416,1.83207 -0.82498,1.07775 0.37848,0.80089 -0.4846,0.72673 0.90847,1.82092 -1.33221,2.34535" style="fill:#e6e6e6;stroke:#000000;stroke-width:0.242"/><path d="m 240.27538,239.29056 1.07933,0.1924 0.38078,0.43378 -0.54099,0.54983 -1.5897,-0.0129 -1.23383,0.0767 -0.12294,-0.93352 0.29924,-0.31908 1.72811,0.0127" style="fill:#e6e6e6;stroke:#000000;stroke-width:0.242"/><path d="m 247.87237,326.59497 0.83176,-2.64881 0.0532,-1.18556 1.01313,-1.93395 3.68034,-0.63803 1.96104,0.0311 1.9671,1.12203 0.0362,0.67748 0.62448,1.22366 -0.14048,2.99997 2.22955,0.42579 0.862,-0.43439 1.42611,0.60017 0.39554,0.66319 0.19663,2.04066 0.24684,0.85984 0.78734,0.0992 0.79219,-0.36144 0.75976,0.40546 -9.6e-4,1.23131 -0.28605,1.32821 -0.41467,1.30003 -0.34534,1.99553 -1.91542,1.73987 -1.67028,0.36603 -2.37185,-0.34752 -2.1296,-0.61916 2.07914,-3.44063 -0.30298,-0.9939 -2.17497,-0.87809 -2.58057,-1.65529 -1.72667,-0.34 -3.88253,-3.63279" style="fill:#e6e6e6;stroke:#000000;stroke-width:0.242"/><path d="m 194.848,250.402 -0.23438,0.5059 -1.22319,-0.0322 -0.76,-0.20558 -0.87326,-0.42725 -1.17358,-0.13347 -0.5981,-0.46173 0.0652,-0.31569 0.72394,-0.54293 0.3964,-0.23825 -0.11205,-0.25386 0.49417,-0.13249 0.62254,0.18126 0.45484,0.42967 0.63767,0.34521 0.0785,0.28993 0.9265,-0.25629 0.43451,0.15343 0.28725,0.2328 -0.14701,0.86152" style="fill:#e6e6e6;stroke:#000000;stroke-width:0.242"/><path d="m 259.56715,266.20508 2.53022,0.42423 0.227,-0.38188 1.70743,-0.15306 2.27081,0.56966 -1.09941,1.82057 0.1671,1.44788 0.8291,1.25333 -0.36917,0.90955 -0.18586,0.96679 -0.53869,0.88874 -1.20977,-0.4477 -0.99715,0.21599 -0.85209,-0.18792 -0.21127,0.61202 0.35418,0.41998 -0.19022,0.43162 -1.14828,-0.17278 -1.28962,-1.83703 -0.27734,-1.19354 -0.67627,-0.002 -0.93568,-1.53561 0.38961,-1.09154 -0.11422,-0.499 1.28211,-0.55249 0.33748,-1.90527" style="fill:#e6e6e6;stroke:#000000;stroke-width:0.242"/><path d="m 249.99495,256.0245 1.21436,-0.2777 0.44347,0.0748 -0.0845,1.59032 -1.76346,0.23461 -0.38006,-0.19191 0.61238,-0.58674 -0.0422,-0.84335" style="fill:#e6e6e6;stroke:#000000;stroke-width:0.242"/><path d="m 258.55824,344.6282 1.37081,-0.24671 2.11774,1.79345 0.78505,-0.0679 2.17305,1.49194 1.65672,1.2924 1.2215,1.59769 -0.93109,1.11804 0.58455,1.33994 -0.9138,1.4929 -2.38527,1.32629 -1.55896,-0.47771 -1.14297,0.25579 -1.95221,-1.02403 -1.43228,0.0762 -1.28647,-1.3149 0.16359,-1.53005 0.45835,-0.52538 -0.0207,-2.34124 0.56483,-2.39953 0.52755,-1.85725" style="fill:#e6e6e6;stroke:#000000;stroke-width:0.242"/><path d="m 229.61226,253.85134 -0.0601,0.50578 -1.23964,0.24963 0.68861,0.97018 -0.0256,1.11695 -0.93159,1.23903 0.79957,1.69025 0.91017,-0.13818 0.47432,-1.53997 -0.65486,-0.75043 -0.10659,-1.61656 2.62982,-0.86903 -0.29246,-1.00854 0.7404,-0.67578 0.75795,1.5044 1.48104,0.0348 1.37201,1.1922 0.0827,0.70689 1.89632,0.0189 2.25604,-0.21937 1.20951,0.95578 1.61487,0.26365 1.18471,-0.66646 0.0243,-0.53761 2.61602,-0.12874 2.53085,-0.0296 -1.79347,0.63041 0.7214,1.00721 1.68892,0.1602 1.60119,1.04798 0.33638,1.70525 1.10074,-0.0482 0.8274,0.50154 -1.67319,1.24849 -0.18464,0.77427 0.72297,0.78772 -0.52442,0.39748 -1.29942,0.34037 0.042,0.97925 -0.57208,0.58334 1.42913,1.60737 0.27963,0.59738 -0.77234,0.80767 -2.36217,0.79219 -1.51855,0.32803 -0.60972,0.49997 -1.67911,-0.52853 -1.56369,-0.27079 -0.39566,0.19493 0.94524,0.54812 -0.0851,1.41754 0.29318,1.33098 1.78898,0.1815 0.11423,0.44419 -1.50851,0.60113 -0.24538,0.89456 -0.86951,0.34677 -1.57059,0.49308 -0.40885,0.64626 -1.64197,0.13686 -1.16257,-1.11708 -0.64408,-2.10661 -0.56132,-0.73893 -0.76617,-0.46575 1.07013,-1.0522 -0.0727,-0.47324 -0.60016,-0.62847 -0.42496,-1.40554 0.16541,-1.51807 0.47141,-0.71122 0.38031,-1.14115 -0.74693,-0.36422 -1.20383,0.24163 -1.52097,-0.11338 -0.85354,0.22665 -1.48637,-1.82494 -1.22681,-0.27031 -2.71573,0.20412 -0.50311,-0.74027 -0.5197,-0.17701 -0.0743,-0.44324 0.25083,-0.78625 -0.16685,-0.85608 -0.46586,-0.46791 -0.27067,-0.97828 -1.09046,-0.14266 0.58588,-1.24581 0.25834,-1.52194 0.61359,-0.79364 0.8176,-0.61275 0.53567,-1.06928 1.35653,-0.35876" style="fill:#e6e6e6;stroke:#000000;stroke-width:0.242"/></g></g></svg>