<svg xmlns="http://www.w3.org/2000/svg" viewBox="0 0 640 480"><g style="display:none"><text x="0" y="0" fill="#000" style="white-space: pre;">Projection: MILLER Fi0: 90 Lambda0: 0 FiMin: -90 FiMax: 90 LambdaMin: -180 LambdaMax: 180 Scale: 100</text></g><g><g transform="matrix(4.546168, 0, 0, 4.546168, -2816.845215, -1281.269165)"><path d="m 687.31231,370.05684 2.0403,0.86709 1.14986,-0.34498 1.64875,-0.48243 1.26663,0.16832 0.14955,2.99499 -0.72358,0.87567 -0.21792,2.05532 -0.7381,-0.70132 -1.46627,1.78862 -0.43718,-0.13818 -1.29857,-0.0803 -1.30196,-2.19325 -0.28883,-1.6796 -1.21859,-2.20027 0.0543,-1.15143 1.38158,0.22179" style="fill:#e6e6e6;stroke:#000000;stroke-width:0.242"/><path d="m 683.4345,308.08137 0.76097,1.68988 1.35496,-0.81263 0.69938,0.91221 1.01325,0.84265 -0.21683,0.95746 0.45048,1.85627 0.32028,1.08295 0.53205,0.265 0.57305,1.8594 -0.20388,1.13038 0.68377,1.48201 2.28835,1.14418 1.49205,1.0429 1.41666,0.95698 -0.27647,0.53337 1.20782,1.38291 0.82122,2.3952 0.84288,-0.48727 0.85632,0.96135 0.51619,-0.34123 0.36385,2.35805 1.49859,1.37178 0.98045,0.85438 1.65081,1.81827 0.5935,1.81246 0.0542,1.29034 -0.14569,1.40565 1.00648,1.93758 -0.12112,2.02808 -0.36543,1.06553 -0.57003,2.06075 0.0432,1.33087 -0.41818,1.67065 -0.93267,2.13142 -1.56465,1.15676 -0.77101,1.83194 -0.7041,1.17455 -0.62618,2.06039 -0.81493,1.19583 -0.53434,1.80399 -0.27261,1.67017 0.10813,0.76968 -1.21096,0.84785 -2.36386,0.0889 -1.94895,1.00418 -0.97067,0.95154 -1.27594,1.05839 -1.74905,-1.08961 -1.29385,-0.43366 0.32766,-1.27788 -1.15409,0.46294 -1.84937,1.77979 -1.82589,-0.66768 -1.19766,-0.38913 -1.20733,-0.17558 -2.04418,-0.70905 -1.36512,-1.50561 -0.39204,-1.84464 -0.4909,-1.22114 -1.03757,-0.97707 -2.03183,-0.28966 0.69442,-1.16319 -0.51086,-1.77301 -1.03153,1.65213 -1.87901,0.43996 1.10448,-1.32301 0.31993,-1.3742 0.81554,-1.16208 -0.16843,-1.74918 -1.71808,2.01525 -1.31927,0.81168 -0.809,1.89509 -1.64899,-0.98167 0.0654,-1.26216 -1.32156,-1.71674 -1.11392,-0.88379 0.397,-0.54329 -2.7098,-1.42212 -1.48395,-0.067 -2.03122,-1.13799 -3.78125,0.22093 -2.7346,0.83721 -2.40331,0.78238 -2.01513,-0.15561 -2.23874,1.20468 -1.83097,0.54341 -0.40692,1.23807 -0.77973,0.9628 -1.79237,0.0577 -1.32604,0.21101 -1.86666,-0.43281 -1.51819,0.25906 -1.44995,0.10902 -1.2561,1.26844 -0.61588,-0.10791 -1.05924,0.67422 -1.01519,0.75987 -1.54057,-0.0939 -1.41583,-8.5e-4 -2.24019,-1.52435 -1.13522,-0.45194 0.0461,-1.35991 1.04847,-0.3221 0.35815,-0.53821 -0.0746,-0.84737 0.2581,-1.63435 -0.23656,-1.38714 -1.11646,-2.35308 -0.34619,-1.3224 0.0909,-1.31467 -0.84059,-1.49678 -0.0538,-0.67372 -0.93532,-0.9115 -0.2633,-1.78644 -1.20673,-1.79757 -0.29246,-0.96547 0.92795,0.97875 -0.71257,-2.09667 1.04726,0.65413 0.62509,0.87519 -0.0352,-1.15711 -1.04521,-1.77315 -0.20267,-0.70711 -0.48957,-0.67095 0.22918,-1.29398 0.43293,-0.54971 0.28799,-1.11488 -0.22555,-1.29956 0.87265,-1.59513 0.15948,1.68844 0.89225,-1.52545 1.71567,-0.73956 1.02885,-0.94198 1.61391,-0.80924 0.96025,-0.17207 0.58117,0.27164 1.66435,-0.82062 1.28078,-0.24406 0.32041,-0.48158 0.55902,-0.20061 1.16717,0.0518 2.21962,-0.64275 1.14817,-0.9732 0.53893,-1.16959 1.23881,-1.10873 0.0948,-0.86999 0.0553,-1.18326 1.4779,-1.84536 0.88947,1.8749 0.89866,-0.43391 -0.75213,-1.02608 0.66296,-1.05198 0.9317,0.46948 0.2564,-1.64742 1.15421,-1.06322 0.50905,-0.85184 1.0619,-0.36723 0.0331,-0.60222 0.9277,0.25119 0.0374,-0.54122 0.9288,-0.30832 1.02063,-0.29016 1.56006,0.98809 1.17224,1.27715 1.32169,0.0146 1.3431,0.20256 -0.44746,-1.18447 1.01157,-1.72667 0.95214,-0.56181 -0.32936,-0.53688 0.91718,-1.22572 1.27909,-0.75625 1.08041,0.25483 1.77446,-0.40391 -0.0383,-1.09419 -1.54698,-0.7041 1.12457,-0.31073 1.39889,0.5301 1.12178,0.87749 1.77883,0.54801 0.60294,-0.21671 1.3091,0.65847 1.23384,-0.61334 0.7934,0.18634 0.49428,-0.41139 0.96958,1.06008 -0.56278,1.14804 -0.80186,0.86757 -0.72564,0.0716 0.24453,0.85959 -0.62048,1.07569 -0.74984,1.05935 0.15101,0.60924 1.67888,1.19402 1.6266,0.69346 1.08779,0.74572 1.52617,1.28526 0.59556,-0.002 1.1051,0.55636 0.32125,0.67167 2.01598,0.73834 1.3944,-0.74378 0.4131,-1.16741 0.4287,-0.96147 0.26209,-1.1881 0.64203,-1.72002 -0.29319,-1.0435 0.15234,-0.62702 -0.24418,-1.23202 0.27661,-1.61898 0.4051,-0.43607 -0.32875,-0.71622 0.51014,-1.13583 0.40111,-1.17587 0.0532,-0.60984 0.78468,-0.80006 0.59557,1.04521 0.14677,1.34189 0.52611,0.25893 0.0902,0.90001 0.76762,1.09106 0.15864,1.21568 -0.0748,0.78118" style="fill:#e6e6e6;stroke:#000000;stroke-width:0.242"/><path d="m 756.9518,315.81629 0.72745,0.62812 -0.34921,1.13787 -1.30946,0.29985 -1.16402,-0.26996 -0.20376,-0.95844 0.81493,-0.74777 0.96026,0.26909 0.52381,-0.35876" style="fill:#e6e6e6;stroke:#000000;stroke-width:0.242"/><path d="m 759.04353,314.64598 -1.34951,0.45749 -0.27093,-0.8096 1.05549,-0.44516 0.66925,-0.11906 1.23868,-0.67615 0,1.05814 -1.34298,0.53434" style="fill:#e6e6e6;stroke:#000000;stroke-width:0.242"/><path d="m 730.356,324.00884 1.73175,1.36994 1.09808,1.01883 -0.80248,0.53241 -1.1622,-0.59955 -1.51057,-0.99681 -1.36125,-1.17079 -1.39767,-1.55412 -0.29221,-0.74585 0.90895,0.0317 1.18254,0.74779 0.92927,0.74886 0.67579,0.61759" style="fill:#e6e6e6;stroke:#000000;stroke-width:0.242"/><path d="m 745.64665,370.37459 0.47892,1.03854 1.50197,-1.01954 0.61069,1.06286 0.002,1.06262 -0.78578,1.17442 -1.38061,1.87865 -1.08016,1.03141 0.779,1.23843 -1.62927,0.0319 -1.80701,0.97441 -0.56556,1.70138 -1.20044,2.65208 -1.65842,1.18024 -1.05404,0.75673 -1.94471,-0.0565 -1.36791,-0.87375 -2.29512,-0.18597 -0.35441,-0.96884 1.13473,-1.94593 2.65535,-2.56629 1.36343,-0.48654 1.51722,-0.98094 1.81004,-1.34396 1.2676,-1.32518 0.93883,-1.89244 0.80042,-0.63937 0.31363,-1.40565 1.48116,-1.15809 0.46852,1.06528" style="fill:#e6e6e6;stroke:#000000;stroke-width:0.242"/><path d="m 749.00779,358.65755 1.53028,2.55043 0.0444,-1.65696 0.953,0.66064 0.31594,1.83994 1.69944,0.79618 1.42671,0.19554 1.20721,-0.93218 1.07001,0.28228 -0.51184,2.17522 -0.64251,1.43918 -1.61231,-0.0507 -0.56387,0.75227 0.19614,1.06818 -0.3106,0.46331 -0.79788,1.34564 -1.04665,1.71978 -1.63204,1.00611 -0.36265,-0.66261 -0.88038,-0.36323 1.21774,-2.06426 -0.69152,-1.37262 -2.27274,-0.99354 0.0597,-0.89709 1.52581,-0.86115 0.35622,-1.8916 -0.0981,-1.57953 -0.85535,-1.62793 0.0571,-0.42702 -1.00951,-0.99728 -1.66157,-2.12741 -0.88318,-1.69195 0.78348,-0.18683 1.14949,1.32605 1.64319,0.62084 0.59677,2.14231" style="fill:#e6e6e6;stroke:#000000;stroke-width:0.242"/><path d="m 709.44865,293.25862 -0.59133,0.21212 -0.91439,-0.8147 -0.92456,-1.34636 -0.45423,-1.61342 0.29221,-0.20474 0.227,0.63018 0.63972,0.48036 1.02378,1.34323 0.99753,0.71934 -0.29573,0.59399" style="fill:#e6e6e6;stroke:#000000;stroke-width:0.242"/><path d="m 701.21836,290.41416 -1.10595,0.17411 -0.33299,0.59411 -1.15519,0.51509 -1.08379,0.49611 -1.12179,-0.002 -1.73152,-0.61577 -1.20636,-0.59096 0.17509,-0.65522 1.89352,0.30903 1.15555,-0.16564 0.31823,-1.01519 0.3031,-0.0526 0.20498,1.12423 1.20504,-0.16178 0.59604,-0.72444 1.17879,-0.75491 -0.23232,-1.24691 1.26481,-0.0402 0.4264,0.34739 -0.0422,1.17382 -0.70941,1.29241" style="fill:#e6e6e6;stroke:#000000;stroke-width:0.242"/><path d="m 691.1007,294.46403 1.8853,1.39367 1.37166,2.25605 1.20939,-0.071 -0.0848,0.94343 1.63048,0.36203 -0.63332,0.40209 2.24455,0.89758 -0.23449,0.61686 -1.39852,0.14906 -0.51971,-0.55344 -1.81451,-0.23983 -2.13311,-0.32113 -1.64221,-1.36004 -1.19851,-1.17079 -1.09686,-1.86147 -2.75444,-0.92904 -1.78899,0.60585 -1.28961,0.70179 0.26922,1.56901 -1.65891,0.73181 -1.18277,-0.35598 -2.18454,-0.0888 -0.0354,-6.92072 -0.0358,-6.8947 3.664,1.45636 3.90443,1.20988 1.45551,1.08367 1.17539,1.06408 0.32125,1.24727 3.51881,1.30969 0.51316,1.12435 -1.94338,0.22832 0.4667,1.41401" style="fill:#e6e6e6;stroke:#000000;stroke-width:0.242"/><path d="m 703.66219,288.34361 -0.6603,0.56374 -0.39833,-1.24909 -0.49138,-0.81723 -0.95626,-0.69273 -1.20154,-0.90205 -1.52532,-0.62122 0.5871,-0.51037 1.14042,0.59169 0.71801,0.465 0.88693,0.50735 0.84482,0.88801 0.80247,0.67676 0.25338,1.10014" style="fill:#e6e6e6;stroke:#000000;stroke-width:0.242"/><path d="m 722.62446,301.05126 0.59048,0.73399 -1.47535,-0.0136 -0.80284,-1.31334 1.26203,0.51619 0.42568,0.0769" style="fill:#e6e6e6;stroke:#000000;stroke-width:0.242"/><path d="m 719.94928,299.7504 -0.82281,0.0475 -1.29506,-0.21575 -0.44213,-0.32827 0.13273,-0.84592 1.39404,0.33518 0.68752,0.44722 0.34571,0.55998" style="fill:#e6e6e6;stroke:#000000;stroke-width:0.242"/><path d="m 721.69736,299.16875 -0.31798,0.39276 -1.56514,-1.84633 -0.43983,-1.27099 0.71801,0 0.76024,1.70211 0.8447,1.02245" style="fill:#e6e6e6;stroke:#000000;stroke-width:0.242"/><path d="m 717.8855,296.48097 0.0895,0.4275 -1.65504,-0.90182 -1.1564,-0.76363 -0.79194,-0.70699 0.31436,-0.21636 0.9715,0.50965 1.73176,0.9772 0.49622,0.67445" style="fill:#e6e6e6;stroke:#000000;stroke-width:0.242"/><path d="m 712.951,294.37872 -0.42023,0.121 -0.92384,-0.48376 -0.86709,-0.87217 0.10857,-0.35332 1.26118,0.89588 0.84144,0.69237" style="fill:#e6e6e6;stroke:#000000;stroke-width:0.242"/><path d="m 734.71672,313.91876 -0.69623,0.28533 -0.70798,-0.94937 0.0778,-0.5808 1.3264,1.24484" style="fill:#e6e6e6;stroke:#000000;stroke-width:0.242"/><path d="m 733.15993,310.60313 0.34268,1.74215 -0.56761,-0.27128 -0.43936,0.11725 -0.30261,-0.59701 -0.0438,-1.6543 1.0107,0.66319" style="fill:#e6e6e6;stroke:#000000;stroke-width:0.242"/></g></g></svg>