<svg xmlns="http://www.w3.org/2000/svg" viewBox="0 0 640 480"><path fill="#0f204b" d="M 0 0 L 640 0 L 640 480 L 0 480 L 0 0 Z"/><g fill="#ffb612" transform="matrix(25.984081, 0, 0, 27.595095, 523.388, 89.995201)"><g><path d="M0 0v1h.5z" transform="rotate(18 3.157 -.5)"/><path d="M0 0v1h.5z" transform="matrix(-0.9510565162951535, 0.3090169943749474, 0.3090169943749474, 0.9510565162951535, -0.000006084042704301851, -1.000038413133839)"/></g><g transform="matrix(0.3090169943749474, 0.9510565162951535, -0.9510565162951535, 0.3090169943749474, 0, 0)"><path d="M0 0v1h.5z" transform="rotate(18 3.157 -.5)"/><path d="M0 0v1h.5z" transform="matrix(-0.9510565162951535, 0.3090169943749474, 0.3090169943749474, 0.9510565162951535, -0.000006084042704301851, -1.000038413133839)"/></g><g transform="matrix(0.3090169943749474, -0.9510565162951535, 0.9510565162951535, 0.3090169943749474, 0, 0)"><path d="M0 0v1h.5z" transform="rotate(18 3.157 -.5)"/><path d="M0 0v1h.5z" transform="matrix(-0.9510565162951535, 0.3090169943749474, 0.3090169943749474, 0.9510565162951535, -0.000006084042704301851, -1.000038413133839)"/></g><g transform="matrix(-0.8090169943749475, 0.5877852522924731, -0.5877852522924731, -0.8090169943749475, 0, 0)"><path d="M0 0v1h.5z" transform="rotate(18 3.157 -.5)"/><path d="M0 0v1h.5z" transform="matrix(-0.9510565162951535, 0.3090169943749474, 0.3090169943749474, 0.9510565162951535, -0.000006084042704301851, -1.000038413133839)"/></g><g transform="matrix(-0.8090169943749475, -0.5877852522924731, 0.5877852522924731, -0.8090169943749475, 0, 0)"><path d="M0 0v1h.5z" transform="rotate(18 3.157 -.5)"/><path d="M0 0v1h.5z" transform="matrix(-0.9510565162951535, 0.3090169943749474, 0.3090169943749474, 0.9510565162951535, -0.000006084042704301851, -1.000038413133839)"/></g></g><g fill="#ffb612" transform="matrix(15.490512, 0, 0, 16.450924, 103.500565, 191.651047)"><path d="M0 0v1h.5z" transform="rotate(18 3.157 -.5)"/><path d="M0 0v1h.5z" transform="matrix(-0.9510565162951535, 0.3090169943749474, 0.3090169943749474, 0.9510565162951535, -0.000006084042704301851, -1.000038413133839)"/><g transform="matrix(0.3090169943749474, 0.9510565162951535, -0.9510565162951535, 0.3090169943749474, 0, 0)"><path d="M0 0v1h.5z" transform="rotate(18 3.157 -.5)"/><path d="M0 0v1h.5z" transform="matrix(-0.9510565162951535, 0.3090169943749474, 0.3090169943749474, 0.9510565162951535, -0.000006084042704301851, -1.000038413133839)"/></g><g transform="matrix(0.3090169943749474, -0.9510565162951535, 0.9510565162951535, 0.3090169943749474, 0, 0)"><path d="M0 0v1h.5z" transform="rotate(18 3.157 -.5)"/><path d="M0 0v1h.5z" transform="matrix(-0.9510565162951535, 0.3090169943749474, 0.3090169943749474, 0.9510565162951535, -0.000006084042704301851, -1.000038413133839)"/></g><g transform="matrix(-0.8090169943749475, 0.5877852522924731, -0.5877852522924731, -0.8090169943749475, 0, 0)"><path d="M0 0v1h.5z" transform="rotate(18 3.157 -.5)"/><path d="M0 0v1h.5z" transform="matrix(-0.9510565162951535, 0.3090169943749474, 0.3090169943749474, 0.9510565162951535, -0.000006084042704301851, -1.000038413133839)"/></g><g transform="matrix(-0.8090169943749475, -0.5877852522924731, 0.5877852522924731, -0.8090169943749475, 0, 0)"><path d="M0 0v1h.5z" transform="rotate(18 3.157 -.5)"/><path d="M0 0v1h.5z" transform="matrix(-0.9510565162951535, 0.3090169943749474, 0.3090169943749474, 0.9510565162951535, -0.000006084042704301851, -1.000038413133839)"/></g></g><g fill="#ffb612" transform="matrix(15.490512, 0, 0, 16.450924, 178.980789, 221.411041)"><path d="M0 0v1h.5z" transform="rotate(18 3.157 -.5)"/><path d="M0 0v1h.5z" transform="matrix(-0.9510565162951535, 0.3090169943749474, 0.3090169943749474, 0.9510565162951535, -0.000006084042704301851, -1.000038413133839)"/><g transform="matrix(0.3090169943749474, 0.9510565162951535, -0.9510565162951535, 0.3090169943749474, 0, 0)"><path d="M0 0v1h.5z" transform="rotate(18 3.157 -.5)"/><path d="M0 0v1h.5z" transform="matrix(-0.9510565162951535, 0.3090169943749474, 0.3090169943749474, 0.9510565162951535, -0.000006084042704301851, -1.000038413133839)"/></g><g transform="matrix(0.3090169943749474, -0.9510565162951535, 0.9510565162951535, 0.3090169943749474, 0, 0)"><path d="M0 0v1h.5z" transform="rotate(18 3.157 -.5)"/><path d="M0 0v1h.5z" transform="matrix(-0.9510565162951535, 0.3090169943749474, 0.3090169943749474, 0.9510565162951535, -0.000006084042704301851, -1.000038413133839)"/></g><g transform="matrix(-0.8090169943749475, 0.5877852522924731, -0.5877852522924731, -0.8090169943749475, 0, 0)"><path d="M0 0v1h.5z" transform="rotate(18 3.157 -.5)"/><path d="M0 0v1h.5z" transform="matrix(-0.9510565162951535, 0.3090169943749474, 0.3090169943749474, 0.9510565162951535, -0.000006084042704301851, -1.000038413133839)"/></g><g transform="matrix(-0.8090169943749475, -0.5877852522924731, 0.5877852522924731, -0.8090169943749475, 0, 0)"><path d="M0 0v1h.5z" transform="rotate(18 3.157 -.5)"/><path d="M0 0v1h.5z" transform="matrix(-0.9510565162951535, 0.3090169943749474, 0.3090169943749474, 0.9510565162951535, -0.000006084042704301851, -1.000038413133839)"/></g></g><g fill="#ffb612" transform="matrix(15.490512, 0, 0, 16.450924, 216.494919, 264.131042)"><path d="M0 0v1h.5z" transform="rotate(18 3.157 -.5)"/><path d="M0 0v1h.5z" transform="matrix(-0.9510565162951535, 0.3090169943749474, 0.3090169943749474, 0.9510565162951535, -0.000006084042704301851, -1.000038413133839)"/><g transform="matrix(0.3090169943749474, 0.9510565162951535, -0.9510565162951535, 0.3090169943749474, 0, 0)"><path d="M0 0v1h.5z" transform="rotate(18 3.157 -.5)"/><path d="M0 0v1h.5z" transform="matrix(-0.9510565162951535, 0.3090169943749474, 0.3090169943749474, 0.9510565162951535, -0.000006084042704301851, -1.000038413133839)"/></g><g transform="matrix(0.3090169943749474, -0.9510565162951535, 0.9510565162951535, 0.3090169943749474, 0, 0)"><path d="M0 0v1h.5z" transform="rotate(18 3.157 -.5)"/><path d="M0 0v1h.5z" transform="matrix(-0.9510565162951535, 0.3090169943749474, 0.3090169943749474, 0.9510565162951535, -0.000006084042704301851, -1.000038413133839)"/></g><g transform="matrix(-0.8090169943749475, 0.5877852522924731, -0.5877852522924731, -0.8090169943749475, 0, 0)"><path d="M0 0v1h.5z" transform="rotate(18 3.157 -.5)"/><path d="M0 0v1h.5z" transform="matrix(-0.9510565162951535, 0.3090169943749474, 0.3090169943749474, 0.9510565162951535, -0.000006084042704301851, -1.000038413133839)"/></g><g transform="matrix(-0.8090169943749475, -0.5877852522924731, 0.5877852522924731, -0.8090169943749475, 0, 0)"><path d="M0 0v1h.5z" transform="rotate(18 3.157 -.5)"/><path d="M0 0v1h.5z" transform="matrix(-0.9510565162951535, 0.3090169943749474, 0.3090169943749474, 0.9510565162951535, -0.000006084042704301851, -1.000038413133839)"/></g></g><g fill="#ffb612" transform="matrix(15.490512, 0, 0, 16.450924, 254.461014, 308.771027)"><path d="M0 0v1h.5z" transform="rotate(18 3.157 -.5)"/><path d="M0 0v1h.5z" transform="matrix(-0.9510565162951535, 0.3090169943749474, 0.3090169943749474, 0.9510565162951535, -0.000006084042704301851, -1.000038413133839)"/><g transform="matrix(0.3090169943749474, 0.9510565162951535, -0.9510565162951535, 0.3090169943749474, 0, 0)"><path d="M0 0v1h.5z" transform="rotate(18 3.157 -.5)"/><path d="M0 0v1h.5z" transform="matrix(-0.9510565162951535, 0.3090169943749474, 0.3090169943749474, 0.9510565162951535, -0.000006084042704301851, -1.000038413133839)"/></g><g transform="matrix(0.3090169943749474, -0.9510565162951535, 0.9510565162951535, 0.3090169943749474, 0, 0)"><path d="M0 0v1h.5z" transform="rotate(18 3.157 -.5)"/><path d="M0 0v1h.5z" transform="matrix(-0.9510565162951535, 0.3090169943749474, 0.3090169943749474, 0.9510565162951535, -0.000006084042704301851, -1.000038413133839)"/></g><g transform="matrix(-0.8090169943749475, 0.5877852522924731, -0.5877852522924731, -0.8090169943749475, 0, 0)"><path d="M0 0v1h.5z" transform="rotate(18 3.157 -.5)"/><path d="M0 0v1h.5z" transform="matrix(-0.9510565162951535, 0.3090169943749474, 0.3090169943749474, 0.9510565162951535, -0.000006084042704301851, -1.000038413133839)"/></g><g transform="matrix(-0.8090169943749475, -0.5877852522924731, 0.5877852522924731, -0.8090169943749475, 0, 0)"><path d="M0 0v1h.5z" transform="rotate(18 3.157 -.5)"/><path d="M0 0v1h.5z" transform="matrix(-0.9510565162951535, 0.3090169943749474, 0.3090169943749474, 0.9510565162951535, -0.000006084042704301851, -1.000038413133839)"/></g></g><g fill="#ffb612" transform="matrix(15.490512, 0, 0, 16.450924, 367.455353, 351.491028)"><path d="M0 0v1h.5z" transform="rotate(18 3.157 -.5)"/><path d="M0 0v1h.5z" transform="matrix(-0.9510565162951535, 0.3090169943749474, 0.3090169943749474, 0.9510565162951535, -0.000006084042704301851, -1.000038413133839)"/><g transform="matrix(0.3090169943749474, 0.9510565162951535, -0.9510565162951535, 0.3090169943749474, 0, 0)"><path d="M0 0v1h.5z" transform="rotate(18 3.157 -.5)"/><path d="M0 0v1h.5z" transform="matrix(-0.9510565162951535, 0.3090169943749474, 0.3090169943749474, 0.9510565162951535, -0.000006084042704301851, -1.000038413133839)"/></g><g transform="matrix(0.3090169943749474, -0.9510565162951535, 0.9510565162951535, 0.3090169943749474, 0, 0)"><path d="M0 0v1h.5z" transform="rotate(18 3.157 -.5)"/><path d="M0 0v1h.5z" transform="matrix(-0.9510565162951535, 0.3090169943749474, 0.3090169943749474, 0.9510565162951535, -0.000006084042704301851, -1.000038413133839)"/></g><g transform="matrix(-0.8090169943749475, 0.5877852522924731, -0.5877852522924731, -0.8090169943749475, 0, 0)"><path d="M0 0v1h.5z" transform="rotate(18 3.157 -.5)"/><path d="M0 0v1h.5z" transform="matrix(-0.9510565162951535, 0.3090169943749474, 0.3090169943749474, 0.9510565162951535, -0.000006084042704301851, -1.000038413133839)"/></g><g transform="matrix(-0.8090169943749475, -0.5877852522924731, 0.5877852522924731, -0.8090169943749475, 0, 0)"><path d="M0 0v1h.5z" transform="rotate(18 3.157 -.5)"/><path d="M0 0v1h.5z" transform="matrix(-0.9510565162951535, 0.3090169943749474, 0.3090169943749474, 0.9510565162951535, -0.000006084042704301851, -1.000038413133839)"/></g></g><g fill="#ffb612" transform="matrix(15.490512, 0, 0, 16.450924, 249.489258, 371.651031)"><path d="M0 0v1h.5z" transform="rotate(18 3.157 -.5)"/><path d="M0 0v1h.5z" transform="matrix(-0.9510565162951535, 0.3090169943749474, 0.3090169943749474, 0.9510565162951535, -0.000006084042704301851, -1.000038413133839)"/><g transform="matrix(0.3090169943749474, 0.9510565162951535, -0.9510565162951535, 0.3090169943749474, 0, 0)"><path d="M0 0v1h.5z" transform="rotate(18 3.157 -.5)"/><path d="M0 0v1h.5z" transform="matrix(-0.9510565162951535, 0.3090169943749474, 0.3090169943749474, 0.9510565162951535, -0.000006084042704301851, -1.000038413133839)"/></g><g transform="matrix(0.3090169943749474, -0.9510565162951535, 0.9510565162951535, 0.3090169943749474, 0, 0)"><path d="M0 0v1h.5z" transform="rotate(18 3.157 -.5)"/><path d="M0 0v1h.5z" transform="matrix(-0.9510565162951535, 0.3090169943749474, 0.3090169943749474, 0.9510565162951535, -0.000006084042704301851, -1.000038413133839)"/></g><g transform="matrix(-0.8090169943749475, 0.5877852522924731, -0.5877852522924731, -0.8090169943749475, 0, 0)"><path d="M0 0v1h.5z" transform="rotate(18 3.157 -.5)"/><path d="M0 0v1h.5z" transform="matrix(-0.9510565162951535, 0.3090169943749474, 0.3090169943749474, 0.9510565162951535, -0.000006084042704301851, -1.000038413133839)"/></g><g transform="matrix(-0.8090169943749475, -0.5877852522924731, 0.5877852522924731, -0.8090169943749475, 0, 0)"><path d="M0 0v1h.5z" transform="rotate(18 3.157 -.5)"/><path d="M0 0v1h.5z" transform="matrix(-0.9510565162951535, 0.3090169943749474, 0.3090169943749474, 0.9510565162951535, -0.000006084042704301851, -1.000038413133839)"/></g></g><g fill="#ffb612" transform="matrix(15.490512, 0, 0, 16.450924, 334.461029, 401.411041)"><path d="M0 0v1h.5z" transform="rotate(18 3.157 -.5)"/><path d="M0 0v1h.5z" transform="matrix(-0.9510565162951535, 0.3090169943749474, 0.3090169943749474, 0.9510565162951535, -0.000006084042704301851, -1.000038413133839)"/><g transform="matrix(0.3090169943749474, 0.9510565162951535, -0.9510565162951535, 0.3090169943749474, 0, 0)"><path d="M0 0v1h.5z" transform="rotate(18 3.157 -.5)"/><path d="M0 0v1h.5z" transform="matrix(-0.9510565162951535, 0.3090169943749474, 0.3090169943749474, 0.9510565162951535, -0.000006084042704301851, -1.000038413133839)"/></g><g transform="matrix(0.3090169943749474, -0.9510565162951535, 0.9510565162951535, 0.3090169943749474, 0, 0)"><path d="M0 0v1h.5z" transform="rotate(18 3.157 -.5)"/><path d="M0 0v1h.5z" transform="matrix(-0.9510565162951535, 0.3090169943749474, 0.3090169943749474, 0.9510565162951535, -0.000006084042704301851, -1.000038413133839)"/></g><g transform="matrix(-0.8090169943749475, 0.5877852522924731, -0.5877852522924731, -0.8090169943749475, 0, 0)"><path d="M0 0v1h.5z" transform="rotate(18 3.157 -.5)"/><path d="M0 0v1h.5z" transform="matrix(-0.9510565162951535, 0.3090169943749474, 0.3090169943749474, 0.9510565162951535, -0.000006084042704301851, -1.000038413133839)"/></g><g transform="matrix(-0.8090169943749475, -0.5877852522924731, 0.5877852522924731, -0.8090169943749475, 0, 0)"><path d="M0 0v1h.5z" transform="rotate(18 3.157 -.5)"/><path d="M0 0v1h.5z" transform="matrix(-0.9510565162951535, 0.3090169943749474, 0.3090169943749474, 0.9510565162951535, -0.000006084042704301851, -1.000038413133839)"/></g></g></svg>