<svg xmlns="http://www.w3.org/2000/svg" viewBox="0 0 640 480"><path fill="#002868" d="M 0 0 L 640 0 L 640 480 L 0 480 L 0 0 Z" style="fill:#002664"/><path fill="#bf0a30" d="M 0 0 L 640 0 L 640 240 L 0 240 L 0 0 Z" style="fill:#bb133e"/><path fill="#fed700" d="M 640 56.25 L 640 156.25 L 320 240 L 640 56.25 Z M 474.444 0 L 566.667 0 L 320 240 L 474.444 0 Z M 350 0 L 403.333 0 L 320 240 L 350 0 Z"/><path fill="#fed700" d="M 320 183.75 L 320 83.75 L 0 0 L 320 183.75 Z M 154.44 240 L 246.667 240 L 0 0 L 154.44 240 Z M 30 240 L 83.33 240 L 0 0 L 30 240 Z" style="transform-box: fill-box; transform-origin: 50% 50%;" transform="matrix(-1, 0, 0, -1, -0.000017, -0.000013)"/><path fill="#ce5c17" d="M 320 120 L 389.317 360 L 208.128 210.725 L 431.883 210.725 L 250.694 360 L 320 120 Z"/></svg>