<svg xmlns="http://www.w3.org/2000/svg" viewBox="0 0 640 480"><path fill="#fff" d="M 0 0 L 640 0 L 640 480 L 0 480 L 0 0 Z"/><path fill="#e81b39" d="M 0 144 L 640 144 L 640 240 L 0 240 L 0 144 Z M 0 288 L 640 288 L 640 384 L 0 384 L 0 288 Z"/><g fill="#e81b39" transform="matrix(0.841171, 0, 0, 1.261757, 144, 76.819199)"><g><path d="M0-40V0h20z" transform="rotate(18 0 -40)"/><path d="M0-40V0h20z" transform="matrix(-0.9510565162951535, 0.3090169943749474, 0.3090169943749474, 0.9510565162951535, 12.360679774997896, -1.9577393481938614)"/></g><g><g transform="matrix(0.3090169943749474, 0.9510565162951535, -0.9510565162951535, 0.3090169943749474, 0, 0)"><path d="M0-40V0h20z" transform="rotate(18 0 -40)"/><path d="M0-40V0h20z" transform="matrix(-0.9510565162951535, 0.3090169943749474, 0.3090169943749474, 0.9510565162951535, 12.360679774997896, -1.9577393481938614)"/></g><g transform="matrix(-0.8090169943749475, -0.5877852522924731, 0.5877852522924731, -0.8090169943749475, 0, 0)"><path d="M0-40V0h20z" transform="rotate(18 0 -40)"/><path d="M0-40V0h20z" transform="matrix(-0.9510565162951535, 0.3090169943749474, 0.3090169943749474, 0.9510565162951535, 12.360679774997896, -1.9577393481938614)"/></g></g><g transform="matrix(0.3090169943749474, 0.9510565162951535, -0.9510565162951535, 0.3090169943749474, 0, 0)"><g transform="matrix(0.3090169943749474, 0.9510565162951535, -0.9510565162951535, 0.3090169943749474, 0, 0)"><path d="M0-40V0h20z" transform="rotate(18 0 -40)"/><path d="M0-40V0h20z" transform="matrix(-0.9510565162951535, 0.3090169943749474, 0.3090169943749474, 0.9510565162951535, 12.360679774997896, -1.9577393481938614)"/></g><g transform="matrix(-0.8090169943749475, -0.5877852522924731, 0.5877852522924731, -0.8090169943749475, 0, 0)"><path d="M0-40V0h20z" transform="rotate(18 0 -40)"/><path d="M0-40V0h20z" transform="matrix(-0.9510565162951535, 0.3090169943749474, 0.3090169943749474, 0.9510565162951535, 12.360679774997896, -1.9577393481938614)"/></g></g></g><g fill="#e81b39" transform="matrix(0.841171, 0, 0, 1.261757, 320, 76.819199)"><g><path d="M0-40V0h20z" transform="rotate(18 0 -40)"/><path d="M0-40V0h20z" transform="matrix(-0.9510565162951535, 0.3090169943749474, 0.3090169943749474, 0.9510565162951535, 12.360679774997896, -1.9577393481938614)"/></g><g><g transform="matrix(0.3090169943749474, 0.9510565162951535, -0.9510565162951535, 0.3090169943749474, 0, 0)"><path d="M0-40V0h20z" transform="rotate(18 0 -40)"/><path d="M0-40V0h20z" transform="matrix(-0.9510565162951535, 0.3090169943749474, 0.3090169943749474, 0.9510565162951535, 12.360679774997896, -1.9577393481938614)"/></g><g transform="matrix(-0.8090169943749475, -0.5877852522924731, 0.5877852522924731, -0.8090169943749475, 0, 0)"><path d="M0-40V0h20z" transform="rotate(18 0 -40)"/><path d="M0-40V0h20z" transform="matrix(-0.9510565162951535, 0.3090169943749474, 0.3090169943749474, 0.9510565162951535, 12.360679774997896, -1.9577393481938614)"/></g></g><g transform="matrix(0.3090169943749474, 0.9510565162951535, -0.9510565162951535, 0.3090169943749474, 0, 0)"><g transform="matrix(0.3090169943749474, 0.9510565162951535, -0.9510565162951535, 0.3090169943749474, 0, 0)"><path d="M0-40V0h20z" transform="rotate(18 0 -40)"/><path d="M0-40V0h20z" transform="matrix(-0.9510565162951535, 0.3090169943749474, 0.3090169943749474, 0.9510565162951535, 12.360679774997896, -1.9577393481938614)"/></g><g transform="matrix(-0.8090169943749475, -0.5877852522924731, 0.5877852522924731, -0.8090169943749475, 0, 0)"><path d="M0-40V0h20z" transform="rotate(18 0 -40)"/><path d="M0-40V0h20z" transform="matrix(-0.9510565162951535, 0.3090169943749474, 0.3090169943749474, 0.9510565162951535, 12.360679774997896, -1.9577393481938614)"/></g></g></g><g fill="#e81b39" transform="matrix(0.841171, 0, 0, 1.261757, 496, 76.819199)"><g><path d="M0-40V0h20z" transform="rotate(18 0 -40)"/><path d="M0-40V0h20z" transform="matrix(-0.9510565162951535, 0.3090169943749474, 0.3090169943749474, 0.9510565162951535, 12.360679774997896, -1.9577393481938614)"/></g><g><g transform="matrix(0.3090169943749474, 0.9510565162951535, -0.9510565162951535, 0.3090169943749474, 0, 0)"><path d="M0-40V0h20z" transform="rotate(18 0 -40)"/><path d="M0-40V0h20z" transform="matrix(-0.9510565162951535, 0.3090169943749474, 0.3090169943749474, 0.9510565162951535, 12.360679774997896, -1.9577393481938614)"/></g><g transform="matrix(-0.8090169943749475, -0.5877852522924731, 0.5877852522924731, -0.8090169943749475, 0, 0)"><path d="M0-40V0h20z" transform="rotate(18 0 -40)"/><path d="M0-40V0h20z" transform="matrix(-0.9510565162951535, 0.3090169943749474, 0.3090169943749474, 0.9510565162951535, 12.360679774997896, -1.9577393481938614)"/></g></g><g transform="matrix(0.3090169943749474, 0.9510565162951535, -0.9510565162951535, 0.3090169943749474, 0, 0)"><g transform="matrix(0.3090169943749474, 0.9510565162951535, -0.9510565162951535, 0.3090169943749474, 0, 0)"><path d="M0-40V0h20z" transform="rotate(18 0 -40)"/><path d="M0-40V0h20z" transform="matrix(-0.9510565162951535, 0.3090169943749474, 0.3090169943749474, 0.9510565162951535, 12.360679774997896, -1.9577393481938614)"/></g><g transform="matrix(-0.8090169943749475, -0.5877852522924731, 0.5877852522924731, -0.8090169943749475, 0, 0)"><path d="M0-40V0h20z" transform="rotate(18 0 -40)"/><path d="M0-40V0h20z" transform="matrix(-0.9510565162951535, 0.3090169943749474, 0.3090169943749474, 0.9510565162951535, 12.360679774997896, -1.9577393481938614)"/></g></g></g></svg>