<svg xmlns="http://www.w3.org/2000/svg" viewBox="0 0 640 480"><path fill="#b50027" d="M 0 0 L 640 0 L 640 480 L 0 480 L 0 0 Z"/><path fill="#fff" d="M 0 160 L 640 160 L 640 320 L 266.667 320 L 0 160 Z"/><path fill="#002d56" d="M 0 0 L 266.667 0 L 266.667 320 L 0 320 L 0 0 Z"/><path fill="#fff" d="M 139.302 43.754 L 148.801 35.716 L 137.175 35.515 L 133.734 22.186 L 129.99 35.392 L 118.365 35.192 L 127.676 43.554 L 123.933 56.761 L 133.432 48.722 L 142.743 57.084 L 139.302 43.754 Z M 93.619 53.564 L 98.917 41.15 L 88.546 47.455 L 80.338 37.571 L 82.136 51.352 L 71.765 57.657 L 83.247 59.87 L 85.047 73.65 L 90.345 61.236 L 101.827 63.448 L 93.619 53.564 Z M 56.825 87.996 L 56.71 74.05 L 49.967 85.417 L 38.873 81.242 L 45.801 92.441 L 39.06 103.807 L 50.084 99.363 L 57.013 110.562 L 56.897 96.616 L 67.921 92.172 L 56.825 87.996 Z M 37.867 138.9 L 32.364 126.617 L 30.796 140.44 L 19.355 142.93 L 29.827 148.983 L 28.259 162.806 L 36.299 152.724 L 46.771 158.776 L 41.268 146.492 L 49.307 136.411 L 37.867 138.9 Z M 40.545 194.417 L 30.916 186.608 L 34.88 199.722 L 25.714 208.306 L 37.33 207.827 L 41.294 220.94 L 44.509 207.531 L 56.125 207.05 L 46.496 199.242 L 49.711 185.832 L 40.545 194.417 Z M 64.52 242.397 L 52.971 240.851 L 61.558 250.253 L 56.767 262.964 L 66.866 256.063 L 75.454 265.464 L 73.108 251.798 L 83.207 244.896 L 71.658 243.351 L 69.312 229.686 L 64.52 242.397 Z M 104.401 271.204 L 93.577 276.277 L 104.822 279.812 L 105.5 293.739 L 111.771 281.997 L 123.015 285.533 L 115.646 274.74 L 121.915 262.998 L 111.091 268.07 L 103.722 257.278 L 104.401 271.204 Z M 150.627 274.632 L 143.007 285.159 L 154.332 282.02 L 160.326 293.972 L 161.331 280.08 L 172.656 276.941 L 161.953 271.493 L 162.957 257.6 L 155.337 268.127 L 144.633 262.68 L 150.627 274.632 Z M 193.15 251.943 L 190.478 265.513 L 199.291 256.419 L 209.226 263.66 L 204.737 250.798 L 213.549 241.704 L 201.962 242.849 L 197.472 229.988 L 194.8 243.558 L 183.214 244.702 L 193.15 251.943 Z M 221.859 207.881 L 224.748 221.386 L 229.03 208.42 L 240.631 209.291 L 231.675 200.406 L 235.956 187.44 L 226.14 194.914 L 217.184 186.031 L 220.073 199.536 L 210.258 207.01 L 221.859 207.881 Z M 216.616 99.888 L 227.518 104.707 L 221.059 93.113 L 228.247 82.153 L 217.067 85.948 L 210.608 74.355 L 210.157 88.294 L 198.977 92.091 L 209.879 96.91 L 209.428 110.848 L 216.616 99.888 Z M 183.662 60.298 L 195.18 58.487 L 184.972 51.822 L 187.093 38.11 L 178.663 47.705 L 168.455 41.041 L 173.453 53.635 L 165.024 63.23 L 176.543 61.418 L 181.541 74.011 L 183.662 60.298 Z M 230.207 153.188 L 237.994 163.533 L 236.764 149.666 L 247.374 143.969 L 236.004 141.094 L 234.774 127.228 L 228.977 139.319 L 217.607 136.447 L 225.394 146.793 L 219.597 158.884 L 230.207 153.188 Z"/><path fill="#eed000" fill-rule="evenodd" stroke="#eed000" stroke-miterlimit="3.864" d="M 85.062 232.224 L 81.696 232.224 L 81.696 231.774 C 81.791 231.766 81.928 231.753 82.107 231.737 C 82.286 231.72 82.412 231.694 82.486 231.661 C 82.602 231.606 82.686 231.532 82.739 231.439 C 82.792 231.342 82.818 231.21 82.818 231.041 L 82.818 224.533 C 82.818 224.387 82.799 224.263 82.76 224.167 C 82.721 224.066 82.63 223.981 82.486 223.913 C 82.381 223.863 82.247 223.817 82.086 223.774 C 81.928 223.728 81.798 223.7 81.696 223.692 L 81.696 223.242 L 85.062 223.242 L 85.062 223.692 C 84.953 223.697 84.824 223.713 84.673 223.742 C 84.521 223.768 84.39 223.801 84.277 223.844 C 84.144 223.894 84.054 223.977 84.009 224.091 C 83.963 224.204 83.94 224.331 83.94 224.47 L 83.94 230.971 C 83.94 231.11 83.965 231.234 84.014 231.344 C 84.067 231.45 84.155 231.534 84.277 231.598 C 84.351 231.631 84.471 231.669 84.636 231.711 C 84.804 231.749 84.947 231.77 85.062 231.774 L 85.062 232.224 Z M 94.286 223.692 C 94.188 223.697 94.037 223.73 93.833 223.793 C 93.629 223.857 93.484 223.922 93.396 223.989 C 93.27 224.096 93.183 224.298 93.138 224.597 C 93.096 224.897 93.075 225.277 93.075 225.737 L 93.075 232.313 L 92.616 232.313 L 88.086 224.964 L 88.086 229.598 C 88.086 230.117 88.112 230.516 88.165 230.793 C 88.221 231.072 88.305 231.271 88.417 231.389 C 88.498 231.482 88.665 231.568 88.918 231.649 C 89.171 231.729 89.338 231.771 89.418 231.774 L 89.418 232.224 L 86.352 232.224 L 86.352 231.774 C 86.447 231.766 86.607 231.727 86.832 231.654 C 87.056 231.579 87.197 231.511 87.253 231.452 C 87.376 231.334 87.46 231.154 87.506 230.914 C 87.552 230.669 87.574 230.253 87.575 229.667 L 87.575 225.242 C 87.575 225.049 87.546 224.854 87.49 224.66 C 87.434 224.467 87.359 224.317 87.264 224.211 C 87.137 224.071 86.965 223.953 86.747 223.857 C 86.533 223.756 86.359 223.701 86.226 223.692 L 86.226 223.242 L 88.36 223.242 L 92.564 230.091 L 92.564 225.819 C 92.564 225.296 92.536 224.894 92.479 224.617 C 92.423 224.333 92.342 224.146 92.237 224.052 C 92.139 223.972 91.977 223.894 91.752 223.819 C 91.531 223.742 91.363 223.7 91.247 223.692 L 91.247 223.242 L 94.287 223.242 L 94.287 223.692 L 94.286 223.692 Z M 105.312 228.636 C 105.228 228.648 105.113 228.669 104.97 228.699 C 104.829 228.724 104.715 228.762 104.627 228.812 C 104.522 228.876 104.446 228.967 104.401 229.084 C 104.358 229.199 104.337 229.333 104.337 229.49 L 104.337 230.187 C 104.337 230.692 104.339 231.034 104.343 231.211 C 104.35 231.389 104.357 231.534 104.364 231.648 C 103.896 231.901 103.431 232.096 102.968 232.23 C 102.504 232.366 102.049 232.433 101.603 232.433 C 101.125 232.433 100.665 232.326 100.223 232.11 C 99.78 231.896 99.394 231.589 99.064 231.192 C 98.73 230.792 98.465 230.304 98.268 229.73 C 98.071 229.157 97.973 228.516 97.973 227.807 C 97.973 227.122 98.066 226.49 98.252 225.908 C 98.442 225.321 98.709 224.812 99.053 224.382 C 99.387 223.96 99.784 223.633 100.244 223.401 C 100.707 223.164 101.202 223.047 101.729 223.047 C 102.151 223.047 102.518 223.108 102.83 223.23 C 103.143 223.352 103.419 223.5 103.657 223.673 L 103.874 223.242 L 104.295 223.242 L 104.342 226.382 L 103.91 226.382 C 103.837 226.036 103.745 225.696 103.636 225.363 C 103.527 225.026 103.387 224.724 103.215 224.458 C 103.045 224.194 102.829 223.978 102.583 223.824 C 102.337 223.664 102.042 223.584 101.698 223.584 C 101.322 223.584 100.986 223.678 100.691 223.862 C 100.396 224.044 100.14 224.317 99.922 224.679 C 99.708 225.03 99.543 225.467 99.427 225.989 C 99.311 226.513 99.253 227.097 99.253 227.742 C 99.253 228.312 99.309 228.85 99.422 229.357 C 99.538 229.859 99.704 230.293 99.922 230.661 C 100.14 231.037 100.412 231.332 100.739 231.547 C 101.065 231.762 101.436 231.87 101.85 231.87 C 102.159 231.87 102.44 231.812 102.693 231.699 C 102.95 231.584 103.131 231.464 103.236 231.338 C 103.264 231.119 103.278 230.897 103.278 230.673 C 103.282 230.45 103.283 230.26 103.283 230.103 L 103.283 229.61 C 103.283 229.433 103.262 229.277 103.22 229.142 C 103.181 229.002 103.099 228.901 102.973 228.838 C 102.857 228.774 102.699 228.728 102.498 228.699 C 102.302 228.666 102.147 228.643 102.035 228.636 L 102.035 228.173 L 105.312 228.173 L 105.312 228.636 Z M 112.663 224.306 C 112.993 224.72 113.251 225.22 113.437 225.806 C 113.623 226.388 113.716 227.034 113.716 227.743 C 113.716 228.457 113.622 229.103 113.432 229.687 C 113.242 230.269 112.979 230.764 112.642 231.173 C 112.319 231.576 111.932 231.894 111.504 232.11 C 111.072 232.33 110.611 232.439 110.123 232.439 C 109.604 232.439 109.122 232.323 108.68 232.091 C 108.241 231.856 107.863 231.528 107.547 231.11 C 107.231 230.701 106.982 230.206 106.799 229.623 C 106.62 229.037 106.53 228.41 106.53 227.743 C 106.53 227.013 106.625 226.363 106.815 225.793 C 107.005 225.22 107.266 224.724 107.6 224.306 C 107.93 223.892 108.313 223.576 108.748 223.357 C 109.184 223.138 109.651 223.026 110.123 223.028 C 110.619 223.028 111.086 223.139 111.525 223.363 C 111.964 223.587 112.343 223.901 112.663 224.306 Z M 111.878 230.673 C 112.074 230.29 112.217 229.854 112.305 229.37 C 112.396 228.884 112.441 228.342 112.442 227.742 C 112.442 227.127 112.391 226.561 112.289 226.047 C 112.19 225.532 112.045 225.093 111.851 224.73 C 111.658 224.371 111.416 224.093 111.124 223.894 C 110.833 223.692 110.499 223.591 110.123 223.591 C 109.702 223.591 109.344 223.707 109.049 223.939 C 108.754 224.171 108.513 224.481 108.327 224.869 C 108.151 225.24 108.02 225.676 107.932 226.173 C 107.848 226.671 107.805 227.194 107.805 227.742 C 107.805 228.35 107.851 228.899 107.942 229.389 C 108.034 229.878 108.178 230.312 108.374 230.692 C 108.564 231.063 108.803 231.356 109.091 231.566 C 109.379 231.772 109.723 231.877 110.123 231.877 C 110.499 231.877 110.838 231.771 111.14 231.56 C 111.442 231.349 111.688 231.053 111.878 230.673 Z M 121.998 227.788 C 121.998 228.551 121.878 229.213 121.64 229.774 C 121.401 230.336 121.09 230.796 120.707 231.154 C 120.321 231.513 119.887 231.781 119.406 231.959 C 118.925 232.136 118.428 232.224 117.915 232.224 L 114.817 232.224 L 114.817 231.774 C 114.919 231.774 115.051 231.764 115.212 231.743 C 115.377 231.718 115.486 231.691 115.539 231.661 C 115.644 231.606 115.72 231.526 115.766 231.42 C 115.815 231.311 115.839 231.18 115.839 231.028 L 115.839 224.547 C 115.839 224.403 115.818 224.274 115.776 224.16 C 115.737 224.047 115.658 223.956 115.539 223.888 C 115.427 223.823 115.308 223.777 115.186 223.749 C 115.06 223.72 114.951 223.701 114.859 223.692 L 114.859 223.242 L 118.126 223.242 C 118.575 223.242 119.018 223.327 119.453 223.496 C 119.889 223.66 120.268 223.884 120.591 224.167 C 121.03 224.542 121.374 225.034 121.624 225.641 C 121.873 226.249 121.998 226.964 121.998 227.788 Z M 120.707 227.781 C 120.707 227.178 120.64 226.633 120.507 226.148 C 120.373 225.658 120.179 225.232 119.922 224.869 C 119.68 224.523 119.381 224.251 119.027 224.052 C 118.675 223.854 118.284 223.756 117.852 223.756 C 117.708 223.756 117.544 223.76 117.362 223.768 C 117.183 223.772 117.049 223.777 116.961 223.78 L 116.961 230.686 C 116.961 231.07 117.055 231.336 117.241 231.483 C 117.427 231.631 117.713 231.704 118.099 231.704 C 118.545 231.704 118.935 231.61 119.269 231.42 C 119.603 231.23 119.873 230.967 120.08 230.629 C 120.298 230.274 120.456 229.866 120.554 229.401 C 120.656 228.932 120.707 228.392 120.707 227.781 Z M 136.274 223.692 C 136.186 223.697 136.084 223.721 135.968 223.768 C 135.856 223.809 135.748 223.866 135.647 223.939 C 135.524 224.032 135.424 224.139 135.347 224.261 C 135.273 224.38 135.208 224.547 135.152 224.761 C 134.902 225.737 134.613 226.876 134.283 228.18 C 133.93 229.567 133.573 230.953 133.213 232.338 L 132.728 232.338 L 130.842 225.427 L 128.877 232.338 L 128.414 232.338 C 128.053 230.807 127.693 229.274 127.334 227.743 C 126.961 226.152 126.712 225.087 126.586 224.547 C 126.556 224.421 126.508 224.303 126.443 224.199 C 126.384 224.097 126.301 224.004 126.196 223.92 C 126.108 223.848 126.004 223.796 125.885 223.762 C 125.769 223.723 125.664 223.701 125.569 223.692 L 125.569 223.242 L 128.619 223.242 L 128.619 223.692 C 128.352 223.709 128.124 223.741 127.934 223.787 C 127.748 223.833 127.655 223.911 127.655 224.021 C 127.655 224.063 127.66 224.121 127.671 224.192 C 127.681 224.26 127.69 224.314 127.697 224.357 C 127.778 224.728 127.92 225.342 128.124 226.199 C 128.331 227.051 128.637 228.33 129.041 230.034 L 130.906 223.369 L 131.422 223.369 L 133.303 230.18 C 133.524 229.268 133.741 228.353 133.956 227.439 C 134.139 226.654 134.289 225.983 134.409 225.427 C 134.493 225.034 134.546 224.766 134.567 224.622 C 134.588 224.474 134.599 224.35 134.599 224.249 C 134.599 224.106 134.516 223.986 134.351 223.888 C 134.189 223.791 133.926 223.726 133.561 223.692 L 133.561 223.242 L 136.274 223.242 L 136.274 223.692 Z M 143.533 229.579 L 143.391 232.224 L 137.185 232.224 L 137.185 231.774 C 137.325 231.762 137.466 231.746 137.606 231.724 C 137.782 231.694 137.896 231.666 137.949 231.636 C 138.061 231.572 138.138 231.49 138.18 231.389 C 138.226 231.288 138.249 231.159 138.249 231.002 L 138.249 224.547 C 138.249 224.407 138.229 224.284 138.191 224.179 C 138.152 224.07 138.071 223.981 137.949 223.913 C 137.854 223.859 137.726 223.81 137.564 223.768 C 137.406 223.726 137.28 223.7 137.185 223.692 L 137.185 223.242 L 142.969 223.242 L 142.969 225.407 L 142.574 225.407 C 142.504 225.087 142.351 224.747 142.116 224.388 C 141.884 224.026 141.663 223.827 141.452 223.793 C 141.323 223.774 141.193 223.761 141.062 223.756 C 140.911 223.747 140.739 223.742 140.546 223.742 L 139.371 223.742 L 139.371 227.312 L 140.214 227.312 C 140.484 227.312 140.681 227.283 140.804 227.223 C 140.931 227.16 141.041 227.057 141.136 226.913 C 141.213 226.791 141.278 226.629 141.331 226.427 C 141.387 226.22 141.424 226.026 141.442 225.844 L 141.837 225.844 L 141.837 229.357 L 141.442 229.357 C 141.427 229.154 141.389 228.941 141.326 228.718 C 141.266 228.49 141.203 228.326 141.136 228.223 C 141.027 228.059 140.902 227.952 140.762 227.901 C 140.625 227.85 140.442 227.826 140.214 227.826 L 139.371 227.826 L 139.371 230.521 C 139.371 230.792 139.387 231.004 139.419 231.161 C 139.45 231.317 139.512 231.436 139.603 231.516 C 139.694 231.596 139.819 231.648 139.977 231.673 C 140.135 231.694 140.36 231.706 140.651 231.706 L 141.11 231.706 C 141.299 231.706 141.459 231.698 141.589 231.68 C 141.728 231.662 141.865 231.632 142 231.591 C 142.144 231.544 142.246 231.483 142.306 231.408 C 142.467 231.204 142.636 230.899 142.811 230.49 C 142.99 230.077 143.105 229.772 143.154 229.578 L 143.533 229.578 L 143.533 229.579 Z M 154.529 225.68 L 154.165 225.68 C 154.133 225.528 154.075 225.348 153.991 225.141 C 153.912 224.936 153.821 224.737 153.717 224.547 C 153.612 224.352 153.496 224.183 153.37 224.04 C 153.246 223.892 153.127 223.808 153.011 223.787 C 152.902 223.77 152.765 223.758 152.6 223.749 C 152.435 223.74 152.282 223.737 152.142 223.737 L 151.836 223.737 L 151.836 230.92 C 151.836 231.06 151.861 231.189 151.91 231.307 C 151.959 231.42 152.045 231.509 152.168 231.572 C 152.232 231.602 152.363 231.642 152.564 231.692 C 152.767 231.743 152.925 231.771 153.038 231.774 L 153.038 232.224 L 149.508 232.224 L 149.508 231.774 C 149.606 231.766 149.755 231.75 149.956 231.724 C 150.159 231.699 150.3 231.668 150.377 231.629 C 150.493 231.574 150.577 231.497 150.63 231.396 C 150.686 231.29 150.714 231.151 150.714 230.978 L 150.714 223.737 L 150.409 223.737 C 150.3 223.737 150.165 223.741 150.003 223.749 C 149.848 223.753 149.693 223.766 149.54 223.787 C 149.424 223.804 149.302 223.888 149.176 224.04 C 149.053 224.188 148.939 224.357 148.834 224.547 C 148.728 224.737 148.635 224.939 148.554 225.154 C 148.474 225.366 148.417 225.54 148.386 225.68 L 148.017 225.68 L 148.017 223.242 L 154.529 223.242 L 154.529 225.68 Z M 163.025 232.224 L 161.013 232.224 C 160.567 231.384 160.163 230.659 159.801 230.047 C 159.424 229.404 159.034 228.773 158.632 228.154 L 157.868 228.154 L 157.868 231.002 C 157.868 231.15 157.887 231.281 157.926 231.394 C 157.964 231.504 158.047 231.589 158.173 231.648 C 158.237 231.678 158.347 231.706 158.505 231.73 C 158.663 231.756 158.797 231.77 158.906 231.774 L 158.906 232.224 L 155.745 232.224 L 155.745 231.774 C 155.829 231.766 155.95 231.751 156.108 231.73 C 156.27 231.71 156.382 231.682 156.445 231.648 C 156.551 231.593 156.626 231.513 156.672 231.408 C 156.721 231.302 156.746 231.168 156.746 231.002 L 156.746 224.509 C 156.746 224.361 156.728 224.23 156.693 224.116 C 156.658 224.002 156.575 223.916 156.445 223.857 C 156.357 223.819 156.243 223.784 156.103 223.756 C 155.962 223.721 155.843 223.7 155.745 223.692 L 155.745 223.242 L 159.196 223.242 C 159.512 223.242 159.808 223.282 160.086 223.362 C 160.363 223.439 160.614 223.563 160.839 223.737 C 161.057 223.906 161.231 224.127 161.361 224.401 C 161.491 224.671 161.556 224.998 161.556 225.382 C 161.556 225.728 161.512 226.033 161.424 226.3 C 161.338 226.561 161.205 226.797 161.034 226.989 C 160.876 227.171 160.687 227.329 160.465 227.464 C 160.244 227.596 160 227.707 159.733 227.8 C 160.102 228.387 160.407 228.88 160.65 229.281 C 160.896 229.682 161.196 230.169 161.551 230.743 C 161.705 230.996 161.844 231.184 161.967 231.307 C 162.093 231.424 162.218 231.521 162.341 231.598 C 162.432 231.652 162.546 231.694 162.683 231.724 C 162.82 231.753 162.934 231.77 163.026 231.774 L 163.026 232.224 L 163.025 232.224 Z M 160.254 225.528 C 160.254 224.983 160.124 224.552 159.865 224.237 C 159.605 223.916 159.238 223.756 158.763 223.756 L 157.868 223.756 L 157.868 227.61 L 158.558 227.61 C 159.043 227.61 159.447 227.424 159.77 227.053 C 160.093 226.678 160.254 226.169 160.254 225.528 Z M 170.844 223.692 C 170.745 223.697 170.601 223.721 170.412 223.768 C 170.222 223.814 170.067 223.884 169.948 223.977 C 169.828 224.074 169.746 224.274 169.7 224.578 C 169.655 224.882 169.632 225.253 169.632 225.692 L 169.632 229.598 C 169.632 230.096 169.546 230.528 169.374 230.894 C 169.201 231.262 168.975 231.564 168.694 231.8 C 168.416 232.028 168.123 232.191 167.814 232.288 C 167.509 232.389 167.215 232.439 166.934 232.439 C 166.485 232.439 166.084 232.368 165.733 232.224 C 165.382 232.084 165.087 231.894 164.848 231.654 C 164.613 231.413 164.435 231.14 164.316 230.831 C 164.196 230.52 164.137 230.194 164.137 229.857 L 164.137 224.547 C 164.137 224.399 164.116 224.277 164.074 224.179 C 164.035 224.078 163.954 223.986 163.831 223.901 C 163.743 223.842 163.631 223.796 163.494 223.761 C 163.357 223.723 163.245 223.7 163.157 223.692 L 163.157 223.242 L 166.27 223.242 L 166.27 223.692 C 166.172 223.697 166.047 223.716 165.896 223.749 C 165.749 223.783 165.64 223.814 165.57 223.844 C 165.45 223.894 165.37 223.979 165.327 224.097 C 165.289 224.216 165.269 224.344 165.269 224.483 L 165.269 229.446 C 165.269 229.687 165.291 229.939 165.333 230.206 C 165.378 230.467 165.466 230.711 165.596 230.939 C 165.733 231.171 165.919 231.361 166.155 231.509 C 166.39 231.657 166.713 231.73 167.124 231.73 C 167.51 231.73 167.833 231.657 168.093 231.509 C 168.357 231.361 168.564 231.168 168.715 230.927 C 168.859 230.699 168.961 230.46 169.02 230.211 C 169.08 229.962 169.11 229.711 169.11 229.458 L 169.11 225.774 C 169.11 225.306 169.082 224.924 169.026 224.629 C 168.969 224.329 168.887 224.133 168.778 224.04 C 168.655 223.934 168.487 223.852 168.272 223.793 C 168.062 223.734 167.9 223.7 167.788 223.692 L 167.788 223.242 L 170.843 223.242 L 170.843 223.692 L 170.844 223.692 Z M 176.388 228.103 C 176.546 228.314 176.662 228.547 176.736 228.8 C 176.813 229.049 176.851 229.34 176.852 229.673 C 176.852 230.467 176.607 231.121 176.119 231.636 C 175.631 232.15 175.025 232.408 174.302 232.408 C 173.968 232.408 173.634 232.347 173.301 232.224 C 172.967 232.098 172.679 231.946 172.437 231.769 L 172.21 232.23 L 171.789 232.23 L 171.715 229.154 L 172.142 229.154 C 172.229 229.534 172.331 229.878 172.447 230.187 C 172.567 230.49 172.723 230.774 172.916 231.04 C 173.095 231.286 173.311 231.488 173.554 231.636 C 173.799 231.783 174.084 231.857 174.407 231.857 C 174.649 231.857 174.86 231.819 175.039 231.743 C 175.222 231.667 175.369 231.56 175.482 231.42 C 175.594 231.282 175.678 231.116 175.729 230.933 C 175.786 230.743 175.814 230.526 175.814 230.281 C 175.814 229.922 175.729 229.589 175.561 229.281 C 175.392 228.969 175.141 228.732 174.807 228.572 C 174.547 228.448 174.285 228.328 174.022 228.211 C 173.727 228.077 173.473 227.95 173.259 227.831 C 172.837 227.603 172.509 227.307 172.273 226.939 C 172.042 226.568 171.926 226.084 171.926 225.49 C 171.926 225.148 171.984 224.829 172.1 224.533 C 172.216 224.239 172.38 223.974 172.595 223.742 C 172.798 223.523 173.039 223.352 173.317 223.23 C 173.594 223.103 173.889 223.039 174.186 223.04 C 174.53 223.04 174.837 223.103 175.108 223.23 C 175.382 223.357 175.631 223.504 175.856 223.673 L 176.072 223.242 L 176.493 223.242 L 176.535 226.223 L 176.109 226.223 C 176.034 225.892 175.946 225.564 175.845 225.242 C 175.75 224.931 175.626 224.648 175.471 224.394 C 175.32 224.15 175.136 223.956 174.918 223.812 C 174.7 223.664 174.433 223.591 174.117 223.591 C 173.784 223.591 173.499 223.719 173.264 223.977 C 173.028 224.234 172.911 224.549 172.911 224.92 C 172.911 225.308 172.986 225.631 173.137 225.888 C 173.288 226.141 173.508 226.35 173.796 226.514 C 174.042 226.658 174.293 226.787 174.549 226.901 C 174.799 227.007 175.039 227.121 175.271 227.243 C 175.48 227.351 175.682 227.477 175.877 227.617 C 176.074 227.756 176.244 227.918 176.388 228.103 Z M 184.479 225.68 L 184.116 225.68 C 184.084 225.528 184.026 225.348 183.942 225.141 C 183.863 224.936 183.772 224.737 183.668 224.547 C 183.563 224.352 183.447 224.183 183.32 224.04 C 183.197 223.892 183.078 223.808 182.962 223.787 C 182.853 223.77 182.716 223.758 182.551 223.749 C 182.386 223.74 182.233 223.737 182.093 223.737 L 181.787 223.737 L 181.787 230.92 C 181.787 231.06 181.812 231.189 181.861 231.307 C 181.91 231.42 181.996 231.509 182.119 231.572 C 182.182 231.602 182.314 231.642 182.514 231.692 C 182.718 231.743 182.876 231.771 182.988 231.774 L 182.988 232.224 L 179.459 232.224 L 179.459 231.774 C 179.557 231.766 179.706 231.75 179.906 231.724 C 180.11 231.699 180.25 231.668 180.328 231.629 C 180.444 231.574 180.528 231.497 180.581 231.396 C 180.637 231.29 180.665 231.151 180.665 230.978 L 180.665 223.737 L 180.359 223.737 C 180.25 223.737 180.115 223.741 179.954 223.749 C 179.799 223.753 179.644 223.766 179.49 223.787 C 179.374 223.804 179.253 223.888 179.127 224.04 C 179.004 224.188 178.89 224.357 178.784 224.547 C 178.679 224.737 178.586 224.939 178.505 225.154 C 178.424 225.366 178.368 225.54 178.336 225.68 L 177.968 225.68 L 177.968 223.242 L 184.479 223.242 L 184.479 225.68 Z"/><path fill="#eed000" d="M 133.601 118.466 C 133.616 118.458 133.624 118.456 133.625 118.456 C 133.631 118.453 134.555 118.852 134.562 120.589 C 135.38 120.404 135.71 120.923 135.552 122.142 C 135.552 122.142 134.582 121.828 134.423 122.492 C 134.185 123.26 134.367 123.884 134.968 124.368 C 134.968 124.368 135.977 125.328 136.612 123.509 C 137.247 121.69 137.476 121.071 137.476 121.071 C 137.652 120.401 138.704 118.83 139.659 118.61 C 140.023 118.434 140.371 118.469 140.76 118.581 C 140.76 118.581 141.595 118.798 141.619 119.636 C 141.643 120.473 141.357 120.838 140.886 121.081 C 140.365 121.35 139.722 120.773 139.722 120.773 C 139.498 120.723 139.426 120.816 139.289 120.931 C 139.225 120.983 138.961 121.331 138.807 121.723 C 138.807 121.723 138.344 122.9 138.122 123.799 C 137.948 124.507 137.564 126.647 135.758 126.968 L 131.497 126.968 C 129.691 126.647 129.307 124.507 129.133 123.799 C 128.912 122.9 128.448 121.723 128.448 121.723 C 128.295 121.331 128.03 120.983 127.967 120.931 C 127.829 120.816 127.758 120.723 127.533 120.773 C 127.533 120.773 126.89 121.35 126.369 121.081 C 125.898 120.838 125.613 120.473 125.637 119.636 C 125.66 118.798 126.496 118.581 126.496 118.581 C 126.885 118.469 127.233 118.434 127.597 118.61 C 128.551 118.83 129.603 120.401 129.78 121.071 C 129.78 121.071 130.008 121.69 130.643 123.509 C 131.278 125.328 132.288 124.368 132.288 124.368 C 132.889 123.884 133.07 123.26 132.832 122.492 C 132.674 121.828 131.703 122.142 131.703 122.142 C 131.546 120.923 131.875 120.404 132.693 120.589 C 132.701 118.852 133.625 118.452 133.631 118.456 C 133.632 118.456 133.64 118.459 133.655 118.466 L 133.601 118.466 Z"/><path fill="#eed000" fill-rule="evenodd" stroke="#002d56" stroke-miterlimit="3.864" d="M 138.903 176.884 L 128.588 176.884 L 129.805 128.587 L 137.734 128.587 L 138.903 176.884 Z M 138.859 203.742 L 127.905 203.742 L 127.905 181.809 L 138.859 181.806 L 138.859 203.742 Z"/><path fill="#eed000" stroke="#002d56" stroke-miterlimit="3.864" d="M 127.726 179.308 L 138.83 179.308 C 139.604 179.308 140.23 179.874 140.23 180.572 C 140.23 181.27 139.603 181.836 138.83 181.836 L 127.726 181.836 C 126.952 181.836 126.325 181.27 126.325 180.572 C 126.325 179.874 126.952 179.308 127.726 179.308 Z"/><path fill="#eed000" fill-rule="evenodd" stroke="#002d56" stroke-miterlimit="3.864" d="M 128.549 176.938 L 138.242 176.938 C 138.931 176.938 139.489 177.468 139.489 178.123 C 139.489 178.778 138.931 179.308 138.242 179.308 L 128.549 179.308 C 127.86 179.308 127.302 178.778 127.302 178.123 C 127.302 177.468 127.86 176.938 128.549 176.938 Z"/><path fill="none" stroke="#002d56" stroke-miterlimit="3.864" d="M 130.377 185.918 L 136.229 185.918 L 136.229 200.378 L 130.377 200.378 L 130.377 185.918 Z"/><path fill="#eed000" stroke="#002d56" stroke-miterlimit="3.864" d="M 130.255 126.902 L 136.978 126.902 C 137.53 126.902 137.978 127.293 137.978 127.774 C 137.978 128.257 137.53 128.647 136.978 128.647 L 130.255 128.647 C 129.703 128.647 129.255 128.257 129.255 127.774 C 129.255 127.293 129.703 126.902 130.255 126.902 Z"/><path fill="#eed000" fill-rule="evenodd" stroke="#002d56" stroke-miterlimit="3.864" d="M 78.492 206.367 L 190.135 206.367 L 190.135 210.883 L 78.492 210.883 L 78.492 206.367 Z"/><path fill="#eed000" stroke="#002d56" stroke-miterlimit="3.864" d="M 73.729 210.846 L 194.975 210.846 L 194.975 215.629 L 73.729 215.629 L 73.729 210.846 Z"/><path fill="#eed000" fill-rule="evenodd" stroke="#002d56" stroke-miterlimit="3.864" d="M 81.793 108.273 L 186.033 108.273 L 186.033 111.041 L 81.793 111.041 L 81.793 108.273 Z"/><path d="M 166.398 108.189 C 160.998 92.663 148.463 81.815 133.863 81.815 C 119.271 81.815 106.744 92.678 101.338 108.189 L 88.381 108.189 C 94.374 84.325 112.49 66.831 133.863 66.831 C 155.251 66.831 173.378 84.293 179.364 108.181 L 166.398 108.189 Z" style="fill: rgb(238, 208, 0); fill-rule: evenodd; stroke: rgb(0, 45, 86); stroke-linejoin: round; stroke-miterlimit: 3.8637;"/><path fill="#eed000" fill-rule="evenodd" stroke="#002d56" stroke-miterlimit="3.864" d="M 84.595 111.076 C 84.595 111.076 86.396 112.369 87.897 116.22 L 180.631 116.216 C 180.631 116.216 182.156 111.91 184.257 111.067 L 84.595 111.076 Z"/><path d="M 107.601 117.22 C 107.601 117.22 116.192 134.912 133.661 134.669 C 150.917 134.428 159.721 117.822 159.721 117.822 L 164.323 126.004 C 164.323 126.004 166.023 128.772 162.722 132.262 C 151.059 144.591 141.821 147.013 133.661 146.943 C 121.61 146.152 111.889 141.258 104.5 132.262 C 103.171 130.936 102.899 129.193 103.3 127.749 L 107.601 117.22 Z" style="fill: rgb(238, 208, 0); fill-rule: evenodd; stroke: rgb(0, 45, 86); stroke-linejoin: round; stroke-miterlimit: 3.8637;"/><path fill="none" stroke="#002d56" stroke-miterlimit="3.864" d="M 103.125 129.584 C 103.125 129.584 102.599 126.004 107.301 128.893 L 107.651 117.28 M 164.648 127.148 C 163.147 123.267 160.396 128.02 160.396 128.02 L 159.703 117.882"/><path fill="#eed000" stroke="#002d56" stroke-miterlimit="3.864" d="M 87.395 116.429 L 180.631 116.429 C 180.962 116.429 181.231 116.764 181.231 117.18 L 181.231 117.43 C 181.231 117.844 180.962 118.181 180.631 118.181 L 87.395 118.181 C 87.064 118.181 86.795 117.844 86.795 117.43 L 86.795 117.18 C 86.795 116.764 87.064 116.429 87.395 116.429 Z"/><path fill="#eed000" d="M 95.636 118.327 C 95.652 118.319 95.66 118.317 95.661 118.317 C 95.667 118.314 96.591 118.713 96.598 120.45 C 97.416 120.266 97.746 120.784 97.588 122.003 C 97.588 122.003 96.618 121.689 96.459 122.353 C 96.221 123.121 96.403 123.746 97.004 124.229 C 97.004 124.229 98.013 125.189 98.648 123.37 C 99.283 121.551 99.512 120.932 99.512 120.932 C 99.688 120.262 100.74 118.691 101.695 118.471 C 102.059 118.296 102.407 118.33 102.796 118.442 C 102.796 118.442 103.631 118.659 103.655 119.497 C 103.679 120.334 103.393 120.699 102.922 120.942 C 102.401 121.211 101.758 120.634 101.758 120.634 C 101.534 120.584 101.462 120.677 101.325 120.792 C 101.261 120.844 100.997 121.192 100.843 121.584 C 100.843 121.584 100.38 122.761 100.158 123.66 C 99.984 124.368 99.6 126.508 97.794 126.829 L 93.533 126.829 C 91.727 126.508 91.343 124.368 91.169 123.66 C 90.948 122.761 90.484 121.584 90.484 121.584 C 90.331 121.192 90.066 120.844 90.003 120.792 C 89.865 120.677 89.794 120.584 89.569 120.634 C 89.569 120.634 88.926 121.211 88.405 120.942 C 87.934 120.699 87.649 120.334 87.673 119.497 C 87.696 118.659 88.532 118.442 88.532 118.442 C 88.921 118.33 89.269 118.296 89.633 118.471 C 90.587 118.691 91.639 120.262 91.816 120.932 C 91.816 120.932 92.044 121.551 92.679 123.37 C 93.314 125.189 94.324 124.229 94.324 124.229 C 94.925 123.746 95.106 123.121 94.868 122.353 C 94.71 121.689 93.739 122.003 93.739 122.003 C 93.582 120.784 93.912 120.266 94.729 120.45 C 94.737 118.713 95.661 118.313 95.667 118.317 C 95.668 118.317 95.676 118.32 95.691 118.327 L 95.636 118.327 Z"/><path fill="#eed000" fill-rule="evenodd" stroke="#002d56" stroke-miterlimit="3.864" d="M 100.821 176.884 L 90.506 176.884 L 91.878 128.587 L 99.498 128.587 L 100.821 176.884 Z M 101.141 203.742 L 90.187 203.742 L 90.187 181.809 L 101.141 181.806 L 101.141 203.742 Z"/><path fill="#eed000" fill-rule="evenodd" stroke="#002d56" stroke-miterlimit="3.864" d="M 90.112 179.308 L 101.216 179.308 C 101.989 179.308 102.616 179.874 102.616 180.572 C 102.616 181.27 101.989 181.836 101.216 181.836 L 90.112 181.836 C 89.338 181.836 88.711 181.27 88.711 180.572 C 88.711 179.874 89.338 179.308 90.112 179.308 Z M 90.817 176.938 L 100.51 176.938 C 101.199 176.938 101.757 177.468 101.757 178.123 C 101.757 178.778 101.199 179.308 100.51 179.308 L 90.817 179.308 C 90.128 179.308 89.57 178.778 89.57 178.123 C 89.57 177.468 90.128 176.938 90.817 176.938 Z"/><path fill="none" stroke="#002d56" stroke-miterlimit="3.864" d="M 92.738 185.918 L 98.59 185.918 L 98.59 200.378 L 92.738 200.378 L 92.738 185.918 Z"/><path fill="#eed000" stroke="#002d56" stroke-miterlimit="3.864" d="M 92.302 127.088 L 99.025 127.088 C 99.577 127.088 100.025 127.478 100.025 127.96 C 100.025 128.441 99.577 128.832 99.025 128.832 L 92.302 128.832 C 91.75 128.832 91.302 128.441 91.302 127.96 C 91.302 127.478 91.75 127.088 92.302 127.088 Z"/><path fill="#eed000" fill-rule="evenodd" stroke="#002d56" stroke-miterlimit="3.864" d="M 87.861 203.798 L 103.467 203.798 L 103.467 206.324 L 87.861 206.324 L 87.861 203.798 Z"/><path fill="#eed000" d="M 172.129 118.466 C 172.144 118.458 172.153 118.456 172.153 118.456 C 172.159 118.453 173.083 118.852 173.091 120.589 C 173.908 120.404 174.238 120.923 174.081 122.142 C 174.081 122.142 173.11 121.828 172.952 122.492 C 172.714 123.26 172.895 123.884 173.496 124.368 C 173.496 124.368 174.505 125.328 175.14 123.509 C 175.776 121.69 176.004 121.071 176.004 121.071 C 176.181 120.401 177.232 118.83 178.187 118.61 C 178.551 118.434 178.899 118.469 179.288 118.581 C 179.288 118.581 180.123 118.798 180.147 119.636 C 180.171 120.473 179.886 120.838 179.415 121.081 C 178.894 121.35 178.25 120.773 178.25 120.773 C 178.026 120.723 177.955 120.816 177.817 120.931 C 177.753 120.983 177.489 121.331 177.336 121.723 C 177.336 121.723 176.872 122.9 176.651 123.799 C 176.476 124.507 176.092 126.647 174.287 126.968 L 170.025 126.968 C 168.22 126.647 167.836 124.507 167.661 123.799 C 167.44 122.9 166.976 121.723 166.976 121.723 C 166.823 121.331 166.559 120.983 166.495 120.931 C 166.357 120.816 166.286 120.723 166.062 120.773 C 166.062 120.773 165.418 121.35 164.897 121.081 C 164.426 120.838 164.141 120.473 164.165 119.636 C 164.189 118.798 165.024 118.581 165.024 118.581 C 165.413 118.469 165.761 118.434 166.125 118.61 C 167.08 118.83 168.131 120.401 168.308 121.071 C 168.308 121.071 168.536 121.69 169.172 123.509 C 169.807 125.328 170.816 124.368 170.816 124.368 C 171.417 123.884 171.598 123.26 171.36 122.492 C 171.202 121.828 170.231 122.142 170.231 122.142 C 170.074 120.923 170.404 120.404 171.221 120.589 C 171.229 118.852 172.153 118.452 172.159 118.456 C 172.16 118.456 172.168 118.459 172.183 118.466 L 172.129 118.466 Z"/><path fill="#eed000" fill-rule="evenodd" stroke="#002d56" stroke-miterlimit="3.864" d="M 177.509 176.884 L 167.194 176.884 L 168.566 128.587 L 176.186 128.587 L 177.509 176.884 Z M 178.079 203.742 L 167.125 203.742 L 167.009 181.809 L 178.079 181.806 L 178.079 203.742 Z"/><path fill="#eed000" stroke="#002d56" stroke-miterlimit="3.864" d="M 167.024 179.308 L 178.128 179.308 C 178.901 179.308 179.528 179.874 179.528 180.572 C 179.528 181.27 178.901 181.836 178.128 181.836 L 167.024 181.836 C 166.25 181.836 165.623 181.27 165.623 180.572 C 165.623 179.874 166.25 179.308 167.024 179.308 Z"/><path fill="#eed000" fill-rule="evenodd" stroke="#002d56" stroke-miterlimit="3.864" d="M 167.588 176.938 L 177.281 176.938 C 177.97 176.938 178.528 177.468 178.528 178.123 C 178.528 178.778 177.97 179.308 177.281 179.308 L 167.588 179.308 C 166.899 179.308 166.341 178.778 166.341 178.123 C 166.341 177.468 166.899 176.938 167.588 176.938 Z"/><path fill="none" stroke="#002d56" stroke-miterlimit="3.864" d="M 169.575 185.918 L 175.427 185.918 L 175.427 200.378 L 169.575 200.378 L 169.575 185.918 Z"/><path fill="#eed000" stroke="#002d56" stroke-miterlimit="3.864" d="M 168.939 126.902 L 175.661 126.902 C 176.214 126.902 176.662 127.293 176.662 127.774 C 176.662 128.257 176.214 128.647 175.661 128.647 L 168.939 128.647 C 168.386 128.647 167.938 128.257 167.938 127.774 C 167.938 127.293 168.386 126.902 168.939 126.902 Z"/><path fill="#eed000" fill-rule="evenodd" stroke="#002d56" stroke-miterlimit="3.864" d="M 125.325 203.798 L 140.93 203.798 L 140.93 206.324 L 125.325 206.324 L 125.325 203.798 Z"/><path fill="#eed000" fill-rule="evenodd" stroke="#002d56" stroke-miterlimit="3.864" d="M 67.388 169.552 C 64.737 167.267 61.936 167.868 61.936 167.868 C 61.936 167.868 63.96 164.633 67.188 166.243 C 69.239 167.267 70.989 171.057 76.191 167.086 C 81.393 163.114 83.412 161.108 87.996 159.264 C 92.705 157.369 96.399 156.978 97.499 156.497 C 98.6 156.014 100.322 155.261 101.201 148.914 C 101.401 147.471 106.203 160.949 106.203 160.949 C 106.203 160.949 105.502 165.401 100.901 167.928 C 96.299 170.456 88.325 171.967 83.894 176.231 C 82.394 177.676 79.51 180.172 77.767 183.241 C 73.665 190.461 69.389 191.273 69.389 191.273 C 69.389 191.273 73.266 187.198 74.341 181.707 C 74.541 180.683 74.214 176.083 75.741 174.246 C 74.119 176.197 70.013 172.352 70.539 172.862 C 70.539 172.862 70.039 171.839 67.388 169.552 Z M 166.676 149.031 C 166.676 149.031 167.476 154.506 176.429 157.273 C 185.383 160.041 186.783 163.531 188.234 164.373 C 189.684 165.216 193.453 168.459 197.487 166.841 C 199.077 166.203 203.517 164.734 203.88 165.061 C 204.016 165.332 202.611 168.16 202.439 168.404 C 199.469 172.629 198.338 173.279 197.237 173.94 C 194.834 175.386 194.648 175.561 192.936 175.686 C 192.936 175.686 194.536 178.092 194.786 182.003 C 195.036 185.913 199.388 189.884 199.388 189.884 C 199.388 189.884 193.586 188.08 191.035 183.929 C 188.484 179.777 184.282 176.227 182.732 175.324 C 181.181 174.422 173.278 171.172 171.628 170.39 C 169.977 169.608 164.825 166.359 164.125 161.124 C 163.424 155.89 166.676 149.031 166.676 149.031 Z"/><path fill="#eed000" stroke="#002d56" stroke-miterlimit="3.864" d="M 81.788 153.241 C 75.71 150.383 77.587 148.454 77.587 148.454 C 79.082 145.246 81.041 141.216 88.446 137.798 C 98.35 133.224 108.454 135.27 105.753 140.566 C 104.111 143.784 101.276 149.41 101.276 149.41 C 101.276 149.41 100.1 145.619 94.698 148.026 C 89.296 150.432 87.629 151.452 87.308 152.724 C 86.808 154.71 87.008 155.973 90.91 155.252 C 88.359 156.274 85.517 155.208 82.326 153.503 L 81.788 153.241 Z"/><path fill="#eed000" stroke="#002d56" stroke-linejoin="round" stroke-miterlimit="3.864" d="M 174.403 147.846 C 175.527 148.192 177.444 149.309 178.574 150.283 C 184.08 155.028 183.066 159.168 181.54 159.276 C 179.839 159.396 192.335 158.977 193.836 158.014 C 195.336 157.051 195.837 155.968 194.936 153.682 C 194.036 151.396 187.233 137.437 176.129 134.789 C 165.025 132.141 160.625 137.76 161.574 139.662 C 162.474 141.468 166.576 147.484 166.726 149.951 C 167.865 147.37 170.427 146.634 174.403 147.846 Z"/><g fill-rule="evenodd" transform="matrix(0.092593, 0, 0, 0.111111, 0, 0)"><path fill="#002d56" d="m1826.076 1307.34-23.147-33.257 6.029 36.129-9.291 1.559-10.505-62.956 9.963-1.671 30.066 42.09 15.12-49.67 8.816-1.479 10.505 62.955-12.295 2.063-6.028-36.13-12.276 39.2zm95.567-24.126c-2.002 9.865-5.758 16.942-11.262 21.229-5.501 4.26-11.903 5.643-19.209 4.154-7.227-1.474-12.555-5.251-15.984-11.332-3.423-6.108-4.147-14.025-2.173-23.753l.724-3.565c1.84-9.063 5.422-16.03 10.746-20.902 5.35-4.865 12.058-6.476 20.124-4.831 7.881 1.608 13.249 5.724 16.104 12.35 2.88 6.631 3.417 14.396 1.612 23.293zm-13.264-3.569.345-1.699c1.565-7.71 2.097-13.558 1.598-17.545-.5-3.987-3.119-6.464-7.858-7.43-4.373-.892-7.616.173-9.729 3.195-2.087 3.028-3.997 8.811-5.73 17.35l-.312 1.534c-1.745 8.594-2.302 14.625-1.668 18.092.632 3.468 3.278 5.676 7.94 6.627 3.822.78 6.936-.384 9.339-3.491 2.428-3.102 4.454-8.646 6.075-16.633zm64.429 31.184c-4.927 9.096-10.3 14.916-16.116 17.46-5.796 2.558-12.038 2.015-18.731-1.628l-19.48-10.604 30.384-56.097 17.472 9.511c7.984 4.346 12.382 9.869 13.193 16.569.848 6.688-.983 14.194-5.494 22.522zm-11.846-6.93.826-1.524c3.329-6.146 4.862-11.393 4.602-15.739-.262-4.345-2.131-7.464-5.605-9.357l-4.474-2.435-21.323 39.368 5.495 2.991c3.405 1.854 6.669 1.946 9.793.277 3.137-1.693 6.698-6.22 10.686-13.581zm46.537 9.562-11.979 12.221 12.837 12.648-6.744 6.88-12.838-12.648-12.6 12.854 17.698 17.438-6.655 6.789-27.42-27.016 44.635-45.533 26.247 25.86-6.655 6.789zm6.365 100.924-6.835-11.635c8.792-5.317 14.631-9.853 17.519-13.61 2.923-3.748 3.422-7.26 1.497-10.539l-1.628-2.77-24.651 14.556-6.917-11.773 54.864-32.398 12.084 20.568c2.943 5.009 3.884 9.225 2.827 12.649-1.045 3.446-3.228 6.149-6.547 8.111l-2.982 1.76c-3.127 1.846-6.171 2.416-9.133 1.709-2.962-.708-5.685-2.784-8.166-6.231 1.129 4.867.079 9.638-3.149 14.312-3.19 4.684-9.451 9.781-18.783 15.291zm31.291-36.014 1.49-.88c2.375-1.402 3.718-3.004 4.032-4.806.313-1.802-.222-3.88-1.606-6.234l-2.258-3.844-14.507 8.567 1.871 3.186c1.641 2.793 3.346 4.475 5.119 5.046 1.772.569 3.724.224 5.859-1.035zm-203.551 114.797-11.285-8.22 5.378-15.01-16.149-11.763-12.675 9.696-8.983-6.543 53.898-39.643 10.28 7.488zm-2.834-32.392 7.733-23.387-19.407 14.884zm73.71 5.881-11.816-5.779-23.75 48.818-12.249-5.99 23.75-48.817-12.105-5.92 4.161-8.554 36.172 17.687zm29.238 1.25-24.878 58.758-12.545-5.339 24.878-58.758zm48.255 58.348c-4.085 9.198-9.279 15.292-15.579 18.282-6.291 2.966-12.839 2.927-19.651-.113-6.738-3.008-11.124-7.851-13.159-14.533-2.024-6.706-1.022-14.594 3.005-23.663l1.476-3.323c3.752-8.45 8.753-14.474 15.004-18.076 6.274-3.59 13.171-3.706 20.69-.35 7.348 3.28 11.7 8.464 13.057 15.553 1.38 7.099.229 14.797-3.454 23.092zm-12.181-6.363.704-1.584c3.192-7.188 4.975-12.782 5.348-16.783s-1.651-6.988-6.069-8.96c-4.077-1.82-7.474-1.484-10.189 1.009-2.691 2.503-5.805 7.735-9.34 15.696l-.635 1.43c-3.559 8.013-5.404 13.78-5.534 17.302-.132 3.523 1.975 6.253 6.322 8.193 3.563 1.591 6.854 1.131 9.872-1.381 3.041-2.502 6.215-7.475 9.521-14.922zm54.722 33.251 18.84-32.715 8.4 4.863-31.835 55.281-5.068-2.934-6.209-49.899-20.001 34.729-8.4-4.863 31.835-55.281 6.318 3.657zM944.877 1341.726l-8.452 5.091-47.121-46.084 11.819-7.12 29.778 29.241-10.503-40.852 8.281-4.988 31.117 28.433-12.323-39.755 9.449-5.692 18.431 63.367-8.452 5.092-32.254-29.082zm47.15-90.375 18.616 61.043-13.033 3.995-18.616-61.043zm73.217 32.578c.94 6.703-.483 11.958-4.266 15.766-3.789 3.781-9.453 6.202-16.995 7.264-4.314.608-7.99.854-11.028.742-3.039-.113-5.58-.438-7.625-.976l-1.527-10.892c1.646.765 4.141 1.339 7.487 1.722 3.341.355 6.573.313 9.697-.128 4.393-.618 7.323-1.657 8.792-3.118 1.495-1.463 2.043-3.619 1.643-6.469-.258-1.843-1.083-3.393-2.473-4.649-1.391-1.257-5.043-2.664-10.955-4.224-4.712-1.272-8.492-3.202-11.337-5.793-2.85-2.616-4.631-6.467-5.343-11.55-.681-4.859.701-9.24 4.148-13.143 3.472-3.907 8.676-6.348 15.61-7.326 3.36-.473 6.418-.605 9.174-.395 2.778.179 4.74.415 5.888.708l1.351 9.635a126.215 126.215 0 0 0-7.005-.594c-2.313-.129-4.738-.01-7.279.342-3.6.507-6.11 1.459-7.534 2.855-1.423 1.397-2.012 2.975-1.765 4.734.313 2.235 1.146 3.841 2.497 4.817 1.352.978 5.082 2.176 11.19 3.592 5.688 1.307 9.893 3.391 12.616 6.253 2.744 2.835 4.424 6.443 5.039 10.827zm197.065-43.398c-1.954 3.845-4.823 6.479-8.605 7.902-3.747 1.41-8.083.856-13.013-1.661-2.882-1.472-5.101-2.86-6.658-4.161-1.535-1.29-2.689-2.559-3.462-3.81l4.425-8.707c.724.877 1.752 1.892 3.085 3.048a23.45 23.45 0 0 0 4.375 2.9c1.476.754 2.966.978 4.473.671 1.506-.307 2.77-1.466 3.792-3.476l21.649-42.594 12.144 6.203zm69.182 25.51c-2.148 5.608-5.468 9.377-9.955 11.306-4.479 1.902-10.149 1.534-17.008-1.105-7.36-2.831-11.997-6.563-13.914-11.198s-1.595-10.295.967-16.983l15.356-40.087 12.723 4.894-15.977 41.707c-1.24 3.239-1.489 5.938-.741 8.098.781 2.144 2.881 3.873 6.299 5.188 3.168 1.219 5.79 1.397 7.867.534 2.101-.853 3.867-3.149 5.301-6.888l15.886-41.47 9.43 3.627zm67.354 13.763c-.823 6.718-3.554 11.425-8.191 14.122-4.636 2.668-10.732 3.538-18.292 2.607-4.324-.532-7.938-1.248-10.844-2.145s-5.277-1.871-7.114-2.922l1.337-10.917c1.392 1.166 3.654 2.368 6.787 3.606 3.136 1.21 6.269 2.008 9.4 2.393 4.403.542 7.502.299 9.298-.731 1.822-1.025 2.907-2.965 3.258-5.822.226-1.848-.17-3.559-1.189-5.133s-4.183-3.882-9.491-6.922c-4.223-2.451-7.375-5.296-9.455-8.537-2.077-3.267-2.804-7.448-2.18-12.543.597-4.871 3.063-8.744 7.4-11.619 4.363-2.873 10.019-3.881 16.97-3.026 3.368.415 6.356 1.081 8.963 1.999 2.637.893 4.471 1.631 5.504 2.212l-1.183 9.657a126.675 126.675 0 0 0-6.613-2.391c-2.2-.725-4.573-1.243-7.119-1.558-3.608-.444-6.279-.176-8.014.803-1.735.98-2.711 2.352-2.927 4.115-.274 2.24.115 4.007 1.168 5.301 1.053 1.295 4.347 3.42 9.881 6.374 5.157 2.738 8.681 5.842 10.572 9.314 1.921 3.447 2.612 7.368 2.074 11.763zm62.776-31.705-13.146-.229-.947 54.306-13.626-.238.947-54.306-13.466-.236.166-9.516 40.238.703zm37.181-13.066 7.758 63.358-13.527 1.665-7.758-63.357zm76.203 44.373c-.706.895-2.148 1.985-4.325 3.272-2.171 1.313-4.802 2.443-7.893 3.392-7.795 2.389-14.932 1.804-21.41-1.756-6.461-3.594-11.193-10.313-14.196-20.157l-.753-2.468c-2.797-9.17-2.551-17.296.738-24.379 3.314-7.09 8.741-11.79 16.28-14.102 3.245-.994 6.015-1.622 8.312-1.884 2.287-.288 4.13-.292 5.529-.01l2.961 9.709c-1.289-.282-2.952-.377-4.991-.284-2.015.09-4.286.517-6.816 1.292-4.703 1.441-7.795 4.498-9.276 9.168-1.457 4.664-1.147 10.393.926 17.19l.259.85c2.221 7.282 5.089 12.287 8.603 15.014 3.54 2.72 7.444 3.426 11.712 2.118 2.887-.885 5.263-1.936 7.127-3.157 1.855-1.246 3.301-2.323 4.338-3.231zm18.875-67.635 7.758 15.265 16.036-8.192 4.368 8.594-16.037 8.191 8.161 16.057 22.107-11.293 4.31 8.48-34.25 17.496-28.907-56.875 32.787-16.748 4.31 8.48zm-671.314 303.931c5.008 9.055 7.019 16.725 6.037 23.01-.96 6.275-4.77 11.26-11.43 14.96l-19.385 10.769-30.885-55.839 17.387-9.658c7.945-4.414 14.954-5.163 21.028-2.248 6.083 2.878 11.416 8.461 16.001 16.75zm-12.193 6.29-.839-1.517c-3.383-6.117-6.975-10.234-10.772-12.35-3.797-2.114-7.425-2.211-10.884-.291l-4.452 2.473 21.675 39.188 5.469-3.038c3.388-1.882 5.219-4.592 5.493-8.131.259-3.562-1.638-9.005-5.69-16.334zm69.656-30.291c3.924 9.269 4.828 17.234 2.713 23.894-2.127 6.636-6.622 11.411-13.485 14.333-6.79 2.89-13.316 2.803-19.578-.263-6.273-3.09-11.344-9.205-15.214-18.344l-1.418-3.349c-3.605-8.515-4.59-16.292-2.954-23.332 1.66-7.049 6.279-12.186 13.857-15.41 7.405-3.151 14.155-2.807 20.253 1.033 6.121 3.83 10.951 9.925 14.492 18.284zm-12.95 4.592-.676-1.597c-3.067-7.244-5.933-12.366-8.598-15.369-2.665-3.002-6.224-3.556-10.676-1.661-4.109 1.748-6.18 4.468-6.214 8.159-.009 3.681 1.684 9.532 5.081 17.555l.61 1.441c3.419 8.074 6.368 13.362 8.849 15.859 2.48 2.499 5.91 2.817 10.289.953 3.591-1.528 5.5-4.255 5.725-8.181.251-3.935-1.213-9.655-4.39-17.159zm63.118 11.569-28.807-28.473 12.498 34.424-8.852 3.23-21.777-59.983 9.492-3.464 37.217 35.893 5.836-51.603 8.4-3.065 21.777 59.984-11.715 4.274-12.497-34.424-4.942 40.788zm83.948-631.775c-.038 1.311-.615 3.334-1.728 6.068-1.088 2.754-2.719 5.681-4.889 8.783-5.475 7.82-12.354 12.516-20.639 14.089-8.292 1.529-17.116-.982-26.474-7.534l-2.346-1.642c-8.716-6.103-13.964-13.503-15.745-22.2-1.762-8.722 0-16.864 5.299-24.428 2.28-3.255 4.374-5.838 6.285-7.748 1.885-1.927 3.556-3.279 5.016-4.053l9.229 6.462c-1.361.691-2.937 1.823-4.727 3.395-1.772 1.549-3.546 3.592-5.323 6.13-3.303 4.718-4.055 9.693-2.256 14.925 1.817 5.209 5.956 10.073 12.416 14.597l.808.565c6.922 4.847 12.898 7.197 17.928 7.052 5.048-.171 9.071-2.397 12.069-6.678 2.028-2.896 3.479-5.567 4.351-8.014.847-2.462 1.435-4.477 1.766-6.042zm34.562-85.24c8.037 7.761 12.324 15.6 12.86 23.513.514 7.894-2.263 14.978-8.327 21.26-6 6.213-12.963 9.213-20.891 8.997-7.949-.237-15.886-4.182-23.812-11.835l-2.904-2.804c-7.384-7.13-11.677-14.735-12.882-22.815-1.182-8.102 1.575-15.62 8.271-22.554 6.543-6.776 13.853-9.615 21.929-8.517 8.097 1.077 15.77 5.115 23.02 12.114zm-11.828 10.897-1.385-1.337c-6.281-6.066-11.463-10.025-15.546-11.88-4.083-1.854-8.092-.744-12.027 3.331-3.631 3.76-4.693 7.563-3.187 11.41 1.527 3.824 5.769 9.095 12.726 15.813l1.249 1.207c7.002 6.761 12.341 10.853 16.017 12.27 3.677 1.419 7.449.125 11.32-3.883 3.173-3.286 4.061-7.02 2.66-11.201-1.378-4.203-5.32-9.447-11.827-15.73zm74.97-54.438-24.641-33.915 9.191-6.678 41.638 57.31-5.545 4.029-54.832-15.172 26.158 36.004-9.191 6.678-41.637-57.31 6.912-5.022zm88.233-35.895c3.175 6.807 3.253 12.9.236 18.278-3.031 5.35-8.587 9.909-16.671 13.679-4.624 2.156-8.649 3.705-12.077 4.647-3.429.943-6.369 1.486-8.823 1.628l-5.158-11.062c2.08.239 5.048-.02 8.905-.786 3.843-.791 7.439-1.967 10.787-3.528 4.708-2.195 7.65-4.327 8.827-6.396 1.205-2.08 1.134-4.567-.216-7.461-.873-1.872-2.285-3.234-4.236-4.085-1.951-.852-6.475-1.073-13.57-.665-5.664.294-10.496-.439-14.494-2.202-4.012-1.789-7.221-5.265-9.628-10.428-2.302-4.935-2.148-10.083.464-15.445 2.638-5.374 7.673-9.794 15.105-13.26 3.602-1.679 6.974-2.889 10.117-3.63 3.158-.781 5.424-1.216 6.798-1.305l4.563 9.786a155.246 155.246 0 0 0-8.01 1.818c-2.623.671-5.295 1.642-8.018 2.91-3.858 1.799-6.359 3.691-7.506 5.676s-1.303 3.871-.47 5.658c1.059 2.27 2.497 3.688 4.315 4.255 1.819.568 6.364.539 13.633-.09 6.765-.599 12.121.149 16.068 2.245 3.963 2.056 6.982 5.31 9.059 9.763zm61.291-58.684-14.873 3.985 15.6 58.223-15.417 4.131-15.6-58.223-15.236 4.083-2.734-10.203 45.526-12.198zm41.377-15.76 15.923-1.114 4.945 70.668-15.923 1.114zm101.247 12.413-15.361-1.074-4.205 60.129-15.922-1.113 4.205-60.13-15.734-1.1.737-10.536 47.016 3.288zm77.499 60.652c-1.949 6.375-5.438 10.773-10.465 13.196-5.019 2.393-11.644 2.331-19.874-.185-8.83-2.7-14.583-6.57-17.264-11.611-2.68-5.041-2.859-11.362-.534-18.965l13.931-45.566 15.263 4.667-14.494 47.406c-1.125 3.681-1.15 6.702-.07 9.06 1.117 2.339 3.727 4.134 7.827 5.387 3.801 1.162 6.865 1.2 9.195.111 2.358-1.079 4.186-3.742 5.487-7.993l14.411-47.137 11.313 3.459zm88.977-4.447-13.72-6.991-27.365 53.707-14.221-7.246 27.365-53.707-14.054-7.161 4.795-9.411 41.995 21.398zm39.141 12.629 12.912 9.382-41.639 57.309-12.912-9.382zm62.126 103.624c-7.9 7.9-15.813 12.05-23.734 12.448-7.901.376-14.936-2.524-21.112-8.697-6.108-6.108-8.985-13.122-8.631-21.045.375-7.944 4.458-15.811 12.249-23.601l2.854-2.855c7.258-7.258 14.937-11.418 23.037-12.481 8.121-1.041 15.59 1.847 22.406 8.664 6.661 6.661 9.371 14.019 8.133 22.074-1.218 8.077-5.39 15.678-12.514 22.805zm-10.688-12.017 1.361-1.361c6.174-6.174 10.224-11.286 12.149-15.336s.885-8.077-3.12-12.083c-3.696-3.696-7.48-4.824-11.352-3.385-3.851 1.461-9.195 5.61-16.033 12.448l-1.229 1.228c-6.883 6.882-11.066 12.149-12.547 15.801-1.483 3.651-.255 7.446 3.685 11.386 3.23 3.23 6.948 4.182 11.153 2.855 4.225-1.306 9.536-5.157 15.933-11.553zm54.647 73.701 33.915-24.64 6.678 9.191-57.311 41.637-4.028-5.545 15.171-54.832-36.004 26.158-6.677-9.19 57.31-41.638 5.021 6.912z" style="stroke-width: 9.81817px;"/><path fill="#eed000" stroke="#eed000" stroke-miterlimit="3.864" d="M1673.098 1398.951s3.906-4.294 5.173-1.16 1.536 5.806.452 6.977-.955 1.911-2.49 3.876c-1.534 1.965-.854 3.088-2.335 4.033s-2.161.519-3.793.433l-.664 4.873-1.062 4.073.612 3.918 2.784 6.23-2.123-4.669 2.972 5.094c2.25 5.935 23.638 11.897 31.387 15.364 16.131 7.216 13.608 41.517 15.307 44.913 1.698 3.396 8.489 48.816 8.489 56.457s-8.489 48.816-9.338 57.306c-.423 4.23-1.479 14.363-2.536 24.621-.209 2.027-3.119-.638-4.039 1.186-1.219 2.418-1.042 9.375-.753 11.677-.507 5.008-1.932 8.902-2.163 11.448-.849 9.339-9.455 10.211-9.455 10.211s-.306 31.94-2.004 39.58c-1.698 7.641-2.853 9.096-.306 30.321s-3.396 47.543-3.396 47.543-8.767 38.694-10.465 44.637 1.126 11.396 1.975 15.64c.849 4.245.849 11.037.849 11.037h-74.647c-1.898 0 1.311-6.715 3.82-11.461 1.162-2.198 4.669-5.518 9.763-6.367s5.518-6.367 8.49-13.159c2.971-6.792 1.698-21.224-.849-30.139s-5.943-30.563-5.943-38.204-4.213-25.045-8.458-36.931c-4.245-11.885-6.367-37.779-6.367-40.326 0-1.111-.485-2.545-1.384-4.796-1.162-2.908-1.349-7.181-3.741-13.882-4.245-11.885-3.852-26.318-4.276-38.628s-5.094-25.894-7.245-28.904l-1.313-5.318-13.092 4.083-12.657 9.911c-2.787 2.519-5.826 2.939-10.944 3.396-9.909.885-19.817-10.743-22.142-27.55-2.569-18.578 1.101-26.54 21.775-26.476l9.187.02 7.984.266H1578s2.318 4.523-1.288 6.119c-3.605 1.596-4.635 1.862-4.635 1.862l4.613 5.282c-.086.01 2.499-1.738 10.188-5.943l2.865-6.686c.212-4.245.531-5.2-.318-9.869s-2.497-31.513-2.497-37.88.185-13.9.833-21.25c.59-6.686.5-21.587 3.75-27.917 4.032-7.853 25.833-11.25 25.833-11.25s9.435-1.033 10.708-3.581c.475-.949 2.845-5.021 3.853-6.611-6.068-2.154-8.059-9.613-8.947-11.429-.924-1.889-2.547-10.613-2.759-11.461-.313-1.253-2.214-9.138-3.278-12.261-1.063-3.123-.16-8.814-.16-8.814l-6.905-.759-8.351-.642s-4.669-.654-5.871-1.125c-1.202-.472-5.249-1.298-5.249-1.298s-6.634-5.682-.055-10.245 14.313-8.793 15.579-9.545 1.773-2.002 1.773-2.002l-.118-1.642c-1.514-2.329-2.985-5.474-4.876-12.321-1.89-6.847 16.079-9.705 16.079-9.705 5.198-.446 22.627 1.861 20.833 1.465 3.639.804 6.019.674 12.974.63 6.955-.04 16.025 2.476 21.081 3.559s10.211 5.763 12.82 10.604c2.609 4.84 13.172 10.963 16.286 13.989 4.711 4.579 10.31 14.174 12.465 17.678 3.769 6.128-.296 4.665-1.562 5.417-5.89 3.496-38.687-3.9-35.828-3.545 2.348.292 1.797-.544-.74-1.913l-.017 2.313-1.91 7.216z" style="stroke-width: 9.81817px;"/></g><path fill="none" stroke="#002d56" stroke-miterlimit="3.864" d="M 151.689 165.642 C 151.785 163.71 151.918 162.118 152.161 160.879 C 152.239 160.478 152.161 160.289 152.161 160.289 C 151.742 160.277 151.461 160.239 151.027 159.638"/><path fill="none" stroke="#002d56" stroke-miterlimit="3.864" d="M 149.037 186.71 L 149.13 185.91 C 149.13 185.91 149.337 185.452 149.258 184.556 C 149.179 183.66 149.258 181.16 149.455 179.887 C 149.641 178.681 151.217 174.934 151.375 173.943 C 151.51 173.089 151.532 170.218 151.532 169.982 C 151.532 169.903 151.454 169.631 151.493 168.567"/><path fill="none" d="M 147.717 176.863 C 147.916 177.198 148.348 178.708 148.388 180.074 C 148.427 181.442 148.236 183.047 148.629 184.367 C 148.851 185.111 149.022 185.587 149.13 185.909 C 149.213 186.159 149.567 186.319 149.567 186.442 C 149.567 186.726 149.763 189.602 150.156 190.923 C 150.549 192.243 150.785 194.178 150.785 195.027 C 150.785 195.876 151.1 198.281 151.335 199.271 C 151.571 200.262 151.689 201.866 151.414 202.62 C 151.139 203.374 151.062 203.841 150.628 204.082 C 150.294 204.268 150.132 204.348 149.87 204.731 C 149.555 205.192 149.194 206.063 149.37 206.063 L 155.973 206.063 C 155.973 206.063 155.973 205.309 155.895 204.837 C 155.816 204.366 155.344 203.704 155.502 203.044 C 155.659 202.384 156.681 198.139 156.681 198.139 C 156.681 198.139 157.231 195.214 156.995 192.857 C 156.759 190.498 156.681 190.498 156.838 189.65 C 156.995 188.8 157.166 185.414 157.166 185.414 C 157.166 185.414 158.399 185.017 158.478 183.98 C 158.556 182.942 159.039 179.461 159.118 178.518 C 159.196 177.574 159.982 173 159.982 172.151 C 159.982 171.302 159.353 166.256 159.196 165.878 C 159.039 165.501 159.196 162.577 157.703 161.774 C 156.985 161.39 155.081 159.84 154.873 159.181 L 154.598 158.614"/><path fill="none" stroke="#002d56" stroke-linejoin="round" stroke-miterlimit="3.864" d="M 151.103 159.153 L 150.746 159.888 C 150.746 159.888 147.736 160.663 147.362 161.536 C 147.061 162.239 146.938 166.291 146.938 166.999 C 146.938 167.707 147.09 170.689 147.169 171.208 C 147.248 171.727 147.218 171.832 147.199 172.304"/><path fill="none" stroke="#002d56" stroke-miterlimit="3.864" d="M 152.829 170.972 C 152.868 171.349 152.787 173.766 153.615 175.311 C 153.969 175.971 155.515 179.568 155.855 180.028 C 156.059 180.303 156.583 180.41 156.715 180.784 C 157.398 182.721 156.676 184.627 157.641 184.904 L 157.911 186.016"/><path fill="none" stroke="#002d56" stroke-miterlimit="3.864" d="M 154.979 159.118 C 154.815 159.39 153.716 160.182 153.069 160.182 C 152.833 160.182 152.973 160.761 152.868 161.444 C 152.758 162.164 152.75 166.256 152.829 166.774 C 152.861 166.986 152.799 167.092 152.79 167.764"/><path d="M 156.004 164.176 L 156.406 166.067 L 156.956 169.557 L 157.152 171.68 L 157.192 173.567 L 157.152 175.17 L 156.995 176.302 L 156.799 177.34 L 156.445 180.736 C 157.585 180.406 158.335 180.726 158.882 181.254" style="fill: none; stroke: rgb(0, 45, 86); stroke-linecap: round; stroke-linejoin: round; stroke-miterlimit: 3.8637;"/><path fill="none" stroke="#002d56" stroke-miterlimit="3.864" d="M 148.481 160.703 L 148.558 161.027 C 148.451 160.316 150.353 170.407 156.838 175.123 L 157.152 175.359"/><path fill="none" stroke="#002d56" stroke-miterlimit="3.864" d="M 149.754 160.287 C 150.435 162.883 152.475 169.377 157.133 172.764 L 157.192 173.237 M 150.735 175.738 C 151.931 176.039 152.702 176.039 153.783 175.691 M 152.607 183.088 C 152.842 185.048 153.133 187.389 153.222 187.763 C 153.379 188.423 153.536 191.724 153.536 191.724 L 153.615 194.932 L 153.694 198.988 L 153.694 203.704 C 153.048 204.247 152.709 205.056 152.677 206.131"/><path fill="none" stroke="#002d56" stroke-linejoin="round" stroke-miterlimit="3.864" d="M 146.141 172.996 C 145.74 173.72 143.759 172.346 143.659 174.397 C 143.581 175.972 143.836 177.754 145.106 177.95 L 146.041 177.208 L 146.291 176.907"/><path fill="#eed000" fill-rule="evenodd" d="M 144.962 172.156 C 144.418 161.917 144.671 152.947 146.086 146.154 C 142.276 152.792 143.843 172.162 143.843 172.162 L 144.962 172.156 Z"/><path fill="none" stroke="#002d56" stroke-linejoin="round" stroke-miterlimit="3.864" d="M 147.208 172.151 L 146.933 173.048 C 146.221 173.514 146.001 173.539 146.009 173.539"/><path fill="none" stroke="#002d56" stroke-linejoin="round" stroke-miterlimit="3.864" d="M 145.914 173.318 C 145.914 173.318 146.612 175.546 146.041 177.208"/><path fill="none" stroke="#002d56" stroke-linejoin="round" stroke-miterlimit="3.864" d="M 144.982 172.213 L 145.754 172.234 L 146.111 172.234 C 146.111 172.234 146.326 172.737 145.992 172.913 C 145.658 173.091 145.43 173.088 145.43 173.088"/><path fill="none" stroke="#002d56" stroke-miterlimit="3.864" d="M 145.211 177.828 C 144.953 178.108 144.672 178.154 144.198 178.204 C 143.28 178.303 142.363 177.011 142.148 175.143 C 141.91 173.08 142.139 172.22 143.843 172.162"/><path fill="none" stroke="#002d56" stroke-miterlimit="3.864" d="M 145.507 173.069 L 144.284 173.069 C 144.284 173.069 143.634 173.276 143.605 173.911 C 143.558 174.922 143.543 176.351 143.906 176.913 L 144.268 177.362"/><path fill="none" stroke="#002d56" stroke-miterlimit="3.864" d="M 149.703 153.353 L 149.809 154.118 L 149.658 154.446 L 148.997 154.393 L 148.222 154.362 C 148.222 154.362 147.788 154.312 147.675 154.266 C 147.561 154.219 147.184 154.147 147.184 154.147 C 147.184 154.147 146.623 153.257 147.213 152.718 C 147.803 152.18 148.411 151.801 148.525 151.711 C 148.639 151.621 148.696 151.644 148.696 151.644"/><path fill="none" stroke="#002d56" stroke-miterlimit="3.864" d="M 149.696 153.52 L 149.696 154.383" clip-rule="evenodd"/><path fill="none" stroke="#002d56" stroke-miterlimit="3.864" d="M 149.8 154.162 C 149.8 154.162 149.617 154.901 149.715 155.248 C 149.814 155.594 149.99 156.471 150.019 156.61 C 150.038 156.704 150.189 157.674 150.274 157.883 C 150.36 158.093 150.556 158.981 151.172 159.18 C 151.788 159.378 152.476 159.239 152.868 158.922"/><path fill="none" stroke="#002d56" stroke-miterlimit="3.864" d="M 150.993 157.452 C 150.993 157.452 151.293 157.321 151.395 157.372 C 151.497 157.424 151.788 157.466 151.788 157.466 C 151.788 157.466 152.152 157.386 152.273 157.428 C 152.394 157.469 152.587 157.47 152.645 157.462 M 151.257 157.919 C 151.257 157.919 151.973 158.087 152.273 157.936 M 152.249 154.232 C 152.249 154.232 152.895 153.914 153.46 154.416"/><path fill="none" stroke="#002d56" stroke-miterlimit="3.864" d="M 151.428 154.186 C 151.477 154.348 151.381 154.819 151.297 155.007 C 151.213 155.194 151.189 155.533 151.135 155.678 C 151.082 155.822 151.014 156.068 151.018 156.204 C 151.021 156.341 151.022 156.33 151.197 156.443 C 151.372 156.557 151.495 156.459 151.63 156.41 C 151.764 156.362 151.884 156.316 152.005 156.358 C 152.126 156.399 152.302 156.286 152.299 156.138 C 152.296 155.989 152.258 155.771 152.176 155.687 C 152.095 155.602 151.921 155.466 151.921 155.466"/><path fill="none" stroke="#002d56" stroke-miterlimit="3.864" d="M 150.221 154.28 C 150.319 154.263 150.939 153.846 151.453 154.276"/><ellipse cx="-1652.3" cy="-1364.4" fill="#002d56" stroke="#002d56" stroke-miterlimit="3.864" rx="0.424" ry="0.126" transform="matrix(-0.999779, -0.021004, 0.014586, -0.999914, -1481.307006, -1244.19865)"/><path fill="none" stroke="#002d56" stroke-miterlimit="3.864" d="M 151.103 159.153 C 151.125 159.163 151.148 159.172 151.172 159.18 C 151.788 159.377 152.476 159.239 152.868 158.922"/><path fill="none" stroke="#002d56" stroke-miterlimit="3.864" d="M 149.586 148.796 C 149.586 148.796 147.975 149.369 148.177 150.119 C 148.38 150.87 148.529 151.212 148.678 151.463 C 148.827 151.714 149.123 152.692 149.215 152.966 C 149.308 153.239 149.252 153.737 149.627 153.514 C 151.759 152.256 156.349 154.434 155.361 154.34 C 155.096 154.314 158.332 155.117 158.863 154.7 C 158.977 154.611 159.205 154.431 158.832 153.77 C 158.619 153.391 157.969 152.399 157.515 151.913 C 157.215 151.593 156.344 150.909 156.083 150.384 C 155.822 149.86 155.196 149.421 154.724 149.326 C 154.252 149.23 153.403 148.994 152.76 149.033 C 152.117 149.071 151.929 149.002 151.589 148.93 C 151.756 148.966 150.065 148.721 149.586 148.796 Z"/><path fill="none" stroke="#002d56" stroke-miterlimit="3.864" d="M 153.474 189.534 C 153.474 189.534 155.172 190.784 157.178 189.488 C 159.047 188.28 157.525 189.257 157.525 189.257 M 149.462 189.812 C 149.462 189.812 151.34 190.878 153.269 189.674"/><ellipse cx="-1787.1" cy="-1213.4" fill="#002d56" stroke="#002d56" stroke-miterlimit="3.864" rx="0.446" ry="0.132" transform="matrix(-0.992129, -0.125216, 0.087372, -0.996906, -1514.223269, -1278.568684)"/><path fill="none" stroke="#002d56" stroke-miterlimit="3.864" d="M 150.349 177.034 C 151.487 177.543 153.243 177.404 154.342 176.988"/><path fill="#eed000" fill-rule="evenodd" stroke="#002d56" stroke-miterlimit="3.864" d="M 164.799 203.798 L 180.405 203.798 L 180.405 206.324 L 164.799 206.324 L 164.799 203.798 Z"/><path fill="#b50027" d="M 0 320 L 640 320 L 640 480 L 0 480 L 0 320 Z"/></svg>