<svg xmlns="http://www.w3.org/2000/svg" viewBox="0 0 640 480"><rect width="320" height="60" x="320" y="0" fill="#fff"/><rect width="320" height="60" x="320" y="60" fill="#cf142b"/><rect width="320" height="60" x="320" y="120" fill="#00247d"/><rect width="320" height="60" x="320" y="180" fill="#fff"/><rect width="640" height="60" x="0" y="240" fill="#cf142b"/><rect width="640" height="60" x="0" y="300" fill="#00247d"/><rect width="640" height="60" x="0" y="360" fill="#fff"/><rect width="640" height="60" x="0" y="420" fill="#cf142b"/><path fill="#00247d" d="M 0 0 L 320 0 L 320 240 L 0 240 L 0 0 Z"/><path fill="#fff" d="M 37.5 0 L 159.5 90.5 L 281 0 L 320 0 L 320 31 L 200 120.5 L 320 209.5 L 320 240 L 280 240 L 160 150.5 L 40.5 240 L 0 240 L 0 210 L 119.5 121 L 0 32 L 0 0 L 37.5 0 Z"/><path fill="#cf142b" d="M 212 140.5 L 320 220 L 320 240 L 184.5 140.5 L 212 140.5 Z M 120 150.5 L 123 168 L 27 240 L 0 240 L 120 150.5 Z M 320 0 L 320 1.5 L 195.5 95.5 L 196.5 73.5 L 295 0 L 320 0 Z M 0 0 L 119.5 88 L 89.5 88 L 0 21 L 0 0 Z"/><path fill="#fff" d="M 120.5 0 L 120.5 240 L 200.5 240 L 200.5 0 L 120.5 0 Z M 0 80 L 0 160 L 320 160 L 320 80 L 0 80 Z"/><path fill="#cf142b" d="M 0 96.5 L 0 144.5 L 320 144.5 L 320 96.5 L 0 96.5 Z M 136.5 0 L 136.5 240 L 184.5 240 L 184.5 0 L 136.5 0 Z"/></svg>