<svg xmlns="http://www.w3.org/2000/svg" viewBox="0 0 640 480"><defs><path d="M0,215 a32 32 0 0 0 32 -32 v-16 h31 a32 32 0 0 0 0 -64 h-31 V32 H231 v31 a32 32 0 0 0 64 0 v-31 h28 a32 32 0 0 0 32 -32 L0,0 z" transform="scale(.024)"/></defs><path d="M 0 0 L 640 0 L 640 480 L 0 480 L 0 0 Z"/><path fill="#eaaa00" d="M 0 480 L 0 40 L 53.333 80 L 53.333 480 L 106.667 480 L 106.667 0 L 160 0 L 160 480 L 213.333 480 L 213.333 0 L 266.667 0 L 266.667 480 L 320 480 L 320 0 L 373.333 0 L 373.333 480 L 426.667 480 L 426.667 0 L 480 0 L 480 480 L 533.333 480 L 533.333 0 L 586.667 0 L 586.667 480 L 640 480 L 640 440 L 53.333 0 L 53.333 80 L 586.667 480 L 0 480 Z"/><g transform="matrix(17.777779, 0, 0, 20, 0, 0)"><path fill="#fff" d="M18,0 h9 v12 h9 v-6 h-18 z"/><path fill="#9d2235" d="M27,0 h9 v6 h-18 v6 h9 z"/><g transform="translate(27,6)"><path fill="#9d2235" d="M0,215 a32 32 0 0 0 32 -32 v-16 h31 a32 32 0 0 0 0 -64 h-31 V32 H231 v31 a32 32 0 0 0 64 0 v-31 h28 a32 32 0 0 0 32 -32 L0,0 z" transform="matrix(0.024000002071261406, 0, 0, 0.024000002071261406, 0, 0)"/><path fill="#fff" d="M0,215 a32 32 0 0 0 32 -32 v-16 h31 a32 32 0 0 0 0 -64 h-31 V32 H231 v31 a32 32 0 0 0 64 0 v-31 h28 a32 32 0 0 0 32 -32 L0,0 z" transform="matrix(-0.024000002071261406, 0, 0, 0.024000002071261406, 0, 0)"/><path fill="#fff" d="M0,215 a32 32 0 0 0 32 -32 v-16 h31 a32 32 0 0 0 0 -64 h-31 V32 H231 v31 a32 32 0 0 0 64 0 v-31 h28 a32 32 0 0 0 32 -32 L0,0 z" transform="matrix(0.024000002071261406, 0, 0, -0.024000002071261406, 0, 0)"/><path fill="#9d2235" d="M0,215 a32 32 0 0 0 32 -32 v-16 h31 a32 32 0 0 0 0 -64 h-31 V32 H231 v31 a32 32 0 0 0 64 0 v-31 h28 a32 32 0 0 0 32 -32 L0,0 z" transform="matrix(-0.024000002071261406, 0, 0, -0.024000002071261406, 0, 0)"/></g></g><g transform="matrix(17.777779, 0, 0, 20, -320.000031, 240)"><path fill="#fff" d="M18,0 h9 v12 h9 v-6 h-18 z"/><path fill="#9d2235" d="M27,0 h9 v6 h-18 v6 h9 z"/><g transform="translate(27,6)"><path fill="#9d2235" d="M0,215 a32 32 0 0 0 32 -32 v-16 h31 a32 32 0 0 0 0 -64 h-31 V32 H231 v31 a32 32 0 0 0 64 0 v-31 h28 a32 32 0 0 0 32 -32 L0,0 z" transform="matrix(0.024000002071261406, 0, 0, 0.024000002071261406, 0, 0)"/><path fill="#fff" d="M0,215 a32 32 0 0 0 32 -32 v-16 h31 a32 32 0 0 0 0 -64 h-31 V32 H231 v31 a32 32 0 0 0 64 0 v-31 h28 a32 32 0 0 0 32 -32 L0,0 z" transform="matrix(-0.024000002071261406, 0, 0, 0.024000002071261406, 0, 0)"/><path fill="#fff" d="M0,215 a32 32 0 0 0 32 -32 v-16 h31 a32 32 0 0 0 0 -64 h-31 V32 H231 v31 a32 32 0 0 0 64 0 v-31 h28 a32 32 0 0 0 32 -32 L0,0 z" transform="matrix(0.024000002071261406, 0, 0, -0.024000002071261406, 0, 0)"/><path fill="#9d2235" d="M0,215 a32 32 0 0 0 32 -32 v-16 h31 a32 32 0 0 0 0 -64 h-31 V32 H231 v31 a32 32 0 0 0 64 0 v-31 h28 a32 32 0 0 0 32 -32 L0,0 z" transform="matrix(-0.024000002071261406, 0, 0, -0.024000002071261406, 0, 0)"/></g></g></svg>