<svg xmlns="http://www.w3.org/2000/svg" viewBox="0 0 640 480"><path fill="#52c9e8" d="M 0 0 L 640 0 L 640 480 L 0 480 L 0 0 Z"/><path fill="#002d5d" d="M 0 0 L 358.399 0 L 249.599 240 L 358.399 480 L 0 480 L 0 0 Z"/><g fill="#fff" transform="matrix(0.639998, 0, 0, 0.8, 0, 0)"><g><path d="m210 190 v90 l45 20 45-20z" transform="rotate(22.5 210 190)"/><path d="m210 190 v90 l45 20 45-20z" transform="matrix(-0.9238795325112867, -0.3826834323650898, 0.3826834323650898, -0.9238795325112867, 331.30484967800317, 665.9006319738133)"/></g><g transform="matrix(0.7071067811865476, 0.7071067811865476, -0.7071067811865476, 0.7071067811865476, 273.6396103067893, -60.62445840513925)"><path d="m210 190 v90 l45 20 45-20z" transform="rotate(22.5 210 190)"/><path d="m210 190 v90 l45 20 45-20z" transform="matrix(-0.9238795325112867, -0.3826834323650898, 0.3826834323650898, -0.9238795325112867, 331.30484967800317, 665.9006319738133)"/></g><g transform="matrix(-0.7071067811865476, 0.7071067811865476, -0.7071067811865476, -0.7071067811865476, 570.6244584051392, 363.6396103067893)"><path d="m210 190 v90 l45 20 45-20z" transform="rotate(22.5 210 190)"/><path d="m210 190 v90 l45 20 45-20z" transform="matrix(-0.9238795325112867, -0.3826834323650898, 0.3826834323650898, -0.9238795325112867, 331.30484967800317, 665.9006319738133)"/></g><g transform="matrix(0, -1, 1, 0, -90, 510)"><path d="m210 190 v90 l45 20 45-20z" transform="rotate(22.5 210 190)"/><path d="m210 190 v90 l45 20 45-20z" transform="matrix(-0.9238795325112867, -0.3826834323650898, 0.3826834323650898, -0.9238795325112867, 331.30484967800317, 665.9006319738133)"/></g></g></svg>