<svg xmlns="http://www.w3.org/2000/svg" viewBox="0 0 640 480"><path fill="#ba0c2f" d="M 0 0 L 640 0 L 640 480 L 0 480 L 0 0 Z"/><path fill="#d69a2d" d="M 133.333 0 L 506.667 0 L 506.667 480 L 133.333 480 L 133.333 0 Z"/><path fill="#041e42" d="M 160 0 L 480 0 L 480 480 L 160 480 L 160 0 Z"/><path fill="#d69a2d" d="M 304.64 90.522 L 315.145 90.522 L 318.4 96.098 L 313.156 98.256 L 304.64 90.522 M 334.848 90.522 L 324.343 90.522 L 321.088 96.098 L 326.332 98.256 L 334.848 90.522 M 319.758 76.816 L 322.944 89.242 L 319.728 94.816 L 316.544 89.28 L 319.758 76.816 M 329.003 112.656 L 320.576 105.049 L 320.576 98.176 L 325.787 100.322 L 329.003 112.656 M 310.507 112.656 L 318.933 105.049 L 318.933 98.176 L 313.723 100.322 L 310.507 112.656"/><path fill="#fff" d="M 214.02 149.433 L 221.264 152.449 L 225.819 144.787 L 225.769 154.284 L 232.985 157.336 L 225.698 160.244 L 225.62 169.74 L 221.186 161.98 L 213.927 164.893 L 218.453 157.193 L 214.02 149.433 M 199.502 181.327 L 207.1 182.236 L 210.149 173.516 L 211.824 182.8 L 219.419 183.78 L 212.825 188.576 L 214.528 197.862 L 208.772 191.593 L 202.149 196.387 L 205.255 187.671 L 199.502 181.327 M 199.84 205.824 L 203.172 214.44 L 210.732 213.14 L 205.257 219.758 L 208.592 228.3 L 201.863 223.784 L 196.329 230.398 L 197.668 221.058 L 190.939 216.542 L 198.469 215.238 L 199.84 205.824 M 188.965 252.731 L 196.11 249.311 L 195.74 239.776 L 200.544 247.229 L 207.66 243.809 L 203.5 251.784 L 208.334 259.238 L 200.914 256.764 L 196.725 264.738 L 196.356 255.202 L 188.965 252.731 M 193.388 289.051 L 199.746 283.722 L 197.62 274.547 L 203.675 280.442 L 210.032 275.116 L 207.396 284.056 L 213.422 289.913 L 205.772 289.618 L 203.164 298.522 L 201.036 289.42 L 193.388 289.051 M 205.867 307.949 L 212.78 312.053 L 218.078 305.187 L 217.045 314.604 L 223.929 318.747 L 216.409 320.469 L 215.346 329.922 L 211.778 321.544 L 204.226 323.231 L 209.495 316.327 L 205.867 307.949 M 219.902 338.053 L 227.301 340.269 L 231.276 332.12 L 231.916 341.609 L 239.342 343.787 L 232.315 347.469 L 232.956 356.996 L 227.94 349.72 L 220.914 353.44 L 224.889 345.327 L 219.902 338.053 M 285.097 88.216 L 289.298 96.153 L 296.695 93.667 L 291.906 101.136 L 296.108 109.036 L 288.924 105.667 L 284.164 113.138 L 284.478 103.62 L 277.323 100.253 L 284.722 97.767 L 285.097 88.216 M 257.822 101.653 L 263.34 108.28 L 270.052 103.782 L 266.722 112.38 L 272.242 118.969 L 264.681 117.66 L 261.349 126.293 L 259.979 116.913 L 252.418 115.602 L 259.189 111.109 L 257.822 101.653 M 246.276 121.293 L 244.423 130.591 L 250.923 135.602 L 243.324 136.331 L 241.472 145.593 L 238.594 136.751 L 230.964 137.478 L 236.825 131.282 L 233.947 122.442 L 240.416 127.489 L 246.276 121.293 M 425.98 149.433 L 418.736 152.449 L 414.181 144.787 L 414.229 154.284 L 407.015 157.336 L 414.302 160.244 L 414.38 169.74 L 418.814 161.98 L 426.073 164.893 L 421.547 157.193 L 425.98 149.433 M 440.498 181.327 L 432.9 182.236 L 429.851 173.516 L 428.176 182.8 L 420.581 183.78 L 427.175 188.576 L 425.472 197.862 L 431.229 191.593 L 437.851 196.387 L 434.745 187.671 L 440.498 181.327 M 440.16 205.824 L 436.829 214.44 L 429.268 213.14 L 434.743 219.758 L 431.408 228.3 L 438.137 223.784 L 443.671 230.398 L 442.333 221.058 L 449.061 216.542 L 441.531 215.238 L 440.16 205.824 M 451.035 252.731 L 443.89 249.311 L 444.26 239.776 L 439.456 247.229 L 432.34 243.809 L 436.5 251.784 L 431.666 259.238 L 439.086 256.764 L 443.275 264.738 L 443.645 255.202 L 451.035 252.731 M 446.612 289.051 L 440.254 283.722 L 442.381 274.547 L 436.325 280.442 L 429.968 275.116 L 432.605 284.056 L 426.578 289.913 L 434.228 289.618 L 436.836 298.522 L 438.964 289.42 L 446.612 289.051 M 434.133 307.949 L 427.22 312.053 L 421.922 305.187 L 422.955 314.604 L 416.071 318.747 L 423.591 320.469 L 424.654 329.922 L 428.222 321.544 L 435.774 323.231 L 430.505 316.327 L 434.133 307.949 M 420.098 338.053 L 412.699 340.269 L 408.724 332.12 L 408.084 341.609 L 400.658 343.787 L 407.685 347.469 L 407.044 356.996 L 412.06 349.72 L 419.086 353.44 L 415.111 345.327 L 420.098 338.053 M 354.903 88.216 L 350.702 96.153 L 343.305 93.667 L 348.094 101.136 L 343.892 109.036 L 351.076 105.667 L 355.836 113.138 L 355.522 103.62 L 362.677 100.253 L 355.278 97.767 L 354.903 88.216 M 382.178 101.653 L 376.66 108.28 L 369.948 103.782 L 373.278 112.38 L 367.758 118.969 L 375.319 117.66 L 378.651 126.293 L 380.021 116.913 L 387.582 115.602 L 380.811 111.109 L 382.178 101.653 M 393.723 121.293 L 395.577 130.591 L 389.077 135.602 L 396.676 136.331 L 398.528 145.593 L 401.406 136.751 L 409.036 137.478 L 403.175 131.282 L 406.053 122.442 L 399.584 127.489 L 393.723 121.293 M 240.99 368.227 C 241.035 368.156 241.088 368.071 241.14 367.989 C 241.582 368.058 242.027 367.916 242.457 367.529 C 242.884 367.178 243.556 366.258 244.478 364.791 C 244.62 364.567 244.763 364.34 244.905 364.113 C 245.916 362.504 246.93 360.898 247.948 359.278 C 248.263 358.778 248.439 358.409 248.475 358.176 C 248.501 357.951 248.457 357.696 248.332 357.418 C 248.386 357.336 248.437 357.251 248.484 357.18 C 248.93 357.658 249.268 358.011 249.492 358.249 C 249.716 358.489 249.915 358.704 250.112 358.898 C 250.308 359.091 250.523 359.282 250.761 359.498 C 250.999 359.713 251.342 360.031 251.819 360.46 C 251.774 360.531 251.721 360.616 251.669 360.7 C 251.436 360.624 251.227 360.631 251.06 360.718 C 250.885 360.816 250.642 361.116 250.327 361.616 C 249.164 363.462 248.011 365.296 246.857 367.131 C 245.934 368.596 245.378 369.629 245.193 370.218 C 245.004 370.844 244.999 371.418 245.157 371.938 C 245.106 372.022 245.052 372.104 245.008 372.176 C 244.722 371.858 244.407 371.527 244.091 371.198 C 243.764 370.858 243.417 370.516 243.036 370.142 C 242.656 369.767 242.309 369.427 241.966 369.109 C 241.636 368.804 241.305 368.498 240.99 368.227 M 252.94 365.4 C 252.277 366.671 251.612 367.94 250.948 369.211 C 249.89 371.229 249.303 372.653 249.163 373.464 C 249.022 374.273 249.141 375.024 249.515 375.729 C 249.468 375.818 249.422 375.907 249.381 375.982 C 249.147 375.756 248.882 375.52 248.617 375.284 C 248.35 375.049 248.053 374.807 247.732 374.542 C 247.41 374.28 247.1 374.027 246.821 373.818 C 246.532 373.598 246.265 373.398 245.991 373.211 C 246.03 373.133 246.078 373.044 246.124 372.956 C 246.77 373.14 247.374 372.998 247.911 372.513 C 248.436 372.018 249.252 370.762 250.329 368.704 C 251.006 367.409 251.684 366.113 252.363 364.818 C 252.775 364.031 252.974 363.413 252.992 362.976 C 253.003 362.549 252.837 362.087 252.528 361.598 C 252.567 361.522 252.608 361.444 252.642 361.382 C 252.777 361.493 253.074 361.736 253.531 362.147 C 253.982 362.533 254.322 362.829 254.581 363.042 C 254.731 363.162 254.948 363.322 255.22 363.544 C 255.499 363.756 255.716 363.913 255.84 364.016 C 256.084 367.498 256.398 370.984 256.636 374.48 C 256.855 374.06 257.076 373.64 257.287 373.233 C 258.357 371.189 258.944 369.764 259.092 368.978 C 259.225 368.182 259.086 367.433 258.718 366.751 C 258.766 366.662 258.812 366.573 258.859 366.484 C 259.051 366.66 259.266 366.853 259.5 367.047 C 259.73 367.251 260.076 367.536 260.546 367.92 C 261.017 368.304 261.364 368.587 261.605 368.767 C 261.828 368.949 262.057 369.118 262.261 369.267 L 262.123 369.533 C 261.463 369.34 260.86 369.482 260.316 369.98 C 259.772 370.478 258.969 371.744 257.911 373.762 C 256.722 376.036 255.532 378.311 254.348 380.571 C 254.238 380.48 254.139 380.398 254.039 380.318 C 253.719 375.358 253.275 370.369 252.94 365.4 M 275.895 384.951 C 275.886 385.029 275.863 385.1 275.84 385.169 C 275.445 385.164 275.099 385.347 274.816 385.776 C 274.537 386.191 274.121 387.173 273.609 388.744 C 273.548 388.927 273.484 389.122 273.424 389.304 C 273.351 389.529 273.278 389.753 273.2 389.993 C 272.354 390.249 271.504 390.322 270.67 390.24 C 269.835 390.173 269.026 389.924 268.235 389.522 C 267.458 389.127 266.814 388.618 266.311 387.967 C 265.803 387.331 265.413 386.578 265.161 385.696 C 264.921 384.771 264.773 383.811 264.809 382.831 C 264.843 381.849 264.99 380.911 265.292 379.984 C 265.58 379.1 265.964 378.313 266.462 377.618 C 266.94 376.931 267.516 376.389 268.162 375.916 C 268.9 375.409 269.716 375.153 270.574 375.1 C 271.426 375.027 272.267 375.227 273.07 375.638 C 273.765 375.991 274.391 376.46 274.958 377.06 C 275.516 377.638 276.107 378.413 276.668 379.371 C 276.02 380.431 275.358 381.487 274.709 382.547 C 274.636 382.476 274.578 382.413 274.505 382.344 C 274.786 380.802 274.821 379.576 274.624 378.622 C 274.421 377.684 273.963 377.042 273.268 376.689 C 272.396 376.242 271.504 376.442 270.606 377.342 C 269.712 378.229 268.949 379.64 268.308 381.604 C 267.694 383.484 267.419 385.062 267.479 386.338 C 267.543 387.598 267.956 388.431 268.677 388.798 C 269.168 389.049 269.637 389.027 270.037 388.673 C 270.448 388.342 270.809 387.724 271.097 386.842 C 271.538 385.493 271.744 384.569 271.723 384.051 C 271.701 383.531 271.488 383.113 271.09 382.729 C 271.111 382.658 271.134 382.589 271.154 382.533 C 271.543 382.749 271.92 382.958 272.311 383.173 C 272.679 383.36 273.07 383.576 273.465 383.778 C 273.847 383.971 274.247 384.16 274.656 384.369 C 275.068 384.562 275.483 384.758 275.895 384.951 M 281.02 395.4 C 281.831 395.744 282.594 395.46 283.291 394.556 C 283.972 393.66 284.61 392.107 285.202 389.924 C 285.796 387.744 286.039 386.04 285.94 384.798 C 285.822 383.564 285.365 382.778 284.542 382.429 C 283.746 382.091 282.99 382.347 282.315 383.227 C 281.648 384.129 281.013 385.669 280.409 387.893 C 279.81 390.102 279.561 391.822 279.65 393.044 C 279.753 394.271 280.224 395.062 281.02 395.4 Z M 277.342 386.56 C 277.63 385.498 278.036 384.582 278.556 383.811 C 279.081 383.024 279.735 382.453 280.468 381.996 C 281.12 381.6 281.813 381.398 282.542 381.356 C 283.275 381.298 283.998 381.444 284.725 381.753 C 285.479 382.073 286.139 382.513 286.683 383.096 C 287.225 383.678 287.675 384.38 288.009 385.211 C 288.388 386.171 288.624 387.136 288.656 388.109 C 288.684 389.098 288.581 390.111 288.29 391.187 C 288.075 391.976 287.796 392.658 287.46 393.267 C 287.136 393.882 286.724 394.427 286.252 394.9 C 285.467 395.671 284.59 396.147 283.655 396.373 C 282.72 396.602 281.783 396.493 280.875 396.107 C 280.135 395.793 279.479 395.34 278.916 394.716 C 278.352 394.093 277.879 393.364 277.575 392.531 C 277.211 391.64 277.001 390.687 276.971 389.651 C 276.937 388.629 277.058 387.607 277.342 386.56 M 294.743 386.113 C 294.213 389.242 293.684 392.369 293.156 395.498 C 292.921 396.876 292.862 397.758 292.96 398.171 C 293.056 398.584 293.316 398.838 293.765 398.958 C 294.665 399.196 295.438 398.827 296.087 397.853 C 296.734 396.893 297.237 395.353 297.595 393.249 C 297.957 391.1 297.991 389.467 297.714 388.34 C 297.449 387.218 296.807 386.536 295.836 386.28 C 295.691 386.24 295.531 386.198 295.369 386.171 C 295.177 386.151 294.983 386.131 294.743 386.113 Z M 288.484 398.32 C 288.498 398.231 288.516 398.127 288.533 398.022 C 288.974 397.829 289.328 397.442 289.595 396.849 C 289.861 396.253 290.151 394.998 290.475 393.084 C 290.508 392.878 290.544 392.669 290.578 392.478 C 290.916 390.476 291.255 388.476 291.596 386.458 C 291.696 385.867 291.723 385.44 291.671 385.209 C 291.62 384.978 291.476 384.753 291.264 384.573 C 291.282 384.471 291.3 384.367 291.314 384.278 C 291.758 384.427 292.19 384.556 292.608 384.682 C 293.012 384.804 293.415 384.927 293.792 385.027 C 294.183 385.129 294.649 385.238 295.188 385.364 C 295.712 385.489 296.046 385.576 296.19 385.613 C 298.06 386.109 299.417 387.04 300.19 388.469 C 300.965 389.882 301.195 391.66 300.828 393.824 C 300.427 396.198 299.625 397.889 298.448 398.942 C 297.269 399.993 295.783 400.28 294.028 399.818 C 293.797 399.756 293.381 399.616 292.809 399.418 C 292.222 399.216 291.762 399.078 291.413 398.987 C 291.196 398.929 290.917 398.871 290.539 398.787 C 290.162 398.687 289.476 398.536 288.484 398.32 M 323.508 388.733 C 323.504 388.824 323.499 388.931 323.493 389.036 C 323.029 389.184 322.581 389.609 322.149 390.307 C 321.717 391.02 321.255 392.049 320.793 393.416 C 319.673 396.8 318.496 400.167 317.376 403.551 C 317.332 403.549 317.287 403.544 317.243 403.542 C 316.469 400.26 315.65 397.004 314.891 393.738 C 313.886 396.873 312.823 399.989 311.819 403.14 C 311.774 403.138 311.73 403.133 311.671 403.129 C 310.715 399.027 309.7 394.936 308.743 390.833 C 308.473 389.689 308.228 388.94 307.996 388.527 C 307.778 388.147 307.493 387.913 307.145 387.827 C 307.148 387.72 307.154 387.613 307.159 387.522 C 307.262 387.531 307.408 387.54 307.628 387.573 C 308.537 387.684 309.168 387.762 309.506 387.787 C 309.904 387.818 310.684 387.844 311.833 387.884 C 312.128 387.891 312.348 387.907 312.496 387.918 C 312.491 388.009 312.485 388.116 312.482 388.22 C 312.197 388.276 311.973 388.367 311.831 388.553 C 311.691 388.724 311.618 388.993 311.602 389.327 C 311.593 389.509 311.612 389.738 311.644 390 C 311.676 390.26 311.737 390.524 311.797 390.833 C 312.224 392.72 312.679 394.609 313.106 396.511 C 314.091 393.498 315.116 390.5 316.101 387.484 C 316.146 387.489 316.19 387.491 316.233 387.496 C 317.054 390.72 317.92 393.918 318.727 397.127 C 318.994 396.173 319.276 395.22 319.541 394.267 C 319.774 393.4 319.989 392.624 320.124 391.951 C 320.26 391.276 320.341 390.796 320.356 390.493 C 320.379 390.007 320.309 389.607 320.162 389.291 C 319.998 388.991 319.771 388.807 319.465 388.738 C 319.47 388.631 319.476 388.527 319.479 388.436 C 319.861 388.478 320.213 388.52 320.549 388.56 C 320.889 388.584 321.211 388.624 321.534 388.649 C 321.785 388.667 322.08 388.673 322.418 388.698 C 322.741 388.707 323.109 388.72 323.508 388.733 M 325.214 403.047 C 325.209 402.956 325.202 402.851 325.195 402.744 C 325.559 402.42 325.81 401.938 325.918 401.32 C 326.043 400.713 326.053 399.724 325.964 398.364 L 325.463 390.571 C 325.422 389.936 325.351 389.518 325.25 389.316 C 325.163 389.127 324.99 388.976 324.747 388.88 C 324.74 388.773 324.732 388.667 324.727 388.578 C 325.451 388.536 326.13 388.482 326.763 388.433 C 327.412 388.382 327.973 388.342 328.444 388.293 C 329.945 388.142 331.433 387.993 332.921 387.844 C 333.223 389.091 333.541 390.351 333.844 391.613 C 333.756 391.622 333.668 391.631 333.579 391.64 C 332.77 390.564 331.98 389.824 331.255 389.38 C 330.514 388.922 329.733 388.758 328.908 388.84 C 328.761 388.856 328.674 388.864 328.599 388.871 C 328.54 388.878 328.482 388.898 328.411 388.92 C 328.53 390.793 328.652 392.682 328.773 394.556 C 328.937 394.569 329.068 394.556 329.159 394.562 C 329.248 394.569 329.321 394.56 329.38 394.556 C 330.176 394.476 330.78 394.216 331.214 393.793 C 331.646 393.369 331.931 392.747 332.073 391.942 C 332.16 391.933 332.249 391.924 332.338 391.916 C 332.453 393.713 332.571 395.527 332.686 397.34 C 332.597 397.349 332.51 397.358 332.421 397.367 C 332.178 396.569 331.817 396.029 331.335 395.68 C 330.853 395.349 330.224 395.231 329.429 395.311 C 329.371 395.316 329.296 395.324 329.209 395.347 C 329.122 395.371 328.988 395.384 328.828 395.431 C 328.901 396.549 328.972 397.651 329.044 398.769 C 329.113 399.827 329.278 400.556 329.557 400.984 C 329.836 401.411 330.263 401.596 330.837 401.538 C 331.5 401.471 332.185 401.053 332.862 400.287 C 333.538 399.518 334.226 398.447 334.876 397.042 C 334.965 397.064 335.042 397.087 335.132 397.109 C 334.94 398.753 334.72 400.389 334.516 402.036 C 332.807 402.207 331.099 402.38 329.376 402.551 C 329.038 402.587 328.492 402.64 327.742 402.731 C 326.994 402.822 326.155 402.922 325.214 403.047 M 345.524 399.778 C 345.508 399.689 345.49 399.584 345.47 399.482 C 345.808 399.091 345.986 398.576 346.032 397.909 C 346.068 397.278 345.922 396.044 345.593 394.224 C 345.543 393.944 345.492 393.662 345.442 393.382 C 345.058 391.251 344.676 389.136 344.293 387.007 C 344.245 386.74 344.197 386.567 344.139 386.491 C 344.084 386.429 344.004 386.404 343.888 386.436 C 343.529 386.538 343.118 386.933 342.674 387.649 C 342.245 388.36 341.806 389.276 341.42 390.396 C 341.332 390.404 341.243 390.413 341.154 390.424 C 341.129 389.031 341.122 387.651 341.115 386.269 C 344.041 385.444 346.969 384.62 349.895 383.796 C 350.348 385.051 350.816 386.304 351.257 387.578 C 351.173 387.618 351.09 387.658 351.006 387.696 C 350.274 386.891 349.577 386.296 348.932 385.887 C 348.284 385.478 347.792 385.338 347.433 385.438 C 347.317 385.471 347.239 385.54 347.211 385.624 C 347.182 385.727 347.2 385.907 347.248 386.173 C 347.284 386.367 347.317 386.558 347.353 386.751 C 347.753 388.969 348.153 391.189 348.549 393.391 C 348.878 395.211 349.168 396.404 349.433 396.951 C 349.687 397.531 350.041 397.9 350.478 398.071 C 350.498 398.176 350.516 398.278 350.532 398.367 C 350.139 398.447 349.749 398.54 349.33 398.642 C 348.926 398.742 348.466 398.871 348.007 399 C 347.534 399.133 347.088 399.258 346.69 399.387 C 346.276 399.518 345.892 399.642 345.524 399.778 M 355.408 396.644 C 355.385 396.558 355.356 396.458 355.328 396.358 C 355.628 395.922 355.774 395.378 355.746 394.716 C 355.726 394.082 355.468 392.88 354.978 391.12 C 354.901 390.847 354.825 390.576 354.75 390.302 C 354.212 388.371 353.673 386.44 353.131 384.493 C 352.964 383.893 352.809 383.509 352.684 383.34 C 352.549 383.191 352.352 383.1 352.096 383.082 C 352.069 382.982 352.041 382.882 352.018 382.796 C 352.411 382.64 352.82 382.478 353.255 382.304 C 353.673 382.122 354.261 381.882 354.985 381.567 C 355.431 381.373 355.863 381.184 356.309 380.991 C 358.064 380.227 359.399 379.918 360.295 380.104 C 361.195 380.307 361.803 380.973 362.121 382.118 C 362.368 383.004 362.284 383.829 361.893 384.609 C 361.488 385.396 360.77 386.124 359.712 386.811 C 360.471 386.624 361.136 386.656 361.701 386.891 C 362.272 387.14 362.782 387.576 363.253 388.253 C 363.435 388.511 363.68 388.887 363.988 389.378 C 365.006 390.956 365.813 391.664 366.388 391.542 C 366.412 391.627 366.436 391.713 366.455 391.784 C 365.815 392.064 365.337 392.256 364.971 392.4 C 364.596 392.562 364.276 392.702 363.968 392.836 C 363.55 393.018 363.244 393.151 363.02 393.249 C 362.798 393.344 362.603 393.431 362.427 393.524 C 362.286 393.247 362.073 392.876 361.81 392.38 C 360.027 389.064 358.658 387.622 357.724 388.029 C 357.668 388.053 357.557 388.102 357.426 388.191 C 357.412 388.198 357.397 388.202 357.388 388.224 C 357.531 388.738 357.678 389.269 357.826 389.798 C 358.325 391.587 358.74 392.738 359.047 393.278 C 359.367 393.813 359.739 394.133 360.19 394.24 C 360.217 394.34 360.245 394.442 360.27 394.527 C 359.886 394.662 359.506 394.811 359.097 394.973 C 358.704 395.129 358.272 395.318 357.812 395.518 C 357.367 395.711 356.935 395.9 356.549 396.084 C 356.149 396.273 355.762 396.458 355.408 396.644 Z M 357.152 387.38 C 357.253 387.351 357.342 387.329 357.438 387.287 C 357.541 387.258 357.666 387.204 357.861 387.12 C 358.556 386.816 359.017 386.391 359.207 385.842 C 359.399 385.293 359.378 384.549 359.118 383.618 C 358.875 382.744 358.542 382.169 358.112 381.858 C 357.687 381.562 357.154 381.553 356.526 381.827 C 356.318 381.918 356.164 381.984 356.043 382.053 C 355.936 382.116 355.828 382.18 355.717 382.227 L 357.152 387.38 M 362.971 378.971 C 362.935 378.873 362.914 378.769 362.882 378.687 C 363.538 378.344 364.027 378.08 364.354 377.907 C 364.681 377.736 364.981 377.58 365.25 377.424 C 365.76 377.131 366.498 376.658 367.502 376.027 C 367.516 376.02 367.529 376.013 367.557 375.998 C 367.588 376.08 367.623 376.176 367.659 376.273 C 367.392 376.744 367.294 377.318 367.364 377.947 C 367.436 378.589 367.787 379.76 368.407 381.442 C 368.503 381.704 368.604 381.98 368.7 382.242 C 368.99 383.027 369.28 383.813 369.57 384.6 C 370.128 386.116 370.709 387.12 371.326 387.6 C 371.948 388.096 372.638 388.116 373.445 387.651 C 373.82 387.433 374.124 387.109 374.364 386.653 C 374.603 386.198 374.74 385.684 374.788 385.107 C 374.809 384.727 374.779 384.291 374.684 383.811 C 374.58 383.353 374.382 382.682 374.062 381.813 C 373.849 381.233 373.641 380.669 373.428 380.089 C 372.61 377.869 371.954 376.491 371.481 375.911 C 371.02 375.324 370.439 375.073 369.781 375.1 C 369.746 375.004 369.71 374.907 369.68 374.824 C 369.895 374.7 370.142 374.576 370.402 374.442 C 370.649 374.318 371.038 374.093 371.548 373.8 C 372.059 373.504 372.436 373.289 372.672 373.136 C 372.923 372.976 373.159 372.822 373.36 372.707 C 373.39 372.789 373.426 372.887 373.461 372.982 C 373.019 373.589 372.807 374.296 372.855 375.136 C 372.891 375.984 373.317 377.496 374.13 379.702 C 374.343 380.28 374.551 380.847 374.761 381.411 C 375.486 383.384 375.675 384.998 375.364 386.229 C 375.061 387.489 374.172 388.52 372.761 389.331 C 371.404 390.111 370.251 390.291 369.314 389.827 C 368.384 389.378 367.593 388.293 366.949 386.542 C 366.597 385.591 366.242 384.627 365.892 383.673 C 365.15 381.66 364.596 380.376 364.219 379.84 C 363.856 379.298 363.429 379.024 362.971 378.971 M 380.148 383.709 C 379.767 382.409 379.406 381.111 379.02 379.8 C 379.106 379.76 379.186 379.707 379.284 379.656 C 380.052 380.647 380.871 381.256 381.708 381.513 C 382.548 381.769 383.291 381.607 383.904 381.06 C 384.421 380.596 384.736 380 384.832 379.28 C 384.91 378.558 384.775 377.878 384.395 377.211 C 384.071 376.644 383.696 376.309 383.278 376.18 C 382.841 376.084 382.315 376.182 381.682 376.507 C 381.559 376.578 381.369 376.658 381.129 376.778 C 379.961 377.376 379.122 377.658 378.587 377.578 C 378.185 377.547 377.822 377.387 377.476 377.1 C 377.129 376.813 376.796 376.422 376.485 375.878 C 375.851 374.769 375.698 373.547 375.97 372.242 C 376.249 370.949 376.953 369.798 378.073 368.798 C 378.578 368.347 379.138 367.958 379.74 367.678 C 380.35 367.376 381.033 367.138 381.78 367.011 C 382.098 368.142 382.4 369.307 382.72 370.438 C 382.647 370.502 382.569 370.553 382.496 370.618 C 381.908 369.747 381.236 369.211 380.546 368.989 C 379.849 368.756 379.212 368.916 378.66 369.409 C 378.226 369.798 377.982 370.293 377.922 370.887 C 377.861 371.482 377.986 372.08 378.309 372.647 C 378.62 373.189 378.974 373.489 379.346 373.564 C 379.724 373.656 380.389 373.451 381.33 372.964 C 382.553 372.338 383.52 372.089 384.251 372.256 C 384.971 372.431 385.612 373.013 386.176 373.998 C 386.882 375.231 387.065 376.538 386.773 377.936 C 386.469 379.344 385.707 380.584 384.491 381.671 C 383.817 382.273 383.111 382.756 382.366 383.104 C 381.602 383.453 380.873 383.676 380.148 383.709 M 392.656 374.187 C 392.612 374.113 392.562 374.027 392.51 373.942 C 392.681 373.424 392.69 372.851 392.516 372.218 C 392.345 371.62 391.81 370.569 390.919 369.071 C 390.782 368.84 390.645 368.609 390.507 368.378 C 389.465 366.627 388.428 364.887 387.387 363.136 C 387.257 362.918 387.157 362.782 387.079 362.742 C 387.006 362.713 386.926 362.733 386.83 362.82 C 386.535 363.098 386.284 363.669 386.11 364.551 C 385.934 365.431 385.84 366.482 385.849 367.702 C 385.771 367.758 385.692 367.811 385.602 367.876 C 385.14 366.604 384.684 365.347 384.219 364.098 C 386.638 361.847 389.058 359.598 391.49 357.336 C 392.311 358.253 393.134 359.171 393.963 360.1 C 393.9 360.178 393.836 360.256 393.772 360.336 C 392.839 359.973 391.995 359.796 391.28 359.74 C 390.555 359.698 390.044 359.831 389.76 360.096 C 389.653 360.196 389.616 360.287 389.616 360.382 C 389.625 360.487 389.7 360.644 389.829 360.864 L 390.112 361.338 C 391.198 363.162 392.284 364.987 393.364 366.8 C 394.254 368.296 394.907 369.238 395.326 369.604 C 395.749 370.004 396.192 370.16 396.638 370.104 C 396.688 370.189 396.74 370.273 396.782 370.347 C 396.46 370.609 396.121 370.907 395.781 371.202 C 395.429 371.511 395.063 371.853 394.683 372.207 C 394.292 372.569 393.924 372.911 393.598 373.233 C 393.262 373.564 392.949 373.876 392.656 374.187 M 382.9 282.831 C 382.828 282.787 385.042 282.52 385.042 282.52 C 385.042 282.52 386.828 282.52 388.649 282.431 C 390.183 282.209 391.755 281.987 392.183 281.898 C 392.647 281.631 393.147 281.362 393.575 281.051 L 394.576 280.384 L 395.468 279.538 C 396.683 278.516 397.753 277.136 398.61 275.667 C 400.396 272.729 401.003 268.991 400.181 265.476 C 399.36 261.96 397.468 258.8 395.218 256.264 C 393.612 254.44 391.79 252.927 389.863 251.724 C 389.684 251.636 389.47 251.547 389.184 251.413 C 388.505 251.102 387.612 250.658 386.649 250.433 C 386.149 250.3 385.685 250.122 385.257 249.989 C 384.793 249.9 384.364 249.9 384.007 249.856 C 383.292 249.767 382.828 249.722 382.828 249.722 C 382.364 249.633 381.9 249.678 381.436 249.633 L 379.652 249.589 L 377.081 249.811 C 376.222 249.944 375.33 250.122 374.473 250.256 C 371.045 251.013 367.653 252.304 364.226 253.682 C 359.62 255.507 354.907 257.689 349.98 258.933 C 348.98 259.291 347.945 259.558 346.908 259.824 C 346.551 260.269 346.231 260.758 345.909 261.204 C 343.98 264.007 341.947 266.767 339.767 269.347 C 339.303 269.927 338.804 270.504 338.304 271.038 L 338.768 271.618 C 340.91 273.842 343.339 275.667 345.909 277.091 C 347.195 277.802 348.516 278.293 349.872 278.827 C 351.228 279.182 352.551 279.582 354.014 279.671 L 358.263 280.251 L 362.619 280.562 L 369.01 281.007 C 369.01 281.007 372.046 281.451 374.188 281.987 C 377.794 282.742 376.331 283.187 374.08 283.367 C 374.295 283.411 368.654 283.456 368.654 283.456 L 362.048 283.009 C 360.62 282.92 359.191 282.831 357.764 282.698 L 353.444 282.12 C 352.05 282.031 350.551 281.584 349.124 281.184 C 347.73 280.607 346.302 280.073 344.981 279.271 C 343.516 278.471 342.089 277.536 340.768 276.469 C 341.554 278.069 342.375 279.582 343.339 280.918 C 346.48 285.413 351.015 288.26 355.692 289.773 C 360.299 291.109 365.262 290.664 370.082 289.684 C 371.367 289.284 372.652 288.84 373.973 288.393 C 375.365 287.86 376.83 287.327 378.258 286.791 C 379.758 286.213 381.257 285.724 382.757 285.324 C 383.292 285.147 383.828 285.011 384.364 284.878 C 383.936 284.7 383.292 284.478 382.757 284.211 C 381.33 283.456 382.043 283.009 382.9 282.831 M 269.669 283.949 C 269.776 283.993 267.028 284.438 267.028 284.438 L 264.277 284.438 C 264.457 284.527 264.635 284.616 264.812 284.66 C 265.778 285.107 266.741 285.551 267.492 285.862 C 268.204 286.218 268.706 286.396 268.706 286.396 L 269.991 287.018 C 270.455 287.24 270.668 287.284 271.812 287.731 C 272.74 288.042 273.668 288.22 274.633 288.442 C 275.561 288.487 276.489 288.709 277.452 288.576 C 281.275 288.398 285.166 287.151 288.772 285.151 C 292.556 283.06 296.092 280.169 299.269 276.742 C 294.807 279.589 289.95 281.236 285.131 282.438 C 284.523 282.571 283.916 282.704 283.273 282.838 C 283.273 282.838 280.203 283.193 278.025 283.104 C 274.347 283.016 275.774 282.258 277.954 281.724 C 277.845 281.68 279.168 281.413 280.524 281.058 C 281.845 280.702 283.202 280.302 283.202 280.302 L 284.165 280.124 L 285.237 279.858 C 286.165 279.633 287.058 279.367 287.988 279.1 C 289.808 278.567 291.593 277.944 293.342 277.187 C 295.484 276.253 297.556 275.098 299.52 273.762 C 299.234 273.407 298.949 273.051 298.699 272.696 C 297.627 271.182 296.663 269.627 295.771 268.069 C 295.307 268.202 294.843 268.38 294.379 268.469 L 292.665 268.647 C 291.522 268.824 290.414 268.691 289.308 268.691 C 288.665 268.691 288.059 268.602 287.415 268.513 C 287.415 268.513 284.309 267.936 282.238 267.091 C 278.702 265.711 280.274 265.533 282.487 265.711 C 282.38 265.667 283.737 265.889 285.095 265.933 C 286.452 266.067 287.844 266.067 287.844 266.067 C 288.343 266.111 288.88 266.2 289.38 266.2 C 290.414 266.156 291.486 266.333 292.521 266.156 L 294.092 265.978 L 294.521 265.844 C 294.128 265.089 293.7 264.331 293.307 263.576 L 292.092 261.173 L 291.344 259.529 C 291.344 259.529 291.236 259.216 291.022 258.638 C 290.807 258.104 290.558 257.393 290.201 256.547 C 290.165 256.502 290.165 256.458 290.13 256.413 C 286.594 255.836 283.024 255.036 279.524 253.922 C 278.453 253.611 277.381 253.078 276.311 252.633 C 275.239 252.144 274.169 251.833 273.132 251.209 C 271.776 250.364 270.42 249.653 269.063 248.807 C 268.848 248.762 268.597 248.718 268.384 248.718 C 265.669 248.496 262.921 247.829 260.135 248.273 C 257.351 248.54 254.494 249.298 251.708 250.409 C 248.924 251.52 246.174 253.078 243.781 255.258 C 241.426 257.393 239.461 260.373 239.248 263.842 C 238.997 267.358 240.498 270.827 242.425 273.762 C 244.318 276.698 246.96 278.656 249.959 279.633 C 252.459 280.524 255.136 280.969 257.851 281.813 C 257.851 281.769 257.886 281.724 257.886 281.724 C 257.922 281.724 258.528 281.769 259.385 281.813 C 260.244 281.902 261.385 281.991 262.528 281.947 L 267.134 281.947 C 267.134 281.947 268.597 282.169 269.669 282.571 C 271.454 283.104 270.777 283.638 269.669 283.949 M 340.91 283.14 L 339.66 281.229 L 338.555 279.138 L 336.555 275.18 C 336.27 274.647 336.02 274.202 335.735 273.669 C 332.485 276.871 328.844 279.538 324.777 281.14 C 324.884 281.807 324.99 282.562 325.097 283.362 C 325.276 285.187 325.312 287.098 325.312 287.098 C 325.312 287.098 325.241 287.367 325.097 287.811 C 324.99 288.256 324.848 288.744 324.597 289.144 C 323.847 290.478 323.598 289.5 323.492 288.789 C 323.527 288.878 323.276 286.964 323.276 286.964 C 323.276 286.964 323.276 285.364 323.099 283.676 C 323.028 283.007 322.919 282.34 322.848 281.807 C 321.884 282.073 320.921 282.296 319.957 282.473 C 319.993 283.764 319.957 285.053 319.922 286.342 C 319.815 288.256 319.671 290.167 319.351 292.08 C 319.207 292.88 319.1 293.636 318.923 294.436 C 318.923 294.436 318.85 294.658 318.743 295.058 C 318.601 295.416 318.459 295.993 318.208 296.571 C 317.78 297.816 317.138 299.329 316.459 300.396 C 315.566 301.818 315.067 302.351 314.853 302.396 C 314.782 302.396 314.745 302.351 314.745 302.262 C 314.674 301.996 314.889 301.418 315.173 300.618 L 317.886 286.431 C 317.886 286.342 317.922 286.253 317.922 286.209 C 317.959 285.009 317.959 283.853 317.922 282.651 C 317.102 282.696 316.281 282.696 315.46 282.651 C 315.424 282.784 315.388 282.962 315.317 283.096 C 315.102 283.809 314.745 284.742 314.425 285.631 C 314.032 286.52 313.675 287.411 313.353 288.078 C 313.033 288.7 312.782 289.144 312.782 289.144 C 312.782 289.144 312.604 289.322 312.318 289.678 C 312.032 289.989 311.641 290.3 311.248 290.522 C 310.069 291.236 310.176 290.3 310.462 289.5 C 310.427 289.5 310.676 289.144 310.82 288.611 C 310.997 288.122 311.177 287.633 311.177 287.633 C 311.177 287.633 311.39 287.276 311.676 286.698 C 311.961 286.12 312.283 285.32 312.64 284.476 C 312.889 283.764 313.175 283.051 313.353 282.473 C 310.855 282.118 308.284 281.229 306 279.807 C 304.965 279.138 304.002 278.382 303.038 277.538 C 299.111 282.207 294.542 286.076 289.545 288.789 C 288.26 289.456 286.974 290.033 285.691 290.522 C 285.44 292.391 285.511 294.302 286.082 296.171 C 286.546 297.904 287.296 299.551 288.188 301.151 L 290.901 302.887 C 294.72 305.242 298.54 307.556 302.503 309.422 C 303.074 309.689 303.644 310 304.251 310.222 C 304.251 310.222 304.894 310.578 305.858 311.069 C 306.322 311.336 306.821 311.647 307.392 311.958 C 307.892 312.18 308.428 312.447 308.999 312.669 C 312.389 314.269 310.962 314.402 308.642 314.002 C 308.784 314.047 307.392 313.869 306.036 313.38 C 304.679 312.936 303.323 312.447 303.323 312.447 C 302.788 312.269 302.288 312.002 301.788 311.736 C 298.361 310.133 295.077 308.222 291.794 306.22 C 295.934 311.113 300.967 315.027 306.322 317.782 C 309.177 319.251 312.105 320.362 315.102 320.14 C 318.137 320.051 321.207 319.384 324.169 318.496 C 329.774 316.804 335.163 314.18 339.696 310.356 C 334.914 312.224 329.988 313.38 325.097 314.18 L 323.205 314.447 C 323.205 314.447 322.491 314.491 321.42 314.536 C 320.35 314.536 319.029 314.491 317.959 314.447 C 314.281 314.136 315.746 313.513 317.959 313.024 C 317.851 313.024 319.172 312.758 320.528 312.536 C 321.884 312.224 323.241 311.958 323.241 311.958 L 324.812 311.691 C 330.345 310.802 335.842 309.511 341.017 307.2 L 344.016 305.687 C 344.802 304.576 345.479 303.42 345.979 302.173 C 347.193 299.284 347.264 295.949 346.978 292.747 C 346.8 291.413 346.549 290.122 346.265 288.833 C 344.265 287.276 342.444 285.364 340.91 283.14 M 284.254 210.644 C 281.899 209.311 279.399 208.153 276.83 207.218 C 274.153 206.24 271.369 205.482 268.585 205.171 C 265.765 204.816 262.873 204.904 260.268 206.062 C 258.983 206.596 257.842 207.531 256.985 208.731 C 256.057 209.933 255.593 211.491 255.164 213.182 C 254.379 216.564 254.521 220.213 255.307 223.684 C 255.806 225.776 256.485 227.824 257.34 229.738 C 257.449 229.916 257.556 230.138 257.698 230.449 C 257.913 230.804 258.162 231.251 258.412 231.74 C 258.697 232.184 259.019 232.629 259.305 233.12 C 259.625 233.609 259.947 234.098 260.233 234.544 C 260.553 234.989 260.875 235.389 261.125 235.744 C 261.66 236.413 261.982 236.858 261.982 236.858 C 262.302 237.302 262.624 237.702 262.946 238.149 C 263.301 238.593 263.41 238.771 264.338 239.884 C 265.872 241.576 267.477 243.267 269.227 244.558 C 270.048 245.269 271.012 245.802 271.94 246.338 L 274.759 248.029 L 277.723 249.273 C 278.722 249.676 279.685 250.12 280.72 250.387 C 283.291 251.187 285.932 251.811 288.572 252.3 C 288.359 251.722 288.18 251.142 288.037 250.564 C 287.86 249.898 287.751 249.318 287.68 248.784 C 286.181 248.207 284.647 247.538 283.184 246.827 C 280.007 245.313 276.901 243.622 273.867 241.709 C 272.368 240.773 270.869 239.84 269.406 238.816 L 267.515 237.524 C 267.515 237.524 264.944 235.433 263.266 233.698 C 260.375 230.849 261.874 231.34 263.909 232.54 C 263.801 232.451 265.015 233.209 266.229 234.009 C 267.477 234.767 268.727 235.522 268.727 235.522 L 270.869 236.991 C 272.297 237.927 273.76 238.86 275.223 239.751 C 278.151 241.576 281.148 243.222 284.183 244.647 C 285.396 245.224 286.645 245.758 287.86 246.249 C 287.931 246.204 287.966 246.204 288.037 246.293 C 288.324 246.604 288.716 248.118 289.609 249.809 C 289.536 249.587 290.5 251.633 291.749 253.724 C 292.357 254.749 292.964 255.816 293.428 256.751 C 293.856 257.551 294.14 258.087 294.14 258.087 L 294.855 259.598 L 295.212 260.356 L 295.783 261.424 C 296.14 262.18 296.533 262.936 296.924 263.649 C 298.567 266.587 300.172 269.433 302.172 271.793 C 304.135 274.151 306.384 276.064 308.882 277.267 C 311.346 278.513 314.094 279.002 316.807 278.958 C 319.556 278.958 322.267 278.336 324.837 277.178 C 328.336 275.664 331.548 273.129 334.51 270.147 L 334.475 270.191 L 334.868 269.791 C 334.903 269.747 334.939 269.747 334.974 269.7 L 335.831 268.767 L 335.867 268.722 C 335.973 268.633 336.08 268.5 336.153 268.411 L 336.295 268.278 C 337.045 267.387 337.829 266.542 338.544 265.651 C 340.578 263.16 342.434 260.578 344.361 257.729 C 344.862 257.062 345.326 256.44 345.717 255.816 C 345.897 255.504 346.075 255.193 346.219 254.882 C 346.29 254.749 346.361 254.616 346.396 254.48 L 346.432 254.391 L 346.11 254.169 C 345.611 253.813 345.04 253.502 344.398 253.28 C 343.79 253.013 343.113 252.789 342.398 252.567 L 341.328 252.256 C 341.006 252.122 340.684 252.033 340.364 251.944 C 339.044 251.633 337.723 251.456 336.366 251.456 C 333.653 251.411 330.905 252.033 328.192 252.924 C 326.836 253.369 325.479 253.902 324.124 254.48 C 323.445 254.749 322.804 255.06 321.982 255.327 C 321.232 255.593 320.484 255.816 319.769 255.993 C 318.306 256.351 316.843 256.618 315.415 256.929 L 313.273 257.329 C 312.309 257.507 311.381 257.373 310.56 257.151 C 308.917 256.707 307.49 255.86 306.171 254.927 C 304.814 253.991 303.564 252.833 302.421 251.811 C 300.066 249.676 297.781 247.671 295.355 246.604 C 293.927 246.024 292.535 245.802 291.143 246.069 C 291.072 246.069 291.036 246.113 290.964 246.024 C 290.644 245.802 290.215 245.491 289.964 244.913 C 289.716 244.378 289.644 243.578 290.428 242.553 C 290.464 242.553 290.572 242.376 290.679 242.376 C 290.786 242.331 290.892 242.331 291.036 242.331 C 289.394 240.24 287.931 237.927 286.752 235.389 C 286.146 234.009 285.431 232.676 285.004 231.118 L 284.29 228.891 L 283.79 226.533 C 283.397 225.02 283.362 223.373 283.22 221.727 C 283.147 220.124 283.255 218.522 283.326 216.964 C 283.54 214.829 283.861 212.693 284.254 210.644 M 337.403 203.951 C 336.759 201.016 335.689 198.302 334.368 195.813 L 333.404 194.211 C 333.118 193.722 332.796 193.322 332.475 192.878 C 332.475 192.878 332.297 192.656 332.011 192.209 C 331.726 191.764 331.369 191.098 330.834 190.431 C 330.299 189.72 329.655 188.918 329.013 188.073 C 327.442 186.518 325.799 185.004 324.05 183.449 C 321.088 180.378 318.91 176.776 316.233 173.796 C 314.912 172.329 313.483 171.038 311.948 170.416 C 310.521 169.882 308.949 170.504 307.415 171.573 C 304.416 173.796 301.81 177.176 299.419 180.647 C 297.061 184.16 294.848 187.896 292.921 191.764 C 292.135 193.456 291.422 195.189 290.743 196.969 C 290.457 197.813 290.028 199.238 289.636 200.704 C 289.316 201.907 288.994 203.107 288.816 204.04 C 288.601 204.976 288.459 205.598 288.459 205.598 C 288.315 206.131 288.137 206.709 288.03 207.287 L 287.46 209.822 C 287.138 211.202 286.958 212.624 286.709 214.004 C 286.53 215.382 286.352 216.807 286.245 218.229 C 285.888 223.789 287.138 229.171 289.529 233.973 C 291.278 237.356 293.492 240.336 295.991 242.958 C 296.098 243.002 296.204 243.002 296.313 243.047 C 299.026 244.249 301.31 246.204 303.452 248.073 C 303.63 247.362 304.059 246.696 304.738 246.607 C 305.559 246.696 305.95 247.584 306.201 248.251 L 306.201 248.34 C 306.201 248.562 306.094 248.829 305.915 248.918 C 305.808 248.962 305.701 248.962 305.559 248.873 C 305.595 249.096 305.63 249.32 305.63 249.498 C 305.63 249.453 305.63 249.676 305.595 249.987 C 305.808 250.209 306.023 250.387 306.272 250.564 C 306.236 250.253 306.272 249.898 306.343 249.631 C 306.523 248.873 306.987 248.162 307.7 248.073 C 308.521 248.118 308.914 249.051 309.129 249.676 C 309.129 249.72 309.164 249.72 309.129 249.764 C 309.129 250.031 309.056 250.253 308.878 250.342 L 308.843 250.342 C 308.772 250.387 308.628 250.387 308.485 250.342 C 308.556 250.52 308.592 250.742 308.592 250.964 C 308.592 250.92 308.592 251.142 308.485 251.542 C 308.485 251.676 308.379 251.898 308.236 252.031 C 308.521 252.253 308.807 252.433 309.093 252.567 C 309.129 252.389 309.129 252.164 309.2 251.987 C 309.378 251.231 309.806 250.52 310.521 250.431 C 311.342 250.476 311.733 251.364 311.984 252.031 L 311.984 252.12 C 311.984 252.344 311.877 252.611 311.698 252.7 C 311.591 252.744 311.484 252.744 311.342 252.656 C 311.378 252.878 311.413 253.1 311.413 253.322 C 311.413 253.278 311.449 253.367 311.413 253.544 L 311.449 253.544 C 312.091 253.678 312.519 253.722 313.127 253.589 L 315.305 253.144 C 315.518 253.1 315.696 253.056 315.876 253.011 C 315.911 252.878 315.911 252.744 315.947 252.656 C 315.84 252.7 315.66 252.789 315.483 252.7 C 315.376 252.611 315.268 252.478 315.232 252.164 C 315.232 252.12 315.196 252.076 315.232 252.031 C 315.447 251.364 315.84 250.476 316.661 250.431 C 317.374 250.52 317.838 251.231 318.018 251.987 C 318.053 252.164 318.053 252.344 318.089 252.567 C 318.338 252.478 318.624 252.433 318.875 252.344 C 318.66 252.031 318.553 251.587 318.588 251.231 C 318.553 250.964 318.624 250.787 318.695 250.653 C 318.588 250.698 318.411 250.787 318.231 250.698 C 318.124 250.653 318.018 250.476 317.947 250.164 L 317.947 250.031 C 318.196 249.409 318.588 248.473 319.41 248.429 C 320.123 248.518 320.551 249.229 320.731 249.987 C 320.873 250.476 320.873 251.009 320.731 251.542 C 320.766 251.542 320.695 251.676 320.588 251.898 C 320.944 251.809 321.266 251.676 321.588 251.542 L 321.872 251.453 L 322.158 250.831 C 322.123 250.831 322.123 250.831 322.087 250.787 C 321.765 250.431 321.659 249.942 321.694 249.542 C 321.694 249.276 321.765 249.096 321.836 248.918 C 321.73 249.007 321.516 249.096 321.337 249.007 C 321.23 248.918 321.124 248.784 321.088 248.473 L 321.088 248.34 C 321.301 247.673 321.694 246.784 322.516 246.696 C 323.086 246.784 323.444 247.229 323.694 247.762 C 324.05 246.873 324.372 245.938 324.764 245.093 C 325.335 243.716 325.87 242.336 326.263 240.869 C 326.656 239.444 327.12 238.022 327.513 236.553 L 328.334 232.107 C 328.869 229.127 329.156 226.013 329.333 222.989 C 329.404 221.431 329.404 219.92 329.333 218.407 C 329.298 217.384 329.227 216.807 329.156 215.96 C 329.156 215.96 328.94 212.358 328.156 209.911 C 327.835 208.889 327.584 208.267 327.477 207.822 C 327.335 207.422 327.371 207.242 327.513 207.287 C 327.764 207.331 328.512 208.089 329.191 209.333 C 329.156 209.2 329.906 210.713 330.405 212.447 C 330.905 214.138 331.154 215.96 331.154 215.96 L 331.298 217.207 L 331.369 218.851 C 331.404 220.453 331.404 222.009 331.298 223.611 C 331.118 226.769 330.834 229.838 330.261 232.907 L 329.369 237.533 L 328.084 241.936 C 327.692 243.449 327.084 244.827 326.549 246.249 C 325.979 247.584 325.515 249.007 324.836 250.253 C 325.87 249.853 326.942 249.453 328.012 249.096 C 328.476 248.962 328.978 248.829 329.477 248.696 C 333.44 240.38 336.617 231.484 338.009 222.098 C 338.901 216.004 338.795 209.822 337.403 203.951 M 299.419 192.031 C 299.49 191.898 298.811 193.322 298.133 194.833 C 297.49 196.302 296.884 197.858 296.884 197.858 L 296.098 199.549 C 295.134 201.818 294.277 204.084 293.598 206.442 C 293.243 207.733 292.921 209.022 292.67 210.311 C 292.67 210.358 292.635 210.358 292.599 210.447 C 292.206 210.847 291.349 211.469 290.743 209.911 C 290.743 209.911 290.708 209.778 290.708 209.689 C 290.994 208.311 291.314 206.931 291.707 205.598 C 292.457 203.107 293.349 200.704 294.348 198.393 L 295.276 196.347 C 295.276 196.347 297.026 193.1 298.526 191.142 C 301.06 187.762 300.524 189.587 299.419 192.031 M 319.374 238.289 C 320.087 238.378 320.516 239.133 320.695 239.889 C 320.837 240.336 320.837 240.913 320.695 241.447 C 320.695 241.402 320.516 242.202 319.945 242.513 C 319.696 242.647 319.23 242.736 318.91 242.38 C 318.588 242.024 318.517 241.536 318.517 241.136 C 318.517 240.869 318.588 240.691 318.66 240.558 C 318.553 240.602 318.375 240.691 318.196 240.602 L 318.16 240.602 L 318.196 240.602 C 318.053 240.513 317.982 240.38 317.909 240.067 L 317.909 239.933 C 318.16 239.267 318.553 238.378 319.374 238.289 M 315.232 236.953 C 315.447 236.287 315.84 235.353 316.661 235.309 C 317.374 235.398 317.838 236.153 318.018 236.864 C 318.124 237.356 318.16 237.933 318.018 238.467 C 318.018 238.422 317.803 239.178 317.232 239.489 C 316.981 239.667 316.553 239.756 316.233 239.4 C 315.911 239.044 315.804 238.556 315.84 238.156 C 315.84 237.889 315.876 237.711 315.947 237.533 C 315.84 237.622 315.66 237.711 315.483 237.622 C 315.376 237.533 315.268 237.4 315.232 237.042 C 315.232 237.042 315.196 236.953 315.232 236.953 M 315.232 241.98 C 315.447 241.313 315.84 240.424 316.661 240.336 C 317.374 240.424 317.838 241.18 318.018 241.936 C 318.124 242.38 318.16 242.958 318.018 243.493 C 318.018 243.449 317.803 244.204 317.232 244.516 C 316.981 244.693 316.553 244.782 316.233 244.427 C 315.911 244.071 315.804 243.582 315.84 243.18 C 315.84 242.913 315.876 242.736 315.947 242.558 C 315.84 242.647 315.66 242.736 315.483 242.647 C 315.376 242.558 315.268 242.424 315.232 242.069 C 315.232 242.069 315.196 241.98 315.232 241.98 M 312.341 235.264 C 312.519 234.509 312.983 233.796 313.662 233.707 C 314.519 233.751 314.912 234.687 315.125 235.309 L 315.125 235.442 C 315.125 235.664 315.054 235.887 314.876 235.976 L 314.876 236.02 L 314.841 235.976 C 314.768 236.02 314.626 236.02 314.484 235.976 C 314.555 236.153 314.59 236.376 314.59 236.598 C 314.59 236.553 314.59 236.776 314.484 237.176 C 314.412 237.533 314.02 238.156 313.52 238.067 C 313.092 237.978 312.734 237.667 312.555 237.311 C 312.341 236.953 312.27 236.598 312.27 236.598 C 312.199 236.153 312.235 235.664 312.341 235.264 M 312.341 240.291 C 312.519 239.533 312.983 238.822 313.662 238.733 C 314.519 238.778 314.912 239.711 315.125 240.336 L 315.125 240.469 C 315.125 240.691 315.054 240.913 314.876 241.002 L 314.876 241.047 L 314.841 241.047 C 314.768 241.091 314.626 241.091 314.484 241.002 C 314.555 241.18 314.59 241.402 314.59 241.624 C 314.59 241.58 314.59 241.847 314.484 242.202 C 314.412 242.602 314.02 243.18 313.52 243.091 C 313.092 243.002 312.734 242.736 312.555 242.336 C 312.341 241.98 312.27 241.624 312.27 241.624 C 312.199 241.18 312.235 240.736 312.341 240.291 M 309.2 236.864 C 309.378 236.109 309.806 235.398 310.521 235.309 C 311.342 235.353 311.733 236.287 311.984 236.953 L 311.984 237.042 C 311.984 237.264 311.877 237.489 311.698 237.578 L 311.698 237.622 C 311.591 237.667 311.484 237.667 311.342 237.578 C 311.378 237.756 311.449 237.978 311.413 238.2 C 311.413 238.156 311.449 238.422 311.342 238.778 C 311.269 239.178 310.841 239.756 310.377 239.667 C 309.948 239.578 309.593 239.311 309.378 238.911 C 309.2 238.556 309.129 238.244 309.129 238.244 C 309.056 237.756 309.093 237.311 309.2 236.864 M 306.414 239.756 C 306.594 239 307.022 238.289 307.735 238.2 C 308.556 238.244 308.985 239.133 309.2 239.8 L 309.2 239.889 C 309.2 240.111 309.093 240.38 308.914 240.469 L 308.949 240.469 L 308.914 240.469 C 308.807 240.513 308.7 240.513 308.556 240.424 C 308.628 240.647 308.665 240.869 308.628 241.047 C 308.628 241.002 308.665 241.269 308.556 241.669 C 308.485 242.024 308.092 242.647 307.593 242.513 C 307.164 242.469 306.807 242.158 306.629 241.802 C 306.414 241.402 306.343 241.091 306.343 241.091 C 306.272 240.647 306.308 240.156 306.414 239.756 M 306.452 244.027 C 306.343 244.071 306.236 244.071 306.059 243.982 C 306.13 244.16 306.165 244.382 306.165 244.604 C 306.165 244.56 306.201 244.827 306.094 245.182 C 306.023 245.582 305.595 246.16 305.131 246.071 C 304.702 245.982 304.345 245.716 304.13 245.316 C 303.916 244.96 303.881 244.649 303.881 244.649 C 303.81 244.16 303.81 243.716 303.952 243.271 C 304.13 242.513 304.558 241.802 305.273 241.713 C 306.094 241.758 306.487 242.691 306.736 243.36 L 306.736 243.449 C 306.736 243.671 306.629 243.893 306.452 244.027 Z M 308.772 245.538 C 308.843 245.716 308.878 245.938 308.878 246.16 C 308.878 246.116 308.878 246.384 308.772 246.784 C 308.7 247.14 308.308 247.718 307.808 247.629 C 307.38 247.54 307.022 247.273 306.843 246.873 C 306.629 246.518 306.558 246.204 306.558 246.204 C 306.487 245.716 306.523 245.271 306.629 244.827 C 306.807 244.116 307.271 243.36 307.95 243.271 C 308.807 243.316 309.2 244.249 309.413 244.916 L 309.413 245.004 C 309.413 245.227 309.342 245.449 309.164 245.582 L 309.129 245.582 C 309.056 245.627 308.914 245.627 308.772 245.538 M 311.771 247.807 L 311.733 247.807 C 311.627 247.851 311.52 247.851 311.378 247.762 C 311.449 247.94 311.484 248.162 311.484 248.384 C 311.484 248.34 311.484 248.607 311.378 249.007 C 311.307 249.364 310.914 249.942 310.412 249.853 C 309.986 249.764 309.664 249.498 309.449 249.096 C 309.236 248.74 309.164 248.429 309.164 248.429 C 309.093 247.94 309.129 247.496 309.236 247.096 C 309.413 246.34 309.877 245.582 310.556 245.493 C 311.413 245.582 311.806 246.473 312.02 247.14 L 312.02 247.229 C 312.02 247.451 311.948 247.718 311.771 247.807 M 311.877 242.78 L 311.913 242.78 L 311.877 242.78 C 311.771 242.824 311.662 242.824 311.52 242.736 C 311.591 242.913 311.627 243.136 311.591 243.36 C 311.591 243.316 311.627 243.582 311.52 243.982 C 311.449 244.338 311.056 244.916 310.556 244.827 C 310.128 244.738 309.771 244.471 309.593 244.071 C 309.378 243.716 309.307 243.404 309.307 243.404 C 309.236 242.913 309.271 242.469 309.378 242.069 C 309.557 241.313 309.986 240.558 310.699 240.469 C 311.556 240.558 311.948 241.447 312.162 242.113 L 312.162 242.202 C 312.162 242.424 312.055 242.691 311.877 242.78 M 312.341 245.36 C 312.519 244.604 312.983 243.849 313.662 243.76 C 314.519 243.849 314.912 244.738 315.125 245.404 L 315.125 245.493 C 315.125 245.716 315.054 245.982 314.876 246.071 L 314.841 246.071 C 314.768 246.116 314.626 246.116 314.484 246.027 C 314.555 246.204 314.59 246.429 314.59 246.651 C 314.59 246.607 314.59 246.873 314.484 247.273 C 314.412 247.629 314.02 248.207 313.52 248.118 C 313.092 248.029 312.734 247.762 312.555 247.362 C 312.341 247.007 312.27 246.696 312.27 246.696 C 312.199 246.204 312.235 245.76 312.341 245.36 M 314.876 251.098 L 314.841 251.098 C 314.768 251.142 314.626 251.142 314.484 251.053 C 314.555 251.276 314.59 251.498 314.59 251.676 C 314.59 251.631 314.59 251.898 314.484 252.3 C 314.412 252.656 314.02 253.278 313.52 253.144 C 313.092 253.056 312.734 252.789 312.555 252.389 C 312.341 252.031 312.27 251.72 312.27 251.72 C 312.199 251.231 312.235 250.787 312.341 250.387 C 312.519 249.631 312.983 248.873 313.662 248.784 C 314.519 248.873 314.912 249.764 315.125 250.431 L 315.125 250.52 C 315.125 250.742 315.054 251.009 314.876 251.098 M 317.909 248.651 C 317.909 248.651 317.696 249.409 317.125 249.72 C 316.875 249.853 316.446 249.987 316.089 249.587 C 315.804 249.276 315.696 248.74 315.733 248.34 C 315.733 248.118 315.769 247.896 315.84 247.762 C 315.733 247.851 315.554 247.94 315.376 247.807 L 315.376 247.851 L 315.376 247.807 C 315.268 247.762 315.161 247.629 315.125 247.273 C 315.09 247.273 315.09 247.184 315.125 247.14 C 315.34 246.518 315.733 245.582 316.553 245.538 C 317.268 245.627 317.732 246.34 317.909 247.096 C 318.018 247.584 318.018 248.162 317.909 248.651 M 320.624 246.651 C 320.624 246.651 320.409 247.407 319.838 247.718 C 319.588 247.851 319.159 247.984 318.839 247.629 C 318.517 247.273 318.411 246.74 318.446 246.34 C 318.446 246.116 318.482 245.938 318.553 245.76 C 318.446 245.849 318.267 245.938 318.089 245.804 C 317.982 245.76 317.874 245.627 317.838 245.271 C 317.838 245.271 317.803 245.182 317.838 245.138 C 318.053 244.516 318.446 243.582 319.268 243.538 C 319.98 243.627 320.444 244.338 320.624 245.093 C 320.731 245.582 320.766 246.16 320.624 246.651 M 323.301 244.916 C 323.337 244.871 323.122 245.671 322.551 245.982 C 322.3 246.116 321.836 246.249 321.516 245.849 C 321.195 245.493 321.124 245.004 321.124 244.604 C 321.124 244.338 321.195 244.16 321.266 244.027 C 321.159 244.071 320.98 244.16 320.802 244.071 C 320.695 243.982 320.588 243.849 320.516 243.538 L 320.516 243.404 C 320.766 242.736 321.159 241.847 321.98 241.802 C 322.693 241.847 323.122 242.602 323.301 243.36 C 323.444 243.804 323.444 244.382 323.301 244.916 M 382.692 217.08 C 382.656 215.12 382.512 213.296 382.084 211.516 C 381.728 209.78 381.049 208.178 380.085 206.976 C 379.657 206.398 379.122 205.951 378.551 205.596 C 378.443 205.818 378.336 206.04 378.229 206.264 C 376.409 210.269 376.587 208.356 377.23 205.64 C 377.159 205.773 377.588 204.216 377.979 202.569 C 378.336 200.967 378.587 199.32 378.587 199.32 C 378.658 198.92 378.729 198.562 378.8 198.207 L 378.871 197.629 L 378.871 197.496 L 378.944 196.782 C 379.015 196.16 379.015 195.536 378.98 194.958 C 378.871 192.598 377.765 190.862 375.945 190.018 C 374.16 189.171 372.018 188.993 369.948 188.904 C 365.808 188.816 361.668 189.929 357.954 192.198 C 354.242 194.469 350.923 197.762 348.068 201.589 C 345.568 205.018 343.426 208.8 341.534 212.807 C 341.641 216.411 341.392 219.973 340.857 223.4 C 339.536 231.811 336.965 239.647 333.717 246.991 C 334.324 246.544 334.932 246.011 335.502 245.478 C 336.324 244.676 337.108 243.784 337.893 242.94 L 346.247 232.791 C 347.424 231.233 348.567 229.676 349.673 228.162 L 350.923 226.427 C 350.923 226.427 353.1 223.756 354.741 221.976 C 355.778 220.818 356.313 220.329 356.526 220.329 C 356.848 220.284 356.348 221.531 355.527 222.956 C 355.634 222.867 354.812 224.244 353.957 225.58 L 352.244 228.34 L 348.96 232.836 C 347.675 234.571 346.389 236.262 345.068 237.909 C 342.642 240.982 340.142 244.009 337.429 246.767 L 338.108 246.456 C 339.072 246.056 340.036 245.431 340.999 244.942 C 341.57 244.631 342.105 244.276 342.642 243.918 C 342.642 243.918 344.818 242.807 347.46 241.471 C 348.709 240.758 349.351 240.536 349.566 240.624 C 349.888 240.713 349.067 241.649 347.924 242.718 C 348.032 242.629 346.924 243.607 345.746 244.498 C 344.569 245.431 343.319 246.322 343.319 246.322 C 342.82 246.589 342.356 246.9 341.856 247.169 C 341.25 247.48 340.677 247.836 340.107 248.147 C 340.677 248.28 341.25 248.369 341.82 248.549 C 343.248 249.038 344.676 249.393 346.247 250.151 C 346.638 250.329 347.031 250.551 347.424 250.818 C 347.639 250.951 347.817 251.084 347.995 251.262 C 348.174 251.396 348.532 251.753 348.78 252.064 C 349.28 252.687 349.531 253.578 349.46 254.511 C 349.46 254.736 349.424 255.002 349.351 255.269 C 353.529 253.8 357.525 251.351 360.988 248.058 C 364.343 244.898 367.271 240.938 369.627 236.531 L 371.305 233.147 C 371.698 231.991 372.197 230.922 372.411 229.676 L 372.661 228.651 C 372.732 228.384 372.768 228.118 372.804 227.851 L 373.054 226.16 C 373.054 226.16 373.125 225.802 373.196 225.269 C 373.268 224.691 373.374 223.889 373.518 222.956 C 373.767 221.084 374.018 218.638 374.446 216.589 C 375.124 213.207 375.767 212.318 375.945 212.762 C 376.052 212.984 376.087 213.518 376.123 214.276 C 376.087 214.987 376.087 215.922 376.087 216.991 C 376.123 216.769 376.087 219.216 376.123 221.798 C 376.123 223.089 376.087 224.424 376.052 225.447 C 376.052 226.471 375.945 227.182 375.945 227.182 L 375.694 229.098 C 375.552 229.764 375.481 230.031 375.052 231.767 C 374.875 232.48 374.588 233.147 374.338 233.816 C 374.089 234.482 373.838 235.196 373.554 235.729 C 372.946 236.931 372.411 238.178 371.733 239.289 C 369.556 243.251 366.914 246.811 363.952 249.882 C 367.378 248.504 370.876 247.213 374.553 246.5 C 375.803 246.233 377.086 246.1 378.372 246.011 C 378.48 245.744 378.622 245.522 378.729 245.253 C 381.513 238.489 382.549 230.611 382.727 222.911 C 382.763 220.951 382.763 219.038 382.692 217.08 M 355.991 236.262 C 355.884 236.396 355.563 236.798 355.276 237.109 C 354.992 237.464 354.706 237.776 354.706 237.776 C 354.706 237.776 354.421 238.089 354.1 238.4 C 353.813 238.756 353.385 239.022 353.243 239.156 C 352.992 239.333 352.743 239.2 352.386 238.889 C 352.421 238.267 352.421 237.956 352.601 237.776 C 352.708 237.687 353.029 237.509 353.314 237.153 C 353.6 236.842 353.884 236.576 353.884 236.576 C 353.884 236.576 354.135 236.307 354.421 235.996 C 354.67 235.64 354.992 235.284 355.099 235.151 C 355.276 234.929 355.527 235.018 355.991 235.151 C 356.133 235.684 356.169 236.04 355.991 236.262"/><path fill="#041e42" d="M 323.348 251.502 C 321.193 252.198 316.729 253.002 312.597 253.642 C 309.065 253.058 301.312 250.309 301.445 246.558 C 301.801 240.836 309.154 230.78 313.173 230.224 C 317.173 229.669 324.969 241.502 326.613 244.92 C 324.613 249.087 325.348 249.087 323.348 251.502"/><path fill="#d69a2d" d="M 322.194 251.878 C 320.263 252.571 316.354 253.378 312.667 254.016 C 309.536 253.433 302.763 251.211 302.873 247.46 C 303.006 246.849 309.536 233.1 313.111 232.544 C 316.686 231.989 323.548 244.6 324.971 245.127 C 323.195 249.293 323.972 249.46 322.194 251.878"/></svg>