<svg xmlns="http://www.w3.org/2000/svg" version="1.0" viewBox="0 0 640 480"><path d="M 0 0.042 L 640 0.042 L 640 479.998 L 0 479.998 L 0 0.042 Z" style="font-size:12px;fill:#fff;fill-opacity:1;fill-rule:evenodd;stroke-width:1.43966"/><path d="M 0 0.042 L 640 0.042 L 640 240.105 L 0 240.105 L 0 0.042 Z" style="font-size:12px;fill:#bf0a30;fill-opacity:1;fill-rule:evenodd;stroke-width:1.01768994"/><path d="M 0 0 L 213.36 0 L 213.36 480 L 0 480 L 0 0 Z" style="font-size:12px;fill:#002868;fill-opacity:1;fill-rule:evenodd;stroke-width:1pt"/><path d="M 31.91 112.617 C 18.572 120.996 16.154 124.49 8.843 130.916 L 25.055 131.299 C 24.861 132.997 21.323 154.142 20.987 155.635 C 33.192 146.51 38.983 142.327 55.635 137.05 C 62.252 134.983 55.115 127.42 54.427 125.408 C 49.903 127.706 46.424 130.433 43.09 133.775" style="font-size:12px;fill:#ffca00;fill-opacity:1;fill-rule:evenodd;stroke:#002868;stroke-width:1;stroke-linejoin:miter;stroke-dasharray:none;stroke-opacity:1;stroke-miterlimit:4"/><path d="M 43.305 133.597 C 68.171 107.972 150.448 108.585 173.364 134.389 C 174.103 134.091 188.928 105.954 188.189 106.252 C 143.198 70.795 62.583 76.869 28.748 104.851 L 29.149 106.522 L 43.305 133.597 Z" style="font-size:12px;fill:#ffca00;fill-opacity:1;fill-rule:evenodd;stroke:#002868;stroke-width:1;stroke-dasharray:none;stroke-opacity:1;stroke-miterlimit:4"/><path d="M 47.58 122.479 C 47.456 122.112 40.35 107.225 40.35 107.225 L 51.982 118.757 L 49.275 101.907 L 56.893 116.324 M 89.765 96.764 C 89.816 92.211 93.059 91.904 95.29 92.692 C 96.599 93.816 97.286 97.477 95.717 99.564 L 92.566 102.586 C 91.477 104.117 90.271 105.866 90.349 107.792 L 97.468 107.487 M 102.686 91.901 C 101.386 92.617 100.948 93.748 100.647 95.422 C 100.453 97.348 100.539 101.899 100.889 103.781 C 101.202 105.182 101.511 106.101 102.446 107.019 C 103.535 107.72 104.741 107.59 105.403 107.108 C 106.297 106.539 106.92 105.358 107.231 103.957 C 107.737 102.161 107.698 96.909 107.347 94.984 C 107.024 93.7 106.621 92.679 105.714 91.919 C 104.625 91.394 103.348 91.509 102.686 91.901 Z" style="font-size:12px;fill:none;fill-rule:evenodd;stroke:#002868;stroke-width:3.1249973799999999;stroke-linecap:round;stroke-linejoin:round;stroke-dasharray:none;stroke-opacity:1"/><path d="M 136.683 96.274 C 138.038 95.639 139.069 94.859 140.198 93.366 L 138.199 109.216" style="font-size:12px;fill:none;fill-rule:evenodd;stroke:#002868;stroke-width:3.1249961900000001;stroke-linecap:round;stroke-linejoin:round;stroke-dasharray:none;stroke-opacity:1"/><path d="M 147.094 95.463 C 147.256 95.533 153.861 97.693 153.861 97.693 C 150.64 102.22 147.999 106.241 145.847 111.35" style="font-size:12px;fill:none;fill-rule:evenodd;stroke:#002868;stroke-width:3.1250007200000001;stroke-linecap:round;stroke-linejoin:round;stroke-dasharray:none;stroke-opacity:1"/><path d="M 159.63 99.413 L 166.176 103.046 C 162.289 106.172 159.093 110.104 156.266 114.703" style="font-size:12px;fill:none;fill-rule:evenodd;stroke:#002868;stroke-width:3.1250038099999999;stroke-linecap:round;stroke-linejoin:round;stroke-dasharray:none;stroke-opacity:1"/><path d="M 176.228 108.942 L 171.939 106.114 L 168.147 111.89 C 170.871 111.285 172.702 112.211 173.485 114.992 C 173.966 119.089 171.784 121.427 169.425 121.5 C 166.943 121.437 165.662 119.903 165.313 116.686" style="font-size:12px;fill:none;fill-rule:evenodd;stroke:#002868;stroke-width:3.12499905;stroke-linecap:round;stroke-linejoin:round;stroke-dasharray:none;stroke-opacity:1"/><path d="M 60.534 114.262 C 60.534 114.262 60.948 97.054 61.103 97.073 C 61.17 96.377 69.74 111.339 69.74 111.339 M 60.814 108.133 L 66.637 106.205" style="font-size:12px;fill:none;fill-opacity:1;fill-rule:evenodd;stroke:#002868;stroke-width:3.1250014300000002;stroke-linecap:round;stroke-linejoin:round;stroke-dasharray:none;stroke-opacity:1"/><path d="M 26.827 276.614 L 35.334 276.743 L 35.065 235.282 L 51.371 276.961 L 60.222 276.96 L 60.222 215.978 L 51.582 216.108 L 51.713 254.664 L 36.473 216.28 L 26.959 216.41 L 26.827 276.614 Z" style="font-size:12px;fill:#ffca00;fill-opacity:1;fill-rule:evenodd;stroke:none;stroke-width:.62499958;stroke-dasharray:none;stroke-opacity:1"/><path d="M 182.298 235.326 L 191.358 235.326 L 191.249 229.954 C 190.993 226.481 189.826 222.084 186.783 218.832 C 184.756 216.295 182.359 214.863 179.247 213.906 C 176.606 212.74 170.139 213.082 166.857 215.149 C 162.975 217.588 159.697 221.937 157.509 228.945 C 154.637 240.744 155.934 255.519 157.754 262.472 C 159.92 269.841 163.318 273.775 167.841 276.254 C 170.655 277.319 175.567 278.131 180.161 276.73 C 185.168 274.601 187.456 270.903 189.444 266.957 C 190.65 264.288 192.036 259.17 191.794 253.498 L 182.341 253.628 C 182.348 255.703 181.974 258.099 181.504 260.175 C 180.435 263.077 178.783 265.019 174.676 265.018 C 171.924 265.014 170.063 263.74 168.523 261.454 C 166.444 259.196 165.899 254.141 165.76 252.713 C 165.134 246.26 165.116 239.872 166.768 233.14 C 167.398 230.419 168.649 227.903 170.287 226.678 C 172.941 225.059 175.685 225.3 177.238 225.809 C 179.276 226.517 181.156 228.231 181.743 230.5 C 182.199 232.633 182.272 233.931 182.298 235.326 Z" style="font-size:12px;fill:#ffca00;fill-opacity:1;fill-rule:evenodd;stroke:none;stroke-width:.62499987999999995;stroke-dasharray:none;stroke-opacity:1"/><path d="M 129.703 278.616 L 109.395 260.861 L 88.552 278.505 L 96.811 250.873 L 75.68 233.379 L 101.092 234.057 L 108.876 205.6 L 116.322 233.65 L 142.265 233.558 L 121.454 250.217 L 129.703 278.616 Z" style="font-size:12px;fill:#fff;fill-rule:evenodd;stroke:none;stroke-width:.64412993;stroke-dasharray:none;stroke-opacity:1;fill-opacity:1"/><path style="fill:none;fill-opacity:1;fill-rule:evenodd;stroke:#000;stroke-width:1pt;stroke-linecap:butt;stroke-linejoin:miter;stroke-opacity:1"/><path d="M 43.376 133.613 C 44.271 134.644 46.039 134.387 48.479 133.867 C 50.427 133.602 52.647 133.503 54.394 133.276 C 57.285 133.541 58.942 134.302 57.754 135.845" style="fill:none;fill-opacity:1;fill-rule:evenodd;stroke:#002868;stroke-width:1;stroke-linecap:butt;stroke-linejoin:miter;stroke-dasharray:none;stroke-opacity:1;stroke-miterlimit:4"/><path d="M 184.87 113.521 C 198.208 121.901 200.628 125.395 207.937 131.822 L 191.726 132.202 C 191.919 133.901 195.458 155.048 195.794 156.539 C 183.588 147.415 177.797 143.232 161.145 137.954 C 154.529 135.887 161.904 128.191 162.593 126.179 C 167.117 128.476 170.953 131.203 173.691 134.68" style="font-size:12px;fill:#ffca00;fill-opacity:1;fill-rule:evenodd;stroke:#002868;stroke-width:1;stroke-linejoin:miter;stroke-dasharray:none;stroke-opacity:1;stroke-miterlimit:4"/><path style="fill:none;fill-opacity:1;fill-rule:evenodd;stroke:#000;stroke-width:1pt;stroke-linecap:butt;stroke-linejoin:miter;stroke-opacity:1"/><path d="M 173.213 134.519 C 171.717 135.297 170.171 134.954 168.301 134.772 C 166.527 134.482 164.513 134.142 162.52 134.065 C 159.179 134.092 157.972 135.662 159.027 136.751" style="fill:none;fill-opacity:1;fill-rule:evenodd;stroke:#002868;stroke-width:1;stroke-linecap:butt;stroke-linejoin:miter;stroke-dasharray:none;stroke-opacity:1;stroke-miterlimit:4"/><path d="M 110.399 97.794 C 112.981 97.847 115.479 97.961 115.479 97.961" style="font-size:12px;fill:none;fill-rule:evenodd;stroke:#002868;stroke-width:2.2499971400000001;stroke-linecap:round;stroke-linejoin:round;stroke-dasharray:none;stroke-opacity:1"/><path d="M 118.329 93.997 L 118.028 107.843 M 123.687 108.47 C 124.407 98.533 123.25 98.179 118.983 98.201" style="font-size:12px;fill:none;fill-rule:evenodd;stroke:#002868;stroke-width:2.25000453;stroke-linecap:round;stroke-linejoin:round;stroke-dasharray:none;stroke-opacity:1"/><path d="M 112.413 93.496 L 112.224 105.005 C 112.196 107.189 112.8 107.811 114.488 107.811" style="fill:none;fill-opacity:1;fill-rule:evenodd;stroke:#002868;stroke-width:2.25;stroke-linecap:round;stroke-linejoin:round;stroke-dasharray:none;stroke-opacity:1"/><path d="M 68.78 95.001 L 75.104 102.219 L 76.246 110.057 M 78.718 92.52 L 75.252 102.565" style="font-size:12px;fill:none;fill-rule:evenodd;stroke:#002868;stroke-width:3.1250026200000001;stroke-linecap:round;stroke-linejoin:round;stroke-opacity:1"/><path d="M 32.448 371.953 C 19.109 363.759 16.691 360.343 9.38 354.057 L 25.592 353.685 C 25.399 352.023 21.86 331.347 21.524 329.888 C 33.729 338.809 39.521 342.899 56.173 348.061 C 62.79 350.081 55.653 357.476 54.964 359.445 C 50.44 357.198 46.962 354.531 43.627 351.263" style="font-size:12px;fill:#ffca00;fill-opacity:1;fill-rule:evenodd;stroke:#002868;stroke-width:1;stroke-linejoin:miter;stroke-dasharray:none;stroke-opacity:1;stroke-miterlimit:4"/><path d="M 43.843 351.435 C 68.709 376.494 150.986 375.895 173.901 350.661 C 174.64 350.954 189.466 378.467 188.726 378.176 C 143.735 412.849 63.12 406.909 29.286 379.545 L 29.688 377.912 L 43.843 351.435 Z" style="font-size:12px;fill:#ffca00;fill-opacity:1;fill-rule:evenodd;stroke:#002868;stroke-width:1;stroke-dasharray:none;stroke-opacity:1;stroke-miterlimit:4"/><path style="fill:none;fill-opacity:1;fill-rule:evenodd;stroke:#000;stroke-width:.98887253pt;stroke-linecap:butt;stroke-linejoin:miter;stroke-opacity:1"/><path d="M 43.913 351.42 C 44.808 350.413 46.576 350.663 49.016 351.173 C 50.964 351.431 53.185 351.529 54.931 351.751 C 57.823 351.491 59.48 350.747 58.291 349.238" style="fill:none;fill-opacity:1;fill-rule:evenodd;stroke:#002868;stroke-width:1;stroke-linecap:butt;stroke-linejoin:miter;stroke-dasharray:none;stroke-opacity:1;stroke-miterlimit:4"/><path d="M 185.407 371.068 C 198.745 362.874 201.164 359.457 208.474 353.172 L 192.263 352.799 C 192.456 351.139 195.995 330.461 196.33 329.002 C 184.125 337.926 178.334 342.015 161.682 347.176 C 155.066 349.197 162.441 356.723 163.129 358.691 C 167.653 356.444 171.49 353.778 174.228 350.377" style="font-size:12px;fill:#ffca00;fill-opacity:1;fill-rule:evenodd;stroke:#002868;stroke-width:1;stroke-linejoin:miter;stroke-dasharray:none;stroke-opacity:1;stroke-miterlimit:4"/><path style="fill:none;fill-opacity:1;fill-rule:evenodd;stroke:#000;stroke-width:.98887253pt;stroke-linecap:butt;stroke-linejoin:miter;stroke-opacity:1"/><path d="M 173.752 350.535 C 172.254 349.773 170.708 350.111 168.838 350.287 C 167.064 350.572 165.05 350.905 163.057 350.979 C 159.717 350.953 158.509 349.419 159.564 348.352" style="fill:none;fill-opacity:1;fill-rule:evenodd;stroke:#002868;stroke-width:1;stroke-linecap:butt;stroke-linejoin:miter;stroke-dasharray:none;stroke-opacity:1;stroke-miterlimit:4"/><path d="M 108.137 384.297 C 109.208 380.163 111.65 380.668 113.826 381.235 C 115.573 382.585 115.824 386.261 114.155 388.401 L 111.091 391.026 C 109.795 391.994 108.509 393.79 108.558 395.797 L 115.978 395.633" style="font-size:12px;fill:none;fill-rule:evenodd;stroke:#002868;stroke-width:3.125;stroke-linecap:round;stroke-linejoin:round;stroke-dasharray:none;stroke-opacity:1"/><path d="M 100.647 383.739 C 101.991 382.917 102.313 382.592 103.343 380.91 L 102.768 395.862" style="font-size:12px;fill:none;fill-rule:evenodd;stroke:#002868;stroke-width:3.1249983299999999;stroke-linecap:round;stroke-linejoin:round;stroke-dasharray:none;stroke-opacity:1"/><path d="M 84.284 377.161 C 84.282 377.252 82.023 392.78 81.926 393.415 L 89.114 394.558" style="font-size:12px;fill:none;fill-rule:evenodd;stroke:#002868;stroke-width:3.1250007200000001;stroke-linecap:round;stroke-dasharray:none;stroke-opacity:1"/><path d="M 75.845 392.587 L 78.057 375.649" style="font-size:12px;fill:none;fill-rule:evenodd;stroke:#002868;stroke-width:3.12499905;stroke-linecap:round;stroke-linejoin:round;stroke-dasharray:none;stroke-opacity:1"/><path d="M 50.168 383.707 L 55.651 368.044 C 57.293 368.97 59.41 369.336 61.235 371.167 C 62.42 373.384 61.874 377.93 58.479 378.361 C 56.608 378.08 55.044 377.061 53.404 376.225" style="font-size:12px;fill:none;fill-rule:evenodd;stroke:#002868;stroke-width:3.12499905;stroke-linecap:round;stroke-dasharray:none;stroke-opacity:1"/><path d="M 139.868 380.535 C 140.953 379.349 141.691 378.154 142.311 376.205 L 145.114 392.83" style="font-size:12px;fill:none;fill-rule:evenodd;stroke:#002868;stroke-width:3.08430743;stroke-linecap:round;stroke-linejoin:round;stroke-dasharray:none;stroke-opacity:1"/><path d="M 146.197 375.752 C 146.371 375.7 153.374 372.945 153.374 372.945 C 153.052 378.975 152.952 384.762 153.622 390.112" style="font-size:12px;fill:none;fill-rule:evenodd;stroke:#002868;stroke-width:3.1250026200000001;stroke-linecap:round;stroke-linejoin:round;stroke-dasharray:none;stroke-opacity:1"/><path d="M 157.052 371.519 L 164.231 368.358 C 163.923 374.471 163.586 380.981 164.585 385.566" style="font-size:12px;fill:none;fill-rule:evenodd;stroke:#002868;stroke-width:3.1249969000000002;stroke-linecap:round;stroke-linejoin:round;stroke-dasharray:none;stroke-opacity:1"/><path d="M 174.112 365.188 C 173.291 363.661 172.038 363.101 170.277 363.622 C 168.643 365.234 168.34 366.505 168.224 368.466 C 168.291 370.897 168.886 373.297 169.867 375.441 C 170.54 377.44 171.995 378.867 173.091 379.18 C 174.332 379.696 175.261 379.564 176.257 378.595 C 177.016 377.518 177.361 375.708 177.291 374.344 C 177.055 372.535 176.328 370.896 174.689 369.935 C 173.42 369.35 172.895 369.231 171.75 369.778 C 170.009 370.936 169.693 373.076 169.951 375.26" style="font-size:12px;fill:none;fill-rule:evenodd;stroke:#002868;stroke-width:3.1249959500000002;stroke-linecap:round;stroke-linejoin:round;stroke-dasharray:none;stroke-opacity:1"/><path d="M 117.762 385.639 C 120.341 385.505 122.84 385.438 122.84 385.438" style="font-size:12px;fill:none;fill-rule:evenodd;stroke:#002868;stroke-width:2.2499985699999998;stroke-linecap:round;stroke-linejoin:round;stroke-dasharray:none;stroke-opacity:1"/><path d="M 119.525 381.206 L 119.996 392.704 C 120.093 394.886 120.731 395.462 122.417 395.339" style="fill:none;fill-opacity:1;fill-rule:evenodd;stroke:#002868;stroke-width:2.2500007200000001;stroke-linecap:round;stroke-linejoin:round;stroke-dasharray:none;stroke-opacity:1"/><path d="M 124.527 381.085 L 125.944 394.844 M 131.626 394.578 C 131.108 384.623 129.919 384.454 125.697 385.144" style="font-size:12px;fill:none;fill-rule:evenodd;stroke:#002868;stroke-width:2.2500038099999999;stroke-linecap:round;stroke-linejoin:round;stroke-dasharray:none;stroke-opacity:1"/><path d="M 37.34 376.715 C 37.34 376.715 48.326 363.723 48.434 363.859 C 48.919 363.373 46.275 381.675 46.275 381.675 M 41.356 372.191 L 47.056 375.267" style="font-size:12px;fill:none;fill-rule:evenodd;stroke:#002868;stroke-width:3.1250011899999999;stroke-linecap:round;stroke-linejoin:round;stroke-dasharray:none;stroke-opacity:1"/><path d="M 62.125 389.323 C 62.123 389.231 66.124 372.517 66.124 372.517 C 67.837 372.984 69.627 373.269 71.263 373.921 C 72.408 374.344 74.146 375.936 73.475 378.509 C 73.159 380.069 72.515 381.455 71.533 382.305" style="font-size:12px;fill:none;fill-rule:evenodd;stroke:#002868;stroke-width:3.12499905;stroke-linecap:round;stroke-dasharray:none;stroke-opacity:1"/><path d="M 64.362 380.685 L 69.83 382.262 C 71.303 382.858 71.66 384.307 71.662 384.398 C 71.936 385.76 71.014 391.622 71.014 391.622" style="font-size:12px;fill:none;fill-rule:evenodd;stroke:#002868;stroke-width:3.12499905;stroke-linecap:round;stroke-linejoin:round;stroke-dasharray:none;stroke-opacity:1"/></svg>