<svg xmlns="http://www.w3.org/2000/svg" viewBox="0 0 640 480"><defs><g fill="#fff" transform="translate(3.944272,0) scale(0.625)"><g><g><path d="M1,0H0V0.5z" transform="rotate(18,1,0)"/><path d="M1,0H0V0.5z" transform="matrix(0.9510565162951535, -0.3090169943749474, -0.3090169943749474, -0.9510565162951535, 0.04894348370484647, 0.3090169943749474)"/></g><g transform="matrix(0.3090169943749474, 0.9510565162951535, -0.9510565162951535, 0.3090169943749474, 0, 0)"><path d="M1,0H0V0.5z" transform="rotate(18,1,0)"/><path d="M1,0H0V0.5z" transform="matrix(0.9510565162951535, -0.3090169943749474, -0.3090169943749474, -0.9510565162951535, 0.04894348370484647, 0.3090169943749474)"/></g></g><g transform="matrix(0.3090169943749474, -0.9510565162951535, 0.9510565162951535, 0.3090169943749474, 0, 0)"><path d="M1,0H0V0.5z" transform="rotate(18,1,0)"/><path d="M1,0H0V0.5z" transform="matrix(0.9510565162951535, -0.3090169943749474, -0.3090169943749474, -0.9510565162951535, 0.04894348370484647, 0.3090169943749474)"/></g><g transform="matrix(-0.8090169943749475, 0.5877852522924731, -0.5877852522924731, -0.8090169943749475, 0, 0)"><g><path d="M1,0H0V0.5z" transform="rotate(18,1,0)"/><path d="M1,0H0V0.5z" transform="matrix(0.9510565162951535, -0.3090169943749474, -0.3090169943749474, -0.9510565162951535, 0.04894348370484647, 0.3090169943749474)"/></g><g transform="matrix(0.3090169943749474, 0.9510565162951535, -0.9510565162951535, 0.3090169943749474, 0, 0)"><path d="M1,0H0V0.5z" transform="rotate(18,1,0)"/><path d="M1,0H0V0.5z" transform="matrix(0.9510565162951535, -0.3090169943749474, -0.3090169943749474, -0.9510565162951535, 0.04894348370484647, 0.3090169943749474)"/></g></g></g><clipPath id="usoh-a"><path d="M0,16V0L26,3 20,8 26,13z"/></clipPath></defs><g fill="#fff" stroke="#c1133d" clip-path="url(#usoh-a)" transform="matrix(24.615385, 0, 0, 30, 0, 0)"><path stroke-width="4" d="M26,3 0,0V16L26,13"/><path stroke-width="2" d="M0,8H26"/></g><path fill="#001c5a" d="M 0 0 L 0 480 L 393.846 240 L 0 0 Z"/><g transform="matrix(24.615385, 0, 0, 30, 121.705162, 240)"><circle r="3" fill="#fff"/><circle r="2" fill="#c1133d"/><g fill="#fff" transform="matrix(0.625, 0, 0, 0.625, 6.444272041320801, 0)"><g><g><path d="M1,0H0V0.5z" transform="rotate(18,1,0)"/><path d="M1,0H0V0.5z" transform="matrix(0.9510565162951535, -0.3090169943749474, -0.3090169943749474, -0.9510565162951535, 0.04894348370484647, 0.3090169943749474)"/></g><g transform="matrix(0.3090169943749474, 0.9510565162951535, -0.9510565162951535, 0.3090169943749474, 0, 0)"><path d="M1,0H0V0.5z" transform="rotate(18,1,0)"/><path d="M1,0H0V0.5z" transform="matrix(0.9510565162951535, -0.3090169943749474, -0.3090169943749474, -0.9510565162951535, 0.04894348370484647, 0.3090169943749474)"/></g></g><g transform="matrix(0.3090169943749474, -0.9510565162951535, 0.9510565162951535, 0.3090169943749474, 0, 0)"><path d="M1,0H0V0.5z" transform="rotate(18,1,0)"/><path d="M1,0H0V0.5z" transform="matrix(0.9510565162951535, -0.3090169943749474, -0.3090169943749474, -0.9510565162951535, 0.04894348370484647, 0.3090169943749474)"/></g><g transform="matrix(-0.8090169943749475, 0.5877852522924731, -0.5877852522924731, -0.8090169943749475, 0, 0)"><g><path d="M1,0H0V0.5z" transform="rotate(18,1,0)"/><path d="M1,0H0V0.5z" transform="matrix(0.9510565162951535, -0.3090169943749474, -0.3090169943749474, -0.9510565162951535, 0.04894348370484647, 0.3090169943749474)"/></g><g transform="matrix(0.3090169943749474, 0.9510565162951535, -0.9510565162951535, 0.3090169943749474, 0, 0)"><path d="M1,0H0V0.5z" transform="rotate(18,1,0)"/><path d="M1,0H0V0.5z" transform="matrix(0.9510565162951535, -0.3090169943749474, -0.3090169943749474, -0.9510565162951535, 0.04894348370484647, 0.3090169943749474)"/></g></g></g><g><g fill="#fff" transform="matrix(0.625, 0, 0, 0.625, 3.944272041320801, 0)"><g><g><path d="M1,0H0V0.5z" transform="rotate(18,1,0)"/><path d="M1,0H0V0.5z" transform="matrix(0.9510565162951535, -0.3090169943749474, -0.3090169943749474, -0.9510565162951535, 0.04894348370484647, 0.3090169943749474)"/></g><g transform="matrix(0.3090169943749474, 0.9510565162951535, -0.9510565162951535, 0.3090169943749474, 0, 0)"><path d="M1,0H0V0.5z" transform="rotate(18,1,0)"/><path d="M1,0H0V0.5z" transform="matrix(0.9510565162951535, -0.3090169943749474, -0.3090169943749474, -0.9510565162951535, 0.04894348370484647, 0.3090169943749474)"/></g></g><g transform="matrix(0.3090169943749474, -0.9510565162951535, 0.9510565162951535, 0.3090169943749474, 0, 0)"><path d="M1,0H0V0.5z" transform="rotate(18,1,0)"/><path d="M1,0H0V0.5z" transform="matrix(0.9510565162951535, -0.3090169943749474, -0.3090169943749474, -0.9510565162951535, 0.04894348370484647, 0.3090169943749474)"/></g><g transform="matrix(-0.8090169943749475, 0.5877852522924731, -0.5877852522924731, -0.8090169943749475, 0, 0)"><g><path d="M1,0H0V0.5z" transform="rotate(18,1,0)"/><path d="M1,0H0V0.5z" transform="matrix(0.9510565162951535, -0.3090169943749474, -0.3090169943749474, -0.9510565162951535, 0.04894348370484647, 0.3090169943749474)"/></g><g transform="matrix(0.3090169943749474, 0.9510565162951535, -0.9510565162951535, 0.3090169943749474, 0, 0)"><path d="M1,0H0V0.5z" transform="rotate(18,1,0)"/><path d="M1,0H0V0.5z" transform="matrix(0.9510565162951535, -0.3090169943749474, -0.3090169943749474, -0.9510565162951535, 0.04894348370484647, 0.3090169943749474)"/></g></g></g><g fill="#fff" transform="matrix(0.61615591943598, -0.10477062061476058, 0.10477062061476058, 0.61615591943598, 5.120770344672996, -0.8707313686577274)"><g><g><path d="M1,0H0V0.5z" transform="rotate(18,1,0)"/><path d="M1,0H0V0.5z" transform="matrix(0.9510565162951535, -0.3090169943749474, -0.3090169943749474, -0.9510565162951535, 0.04894348370484647, 0.3090169943749474)"/></g><g transform="matrix(0.3090169943749474, 0.9510565162951535, -0.9510565162951535, 0.3090169943749474, 0, 0)"><path d="M1,0H0V0.5z" transform="rotate(18,1,0)"/><path d="M1,0H0V0.5z" transform="matrix(0.9510565162951535, -0.3090169943749474, -0.3090169943749474, -0.9510565162951535, 0.04894348370484647, 0.3090169943749474)"/></g></g><g transform="matrix(0.3090169943749474, -0.9510565162951535, 0.9510565162951535, 0.3090169943749474, 0, 0)"><path d="M1,0H0V0.5z" transform="rotate(18,1,0)"/><path d="M1,0H0V0.5z" transform="matrix(0.9510565162951535, -0.3090169943749474, -0.3090169943749474, -0.9510565162951535, 0.04894348370484647, 0.3090169943749474)"/></g><g transform="matrix(-0.8090169943749475, 0.5877852522924731, -0.5877852522924731, -0.8090169943749475, 0, 0)"><g><path d="M1,0H0V0.5z" transform="rotate(18,1,0)"/><path d="M1,0H0V0.5z" transform="matrix(0.9510565162951535, -0.3090169943749474, -0.3090169943749474, -0.9510565162951535, 0.04894348370484647, 0.3090169943749474)"/></g><g transform="matrix(0.3090169943749474, 0.9510565162951535, -0.9510565162951535, 0.3090169943749474, 0, 0)"><path d="M1,0H0V0.5z" transform="rotate(18,1,0)"/><path d="M1,0H0V0.5z" transform="matrix(0.9510565162951535, -0.3090169943749474, -0.3090169943749474, -0.9510565162951535, 0.04894348370484647, 0.3090169943749474)"/></g></g></g><g fill="#fff" transform="matrix(0.61615591943598, 0.10477062061476058, -0.10477062061476058, 0.61615591943598, 5.120770344672996, 0.8707313686577274)"><g><g><path d="M1,0H0V0.5z" transform="rotate(18,1,0)"/><path d="M1,0H0V0.5z" transform="matrix(0.9510565162951535, -0.3090169943749474, -0.3090169943749474, -0.9510565162951535, 0.04894348370484647, 0.3090169943749474)"/></g><g transform="matrix(0.3090169943749474, 0.9510565162951535, -0.9510565162951535, 0.3090169943749474, 0, 0)"><path d="M1,0H0V0.5z" transform="rotate(18,1,0)"/><path d="M1,0H0V0.5z" transform="matrix(0.9510565162951535, -0.3090169943749474, -0.3090169943749474, -0.9510565162951535, 0.04894348370484647, 0.3090169943749474)"/></g></g><g transform="matrix(0.3090169943749474, -0.9510565162951535, 0.9510565162951535, 0.3090169943749474, 0, 0)"><path d="M1,0H0V0.5z" transform="rotate(18,1,0)"/><path d="M1,0H0V0.5z" transform="matrix(0.9510565162951535, -0.3090169943749474, -0.3090169943749474, -0.9510565162951535, 0.04894348370484647, 0.3090169943749474)"/></g><g transform="matrix(-0.8090169943749475, 0.5877852522924731, -0.5877852522924731, -0.8090169943749475, 0, 0)"><g><path d="M1,0H0V0.5z" transform="rotate(18,1,0)"/><path d="M1,0H0V0.5z" transform="matrix(0.9510565162951535, -0.3090169943749474, -0.3090169943749474, -0.9510565162951535, 0.04894348370484647, 0.3090169943749474)"/></g><g transform="matrix(0.3090169943749474, 0.9510565162951535, -0.9510565162951535, 0.3090169943749474, 0, 0)"><path d="M1,0H0V0.5z" transform="rotate(18,1,0)"/><path d="M1,0H0V0.5z" transform="matrix(0.9510565162951535, -0.3090169943749474, -0.3090169943749474, -0.9510565162951535, 0.04894348370484647, 0.3090169943749474)"/></g></g></g></g><g><g fill="#fff" transform="matrix(0.2795085055332728, 0.5590169902020479, -0.5590169902020479, 0.2795085055332728, 1.763932133897997, 3.527864136123586)"><g><g><path d="M1,0H0V0.5z" transform="rotate(18,1,0)"/><path d="M1,0H0V0.5z" transform="matrix(0.9510565162951535, -0.3090169943749474, -0.3090169943749474, -0.9510565162951535, 0.04894348370484647, 0.3090169943749474)"/></g><g transform="matrix(0.3090169943749474, 0.9510565162951535, -0.9510565162951535, 0.3090169943749474, 0, 0)"><path d="M1,0H0V0.5z" transform="rotate(18,1,0)"/><path d="M1,0H0V0.5z" transform="matrix(0.9510565162951535, -0.3090169943749474, -0.3090169943749474, -0.9510565162951535, 0.04894348370484647, 0.3090169943749474)"/></g></g><g transform="matrix(0.3090169943749474, -0.9510565162951535, 0.9510565162951535, 0.3090169943749474, 0, 0)"><path d="M1,0H0V0.5z" transform="rotate(18,1,0)"/><path d="M1,0H0V0.5z" transform="matrix(0.9510565162951535, -0.3090169943749474, -0.3090169943749474, -0.9510565162951535, 0.04894348370484647, 0.3090169943749474)"/></g><g transform="matrix(-0.8090169943749475, 0.5877852522924731, -0.5877852522924731, -0.8090169943749475, 0, 0)"><g><path d="M1,0H0V0.5z" transform="rotate(18,1,0)"/><path d="M1,0H0V0.5z" transform="matrix(0.9510565162951535, -0.3090169943749474, -0.3090169943749474, -0.9510565162951535, 0.04894348370484647, 0.3090169943749474)"/></g><g transform="matrix(0.3090169943749474, 0.9510565162951535, -0.9510565162951535, 0.3090169943749474, 0, 0)"><path d="M1,0H0V0.5z" transform="rotate(18,1,0)"/><path d="M1,0H0V0.5z" transform="matrix(0.9510565162951535, -0.3090169943749474, -0.3090169943749474, -0.9510565162951535, 0.04894348370484647, 0.3090169943749474)"/></g></g></g><g fill="#fff" transform="matrix(-0.028092623886589042, 0.6243683243752575, -0.6243683243752575, -0.028092623886589042, -0.17728792154114248, 3.9402856405114313)"><g><g><path d="M1,0H0V0.5z" transform="rotate(18,1,0)"/><path d="M1,0H0V0.5z" transform="matrix(0.9510565162951535, -0.3090169943749474, -0.3090169943749474, -0.9510565162951535, 0.04894348370484647, 0.3090169943749474)"/></g><g transform="matrix(0.3090169943749474, 0.9510565162951535, -0.9510565162951535, 0.3090169943749474, 0, 0)"><path d="M1,0H0V0.5z" transform="rotate(18,1,0)"/><path d="M1,0H0V0.5z" transform="matrix(0.9510565162951535, -0.3090169943749474, -0.3090169943749474, -0.9510565162951535, 0.04894348370484647, 0.3090169943749474)"/></g></g><g transform="matrix(0.3090169943749474, -0.9510565162951535, 0.9510565162951535, 0.3090169943749474, 0, 0)"><path d="M1,0H0V0.5z" transform="rotate(18,1,0)"/><path d="M1,0H0V0.5z" transform="matrix(0.9510565162951535, -0.3090169943749474, -0.3090169943749474, -0.9510565162951535, 0.04894348370484647, 0.3090169943749474)"/></g><g transform="matrix(-0.8090169943749475, 0.5877852522924731, -0.5877852522924731, -0.8090169943749475, 0, 0)"><g><path d="M1,0H0V0.5z" transform="rotate(18,1,0)"/><path d="M1,0H0V0.5z" transform="matrix(0.9510565162951535, -0.3090169943749474, -0.3090169943749474, -0.9510565162951535, 0.04894348370484647, 0.3090169943749474)"/></g><g transform="matrix(0.3090169943749474, 0.9510565162951535, -0.9510565162951535, 0.3090169943749474, 0, 0)"><path d="M1,0H0V0.5z" transform="rotate(18,1,0)"/><path d="M1,0H0V0.5z" transform="matrix(0.9510565162951535, -0.3090169943749474, -0.3090169943749474, -0.9510565162951535, 0.04894348370484647, 0.3090169943749474)"/></g></g></g><g transform="matrix(-0.5257311340870239, 0.8506507947751367, -0.8506507947751367, -0.5257311340870239, 0, 0)"><g fill="#fff" transform="matrix(0.625, 0, 0, 0.625, 3.944272041320801, 0)"><g><g><path d="M1,0H0V0.5z" transform="rotate(18,1,0)"/><path d="M1,0H0V0.5z" transform="matrix(0.9510565162951535, -0.3090169943749474, -0.3090169943749474, -0.9510565162951535, 0.04894348370484647, 0.3090169943749474)"/></g><g transform="matrix(0.3090169943749474, 0.9510565162951535, -0.9510565162951535, 0.3090169943749474, 0, 0)"><path d="M1,0H0V0.5z" transform="rotate(18,1,0)"/><path d="M1,0H0V0.5z" transform="matrix(0.9510565162951535, -0.3090169943749474, -0.3090169943749474, -0.9510565162951535, 0.04894348370484647, 0.3090169943749474)"/></g></g><g transform="matrix(0.3090169943749474, -0.9510565162951535, 0.9510565162951535, 0.3090169943749474, 0, 0)"><path d="M1,0H0V0.5z" transform="rotate(18,1,0)"/><path d="M1,0H0V0.5z" transform="matrix(0.9510565162951535, -0.3090169943749474, -0.3090169943749474, -0.9510565162951535, 0.04894348370484647, 0.3090169943749474)"/></g><g transform="matrix(-0.8090169943749475, 0.5877852522924731, -0.5877852522924731, -0.8090169943749475, 0, 0)"><g><path d="M1,0H0V0.5z" transform="rotate(18,1,0)"/><path d="M1,0H0V0.5z" transform="matrix(0.9510565162951535, -0.3090169943749474, -0.3090169943749474, -0.9510565162951535, 0.04894348370484647, 0.3090169943749474)"/></g><g transform="matrix(0.3090169943749474, 0.9510565162951535, -0.9510565162951535, 0.3090169943749474, 0, 0)"><path d="M1,0H0V0.5z" transform="rotate(18,1,0)"/><path d="M1,0H0V0.5z" transform="matrix(0.9510565162951535, -0.3090169943749474, -0.3090169943749474, -0.9510565162951535, 0.04894348370484647, 0.3090169943749474)"/></g></g></g><g fill="#fff" transform="matrix(0.61615591943598, -0.10477062061476058, 0.10477062061476058, 0.61615591943598, 5.120770344672996, -0.8707313686577274)"><g><g><path d="M1,0H0V0.5z" transform="rotate(18,1,0)"/><path d="M1,0H0V0.5z" transform="matrix(0.9510565162951535, -0.3090169943749474, -0.3090169943749474, -0.9510565162951535, 0.04894348370484647, 0.3090169943749474)"/></g><g transform="matrix(0.3090169943749474, 0.9510565162951535, -0.9510565162951535, 0.3090169943749474, 0, 0)"><path d="M1,0H0V0.5z" transform="rotate(18,1,0)"/><path d="M1,0H0V0.5z" transform="matrix(0.9510565162951535, -0.3090169943749474, -0.3090169943749474, -0.9510565162951535, 0.04894348370484647, 0.3090169943749474)"/></g></g><g transform="matrix(0.3090169943749474, -0.9510565162951535, 0.9510565162951535, 0.3090169943749474, 0, 0)"><path d="M1,0H0V0.5z" transform="rotate(18,1,0)"/><path d="M1,0H0V0.5z" transform="matrix(0.9510565162951535, -0.3090169943749474, -0.3090169943749474, -0.9510565162951535, 0.04894348370484647, 0.3090169943749474)"/></g><g transform="matrix(-0.8090169943749475, 0.5877852522924731, -0.5877852522924731, -0.8090169943749475, 0, 0)"><g><path d="M1,0H0V0.5z" transform="rotate(18,1,0)"/><path d="M1,0H0V0.5z" transform="matrix(0.9510565162951535, -0.3090169943749474, -0.3090169943749474, -0.9510565162951535, 0.04894348370484647, 0.3090169943749474)"/></g><g transform="matrix(0.3090169943749474, 0.9510565162951535, -0.9510565162951535, 0.3090169943749474, 0, 0)"><path d="M1,0H0V0.5z" transform="rotate(18,1,0)"/><path d="M1,0H0V0.5z" transform="matrix(0.9510565162951535, -0.3090169943749474, -0.3090169943749474, -0.9510565162951535, 0.04894348370484647, 0.3090169943749474)"/></g></g></g><g fill="#fff" transform="matrix(0.61615591943598, 0.10477062061476058, -0.10477062061476058, 0.61615591943598, 5.120770344672996, 0.8707313686577274)"><g><g><path d="M1,0H0V0.5z" transform="rotate(18,1,0)"/><path d="M1,0H0V0.5z" transform="matrix(0.9510565162951535, -0.3090169943749474, -0.3090169943749474, -0.9510565162951535, 0.04894348370484647, 0.3090169943749474)"/></g><g transform="matrix(0.3090169943749474, 0.9510565162951535, -0.9510565162951535, 0.3090169943749474, 0, 0)"><path d="M1,0H0V0.5z" transform="rotate(18,1,0)"/><path d="M1,0H0V0.5z" transform="matrix(0.9510565162951535, -0.3090169943749474, -0.3090169943749474, -0.9510565162951535, 0.04894348370484647, 0.3090169943749474)"/></g></g><g transform="matrix(0.3090169943749474, -0.9510565162951535, 0.9510565162951535, 0.3090169943749474, 0, 0)"><path d="M1,0H0V0.5z" transform="rotate(18,1,0)"/><path d="M1,0H0V0.5z" transform="matrix(0.9510565162951535, -0.3090169943749474, -0.3090169943749474, -0.9510565162951535, 0.04894348370484647, 0.3090169943749474)"/></g><g transform="matrix(-0.8090169943749475, 0.5877852522924731, -0.5877852522924731, -0.8090169943749475, 0, 0)"><g><path d="M1,0H0V0.5z" transform="rotate(18,1,0)"/><path d="M1,0H0V0.5z" transform="matrix(0.9510565162951535, -0.3090169943749474, -0.3090169943749474, -0.9510565162951535, 0.04894348370484647, 0.3090169943749474)"/></g><g transform="matrix(0.3090169943749474, 0.9510565162951535, -0.9510565162951535, 0.3090169943749474, 0, 0)"><path d="M1,0H0V0.5z" transform="rotate(18,1,0)"/><path d="M1,0H0V0.5z" transform="matrix(0.9510565162951535, -0.3090169943749474, -0.3090169943749474, -0.9510565162951535, 0.04894348370484647, 0.3090169943749474)"/></g></g></g></g><g fill="#fff" transform="matrix(-0.5458885783776097, 0.30435285442537285, -0.30435285442537285, -0.5458885783776097, -3.445012891793864, 1.9207207270498847)"><g><g><path d="M1,0H0V0.5z" transform="rotate(18,1,0)"/><path d="M1,0H0V0.5z" transform="matrix(0.9510565162951535, -0.3090169943749474, -0.3090169943749474, -0.9510565162951535, 0.04894348370484647, 0.3090169943749474)"/></g><g transform="matrix(0.3090169943749474, 0.9510565162951535, -0.9510565162951535, 0.3090169943749474, 0, 0)"><path d="M1,0H0V0.5z" transform="rotate(18,1,0)"/><path d="M1,0H0V0.5z" transform="matrix(0.9510565162951535, -0.3090169943749474, -0.3090169943749474, -0.9510565162951535, 0.04894348370484647, 0.3090169943749474)"/></g></g><g transform="matrix(0.3090169943749474, -0.9510565162951535, 0.9510565162951535, 0.3090169943749474, 0, 0)"><path d="M1,0H0V0.5z" transform="rotate(18,1,0)"/><path d="M1,0H0V0.5z" transform="matrix(0.9510565162951535, -0.3090169943749474, -0.3090169943749474, -0.9510565162951535, 0.04894348370484647, 0.3090169943749474)"/></g><g transform="matrix(-0.8090169943749475, 0.5877852522924731, -0.5877852522924731, -0.8090169943749475, 0, 0)"><g><path d="M1,0H0V0.5z" transform="rotate(18,1,0)"/><path d="M1,0H0V0.5z" transform="matrix(0.9510565162951535, -0.3090169943749474, -0.3090169943749474, -0.9510565162951535, 0.04894348370484647, 0.3090169943749474)"/></g><g transform="matrix(0.3090169943749474, 0.9510565162951535, -0.9510565162951535, 0.3090169943749474, 0, 0)"><path d="M1,0H0V0.5z" transform="rotate(18,1,0)"/><path d="M1,0H0V0.5z" transform="matrix(0.9510565162951535, -0.3090169943749474, -0.3090169943749474, -0.9510565162951535, 0.04894348370484647, 0.3090169943749474)"/></g></g></g></g><g fill="#fff" transform="matrix(-0.625, 0, 0, -0.625, -3.944272041320801, 0)"><g><g><path d="M1,0H0V0.5z" transform="rotate(18,1,0)"/><path d="M1,0H0V0.5z" transform="matrix(0.9510565162951535, -0.3090169943749474, -0.3090169943749474, -0.9510565162951535, 0.04894348370484647, 0.3090169943749474)"/></g><g transform="matrix(0.3090169943749474, 0.9510565162951535, -0.9510565162951535, 0.3090169943749474, 0, 0)"><path d="M1,0H0V0.5z" transform="rotate(18,1,0)"/><path d="M1,0H0V0.5z" transform="matrix(0.9510565162951535, -0.3090169943749474, -0.3090169943749474, -0.9510565162951535, 0.04894348370484647, 0.3090169943749474)"/></g></g><g transform="matrix(0.3090169943749474, -0.9510565162951535, 0.9510565162951535, 0.3090169943749474, 0, 0)"><path d="M1,0H0V0.5z" transform="rotate(18,1,0)"/><path d="M1,0H0V0.5z" transform="matrix(0.9510565162951535, -0.3090169943749474, -0.3090169943749474, -0.9510565162951535, 0.04894348370484647, 0.3090169943749474)"/></g><g transform="matrix(-0.8090169943749475, 0.5877852522924731, -0.5877852522924731, -0.8090169943749475, 0, 0)"><g><path d="M1,0H0V0.5z" transform="rotate(18,1,0)"/><path d="M1,0H0V0.5z" transform="matrix(0.9510565162951535, -0.3090169943749474, -0.3090169943749474, -0.9510565162951535, 0.04894348370484647, 0.3090169943749474)"/></g><g transform="matrix(0.3090169943749474, 0.9510565162951535, -0.9510565162951535, 0.3090169943749474, 0, 0)"><path d="M1,0H0V0.5z" transform="rotate(18,1,0)"/><path d="M1,0H0V0.5z" transform="matrix(0.9510565162951535, -0.3090169943749474, -0.3090169943749474, -0.9510565162951535, 0.04894348370484647, 0.3090169943749474)"/></g></g></g><g transform="matrix(1, 0, 0, -1, 0, 0)"><g fill="#fff" transform="matrix(0.2795085055332728, 0.5590169902020479, -0.5590169902020479, 0.2795085055332728, 1.763932133897997, 3.527864136123586)"><g><g><path d="M1,0H0V0.5z" transform="rotate(18,1,0)"/><path d="M1,0H0V0.5z" transform="matrix(0.9510565162951535, -0.3090169943749474, -0.3090169943749474, -0.9510565162951535, 0.04894348370484647, 0.3090169943749474)"/></g><g transform="matrix(0.3090169943749474, 0.9510565162951535, -0.9510565162951535, 0.3090169943749474, 0, 0)"><path d="M1,0H0V0.5z" transform="rotate(18,1,0)"/><path d="M1,0H0V0.5z" transform="matrix(0.9510565162951535, -0.3090169943749474, -0.3090169943749474, -0.9510565162951535, 0.04894348370484647, 0.3090169943749474)"/></g></g><g transform="matrix(0.3090169943749474, -0.9510565162951535, 0.9510565162951535, 0.3090169943749474, 0, 0)"><path d="M1,0H0V0.5z" transform="rotate(18,1,0)"/><path d="M1,0H0V0.5z" transform="matrix(0.9510565162951535, -0.3090169943749474, -0.3090169943749474, -0.9510565162951535, 0.04894348370484647, 0.3090169943749474)"/></g><g transform="matrix(-0.8090169943749475, 0.5877852522924731, -0.5877852522924731, -0.8090169943749475, 0, 0)"><g><path d="M1,0H0V0.5z" transform="rotate(18,1,0)"/><path d="M1,0H0V0.5z" transform="matrix(0.9510565162951535, -0.3090169943749474, -0.3090169943749474, -0.9510565162951535, 0.04894348370484647, 0.3090169943749474)"/></g><g transform="matrix(0.3090169943749474, 0.9510565162951535, -0.9510565162951535, 0.3090169943749474, 0, 0)"><path d="M1,0H0V0.5z" transform="rotate(18,1,0)"/><path d="M1,0H0V0.5z" transform="matrix(0.9510565162951535, -0.3090169943749474, -0.3090169943749474, -0.9510565162951535, 0.04894348370484647, 0.3090169943749474)"/></g></g></g><g fill="#fff" transform="matrix(-0.028092623886589042, 0.6243683243752575, -0.6243683243752575, -0.028092623886589042, -0.17728792154114248, 3.9402856405114313)"><g><g><path d="M1,0H0V0.5z" transform="rotate(18,1,0)"/><path d="M1,0H0V0.5z" transform="matrix(0.9510565162951535, -0.3090169943749474, -0.3090169943749474, -0.9510565162951535, 0.04894348370484647, 0.3090169943749474)"/></g><g transform="matrix(0.3090169943749474, 0.9510565162951535, -0.9510565162951535, 0.3090169943749474, 0, 0)"><path d="M1,0H0V0.5z" transform="rotate(18,1,0)"/><path d="M1,0H0V0.5z" transform="matrix(0.9510565162951535, -0.3090169943749474, -0.3090169943749474, -0.9510565162951535, 0.04894348370484647, 0.3090169943749474)"/></g></g><g transform="matrix(0.3090169943749474, -0.9510565162951535, 0.9510565162951535, 0.3090169943749474, 0, 0)"><path d="M1,0H0V0.5z" transform="rotate(18,1,0)"/><path d="M1,0H0V0.5z" transform="matrix(0.9510565162951535, -0.3090169943749474, -0.3090169943749474, -0.9510565162951535, 0.04894348370484647, 0.3090169943749474)"/></g><g transform="matrix(-0.8090169943749475, 0.5877852522924731, -0.5877852522924731, -0.8090169943749475, 0, 0)"><g><path d="M1,0H0V0.5z" transform="rotate(18,1,0)"/><path d="M1,0H0V0.5z" transform="matrix(0.9510565162951535, -0.3090169943749474, -0.3090169943749474, -0.9510565162951535, 0.04894348370484647, 0.3090169943749474)"/></g><g transform="matrix(0.3090169943749474, 0.9510565162951535, -0.9510565162951535, 0.3090169943749474, 0, 0)"><path d="M1,0H0V0.5z" transform="rotate(18,1,0)"/><path d="M1,0H0V0.5z" transform="matrix(0.9510565162951535, -0.3090169943749474, -0.3090169943749474, -0.9510565162951535, 0.04894348370484647, 0.3090169943749474)"/></g></g></g><g transform="matrix(-0.5257311340870239, 0.8506507947751367, -0.8506507947751367, -0.5257311340870239, 0, 0)"><g fill="#fff" transform="matrix(0.625, 0, 0, 0.625, 3.944272041320801, 0)"><g><g><path d="M1,0H0V0.5z" transform="rotate(18,1,0)"/><path d="M1,0H0V0.5z" transform="matrix(0.9510565162951535, -0.3090169943749474, -0.3090169943749474, -0.9510565162951535, 0.04894348370484647, 0.3090169943749474)"/></g><g transform="matrix(0.3090169943749474, 0.9510565162951535, -0.9510565162951535, 0.3090169943749474, 0, 0)"><path d="M1,0H0V0.5z" transform="rotate(18,1,0)"/><path d="M1,0H0V0.5z" transform="matrix(0.9510565162951535, -0.3090169943749474, -0.3090169943749474, -0.9510565162951535, 0.04894348370484647, 0.3090169943749474)"/></g></g><g transform="matrix(0.3090169943749474, -0.9510565162951535, 0.9510565162951535, 0.3090169943749474, 0, 0)"><path d="M1,0H0V0.5z" transform="rotate(18,1,0)"/><path d="M1,0H0V0.5z" transform="matrix(0.9510565162951535, -0.3090169943749474, -0.3090169943749474, -0.9510565162951535, 0.04894348370484647, 0.3090169943749474)"/></g><g transform="matrix(-0.8090169943749475, 0.5877852522924731, -0.5877852522924731, -0.8090169943749475, 0, 0)"><g><path d="M1,0H0V0.5z" transform="rotate(18,1,0)"/><path d="M1,0H0V0.5z" transform="matrix(0.9510565162951535, -0.3090169943749474, -0.3090169943749474, -0.9510565162951535, 0.04894348370484647, 0.3090169943749474)"/></g><g transform="matrix(0.3090169943749474, 0.9510565162951535, -0.9510565162951535, 0.3090169943749474, 0, 0)"><path d="M1,0H0V0.5z" transform="rotate(18,1,0)"/><path d="M1,0H0V0.5z" transform="matrix(0.9510565162951535, -0.3090169943749474, -0.3090169943749474, -0.9510565162951535, 0.04894348370484647, 0.3090169943749474)"/></g></g></g><g fill="#fff" transform="matrix(0.61615591943598, -0.10477062061476058, 0.10477062061476058, 0.61615591943598, 5.120770344672996, -0.8707313686577274)"><g><g><path d="M1,0H0V0.5z" transform="rotate(18,1,0)"/><path d="M1,0H0V0.5z" transform="matrix(0.9510565162951535, -0.3090169943749474, -0.3090169943749474, -0.9510565162951535, 0.04894348370484647, 0.3090169943749474)"/></g><g transform="matrix(0.3090169943749474, 0.9510565162951535, -0.9510565162951535, 0.3090169943749474, 0, 0)"><path d="M1,0H0V0.5z" transform="rotate(18,1,0)"/><path d="M1,0H0V0.5z" transform="matrix(0.9510565162951535, -0.3090169943749474, -0.3090169943749474, -0.9510565162951535, 0.04894348370484647, 0.3090169943749474)"/></g></g><g transform="matrix(0.3090169943749474, -0.9510565162951535, 0.9510565162951535, 0.3090169943749474, 0, 0)"><path d="M1,0H0V0.5z" transform="rotate(18,1,0)"/><path d="M1,0H0V0.5z" transform="matrix(0.9510565162951535, -0.3090169943749474, -0.3090169943749474, -0.9510565162951535, 0.04894348370484647, 0.3090169943749474)"/></g><g transform="matrix(-0.8090169943749475, 0.5877852522924731, -0.5877852522924731, -0.8090169943749475, 0, 0)"><g><path d="M1,0H0V0.5z" transform="rotate(18,1,0)"/><path d="M1,0H0V0.5z" transform="matrix(0.9510565162951535, -0.3090169943749474, -0.3090169943749474, -0.9510565162951535, 0.04894348370484647, 0.3090169943749474)"/></g><g transform="matrix(0.3090169943749474, 0.9510565162951535, -0.9510565162951535, 0.3090169943749474, 0, 0)"><path d="M1,0H0V0.5z" transform="rotate(18,1,0)"/><path d="M1,0H0V0.5z" transform="matrix(0.9510565162951535, -0.3090169943749474, -0.3090169943749474, -0.9510565162951535, 0.04894348370484647, 0.3090169943749474)"/></g></g></g><g fill="#fff" transform="matrix(0.61615591943598, 0.10477062061476058, -0.10477062061476058, 0.61615591943598, 5.120770344672996, 0.8707313686577274)"><g><g><path d="M1,0H0V0.5z" transform="rotate(18,1,0)"/><path d="M1,0H0V0.5z" transform="matrix(0.9510565162951535, -0.3090169943749474, -0.3090169943749474, -0.9510565162951535, 0.04894348370484647, 0.3090169943749474)"/></g><g transform="matrix(0.3090169943749474, 0.9510565162951535, -0.9510565162951535, 0.3090169943749474, 0, 0)"><path d="M1,0H0V0.5z" transform="rotate(18,1,0)"/><path d="M1,0H0V0.5z" transform="matrix(0.9510565162951535, -0.3090169943749474, -0.3090169943749474, -0.9510565162951535, 0.04894348370484647, 0.3090169943749474)"/></g></g><g transform="matrix(0.3090169943749474, -0.9510565162951535, 0.9510565162951535, 0.3090169943749474, 0, 0)"><path d="M1,0H0V0.5z" transform="rotate(18,1,0)"/><path d="M1,0H0V0.5z" transform="matrix(0.9510565162951535, -0.3090169943749474, -0.3090169943749474, -0.9510565162951535, 0.04894348370484647, 0.3090169943749474)"/></g><g transform="matrix(-0.8090169943749475, 0.5877852522924731, -0.5877852522924731, -0.8090169943749475, 0, 0)"><g><path d="M1,0H0V0.5z" transform="rotate(18,1,0)"/><path d="M1,0H0V0.5z" transform="matrix(0.9510565162951535, -0.3090169943749474, -0.3090169943749474, -0.9510565162951535, 0.04894348370484647, 0.3090169943749474)"/></g><g transform="matrix(0.3090169943749474, 0.9510565162951535, -0.9510565162951535, 0.3090169943749474, 0, 0)"><path d="M1,0H0V0.5z" transform="rotate(18,1,0)"/><path d="M1,0H0V0.5z" transform="matrix(0.9510565162951535, -0.3090169943749474, -0.3090169943749474, -0.9510565162951535, 0.04894348370484647, 0.3090169943749474)"/></g></g></g></g><g fill="#fff" transform="matrix(-0.5458885783776097, 0.30435285442537285, -0.30435285442537285, -0.5458885783776097, -3.445012891793864, 1.9207207270498847)"><g><g><path d="M1,0H0V0.5z" transform="rotate(18,1,0)"/><path d="M1,0H0V0.5z" transform="matrix(0.9510565162951535, -0.3090169943749474, -0.3090169943749474, -0.9510565162951535, 0.04894348370484647, 0.3090169943749474)"/></g><g transform="matrix(0.3090169943749474, 0.9510565162951535, -0.9510565162951535, 0.3090169943749474, 0, 0)"><path d="M1,0H0V0.5z" transform="rotate(18,1,0)"/><path d="M1,0H0V0.5z" transform="matrix(0.9510565162951535, -0.3090169943749474, -0.3090169943749474, -0.9510565162951535, 0.04894348370484647, 0.3090169943749474)"/></g></g><g transform="matrix(0.3090169943749474, -0.9510565162951535, 0.9510565162951535, 0.3090169943749474, 0, 0)"><path d="M1,0H0V0.5z" transform="rotate(18,1,0)"/><path d="M1,0H0V0.5z" transform="matrix(0.9510565162951535, -0.3090169943749474, -0.3090169943749474, -0.9510565162951535, 0.04894348370484647, 0.3090169943749474)"/></g><g transform="matrix(-0.8090169943749475, 0.5877852522924731, -0.5877852522924731, -0.8090169943749475, 0, 0)"><g><path d="M1,0H0V0.5z" transform="rotate(18,1,0)"/><path d="M1,0H0V0.5z" transform="matrix(0.9510565162951535, -0.3090169943749474, -0.3090169943749474, -0.9510565162951535, 0.04894348370484647, 0.3090169943749474)"/></g><g transform="matrix(0.3090169943749474, 0.9510565162951535, -0.9510565162951535, 0.3090169943749474, 0, 0)"><path d="M1,0H0V0.5z" transform="rotate(18,1,0)"/><path d="M1,0H0V0.5z" transform="matrix(0.9510565162951535, -0.3090169943749474, -0.3090169943749474, -0.9510565162951535, 0.04894348370484647, 0.3090169943749474)"/></g></g></g></g></g></svg>