<svg xmlns="http://www.w3.org/2000/svg" viewBox="0 0 640 480"><defs><path d="M0-1 .58779.80902-.95106-.30902H.95106L-.58779.80902z" transform="matrix(40 0 0 40 0 -205)"/></defs><path d="M 0 0 L 640 0 L 640 480 L 0 480 L 0 0 Z" style="fill:#fff"/><g transform="matrix(0.934991, 0, 0, 0.934991, 11.452935, -32.074638)"><g style="fill:#fec500;stroke-width:1.5"><path d="M325.78 185.52s-1.06 118.22-1.06 126.82c0 8.6 0 20.42-9.5 18.27-9.48-2.15-21.09-2.15-37.97-13.97-16.87-11.82-16.87-13.97-16.87-13.97l15.82-5.38s-15.82-3.22-26.37-10.74c-10.55-7.53-18.99-13.98-18.99-13.98s-1.05 16.13 4.22 27.95c5.28 11.82 15.82 22.57 15.82 22.57v-13.97s14.77 13.97 20.05 17.2c5.27 3.22 26.37 11.82 34.8 17.2 8.44 5.36 23.90429 20.41 23.90429 20.41s16.18571-17.2 26.73571-21.5c10.55-4.3 24.26-10.74 30.59-15.04 6.33-4.3 23.2-20.42 23.2-20.42v18.27s11.6-13.97 14.77-23.65c3.17-9.67 4.22-26.87 4.22-26.87s-8.44 6.45-15.82 9.68c-7.39 3.22-28.48 11.82-28.48 11.82l16.87 4.3s-27.42 21.5-36.91 25.8c-17.28641 8.31118-29.54 6.44-29.54-4.3s1.06-136.5 1.06-136.5zm1.05-39.77h7.38v32.24h-7.38z" style="stroke:#fec500"/><path d="M274.1 178s29.53-6.45 56.95-6.45 55.9 6.44 55.9 6.44v11.83s-37.97 5.37-60.12 5.37-52.73822-6.45-52.73822-6.45z" style="stroke:#fff"/><path d="M347.91995 172.08c0-4.9-1.89-9.3325-4.945-12.54-1.5275-1.60375-3.34625-2.90125-5.36563-3.79781-1.00968-.44828-.83079-.61936-1.92946-.85534l.0323 6.14246c1.32423.65313 1.63221 1.30319 2.6341 2.47069 2.00374 2.335 3.24374 5.56 3.24374 9.12 0 7.12-4.96 11.7321-11.07 11.7321s-11.07-4.6121-11.07-11.7321c0-3.56 1.24-6.785 3.24375-9.12 1.00188-1.1675 1.30987-1.81756 2.63409-2.47069l.0323-6.14246c-1.09867.23598-.91978.40706-1.92946.85534-2.01938.89656-3.83813 2.19406-5.36563 3.79781-3.055 3.2075-4.945 7.64-4.945 12.54 0 9.8 8.0319 17.74 17.39995 17.74s17.39995-7.94 17.39995-17.74z" style="fill-rule:evenodd;stroke:#fff"/></g><g style="fill:#003271;stroke:#fff;stroke-linejoin:round"><path d="M232.37 378.37s14.01 12.8 27.72 14.62c13.71 1.83 35.3 8.27 35.3 8.27s.57 19.72-.1 21.43c-.67 1.71-1.1 2.16-3.07 2.23-6.39.23-21.95.25-38.88-3.69-22.13-5.15-43.84-18.47-43.84-18.47 5.06-2.08 17.3-3.91 25.2-5.87zM427.63 378.37s-14.01 12.8-27.72 14.62c-13.71 1.83-35.3 8.27-35.3 8.27s-.57 19.72.1 21.43c.67 1.71 1.1 2.16 3.07 2.23 6.39.23 21.95.25 38.88-3.69 22.13-5.15 43.84-18.47 43.84-18.47-5.06-2.08-17.3-3.91-25.2-5.87z"/><path d="M277.26 407.99c-2.44-.76-3.86.83-3.86.83v-34.16s1.48-1.34 4.06-.21c9.1 3.97 32.56 12.02 52.54 12.02 19.98 0 43.44-8.05 52.54-12.02 2.58-1.13 4.06.2 4.06.2v34.17s-1.42-1.6-3.86-.83c-9.7 3.01-35.06 10.5-52.74 10.5S286.96 411 277.26 408z"/><path d="M386.6 408.82c1.5 4-22.18 7.7-21.89 13.87M273.4 408.82c-1.5 4 22.18 7.7 21.89 13.87" style="fill:#003271;stroke:#fff;stroke-linejoin:round"/></g><g style="fill:#fec500" transform="matrix(1, 0, 0, 1, 330, 290)"><path d="M0-1 .58779.80902-.95106-.30902H.95106L-.58779.80902z" transform="matrix(40, 0, 0, 40, 0, -205)"/><g><path d="M0-1 .58779.80902-.95106-.30902H.95106L-.58779.80902z" transform="matrix(35.41898952717208, 18.587500662382624, -18.587500662382624, 35.41898952717208, 95.26094089471096, -181.52232132675692)"/><path d="M0-1 .58779.80902-.95106-.30902H.95106L-.58779.80902z" transform="matrix(22.725240956296272, 32.917524564861715, -32.917524564861715, 22.725240956296272, 168.7023133949163, -116.4668599010184)"/><path d="M0-1 .58779.80902-.95106-.30902H.95106L-.58779.80902z" transform="matrix(4.819333498764985, 39.708613985225945, -39.708613985225945, 4.819333498764985, 203.506646674283, -24.69908418117055)"/><path d="M0-1 .58779.80902-.95106-.30902H.95106L-.58779.80902z" transform="matrix(-14.18469541567011, 37.40046010364936, -37.40046010364936, -14.18469541567011, 191.67735803120297, 72.69656400530931)"/><path d="M0-1 .58779.80902-.95106-.30902H.95106L-.58779.80902z" transform="matrix(-29.939720798233367, 26.525706748809394, -26.525706748809394, -29.939720798233367, 135.94424708764814, 153.441069090946)"/><path d="M0-1 .58779.80902-.95106-.30902H.95106L-.58779.80902z" transform="matrix(-38.837028997784635, 9.575237784266003, -9.575237784266003, -38.837028997784635, 49.07309364436327, 199.03977361364628)"/></g><g transform="matrix(-1, 0, 0, 1, 0, 0)"><path d="M0-1 .58779.80902-.95106-.30902H.95106L-.58779.80902z" transform="matrix(35.41898952717208, 18.587500662382624, -18.587500662382624, 35.41898952717208, 95.26094089471096, -181.52232132675692)"/><path d="M0-1 .58779.80902-.95106-.30902H.95106L-.58779.80902z" transform="matrix(22.725240956296272, 32.917524564861715, -32.917524564861715, 22.725240956296272, 168.7023133949163, -116.4668599010184)"/><path d="M0-1 .58779.80902-.95106-.30902H.95106L-.58779.80902z" transform="matrix(4.819333498764985, 39.708613985225945, -39.708613985225945, 4.819333498764985, 203.506646674283, -24.69908418117055)"/><path d="M0-1 .58779.80902-.95106-.30902H.95106L-.58779.80902z" transform="matrix(-14.18469541567011, 37.40046010364936, -37.40046010364936, -14.18469541567011, 191.67735803120297, 72.69656400530931)"/><path d="M0-1 .58779.80902-.95106-.30902H.95106L-.58779.80902z" transform="matrix(-29.939720798233367, 26.525706748809394, -26.525706748809394, -29.939720798233367, 135.94424708764814, 153.441069090946)"/><path d="M0-1 .58779.80902-.95106-.30902H.95106L-.58779.80902z" transform="matrix(-38.837028997784635, 9.575237784266003, -9.575237784266003, -38.837028997784635, 49.07309364436327, 199.03977361364628)"/></g></g><path d="M 363.248 385.221 C 368.885 383.686 374.472 381.962 380.037 380.18 C 380.112 381.905 380.171 383.635 380.215 385.369 C 376.679 386.457 373.147 387.535 369.609 388.565 C 369.618 389.841 369.625 391.119 369.627 392.397 C 372.92 391.45 376.213 390.467 379.515 389.48 C 379.533 391.14 379.538 392.805 379.529 394.473 C 376.217 395.428 372.916 396.391 369.619 397.324 C 369.611 398.912 369.597 400.503 369.578 402.095 C 373.227 401.079 376.88 400.036 380.55 399.021 C 380.509 400.887 380.451 402.758 380.375 404.634 C 374.628 406.148 368.914 407.78 363.175 409.286 C 363.26 401.247 363.285 393.226 363.248 385.221 L 363.248 385.221 Z M 337.252 390.349 C 340.858 390.017 344.446 389.475 348.011 388.797 C 350.344 388.353 352.075 388.606 353.224 389.631 C 353.637 389.995 353.975 390.445 354.239 390.98 C 354.714 391.94 354.95 393.177 354.948 394.692 C 354.946 396.184 354.706 397.532 354.228 398.731 C 353.933 399.48 353.545 400.172 353.064 400.802 C 351.827 402.436 349.922 403.531 347.344 403.987 C 346.177 404.193 345.004 404.383 343.829 404.555 C 343.816 407.513 343.789 410.472 343.748 413.434 C 341.588 413.737 339.419 413.978 337.244 414.145 C 337.35 406.201 337.353 398.269 337.253 390.349 L 337.252 390.349 Z M 343.836 399.713 C 344.362 399.634 344.888 399.552 345.413 399.466 C 346.651 399.264 347.519 398.859 348.016 398.277 C 348.514 397.684 348.763 396.998 348.761 396.224 C 348.759 395.472 348.541 394.877 348.105 394.436 C 347.669 393.994 346.853 393.887 345.65 394.09 C 345.039 394.193 344.427 394.291 343.814 394.385 C 343.827 396.16 343.834 397.936 343.836 399.713 L 343.836 399.713 Z M 306.907 399.83 C 306.887 395.929 307.823 393.114 309.716 391.326 C 311.618 389.53 314.254 388.962 317.665 389.43 C 321.156 389.909 323.854 391.173 325.762 393.392 C 327.67 395.6 328.642 398.56 328.643 402.376 C 328.644 405.145 328.219 407.416 327.378 409.168 C 326.548 410.908 325.345 412.24 323.783 413.119 C 322.23 413.989 320.297 414.306 317.984 414.016 C 315.637 413.722 313.684 412.981 312.139 411.861 C 310.601 410.741 309.346 409.144 308.379 407.096 C 307.413 405.048 306.921 402.617 306.907 399.83 L 306.907 399.83 Z M 313.309 401.114 C 313.318 403.514 313.719 405.309 314.503 406.479 C 315.298 407.65 316.37 408.336 317.721 408.51 C 319.109 408.69 320.186 408.291 320.947 407.344 C 321.708 406.396 322.086 404.59 322.082 401.939 C 322.079 399.705 321.676 398.045 320.871 396.936 C 320.075 395.818 318.994 395.179 317.628 394.995 C 316.32 394.818 315.273 395.178 314.482 396.1 C 313.693 397.021 313.3 398.689 313.309 401.114 Z M 279.122 379.79 C 281.175 380.526 283.236 381.237 285.307 381.921 C 285.24 384.709 285.199 387.507 285.183 390.316 C 287.486 391.045 289.791 391.749 292.098 392.421 C 292.096 389.627 292.105 386.841 292.127 384.061 C 294.227 384.684 296.335 385.277 298.452 385.837 C 298.448 393.781 298.491 401.758 298.582 409.768 C 296.461 409.224 294.344 408.652 292.232 408.06 C 292.179 404.802 292.142 401.553 292.12 398.312 C 289.809 397.648 287.497 396.956 285.186 396.244 C 285.208 399.508 285.263 402.785 285.352 406.076 C 283.258 405.458 281.167 404.833 279.079 404.211 C 278.738 395.955 278.752 387.815 279.123 379.79 L 279.122 379.79 Z" style="fill:#fec500"/></g></svg>