<svg xmlns="http://www.w3.org/2000/svg" viewBox="0 0 640 480"><rect width="640" height="480" x="-0.001" style="opacity:1;fill:#041e42;fill-rule:nonzero;stroke:none;stroke-width:1;stroke-linecap:butt;stroke-linejoin:miter;stroke-miterlimit:4;stroke-dasharray:none;stroke-dashoffset:0;fill-opacity:1"/><path d="M 35.406 89.523 C 17.373 157.136 89.886 211.77 139.28 162.748 C 191.079 101.579 133.272 18.961 73.241 45.334 C 117.055 36.862 143.171 93.795 113.709 129.319 C 85.252 162.012 33.357 140.528 35.406 89.523 Z M 351.818 81.14 C 349.52 82.341 347.822 85.837 346.853 88.596 C 344.551 96.299 342.184 103.986 339.872 111.676 C 338.666 115.133 337.501 118.652 336.285 122.082 C 334.054 121.744 337.165 117.457 336.993 115.622 C 337.731 111.857 339.37 108.177 339.511 104.334 C 338.949 101.457 339.568 97.722 338.297 95.38 C 336.401 100.3 334 105.013 332.368 110.044 C 331.141 116.08 329.494 122.01 328.806 128.17 C 328.395 131.359 327.896 134.503 326.975 137.56 C 324.705 137.322 325.305 132.822 323.969 130.968 C 322.758 126.634 320.318 122.884 318.554 118.816 C 317.654 117.809 315.582 110.725 315.62 114.673 C 315.417 117.525 315.243 120.379 315.011 123.229 C 309.965 112.624 304.904 102.029 299.853 91.428 C 300.263 94.872 299.84 98.584 300.953 101.838 C 303.403 107.777 305.642 113.825 307.981 119.82 C 306.75 121.13 306.502 118.964 305.887 118.084 C 301.22 108.817 296.552 99.549 291.885 90.282 C 290 91.771 291.313 94.516 291.07 96.664 C 291.839 99.675 293.613 102.371 294.822 105.223 C 297.03 109.871 299.301 114.496 301.569 119.096 C 299.943 121.112 299.059 115.403 297.894 114.117 C 293.674 105.883 289.497 97.619 285.151 89.467 C 283.248 90.207 282.659 91.775 282.979 93.851 C 282.663 95.93 283.429 97.698 284.499 99.37 C 287.764 105.727 291.06 112.063 294.353 118.401 C 293.238 119.858 292.896 117.73 292.247 116.878 C 286.948 107.45 281.65 98.021 276.352 88.592 C 275.063 87.94 273.24 86.2 273.652 89.089 C 273.04 92.706 276.535 95.235 277.677 98.363 C 282.39 106.563 287.245 114.807 291.939 122.927 C 290.956 124.416 290.506 122.515 289.872 121.697 C 286.894 116.947 283.917 112.198 280.939 107.449 C 279.827 107.124 278.399 106.312 278.819 108.34 C 278.745 109.628 278.44 110.987 279.412 111.957 C 284.176 119.996 289.028 127.995 293.735 136.06 C 295.263 139.573 296.654 143.192 298.266 146.641 C 300.985 149.789 303.705 152.937 306.425 156.085 C 304.473 157.853 302.495 152.241 300.55 151.227 C 298.49 148.621 295.72 146.537 294.558 143.199 C 293.145 140.715 292.334 137.749 290.155 135.933 C 287.741 133.896 285.886 130.185 283.085 129.262 C 282.181 131.508 282.919 136.557 285.63 138.292 C 285.9 139.128 289.701 142.007 287.615 141.417 C 283.521 140.911 279.678 139.301 275.843 137.711 C 273.524 140.211 281.375 142.212 276.968 143.232 C 273.782 143.281 271.323 140.031 268.41 138.827 C 261.15 134.362 253.712 130.249 246.288 126.155 C 244.746 125.632 243.205 125.109 241.663 124.586 C 241.235 127.61 245.435 128.464 246.832 130.601 C 252.464 134.022 258.233 137.263 263.877 140.698 C 263.696 142.606 262.166 141.163 261.142 140.979 C 250.58 137.154 240.018 133.329 229.457 129.504 C 227.683 129.027 227.992 130.075 228.71 131.42 C 228.887 132.977 230.262 133.054 231.335 133.504 C 239.626 136.633 247.909 139.788 256.204 142.9 C 256.531 144.37 256.805 145.855 257.089 147.336 C 255.205 145.589 253.348 143.593 250.766 143.404 C 245.367 141.901 239.802 143.175 234.328 143.245 C 231.406 142.458 231.028 145.11 233.937 145.676 C 236.275 147.719 239.289 146.572 242.007 146.734 C 246.426 146.586 250.846 146.426 255.265 146.249 C 256.048 149.081 250.95 147.186 250.757 149.486 C 250.247 152.217 254.829 152.217 256.483 151.659 C 259.011 151.706 260.762 147.493 262.911 148.21 C 262.349 150.913 258.13 151.517 257.651 154.314 C 257.334 157.115 262.417 156.29 263.879 155.093 C 265.575 153.508 268.496 151.114 268.652 155.361 C 269.146 159.198 273.657 157.712 276.11 159.012 C 280.483 159.762 284.959 160.073 289.292 160.878 C 293.437 162.994 297.594 165.093 301.731 167.218 C 300.88 169.858 297.235 165.856 295.346 166.011 C 292.216 165.029 289.332 163.031 286.008 162.994 C 283.134 162.4 280.247 162.469 277.362 162.847 C 268.622 163.668 259.865 164.335 251.137 165.252 C 243.013 166.795 234.87 168.273 226.747 169.783 C 224.684 170.503 220.198 171.863 224.494 172.8 C 233.716 172.313 242.92 171.44 252.126 170.658 C 252.792 172.468 250.814 171.851 249.823 172.139 C 242.167 173.014 234.51 173.888 226.855 174.761 C 224.498 176.722 221.352 177.799 220.068 181.007 C 220.436 185.572 225.517 181.397 228.035 181.701 C 234.66 180.447 241.259 179.262 247.646 176.963 C 249.549 177.135 254.307 173.313 254.595 176.059 C 247.372 178.564 240.132 181.104 232.849 183.374 C 231.297 183.782 229.747 184.19 228.196 184.597 C 227.743 188.789 233.382 186.345 235.681 187.01 C 240.735 185.681 245.553 183.388 250.548 181.794 C 253.211 181.547 257.247 178.036 259.178 179.478 C 257.463 181.448 253.479 182.486 250.989 184.116 C 245.849 186.645 240.637 188.967 235.627 191.838 C 232.328 195.597 239.133 195.252 240.804 193.305 C 246.156 190.545 251.441 187.63 256.714 184.658 C 258.007 185.859 256.106 186.434 255.432 187.259 C 252.446 189.889 249.533 192.609 246.201 194.677 C 244.912 195.842 242.802 196.25 242.548 198.385 C 245.475 200.256 248.27 197.987 250.892 196.514 C 257.747 191.523 264.68 186.642 271.656 181.881 C 274.674 180.362 277.768 179.046 280.832 177.658 C 282.016 178.987 280.081 179.391 279.347 180.17 C 275.981 182.704 272.601 185.221 269.242 187.765 C 265.571 192.036 262.246 196.734 257.91 200.201 C 255.888 202.103 253.823 203.815 252.225 205.913 C 249.055 209.5 245.771 212.959 242.629 216.578 C 241.649 220.234 239.56 223.67 239.792 227.593 C 239.832 231.816 239.405 236.084 239.758 240.278 C 240.144 242.022 241.038 245.995 241.341 242.023 C 241.511 240.206 242.625 233.944 243.822 238.338 C 244.48 239.982 245.126 244.938 245.905 244.078 C 247.046 241.534 247.258 237.967 249.095 236.038 C 250.731 237.112 252.024 239.762 253.584 236.713 C 255.562 234.123 255.269 230.229 256.254 227.075 C 257.101 222.982 257.952 218.89 258.807 214.798 C 260.357 214.294 259.99 216.405 260.376 217.488 C 260.872 220.012 261.369 222.534 261.864 225.056 C 265.249 223.407 263.867 218.261 264.959 215.006 C 265.176 212.567 265.866 206.143 268.195 211.047 C 269.563 214.737 273.355 210.483 273.24 207.798 C 274.014 203.546 274.755 199.285 275.547 195.036 C 276.562 197.071 277.622 199.079 278.659 201.1 C 282.193 200.916 283.409 196.93 285.701 194.567 C 287.761 192.162 289.599 189.375 291.885 187.282 C 294.49 185.772 296.932 183.754 299.611 182.455 C 302.226 185.173 298.279 188.843 296.794 191.174 C 293.479 195.781 289.387 199.575 285.917 204.035 C 284.547 205.813 282.404 207.306 282.979 209.953 C 284.72 210.826 286.536 211.62 288.291 212.505 C 285.64 213.998 282.794 215.283 280.349 217.091 C 277.982 219.394 275.427 221.438 272.945 223.578 C 272.274 225.604 271.841 227.891 274.506 227.049 C 276.409 226.681 281.531 227.595 277.505 229.703 C 273.721 232.484 269.339 234.221 265.594 236.974 C 264.556 238.532 261.772 240.976 265.164 240.866 C 267.43 240.5 270.822 236.617 272.506 238.583 C 270.124 241.542 267.038 244.398 264.43 247.355 C 263.103 248.511 260.159 251.722 261.902 252.625 C 266.032 250.405 268.933 246.232 272.452 243.052 C 273.688 240.843 277 238.881 275.952 243.187 C 271.867 248.906 267.918 254.787 263.716 260.357 C 264.139 265.95 267.336 258.751 268.913 257.25 C 271.368 253.99 273.652 250.495 276.863 248.111 C 277.978 247.838 280.918 243.127 281.074 245.053 C 280.998 246.655 281.438 248.442 280.228 249.689 C 277.688 253.539 275.991 257.943 273.911 262.107 C 273.567 263.904 273.211 269.069 275.52 266.633 C 278.269 260.866 281.624 255.474 283.788 249.368 C 286.007 244.132 287.504 238.511 289.363 233.142 C 290.929 230.515 291.693 231.406 291.475 234.152 C 291.728 236.706 291.632 242.169 293.2 242.556 C 296.049 235.234 299.627 228.308 302.664 221.095 C 303.716 217.576 304.966 214.118 306.265 210.695 C 307.902 210.502 307.149 212.5 307.31 213.661 C 307.201 215.989 307.53 218.399 307.149 220.677 C 305.384 226.379 304.061 232.259 301.598 237.656 C 300.106 241.127 297.996 244.255 296.552 247.745 C 295.107 249.864 295.643 249.88 297.273 248.634 C 300.155 247.15 302.091 244.367 304.09 241.719 C 307.233 238.884 304.9 245.33 304.174 246.698 C 302.465 252.149 301.358 257.869 299.423 263.253 C 299.399 264.884 298.897 268.635 300.744 265.764 C 304.214 262.713 305.477 257.827 307.552 253.659 C 308.811 255.726 311.179 256.921 312.325 254.371 C 312.133 251.152 310.811 247.814 312.101 244.695 C 313.374 239.537 314.42 234.28 315.137 228.993 C 315.483 225.778 315.675 222.527 316.03 219.324 C 317.62 218.402 316.948 221.242 317.076 222.32 L 317.076 229.672 C 318.634 229.865 321.494 226.759 322.308 228.797 C 320.735 230.313 318.333 231.251 316.909 232.899 C 316.849 234.952 316.788 237.004 316.728 239.055 C 318.668 237.728 320.608 236.401 322.55 235.073 C 323.926 236.162 322.102 236.915 321.477 237.815 C 319.885 239.486 318.292 241.157 316.701 242.827 C 316.673 244.275 316.647 245.724 316.62 247.172 C 317.969 246.695 319.328 246.251 320.671 245.754 C 321.778 247.171 319.869 247.49 319.077 248.229 C 318.182 249.164 316.171 249.324 316.461 251.082 C 316.359 255.503 316.216 259.92 316.057 264.34 C 316.766 262.759 319.269 258.956 318.903 258.74 C 318.083 260.546 315.097 260.667 317.13 258.788 C 317.975 257.633 322.582 253.945 320.955 257.63 C 319.37 260.202 317.991 263.626 316.327 265.739 C 315.853 265.687 315.286 269.468 316.721 268.72 C 317.912 269.631 321.587 270.048 319.048 271.634 C 317.962 272.861 316.602 273.953 315.681 275.261 C 315.756 278.961 314.928 285.122 315.571 287.271 C 316.542 285.737 319.735 282.967 319.065 282.243 C 317.718 282.966 313.613 282.622 316.486 281.446 C 318.235 280.701 323.124 280.49 320 283.588 C 318.336 286.925 314.373 287.975 315.121 291.624 C 315.136 294.317 314.156 295.962 317.086 295.469 C 320.44 295.139 320.673 298.815 317.65 299.82 C 315.571 301.185 313.754 301.096 315.011 304.195 C 315.658 306.232 320.131 307.607 319.008 309.717 C 318.84 307.337 318.365 310.634 317.207 308.247 C 315.783 306.97 313.95 303.933 314.552 307.961 C 314.29 315.647 314.02 323.332 313.75 331.018 C 315.16 330.533 317.659 332.754 317.684 333.783 C 316.231 335.299 312.761 328.677 313.663 333.921 C 313.712 336.282 313.159 340.647 313.587 341.747 C 314.286 341.084 315.397 342.977 316.256 343.304 C 317.235 344.066 318.215 344.828 319.195 345.59 C 318.656 347.463 317.507 345.533 316.587 345.035 C 315.507 344.194 314.427 343.353 313.347 342.513 C 313.6 345.637 312.379 351.386 313.498 353.003 C 314.774 354.06 318.104 357.099 318.022 358.797 C 316.374 359.292 313.994 353.76 312.955 354.077 C 312.795 358.74 312.646 363.404 312.488 368.067 C 314.22 368.721 317.726 371.255 318.64 372.852 C 317.076 374.342 313.774 368.808 312.421 369.511 C 312.174 373.278 312.376 377.128 311.897 380.852 C 311.262 383.56 317.893 382.891 316.459 385.657 C 314.013 384.751 310.618 380.815 310.599 385.901 C 310.077 389.955 306.795 394.095 309.35 397.937 C 310.333 401.057 313.483 402.386 315.843 403.971 C 318.628 403.477 321.302 401.928 324.203 401.807 C 328.479 401.061 332.827 400.793 337.089 400.019 C 338.891 398.542 341.123 397.149 338.407 395.255 C 336.247 392.272 336.76 388.019 335.507 384.632 C 335.504 381.875 335 380.676 332.843 382.667 C 331.153 383.043 328.524 387.099 327.565 384.572 C 330.092 383.196 332.385 381.408 334.943 380.076 C 334.641 376.468 334.021 372.879 334.085 369.244 C 332.064 370.711 329.079 373.759 327.139 373.338 C 327.929 371.308 331.795 370.414 333.441 368.278 C 334.637 368.261 333.856 366.352 334.059 365.224 C 334.032 362.079 334.004 358.934 333.977 355.788 C 332.106 358.165 329.863 359.86 327.03 360.374 C 324.921 358.302 330.247 359.049 330.935 357.283 C 332.21 355.664 334.566 354.655 333.934 352.123 C 333.913 349.342 333.892 346.561 333.87 343.78 C 332.223 345.01 329.204 349.423 327.613 347.595 C 329.334 345.871 333.057 344.222 333.837 341.643 C 333.804 338.03 333.77 334.419 333.736 330.806 C 331.96 333.475 329.536 335.303 326.668 336.144 C 325.26 337.9 322.387 336.34 325.251 335.461 C 328.043 334.42 330.864 333.282 332.6 330.427 C 334.179 329.476 333.649 327.785 333.704 326.034 C 333.68 323.461 333.655 320.888 333.629 318.315 C 330.294 321.642 327.28 325.33 323.971 328.694 C 322.228 326.626 327.208 324.833 327.915 322.781 C 329.561 320.561 332.355 318.416 333.625 316.508 C 333.599 313.701 333.574 310.894 333.548 308.087 C 332.278 309.41 330.218 311.087 332.824 309.506 C 333.99 310.982 331.942 311.133 331.084 311.774 C 329.904 312.397 328.718 313.011 327.539 313.639 C 326.305 311.034 331.53 309.758 332.571 307.467 C 333.982 307.856 333.459 306.362 333.523 304.82 C 333.504 302.861 333.486 300.904 333.467 298.946 C 331.725 302.514 328.253 300.445 325.48 299.797 C 323.434 299.609 325.36 298.907 326.211 298.338 C 328.406 297.012 330.602 295.686 332.797 294.359 C 334.035 295.764 331.993 296.031 331.165 296.72 C 329.867 297.492 328.569 298.264 327.27 299.036 C 329.704 300.569 332.689 299.588 333.435 296.929 C 333.443 292.227 333.322 287.604 333.119 282.894 C 331.195 285.068 330.091 287.447 327.7 288.416 C 328.818 287.834 333.431 288.589 330.329 289.502 C 328.55 289.902 322.611 290.157 326.768 287.608 C 328.889 286.671 330.267 284.927 331.617 282.925 C 333.222 281.885 333.207 281.18 332.99 279.056 C 332.881 276.162 332.772 273.267 332.663 270.374 C 331.69 271.72 327.54 275.408 328.599 275.404 C 329.841 274.524 334.708 274.268 331.814 275.849 C 329.958 275.717 325.945 278.623 325.285 276.076 C 327.872 274.406 329.773 271.798 331.934 269.498 C 333.198 269.681 332.364 267.59 332.524 266.297 C 332.212 257.609 331.901 248.921 331.59 240.232 C 330.375 241.446 325.287 246.07 327.147 241.48 C 328.394 239.872 329.665 237.061 331.05 236.514 C 331.956 235.99 331.129 234.093 331.34 233.019 C 331.55 230.36 330.107 228.095 329.402 225.654 C 329.354 224.656 327.691 222.914 329.105 222.618 C 330.643 224.088 331.371 228.079 332.619 230.441 C 334.515 235.378 336.68 240.206 338.35 245.241 C 339.274 249.43 340.256 253.605 340.389 257.943 C 341.337 257.554 343.104 258.198 343.038 256.537 C 343.259 254.903 344.31 253.218 343.387 251.653 C 339.232 238.937 334.508 226.475 330.115 213.863 C 331.156 212.646 331.501 214.305 331.91 215.293 C 334.465 221.023 336.135 227.185 338.264 233.128 C 340.424 239.57 342.698 245.977 345.299 252.211 C 349.302 249.591 345.991 244.902 345.426 241.091 C 343.556 234.122 341.027 227.399 338.859 220.541 C 338.215 219.322 336.81 218.751 335.873 217.78 C 334.495 216.637 333.082 215.478 331.724 214.346 C 332.854 211.948 335.359 216.163 337.092 216.371 C 340.071 219.902 340.805 214.475 343.448 213.852 C 344.19 216.911 339.165 219.387 341.84 222.92 C 343.768 230.318 345.498 237.791 348.052 244.957 C 348.475 246.249 348.902 247.539 349.323 248.831 C 348.459 250.228 349.689 256.205 351.45 254.664 C 352.055 251.438 353.889 248.244 352.331 244.983 C 350.043 235.151 346.904 225.602 344.261 215.887 C 344.295 212.345 346.262 217.395 346.482 218.917 C 349.52 228.198 352.807 237.393 355.493 246.81 C 354.923 249.576 354.941 255.425 358.149 252.12 C 358.294 248.427 358.55 244.646 357.183 241.168 C 354.405 232.853 352.197 224.295 349.726 215.854 C 348.313 217.581 345.658 215.927 345.246 214.02 C 345.72 209.826 342.641 209.943 339.86 210.212 C 338.643 210.079 341.983 208.119 342.374 207.406 C 343.877 206.478 347.078 203.635 343.991 202.873 C 343.005 202.363 342.023 201.842 341.034 201.342 C 342.507 198.49 344.033 195.691 345.985 193.209 C 347.187 190.744 346.273 186.32 343.941 184.817 C 342.248 183.771 342.439 181.36 341.77 179.574 C 340.887 178.522 341.773 176.495 342.477 178.02 C 342.917 179.719 343.357 181.419 343.796 183.118 C 346.344 184.656 347.527 187.18 347.468 190.361 C 348.631 193.33 345.568 195.131 344.438 197.378 C 343.764 198.479 343.197 199.666 342.563 200.799 C 343.981 201.55 345.43 202.234 346.828 203.032 C 347.122 206.03 342.52 208.012 342.858 209.035 C 347.323 207.688 344.613 214.687 347.984 215.261 C 349.128 215.248 350.125 213.967 351.208 213.435 C 353.144 213.846 350.398 214.859 350.853 215.831 C 354.457 226.853 358.158 237.885 361.584 248.952 C 361.256 252.956 364.648 253.478 366.76 255.137 C 367.053 257.271 367.962 261.325 369.964 260.455 C 370.051 254.744 370.368 249.001 370.382 243.31 C 370.673 241.36 367.728 236.636 370.142 236.401 C 371.496 240.866 373.291 245.219 374.221 249.816 C 374.877 252.801 373.571 257.651 377.377 258.095 C 379.058 258.863 377.758 252.001 379.558 253.87 L 382.535 256.525 C 386.565 256.634 383.569 251.665 383.635 249.133 C 382.368 245.59 381.165 242.003 379.907 238.452 C 381.783 237.579 378.899 238.761 379.442 236.499 C 379.009 232.995 376.99 230.36 375.184 227.621 C 374.417 225.765 374.468 223.566 373.036 226.202 C 371.333 227.789 372.083 230.405 373.279 232.077 C 375.222 235.461 375.03 239.931 377.457 242.988 C 378.523 244.959 379.955 246.946 379.584 249.39 C 379.68 250.515 379.758 252.752 378.512 251.669 C 378.344 249.76 378.968 247.695 377.917 246.178 C 376.631 243.334 374.784 241.557 374.272 238.362 C 373.715 235.148 372.121 232.402 370.919 229.492 C 371.188 228.785 366.911 229.879 367.243 228.375 C 368.426 228.188 368.216 227.602 370.221 228.104 C 371.741 226.66 371.725 223.94 370.705 222.13 C 368.69 217.052 365.586 212.601 363.327 207.677 C 362.757 204.465 363.892 200.509 361.152 198.27 C 358.322 195.17 356.889 190.988 355.306 187.01 C 353.486 184.16 350.525 182.48 348.41 179.89 C 347.259 180.3 342.919 180.452 345.075 178.991 C 348.044 177.655 350.087 179.56 351.979 181.821 C 354.134 183.705 356.422 185.654 357.145 188.749 C 358.489 192.362 360.238 195.704 362.728 198.476 C 364.921 200.792 363.789 204.495 364.374 207.466 C 367.073 212.975 370.685 218.003 372.502 224 C 372.109 226.623 373.146 223.161 374.254 223.467 C 374.149 220.497 375.069 216.48 373.361 213.712 C 371.577 209.983 369.501 206.388 367.888 202.579 C 366.765 199.86 365.392 196.461 364.141 193.493 C 362.828 190.064 360.92 186.986 359.115 183.873 C 360.914 181.756 361.85 187.852 363.246 188.911 C 366.388 195.161 368.365 202.065 371.8 208.14 C 372.801 210.806 374.926 213.144 375.376 215.984 C 375.72 217.681 374.776 223.179 376.001 222.724 C 376.613 221.398 377.235 220.08 377.841 218.751 C 378.82 218.229 380.758 218.562 380.992 217.356 C 381.331 213.65 378.014 210.954 377.68 207.316 C 376.742 202.354 374.974 197.661 372.78 193.247 C 370.425 187.435 366.97 182.271 365.106 176.204 C 364.613 172.665 367.166 177.183 367.219 178.835 C 369.031 183.472 371.677 187.637 373.548 192.26 C 375.332 196.02 377.036 199.813 378.016 203.954 C 378.687 207.848 380.116 211.447 381.919 214.859 C 382.228 216.414 381.878 217.628 383.058 217.768 C 383.603 219.198 380.954 218.475 382.001 220.666 C 382.303 222.037 381.684 227.218 380.771 224.27 C 380.851 221.839 381.87 217.885 378.782 219.746 C 377.959 220.548 377.645 222.076 377.012 223.151 C 376.492 224.611 374.548 224.509 375.872 226.582 C 377.604 229.482 379.909 232.064 380.362 235.676 C 380.729 238.896 383.108 241.078 384.547 243.86 C 386.107 245.664 387.937 251.185 389.502 250.194 C 390.201 246.765 387.524 244.478 386.545 241.499 C 384.451 236.46 382.551 231.321 380.55 226.233 C 382.176 227.552 384.247 228.32 385.174 230.483 C 388.895 236.057 392.554 241.689 396.378 247.172 C 400.385 249.336 397.925 243.718 396.701 241.953 C 393.644 235.016 389.46 228.812 385.85 222.233 C 385.066 221.333 382.558 216.956 384.9 218.304 C 389.021 224.024 393.143 229.745 397.264 235.466 C 398.656 236.535 401.171 237.427 400.334 234.762 C 396.8 227.504 392.3 220.913 388.365 213.923 C 384.25 207.341 380.755 200.304 377.063 193.407 C 379.006 191.638 381.555 196.078 383.72 196.659 C 387.185 198.786 390.272 201.504 393.107 204.576 C 397.887 209.249 402.481 214.195 407.447 218.609 C 409.923 220.133 411.852 222.796 414.514 223.789 C 414.558 222.783 411.793 219.008 412.954 219.032 C 415.744 219.916 418.381 221.218 420.958 222.667 C 422.685 223.623 428.087 225.909 425.38 221.949 C 424.518 219.968 420.415 218.895 421.085 216.746 C 421.847 216.285 423.083 217.732 424.027 218.005 C 426.195 219.471 428.632 220.136 431.121 220.531 C 434.758 220.347 432.472 216.088 430.016 216.059 C 424.378 212.683 418.784 209.205 413.172 205.777 C 414.336 203.127 418.142 207.334 420.336 207.195 C 421.618 206.741 426.327 207.83 424.679 205.331 C 423.981 204.37 422.54 204.338 421.541 203.753 C 413.853 200.621 406.15 197.528 398.471 194.373 C 395.195 191.891 391.864 189.484 388.571 187.041 C 389.075 184.772 392.376 187.695 394.017 187.463 C 396.894 188.309 399.786 189.006 402.774 188.966 C 404.692 189.025 408.716 189.574 409.415 189.215 C 408.144 188.443 402.536 186.618 405.738 185.635 C 407.344 185.524 412.39 185.409 408.088 185.229 C 405.036 184.872 401.848 184.995 398.9 184.084 C 399.277 182.857 400.803 183.32 402.794 183.558 C 404.967 184.396 409.37 182.96 410.22 185.011 C 412.377 185.787 416.166 184.79 418.943 184.979 C 422.785 184.598 427.013 185.195 430.612 184.127 C 431.867 181.929 435.62 181.216 435.551 178.362 C 435.301 175.715 435.274 172.986 434.887 170.388 C 434.087 169.406 433.918 167.41 432.564 167.322 C 428.936 166.653 425.466 165.53 422.026 164.141 C 414.866 163.944 407.677 164.017 400.537 163.538 C 398.224 163.368 395.469 165.724 392.811 165.559 C 388.704 166.023 384.51 165.642 380.526 167.07 C 378.99 168.409 376.856 166.477 379.316 166.132 C 382.393 165.216 385.505 164.59 388.698 164.644 C 391.944 164.527 395.208 164.255 398.218 162.761 C 400.064 161.353 400.472 163.744 400.833 161.133 C 402.522 160.414 407.927 160.923 406.654 158.921 C 399.985 159.176 393.312 159.266 386.641 159.404 C 384.241 159.137 381.181 160.804 378.807 162.089 C 376.024 163.354 378.32 160.182 380.04 160.098 C 382.994 158.128 386.669 158.617 389.537 156.477 C 394.021 154.127 398.234 151.154 402.603 148.573 C 403.738 147.443 406.897 145.682 403.555 145.316 C 400.933 144.637 398.13 146.335 395.412 146.37 C 391.831 147.081 395.417 143.57 396.763 142.894 C 400.947 140.476 405.041 137.83 409.041 135.025 C 410.311 133.936 414.056 133.193 412.851 131.375 C 409.459 132.649 406.102 134.472 402.63 135.538 C 401.456 135.853 396.129 136.593 398.759 134.258 C 403.873 130.46 408.907 126.521 413.977 122.656 C 415.667 120.104 414.443 120.038 412.416 121.08 C 410.068 121.884 408.318 124.042 406.131 125.298 C 405.38 126.778 401.172 128.031 403.406 125.467 C 405.671 123.253 407.885 120.965 410.248 118.884 C 411.443 117.014 412.669 112.558 409.424 114.657 C 407.332 115.895 404.641 116.08 403.185 118.369 C 400.609 121.379 397.984 124.368 395.44 127.392 C 393.579 125.43 398.392 123.266 398.984 121.188 C 401.074 118.496 403.275 115.879 405.151 113.001 C 405.548 110.64 405.639 108.978 403.51 110.623 C 402.474 111.124 401.439 111.625 400.403 112.125 C 400.715 114.56 396.12 117.104 394.662 119.518 C 392.193 121.886 388.838 122.882 386.667 125.702 C 384.932 123.619 389.706 122.038 390.932 120.815 C 394.403 118.916 396.75 115.339 399.544 112.457 C 396.487 113.155 392.965 113.013 391.174 116.44 C 386.546 121.389 382.041 126.511 377.304 131.315 C 371.528 135.818 365.659 140.232 359.732 144.439 C 357.021 145.667 353.168 144.658 351.884 148.335 C 349.619 151.917 346.937 155.121 344.414 158.469 C 347.127 157.797 349.703 158.494 352.153 159.846 C 354.508 160.774 356.51 162.604 358.766 163.749 C 358.263 166.27 355.171 168.181 352.735 167.719 C 351.206 167.672 349.827 166.509 348.357 166.011 C 348.503 164.028 349.998 165.628 350.998 165.909 C 352.959 167.103 355.619 166.637 357.063 164.681 C 356.31 162.94 352.31 161.181 349.987 160.209 C 347.879 158.785 345.465 159.765 343.18 159.796 C 340.477 160.486 343.934 157.793 344.333 156.741 C 347.326 152.959 350.188 149.06 352.784 144.922 C 352.595 141.867 355.608 139.708 356.609 136.891 C 359.562 132 361.085 126.235 363.348 120.92 C 364.311 118.702 363.814 116.113 364.065 113.713 C 363.993 112.412 364.403 110.994 363.998 109.773 C 361.898 114.118 359.737 118.46 357.72 122.837 C 355.235 122.998 357.464 118.568 358.18 117.418 C 360.09 113.077 362.245 108.809 364.031 104.434 C 364.082 102.603 364.134 100.772 364.185 98.94 C 362.577 97.368 361.766 102.734 360.488 103.993 C 357.693 109.228 355.11 114.638 352.195 119.776 C 351.909 121.513 348.82 122.775 350.059 120.315 C 354.225 111.697 358.502 103.11 362.775 94.583 C 364.492 91.158 363.941 87.16 364.185 83.403 C 362.539 80.477 361.39 84.978 360.071 86.14 C 358.384 88.496 357.764 91.592 356.467 94.239 C 354.365 99.375 352.184 104.478 350.047 109.592 C 347.658 108.484 351.427 104.469 351.459 102.212 C 353.508 96.256 355.546 90.298 357.586 84.338 C 356.564 81.948 354.27 88.255 353.187 89.709 C 351.24 94.599 348.982 99.323 346.828 104.1 C 344.526 102.972 348.232 98.996 348.132 96.831 C 349.247 93.212 350.713 89.627 351.792 86.058 C 351.629 84.71 353.326 81.208 351.818 81.14 Z M 366.573 146.069 C 367.103 148.449 363.914 149.534 362.603 151.378 C 360.954 152.07 355.06 153.697 357.598 155.188 C 359.274 154.189 360.955 153.197 362.629 152.193 C 364.772 154.48 368.014 156.929 367.761 160.422 C 365.725 160.996 366.593 155.933 364.17 155.462 C 363.052 153.289 361.638 153.844 360.134 155.04 C 358.938 155.765 357.718 156.44 356.539 157.201 C 354.538 154.127 356.756 151.643 359.636 151.276 C 362.493 150.775 364.155 148.007 366.305 146.159 L 366.363 146.104 L 366.573 146.069 Z M 381.758 152.706 C 381.956 155.392 377.754 154.221 376.621 156.488 C 374.789 157.484 372.934 160.546 371.297 160.52 C 369.49 160.124 373.47 158.161 374.104 157.055 C 376.394 154.992 378.732 153.089 381.758 152.706 Z M 401.234 163.206 C 400.769 163.705 401.096 163.606 401.234 163.206 Z M 346.211 165.831 C 348.701 166.884 351.354 167.553 353.462 169.488 C 356.186 170.572 356.314 174.076 357.105 176.721 C 357.182 178.424 355.872 183.846 354.499 182.686 C 355.053 180.187 357.024 177.107 355.359 174.248 C 355.14 171.105 352.238 170.233 350.275 168.717 C 348.794 168.127 347.315 167.537 345.835 166.947 C 345.96 166.575 346.086 166.203 346.211 165.831 Z M 416.338 166.132 C 421.396 166.365 426.496 166.613 431.523 167.158 C 432.083 167.824 430.513 167.864 430.745 168.214 C 424.232 167.88 417.72 166.99 411.2 167.597 C 408.147 167.156 405.482 169.778 402.39 169.038 C 400.742 169.4 396.95 168.41 399.544 167.64 C 402.506 168.013 405.52 168.055 408.282 166.627 C 410.9 166.091 413.672 166.448 416.338 166.132 Z M 408.558 170.899 C 413.783 171.735 419.031 172.257 424.312 172.185 C 427.64 172.395 431.533 172.02 434.523 172.617 C 434.026 175.109 429.379 172.705 427.393 173.449 C 421.528 173.372 415.651 173.373 409.847 172.287 C 408.723 172.322 408.375 172.124 408.558 170.899 Z M 414.219 177.476 C 416.369 179.995 419.447 180.448 422.54 179.883 C 426.181 179.618 429.911 180.727 433.443 179.203 C 436.512 178.881 433.219 181.146 431.61 180.921 C 428.043 181.763 424.396 180.65 420.792 181.157 C 417.913 182.303 415.553 179.574 413.486 178.966 C 411.941 179.993 410.243 180.216 408.497 180.071 L 400.966 180.071 C 400.458 178.189 402.386 179.047 403.389 178.864 C 405.898 178.844 408.416 178.904 410.919 178.834 C 412.007 178.356 413.064 177.723 414.219 177.476 Z M 311.656 181.309 C 314.271 182.519 309.531 185.431 310.304 187.345 C 310.42 189.354 310.631 190.781 311.469 188.007 C 311.853 186.708 312.208 185.4 312.622 184.114 C 313.68 186.075 315.069 187.172 317.076 187.191 C 317.934 188.847 318.344 192.597 319.249 189.132 C 320.075 187.344 320.715 185.277 321.905 183.813 C 323.84 185.056 321.637 189.482 322.2 191.748 C 322.041 195.319 322.715 198.894 322.266 202.474 C 322.545 204.606 320.675 210.031 324.044 207.444 C 325.207 206.822 325.36 204.978 326.072 203.812 C 327.363 201.004 326.886 197.584 327.726 194.613 C 330.227 193.893 327.956 202.426 330.369 199.718 C 331.072 196.831 329.17 194.399 328.961 191.204 L 328.961 185.532 C 330.635 184.961 329.872 187.129 330.034 188.257 C 329.911 190.531 330.123 192.791 331 194.885 C 333.755 196.558 333.313 190.794 335.507 189.635 C 337.895 188.562 336.554 182.961 338.968 183.571 C 338.743 187.023 337.034 189.878 334.917 192.23 C 334.049 193.875 333.645 197.844 331.161 196.243 C 332.963 198.322 330.917 202.683 328.692 201.945 C 328.2 200.097 328.161 197.935 327.899 201.094 C 327.821 203.729 326.183 205.814 325.339 208.191 C 323.313 209.442 319.671 210.813 321.003 206.574 C 321.249 202.033 321.542 197.488 321.047 192.954 C 320.999 191.465 321.721 186.781 321.063 187.702 C 320.133 189.82 319.242 191.977 318.31 194.1 C 317.157 192.16 317.616 187.578 314.885 188.043 C 313.37 187.704 312.835 185.671 312.461 188.429 C 311.792 189.244 310.957 193.802 309.752 191.748 C 309.458 189.24 309.643 185.345 307.096 188.399 C 306.628 186.36 306.186 184.315 305.728 182.273 C 307.229 181.249 306.963 183.559 307.361 184.615 C 307.276 188.08 310.571 184.704 310.96 182.907 C 311.191 182.373 311.423 181.84 311.656 181.309 Z M 353.722 196.605 C 356.582 203.122 359.613 209.564 362.683 215.975 C 364.342 220.525 366.344 224.967 367.043 229.864 C 366.387 232.189 371.261 235.343 368.881 235.948 C 366.252 233.639 365.982 229.969 365.259 226.595 C 363.542 220.574 361.067 214.834 358.32 209.315 C 356.339 205.353 354.657 201.235 352.811 197.209 C 353.114 197.007 353.419 196.806 353.722 196.605 Z M 347.875 203.725 C 350.608 204.077 345.39 207.277 348.791 207.636 C 350.551 207.961 350.097 210.761 351.692 211.232 C 355.709 211.49 351.257 217.915 355.386 216.971 C 357.368 218.725 355.284 223.265 358.391 224.422 C 360.972 225.819 360.241 229.26 361.447 231.645 C 361.734 233.473 362.664 233.197 363.787 232.295 C 364.621 231.674 366.291 230.704 365.977 232.421 C 364.522 233.235 363.064 234.045 361.61 234.862 C 360.451 232.336 359.418 229.733 359.168 226.867 C 356.895 224.943 354.835 222.804 355.192 219.29 C 355.732 216.596 351.168 219.34 352.372 215.949 C 353.953 212.502 350.414 212.945 349.684 210.632 C 349.482 208.312 346.388 208.691 346.211 206.652 C 346.72 205.644 347.361 204.73 347.875 203.725 Z M 331.482 237.004 C 331.034 238.505 326.74 243.01 329.915 240.163 C 331.557 239.046 331.792 239.773 331.494 237.296 L 331.486 237.086 L 331.482 237.004 Z M 330.839 247.715 C 333.942 248.309 326.98 251.668 328.475 251.752 C 329.386 251.008 331.332 251.104 330.322 252.394 C 328.813 252.916 327.304 253.438 325.795 253.961 C 324.671 251.251 329.614 249.899 330.785 247.775 L 330.839 247.715 Z M 331.161 259.27 C 333.708 259.359 329.765 262.255 329.041 263.495 C 326.262 266.035 332.346 260.975 331.858 263.488 C 330.694 264.407 326.468 267.396 325.008 265.742 C 326.835 263.403 329.456 261.876 331.161 259.27 Z M 315.869 269.619 C 315.728 271.824 315.353 274.596 317.239 271.855 C 319.338 270.406 317.019 270.471 315.869 269.619 Z M 314.957 296.321 C 314.911 298.392 314.215 301.688 316.647 299.096 C 318.448 298.216 319.795 296.627 316.899 296.653 C 316.253 296.535 315.603 296.434 314.957 296.321 Z M 314.501 318.949 C 316.12 320.06 320.254 320.337 320.15 322.411 C 318.99 322.209 314.705 321.097 314.501 319.528 L 314.501 318.949 Z M 307.123 395.192 C 300.786 395.388 294.429 395.157 288.102 395.403 C 285.369 397.362 282.209 398.649 280.07 401.485 C 278.452 404.043 282.788 406.234 285.017 405.661 C 286.141 406.5 290.152 404.858 289.471 407.23 C 288.421 410.655 284.996 411.256 282.737 413.325 C 281.343 416.58 284.651 420.624 287.136 417.518 C 288.609 415.945 289.881 415.763 290.925 417.706 C 292.65 419.227 289.716 423.321 293.495 423.1 C 295.963 421.702 298.166 419.259 300.484 417.408 C 302.022 415.197 304.511 412.738 305.486 416.915 C 307.745 419.087 310.579 418.548 313.278 418.347 C 316.593 418.22 320.243 417.719 322.149 414.207 C 325.248 412.541 328.202 415.942 329.765 418.669 C 331.857 420.215 335.346 420.42 334.279 416.505 C 333.458 413.942 334.169 411.234 336.907 412.884 C 339.907 413.529 342.234 416.084 345.111 416.975 C 344.936 414.516 344.907 409.883 347.943 413.03 C 350.502 415.116 353.176 417.139 356.272 418.061 C 356.382 416.608 356.042 415.018 356.459 413.656 C 358.449 411.357 362.429 418.104 361.556 412.962 C 361.971 411.197 359.822 407.296 362.013 407.562 C 365.036 408.996 368.227 409.988 371.456 410.639 C 369.318 406.642 365.502 404.446 362.254 401.769 C 359.118 400.301 355.803 399.137 352.372 399.209 C 348.67 398.83 344.876 399.003 341.222 398.394 C 339.658 397.115 339.916 398.257 340.202 398.631 C 338.017 402.152 334.115 401.47 330.81 402.135 C 326.194 402.631 321.53 403.15 317.157 404.997 C 314.135 405.439 311.46 402.44 309.272 400.35 C 308.311 398.852 307.856 396.883 307.123 395.192 Z" style="stroke:none;stroke-width:1;stroke-dasharray:none;stroke-linecap:butt;stroke-dashoffset:0;stroke-linejoin:miter;stroke-miterlimit:4;fill:#fff;fill-rule:evenodd;opacity:1"/></svg>