<svg xmlns="http://www.w3.org/2000/svg" viewBox="0 0 640 480"><path fill="#c00" d="M 0 0 L 640 0 L 640 480 L 0 480 L 0 0 Z"/><path fill="#fff" d="M 592 0 L 640 0 L 640 480 L 592 480 L 592 0 Z"/><path fill="#002d65" d="M 600 0 L 640 0 L 640 480 L 600 480 L 600 0 Z"/><path fill="#002d65" d="M 600 0 L 640 0 L 640 480 L 600 480 L 600 0 Z"/><g transform="matrix(3.325865, 0, 0, 3.24884, 272.70874, 227.92128)"><circle r="39" fill="#fff"/><circle r="36" fill="#002d65"/><g fill="#fff" transform="rotate(18) translate(0,18.5)"><g><path d="M 0,-17 V 0 H 8.5" transform="rotate(18 0,-17)"/><path d="M 0,-17 V 0 H 8.5" transform="matrix(-0.9510565162951535, 0.3090169943749474, 0.3090169943749474, 0.9510565162951535, 5.253288904374106, -0.8320392229823916)"/></g><g transform="matrix(0.3090169943749474, 0.9510565162951535, -0.9510565162951535, 0.3090169943749474, 0, 0)"><path d="M 0,-17 V 0 H 8.5" transform="rotate(18 0,-17)"/><path d="M 0,-17 V 0 H 8.5" transform="matrix(-0.9510565162951535, 0.3090169943749474, 0.3090169943749474, 0.9510565162951535, 5.253288904374106, -0.8320392229823916)"/></g><g transform="matrix(-0.8090169943749475, 0.5877852522924731, -0.5877852522924731, -0.8090169943749475, 0, 0)"><path d="M 0,-17 V 0 H 8.5" transform="rotate(18 0,-17)"/><path d="M 0,-17 V 0 H 8.5" transform="matrix(-0.9510565162951535, 0.3090169943749474, 0.3090169943749474, 0.9510565162951535, 5.253288904374106, -0.8320392229823916)"/></g><g transform="matrix(-0.8090169943749475, -0.5877852522924731, 0.5877852522924731, -0.8090169943749475, 0, 0)"><path d="M 0,-17 V 0 H 8.5" transform="rotate(18 0,-17)"/><path d="M 0,-17 V 0 H 8.5" transform="matrix(-0.9510565162951535, 0.3090169943749474, 0.3090169943749474, 0.9510565162951535, 5.253288904374106, -0.8320392229823916)"/></g><g transform="matrix(0.3090169943749474, -0.9510565162951535, 0.9510565162951535, 0.3090169943749474, 0, 0)"><path d="M 0,-17 V 0 H 8.5" transform="rotate(18 0,-17)"/><path d="M 0,-17 V 0 H 8.5" transform="matrix(-0.9510565162951535, 0.3090169943749474, 0.3090169943749474, 0.9510565162951535, 5.253288904374106, -0.8320392229823916)"/></g></g><g fill="#fff" transform="matrix(-0.7431448254773941, 0.6691306063588582, -0.6691306063588582, -0.7431448254773941, -12.378916217638878, -13.74817927133179)"><g><path d="M 0,-17 V 0 H 8.5" transform="rotate(18 0,-17)"/><path d="M 0,-17 V 0 H 8.5" transform="matrix(-0.9510565162951535, 0.3090169943749474, 0.3090169943749474, 0.9510565162951535, 5.253288904374106, -0.8320392229823916)"/></g><g transform="matrix(0.3090169943749474, 0.9510565162951535, -0.9510565162951535, 0.3090169943749474, 0, 0)"><path d="M 0,-17 V 0 H 8.5" transform="rotate(18 0,-17)"/><path d="M 0,-17 V 0 H 8.5" transform="matrix(-0.9510565162951535, 0.3090169943749474, 0.3090169943749474, 0.9510565162951535, 5.253288904374106, -0.8320392229823916)"/></g><g transform="matrix(-0.8090169943749475, 0.5877852522924731, -0.5877852522924731, -0.8090169943749475, 0, 0)"><path d="M 0,-17 V 0 H 8.5" transform="rotate(18 0,-17)"/><path d="M 0,-17 V 0 H 8.5" transform="matrix(-0.9510565162951535, 0.3090169943749474, 0.3090169943749474, 0.9510565162951535, 5.253288904374106, -0.8320392229823916)"/></g><g transform="matrix(-0.8090169943749475, -0.5877852522924731, 0.5877852522924731, -0.8090169943749475, 0, 0)"><path d="M 0,-17 V 0 H 8.5" transform="rotate(18 0,-17)"/><path d="M 0,-17 V 0 H 8.5" transform="matrix(-0.9510565162951535, 0.3090169943749474, 0.3090169943749474, 0.9510565162951535, 5.253288904374106, -0.8320392229823916)"/></g><g transform="matrix(0.3090169943749474, -0.9510565162951535, 0.9510565162951535, 0.3090169943749474, 0, 0)"><path d="M 0,-17 V 0 H 8.5" transform="rotate(18 0,-17)"/><path d="M 0,-17 V 0 H 8.5" transform="matrix(-0.9510565162951535, 0.3090169943749474, 0.3090169943749474, 0.9510565162951535, 5.253288904374106, -0.8320392229823916)"/></g></g><g fill="#fff" transform="matrix(-0.2079116908177593, -0.9781476007338057, 0.9781476007338057, -0.2079116908177593, 18.0957306135754, -3.846366280128545)"><g><path d="M 0,-17 V 0 H 8.5" transform="rotate(18 0,-17)"/><path d="M 0,-17 V 0 H 8.5" transform="matrix(-0.9510565162951535, 0.3090169943749474, 0.3090169943749474, 0.9510565162951535, 5.253288904374106, -0.8320392229823916)"/></g><g transform="matrix(0.3090169943749474, 0.9510565162951535, -0.9510565162951535, 0.3090169943749474, 0, 0)"><path d="M 0,-17 V 0 H 8.5" transform="rotate(18 0,-17)"/><path d="M 0,-17 V 0 H 8.5" transform="matrix(-0.9510565162951535, 0.3090169943749474, 0.3090169943749474, 0.9510565162951535, 5.253288904374106, -0.8320392229823916)"/></g><g transform="matrix(-0.8090169943749475, 0.5877852522924731, -0.5877852522924731, -0.8090169943749475, 0, 0)"><path d="M 0,-17 V 0 H 8.5" transform="rotate(18 0,-17)"/><path d="M 0,-17 V 0 H 8.5" transform="matrix(-0.9510565162951535, 0.3090169943749474, 0.3090169943749474, 0.9510565162951535, 5.253288904374106, -0.8320392229823916)"/></g><g transform="matrix(-0.8090169943749475, -0.5877852522924731, 0.5877852522924731, -0.8090169943749475, 0, 0)"><path d="M 0,-17 V 0 H 8.5" transform="rotate(18 0,-17)"/><path d="M 0,-17 V 0 H 8.5" transform="matrix(-0.9510565162951535, 0.3090169943749474, 0.3090169943749474, 0.9510565162951535, 5.253288904374106, -0.8320392229823916)"/></g><g transform="matrix(0.3090169943749474, -0.9510565162951535, 0.9510565162951535, 0.3090169943749474, 0, 0)"><path d="M 0,-17 V 0 H 8.5" transform="rotate(18 0,-17)"/><path d="M 0,-17 V 0 H 8.5" transform="matrix(-0.9510565162951535, 0.3090169943749474, 0.3090169943749474, 0.9510565162951535, 5.253288904374106, -0.8320392229823916)"/></g></g></g></svg>