<svg xmlns="http://www.w3.org/2000/svg" viewBox="0 0 640 480"><path fill="#bf0d3e" d="M 0 0 L 640 0 L 640 480 L 0 480 L 0 0 Z"/><path fill="#fff" d="M 0 0 L 640 0 L 640 240 L 0 240 L 0 0 Z"/><path fill="#00205b" d="M 0 0 L 213.334 0 L 213.334 480 L 0 480 L 0 0 Z"/><g fill="#fff" transform="matrix(0.711111, 0, 0, 0.8, 106.666679, 240)"><g><path d="M0-112.5V0h50" transform="rotate(18 0 -112.5)"/><path d="M0-112.5V0h50" transform="matrix(-0.9510565162951535, 0.3090169943749474, 0.3090169943749474, 0.9510565162951535, 34.76441186718158, -5.5061419167952295)"/></g><g transform="matrix(0.3090169943749474, 0.9510565162951535, -0.9510565162951535, 0.3090169943749474, 0, 0)"><path d="M0-112.5V0h50" transform="rotate(18 0 -112.5)"/><path d="M0-112.5V0h50" transform="matrix(-0.9510565162951535, 0.3090169943749474, 0.3090169943749474, 0.9510565162951535, 34.76441186718158, -5.5061419167952295)"/></g><g transform="matrix(-0.8090169943749475, 0.5877852522924731, -0.5877852522924731, -0.8090169943749475, 0, 0)"><path d="M0-112.5V0h50" transform="rotate(18 0 -112.5)"/><path d="M0-112.5V0h50" transform="matrix(-0.9510565162951535, 0.3090169943749474, 0.3090169943749474, 0.9510565162951535, 34.76441186718158, -5.5061419167952295)"/></g><g transform="matrix(-0.8090169943749475, -0.5877852522924731, 0.5877852522924731, -0.8090169943749475, 0, 0)"><path d="M0-112.5V0h50" transform="rotate(18 0 -112.5)"/><path d="M0-112.5V0h50" transform="matrix(-0.9510565162951535, 0.3090169943749474, 0.3090169943749474, 0.9510565162951535, 34.76441186718158, -5.5061419167952295)"/></g><g transform="matrix(0.3090169943749474, -0.9510565162951535, 0.9510565162951535, 0.3090169943749474, 0, 0)"><path d="M0-112.5V0h50" transform="rotate(18 0 -112.5)"/><path d="M0-112.5V0h50" transform="matrix(-0.9510565162951535, 0.3090169943749474, 0.3090169943749474, 0.9510565162951535, 34.76441186718158, -5.5061419167952295)"/></g></g></svg>