<svg xmlns="http://www.w3.org/2000/svg" viewBox="0 0 640 480"><path fill="#1eb53a" d="M0 320h640v160H0z"/><path fill="#0099b5" d="M0 0h640v160H0z"/><path fill="#ce1126" d="M0 153.6h640v172.8H0z"/><path fill="#fff" d="M0 163.2h640v153.6H0z"/><circle cx="134.4" cy="76.8" r="57.6" fill="#fff"/><circle cx="153.6" cy="76.8" r="57.6" fill="#0099b5"/><g fill="#fff" transform="translate(261.1 122.9)scale(1.92)"><g id="uz-e"><g id="uz-d"><g id="uz-c"><g id="uz-b"><path id="uz-a" d="M0-6-1.9-.3 1 .7"/><use width="100%" height="100%" href="#uz-a" transform="scale(-1 1)"/></g><use width="100%" height="100%" href="#uz-b" transform="rotate(72)"/></g><use width="100%" height="100%" href="#uz-b" transform="rotate(-72)"/><use width="100%" height="100%" href="#uz-c" transform="rotate(144)"/></g><use width="100%" height="100%" y="-24" href="#uz-d"/><use width="100%" height="100%" y="-48" href="#uz-d"/></g><use width="100%" height="100%" x="24" href="#uz-e"/><use width="100%" height="100%" x="48" href="#uz-e"/><use width="100%" height="100%" x="-48" href="#uz-d"/><use width="100%" height="100%" x="-24" href="#uz-d"/><use width="100%" height="100%" x="-24" y="-24" href="#uz-d"/></g></svg>