<svg xmlns="http://www.w3.org/2000/svg" viewBox="0 0 640 480"><path fill="#ce1126" d="M 0 0 L 640 0 L 640 480 L 0 480 L 0 0 Z" style="fill:#CE1126;fill-opacity:1"/><path fill="#fff" d="M 0 0 L 170.667 0 L 170.667 192 L 0 192 L 0 0 Z"/><path fill="#002654" d="M 0 0 L 85.333 0 L 85.333 192 L 0 192 L 0 0 Z" style="fill:#002654;fill-opacity:1"/><path fill="none" stroke="#fff" d="M 0 192 L 256 192 L 256 0"/><path fill="#fff" d="M 448 220.8 L 396.8 163.2 L 499.2 163.2 L 448 220.8 Z M 430.933 240 L 379.733 182.4 L 379.733 297.6 L 430.933 240 Z M 448 259.2 L 396.8 316.8 L 499.2 316.8 L 448 259.2 Z M 465.067 240 L 516.267 182.4 L 516.267 297.6 L 465.067 240 Z"/></svg>