<svg xmlns="http://www.w3.org/2000/svg" version="1.0" viewBox="0 0 640 480"><defs/><rect width="640" height="480" x="0" y="0" style="fill:#000"/><path d="M 328.335 309.424 L 282.846 309.424 C 282.529 308.312 281.062 304.262 278.441 297.278 C 275.82 290.291 274.511 284.18 274.511 278.937 C 274.511 268.934 275.901 259.33 278.68 250.122 C 281.456 240.914 285.544 232.298 290.945 224.279 C 296.342 216.265 307.021 203.444 322.976 185.816 C 338.932 168.193 346.912 153.665 346.912 142.235 C 346.912 120.005 332.384 108.895 303.33 108.89 C 289.197 108.895 274.434 115.959 259.03 130.089 L 234.5 84.125 C 254.984 68.089 281.896 60.07 315.236 60.07 C 340.959 60.07 362.431 67.216 379.657 81.504 C 396.887 95.796 405.5 114.767 405.5 138.424 C 405.5 154.619 402.365 168.312 396.092 179.508 C 389.822 190.7 378.785 203.838 362.987 218.921 C 347.19 234.008 336.909 246.551 332.145 256.55 C 327.381 266.556 324.999 277.509 325.004 289.418 C 324.999 291.959 326.111 298.626 328.335 309.424 Z M 308.094 341.814 C 318.888 341.814 328.057 345.625 335.6 353.245 C 343.141 360.866 346.912 370.073 346.912 380.872 C 346.912 391.666 343.141 400.877 335.6 408.498 C 328.057 416.118 318.888 419.929 308.094 419.929 C 297.296 419.929 288.084 416.118 280.464 408.498 C 272.843 400.877 269.032 391.666 269.032 380.872 C 269.032 370.073 272.843 360.866 280.464 353.245 C 288.084 345.625 297.296 341.814 308.094 341.814 Z" style="font-size:12px;font-style:normal;font-variant:normal;font-weight:bold;font-stretch:normal;text-align:start;line-height:125%;writing-mode:lr-tb;text-anchor:start;fill:white;font-family:Trebuchet MS"/></svg>